<svg height="462pt" viewBox="0 -84 462.33614 462" width="462pt" xmlns="http://www.w3.org/2000/svg"><path d="m375.347656 68.582031c-11.976562.007813-23.796875 2.722657-34.578125 7.941407-17.382812-43.164063-59.898437-70.851563-106.402343-69.289063-46.503907 1.5625-87.066407 32.039063-101.511719 76.273437-27.292969.0625-52.234375 15.453126-64.527344 39.820313-19.625-2.933594-39.238281 5.363281-50.804687 21.488281-11.566407 16.121094-13.136719 37.363282-4.070313 55.011719s27.246094 28.742187 47.085937 28.734375h314.800782c43.636718-.757812 78.613281-36.34375 78.613281-79.988281 0-43.640625-34.976563-79.230469-78.613281-79.988281zm0 0" fill="#d9ecf2"/><g fill="#bdd9e5"><path d="m315.871094 81.03125c7.972656-2.945312 16.398437-4.46875 24.898437-4.507812-.867187-2.082032-2.707031-6.160157-3.203125-7.136719-20.460937-42.609375-65.914062-67.320313-112.796875-61.328125 40.632813 4.917968 76.324219 36.285156 91.101563 72.972656zm0 0"/><path d="m375.347656 68.582031c-4.546875 0-9.085937.394531-13.5625 1.175781 41.035156 6.839844 69.964844 44.007813 66.523438 85.46875-3.4375 41.457032-38.097656 73.347657-79.699219 73.332032h26.738281c43.636719-.757813 78.613282-36.34375 78.613282-79.988282 0-43.644531-34.976563-79.230468-78.613282-79.988281zm0 0"/><path d="m428.601562 208.136719c-9.960937-17.359375-31.597656-24.144531-49.6875-15.574219-.371093-36.496094-27.847656-67.007812-64.109374-71.1875-36.257813-4.175781-69.957032 19.289062-78.617188 54.742188-15.933594-6.554688-34.179688-3.792969-47.460938 7.179687-13.28125 10.976563-19.429687 28.378906-15.996093 45.261719h202.617187c19.664063.003906 38.632813-7.269532 53.253906-20.421875zm0 0"/><path d="m105.300781 89.050781c4.246094 32.460938 33.65625 44.179688 33.65625 44.179688s-15.945312-19.6875-6.089843-49.722657c-9.464844.015626-18.832032 1.902344-27.566407 5.542969zm0 0"/></g><path d="m395.285156 209.328125c-5.664062.003906-11.253906 1.265625-16.371094 3.691406-.371093-36.496093-27.847656-67.011719-64.109374-71.1875-36.257813-4.179687-69.957032 19.285157-78.617188 54.742188-17.425781-7.183594-37.46875-3.167969-50.78125 10.175781s-17.285156 33.394531-10.058594 50.804688c7.226563 17.410156 24.226563 28.757812 43.078125 28.753906h176.859375c21.257813 0 38.492188-17.234375 38.492188-38.492188 0-21.261718-17.234375-38.492187-38.492188-38.492187zm0 0" fill="#26a3b9"/><path d="m355.425781 213.019531c7.660157-2.3125 15.828125-2.3125 23.488281 0 0-1.015625-.0625-2.03125-.1875-3.039062-1.046874-20.597657-10.84375-39.765625-26.925781-52.679688-16.085937-12.914062-36.917969-18.34375-57.257812-14.917969 34.773437 5.601563 60.472656 35.414063 60.882812 70.636719zm0 0" fill="#168aa5"/><path d="m395.285156 209.328125c-3.960937.011719-7.894531.640625-11.65625 1.871094 18.027344 5.824219 29.132813 23.898437 26.183594 42.613281-2.945312 18.714844-19.074219 32.5-38.019531 32.496094h23.492187c21.257813 0 38.492188-17.234375 38.492188-38.492188 0-21.261718-17.234375-38.492187-38.492188-38.492187zm0 0" fill="#168aa5"/><path d="m223.8125 193.394531c-4.179688 17.328125 3.84375 35.296875 19.539062 43.746094 0 0-13.636718-12.753906-7.164062-40.566406-3.960938-1.625-8.125-2.695313-12.375-3.179688zm0 0" fill="#168aa5"/><path d="m83.828125 25.996094h-56.660156c-3.867188 0-7-3.136719-7-7 0-3.867188 3.132812-7 7-7h56.660156c3.867187 0 7 3.132812 7 7 0 3.863281-3.132813 7-7 7zm0 0" fill="#26a3b9"/><path d="m137.328125 25.996094h-25c-3.867187 0-7-3.136719-7-7 0-3.867188 3.132813-7 7-7h25c3.867187 0 7 3.132812 7 7 0 3.863281-3.132813 7-7 7zm0 0" fill="#26a3b9"/><path d="m114.578125 61.996094h-69.011719c-3.863281 0-7-3.136719-7-7 0-3.867188 3.136719-7 7-7h69c3.867188 0 7 3.132812 7 7 0 3.863281-3.132812 7-7 7zm0 0" fill="#26a3b9"/><path d="m47.367188 93.171875h-40.367188c-3.867188 0-7-3.136719-7-7 0-3.867187 3.132812-7 7-7h40.367188c3.867187 0 7 3.132813 7 7 0 3.863281-3.132813 7-7 7zm0 0" fill="#d9ecf2"/><path d="m238.09375 14.171875c-44.894531-.082031-84.710938 28.804687-98.570312 71.507813-8.460938 25.789062 4.355468 42.472656 4.90625 43.175781 1.664062 2.105469 1.980468 4.980469.8125 7.398437-1.171876 2.417969-3.621094 3.953125-6.304688 3.957032-2.105469.003906-4.097656-.949219-5.417969-2.585938-9.503906-13.492188-13.03125-30.308594-9.746093-46.484375-21.203126 2.996094-39.589844 16.199219-49.203126 35.332031-1.757812 3.425782-5.953124 4.785156-9.386718 3.046875-3.4375-1.742187-4.820313-5.929687-3.097656-9.375 12.636718-25.144531 37.667968-41.695312 65.753906-43.472656 16.542968-44.277344 57.96875-74.359375 105.1875-76.394531s91.078125 24.375 111.367187 67.0625c9.875-3.816406 20.371094-5.765625 30.953125-5.757813 3.867188 0 7 3.132813 7 7 0 3.867188-3.132812 7-7 7-10.925781 0-21.707031 2.480469-31.535156 7.253907-1.746094.835937-3.757812.917968-5.566406.21875-1.804688-.699219-3.238282-2.117188-3.960938-3.914063-15.707031-39.332031-53.839844-65.089844-96.191406-64.96875zm182.898438 77.433594c1.941406 1.65625 4.628906 2.121093 7.015624 1.222656 2.382813-.902344 4.089844-3.03125 4.453126-5.554687.363281-2.523438-.675782-5.046876-2.714844-6.582032-4.996094-4.011718-10.417969-7.457031-16.171875-10.277344-3.46875-1.703124-7.664063-.265624-9.367188 3.203126-1.703125 3.472656-.265625 7.667968 3.203125 9.367187 4.832032 2.367187 9.382813 5.257813 13.582032 8.621094zm41.34375 56.964843c.007812-15.347656-4.046876-30.425781-11.75-43.699218-1.945313-3.34375-6.234376-4.472656-9.574219-2.527344-3.339844 1.945312-4.472657 6.230469-2.527344 9.570312 18.976563 32.675782 9.832031 74.4375-21.0625 96.191407-9.78125-5.480469-21.246094-7.136719-32.179687-4.648438-4.964844-37.890625-36.21875-66.867187-74.375-68.960937-38.160157-2.089844-72.394532 23.292968-81.476563 60.414062v.082032c-7.296875 31.386718 8.519531 46.628906 9.203125 47.261718 2.820312 2.640625 7.25 2.492188 9.890625-.328125 2.644531-2.824219 2.496094-7.253906-.328125-9.894531-.105469-.101562-10.503906-10.621094-5.144531-33.789062 7.832031-32.019532 38.269531-53.207032 71.015625-49.433594 32.746094 3.773437 57.566406 31.328125 57.910156 64.289062.023438 2.386719 1.261719 4.597656 3.289062 5.863282 2.023438 1.265624 4.550782 1.414062 6.710938.390624 4.179688-1.992187 8.753906-3.023437 13.386719-3.023437 17.394531 0 31.492187 14.097656 31.492187 31.492187 0 17.394532-14.097656 31.492188-31.492187 31.492188h-176.898438c-12.214843.035156-23.753906-5.582031-31.265625-15.214844-7.511718-9.628906-10.144531-22.191406-7.136718-34.027344 0-.050781.027343-.101562.035156-.152343 1.632812-6.488281 4.886718-12.457031 9.460937-17.339844 2.644531-2.820313 2.503907-7.25-.316406-9.894531-2.820313-2.648438-7.25-2.503906-9.894531.316406-5 5.34375-8.847656 11.664062-11.308594 18.558594h-107.445312c-22.839844.003906-42.214844-16.773438-45.480469-39.382813-3.261719-22.609375 10.582031-44.179687 32.492187-50.632812 3.640625-1.148438 5.691406-4.996094 4.613282-8.652344-1.078126-3.660156-4.886719-5.785156-8.5625-4.777344-28.558594 8.445313-46.585938 36.570313-42.335938 66.042969 4.253906 29.472656 29.496094 51.359375 59.273438 51.386719h104.4375c-.105469 1.367187-.195313 2.738281-.195313 4.125.03125 29.601562 24.023437 53.59375 53.628906 53.628906h176.859375c18.050782.035156 34.40625-10.628906 41.664063-27.15625 7.257812-16.53125 4.035156-35.785156-8.207031-49.054687 21.230468-16.382813 33.644531-41.699219 33.59375-68.515626zm-250 37.828126c-4.023438.453124-7.984376 1.367187-11.804688 2.71875-3.644531 1.292968-5.554688 5.292968-4.261719 8.9375 1.289063 3.644531 5.289063 5.554687 8.933594 4.261718 2.820313-.992187 5.742187-1.664062 8.710937-2 3.84375-.433594 6.605469-3.902344 6.167969-7.742187-.4375-3.84375-3.90625-6.605469-7.746093-6.167969zm-128.503907-174.398438h-56.664062c-3.867188 0-7 3.132812-7 7 0 3.863281 3.132812 7 7 7h56.660156c3.867187 0 7-3.136719 7-7 0-3.867188-3.132813-7-7-7zm53.5 0h-25.003906c-3.867187 0-7 3.132812-7 7 0 3.863281 3.132813 7 7 7h25c3.867187 0 7-3.136719 7-7 0-3.867188-3.132813-7-7-7zm-98.753906 42.996094c0 3.863281 3.136719 7 7 7h69c3.867187 0 7-3.136719 7-7 0-3.867188-3.132813-7-7-7h-69.011719c-3.859375.003906-6.988281 3.136718-6.988281 7zm-38.578125 31.175781c0 3.863281 3.132812 7 7 7h40.367188c3.867187 0 7-3.136719 7-7 0-3.867187-3.132813-7-7-7h-40.367188c-3.867188 0-7 3.132813-7 7zm0 0" fill="#002d42"/></svg>