<svg height="438pt" viewBox="-18 0 438 438.85714" width="438pt" xmlns="http://www.w3.org/2000/svg"><path d="m9.570312 383.996094h128l-.003906-137.144532c0-10.097656 8.1875-18.285156 18.285156-18.285156h.003907c5.046875 0 9.140625-4.09375 9.140625-9.140625v-155.429687h-118.855469c-10.101563 0-18.285156 8.1875-18.285156 18.285156v84.089844c0 10.746094-3.183594 21.253906-9.144531 30.195312-5.960938 8.941406-9.140626 19.449219-9.140626 30.199219zm0 0" fill="#ffd766"/><path d="m146.714844 393.144531h-146.285156v-166.375c0-12.601562 3.695312-24.796875 10.679687-35.277343 4.972656-7.464844 7.605469-16.160157 7.605469-25.125v-84.082032c0-15.125 12.304687-27.429687 27.429687-27.429687h128v164.574219c0 10.078124-8.207031 18.285156-18.289062 18.285156-5.042969 0-9.148438 4.097656-9.148438 9.140625zm-128-18.289062h109.714844l-.011719-128c0-15.125 12.304687-27.425781 27.429687-27.425781l.007813-146.285157h-109.710938c-5.046875 0-9.144531 4.097657-9.144531 9.140625v84.082032c0 12.589843-3.695312 24.785156-10.679688 35.265624-4.972656 7.464844-7.605468 16.160157-7.605468 25.136719zm0 0" fill="#2a3d4f"/><path d="m393.570312 383.996094h-128v-137.144532c0-10.097656-8.183593-18.285156-18.285156-18.285156h-.003906c-5.046875 0-9.140625-4.09375-9.140625-9.140625v-155.429687h118.855469c10.101562 0 18.285156 8.1875 18.285156 18.285156v84.089844c0 10.746094 3.183594 21.253906 9.144531 30.195312 5.960938 8.941406 9.144531 19.449219 9.144531 30.199219zm0 0" fill="#ffd766"/><path d="m402.714844 393.144531h-146.285156v-146.289062c0-5.042969-4.097657-9.140625-9.144532-9.140625-10.078125 0-18.285156-8.207032-18.285156-18.285156v-164.574219h128c15.125 0 27.429688 12.304687 27.429688 27.429687v84.082032c0 8.980468 2.632812 17.667968 7.605468 25.125 6.992188 10.5 10.679688 22.695312 10.679688 35.277343zm-128-18.289062h109.714844v-148.085938c0-8.964843-2.636719-17.664062-7.609376-25.144531-6.980468-10.457031-10.675781-22.652344-10.675781-35.257812v-84.082032c0-5.042968-4.097656-9.140625-9.144531-9.140625h-109.714844v146.285157c15.125 0 27.429688 12.300781 27.429688 27.425781zm0 0" fill="#2a3d4f"/><path d="m64.425781 63.996094h100.570313v-45.714844c0-5.046875-4.09375-9.140625-9.140625-9.140625h-82.285157c-5.050781 0-9.144531 4.09375-9.144531 9.140625zm0 0" fill="#4b6981"/><path d="m174.144531 73.144531h-118.859375v-54.859375c0-10.078125 8.207032-18.285156 18.285156-18.285156h82.285157c10.082031 0 18.289062 8.207031 18.289062 18.285156zm-100.574219-18.289062h82.285157v-36.570313h-82.285157zm0 0" fill="#2a3d4f"/><path d="m238.140625 63.996094h100.570313v-45.714844c0-5.046875-4.09375-9.140625-9.140626-9.140625h-82.289062c-5.046875 0-9.140625 4.09375-9.140625 9.140625zm0 0" fill="#4b6981"/><path d="m347.855469 73.144531h-118.855469v-54.859375c0-10.078125 8.207031-18.285156 18.285156-18.285156h82.285156c10.082032 0 18.285157 8.207031 18.285157 18.285156zm-100.570313-18.289062h82.285156v-36.570313h-82.285156zm0 0" fill="#2a3d4f"/><path d="m128.425781 429.710938h-109.714843c-5.050782 0-9.140626-4.09375-9.140626-9.144532v-36.570312h128v36.570312c0 5.050782-4.09375 9.144532-9.144531 9.144532zm0 0" fill="#eb675e"/><path d="m128.429688 438.855469h-109.714844c-10.082032 0-18.285156-8.203125-18.285156-18.285157v-45.714843h146.285156v45.714843c0 10.082032-8.207032 18.285157-18.285156 18.285157zm0-18.285157v9.144532l.007812-9.144532zm-109.714844-27.425781v27.425781h109.703125l.011719-27.425781zm0 0" fill="#2a3d4f"/><path d="m384.425781 429.710938h-109.714843c-5.050782 0-9.140626-4.09375-9.140626-9.144532v-36.570312h128v36.570312c0 5.050782-4.09375 9.144532-9.144531 9.144532zm0 0" fill="#eb675e"/><path d="m384.429688 438.855469h-109.714844c-10.082032 0-18.285156-8.203125-18.285156-18.285157v-45.714843h146.285156v45.714843c0 10.082032-8.207032 18.285157-18.285156 18.285157zm0-18.285157v9.144532l.007812-9.144532zm-109.714844-27.425781v27.425781h109.703125l.011719-27.425781zm0 0" fill="#2a3d4f"/><path d="m164.996094 82.28125h73.144531v128h-73.144531zm0 0" fill="#7bbd91"/><path d="m247.285156 219.429688h-91.429687v-146.285157h91.429687zm-73.140625-18.285157h54.855469v-109.714843h-54.855469zm0 0" fill="#2a3d4f"/></svg>