<svg height="461pt" viewBox="-102 0 461 461.768" width="461pt" xmlns="http://www.w3.org/2000/svg"><path d="m39.964844 7h175.605468c18.371094 0 33.261719 14.890625 33.261719 33.261719v381.261719c0 18.371093-14.890625 33.261718-33.261719 33.261718h-175.605468c-18.371094 0-33.261719-14.890625-33.261719-33.261718v-381.261719c0-18.371094 14.890625-33.261719 33.261719-33.261719zm0 0" fill="#d9ecf2"/><path d="m215.570312 7h-21.707031c18.371094 0 33.261719 14.890625 33.261719 33.261719v381.261719c0 18.371093-14.890625 33.261718-33.261719 33.261718h21.703125c18.371094 0 33.261719-14.890625 33.261719-33.261718v-381.265626c-.003906-18.367187-14.890625-33.253906-33.257813-33.257812zm0 0" fill="#bdd9e5"/><path d="m156.980469 332.375v-212.953125c0-16.136719-13.078125-29.214844-29.214844-29.214844-16.132813 0-29.214844 13.078125-29.214844 29.214844v212.953125c-19.117187 12.855469-27.585937 36.691406-20.867187 58.722656 6.71875 22.035156 27.046875 37.089844 50.082031 37.089844s43.367187-15.054688 50.085937-37.089844c6.714844-22.03125-1.753906-45.867187-20.871093-58.722656zm0 0" fill="#fabe02"/><path d="m89.972656 375.820312c-.011718-17.4375 8.667969-33.730468 23.144532-43.453124v-212.945313c.007812-13.324219 9.027343-24.949219 21.929687-28.265625-8.746094-2.292969-18.058594-.394531-25.207031 5.144531-7.148438 5.535157-11.320313 14.078125-11.289063 23.121094v212.953125c-20.421875 13.511719-28.714843 39.398438-19.953125 62.261719 8.761719 22.867187 32.226563 36.582031 56.449219 32.988281-25.839844-3.613281-45.066406-25.714844-45.074219-51.804688zm0 0" fill="#f59a1d"/><path d="m142.890625 350.246094v-230.699219c0-3.863281-3.132813-7-7-7-3.863281 0-7 3.136719-7 7v230.699219c-12.824219 3.507812-21.074219 15.960937-19.308594 29.136718 1.769531 13.179688 13.015625 23.011719 26.308594 23.011719 13.296875 0 24.539063-9.832031 26.308594-23.011719 1.769531-13.175781-6.484375-25.628906-19.308594-29.136718zm0 0" fill="#f59a1d"/><path d="m127.769531 382.832031c-3.867187 0-7-3.132812-7-7v-256.285156c0-3.863281 3.132813-7 7-7 3.863281 0 7 3.136719 7 7v256.273437c0 1.859376-.734375 3.640626-2.046875 4.957032s-3.097656 2.054687-4.953125 2.054687zm0 0" fill="#d8283f"/><path d="m154.3125 375.828125c0 14.660156-11.882812 26.542969-26.542969 26.542969-14.660156 0-26.546875-11.882813-26.546875-26.542969s11.886719-26.542969 26.546875-26.542969c14.660157 0 26.542969 11.882813 26.542969 26.542969zm0 0" fill="#ff414d"/><path d="m127.769531 349.285156c-1.722656 0-3.441406.167969-5.128906.503906 12.441406 2.449219 21.410156 13.359376 21.410156 26.039063s-8.96875 23.589844-21.410156 26.039063c9.914063 1.960937 20.078125-1.878907 26.222656-9.902344 6.144531-8.023438 7.199219-18.839844 2.722657-27.898438-4.480469-9.058594-13.710938-14.789062-23.816407-14.78125zm0 0" fill="#d8283f"/><g fill="#002d42"><path d="m67.683594 105.71875h-19.019532c-3.867187 0-7-3.132812-7-7 0-3.863281 3.132813-7 7-7h19.019532c3.867187 0 7 3.136719 7 7 0 3.867188-3.132813 7-7 7zm0 0"/><path d="m67.683594 136.445312h-19.019532c-3.867187 0-7-3.136718-7-7 0-3.867187 3.132813-7 7-7h19.019532c3.867187 0 7 3.132813 7 7 0 3.863282-3.132813 7-7 7zm0 0"/><path d="m67.683594 167.167969h-19.019532c-3.867187 0-7-3.132813-7-7 0-3.867188 3.132813-7 7-7h19.019532c3.867187 0 7 3.132812 7 7 0 3.867187-3.132813 7-7 7zm0 0"/><path d="m67.683594 197.886719h-19.019532c-3.867187 0-7-3.132813-7-7 0-3.863281 3.132813-7 7-7h19.019532c3.867187 0 7 3.136719 7 7 0 3.867187-3.132813 7-7 7zm0 0"/><path d="m67.683594 228.621094h-19.019532c-3.867187 0-7-3.136719-7-7 0-3.867188 3.132813-7 7-7h19.019532c3.867187 0 7 3.132812 7 7 0 3.863281-3.132813 7-7 7zm0 0"/><path d="m67.683594 259.335938h-19.019532c-3.867187 0-7-3.132813-7-7 0-3.867188 3.132813-7 7-7h19.019532c3.867187 0 7 3.132812 7 7 0 3.867187-3.132813 7-7 7zm0 0"/><path d="m67.683594 290.058594h-19.019532c-3.867187 0-7-3.132813-7-7 0-3.863282 3.132813-7 7-7h19.019532c3.867187 0 7 3.136718 7 7 0 3.867187-3.132813 7-7 7zm0 0"/><path d="m67.683594 320.789062h-19.019532c-3.867187 0-7-3.136718-7-7 0-3.867187 3.132813-7 7-7h19.019532c3.867187 0 7 3.132813 7 7 0 3.863282-3.132813 7-7 7zm0 0"/></g><path d="m217.273438 98.71875c0 9.574219-7.761719 17.332031-17.332032 17.332031-9.574218 0-17.332031-7.757812-17.332031-17.332031 0-9.570312 7.757813-17.332031 17.332031-17.332031 9.570313 0 17.332032 7.761719 17.332032 17.332031zm0 0" fill="#ff414d"/><path d="m199.941406 81.386719c-1.789062.023437-3.558594.328125-5.253906.898437 7.207031 2.226563 12.117188 8.890625 12.117188 16.429688 0 7.542968-4.910157 14.203125-12.117188 16.433594 1.695312.570312 3.464844.871093 5.253906.894531 9.46875-.144531 17.066406-7.859375 17.066406-17.328125s-7.597656-17.1875-17.066406-17.332032zm0 0" fill="#d8283f"/><path d="m89.175781 64.796875h-23.601562l-1.0625-9.226563 22.035156-30.148437h14.753906v29.285156h6.167969v10.078125h-6.164062v9.285156h-12.128907zm0-10.078125v-16.734375l-12.128906 16.734375zm0 0" fill="#002d42"/><path d="m112.519531 49.683594c0-14.746094 9.292969-25.175782 22.402344-25.175782 13.199219 0 22.398437 10.425782 22.398437 25.175782 0 14.824218-9.199218 25.253906-22.398437 25.253906-13.109375 0-22.402344-10.429688-22.402344-25.253906zm32.402344 0c0-8.296875-4.113281-14.183594-10-14.183594-5.816406 0-9.929687 5.886719-9.929687 14.183594s4.113281 14.257812 9.929687 14.257812c5.898437.003906 10.011719-5.953125 10.011719-14.257812zm0 0" fill="#002d42"/><path d="m161.769531 36.21875c.296875-8.226562 7.054688-14.746094 15.289063-14.746094s14.992187 6.519532 15.289062 14.746094c-.296875 8.230469-7.054687 14.75-15.289062 14.75s-14.992188-6.519531-15.289063-14.75zm23.292969 0c-.152344-4.398438-3.816406-7.855469-8.21875-7.753906-4.398438.105468-7.898438 3.730468-7.847656 8.128906.054687 4.402344 3.636718 7.945312 8.039062 7.941406 4.488282-.136718 8.050782-3.824218 8.027344-8.316406zm0 0" fill="#002d42"/><path d="m.382812 133.90625v-20.949219c0-3.867187 3.136719-7 7-7 3.867188 0 7 3.132813 7 7v20.949219c0 3.867188-3.132812 7-7 7-3.863281 0-7-3.132812-7-7zm0 287.601562c.027344 22.222657 18.035157 40.230469 40.257813 40.261719h175.597656c22.222657-.03125 40.230469-18.039062 40.257813-40.261719v-381.25c-.027344-22.21875-18.027344-40.226562-40.242188-40.257812h-175.601562c-22.226563.0195312-40.242188 18.03125-40.269532 40.257812v47.011719c0 3.863281 3.136719 7 7 7 3.867188 0 7-3.136719 7-7v-47.011719c.019532-14.496093 11.765626-26.238281 26.257813-26.257812h175.597656c14.496094.019531 26.238281 11.761719 26.257813 26.257812v381.261719c-.015625 14.496094-11.761719 26.242188-26.257813 26.261719h-175.597656c-14.496094-.019531-26.242187-11.765625-26.257813-26.261719v-255.164062c0-3.867188-3.132812-7-7-7-3.863281 0-7 3.132812-7 7zm91.847657-302.085937v209.359375c-20.132813 15.5-28.164063 42.101562-19.972657 66.15625 8.1875 24.054688 30.777344 40.226562 56.1875 40.226562 25.410157 0 48.003907-16.171874 56.191407-40.226562s.15625-50.65625-19.976563-66.15625v-42.40625c0-3.863281-3.132812-7-7-7-3.867187 0-7 3.136719-7 7v46c0 2.328125 1.15625 4.503906 3.085938 5.804688 16.5625 11.132812 23.902344 31.78125 18.085937 50.867187-5.820312 19.089844-23.429687 32.132813-43.386719 32.132813-19.953124 0-37.566406-13.042969-43.382812-32.132813-5.820312-19.085937 1.519531-39.734375 18.082031-50.867187 1.929688-1.300782 3.085938-3.476563 3.085938-5.804688v-212.953125c.164062-12.152344 10.0625-21.917969 22.214843-21.917969 12.152344 0 22.050782 9.765625 22.214844 21.917969v134.398437c0 3.867188 3.132813 7 7 7 3.867188 0 7-3.132812 7-7v-134.398437c-.207031-19.855469-16.359375-35.835937-36.214844-35.835937-19.851562 0-36.003906 15.980468-36.214843 35.835937zm36.21875 69.773437c3.863281 0 7-3.132812 7-7v-63.230468c0-3.867188-3.136719-7-7-7-3.867188 0-7 3.132812-7 7v63.230468c0 3.867188 3.132812 7 7 7zm-7 21.859376c0-3.863282 3.132812-7 7-7 3.863281 0 7 3.136718 7 7v131.964843c16.785156 3.582031 28.160156 19.257813 26.359375 36.324219-1.800782 17.070312-16.195313 30.027344-33.359375 30.027344-17.164063 0-31.558594-12.957032-33.359375-30.027344-1.800782-17.066406 9.574218-32.742188 26.359375-36.324219zm7 145.230468c-10.792969 0-19.542969 8.75-19.546875 19.542969 0 10.792969 8.75 19.542969 19.542968 19.542969 10.792969.003906 19.542969-8.746094 19.546876-19.539063-.011719-10.789062-8.753907-19.535156-19.542969-19.546875zm-86.105469-257.566406c0 3.867188 3.132812 7 7 7h19.019531c3.867188 0 7-3.132812 7-7 0-3.863281-3.132812-7-7-7h-19.019531c-3.867188 0-7 3.136719-7 7zm7 37.726562h19.019531c3.867188 0 7-3.136718 7-7 0-3.867187-3.132812-7-7-7h-19.019531c-3.867188 0-7 3.132813-7 7 0 3.863282 3.132812 7 7 7zm0 30.722657h19.019531c3.867188 0 7-3.132813 7-7 0-3.867188-3.132812-7-7-7h-19.019531c-3.867188 0-7 3.132812-7 7 0 3.867187 3.132812 7 7 7zm0 30.722656h19.019531c3.867188 0 7-3.132813 7-7 0-3.863281-3.132812-7-7-7h-19.019531c-3.867188 0-7 3.136719-7 7 0 3.867187 3.132812 7 7 7zm0 30.730469h19.019531c3.867188 0 7-3.136719 7-7 0-3.867188-3.132812-7-7-7h-19.019531c-3.867188 0-7 3.132812-7 7 0 3.863281 3.132812 7 7 7zm0 30.722656h19.019531c3.867188 0 7-3.132812 7-7s-3.132812-7-7-7h-19.019531c-3.867188 0-7 3.132812-7 7s3.132812 7 7 7zm0 30.722656h19.019531c3.867188 0 7-3.132812 7-7 0-3.863281-3.132812-7-7-7h-19.019531c-3.867188 0-7 3.136719-7 7 0 3.867188 3.132812 7 7 7zm0 30.730469h19.019531c3.867188 0 7-3.136719 7-7 0-3.867187-3.132812-7-7-7h-19.019531c-3.867188 0-7 3.132813-7 7 0 3.863281 3.132812 7 7 7zm151.277344-246.402344c13.4375 0 24.332031 10.894531 24.332031 24.332031 0 13.441407-10.894531 24.332032-24.332031 24.332032s-24.332032-10.890625-24.332032-24.332032c.011719-13.433593 10.894532-24.324218 24.332032-24.339843zm-10.332032 24.324219c0 5.707031 4.625 10.332031 10.332032 10.332031 5.707031 0 10.332031-4.625 10.332031-10.332031 0-5.703125-4.625-10.332031-10.332031-10.332031-5.707032.003906-10.328125 4.628906-10.332032 10.332031zm-88.984374-73.296875v29.285156h6.167968v10.078125h-6.167968v9.285156h-12.128907v-9.273437h-23.601562l-1.0625-9.226563 22.035156-30.148437zm-12.128907 12.550781-12.128906 16.746094h12.125zm45.757813 36.953125c-13.121094 0-22.402344-10.425781-22.402344-25.25 0-14.746093 9.292969-25.175781 22.402344-25.175781 13.199218 0 22.398437 10.425781 22.398437 25.175781.011719 14.832031-9.207031 25.261719-22.398437 25.261719zm0-10.992187c5.886718 0 10-5.957032 10-14.257813s-4.113282-14.183593-10-14.183593c-5.816406 0-9.929688 5.886718-9.929688 14.183593s4.113282 14.269531 9.929688 14.269531zm57.414062-27.714844c-.296875 8.230469-7.054687 14.75-15.289062 14.75s-14.992188-6.519531-15.289063-14.75c.296875-8.226562 7.054688-14.746094 15.289063-14.746094s14.992187 6.519532 15.289062 14.746094zm-7.28125 0c-.152344-4.398438-3.816406-7.855469-8.21875-7.753906-4.398437.105468-7.898437 3.730468-7.847656 8.128906.054688 4.402344 3.636719 7.945312 8.039062 7.941406 4.488282-.136718 8.046876-3.828125 8.023438-8.316406zm0 0" fill="#002d42"/></svg>