<svg height="434pt" viewBox="-38 0 434 434.16848" width="434pt" xmlns="http://www.w3.org/2000/svg"><path d="m351.421875 182.6875c.210937 31.570312-16.507813 60.835938-43.816406 76.679688-27.304688 15.847656-61.007813 15.847656-88.3125 0-27.304688-15.84375-44.027344-45.109376-43.8125-76.679688 0-48.582031 87.972656-175.6875 87.972656-175.6875s87.96875 127.097656 87.96875 175.6875zm0 0" fill="#d9ecf2"/><path d="m263.449219 6.992188s-5.3125 7.695312-13.3125 19.960937c24.585937 37.734375 74.660156 119.066406 74.660156 155.734375-.011719 43.441406-31.722656 80.375-74.660156 86.960938 25.355469 3.859374 51.136719-3.527344 70.597656-20.238282 19.460937-16.707031 30.664063-41.074218 30.6875-66.722656 0-48.589844-87.972656-175.695312-87.972656-175.695312zm0 0" fill="#bdd9e5"/><path d="m221.257812 73.59375c-22.570312 38.511719-45.761718 84.140625-45.761718 109.085938.003906 32.640624 18.074218 62.59375 46.949218 77.8125s63.800782 13.199218 90.726563-5.246094c-15.175781-52.742188-58.601563-128.222656-91.914063-181.652344zm0 0" fill="#bdd9e5"/><path d="m286.003906 287.726562c0 77.019532-62.4375 139.457032-139.457031 139.457032s-139.453125-62.4375-139.453125-139.457032c0-77.019531 139.453125-278.511718 139.453125-278.511718s139.457031 201.472656 139.457031 278.511718zm0 0" fill="#26a3b9"/><g fill="#168aa5"><path d="m234.480469 194.148438 19.304687 19.308593-156.308594 156.308594-19.308593-19.304687zm0 0"/><path d="m133.570312 203.613281c10.589844 10.589844 10.589844 27.757813 0 38.347657-10.589843 10.589843-27.757812 10.589843-38.347656 0-10.589844-10.589844-10.589844-27.757813 0-38.347657 10.589844-10.589843 27.757813-10.589843 38.347656 0zm0 0"/><path d="m236.726562 321.953125c10.589844 10.589844 10.589844 27.757813 0 38.347656-10.589843 10.589844-27.757812 10.589844-38.347656 0-10.589844-10.589843-10.589844-27.757812 0-38.347656s27.757813-10.589844 38.347656 0zm0 0"/><path d="m146.546875 9.214844s-7.769531 11.230468-19.632813 29.390625c38.398438 58.800781 119.816407 190.277343 119.816407 249.121093-.007813 69.425782-51.082031 128.273438-119.8125 138.054688 40.011719 5.71875 80.535156-6.210938 111.0625-32.703125 30.527343-26.492187 48.050781-64.929687 48.023437-105.351563 0-77.039062-139.457031-278.511718-139.457031-278.511718zm0 0"/></g><path d="m215.054688 194.148438 19.304687 19.304687-156.308594 156.3125-19.308593-19.308594zm0 0" fill="#d9ecf2"/><path d="m114.144531 203.613281c10.589844 10.589844 10.589844 27.761719 0 38.347657-10.589843 10.589843-27.757812 10.589843-38.347656 0-10.589844-10.585938-10.589844-27.757813 0-38.347657 10.589844-10.585937 27.757813-10.585937 38.347656 0zm0 0" fill="#d9ecf2"/><path d="m217.300781 321.953125c10.589844 10.589844 10.589844 27.757813 0 38.347656-10.589843 10.589844-27.757812 10.589844-38.347656 0-10.589844-10.589843-10.589844-27.757812 0-38.347656s27.757813-10.589844 38.347656 0zm0 0" fill="#d9ecf2"/><path d="m43.214844 165.949219c4.125-7.925781 8.628906-16.308594 13.390625-24.917969 1.871093-3.382812 6.128906-4.609375 9.511719-2.738281 3.382812 1.871093 4.609374 6.132812 2.738281 9.515625-4.699219 8.5-9.148438 16.777344-13.199219 24.601562-1.800781 3.394532-6.003906 4.703125-9.414062 2.929688-3.410157-1.773438-4.753907-5.964844-3.007813-9.390625zm-6.660156 28.9375c-3.503907-1.625-7.667969-.105469-9.296876 3.402343-18.035156 38.914063-27.1718745 69.003907-27.1718745 89.421876 0 80.886718 65.5703125 146.457031 146.4531245 146.457031 80.886719 0 146.457032-65.570313 146.457032-146.457031-.046875-4.835938-.472656-9.660157-1.277344-14.429688 39.746094-12.234375 66.820312-49.007812 66.703125-90.59375 0-50.195312-85.574219-174.398438-89.203125-179.671875-1.304688-1.886719-3.457031-3.015625-5.753906-3.015625s-4.449219 1.128906-5.757813 3.015625c-.171875.253906-17.597656 25.488281-36.714843 57.3125-1.855469 3.304687-.746094 7.480469 2.5 9.429687 3.25 1.949219 7.460937.960938 9.5-2.230468 12.28125-20.4375 23.84375-38.113282 30.472656-48.042969 19.375 29.023437 80.96875 124.339844 80.96875 163.199219.117187 34.972656-22.332032 66.03125-55.578125 76.890625-22.722657-89.160157-131.394531-246.914063-136.535157-254.347657-1.308593-1.886718-3.460937-3.015624-5.757812-3.015624s-4.449219 1.128906-5.757812 3.015624c-.347657.511719-35.417969 51.292969-70.023438 110.847657-1.441406 2.164062-1.5625 4.949219-.3125 7.230469 1.246094 2.28125 3.65625 3.683593 6.257812 3.636718 2.601563-.042968 4.960938-1.527344 6.128907-3.851562 26.066406-44.800782 52.371093-84.617188 63.6875-101.421875 24.019531 35.691406 115.542969 175.128906 130.367187 248.183593v.035157c1.273438 5.863281 1.972656 11.835937 2.082032 17.832031 0 73.15625-59.300782 132.457031-132.457032 132.457031-73.152344 0-132.453125-59.300781-132.453125-132.457031 0-18.375 8.707031-46.480469 25.875-83.542969 1.621094-3.503906.101563-7.660156-3.402343-9.289062zm90.480468 87.273437c-1.3125-1.3125-3.09375-2.050781-4.949218-2.050781-1.855469 0-3.636719.738281-4.949219 2.050781l-63.34375 63.347656c-1.316407 1.3125-2.054688 3.09375-2.054688 4.949219 0 1.859375.738281 3.640625 2.054688 4.953125l19.304687 19.304688c1.3125 1.316406 3.089844 2.054687 4.949219 2.054687 1.855469 0 3.636719-.738281 4.949219-2.054687l156.3125-156.308594c1.3125-1.3125 2.050781-3.09375 2.050781-4.953125 0-1.855469-.738281-3.636719-2.050781-4.949219l-19.308594-19.304687c-1.3125-1.3125-3.09375-2.050781-4.949219-2.050781-1.859375 0-3.636719.738281-4.949219 2.050781l-68.5 68.5c-2.734374 2.734375-2.734374 7.167969 0 9.902343 2.734376 2.734376 7.164063 2.734376 9.898438 0l63.546875-63.554687 9.410156 9.410156-146.402343 146.429688-9.40625-9.410157 58.398437-58.398437c1.316406-1.316406 2.054687-3.101563 2.054687-4.960937-.003906-1.859376-.746093-3.640626-2.066406-4.953126zm-7.9375-83.492187c13.320313 13.324219 13.320313 34.925781 0 48.246093-13.324218 13.324219-34.925781 13.324219-48.25 0-13.320312-13.320312-13.320312-34.921874 0-48.246093 13.332032-13.300781 34.917969-13.300781 48.25 0zm-9.902344 9.902343c-7.855468-7.859374-20.589843-7.859374-28.449218-.003906-7.855469 7.859375-7.855469 20.59375 0 28.449219 7.859375 7.855469 20.59375 7.855469 28.449218 0 3.789063-3.765625 5.917969-8.882813 5.917969-14.226563 0-5.339843-2.128906-10.460937-5.917969-14.222656zm88.929688 112.4375c7.894531.003907 15.058594 4.617188 18.332031 11.800782 1.59375 3.519531 5.742188 5.082031 9.265625 3.484375 3.519532-1.59375 5.082032-5.742188 3.484375-9.265625-6.164062-13.59375-20.445312-21.601563-35.261719-19.773438-14.8125 1.828125-26.71875 13.074219-29.390624 27.761719-2.667969 14.683594 4.515624 29.402344 17.734374 36.328125 13.222657 6.929688 29.410157 4.460938 39.96875-6.089844 2.730469-2.734375 2.730469-7.167968 0-9.902344-2.734374-2.734374-7.167968-2.734374-9.902343 0-6.4375 6.4375-16.398438 7.75-24.28125 3.199219-7.886719-4.554687-11.730469-13.835937-9.371094-22.628906 2.355469-8.792969 10.324219-14.910156 19.429687-14.910156zm121.890625-144.828124c3.867187 0 7-3.132813 7-7 0-28.859376-45.828125-95.910157-51.050781-103.460938-1.402344-2.109375-3.835938-3.300781-6.359375-3.109375-2.527344.191406-4.753907 1.734375-5.824219 4.03125-1.066406 2.296875-.808594 4.992187.675781 7.046875 13.503907 19.519531 48.558594 74.738281 48.558594 95.492188 0 3.867187 3.132813 7 7 7zm0 0" fill="#002d42"/></svg>