<svg height="461pt" viewBox="-102 0 461 461.792" width="461pt" xmlns="http://www.w3.org/2000/svg"><path d="m40.640625 7h175.605469c18.371094 0 33.261718 14.890625 33.261718 33.261719v381.261719c0 18.371093-14.890624 33.261718-33.261718 33.261718h-175.605469c-18.371094 0-33.261719-14.890625-33.261719-33.261718v-381.261719c0-18.371094 14.890625-33.261719 33.261719-33.261719zm0 0" fill="#d9ecf2"/><path d="m216.246094 7h-22.039063c18.371094 0 33.261719 14.890625 33.261719 33.261719v381.261719c0 18.371093-14.890625 33.261718-33.261719 33.261718h22.039063c18.371094 0 33.261718-14.890625 33.261718-33.261718v-381.265626c-.003906-18.371093-14.890624-33.257812-33.261718-33.257812zm0 0" fill="#bdd9e5"/><path d="m157.644531 332.375v-212.953125c0-16.128906-13.074219-29.203125-29.199219-29.203125-16.128906 0-29.203124 13.074219-29.203124 29.203125v212.953125c-19.113282 12.855469-27.585938 36.691406-20.867188 58.722656 6.71875 22.035156 27.046875 37.089844 50.082031 37.089844 23.035157 0 43.367188-15.054688 50.085938-37.089844 6.71875-22.03125-1.753907-45.867187-20.871094-58.722656zm0 0" fill="#fabe02"/><path d="m142.84375 350.246094v-36.457032c0-3.867187-3.132812-7-7-7s-7 3.132813-7 7v36.457032c-12.824219 3.507812-21.078125 15.960937-19.308594 29.136718 1.769532 13.179688 13.015625 23.011719 26.308594 23.011719 13.296875 0 24.539062-9.832031 26.308594-23.011719 1.769531-13.175781-6.484375-25.628906-19.308594-29.136718zm0 0" fill="#f59a1d"/><path d="m90.90625 375.820312c-.007812-17.433593 8.667969-33.722656 23.136719-43.445312v-212.953125c.011719-13.273437 8.96875-24.867187 21.804687-28.230469-8.753906-2.328125-18.09375-.453125-25.269531 5.082032-7.171875 5.53125-11.363281 14.085937-11.335937 23.148437v212.953125c-20.449219 13.523438-28.742188 39.445312-19.941407 62.328125 8.796875 22.882813 32.328125 36.566406 56.566407 32.902344-25.785157-3.667969-44.949219-25.738281-44.960938-51.785157zm0 0" fill="#f59a1d"/><path d="m128.445312 382.832031c-3.867187 0-7-3.132812-7-7v-62.042969c0-3.867187 3.132813-7 7-7 3.863282 0 7 3.132813 7 7v62.03125c0 1.859376-.734374 3.640626-2.046874 4.957032s-3.097657 2.054687-4.953126 2.054687zm0 0" fill="#d8283f"/><path d="m154.988281 375.828125c0 14.660156-11.882812 26.542969-26.542969 26.542969-14.660156 0-26.546874-11.882813-26.546874-26.542969s11.886718-26.542969 26.546874-26.542969c14.660157 0 26.542969 11.882813 26.542969 26.542969zm0 0" fill="#ff414d"/><g fill="#002d42"><path d="m68.359375 105.71875h-19.019531c-3.867188 0-7-3.132812-7-7 0-3.863281 3.132812-7 7-7h19.019531c3.867187 0 7 3.136719 7 7 0 3.867188-3.132813 7-7 7zm0 0"/><path d="m68.359375 136.445312h-19.019531c-3.867188 0-7-3.136718-7-7 0-3.867187 3.132812-7 7-7h19.019531c3.867187 0 7 3.132813 7 7 0 3.863282-3.132813 7-7 7zm0 0"/><path d="m68.359375 167.167969h-19.019531c-3.867188 0-7-3.132813-7-7 0-3.867188 3.132812-7 7-7h19.019531c3.867187 0 7 3.132812 7 7 0 3.867187-3.132813 7-7 7zm0 0"/><path d="m68.359375 197.886719h-19.019531c-3.867188 0-7-3.132813-7-7 0-3.863281 3.132812-7 7-7h19.019531c3.867187 0 7 3.136719 7 7 0 3.867187-3.132813 7-7 7zm0 0"/><path d="m68.359375 228.621094h-19.019531c-3.867188 0-7-3.136719-7-7 0-3.867188 3.132812-7 7-7h19.019531c3.867187 0 7 3.132812 7 7 0 3.863281-3.132813 7-7 7zm0 0"/><path d="m68.359375 259.335938h-19.019531c-3.867188 0-7-3.132813-7-7 0-3.867188 3.132812-7 7-7h19.019531c3.867187 0 7 3.132812 7 7 0 3.867187-3.132813 7-7 7zm0 0"/><path d="m68.359375 290.058594h-19.019531c-3.867188 0-7-3.132813-7-7 0-3.863282 3.132812-7 7-7h19.019531c3.867187 0 7 3.136718 7 7 0 3.867187-3.132813 7-7 7zm0 0"/><path d="m68.359375 320.789062h-19.019531c-3.867188 0-7-3.136718-7-7 0-3.867187 3.132812-7 7-7h19.019531c3.867187 0 7 3.132813 7 7 0 3.863282-3.132813 7-7 7zm0 0"/></g><path d="m217.949219 98.71875c0 9.574219-7.761719 17.332031-17.332031 17.332031-9.574219 0-17.332032-7.757812-17.332032-17.332031 0-9.570312 7.757813-17.332031 17.332032-17.332031 9.570312 0 17.332031 7.761719 17.332031 17.332031zm0 0" fill="#ff414d"/><path d="m200.617188 81.386719c-1.695313.019531-3.378907.289062-4.992188.800781 7.335938 2.140625 12.382812 8.867188 12.382812 16.511719s-5.046874 14.371093-12.382812 16.511719c1.613281.511718 3.296875.78125 4.992188.800781 9.46875-.144531 17.066406-7.859375 17.066406-17.328125 0-9.472656-7.597656-17.1875-17.066406-17.332032zm0 0" fill="#d8283f"/><path d="m89.210938 49.683594c0-14.746094 9.289062-25.175782 22.402343-25.175782 13.199219 0 22.398438 10.425782 22.398438 25.175782 0 14.824218-9.222657 25.253906-22.398438 25.253906-13.109375 0-22.402343-10.429688-22.402343-25.253906zm32.402343 0c0-8.296875-4.113281-14.183594-10-14.183594-5.8125 0-9.929687 5.886719-9.929687 14.183594s4.117187 14.257812 9.929687 14.257812c5.898438.003906 10.011719-5.953125 10.011719-14.257812zm0 0" fill="#002d42"/><path d="m138.445312 36.21875c.296876-8.226562 7.054688-14.746094 15.289063-14.746094s14.992187 6.519532 15.289063 14.746094c-.296876 8.230469-7.054688 14.75-15.289063 14.75s-14.992187-6.519531-15.289063-14.75zm23.292969 0c-.152343-4.398438-3.816406-7.855469-8.21875-7.753906-4.398437.105468-7.898437 3.730468-7.847656 8.128906.054687 4.402344 3.636719 7.945312 8.039063 7.941406 4.496093-.128906 8.066406-3.820312 8.046874-8.316406zm0 0" fill="#002d42"/><path d="m242.507812 122.78125v-82.523438c-.015624-14.496093-11.761718-26.238281-26.253906-26.257812h-175.601562c-14.492188.019531-26.238282 11.761719-26.257813 26.257812v381.261719c.015625 14.496094 11.761719 26.242188 26.257813 26.261719h175.601562c14.492188-.019531 26.238282-11.765625 26.253906-26.261719v-268.5c0-3.867187 3.132813-7 7-7 3.867188 0 7 3.132813 7 7v268.511719c-.027343 22.222656-18.035156 40.230469-40.253906 40.261719h-175.601562c-22.222656-.03125-40.230469-18.039063-40.257813-40.261719v-381.273438c.027344-22.21875 18.027344-40.226562 40.246094-40.257812h175.597656c22.226563.0195312 40.242188 18.03125 40.269531 40.257812v82.523438c0 3.863281-3.132812 7-7 7-3.867187 0-7-3.136719-7-7zm-143.265624 113.410156c-3.863282 0-7 3.132813-7 7v21.261719c0 3.863281 3.136718 7 7 7 3.867187 0 7-3.136719 7-7v-21.261719c0-3.867187-3.132813-7-7-7zm29.203124 198.996094c25.414063.003906 48.011719-16.171875 56.203126-40.230469 8.191406-24.0625.152343-50.667969-19.988282-66.167969v-209.367187c-.207031-19.855469-16.359375-35.835937-36.214844-35.835937-19.851562 0-36.003906 15.980468-36.214843 35.835937v102.199219c0 3.863281 3.136719 7 7 7 3.867187 0 7-3.136719 7-7v-102.199219c.164062-12.152344 10.0625-21.917969 22.214843-21.917969 12.152344 0 22.050782 9.765625 22.214844 21.917969v212.953125c0 2.328125 1.15625 4.503906 3.085938 5.804688 16.5625 11.132812 23.902344 31.78125 18.085937 50.867187-5.820312 19.089844-23.429687 32.132813-43.386719 32.132813-19.953124 0-37.566406-13.042969-43.382812-32.132813-5.820312-19.085937 1.519531-39.734375 18.082031-50.867187 1.929688-1.300782 3.085938-3.476563 3.085938-5.804688v-38.882812c0-3.867188-3.132813-7-7-7-3.863281 0-7 3.132812-7 7v35.308593c-20.128907 15.503907-28.160157 42.101563-19.972657 66.15625 8.1875 24.050781 30.777344 40.226563 56.1875 40.230469zm0-128.398438c-3.867187 0-7 3.132813-7 7v29.230469c-16.808593 3.558594-28.207031 19.246094-26.40625 36.332031 1.800782 17.085938 16.222657 30.046876 33.40625 30.019532 3.863282 0 7-3.132813 7-7 0-3.863282-3.136718-7-7-7-8.566406-.011719-16.121093-5.605469-18.632812-13.796875-2.507812-8.1875.613281-17.054688 7.699219-21.867188 7.089843-4.808593 16.484375-4.4375 23.167969.921875 6.679687 5.355469 9.089843 14.441406 5.941406 22.40625-1.433594 3.597656.324218 7.671875 3.917968 9.105469 3.597657 1.429687 7.671876-.324219 9.105469-3.921875 3.644531-9.183594 3.058594-19.507812-1.605469-28.21875-4.664062-8.710938-12.929687-14.921875-22.59375-16.980469v-29.230469c0-3.867187-3.136718-7-7-7zm-79.105468-201.070312h19.019531c3.867187 0 7-3.132812 7-7 0-3.863281-3.132813-7-7-7h-19.019531c-3.867188 0-7 3.136719-7 7 0 3.867188 3.132812 7 7 7zm0 30.726562h19.019531c3.867187 0 7-3.136718 7-7 0-3.867187-3.132813-7-7-7h-19.019531c-3.867188 0-7 3.132813-7 7 0 3.863282 3.132812 7 7 7zm0 30.722657h19.019531c3.867187 0 7-3.132813 7-7 0-3.867188-3.132813-7-7-7h-19.019531c-3.867188 0-7 3.132812-7 7 0 3.867187 3.132812 7 7 7zm0 30.722656h19.019531c3.867187 0 7-3.132813 7-7 0-3.863281-3.132813-7-7-7h-19.019531c-3.867188 0-7 3.136719-7 7 0 3.867187 3.132812 7 7 7zm0 30.730469h19.019531c3.867187 0 7-3.136719 7-7 0-3.867188-3.132813-7-7-7h-19.019531c-3.867188 0-7 3.132812-7 7 0 3.863281 3.132812 7 7 7zm0 30.722656h19.019531c3.867187 0 7-3.132812 7-7s-3.132813-7-7-7h-19.019531c-3.867188 0-7 3.132812-7 7s3.132812 7 7 7zm0 30.722656h19.019531c3.867187 0 7-3.132812 7-7 0-3.863281-3.132813-7-7-7h-19.019531c-3.867188 0-7 3.136719-7 7 0 3.867188 3.132812 7 7 7zm0 30.730469h19.019531c3.867187 0 7-3.136719 7-7 0-3.867187-3.132813-7-7-7h-19.019531c-3.867188 0-7 3.132813-7 7 0 3.863281 3.132812 7 7 7zm151.277344-197.75c-13.441407 0-24.332032-10.894531-24.332032-24.332031s10.894532-24.332032 24.332032-24.332032c13.441406.003907 24.332031 10.898438 24.332031 24.335938-.015625 13.433594-10.902344 24.316406-24.332031 24.328125zm0-14c5.707031 0 10.332031-4.625 10.332031-10.332031-.003907-5.707032-4.628907-10.332032-10.335938-10.332032-5.707031.003907-10.332031 4.628907-10.328125 10.335938.003906 5.703125 4.628906 10.324219 10.332032 10.328125zm-111.40625-59.363281c0-14.746094 9.289062-25.175782 22.402343-25.175782 13.199219 0 22.398438 10.425782 22.398438 25.175782 0 14.824218-9.222657 25.253906-22.398438 25.253906-13.109375 0-22.402343-10.429688-22.402343-25.253906zm12.480468 0c0 8.300781 4.117188 14.257812 9.929688 14.257812 5.886718 0 10-5.957031 10-14.257812 0-8.300782-4.113282-14.183594-10-14.183594-5.808594.003906-9.929688 5.886719-9.929688 14.183594zm52.035156 1.269531c-8.246093.046875-15.027343-6.488281-15.28125-14.734375.296876-8.226562 7.054688-14.746094 15.289063-14.746094s14.992187 6.519532 15.289063 14.746094c-.25 8.25-7.042969 14.792969-15.296876 14.738281zm0-6.402344c3.378907.109375 6.484376-1.835937 7.855469-4.925781 1.371094-3.085938.734375-6.695312-1.609375-9.128906s-5.929687-3.199219-9.066406-1.945313c-3.136719 1.257813-5.195312 4.292969-5.210938 7.667969-.015624 4.492188 3.542969 8.179688 8.03125 8.320312zm0 0" fill="#002d42"/></svg>