<svg height="476pt" viewBox="-59 0 476 476.94757" width="476pt" xmlns="http://www.w3.org/2000/svg"><path d="m21.867188 426.375h315.328124v43.554688h-315.328124zm0 0" fill="#26a3b9"/><path d="m309.4375 426.375h27.757812v43.554688h-27.757812zm0 0" fill="#168aa5"/><path d="m145.726562 321.78125h67.609376v77.050781h-67.609376zm0 0" fill="#26a3b9"/><path d="m145.726562 363.949219c22.3125 4.449219 45.285157 4.449219 67.597657 0v-42.167969h-67.597657zm0 0" fill="#168aa5"/><path d="m167.371094 387.304688h24.320312c21.574219 0 39.066406 17.488281 39.066406 39.066406h-102.460937c0-21.578125 17.496094-39.070313 39.074219-39.066406zm0 0" fill="#0162a7"/><path d="m191.691406 387.304688h-15.761718c21.578124 0 39.066406 17.488281 39.066406 39.066406h15.753906c0-21.574219-17.488281-39.0625-39.058594-39.066406zm0 0" fill="#004584"/><path d="m351.585938 179.179688c0 95.023437-77.03125 172.054687-172.054688 172.054687s-172.058594-77.03125-172.058594-172.054687c0-95.023438 77.035156-172.054688 172.058594-172.054688s172.054688 77.03125 172.054688 172.054688zm0 0" fill="#26a3b9"/><path d="m179.53125 7.125c-2.933594 0-5.855469.070312-8.765625.21875 91.496094 4.671875 163.285156 80.222656 163.285156 171.835938 0 91.613281-71.789062 167.164062-163.285156 171.835937 2.902344.148437 5.824219.21875 8.765625.21875 95.023438 0 172.054688-77.03125 172.054688-172.054687 0-95.023438-77.03125-172.054688-172.054688-172.054688zm0 0" fill="#168aa5"/><path d="m322.253906 179.179688c0 78.824218-63.898437 142.722656-142.722656 142.722656s-142.726562-63.898438-142.726562-142.722656c0-78.824219 63.902343-142.722657 142.726562-142.722657s142.722656 63.898438 142.722656 142.722657zm0 0" fill="#d9ecf2"/><g fill="#bdd9e5"><path d="m54.328125 179.179688c.007813-75.414063 58.6875-137.808594 133.960937-142.433594-2.898437-.175782-5.816406-.289063-8.761718-.289063-78.824219 0-142.726563 63.898438-142.726563 142.722657 0 78.824218 63.902344 142.722656 142.726563 142.722656 2.941406 0 5.859375-.113282 8.761718-.289063-75.273437-4.625-133.953124-67.019531-133.960937-142.433593zm0 0"/><path d="m123.894531 47.726562c-16.953125 7.195313-32.355469 17.597657-45.359375 30.632813l201.839844 201.839844c13.035156-13.003907 23.4375-28.40625 30.628906-45.359375zm0 0"/><path d="m211.53125 318.253906c11.726562-2.683594 23.0625-6.847656 33.734375-12.398437l-192.398437-192.398438c-5.550782 10.671875-9.71875 22.007813-12.402344 33.734375zm0 0"/></g><path d="m241.320312 73.148438c-.140624-.101563-.265624-.21875-.421874-.304688-.15625-.089844-.324219-.140625-.484376-.214844-37.707031-21.636718-84.0625-21.636718-121.769531 0-.164062.074219-.332031.125-.488281.21875s-.277344.207032-.421875.308594c-34.65625 20.171875-57.269531 56-60.566406 95.960938-3.300781 39.960937 13.132812 79.011718 44.011719 104.59375 1.527343 1.273437 3.527343 1.832031 5.496093 1.539062 1.96875-.289062 3.71875-1.40625 4.8125-3.066406 6.53125-9.933594 15.988281-17.59375 27.0625-21.917969 3.601563-1.40625 5.375-5.46875 3.96875-9.070313-1.410156-3.601562-5.472656-5.378906-9.074219-3.96875-11.222656 4.382813-21.148437 11.539063-28.851562 20.800782-5.652344-5.378906-10.714844-11.351563-15.09375-17.8125l21.179688-12.226563c2.183593-1.242187 3.53125-3.558593 3.539062-6.070312.003906-2.511719-1.335938-4.835938-3.515625-6.085938-2.175781-1.25-4.859375-1.238281-7.023437.03125l-21.289063 12.265625c-6.597656-13.085937-10.476563-27.375-11.398437-42h21.460937c3.867187 0 7-3.136718 7-7 0-3.867187-3.132813-7-7-7h-21.453125c.933594-14.621094 4.832031-28.898437 11.460938-41.964844l21.199218 12.246094c2.167969 1.273438 4.851563 1.285156 7.027344.03125 2.179688-1.25 3.519531-3.570312 3.515625-6.085937-.007813-2.511719-1.359375-4.828125-3.542969-6.066407l-21.097656-12.160156c7.914062-11.617187 17.984375-21.601562 29.667969-29.414062l10.699219 18.515625c1.242187 2.183593 3.558593 3.535156 6.070312 3.542969 2.511719.003906 4.832031-1.335938 6.085938-3.515626 1.25-2.175781 1.238281-4.859374-.03125-7.027343l-10.703126-18.542969c12.859376-6.382812 26.867188-10.136719 41.199219-11.039062v21.417968c0 3.867188 3.132813 7 7 7 3.863281 0 7-3.132812 7-7v-21.417968c14.328125.902343 28.335938 4.65625 41.199219 11.039062l-10.703125 18.542969c-1.902344 3.347656-.75 7.597656 2.585937 9.523437 3.332032 1.921875 7.589844.796875 9.535157-2.523437l10.703125-18.53125c12.164062 8.140625 22.578125 18.636719 30.621094 30.867187l-18.582032 10.734375c-3.320312 1.945313-4.445312 6.207031-2.523437 9.539063 1.925781 3.332031 6.179687 4.484375 9.523437 2.582031l18.484375-10.695313c6.152344 12.644532 9.773438 26.367188 10.664063 40.402344h-21.453125c-3.867188 0-7 3.132813-7 7 0 3.863282 3.132812 7 7 7h21.460937c-.878906 14.046875-4.484375 27.789063-10.617187 40.457032l-18.578125-10.726563c-3.347656-1.902344-7.597656-.746094-9.523438 2.585937-1.921875 3.332032-.796875 7.59375 2.523438 9.539063l18.65625 10.769531c-4.59375 7.019532-9.980469 13.488282-16.054688 19.269532-7.699218-9.261719-17.625-16.417969-28.847656-20.800782-2.34375-.976562-5.03125-.609375-7.023438.960938-1.996093 1.570312-2.984374 4.097656-2.585937 6.601562.394531 2.507813 2.121094 4.605469 4.503906 5.476563 11.070313 4.328125 20.527344 11.984375 27.058594 21.917969 1.09375 1.660156 2.84375 2.773437 4.8125 3.066406 1.96875.292968 3.964844-.269532 5.496094-1.539063 30.878906-25.578125 47.3125-64.632812 44.015625-104.597656-3.300782-39.960937-25.914063-75.792969-60.574219-95.960937zm0 0" fill="#002d42"/><path d="m179.53125 139.308594-15.652344 115.664062c.136719 8.542969 7.101563 15.402344 15.648438 15.402344s15.515625-6.859375 15.652344-15.402344zm0 0" fill="#0162a7"/><path d="m202.386719 301.484375h-45.714844c-3.863281 0-7-3.136719-7-7 0-3.867187 3.136719-7 7-7h45.714844c3.863281 0 7 3.132813 7 7 0 3.863281-3.136719 7-7 7zm0 0" fill="#002d42"/><path d="m337.195312 441.152344h-70.589843c-3.867188 0-7 3.132812-7 7 0 3.863281 3.132812 7 7 7h70.59375zm0 0" fill="#0162a7"/><path d="m309.4375 441.152344v14h27.757812v-14zm0 0" fill="#004584"/><path d="m21.867188 455.152344h70.585937c3.867187 0 7-3.136719 7-7 0-3.867188-3.132813-7-7-7h-70.585937zm0 0" fill="#0162a7"/><path d="m179.53125 139.308594v131.3125c8.640625 0 15.648438-7.007813 15.648438-15.648438zm0 0" fill="#004584"/><path d="m160.292969 462.925781c3.867187 0 7 3.136719 7 7 0 3.867188-3.132813 7-7 7h-20.398438c-3.867187 0-7-3.132812-7-7 0-3.863281 3.132813-7 7-7zm191.238281-275.597656c-1.855469-.175781-3.699219.398437-5.125 1.597656-1.425781 1.195313-2.308594 2.914063-2.457031 4.769531-.871094 10.039063-2.664063 19.976563-5.355469 29.6875-1.035156 3.726563 1.148438 7.585938 4.875 8.617188 3.726562 1.035156 7.582031-1.148438 8.617188-4.871094 2.917968-10.539062 4.863281-21.324218 5.808593-32.222656.335938-3.851562-2.511719-7.246094-6.363281-7.578125zm-351.058594-8.148437c-.0625-96.242188 75.960938-175.320313 172.132813-179.046876 96.167969-3.726562 178.082031 69.234376 185.46875 165.191407.296875 3.855469-2.589844 7.21875-6.445313 7.515625-3.855468.296875-7.21875-2.589844-7.515625-6.445313-6.460937-82.660156-73.265625-147.683593-156.070312-151.90625-82.804688-4.222656-155.878907 53.664063-170.714844 135.238281-14.839844 81.574219 33.171875 161.488282 112.160156 186.691407s164.414063-12.132813 199.566407-87.222657c1.027343-2.320312 3.230468-3.898437 5.753906-4.132812 2.527344-.234375 4.980468.917969 6.417968 3.007812 1.433594 2.09375 1.625 4.796876.5 7.070313-23.398437 49.535156-68.078124 85.722656-121.398437 98.3125v16.574219c0 3.867187-3.132813 7-7 7-3.863281 0-7-3.132813-7-7v-13.84375c-8.867187 1.363281-17.824219 2.050781-26.796875 2.054687-8.972656.003907-17.929688-.664062-26.800781-2v26.507813c4.71875-1.597656 9.664062-2.417969 14.648437-2.425782h24.320313c22.714843.039063 42.015625 16.621094 45.480469 39.070313h100.023437c3.863281 0 7 3.136719 7 7v43.558594c0 3.863281-3.136719 7-7 7h-142c-3.867187 0-7-3.136719-7-7 0-3.867188 3.132813-7 7-7h135.011719v-7.777344h-63.601563c-3.867187 0-7-3.132813-7-7s3.132813-7 7-7h63.601563v-7.777344h-301.347656v7.777344h63.597656c3.867187 0 7 3.132813 7 7s-3.132813 7-7 7h-63.597656v7.753906h89.226562c3.867188 0 7 3.136719 7 7 0 3.867188-3.132812 7-7 7h-96.226562c-3.867188 0-7-3.132812-7-7v-43.550781c0-3.867188 3.132812-7 7-7h100.023437c1.761719-11.445312 7.769531-21.804688 16.832031-29.015625v-36.867187c-80.910156-19.042969-138.132812-91.191407-138.25-174.3125zm166.898438 215.125c-15.011719.019531-28.003906 10.429687-31.300782 25.070312h86.917969c-3.292969-14.640625-16.289062-25.050781-31.296875-25.070312zm-102.402344-311.554688c-51.617188 61.296875-45.824219 152.367188 13.140625 206.632812 58.964844 54.265626 150.199219 52.492188 207.007813-4.027343 56.8125-56.515625 59.054687-147.742188 5.09375-206.984375-53.960938-59.242188-145-65.503906-206.5625-14.203125-2.96875 2.480469-3.367188 6.898437-.886719 9.871093 2.480469 2.972657 6.902343 3.371094 9.871093.886719 55.792969-46.503906 138.308594-40.84375 187.226563 12.84375s46.902344 136.375-4.578125 187.609375c-51.480469 51.238282-134.175781 52.867188-187.632812 3.691406-53.453126-49.171874-58.722657-131.710937-11.953126-187.28125 2.492188-2.957031 2.113282-7.375-.84375-9.867187-2.957031-2.492187-7.375-2.117187-9.867187.839844zm189.5 175.273438c-7.699219-9.261719-17.625-16.417969-28.847656-20.800782-2.34375-.976562-5.03125-.609375-7.023438.960938-1.996094 1.570312-2.984375 4.097656-2.585937 6.601562.394531 2.507813 2.121093 4.605469 4.503906 5.476563 11.070313 4.328125 20.527344 11.984375 27.058594 21.917969 1.09375 1.660156 2.84375 2.773437 4.8125 3.066406 1.96875.292968 3.964843-.269532 5.496093-1.539063 46.023438-38.09375 57.894532-103.8125 28.101563-155.597656-.058594-.117187-.089844-.242187-.160156-.359375-.066407-.113281-.152344-.203125-.222657-.304688-10.710937-18.328124-25.960937-33.589843-44.28125-44.3125-.140624-.101562-.265624-.21875-.421874-.304687-.15625-.089844-.324219-.140625-.484376-.214844-37.707031-21.636719-84.0625-21.636719-121.769531 0-.164062.074219-.332031.125-.488281.21875-.15625.089844-.277344.207031-.421875.308594-18.320313 10.726563-33.566406 25.988281-44.277344 44.320313-.070312.105468-.160156.199218-.222656.3125-.066406.109374-.105469.238281-.160156.359374-29.78125 51.78125-17.910157 117.488282 28.105469 155.578126 1.527343 1.273437 3.527343 1.832031 5.496093 1.539062 1.96875-.289062 3.71875-1.40625 4.8125-3.066406 6.53125-9.933594 15.988281-17.59375 27.0625-21.917969 3.601563-1.40625 5.375-5.46875 3.96875-9.070313-1.410156-3.601562-5.472656-5.378906-9.074219-3.96875-11.222656 4.382813-21.148437 11.539063-28.851562 20.800782-5.863281-5.582032-11.085938-11.800782-15.570312-18.539063l18.601562-10.742187c2.183594-1.238282 3.535156-3.554688 3.542969-6.066406.003906-2.515626-1.335938-4.835938-3.515625-6.085938-2.179688-1.253906-4.859375-1.242188-7.027344.03125l-18.632812 10.753906c-6.363282-12.886718-10.101563-26.90625-11-41.25h21.460937c3.867187 0 7-3.136718 7-7 0-3.867187-3.132813-7-7-7h-21.453125c.910156-14.332031 4.671875-28.339844 11.0625-41.203125l18.554688 10.71875c3.34375 1.902344 7.597656.746094 9.523437-2.585937 1.921875-3.332032.796875-7.59375-2.523437-9.539063l-18.542969-10.707031c7.980469-11.921875 18.226562-22.160156 30.152343-30.136719l10.703126 18.554688c1.242187 2.183593 3.558593 3.535156 6.070312 3.542969 2.511719.003906 4.832031-1.335938 6.085938-3.515626 1.25-2.175781 1.238281-4.859374-.03125-7.027343l-10.703126-18.542969c12.859376-6.382812 26.867188-10.136719 41.199219-11.039062v21.417968c0 3.867188 3.132813 7 7 7 3.863281 0 7-3.132812 7-7v-21.417968c14.328125.902343 28.335938 4.65625 41.199219 11.039062l-10.703125 18.542969c-1.902344 3.347656-.75 7.597656 2.585937 9.523437 3.332032 1.921875 7.589844.796875 9.535157-2.523437l10.703125-18.53125c11.925781 7.976562 22.167968 18.214843 30.152344 30.136719l-18.546876 10.707031c-3.316406 1.945312-4.445312 6.207031-2.519531 9.539062 1.921875 3.332031 6.175781 4.488281 9.519531 2.585938l18.558594-10.714844c6.390625 12.859375 10.148438 26.867187 11.058594 41.199219h-21.488281c-3.867188 0-7 3.132812-7 7 0 3.863281 3.132812 7 7 7h21.460937c-.898437 14.335937-4.632812 28.351562-10.992187 41.230468l-18.632813-10.753906c-3.34375-1.902344-7.597656-.75-9.523437 2.582032-1.921875 3.335937-.796875 7.59375 2.523437 9.539062l18.605469 10.742188c-4.488281 6.734374-9.710937 12.953124-15.578125 18.53125zm-84.027344-51.527344c-3.828125-.511719-7.351562 2.171875-7.875 6l-5.625 41.535156c-.042968.3125-.0625.625-.0625.9375 0 12.507812 10.140625 22.648438 22.648438 22.648438 12.507812 0 22.652344-10.140626 22.652344-22.648438 0-.3125-.023438-.628906-.066407-.9375l-15.648437-115.664062c-.464844-3.476563-3.429688-6.070313-6.9375-6.070313-3.507813 0-6.472656 2.59375-6.9375 6.070313l-6.597656 48.765624c-.472657 3.496094 1.726562 6.800782 5.136718 7.707032s6.964844-.867188 8.289063-4.136719l8.75 64.667969c-.199219 4.628906-4.007813 8.277344-8.636719 8.277344-4.632812 0-8.441406-3.648438-8.640625-8.277344l5.546875-41c.515625-3.828125-2.167969-7.355469-5.996094-7.875zm-20.769531 88c0 3.867187 3.136719 7 7 7h45.714844c3.863281 0 7-3.132813 7-7 0-3.867188-3.136719-7-7-7h-45.714844c-3.859375 0-6.992187 3.125-7 6.988281zm0 0" fill="#002d42"/></svg>