<svg height="461pt" viewBox="-106 0 461 461.78" width="461pt" xmlns="http://www.w3.org/2000/svg"><path d="m40.648438 7h167.609374c18.371094 0 33.261719 14.890625 33.261719 33.261719v381.261719c0 18.371093-14.890625 33.261718-33.261719 33.261718h-167.609374c-18.367188 0-33.257813-14.890625-33.257813-33.261718v-381.261719c0-18.371094 14.890625-33.261719 33.257813-33.261719zm0 0" fill="#d9ecf2"/><path d="m208.257812 7h-20.566406c18.367188 0 33.257813 14.890625 33.257813 33.261719v381.261719c0 18.371093-14.890625 33.261718-33.257813 33.261718h20.566406c18.371094 0 33.261719-14.890625 33.261719-33.261718v-381.261719c0-18.371094-14.890625-33.261719-33.261719-33.261719zm0 0" fill="#bdd9e5"/><path d="m153.652344 322.699219v-250.207031c0-16.132813-13.078125-29.214844-29.210938-29.214844-16.136718 0-29.214844 13.082031-29.214844 29.214844v250.207031c-19.117187 12.851562-27.589843 36.691406-20.871093 58.722656 6.71875 22.035156 27.050781 37.089844 50.085937 37.089844s43.363282-15.054688 50.082032-37.089844c6.71875-22.03125-1.753907-45.871094-20.871094-58.722656zm0 0" fill="#fabe02"/><path d="m86.160156 366.152344c-.007812-17.4375 8.671875-33.730469 23.144532-43.453125v-250.207031c.011718-13.414063 9.160156-25.097657 22.179687-28.324219-8.71875-2.199219-17.964844-.246094-25.046875 5.292969-7.085938 5.539062-11.214844 14.039062-11.183594 23.03125v250.207031c-20.375 13.492187-28.675781 39.300781-19.988281 62.140625 8.691406 22.839844 32.046875 36.605468 56.238281 33.144531-25.957031-3.496094-45.328125-25.644531-45.34375-51.832031zm0 0" fill="#f59a1d"/><path d="m141.316406 340.570312v-265.875c0-3.867187-3.132812-7-7-7-3.863281 0-7 3.132813-7 7v265.875c-12.824218 3.507813-21.074218 15.960938-19.304687 29.136719 1.765625 13.175781 13.011719 23.011719 26.304687 23.011719 13.296875 0 24.539063-9.835938 26.308594-23.011719s-6.484375-25.628906-19.308594-29.136719zm0 0" fill="#f59a1d"/><path d="m124.453125 373.152344c-3.863281 0-7-3.132813-7-7v-291.457032c0-3.867187 3.136719-7 7-7 3.867187 0 7 3.132813 7 7v291.457032c0 3.867187-3.132813 7-7 7zm0 0" fill="#d8283f"/><path d="m150.996094 366.152344c0 14.660156-11.882813 26.542968-26.542969 26.542968s-26.542969-11.882812-26.542969-26.542968 11.882813-26.542969 26.542969-26.542969 26.542969 11.882813 26.542969 26.542969zm0 0" fill="#ff414d"/><path d="m124.453125 339.609375c-1.449219.015625-2.890625.148437-4.320313.398437 12.816407 2.101563 22.21875 13.175782 22.21875 26.164063 0 12.984375-9.402343 24.058594-22.21875 26.160156 9.851563 1.589844 19.757813-2.476562 25.648438-10.527343 5.890625-8.054688 6.765625-18.730469 2.265625-27.632813-4.5-8.90625-13.617187-14.53125-23.59375-14.5625zm0 0" fill="#d8283f"/><g fill="#002d42"><path d="m64.992188 81.222656h-19.019532c-3.863281 0-7-3.132812-7-7 0-3.863281 3.136719-7 7-7h19.019532c3.867187 0 7 3.136719 7 7 0 3.867188-3.132813 7-7 7zm0 0"/><path d="m64.992188 111.953125h-19.019532c-3.863281 0-7-3.136719-7-7 0-3.867187 3.136719-7 7-7h19.019532c3.867187 0 7 3.132813 7 7 0 3.863281-3.132813 7-7 7zm0 0"/><path d="m64.992188 142.671875h-19.019532c-3.863281 0-7-3.132813-7-7s3.136719-7 7-7h19.019532c3.867187 0 7 3.132813 7 7s-3.132813 7-7 7zm0 0"/><path d="m64.992188 173.394531h-19.019532c-3.863281 0-7-3.132812-7-7 0-3.863281 3.136719-7 7-7h19.019532c3.867187 0 7 3.136719 7 7 0 3.867188-3.132813 7-7 7zm0 0"/><path d="m64.992188 204.125h-19.019532c-3.863281 0-7-3.136719-7-7 0-3.867188 3.136719-7 7-7h19.019532c3.867187 0 7 3.132812 7 7 0 3.863281-3.132813 7-7 7zm0 0"/><path d="m64.992188 234.84375h-19.019532c-3.863281 0-7-3.132812-7-7s3.136719-7 7-7h19.019532c3.867187 0 7 3.132812 7 7s-3.132813 7-7 7zm0 0"/><path d="m64.992188 265.566406h-19.019532c-3.863281 0-7-3.132812-7-7 0-3.863281 3.136719-7 7-7h19.019532c3.867187 0 7 3.136719 7 7 0 3.867188-3.132813 7-7 7zm0 0"/><path d="m64.992188 296.292969h-19.019532c-3.863281 0-7-3.136719-7-7 0-3.867188 3.136719-7 7-7h19.019532c3.867187 0 7 3.132812 7 7 0 3.863281-3.132813 7-7 7zm0 0"/><path d="m202.933594 142.671875h-19.019532c-3.867187 0-7-3.132813-7-7s3.132813-7 7-7h19.019532c3.867187 0 7 3.132813 7 7s-3.132813 7-7 7zm0 0"/><path d="m202.933594 173.394531h-19.019532c-3.867187 0-7-3.132812-7-7 0-3.863281 3.132813-7 7-7h19.019532c3.867187 0 7 3.136719 7 7 0 3.867188-3.132813 7-7 7zm0 0"/><path d="m202.933594 204.125h-19.019532c-3.867187 0-7-3.136719-7-7 0-3.867188 3.132813-7 7-7h19.019532c3.867187 0 7 3.132812 7 7 0 3.863281-3.132813 7-7 7zm0 0"/><path d="m202.933594 234.84375h-19.019532c-3.867187 0-7-3.132812-7-7s3.132813-7 7-7h19.019532c3.867187 0 7 3.132812 7 7s-3.132813 7-7 7zm0 0"/><path d="m202.933594 265.566406h-19.019532c-3.867187 0-7-3.132812-7-7 0-3.863281 3.132813-7 7-7h19.019532c3.867187 0 7 3.136719 7 7 0 3.867188-3.132813 7-7 7zm0 0"/><path d="m202.933594 296.292969h-19.019532c-3.867187 0-7-3.136719-7-7 0-3.867188 3.132813-7 7-7h19.019532c3.867187 0 7 3.132812 7 7 0 3.863281-3.132813 7-7 7zm0 0"/></g><path d="m213.957031 74.222656c0 9.574219-7.757812 17.332032-17.332031 17.332032-9.570312 0-17.332031-7.757813-17.332031-17.332032 0-9.570312 7.761719-17.332031 17.332031-17.332031 9.574219 0 17.332031 7.761719 17.332031 17.332031zm0 0" fill="#ff414d"/><path d="m196.625 56.890625c-1.511719.023437-3.011719.242187-4.46875.65625 7.582031 1.988281 12.867188 8.839844 12.867188 16.675781 0 7.839844-5.285157 14.6875-12.867188 16.675782 1.457031.417968 2.957031.636718 4.46875.65625 9.46875-.140626 17.070312-7.859376 17.070312-17.328126s-7.601562-17.1875-17.070312-17.332031zm0 0" fill="#d8283f"/><path d="m.390625 207.152344v-20.09375c0-3.863282 3.132813-7 7-7s7 3.136718 7 7v20.09375c0 3.867187-3.132813 7-7 7s-7-3.132813-7-7zm0 214.371094c.027344 22.222656 18.035156 40.230468 40.253906 40.257812h167.601563c22.222656-.027344 40.230468-18.035156 40.257812-40.257812v-381.261719c-.027344-22.21875-18.027344-40.230469-40.246094-40.261719h-167.601562c-22.226562.0195312-40.242188 18.03125-40.265625 40.261719v112.039062c0 3.863281 3.132813 7 7 7s7-3.136719 7-7v-112.039062c.015625-14.496094 11.761719-26.242188 26.253906-26.257813h167.601563c14.496094.015625 26.242187 11.761719 26.257812 26.257813v381.261719c-.015625 14.496093-11.761718 26.242187-26.257812 26.257812h-167.601563c-14.492187-.015625-26.238281-11.761719-26.253906-26.257812v-180.742188c0-3.867188-3.132813-7-7-7s-7 3.132812-7 7zm73.839844-71.789063c-1.824219-.34375-3.710938.050781-5.242188 1.101563-1.53125 1.054687-2.578125 2.671874-2.910156 4.5-5.3125 28.699218 11.023437 57.003906 38.53125 66.757812 27.507813 9.757812 58.027344-1.933594 71.980469-27.566406 13.953125-25.636719 7.203125-57.613282-15.925782-75.417969v-246.617187c-.207031-19.851563-16.359374-35.835938-36.210937-35.835938-19.855469 0-36.007813 15.984375-36.214844 35.835938v250.207031c0 3.867187 3.132813 7 7 7 3.867188 0 7-3.132813 7-7v-250.207031c.164063-12.152344 10.058594-21.917969 22.214844-21.917969 12.152344 0 22.050781 9.765625 22.210937 21.917969v250.207031c0 2.328125 1.160157 4.503906 3.089844 5.804687 17.949219 12.0625 24.886719 35.117188 16.578125 55.082032-8.3125 19.964843-29.5625 31.285156-50.765625 27.046874-21.207031-4.238281-36.472656-22.855468-36.472656-44.480468 0-2.773438.253906-5.539063.753906-8.265625.335938-1.824219-.066406-3.710938-1.121094-5.238281-1.050781-1.53125-2.671874-2.578126-4.496093-2.914063zm57.222656-275.039063v258.65625c16.789063 3.582032 28.164063 19.257813 26.363281 36.328126-1.800781 17.070312-16.195312 30.03125-33.363281 30.03125-17.164063 0-31.5625-12.960938-33.363281-30.03125-1.800782-17.070313 9.578125-32.746094 26.363281-36.328126v-258.65625c0-3.867187 3.136719-7 7-7 3.867187 0 7 3.132813 7 7zm-7 271.914063c-10.792969 0-19.539063 8.75-19.539063 19.542969 0 10.792968 8.75 19.542968 19.542969 19.542968s19.542969-8.746093 19.546875-19.539062c-.015625-10.789062-8.757812-19.535156-19.550781-19.546875zm-78.480469-265.386719h19.019532c3.867187 0 7-3.132812 7-7 0-3.863281-3.132813-7-7-7h-19.019532c-3.863281 0-7 3.136719-7 7 0 3.867188 3.136719 7 7 7zm0 30.730469h19.019532c3.867187 0 7-3.136719 7-7 0-3.867187-3.132813-7-7-7h-19.019532c-3.863281 0-7 3.132813-7 7 0 3.863281 3.136719 7 7 7zm0 30.722656h19.019532c3.867187 0 7-3.132812 7-7 0-3.867187-3.132813-7-7-7h-19.019532c-3.863281 0-7 3.132813-7 7 0 3.867188 3.136719 7 7 7zm0 30.722657h19.019532c3.867187 0 7-3.132813 7-7 0-3.863282-3.132813-7-7-7h-19.019532c-3.863281 0-7 3.136718-7 7 0 3.867187 3.136719 7 7 7zm0 30.730468h19.019532c3.867187 0 7-3.136718 7-7 0-3.867187-3.132813-7-7-7h-19.019532c-3.863281 0-7 3.132813-7 7 0 3.863282 3.136719 7 7 7zm0 30.722656h19.019532c3.867187 0 7-3.132812 7-7 0-3.867187-3.132813-7-7-7h-19.019532c-3.863281 0-7 3.132813-7 7 0 3.867188 3.136719 7 7 7zm0 30.722657h19.019532c3.867187 0 7-3.132813 7-7 0-3.863281-3.132813-7-7-7h-19.019532c-3.863281 0-7 3.136719-7 7 0 3.867187 3.136719 7 7 7zm0 30.726562h19.019532c3.867187 0 7-3.136719 7-7 0-3.867187-3.132813-7-7-7h-19.019532c-3.863281 0-7 3.132813-7 7 0 3.863281 3.136719 7 7 7zm156.960938-167.601562h-19.019532c-3.867187 0-7 3.136719-7 7 0 3.867187 3.132813 7 7 7h19.019532c3.867187 0 7-3.132813 7-7 0-3.863281-3.132813-7-7-7zm0 30.726562h-19.019532c-3.867187 0-7 3.132813-7 7 0 3.863281 3.132813 7 7 7h19.019532c3.867187 0 7-3.136719 7-7 0-3.867187-3.132813-7-7-7zm0 30.726563h-19.019532c-3.867187 0-7 3.132812-7 7 0 3.867187 3.132813 7 7 7h19.019532c3.867187 0 7-3.132813 7-7 0-3.867188-3.132813-7-7-7zm0 30.722656h-19.019532c-3.867187 0-7 3.136719-7 7 0 3.867188 3.132813 7 7 7h19.019532c3.867187 0 7-3.132812 7-7 0-3.863281-3.132813-7-7-7zm0 30.726562h-19.019532c-3.867187 0-7 3.132813-7 7 0 3.863282 3.132813 7 7 7h19.019532c3.867187 0 7-3.136718 7-7 0-3.867187-3.132813-7-7-7zm0 30.722657h-19.019532c-3.867187 0-7 3.132812-7 7 0 3.867187 3.132813 7 7 7h19.019532c3.867187 0 7-3.132813 7-7 0-3.867188-3.132813-7-7-7zm-6.308594-183.769531c-13.4375 0-24.332031-10.890626-24.332031-24.332032 0-13.4375 10.894531-24.332031 24.332031-24.332031s24.332031 10.894531 24.332031 24.332031c-.011719 13.433594-10.898437 24.320313-24.332031 24.332032zm10.332031-24.332032c0-5.703125-4.625-10.332031-10.332031-10.332031s-10.332031 4.628906-10.332031 10.332031c0 5.707032 4.625 10.332032 10.332031 10.332032 5.703125-.003907 10.328125-4.628907 10.332031-10.332032zm0 0" fill="#002d42"/></svg>