<svg height="465pt" viewBox="-25 0 465 465.4754" width="465pt" xmlns="http://www.w3.org/2000/svg"><path d="m207.503906 7.015625c-6.761718.601563-11.910156 6.335937-11.769531 13.128906v389.878907c.203125 12.433593-8.992187 23.023437-21.332031 24.558593-6.648438.65625-13.261719-1.527343-18.207032-6.011719-4.949218-4.484374-7.773437-10.851562-7.773437-17.53125v-11.199218c0-6.875-5.570313-12.445313-12.445313-12.445313-6.871093 0-12.441406 5.570313-12.441406 12.441407v8.5c-.339844 25.550781 18.792969 47.175781 44.195313 49.960937 13.574219 1.214844 27.039062-3.332031 37.097656-12.527344 10.058594-9.199219 15.789063-22.203125 15.785156-35.835937v-390.496094c0-3.414062-1.40625-6.679688-3.882812-9.027344-2.480469-2.351562-5.8125-3.578125-9.226563-3.394531zm0 0" fill="#26a3b9"/><g fill="#168aa5"><path d="m207.503906 7.015625c-1.9375.117187-3.816406.71875-5.460937 1.75 3.773437 2.230469 6.09375 6.289063 6.09375 10.671875v390.496094c0 24.335937-18.019531 44.90625-42.140625 48.113281.582031.074219 1.148437.1875 1.738281.242187 13.574219 1.214844 27.035156-3.332031 37.089844-12.527343 10.058593-9.195313 15.789062-22.199219 15.789062-35.828125v-390.496094c0-3.414062-1.40625-6.679688-3.882812-9.027344-2.480469-2.351562-5.8125-3.578125-9.226563-3.394531zm0 0"/><path d="m135.941406 399.828125v11.199219c0 6.679687 2.824219 13.046875 7.773438 17.53125 4.949218 4.484375 11.5625 6.667968 18.207031 6.011718 1.328125-.132812 2.636719-.382812 3.917969-.75-10.28125-2.804687-17.414063-12.144531-17.417969-22.800781v-11.199219c-.003906-6.871093-5.570313-12.4375-12.441406-12.441406-2.195313.011719-4.351563.609375-6.238281 1.734375 3.828124 2.210938 6.191406 6.292969 6.199218 10.714844zm0 0"/><path d="m220.613281 229.136719v-167.496094c-4.121093-.253906-8.257812-.421875-12.441406-.421875-4.179687 0-8.320313.167969-12.4375.421875v167.496094c8.019531 9.128906 12.441406 20.867187 12.4375 33.019531-.003906-12.152344 4.421875-23.890625 12.441406-33.019531zm0 0"/></g><path d="m358.878906 185.234375c27.742188 0 50.234375 22.492187 50.234375 50.238281-.492187-110.625-90.3125-200.046875-200.9375-200.046875s-200.445312 89.421875-200.9375 200.046875c-.160156-18.054687 9.378907-34.808594 24.984375-43.878906 15.609375-9.074219 34.886719-9.074219 50.496094 0 15.609375 9.070312 25.148438 25.824219 24.988281 43.878906-.164062-18.054687 9.375-34.808594 24.984375-43.878906 15.609375-9.074219 34.886719-9.074219 50.496094 0 15.609375 9.070312 25.148438 25.824219 24.984375 43.878906-.160156-18.054687 9.378906-34.808594 24.988281-43.878906 15.609375-9.074219 34.886719-9.074219 50.496094 0 15.605469 9.070312 25.148438 25.824219 24.984375 43.878906 0-27.746094 22.492187-50.238281 50.238281-50.238281zm0 0" fill="#d9ecf2"/><path d="m358.878906 139.476562c-27.746094 0-50.238281 22.488282-50.238281 50.234376-.246094-27.566407-22.664063-49.789063-50.234375-49.789063-27.566406 0-49.988281 22.222656-50.234375 49.789063-.246094-27.566407-22.664063-49.789063-50.230469-49.789063-27.570312 0-49.988281 22.222656-50.234375 49.789063.007813-19.320313-11.066406-36.933594-28.488281-45.292969-17.417969-8.355469-38.089844-5.976563-53.152344 6.121093-12.429687 26.585938-18.855468 55.582032-18.828125 84.933594.246094-27.570312 22.664063-49.789062 50.234375-49.789062 27.570313 0 49.988282 22.21875 50.234375 49.789062.246094-27.570312 22.664063-49.789062 50.234375-49.789062 27.566406 0 49.984375 22.21875 50.230469 49.789062.246094-27.570312 22.667969-49.789062 50.234375-49.789062 27.570312 0 49.988281 22.21875 50.234375 49.789062.246094-27.570312 22.664063-49.789062 50.234375-49.789062s49.988281 22.21875 50.234375 49.789062c.027344-29.351562-6.398437-58.347656-18.828125-84.933594-8.894531-7.167968-19.980469-11.070312-31.402344-11.0625zm0 0" fill="#bdd9e5"/><path d="m107.375 229.882812c.210938 1.859376.320312 3.730469.328125 5.601563-.164063-18.054687 9.375-34.804687 24.984375-43.878906s34.886719-9.074219 50.496094 0 25.148437 25.824219 24.984375 43.878906v-200.953125c-100.929688 48.050781-101.914063 168.203125-100.792969 195.351562zm0 0" fill="#ff414d"/><path d="m157.9375 139.476562c-19.828125.003907-37.796875 11.675782-45.859375 29.789063-3.816406 19.96875-5.394531 40.300781-4.703125 60.617187.210938 1.859376.320312 3.730469.328125 5.601563.246094-27.570313 22.664063-49.789063 50.234375-49.789063 27.566406 0 49.984375 22.21875 50.230469 49.789063v-45.773437c0-27.742188-22.488281-50.234376-50.230469-50.234376zm0 0" fill="#d8283f"/><path d="m208.171875 34.53125c100.9375 48.050781 101.921875 168.203125 100.800781 195.351562 2.949219-26.503906 26.097656-46.082031 52.722656-44.59375 26.625 1.492188 47.441407 23.527344 47.417969 50.195313.007813-110.980469-89.957031-200.953125-200.941406-200.953125zm0 0" fill="#ff414d"/><path d="m408.808594 224.585938c-.054688-1.046876-.167969-2.082032-.238282-3.128907-.179687-2.574219-.367187-5.136719-.644531-7.683593-.121093-1.121094-.289062-2.234376-.429687-3.351563-.304688-2.464844-.628906-4.929687-1.03125-7.371094-.171875-1.054687-.375-2.105469-.5625-3.152343-.453125-2.507813-.929688-5.007813-1.472656-7.488282-.203126-.925781-.425782-1.851562-.640626-2.773437-.613281-2.613281-1.261718-5.203125-1.976562-7.78125-.207031-.761719-.425781-1.511719-.644531-2.269531-.796875-2.757813-1.652344-5.496094-2.566407-8.207032-.1875-.550781-.371093-1.109375-.558593-1.660156-1.023438-2.949219-2.113281-5.867188-3.265625-8.753906-.125-.308594-.238282-.621094-.367188-.929688-1.300781-3.199218-2.679687-6.363281-4.128906-9.488281-15.0625-12.097656-35.734375-14.476563-53.152344-6.121094-17.421875 8.359375-28.5 25.972657-28.488281 45.292969 0-7.046875-1.492187-14.011719-4.375-20.445312 3.816406 19.964843 5.394531 40.292968 4.707031 60.609374.492188-4.402343 1.566406-8.722656 3.199219-12.84375.085937-.214843.152344-.441406.242187-.65625.398438-1.019531.902344-2 1.386719-2.992187.207031-.421875.402344-.859375.617188-1.277344.464843-.878906.976562-1.722656 1.488281-2.570312.300781-.492188.582031-.996094.894531-1.476563.507813-.773437 1.054688-1.519531 1.601563-2.261718.378906-.515626.75-1.035157 1.148437-1.535157.546875-.6875 1.117188-1.347656 1.703125-2 .453125-.511719.90625-1.023437 1.378906-1.519531.585938-.605469 1.199219-1.199219 1.796876-1.769531.523437-.496094 1.054687-.984375 1.601562-1.460938.613281-.535156 1.238281-1.046875 1.875-1.542969.59375-.46875 1.199219-.921874 1.824219-1.367187.625-.441406 1.277343-.898437 1.933593-1.320313.65625-.425781 1.355469-.84375 2.042969-1.242187s1.308594-.753906 2-1.109375c.734375-.398438 1.492188-.734375 2.25-1.082031.664063-.304688 1.324219-.617188 2-.890625.800781-.332032 1.648438-.621094 2.484375-.910156.660156-.226563 1.3125-.472657 2-.675782.898438-.273437 1.824219-.484375 2.746094-.707031.636719-.152344 1.269531-.332031 1.917969-.460937 1.042969-.207032 2.109375-.34375 3.171875-.484376.550781-.070312 1.097656-.179687 1.65625-.234374 1.636718-.160157 3.292968-.253907 4.96875-.253907 27.742187 0 50.234375 22.492188 50.234375 50.238281-.023438-3.65625-.136719-7.285156-.328125-10.890624zm0 0" fill="#d8283f"/><path d="m227.613281 253v21.628906c0 3.863282-3.132812 7-7 7-3.867187 0-7-3.136718-7-7v-21.628906c0-3.867188 3.132813-7 7-7 3.867188 0 7 3.132812 7 7zm30.800781-60.765625c-23.871093.023437-43.214843 19.367187-43.242187 43.238281.015625 2.972656-1.859375 5.625-4.664063 6.609375-2.808593.984375-5.929687.078125-7.773437-2.253906v170.199219c.160156 16.023437-11.757813 29.605468-27.667969 31.53125-8.609375.839844-17.175781-1.992188-23.582031-7.804688s-10.0625-14.058594-10.0625-22.710937v-11.199219c0-3.007812-2.4375-5.441406-5.441406-5.441406-3.007813 0-5.441407 2.433594-5.441407 5.441406v8.492188c-.3125 21.910156 16.027344 40.496093 37.796876 42.988281 11.648437 1.089843 23.207031-2.816407 31.800781-10.75 8.578125-7.878907 13.464843-18.992188 13.476562-30.640625v-110.71875c0-3.867188 3.132813-7 7-7 3.867188 0 7 3.132812 7 7v110.71875c-.015625 15.566406-6.542969 30.414062-18 40.949218-10.191406 9.417969-23.570312 14.628907-37.449219 14.59375-1.664062 0-3.335937-.074218-5.023437-.222656-28.988281-3.152344-50.867187-27.761718-50.601563-56.917968v-8.492188c0-10.738281 8.703126-19.441406 19.441407-19.441406s19.441406 8.703125 19.441406 19.441406v11.199219c.003906 4.695312 1.984375 9.167969 5.457031 12.328125 3.476563 3.195312 8.160156 4.746094 12.859375 4.253906 8.75-1.195312 15.207031-8.773438 14.996094-17.601562v-204.851563c-12.296875-12.527344-30.949219-16.367187-47.191406-9.71875-16.242188 6.648437-26.851563 22.460937-26.835938 40.015625 0 3.863281-3.136719 7-7 7-3.867187 0-7-3.136719-7-7-.230469-23.71875-19.519531-42.820312-43.234375-42.820312-23.71875 0-43.007812 19.101562-43.234375 42.820312 0 3.863281-3.132812 7-7 7-3.867187 0-7-3.136719-7-7 .140625-107.25 81.726563-196.847656 188.496094-206.996094v-8.324218c-.191406-10.53125 7.894531-19.371094 18.398437-20.1210942 5.328126-.2812498 10.539063 1.6367182 14.410157 5.3085942 3.871093 3.671874 6.0625 8.773437 6.0625 14.105468v9.125c65.816406 6.359375 124.757812 43.449219 158.96875 100.03125 1.988281 3.316406.914062 7.613282-2.402344 9.601563-3.3125 1.988281-7.609375.914062-9.597656-2.398438-29.523438-49.699219-79.835938-83.480469-137.007813-92 59.007813 42.472657 74.105469 112.441407 77.59375 154.773438 10.035156-11.917969 24.503906-19.222657 40.054688-20.222657 15.546875-.996093 30.832031 4.398438 42.308594 14.9375-2.371094-10.6875-5.652344-21.152343-9.800782-31.28125-1.019531-2.328124-.699218-5.027343.839844-7.046874 1.539062-2.023438 4.054688-3.050782 6.570312-2.691407 2.511719.363281 4.632813 2.058594 5.539063 4.433594 10.242187 24.996094 15.484375 51.753906 15.4375 78.765625 0 3.863281-3.132813 7-7 7s-7-3.136719-7-7c.148437-15.546875-8.058594-29.976562-21.496094-37.792969-13.4375-7.816406-30.039062-7.816406-43.476562 0-13.4375 7.816407-21.644531 22.246094-21.496094 37.792969 0 3.863281-3.132813 7-7 7-3.863281 0-7-3.136719-7-7-.027344-23.867188-19.367187-43.203125-43.230469-43.234375zm-50.242187-164.699219c1.746094 0 3.550781.027344 5.441406.085938v-8.179688c.007813-1.492187-.609375-2.921875-1.699219-3.945312-1.078124-1.046875-2.546874-1.585938-4.042968-1.484375-3.027344.4375-5.242188 3.078125-5.140625 6.136719v7.472656c1.894531-.0625 3.699219-.085938 5.441406-.085938zm-7 170.503906v-152c-19.71875 11.117188-36.730469 26.472657-49.796875 44.960938-2.242188 3.148438-6.613281 3.886719-9.761719 1.644531-3.152343-2.242187-3.890625-6.609375-1.648437-9.761719 10.699218-15.089843 23.828125-28.300781 38.855468-39.085937-78.960937 12.222656-142.40625 71.503906-159.953124 149.453125 11.457031-10.5 26.699218-15.882812 42.210937-14.902344 15.511719.980469 29.957031 8.242188 40 20.105469 2.121094-30.273437 9.71875-59.90625 22.417969-87.464844 1.054687-2.296875 3.265625-3.847656 5.78125-4.058593 2.519531-.210938 4.953125.953124 6.375 3.042968 1.417968 2.089844 1.601562 4.785156.476562 7.046875-11.605468 25.355469-18.660156 52.558594-20.835937 80.359375 10.933593-12.292968 26.636719-19.269531 43.089843-19.144531 16.449219.125 32.046876 7.34375 42.789063 19.800781zm57.238281-19.804687c16.285156.003906 31.796875 6.964844 42.628906 19.128906-3.914062-43.269531-20.667968-114.359375-85.867187-151.269531v151.945312c10.847656-12.574218 26.632813-19.804687 43.238281-19.804687zm0 0" fill="#002d42"/></svg>