<svg height="463pt" viewBox="-19 0 463 463.13885" width="463pt" xmlns="http://www.w3.org/2000/svg"><path d="m23 94.050781h31.601562v362.085938h-31.601562zm0 0" fill="#0162a7"/><path d="m38.800781 94.050781h15.796875v362.085938h-15.796875zm0 0" fill="#004584"/><path d="m70.570312 38.757812c0 17.546876-14.222656 31.773438-31.769531 31.773438s-31.773437-14.226562-31.773437-31.773438c0-17.546874 14.226562-31.769531 31.773437-31.769531s31.769531 14.222657 31.769531 31.769531zm0 0" fill="#0162a7"/><path d="m38.800781 6.988281c-2.507812.007813-5.003906.3125-7.4375.910157 14.273438 3.421874 24.339844 16.183593 24.339844 30.863281 0 14.675781-10.066406 27.441406-24.339844 30.859375 11.90625 2.871094 24.402344-1.359375 32.113281-10.875 7.710938-9.511719 9.265626-22.613282 3.996094-33.667969-5.269531-11.054687-16.425781-18.09375-28.671875-18.089844zm0 0" fill="#004584"/><path d="m10.632812 70.53125h56.339844v23.519531h-56.339844zm0 0" fill="#d9ecf2"/><path d="m48.699219 70.53125h18.273437v23.519531h-18.273437zm0 0" fill="#bdd9e5"/><path d="m111.390625 111.757812h23.808594v176.71875h-23.808594zm0 0" fill="#ff414d"/><path d="m111.390625 252.273438h23.808594v36.203124h-23.808594zm0 0" fill="#d8283f"/><path d="m419.042969 252.742188-283.84375 35.734374v-176.71875l283.84375 35.734376zm0 0" fill="#d9ecf2"/><path d="m135.199219 288.476562 283.84375-35.734374v-36.199219l-283.84375 35.730469zm0 0" fill="#bdd9e5"/><path d="m219.9375 277.808594 114.363281-14.398438v-126.585937l-114.363281-14.398438zm0 0" fill="#ff414d"/><path d="m334.300781 227.210938-114.363281 14.394531v36.203125l105.601562-13.292969 8.761719-1.105469zm0 0" fill="#d8283f"/><path d="m54.601562 124.679688h56.792969v20.824218h-56.792969zm0 0" fill="#d9ecf2"/><path d="m54.601562 254.730469h56.792969v20.824219h-56.792969zm0 0" fill="#d9ecf2"/><path d="m86.917969 124.679688h24.472656v20.824218h-24.472656zm0 0" fill="#bdd9e5"/><path d="m86.917969 254.730469h24.472656v20.824219h-24.472656zm0 0" fill="#bdd9e5"/><path d="m16 218.613281v-24.292969c0-3.867187 3.132812-7 7-7s7 3.132813 7 7v24.289063c0 3.867187-3.132812 7-7 7s-7-3.132813-7-7zm-1.972656-179.855469c0 13.683594 11.089844 24.773438 24.773437 24.773438 13.679688 0 24.769531-11.089844 24.769531-24.773438 0-3.863281 3.136719-7 7-7 3.867188 0 7 3.136719 7 7 .003907 9.128907-3.226562 17.964844-9.125 24.9375 3.222657.691407 5.523438 3.539063 5.527344 6.835938v23.519531c0 3.867188-3.136718 7-7 7h-5.371094v16.628907h42.800782v-5.921876c0-3.863281 3.136718-7 7-7h23.808594c.167968 0 .324218.035157.488281.050782.164062.011718.257812 0 .398437 0l84.714844 10.671875 42.714844 5.378906 156.398437 19.6875c3.5.441406 6.125 3.417969 6.125 6.945313v105.265624c0 3.527344-2.625 6.503907-6.125 6.945313l-84.746093 10.65625-114.359376 14.398437h-.042968l-30.480469 3.835938c-3.835937.484375-7.339844-2.234375-7.820313-6.070312-.484374-3.835938 2.234376-7.335938 6.070313-7.820313l24.398437-3.074219v-143.027344l-70.746093-8.90625v160.84375l20.972656-2.640624c3.835937-.484376 7.335937 2.234374 7.820313 6.070312.484374 3.835938-2.234376 7.339844-6.070313 7.820312l-28.847656 3.632813c-.289063.039063-.582031.054687-.875.058594h-23.808594c-3.867187 0-7-3.136719-7-7v-5.921875h-42.800781v173.582031c0 3.863281-3.132813 7-7 7h-31.597656c-3.867188 0-7-3.136719-7-7v-209.664063c0-3.867187 3.132812-7 7-7 3.863281 0 7 3.132813 7 7v202.660157h17.597656v-348.085938h-17.597656v68.261719c0 3.863281-3.136719 7-7 7-3.867188 0-7-3.136719-7-7v-68.261719h-5.355469c-3.867188 0-7-3.132812-7-7v-23.519531c0-3.296875 2.300781-6.144531 5.523437-6.835938-12.972656-15.429687-11.949218-38.226562 2.351563-52.433593s37.101562-15.078125 52.449219-2.007813c1.964843 1.605469 2.914062 4.148438 2.46875 6.648438-.441407 2.5-2.203126 4.5625-4.601563 5.394531s-5.058594.296875-6.953125-1.394531c-7.351562-6.273438-17.683594-7.695313-26.457031-3.644532-8.777344 4.050782-14.394531 12.835938-14.390625 22.5zm90.363281 113.746094h-42.800781v95.226563h42.800781zm0 116.050782v-6.824219h-42.800781v6.824219zm307.652344-114.886719-70.742188-8.910157v35.644532c0 3.867187-3.136719 7-7 7-3.867187 0-7-3.132813-7-7v-37.402344l-58.535156-7.371094-41.828125-5.269531v139.511719l89.113281-11.199219 11.25-1.417969v-19.511718c0-3.867188 3.132813-7 7-7 3.863281 0 7 3.132812 7 7v17.730468l70.742188-8.90625zm-293.652344-28.988281v156.800781h9.808594v-162.722657h-9.808594zm-56.800781 7v6.824218h42.800781v-6.824218zm-7-44.628907h5.371094v-9.519531h-42.328126v9.519531h36.96875zm279.703125 112.398438c-3.867188 0-7 3.136719-7 7v6.078125c0 3.867187 3.132812 7 7 7 3.863281 0 7-3.132813 7-7v-6.058594c0-3.863281-3.128907-6.996094-6.992188-7zm0 0" fill="#002d42"/></svg>