<?xml version="1.0" encoding="utf-8"?>
<!-- Generator: Adobe Illustrator 16.0.0, SVG Export Plug-In . SVG Version: 6.00 Build 0)  -->
<!DOCTYPE svg PUBLIC "-//W3C//DTD SVG 1.1//EN" "http://www.w3.org/Graphics/SVG/1.1/DTD/svg11.dtd">
<svg version="1.1"
	 id="svg18516" xmlns:cc="http://creativecommons.org/ns#" xmlns:dc="http://purl.org/dc/elements/1.1/" xmlns:rdf="http://www.w3.org/1999/02/22-rdf-syntax-ns#" xmlns:inkscape="http://www.inkscape.org/namespaces/inkscape" xmlns:sodipodi="http://sodipodi.sourceforge.net/DTD/sodipodi-0.dtd" xmlns:svg="http://www.w3.org/2000/svg" sodipodi:docname="Logo PSG.svg" inkscape:version="0.91 r13725"
	 xmlns="http://www.w3.org/2000/svg" xmlns:xlink="http://www.w3.org/1999/xlink" x="0px" y="0px" width="510px" height="509.964px"
	 viewBox="0 0 510 509.964" enable-background="new 0 0 510 509.964" xml:space="preserve">
<path fill="#CC7B36" d="M206.767,13.881c20.529-5.989,42.125-9.891,63.524-7.042c31.686,3.399,61.436,18.625,84.419,40.42
	c20.302,19.34,32.646,45.479,39.886,72.257c-9.829-19.387-24.812-36.212-43.543-47.354c-22.204-13.458-49.105-19.036-74.834-15.241
	c-22.617,3.247-44.213,13.412-60.994,28.958c-19.752,18.152-32.691,43.482-35.816,70.123c-3.201,26.017,3.185,53.009,17.405,75.001
	c24.827,38.879,74.27,59.105,119.382,50.554c-29.415,13.307-63.021,18.656-94.783,11.63c-31.198-6.662-59.348-25.103-79.009-50.067
	c-21.734-27.418-34.186-62.458-32.937-97.557c1.067-38.438,18.442-76.053,46.913-101.886
	C170.889,30.433,188.142,20.175,206.767,13.881z"/>
<path fill="#FFF032" d="M152.083,56.221c18.791-20.469,43.985-34.78,71.038-40.938c1.997-0.334,4.024-0.334,6.036-0.381
	c-23.015,5.67-44.306,17.863-61.254,34.384c-4.359,4.451-8.992,8.779-12.04,14.296c30.588-27.875,73.857-38.651,114.46-34.688
	c-7.408,1.311-14.923,2.119-22.405,2.789c-10.714-1.006-21.093,2.226-31.229,5.212c-25.284,7.697-49.121,21.779-66.176,42.188
	c-4.998,6.583-10.683,13.03-13.152,21.078c5.853-5.122,9.586-12.086,15.088-17.542c6.127-6.188,12.619-12.269,20.469-16.217
	c-6.417,11.157-14.006,22.329-15.287,35.496c-0.396,2.348-1.005,4.649-1.616,6.95c18.016-32.601,52.186-55.416,89.099-60.019
	c-0.137,0.487-0.396,1.448-0.518,1.936c-23.288,5.502-45.495,16.963-62.183,34.276c-9.831,11.447-19.432,24.326-22.069,39.535
	c5.746-9.007,9.51-19.584,18.273-26.321c-8.596,22.724-13.839,47.292-10.638,71.633c0.625,6.996,3.17,13.793,2.347,20.88
	c-7.072-16.217-5.273-34.17-6.065-51.377c-0.351,9.678-0.473,19.356-0.412,29.035c1.6,22.236,10.12,43.802,23.456,61.604
	c4.984,6.767,11.217,12.513,15.881,19.523c-27.891-17.236-47.308-47.308-52.627-79.588c-1.921-11.125-0.534-22.45-1.479-33.652
	c-0.656,7.59-0.29,15.226-0.609,22.847c-0.442,14.204,3.749,27.982,8.245,41.288c-2.057-0.214-4.13-0.442-6.188-0.656
	c-10.257-23.639-15.195-50.082-11.004-75.717c0.884-6.188,2.926-12.147,3.749-18.35c-1.173,2.896-2.119,5.929-3.673,8.656
	c-4.771,6.477-5.898,14.617-7.757,22.237c-5.06,25.636-2.073,53.008,9.678,76.464c10.074,21.535,26.702,39.536,45.997,53.191
	c9.16,6.4,19.492,10.76,29.567,15.5c0.122,0.44,0.366,1.325,0.487,1.769c-28.546-7.424-54.38-24.629-72.639-47.75
	c-20.346-25.804-31.076-59.014-29.582-91.843C116.738,111.591,130.104,79.966,152.083,56.221z"/>
<path fill="#FFDC2D" d="M198.201,32.506c25.483-15.104,56.422-20.622,85.639-16.019c26.153,3.582,49.701,18.122,68.234,36.427
	c4.816,4.983,9.679,10.058,13.245,16.064c-5.122-2.698-8.536-7.438-12.361-11.599c-9.753-11.766-22.801-20.422-37.309-25.132
	l0.562,1.417c0.458,2.652,0.839,5.304,1.235,7.956c-15.638-2.255-31.566-4.511-47.34-2.332c9.327,1.723,18.777,3.217,27.693,6.646
	c-11.461,1.646-23.395,1.753-34.2,6.386c-23.472,7.072-45.449,20.012-61.528,38.697c-11.293,12.741-18.959,28.18-24.568,44.138
	c2.683-22.07,15.149-42.324,31.808-56.743c20.088-16.886,44.58-28.729,70.566-32.92c-20.165-2.271-40.983-1.585-60.4,4.724
	c-6.736,2.149-12.924,5.609-19.432,8.307c18.716-15.683,42.919-23.38,66.862-26.215c8.824-1.203,17.757-0.563,26.611-1.386
	C262.639,21.289,228.851,22.599,198.201,32.506z"/>
<path fill="#FFD32F" d="M216.688,36.895c10.136-2.987,20.515-6.218,31.229-5.212c-9.953,3.109-20.285,5.258-29.644,10.09
	c-24.157,12.086-44.427,31.838-57.397,55.522c-0.96,1.616-2.103,3.109-3.247,4.603c1.281-13.167,8.871-24.339,15.287-35.496
	c-7.85,3.948-14.342,10.029-20.469,16.217c-5.502,5.456-9.236,12.421-15.088,17.542c2.469-8.048,8.154-14.495,13.152-21.078
	C167.567,58.674,191.404,44.592,216.688,36.895z"/>
<path fill="#CC7B36" d="M315.649,32.247c14.508,4.709,27.556,13.366,37.309,25.132c-9.19-4.496-18.945-7.787-29.063-9.342
	c-1.875-5.136-4.542-9.907-7.683-14.373L315.649,32.247z"/>
<path fill="#F0B02F" d="M316.212,33.664c3.141,4.466,5.808,9.236,7.683,14.373c10.118,1.555,19.873,4.846,29.063,9.342
	c3.825,4.161,7.239,8.901,12.361,11.599c3.825,2.621,5.593,7.179,7.392,11.263c-6.233-4.069-11.646-9.297-18.197-12.894
	c-19.691-12.086-42.98-18.106-66.07-17.1c-8.366-0.32-16.507,1.935-24.843,2.072c10.806-4.633,22.739-4.739,34.2-6.386
	c-8.916-3.429-18.366-4.923-27.693-6.646c15.773-2.179,31.702,0.077,47.34,2.332C317.051,38.968,316.67,36.316,316.212,33.664z"/>
<path fill="#FFFFFF" d="M324.428,39.09c7.65,2.88,15.3,6.782,20.772,13.03c-5.883-2.667-11.843-5.212-18.168-6.583
	C326.149,43.403,325.28,41.239,324.428,39.09z"/>
<path fill="#FFD32F" d="M245.235,48.341c4.039-0.396,8.108-0.595,12.163-0.366c-5.029,2.834-10.791,3.795-16.064,5.99
	c-22.571,8.764-42.995,24.217-55.614,45.098c-12.894,20.911-17.101,46.516-13.687,70.688c1.387,8.642,1.63,17.466,3.657,26.001
	c1.25,5.974,3.597,11.628,4.923,17.573c-4.923-6.615-8.672-14.495-10.288-22.557c0.823-7.087-1.722-13.884-2.347-20.88
	c-3.201-24.34,2.042-48.909,10.638-71.633c-8.763,6.736-12.528,17.313-18.273,26.321c2.637-15.209,12.238-28.088,22.069-39.535
	c16.688-17.313,38.895-28.774,62.183-34.276c0.123-0.488,0.381-1.449,0.518-1.936L245.235,48.341z"/>
<path fill="#004170" d="M236.73,83.091c14.006-8.215,29.508-14.479,45.829-15.683c30.544-2.927,62.017,9.083,82.926,31.518
	c31.138,32.555,37.219,86.401,13.199,124.687c-14.738,24.095-40.678,39.824-68.052,45.265c18.914-9.463,34.293-25.924,41.625-45.844
	c8.626-22.115,6.218-47.994-5.914-68.341c-11.278-19.326-31.092-33.347-53.023-37.691c-22.221-4.633-46.272,0.991-64.256,14.799
	c-17.268,13.077-28.759,33.454-31,55.004c-0.915,7.164-0.168,14.373,0.229,21.551c-6.112-17.101-9.983-35.511-7.255-53.694
	C195.244,125.827,211.689,98.484,236.73,83.091z"/>
<path fill="#1AC1F1" d="M251.834,79.737c18.425-8.428,39.597-10.729,59.425-6.583c25.225,5.212,48.191,20.773,62.062,42.507
	c21.246,32.219,20.864,77.561-2.454,108.576c1.204-5.273,3.505-10.181,5.547-15.149c9.45-24.736,9.023-53.877-4.099-77.226
	c-6.463-10.974-14.967-21.398-26.124-27.784c-4.023-2.378-7.665-5.365-11.871-7.407c19.233,13.609,31.747,35.069,36.579,57.931
	c-1.297,0.167-4.3,2.911-4.3-0.045c-2.988-11.629-8.946-22.237-16.324-31.625l-0.685,0.457
	c17.635,21.871,22.145,52.978,12.528,79.237c-1.144-4.801,0.046-9.693,0.153-14.524c0.869-18.564-5.046-37.066-15.607-52.262
	c-3.521-5.716-8.505-10.44-14.297-13.808c-6.309-3.734-11.796-8.626-17.191-13.534c5.808,1.006,11.278,3.216,16.795,5.197
	c-14.523-11.766-34.581-14.556-52.672-12.178c-6.98,0.579-13.505,4.084-20.591,3.673c22.068-10.913,48.681-10.715,71.113-0.945
	c-1.508-1.235-3.031-2.454-4.495-3.719c-5.776-6.02-13.716-8.886-20.743-13.061c11.416-1.631,22.312,2.484,33.303,4.77
	c-21.49-12.314-48.391-11.538-71.344-3.856c-6.341,1.753-11.949,6.142-18.701,6.204c19.54-12.391,43.514-19.113,66.603-15.149
	C294.234,72.239,272.12,73.854,251.834,79.737z"/>
<path fill="#007EB4" d="M246.027,86.276c9.083-3.947,18.716-7.423,28.746-7.392c-21.216,6.097-40.816,19.051-53.862,36.913
	c5.792-3.094,10.897-7.3,16.75-10.272c14.159-7.452,30.132-12.498,46.287-11.354c-17.42,2.698-34.658,10.257-46.927,23.104
	c4.771-1.311,9.403-3.032,14.037-4.77c-1.082-0.198-3.216-0.594-4.298-0.792c0.594-0.534,1.783-1.631,2.378-2.179l0.442,0.243
	c0.396,0.214,1.189,0.64,1.585,0.854c3.444,2.575,7.772-0.122,11.553-0.29c20.985-3.475,45.144-1.006,61.223,14.174
	c-10.364-5.09-20.835-10.394-32.417-12.071c-19.661-3.292-40.191,0.366-57.627,9.999c-3.216,1.387-6.417,2.774-9.587,4.252
	c2.454-3.459,4.771-7.026,6.844-10.73c-8.23,4.009-14.266,11.08-21.048,17.009c-0.838-2.134-1.677-4.268-2.514-6.386
	c-2.836,3.855-5.381,8.047-5.854,12.939c-0.442-0.944-1.326-2.849-1.768-3.81C207.102,113.465,224.995,95.801,246.027,86.276z"/>
<path fill="#0094CE" d="M266.542,88.379c22.953-7.682,49.854-8.458,71.344,3.856c-10.991-2.286-21.887-6.401-33.303-4.77
	c7.027,4.175,14.967,7.042,20.743,13.061c-6.355-1.6-12.162-4.831-18.548-6.324c-18-4.648-37.661-4.878-55.036,2.27
	c-5.425,1.982-10.21,5.365-15.744,7.057c2.896-3.979,7.209-6.477,11.37-8.916l0.473-0.03
	C254.593,94.521,260.201,90.132,266.542,88.379z"/>
<path fill="#0094CE" d="M258.708,105.19c7.086,0.411,13.61-3.095,20.591-3.673c18.091-2.378,38.148,0.412,52.672,12.178
	c-5.517-1.981-10.987-4.191-16.795-5.197c5.396,4.908,10.883,9.8,17.191,13.534c5.792,3.368,10.775,8.092,14.297,13.808
	c0.121,0.854,0.352,2.561,0.473,3.414c0.502,5.883,3.657,11.354,7.896,15.394l0.456,0.441c1.996,5.152,3.476,10.562,3.354,16.125
	c-6.189-13.549-12.467-27.342-21.841-39.063c-12.178-15.012-30.545-24.827-49.884-26.138c-12.179-1.189-24.309,1.219-35.954,4.618
	c-0.396-0.214-1.188-0.64-1.585-0.854c2.773-1.691,5.639-3.246,8.611-4.602L258.708,105.19z"/>
<path fill="#0C96C9" d="M235.999,103.529C235.252,104.261,235.252,104.261,235.999,103.529z"/>
<path fill="#0094CE" d="M346.19,104.078c11.157,6.386,19.661,16.81,26.124,27.784c13.122,23.349,13.549,52.49,4.099,77.226
	c-2.042,4.969-4.343,9.876-5.547,15.149c-7.012,12.178-18.701,21.49-30.88,28.287c3.156-5.136,7.24-9.647,10.183-14.92
	c3.933-6.508,6.097-13.884,9.738-20.545c8.749-16.841,11.768-36.562,8.414-55.232c2.21-2.424,5.776-4.085,6.89-7.239
	c-2.545-13.961-9.283-27.023-18.03-38.119C353.826,112.048,349.254,108.71,346.19,104.078z"/>
<path fill="#FFD32F" d="M131.842,136.617c1.859-7.62,2.987-15.76,7.757-22.237c-0.686,6.95-3.125,13.58-3.841,20.53
	c-3.307,23.668,0.686,47.933,9.876,69.91c4.587,1.402,9.739,0.533,14.144,2.164c12.254,24.141,32.051,44.519,56.437,56.468
	c8.245,3.673,15.378,9.342,23.547,13.198c9.602,4.8,19.919,8.002,30.421,10.197c-17.299,3.657-35.466,1.203-52.506-2.926
	l-0.106-0.382c-0.122-0.443-0.365-1.328-0.487-1.769c-10.075-4.74-20.408-9.1-29.567-15.5
	c-19.295-13.656-35.923-31.656-45.997-53.191C129.769,189.625,126.782,162.252,131.842,136.617z"/>
<path fill="#00609B" d="M210.104,132.974c6.782-5.929,12.818-13,21.048-17.009c-2.073,3.704-4.39,7.271-6.844,10.73
	c3.17-1.478,6.371-2.865,9.587-4.252c-5.015,4.877-11.232,8.337-15.942,13.549c-11.675,11.324-18.854,26.367-23.197,41.837
	c-1.616-6.951-1.128-14.19-0.213-21.216c1.158-7.087,2.119-14.403,5.426-20.896c0.442,0.961,1.326,2.866,1.768,3.81
	c-1.417,4.085-2.759,8.215-3.536,12.482c1.708-2.682,3.292-5.456,5.09-8.078c1.966-1.326,5.548-1.676,5.792-4.617
	c0-4.283-0.899-8.505-1.493-12.727C208.428,128.707,209.266,130.84,210.104,132.974z"/>
<path fill="#064B7A" d="M201.737,139.527c0.472-4.892,3.018-9.083,5.854-12.939c0.594,4.222,1.493,8.443,1.493,12.727
	c-0.244,2.941-3.826,3.291-5.792,4.617c1.128-1.661,2.302-3.276,3.476-4.907c-0.412-1.662-0.839-3.308-1.265-4.953
	C204.222,135.87,202.957,137.684,201.737,139.527z"/>
<path fill="#780103" d="M248.892,133.339c17.437-8.55,38.484-8.55,56.241-0.868c16.428,6.279,29.094,19.89,36.7,35.48
	c-9.785-12.573-25.285-20.376-41.181-20.986c-16.433-0.777-32.982,6.31-43.834,18.64c-14.982,16.566-18.259,42.476-7.713,62.183
	c8.795,17.482,27.479,29.064,46.943,29.887c8.443,0.655,16.733-1.372,24.735-3.81c-15.852,12.132-36.929,17.923-56.637,13.687
	c-24.384-4.999-44.898-24.051-52.946-47.43c-5.669-16.4-4.907-34.887,2.012-50.783C220.042,153.458,232.905,140.092,248.892,133.339
	z"/>
<path fill="#CB1C27" d="M271.738,131.161c9.922-1.921,20.195-0.747,29.613,2.82c-2.135,0.198-4.267,0.472-6.399,0.747
	c0.243,1.372,0.486,2.728,0.73,4.099c-6.568,0.489-13.123,1.387-19.538,2.973c3.811,0.595,7.621,1.265,11.414,1.905
	c-9.465,2.789-18.685,6.691-26.351,13.031c0.365-0.945,1.098-2.82,1.462-3.764l-1.311-0.609c-0.533-0.245-1.569-0.717-2.103-0.961
	c5.121-3.55,12.161-0.701,16.598-5.807c-10.486,0.061-19.921,4.969-29.035,9.542c9.129-10.257,22.663-15.53,35.817-18.366
	c-13.032-2.576-25.742,2.561-37.951,6.401C251.91,136.159,262.062,133.05,271.738,131.161z"/>
<path fill="#9B0E17" d="M301.352,133.98c8.841,2.53,17.832,7.468,23.151,15.18c-6.355-1.616-12.482-4.359-19.082-4.848
	c-5.928-0.67-11.948,0.382-17.862-0.609c-3.793-0.64-7.604-1.31-11.414-1.905c6.415-1.585,12.97-2.484,19.538-2.973
	c-0.244-1.371-0.487-2.728-0.73-4.099C297.085,134.453,299.217,134.178,301.352,133.98z"/>
<path fill="#FFFFFF" d="M201.737,139.527c1.22-1.844,2.485-3.657,3.765-5.456c0.426,1.646,0.854,3.292,1.265,4.953
	c-1.174,1.631-2.348,3.247-3.476,4.907c-1.798,2.622-3.383,5.396-5.09,8.078C198.978,147.743,200.32,143.612,201.737,139.527z"/>
<path fill="#FFFFFF" d="M299.873,136.678c3.993,0.959,7.941,2.118,11.676,3.855c-3.49-0.335-6.966-0.823-10.427-1.356
	C300.804,138.553,300.193,137.303,299.873,136.678z"/>
<path fill="#EB212E" d="M222.922,165.133c10.668-13.428,26.367-23.639,43.575-25.666c-8.431,4.115-17.345,8.031-23.502,15.393
	c-6.493,7.757-12.863,16.46-14.57,26.657c2.545-3.079,4.374-6.646,6.553-9.983c6.051-8.778,14.616-15.714,24.279-20.134
	c0.533,0.245,1.569,0.717,2.103,0.961c-12.574,9.266-22.998,22.876-23.943,38.971c-1.402,12.771,3.246,25.026,8.199,36.533
	c1.083,2.377,2.088,4.832,2.347,7.452c3.978,5.701,10.167,9.13,14.968,14.022c-16.111-5.792-27.709-19.828-33.821-35.435
	c0.945,6.172,5.03,11.172,6.843,16.994l-0.533,2.027c-8.886-10.287-14.662-23.974-14.19-37.706c0.335-3.582,0.244-7.194-0.137-10.76
	c-4.481,15.256-3.094,32.524,4.755,46.485c8.047,15.942,24.142,26.444,40.922,31.29c-0.654,0.335-1.966,1.007-2.623,1.341
	c-23.104-4.968-43.084-22.389-50.339-44.976c-9.953-28.242,1.951-62.823,27.952-77.988
	C234.902,148.276,226.366,155.058,222.922,165.133z"/>
<path fill="#1AC1F1" d="M347.137,139.253l-0.062-1.342c3.339,5.213,6.021,10.852,7.958,16.736
	C350.794,150.607,347.639,145.136,347.137,139.253z"/>
<path fill="#780103" d="M290.194,159.63c20.454-5.593,43.696,5.411,52.278,24.798c10.349,21.185,0.884,50.021-21.002,59.638
	c-19.675,10.15-46.014,3.094-57.854-15.638c-12.667-18.35-8.719-45.662,8.687-59.622
	C277.484,164.462,283.643,161.292,290.194,159.63z"/>
<path fill="#EB212E" d="M276.844,170.117c9.466-8.368,23.427-10.014,35.391-7.164C300.179,164.021,288.855,168.729,276.844,170.117z
	"/>
<path fill="#BB0407" d="M312.234,162.953c7.193,1.92,13.763,5.99,18.93,11.339c-9.831-2.957-21.733-2.896-29.354,4.938
	c-9.969,3.688-18.944,10.699-22.907,20.834c-1.89-4.069-3.23-8.367-5.197-12.391c-1.51-3.307-5.517-3.856-8.429-5.334
	c3.277-4.45,6.265-10.044,11.567-12.223C288.855,168.729,300.179,164.021,312.234,162.953z"/>
<path fill="#CB1C27" d="M240.038,194.395c0.198-11.598,4.725-24.08,14.098-31.32c-2.667,4.923-6.28,9.297-8.596,14.418
	C242.887,182.828,241.791,188.741,240.038,194.395z"/>
<path fill="#EB212E" d="M301.81,179.231c7.621-7.834,19.523-7.895,29.354-4.938c2.804,2.362,4.771,5.532,6.828,8.52
	c-2.501,0.61-5.015,1.219-7.515,1.814C322.386,178.453,311.595,177.204,301.81,179.231z"/>
<path fill="#FFFFFF" d="M301.81,179.231c9.785-2.027,20.576-0.778,28.668,5.396c4.588,3.383,8.277,7.803,11.097,12.725
	c2.164,4.009,1.812,8.642,1.446,13.016c-0.854-11.187-7.727-21.627-17.862-26.534c-9.221-4.299-20.025-4.054-29.248,0.092
	c-11.339,5.883-18.273,18.502-17.465,31.244c3.2-7.972,8.198-15.622,16.429-19.051c6.614-2.561,14.145-2.256,20.546,0.777
	c6.189,3.658,11.431,9.312,13.152,16.43c3.003,9.738-1.434,20.407-9.083,26.686c-2.501,1.341-5.105,3.643-8.094,3.155
	c-5.212-3.002-12.025-3.764-15.5-9.205c-5.837-7.56-3.748-18.701,3.14-24.874c4.771-3.444,10.836-4.511,16.537-3.094
	c4.771,1.951,8.382,5.655,11.308,9.785c-0.929-6.721-5.061-12.62-10.835-16.08c-6.707-3.52-14.646-3.795-21.688-1.082
	c-15.012,6.447-17.969,29.019-4.938,38.956c6.037,5.944,14.815,4.466,22.344,6.143l-3.215,1.021
	c-7.271,0.563-15.06-0.717-20.638-5.761c-10.516-9.449-14.539-25.803-9.007-38.91C282.865,189.93,291.841,182.918,301.81,179.231z"
	/>
<path fill="#EB212E" d="M295.91,183.925c9.223-4.146,20.027-4.391,29.248-0.092c-5,2.85-8.291,7.544-9.738,13.062
	c-6.401-3.034-13.932-3.338-20.546-0.777C295.241,192.048,295.591,187.995,295.91,183.925z"/>
<path fill="#BC090D" d="M337.992,182.812l0.274-0.061c1.691,4.679,4.45,9.434,3.308,14.6c-2.819-4.922-6.509-9.342-11.097-12.725
	C332.978,184.031,335.491,183.422,337.992,182.812z"/>
<path fill="#EB212E" d="M260.888,192.094c1.28-3.338,2.729-6.6,4.389-9.754c2.912,1.478,6.919,2.027,8.429,5.334
	c1.967,4.023,3.308,8.321,5.197,12.391c-5.532,13.107-1.509,29.461,9.007,38.91c5.578,5.044,13.366,6.324,20.638,5.761
	c-12.515,2.149-26.397-1.432-35.254-10.76c-6.156-11.354-2.911-24.4-5.014-36.533C267.958,193.573,263.889,192.902,260.888,192.094z
	"/>
<path fill="#CB1C27" d="M225.849,230.943c-7.849-13.96-9.236-31.229-4.755-46.485c0.381,3.566,0.472,7.178,0.137,10.76
	c-3.276,14.022,3.201,28.531,11.278,39.764c2.134-0.199,4.252-0.396,6.387-0.58c7.635,8.611,17.084,15.835,28.134,19.372
	c10.562,3.062,21.001,7.224,32.205,6.995c-10.853,5.044-23.519,4.832-35.087,2.804c0.657-0.334,1.969-1.006,2.623-1.341
	C249.99,257.387,233.896,246.885,225.849,230.943z"/>
<path fill="#BB0407" d="M278.445,215.169c-0.809-12.742,6.126-25.361,17.465-31.244c-0.319,4.069-0.669,8.123-1.036,12.192
	C286.644,199.547,281.646,207.197,278.445,215.169z"/>
<path fill="#BB0407" d="M315.42,196.895c1.447-5.518,4.738-10.212,9.738-13.062c10.136,4.907,17.009,15.348,17.862,26.534
	c-2.361,10.685-8.291,20.804-17.269,27.236c-1.768,1.479-4.084,1.92-6.263,2.408c7.649-6.279,12.086-16.948,9.083-26.686
	C326.851,206.207,321.609,200.553,315.42,196.895z"/>
<path fill="#BB0407" d="M260.888,192.094c3.001,0.808,7.07,1.479,7.392,5.349c2.103,12.132-1.143,25.178,5.014,36.533
	C261.236,224.131,257.139,206.848,260.888,192.094z"/>
<path fill="#EB212E" d="M294.356,198.617c7.042-2.713,14.981-2.438,21.688,1.082c-0.168,2.104-0.321,4.191-0.473,6.295
	c-5.701-1.417-11.766-0.35-16.537,3.094C297.39,205.644,295.851,202.138,294.356,198.617z"/>
<path fill="#BB0407" d="M289.418,237.573c-13.03-9.938-10.073-32.509,4.938-38.956c1.494,3.521,3.033,7.027,4.679,10.471
	c-6.888,6.173-8.977,17.314-3.14,24.874c3.475,5.441,10.288,6.203,15.5,9.205l1.356,0.792l-0.99-0.244
	C304.233,242.039,295.455,243.517,289.418,237.573z"/>
<path fill="#BB0407" d="M316.045,199.699c5.774,3.46,9.906,9.358,10.835,16.08c-2.926-4.13-6.537-7.833-11.308-9.785
	C315.724,203.89,315.877,201.803,316.045,199.699z"/>
<path fill="#CC7B36" d="M181.862,294.743c9.252,2.728,18.138,6.567,27.434,9.174c28.196,8.275,58.8,8.886,87.043,0.474
	c8.244-2.364,16.125-5.822,24.386-8.17c-9.345,11.309-20.852,21.916-24.448,36.715c-3.229,11.478,0.015,23.686,6.111,33.605
	c-3.947-0.304-7.88-0.654-11.826-0.943c-2.072-6.143-3.901-12.36-5.272-18.684c-0.139-11.112,3.123-21.857,7.88-31.779
	c-26.916,6.6-55.28,5.747-82.15-0.687c3.033,6.402,6.096,12.895,7.438,19.906c0.579,5.653,0.595,11.368-0.061,17.024
	c-1.341,4.847-3.216,9.525-4.999,14.233c-3.902,0.288-7.803,0.625-11.69,0.962c6.524-10.289,9.938-23.183,6.173-35.116
	C203.749,316.522,191.709,306.005,181.862,294.743z"/>
<path fill="#E08E2C" d="M211.019,314.448c26.87,6.434,55.234,7.286,82.15,0.687c-4.757,9.922-8.019,20.667-7.88,31.779
	c-3.521-7.547-10.563-12.773-18.32-15.395c-15.744-5.547-33.226-3.08-48.512,2.835C217.115,327.342,214.052,320.85,211.019,314.448z
	"/>
<path fill="#F0B02F" d="M218.457,334.354c15.287-5.915,32.768-8.382,48.512-2.835c7.757,2.621,14.799,7.848,18.32,15.395
	c1.371,6.323,3.2,12.541,5.272,18.684c-5.716-0.443-11.446-0.596-17.161-0.885c-1.828-0.38-3.643-0.838-5.442-1.278
	c-1.782-8.963-6.888-18.32-16.23-20.987c-11.827-3.826-24.157,1.508-33.332,8.932C219.051,345.722,219.036,340.007,218.457,334.354z
	"/>
<path fill="#FFDC2D" d="M218.396,351.378c9.175-7.424,21.505-12.758,33.332-8.932c9.343,2.667,14.448,12.024,16.23,20.987
	c1.8,0.44,3.614,0.898,5.442,1.278c-19.995-0.273-40.039-0.473-60.004,0.899C215.18,360.904,217.055,356.225,218.396,351.378z"/>
<path fill="#2995CF" d="M201.706,366.574c3.887-0.337,7.789-0.674,11.69-0.962c19.965-1.372,40.009-1.173,60.004-0.899
	c5.715,0.289,11.445,0.441,17.161,0.885c3.946,0.289,7.879,0.64,11.826,0.943c3.491,0.366,7.058,0.352,10.44,1.28
	c4.801,10.931,8.488,22.313,12.361,33.593c-1.875,1.324-3.766,2.638-5.655,3.977c-3.413-10.653-7.314-21.138-11.231-31.609
	c-34.947-3.688-70.277-3.992-105.271-0.67c-2.331,0.185-4.679,0.214-6.995-0.03c-2.225-0.885-4.419-1.812-6.614-2.729
	c0.29-0.685,0.883-2.071,1.188-2.756C194.3,367.244,198.003,366.892,201.706,366.574z"/>
<path fill="#298DC2" d="M189.423,370.351c2.195,0.917,4.389,1.845,6.614,2.729c-5.457,11.676-8.871,24.186-12.894,36.412
	c3.2-0.399,6.4-0.795,9.601-1.221c-1.494,1.221-2.987,2.468-4.465,3.703c5.883,0.762,11.872,0.747,17.664,2.134
	c1.112,4.48,0.762,9.13,0.716,13.702c-3.444-0.107-6.965-0.351-10.378,0.318l-0.031,0.641l0.441,0.458
	c-0.563,0.152-1.691,0.44-2.27,0.596l-0.504-0.381c-4.556-1.206-9.617,2.726-9.921,7.376c-0.534,5.516,2.118,10.562,3.978,15.56
	c-5.106-5.105-8.81-13.928-5-20.683c5.823-6.341,15.44-5.257,23.213-4.738c-0.442-4.129-0.854-8.261-1.235-12.375
	c-10.791-0.84-21.962,0.729-31.335,6.415c-2.805-0.731-5.609-1.417-8.443-2.057c3.201-0.259,6.386-0.626,9.54-1.206
	c-1.28-0.318-3.855-0.958-5.151-1.279c2.088-0.852,4.085-1.905,6.097-2.911c-10.425,0.624-20.225,4.482-30.238,7.135
	c-0.823-0.518-2.484-1.557-3.307-2.075c11.125-4.402,22.876-6.902,34.429-9.859C180.262,395.757,184.88,383.061,189.423,370.351z"/>
<path fill="#EB212E" d="M203.032,373.111c34.994-3.322,70.323-3.019,105.271,0.67c3.917,10.472,7.818,20.956,11.231,31.609
	c0.321,1.021,0.976,3.063,1.296,4.085c-2.255-0.274-4.496-0.563-6.736-0.838c-20.561-2.926-41.288-5.104-62.077-5.089
	c-19.843-0.015-39.626,1.965-59.272,4.724c-3.201,0.426-6.401,0.821-9.601,1.221c4.023-12.227,7.437-24.736,12.894-36.412
	C198.354,373.325,200.701,373.295,203.032,373.111z"/>
<path fill="#FFFFFF" d="M254.046,376.066c4.631-3.274,10.378-1.309,15.528-0.913c-0.121,2.241-0.229,4.479-0.305,6.736
	c-2.94-1.446-6.279-3.215-9.571-1.706c-4.373,1.462-6.568,7.347-3.611,11.095c1.768,2.789,5.181,3.232,8.153,3.766
	c-0.244-2.652-0.533-5.305-0.869-7.928c2.315,0.123,4.618,0.23,6.951,0.337c0,3.199,0.151,6.418-0.169,9.618
	c-5.243,5.257-15.18,3.81-19.538-2.027C245.906,389.313,247.628,379.787,254.046,376.066z"/>
<path fill="#FFFFFF" d="M231.426,374.576c2.606-0.063,5.228-0.17,7.834-0.293c-0.838,8.52-1.066,17.239,0.062,25.758
	c-2.637,0.03-5.289,0.107-7.926,0.215C232.524,391.765,232.539,383.061,231.426,374.576z"/>
<path fill="#FFFFFF" d="M285.227,375.182c2.179,0.155,4.376,0.307,6.555,0.474c3.566,8.749,7.056,17.527,10.547,26.32
	c-2.881-0.166-5.746-0.333-8.612-0.455c0.306-1.588,1.236-3.491-0.563-4.573c-3.413-0.625-6.89-0.595-10.334-0.762
	c0,1.144,0,3.414,0.016,4.543c-2.424-0.17-4.832-0.337-7.255-0.488C278.658,391.843,283.214,383.931,285.227,375.182z"/>
<path fill="#FFFFFF" d="M204.145,376.432c2.576-0.211,5.137-0.454,7.712-0.729c-1.25,6.736-0.564,13.595-0.656,20.405
	c4.085-0.196,8.2-0.503,12.133-1.721c-0.016,1.539-0.046,4.588-0.062,6.127c-6.386,0.595-12.802,0.913-19.172,1.646
	C205.166,393.641,205.105,384.952,204.145,376.432z"/>
<path fill="#EB212E" d="M288.338,383.154c1.309,2.897,2.482,5.853,3.473,8.886c-2.285-0.259-4.557-0.518-6.828-0.792
	C286.066,388.537,287.179,385.836,288.338,383.154z"/>
<path fill="#298FC5" d="M319.534,405.39c1.89-1.339,3.78-2.652,5.655-3.977c0.885,2.667,1.446,5.516,2.985,7.924
	c7.987,2.318,16.156,4.039,24.112,6.511l-0.899,1.036l-1.538,1.69c-7.118-1.769-14.128-4.236-21.49-4.739
	c3.733,2.59,8.215,3.581,12.559,4.646c-3.826,0.596-7.575,1.539-11.355,2.364c3.841,0.38,7.774,0.731,11.309,2.437
	c-2.834,0.123-5.685,0.138-8.52,0.123c2.501,1.205,4.999,2.408,7.515,3.566c-3.52,0.288-7.026,0.702-10.517,1.265
	c3.49,0.58,6.98,1.099,10.485,1.572c-0.151,1.539-0.303,3.077-0.456,4.616c-3.354,0.474-6.69,0.959-10.029,1.479
	c3.612,0.533,7.225,1.036,10.852,1.477c-3.581,0.429-7.146,0.898-10.713,1.343c3.825,0.578,7.665,1.354,11.277,2.819
	c-3.765,0.806-7.529,1.462-11.309,2.119c4.115,0.533,8.229,1.006,12.376,1.369c-5.916,7.302-10.64,15.533-17.146,22.344
	c1.875-3.123,3.565-6.355,5.044-9.663c-4.756,2.471-7.514,7.166-10.044,11.661c-0.624-0.305-1.873-0.915-2.514-1.221
	c2.819-4.174,5.594-8.365,8.55-12.435c-5.046,1.613-10.273,0.563-15.271-0.625c2.209-11.89,4.709-23.73,6.845-35.649l-2.593-0.214
	c-2.316,11.767-4.557,23.548-6.828,35.328c-0.594-0.123-1.783-0.382-2.377-0.504c2.164-12.481,4.754-24.889,6.98-37.355
	c3.611-0.41,7.148-1.265,10.685-2.071c-0.169-0.747-0.474-2.257-0.626-3.019c-2.956-0.396-5.913-0.792-8.856-1.173
	c0.107-0.458,0.308-1.343,0.413-1.799c2.24,0.274,4.481,0.563,6.736,0.838C320.51,408.454,319.855,406.412,319.534,405.39z"/>
<path fill="#2A98D1" d="M192.745,408.272c19.646-2.759,39.429-4.738,59.272-4.724c20.789-0.015,41.517,2.163,62.077,5.089
	c-0.105,0.456-0.306,1.341-0.413,1.799c2.943,0.381,5.9,0.777,8.856,1.173c0.152,0.762,0.457,2.271,0.626,3.019
	c-3.536,0.807-7.073,1.661-10.685,2.071c-6.218-0.669-12.393-1.782-18.564-2.804c1.053,2.363,2.774,4.709,2.21,7.454
	c-1.203,10.165-2.955,20.254-4.206,30.419c-0.427,4.024-1.539,8.002-3.917,11.341l-1.632-0.062
	c1.556-13.825,3.187-27.646,4.803-41.47c0.105-2.438,1.128-5.655-1.813-6.799c-2.073,16.218-3.842,32.479-5.578,48.741
	c-4.787-0.426-9.604-0.884-14.403-0.365c5.562,0.854,11.201,1.554,16.841,1.234c0.929-0.077,2.789-0.214,3.718-0.288
	c9.07,4.432,19.449,4.343,29.158,6.581c0.639,0.015,1.934,0.063,2.59,0.077c1.021-1.113,2.026-2.24,3.003-3.384
	c-0.077,0.61-0.244,1.845-0.336,2.471l1.845,0.792c2.271,1.021,4.51,2.071,6.752,3.141c-2.149,1.021-4.283,2.057-6.417,3.122
	c-23.821-6.414-48.512-8.656-73.11-9.13c-26.581,0.215-53.299,2.623-79.025,9.589c-1.691-0.929-3.399-1.86-5.09-2.774
	c4.298-1.052,8.535-2.331,12.757-3.645c-1.036-0.41-3.125-1.246-4.161-1.66c-1.051-1.51-2.104-3-3.14-4.495
	c3.079-0.107,6.172-0.244,9.267-0.151c9.235,1.509,18.487-0.17,27.616-1.54c-1.295-9.802-2.637-19.586-3.581-29.416
	c-5.761,0.519-11.477,1.343-17.177,2.257c3.338,3.64,4.679,8.456,5.288,13.259c-0.259,0.518-0.777,1.571-1.036,2.09
	c-0.93,0.151-2.805,0.439-3.75,0.592c-3.917-3.292-4.74-8.96-4.754-13.806c-0.046-4.437,4.161-6.922,7.788-8.246
	c0.579-0.155,1.707-0.443,2.27-0.596c4.923-0.596,9.953-1.083,14.814,0.167c-1.113-4.51,0.442-10.605-3.932-13.58
	c0.198,4.039,0.64,8.064,1.143,12.089l-2.058-0.093c0.046-4.572,0.396-9.222-0.716-13.702c-5.792-1.387-11.781-1.372-17.664-2.134
	C189.757,410.74,191.251,409.493,192.745,408.272z"/>
<path fill="#FFFFFF" d="M212.558,413.118c6.218-0.259,12.406-0.868,18.594-1.479c0.534,11.4,0.975,22.86,2.164,34.188
	c0.595,0.654,1.768,1.965,2.362,2.605c2.179,0.716,4.465,1.279,6.767,1.035c2.272-2.179,3.993-5.076,3.582-8.351
	c-0.35-7.087-0.593-14.175-0.593-21.263c0.273-3.122-1.234-5.867-2.653-8.52c5.991,0.016,11.978,0,17.969,0.093
	c-0.549,11.855,0.091,23.835-1.296,35.632c-3.293,14.493-23.364,19.86-34.078,10.028c-7.667-5.975-6.736-16.413-7.743-25.055
	C216.704,425.584,217.892,417.919,212.558,413.118z"/>
<path fill="#FFFFFF" d="M268.461,411.639c6.067,0.487,12.135,1.16,18.23,1.435c-1.402,16.413-3.674,32.72-5.168,49.122
	c-5.288-0.413-10.591-0.78-15.896-0.977c5.076-7.18,3.094-16.432,4.07-24.645C269.619,428.285,273.219,419.185,268.461,411.639z"/>
<path fill="#8098A7" d="M145.422,420.679c10.013-2.652,19.813-6.511,30.238-7.135c-2.012,1.006-4.008,2.06-6.097,2.911
	c-7.453,1.265-14.632,3.643-21.779,6.051c-16.11,4.983-31.96,11.324-46.394,20.15c-0.092-0.551-0.275-1.617-0.366-2.164
	C115.062,432.335,129.861,425.326,145.422,420.679z"/>
<path fill="#EB212E" d="M233.941,414.446c0.549-0.185,1.661-0.551,2.209-0.718c1.052,11.627,0.549,23.425,2.317,34.977
	c0.99,0.185,2.987,0.566,3.978,0.763c-2.301,0.244-4.587-0.319-6.767-1.035C234.855,437.123,233.956,425.77,233.941,414.446z"/>
<path fill="#EB212E" d="M263.371,414.369c0.625-0.244,1.861-0.747,2.469-0.992c-0.273,11.553-0.486,23.136-1.265,34.674
	c-1.829,12.589-16.582,19.446-28.013,15.226c10.562,1.631,22.725-3.962,25.24-15.026
	C263.158,437.031,262.473,425.647,263.371,414.369z"/>
<path fill="#FFFFFF" d="M293.914,413.895c6.172,1.021,12.347,2.135,18.564,2.804c-2.227,12.467-4.816,24.874-6.98,37.355
	c0.594,0.122,1.783,0.381,2.377,0.504c0.641,0.137,1.937,0.398,2.576,0.535c4.998,1.188,10.226,2.238,15.271,0.625
	c-2.956,4.069-5.73,8.261-8.55,12.435c-9.604-2.239-19.326-4.206-29.172-5.044c2.378-3.339,3.49-7.316,3.917-11.341
	c1.251-10.165,3.003-20.254,4.206-30.419C296.688,418.604,294.967,416.258,293.914,413.895z"/>
<path fill="#809AAA" d="M328.359,413.835c7.362,0.503,14.372,2.971,21.49,4.739c14.707,4.664,29.124,10.332,42.767,17.59
	c1.446,0.729,2.789,1.72,3.763,3.062c-3.733-0.64-6.996-2.667-10.332-4.346c-7.133-3.688-14.631-6.597-22.192-9.297
	c-7.527-2.727-15.134-5.257-22.937-7.103C336.574,417.417,332.093,416.425,328.359,413.835z"/>
<path fill="#FFFFFF" d="M173.618,420.998c9.373-5.686,20.545-7.255,31.335-6.415c0.381,4.114,0.792,8.246,1.235,12.375
	c-7.773-0.519-17.39-1.603-23.213,4.738c-3.811,6.755-0.106,15.577,5,20.683c2.729,0.762,5.609,0.732,8.397,0.411
	c0.016-1.218-0.046-2.424-0.198-3.596c-0.609-4.803-1.95-9.619-5.288-13.259c5.7-0.914,11.416-1.738,17.177-2.257
	c0.944,9.83,2.286,19.614,3.581,29.416c-9.129,1.37-18.381,3.049-27.616,1.54c-11.218-3.629-18.183-14.983-18.335-26.476
	C164.96,431.47,168.467,425.067,173.618,420.998z"/>
<path fill="#EB212E" d="M289.358,414.779c2.941,1.144,1.919,4.361,1.813,6.799c-1.616,13.824-3.247,27.645-4.803,41.47l-0.151,1.342
	c-5.64,0.319-11.279-0.38-16.841-1.234c4.8-0.519,9.616-0.061,14.403,0.365C285.517,447.258,287.285,430.997,289.358,414.779z"/>
<path fill="#287DAA" d="M147.784,422.506c7.147-2.408,14.326-4.786,21.779-6.051c1.295,0.321,3.871,0.961,5.151,1.279
	c-3.154,0.58-6.339,0.947-9.54,1.206c2.834,0.64,5.639,1.325,8.443,2.057c-5.151,4.069-8.657,10.473-7.926,17.161
	c0.153,11.492,7.118,22.847,18.335,26.476c-3.094-0.093-6.188,0.044-9.267,0.151c-8.626-12.666-18.335-24.57-27.602-36.73
	c1.784,8.412,9.251,14.021,14.373,20.543c0.122,0.762,0.366,2.271,0.487,3.019c-5.775-6.934-11.385-14.006-16.917-21.123
	c0.503-2.12,1.021-4.236,1.539-6.341c2.606-0.152,5.212-0.304,7.819-0.458C152.234,423.269,150.024,422.843,147.784,422.506z"/>
<path fill="#EB212E" d="M207.574,415.815c4.375,2.975,2.819,9.07,3.932,13.58c-4.862-1.25-9.891-0.763-14.814-0.167l-0.441-0.458
	l0.031-0.641c3.414-0.669,6.934-0.426,10.378-0.318l2.058,0.093C208.214,423.879,207.772,419.854,207.574,415.815z"/>
<path fill="#286589" d="M351.388,416.884l0.747-0.763c17.71,5.472,35.131,12.511,50.874,22.373c0.046,0.854,0.139,2.545,0.184,3.399
	c-1.31-0.428-2.623-0.84-3.933-1.235c-0.334,0.274-1.006,0.808-1.341,1.081c-3.795-0.211-7.589-0.519-11.385-0.548
	c4.572,2.515,9.771,3.37,14.936,3.215c-0.334,0.673-1.006,2.013-1.341,2.685c-8.992-0.276-17.572-3.795-26.627-3.34
	c0.29-3.17,0.899-6.292,1.465-9.418c-5.122,1.494-3.644,7.392-3.933,11.431c0.488,14.023-1.343,28.044-0.474,42.05
	c0.504-0.67,1.51-2.013,2.013-2.682c0.488,0.473,1.495,1.431,1.981,1.905c2.455-0.382,4.907-0.764,7.361-1.174
	c-2.957-0.962-6.006-1.753-9.13-1.601l0.031-0.715c3.262-0.536,6.537-1.068,9.755-1.831c-3.11-1.354-7.409-2.224-9.786,0.933
	l-0.137-3.37c4.45-0.015,9.357-0.671,13.061,2.378c-0.943,2.257-1.843,4.542-2.529,6.903c-4.114-0.107-8.245,0.122-12.331-0.396
	c-4.905-1.479-9.355-4.1-14.005-6.203c-0.563-0.597-1.723-1.77-2.287-2.361c4.788,1.843,9.587,3.688,14.298,5.745
	c-1.313-10.105,0.105-20.286-0.062-30.423c0.274-7.558-0.899-15.33,1.555-22.647c-4.572-1.416-9.083-3.033-13.641-4.494
	c2.394-0.673,4.771-1.435,7.147-2.197c7.562,2.7,15.06,5.608,22.192,9.297c3.336,1.679,6.599,3.706,10.332,4.346
	c-0.974-1.343-2.316-2.333-3.763-3.062c-13.643-7.258-28.06-12.926-42.767-17.59L351.388,416.884z"/>
<path fill="#237CA8" d="M340.918,418.482c7.803,1.846,15.409,4.376,22.937,7.103c-2.377,0.763-4.754,1.524-7.147,2.197
	c-0.625-0.17-1.875-0.535-2.5-0.703c-2.377,7.059-8.291,11.935-12.374,17.953c-4.147-0.363-8.261-0.836-12.376-1.369
	c3.779-0.657,7.544-1.313,11.309-2.119c-3.612-1.465-7.452-2.241-11.277-2.819c3.566-0.444,7.132-0.914,10.713-1.343
	c-3.627-0.44-7.239-0.943-10.852-1.477c3.339-0.521,6.675-1.006,10.029-1.479c0.153-1.539,0.305-3.077,0.456-4.616
	c-3.505-0.474-6.995-0.992-10.485-1.572c3.49-0.562,6.997-0.977,10.517-1.265c-2.516-1.158-5.014-2.361-7.515-3.566
	c2.835,0.015,5.686,0,8.52-0.123c-3.534-1.705-7.468-2.057-11.309-2.437C333.343,420.021,337.092,419.078,340.918,418.482z"/>
<path fill="#004170" d="M100.613,437.641c12.772-8.335,27.235-13.792,41.501-19.037c0.823,0.519,2.484,1.558,3.307,2.075
	c-15.561,4.646-30.36,11.656-44.397,19.813L100.613,437.641z"/>
<path fill="#EB212E" d="M314.703,419.23l2.593,0.214c-2.136,11.919-4.636,23.76-6.845,35.649c-0.64-0.137-1.936-0.398-2.576-0.535
	C310.146,442.778,312.387,430.997,314.703,419.23z"/>
<path fill="#245877" d="M101.391,442.657c14.433-8.826,30.284-15.167,46.394-20.15c2.24,0.337,4.45,0.763,6.675,1.188
	c-2.606,0.154-5.212,0.306-7.819,0.458c-0.518,2.104-1.036,4.221-1.539,6.341c-0.183-0.992-0.564-2.956-0.762-3.933
	c-5.609,2.224-11.339,4.207-17.055,6.156c3.627,8.171,1.113,17.423,2.347,26.05c-6.432-1.754-12.695,1.218-18.99,2.116
	c4.694-4.86,11.964-3.811,18.061-4.403l-0.045-1.738c-6.798-0.062-13.458,1.34-19.83,3.659c-0.777-1.816-1.539-3.629-2.316-5.427
	c2.82-0.503,5.624-0.992,8.444-1.479c-1.555,1.19-3.125,2.363-4.694,3.551c5.944-1.035,11.979-1.568,17.999-1.89
	c0-1.995,0-3.992,0-5.99c-7.802-0.426-15.072,2.745-22.678,3.841c-0.32-0.822-0.93-2.497-1.25-3.322
	c7.772-2.757,15.881-4.602,24.172-4.176c-6.433-0.866-12.924-0.456-19.051,1.693c-2.53,1.202-4.908-0.2-6.874-1.739L101.391,442.657
	z"/>
<path fill="#FFFFFF" d="M127.285,432.717c5.715-1.949,11.445-3.933,17.055-6.156c0.198,0.977,0.579,2.94,0.762,3.933
	c5.532,7.117,11.141,14.189,16.917,21.123c0.321,0.41,0.976,1.206,1.296,1.616c2.088,3.475,4.054,7.117,7.194,9.799
	c0.335,0.382,0.991,1.129,1.326,1.495l0.259,0.336l0.335,0.318c1.356,1.479,2.713,2.972,3.993,4.543
	c-0.762,0.411-2.286,1.203-3.048,1.616c-0.442-0.048-1.341-0.122-1.799-0.169c-4.099,0.229-8.016,1.509-11.827,2.91
	c-0.472-2.012-0.929-4.007-1.479-5.989l-1.005-0.991c-0.351-0.333-1.067-1.005-1.433-1.339c-4.466,1.157-8.81,2.757-13.168,4.235
	c0.564,3.079,1.478,6.067,2.606,8.979c-4.832,2.057-9.663,4.128-14.449,6.308l0.396-3.078c0.488-6.141-0.594-12.252-1.173-18.349
	c-0.106-1.28-0.305-3.828-0.412-5.09C128.398,450.14,130.913,440.888,127.285,432.717z"/>
<path fill="#FFFFFF" d="M354.207,427.079c0.625,0.168,1.875,0.533,2.5,0.703c4.558,1.461,9.068,3.078,13.641,4.494
	c-2.454,7.317-1.28,15.09-1.555,22.647c0.168,10.137-1.251,20.317,0.062,30.423c-4.711-2.058-9.51-3.902-14.298-5.745
	c-0.303-0.215-0.884-0.641-1.172-0.854c0.853-2.149,1.675-4.298,2.483-6.447l0.335-0.93c-2.987-2.074-6.354-3.551-9.829-4.558
	c-1.465-0.457-2.927-0.883-4.391-1.309c-1.432,2.818-2.452,5.804-3.078,8.899l-2.12-0.58c-3.519-1.098-7.07-2.057-10.591-3.185
	l-1.845-0.792c0.092-0.626,0.259-1.86,0.336-2.471c6.507-6.811,11.23-15.042,17.146-22.344
	C345.916,439.013,351.83,434.137,354.207,427.079z"/>
<path fill="#EB212E" d="M147.159,428.055c9.267,12.16,18.976,24.064,27.602,36.73c1.036,1.495,2.088,2.985,3.14,4.495
	c1.036,0.414,3.125,1.25,4.161,1.66c-4.222,1.313-8.459,2.593-12.757,3.645c-2.072,0.474-4.176,0.854-6.279,1.235
	c2.835-1.572,5.731-3.049,8.55-4.649c0.458,0.047,1.357,0.121,1.799,0.169c0.762-0.413,2.287-1.205,3.048-1.616
	c-1.28-1.571-2.637-3.063-3.993-4.543l-0.305-0.366l-0.29-0.288c-0.335-0.366-0.991-1.113-1.326-1.495
	c-1.235-4.006-3.902-7.269-7.194-9.799c-0.32-0.41-0.975-1.206-1.296-1.616c-0.121-0.748-0.365-2.257-0.487-3.019
	C156.41,442.076,148.942,436.467,147.159,428.055z"/>
<path fill="#EB212E" d="M183.997,436.819c0.304-4.65,5.365-8.582,9.921-7.376l0.504,0.381c-3.627,1.324-7.834,3.81-7.788,8.246
	c0.015,4.846,0.838,10.514,4.754,13.806c0.945-0.152,2.82-0.44,3.75-0.592c0.259-0.519,0.777-1.572,1.036-2.09
	c0.152,1.172,0.214,2.378,0.198,3.596c-2.789,0.321-5.669,0.351-8.397-0.411C186.115,447.38,183.463,442.334,183.997,436.819z"/>
<path fill="#EB212E" d="M210.516,436.316c0.594-0.199,1.798-0.596,2.392-0.792c1.266,9.906,2.333,19.828,3.613,29.734
	c-9.556,1.248-19.341,3.811-28.867,0.915c8.809,1.006,17.542-0.626,26.214-1.905C212.802,454.938,211.674,445.627,210.516,436.316z"
	/>
<path fill="#EB212E" d="M371.034,445.764c0.289-4.039-1.189-9.937,3.933-11.431c-0.565,3.126-1.175,6.248-1.465,9.418
	c-0.06,3.186-0.015,6.371-0.029,9.574l-0.015,1.295l-0.016,1.339c-0.046,1.953-0.092,3.933-0.153,5.9
	c-0.137,5.807-0.7,11.597-0.64,17.42l0.137,3.37l0.031,0.898l-0.031,0.715l-0.213,0.869c-0.503,0.669-1.509,2.012-2.013,2.682
	C369.691,473.808,371.522,459.788,371.034,445.764z"/>
<path fill="#13425C" d="M386.534,441.192c3.796,0.029,7.59,0.337,11.385,0.548c1.28,0.107,3.825,0.336,5.107,0.443l-1.557,2.224
	C396.305,444.562,391.106,443.707,386.534,441.192z"/>
<path fill="#05284B" d="M109.453,445.202c6.127-2.149,12.619-2.56,19.051-1.693c-8.291-0.426-16.4,1.419-24.172,4.176
	c-0.442-1.05-1.311-3.17-1.753-4.222C104.545,445.001,106.923,446.404,109.453,445.202z"/>
<path fill="#245D7D" d="M373.502,443.751c9.055-0.455,17.635,3.063,26.627,3.34c-1.113,3.245-2.423,6.416-3.629,9.63
	c-7.649-1.324-15.27-2.848-23.027-3.396C373.487,450.123,373.442,446.937,373.502,443.751z"/>
<path fill="#235D7E" d="M105.582,451.006c7.605-1.096,14.875-4.267,22.678-3.841c0,1.998,0,3.995,0,5.99
	c-6.02,0.321-12.055,0.854-17.999,1.89c1.57-1.188,3.139-2.36,4.694-3.551c-2.82,0.487-5.624,0.977-8.444,1.479
	C106.283,452.486,105.81,451.509,105.582,451.006z"/>
<path fill="#29678A" d="M142.967,448.538c0.9,1.325,1.479,2.76,1.738,4.329c0.091,0.685,0.274,2.071,0.366,2.774
	c0.701,0.366,2.118,1.098,2.82,1.479c-1.57,0.929-3.429,1.157-5.152,1.676C142.754,455.367,142.785,451.953,142.967,448.538z"/>
<path fill="#237CA8" d="M350.382,453.31c2.227-0.824,3.856-2.578,5.441-4.268c0,3.247,0.061,6.506,0.122,9.769
	c-0.214,0.03-0.641,0.093-0.854,0.138l0.107-0.915c0.214-1.723,0.411-3.459,0.61-5.183c-0.823,1.1-2.469,3.308-3.292,4.406
	c-0.411-0.536-1.236-1.586-1.646-2.119C350.748,454.679,350.504,453.766,350.382,453.31z"/>
<path fill="#EB212E" d="M144.706,452.867c2.393-0.352,3.657,0.899,3.779,3.718l-0.594,0.536c-0.702-0.382-2.119-1.113-2.82-1.479
	C144.98,454.938,144.797,453.551,144.706,452.867z"/>
<path fill="#3888B5" d="M163.314,453.233c3.292,2.53,5.959,5.793,7.194,9.799C167.369,460.35,165.402,456.708,163.314,453.233z"/>
<path fill="#EB212E" d="M352.517,457.257c0.823-1.099,2.469-3.307,3.292-4.406c-0.199,1.724-0.396,3.46-0.61,5.183
	c-1.31,1.539-8.108-1.22-4.328-2.896C351.28,455.671,352.105,456.721,352.517,457.257z"/>
<path fill="#1F5572" d="M373.473,453.326c7.758,0.548,15.378,2.071,23.027,3.396c-0.259,0.474-0.791,1.436-1.05,1.905
	c-7.362-1.173-14.479-3.747-21.992-4.006L373.473,453.326z"/>
<path fill="#2C6588" d="M108.828,458.401c6.371-2.319,13.032-3.722,19.83-3.659l0.045,1.738c-6.097,0.593-13.366-0.457-18.061,4.403
	c6.295-0.898,12.559-3.87,18.99-2.116c0.107,1.262,0.305,3.81,0.412,5.09c0,2.59-0.091,5.197-0.198,7.802
	c-5.045-0.06-10.089,0.215-15.104,0.929C112.928,467.79,110.764,463.139,108.828,458.401z"/>
<path fill="#3C779A" d="M373.458,454.621c7.514,0.259,14.63,2.833,21.992,4.006c-0.548,1.298-1.128,2.578-1.723,3.873
	c-0.046-0.625-0.153-1.876-0.213-2.501c-1.875-0.577-3.78-1.128-5.67-1.631c-4.695-1.34-9.54-2.086-14.402-2.408L373.458,454.621z"
	/>
<path fill="#33749A" d="M373.442,455.959c4.862,0.322,9.707,1.068,14.402,2.408c-0.626,1.694-1.251,3.385-1.874,5.09
	c-4.023-1.644-8.399-1.749-12.682-1.598C373.351,459.892,373.396,457.913,373.442,455.959z"/>
<path fill="#EB212E" d="M319.687,469.374c2.53-4.495,5.288-9.19,10.044-11.661c-1.479,3.308-3.169,6.54-5.044,9.663
	c-0.977,1.144-1.982,2.271-3.003,3.384c-0.656-0.014-1.951-0.062-2.59-0.077L319.687,469.374z"/>
<path fill="#245877" d="M387.845,458.368c1.89,0.503,3.795,1.054,5.67,1.631c0.06,0.625,0.167,1.876,0.213,2.501
	c-0.32,0.869-0.975,2.622-1.311,3.507c-2.149-0.869-4.282-1.738-6.446-2.549C386.594,461.752,387.219,460.062,387.845,458.368z"/>
<path fill="#8E90AE" d="M286.369,463.047l1.632,0.062c9.846,0.838,19.568,2.805,29.172,5.044c0.641,0.306,1.89,0.916,2.514,1.221
	l-0.593,1.309c-9.709-2.238-20.088-2.149-29.158-6.581c-0.929,0.074-2.789,0.211-3.718,0.288L286.369,463.047z"/>
<path fill="#29678A" d="M373.289,461.86c4.282-0.151,8.658-0.046,12.682,1.598c2.164,0.811,4.297,1.68,6.446,2.549
	c-2.287,5.18-4.437,10.438-6.707,15.651c-3.703-3.049-8.61-2.393-13.061-2.378C372.589,473.457,373.152,467.667,373.289,461.86z"/>
<path fill="#5487A6" d="M130.043,463.857c0.58,6.097,1.662,12.208,1.173,18.349c-4.1-0.229-8.23-0.396-12.344-0.458l-0.625-0.016
	c-0.838-2.423-1.661-4.831-2.362-7.283c4.633-0.382,9.251-0.899,13.899-1.144l0.061-1.646
	C129.952,469.054,130.043,466.447,130.043,463.857z"/>
<path fill="#558FB3" d="M171.834,464.527l0.29,0.288l0.305,0.366l-0.335-0.318L171.834,464.527z"/>
<path fill="#347297" d="M142.663,469.998c4.358-1.479,8.703-3.078,13.168-4.235c0.366,0.334,1.082,1.006,1.433,1.339
	c-4.085,1.113-8.078,2.575-12.101,3.917c0.64,3.142,1.462,6.234,2.392,9.298c-4.45,1.631-9.403,2.851-12.619,6.629
	c5.06-1.691,10.013-3.688,14.768-6.079c1.127,0.929,2.24,1.858,3.368,2.805c-10.029,3.503-19.874,7.742-29.019,13.166
	c-0.442-1.843-0.945-3.674-1.509-5.472c2.286,1.069,4.908,0.581,7.133-0.396c-2.088-1.539-4.969-1.768-7.209-0.411
	c-1.326-2.882-2.5-5.838-3.596-8.811c4.114,0.062,8.245,0.229,12.344,0.458l-0.396,3.078c4.786-2.18,9.617-4.251,14.449-6.308
	C144.141,476.065,143.228,473.077,142.663,469.998z"/>
<path fill="#237CA8" d="M341.984,465.503c1.464,0.426,2.926,0.852,4.391,1.309c-3.963,1.007-4.376,5.41-5.731,8.598
	c-0.96-0.399-2.896-1.191-3.857-1.587l2.12,0.58C339.532,471.307,340.553,468.322,341.984,465.503z"/>
<path fill="#EB212E" d="M145.163,471.018c4.023-1.342,8.016-2.804,12.101-3.917l1.005,0.991c-3.49,1.343-7.026,2.604-10.562,3.855
	c0.701,2.881,1.585,5.729,2.56,8.553c-0.137,0.088-0.427,0.272-0.563,0.365c-4.755,2.392-9.708,4.388-14.768,6.079
	c3.215-3.778,8.169-4.998,12.619-6.629C146.625,477.252,145.803,474.16,145.163,471.018z"/>
<path fill="#EB212E" d="M340.644,475.41c1.355-3.188,1.769-7.591,5.731-8.598c3.475,1.007,6.842,2.483,9.829,4.558
	c-0.625-0.214-1.875-0.654-2.5-0.883c-2.347-0.962-4.632-2.013-6.934-3.049c-1.28,3.019-2.499,6.082-3.582,9.188
	c-3.368-1.08-6.736-2.238-10.241-2.848c-2.242-1.069-4.48-2.12-6.752-3.141c3.521,1.128,7.072,2.087,10.591,3.185
	C337.748,474.218,339.684,475.01,340.644,475.41z"/>
<path fill="#05284B" d="M388.027,467.408C388.698,468.23,388.698,468.23,388.027,467.408z"/>
<path fill="#3888B5" d="M147.708,471.948c3.536-1.251,7.071-2.513,10.562-3.855c0.549,1.982,1.006,3.978,1.479,5.989
	c3.811-1.401,7.728-2.682,11.827-2.91c-2.819,1.601-5.715,3.077-8.55,4.649c2.103-0.382,4.207-0.762,6.279-1.235
	c1.691,0.914,3.399,1.846,5.09,2.774c-7.178,1.859-14.22,4.161-21.322,6.311c-1.128-0.946-2.241-1.876-3.368-2.805
	c0.137-0.093,0.426-0.277,0.563-0.365C149.293,477.677,148.409,474.829,147.708,471.948z"/>
<path fill="#81A4B9" d="M174.395,477.36c25.727-6.966,52.445-9.374,79.025-9.589c24.599,0.474,49.289,2.716,73.11,9.13
	c7.148,1.708,14.037,4.239,21.077,6.311c11.021,3.611,21.599,8.534,31.61,14.343l-0.595,1.143c-2.864-0.61-5.715-1.206-8.58-1.783
	c0.062-0.565,0.184-1.69,0.245-2.257c-1.754,0.274-3.521,0.533-5.274,0.777c-0.457-0.959-0.915-1.92-1.372-2.864
	c-9.205-2.148-17.542-6.813-26.641-9.266c-8.17-5.198-18.061-5.748-27.221-8.079c-10.943-1.721-22.053-4.998-33.164-2.912
	c-0.213-0.028-0.642-0.091-0.853-0.121c-7.547-3.244-15.866-1.646-23.807-1.828c-25.3-0.792-50.616,2.605-75.199,8.505
	c-4.009,0.821-7.759,2.545-11.355,4.436c-3.794,1.172-7.635,2.193-11.506,3.093c-0.046,0.503-0.122,1.51-0.168,2.013
	c-4.206,1.172-8.504,1.949-12.863,2.208c0.534,0.488,1.631,1.465,2.18,1.952l-3.429,0.489c-2.926,0.318-5.746,1.157-8.536,2.023
	c-0.091,0.581-0.259,1.709-0.35,2.271c-1.814-0.015-3.643-0.074-5.457-0.166c-0.305-0.093-0.915-0.259-1.219-0.352
	c9.145-5.424,18.99-9.663,29.019-13.166C160.175,481.521,167.216,479.219,174.395,477.36z"/>
<path fill="#3386B4" d="M346.771,467.438c2.302,1.036,4.587,2.087,6.934,3.049c-0.883,0.577-2.651,1.72-3.519,2.285
	c1.949,0.44,3.84,0.274,5.684-0.473c-0.809,2.149-1.631,4.298-2.483,6.447c0.288,0.214,0.869,0.64,1.172,0.854
	c0.564,0.592,1.724,1.765,2.287,2.361c-3.079,0.38-6.142,0.913-9.237,1.249c-7.04-2.071-13.929-4.603-21.077-6.311
	c2.134-1.065,4.268-2.102,6.417-3.122c3.505,0.609,6.873,1.768,10.241,2.848C344.271,473.52,345.49,470.457,346.771,467.438z"/>
<path fill="#007EB4" d="M173.374,471.34c0.762-0.413,2.287-1.205,3.048-1.616C175.66,470.135,174.136,470.927,173.374,471.34z"/>
<path fill="#2A98D1" d="M176.758,478.869c24.583-5.899,49.898-9.297,75.199-8.505c7.941,0.182,16.26-1.416,23.807,1.828
	c-11.523,0.274-23.046-0.792-34.552-0.074c-19.982,0.41-39.795,3.552-59.272,7.816c-5.457,1.372-10.944,2.683-16.537,3.37
	C168.999,481.414,172.749,479.69,176.758,478.869z"/>
<path fill="#245875" d="M114.742,472.587c5.014-0.714,10.059-0.988,15.104-0.929l-0.061,1.646
	c-4.648,0.244-9.267,0.762-13.899,1.144C115.595,473.99,115.031,473.061,114.742,472.587z"/>
<path fill="#05284B" d="M181.939,479.934c19.477-4.265,39.291-7.406,59.272-7.816c11.506-0.718,23.028,0.349,34.552,0.074
	c0.211,0.03,0.64,0.093,0.853,0.121c13.214,2.395,26.672,3.445,39.747,6.615c6.844,1.586,13.611,3.629,20.638,4.376
	c9.099,2.452,17.436,7.117,26.641,9.266c0.457,0.944,0.915,1.905,1.372,2.864c-2.667,0.107-5.351-0.244-7.925-0.885
	c-25.453-6.873-51.805-9.706-78.05-11.415c-44.442-1.676-89.434,0.244-132.81,10.746c-2.255,0.685-4.465-0.214-6.614-0.821
	l3.429-0.489c-0.548-0.487-1.646-1.464-2.18-1.952c4.359-0.259,8.657-1.036,12.863-2.208c0.046-0.503,0.122-1.51,0.168-2.013
	c3.871-0.899,7.712-1.921,11.506-3.093C170.996,482.617,176.483,481.306,181.939,479.934z"/>
<path fill="#3090C4" d="M276.616,472.313c11.111-2.086,22.221,1.191,33.164,2.912c9.16,2.331,19.051,2.881,27.221,8.079
	c-7.026-0.747-13.794-2.79-20.638-4.376C303.288,475.758,289.83,474.708,276.616,472.313z"/>
<path fill="#186E97" d="M350.186,472.772c0.867-0.565,2.636-1.708,3.519-2.285c0.625,0.229,1.875,0.669,2.5,0.883l-0.335,0.93
	C354.025,473.046,352.135,473.212,350.186,472.772z"/>
<path fill="#1E5675" d="M383.516,473.228C388.149,471.048,383.594,478.288,383.516,473.228z"/>
<path fill="#004170" d="M117.927,477.314c2.85-3.506,8.977-2.393,12.574-0.38C126.31,477.1,122.118,477.222,117.927,477.314z"/>
<path fill="#154D6B" d="M120.838,479.723c2.484-1.054,7.01-1.45,8.764,0.606C127.071,481.063,122.453,481.87,120.838,479.723z"/>
<path fill="#3D80A8" d="M372.786,482.65c2.377-3.156,6.676-2.287,9.786-0.933c-3.218,0.763-6.493,1.295-9.755,1.831L372.786,482.65z
	"/>
<path fill="#004170" d="M146.229,493.88c43.376-10.502,88.368-12.422,132.81-10.746c26.245,1.709,52.597,4.542,78.05,11.415
	c2.574,0.641,5.258,0.992,7.925,0.885c1.753-0.244,3.521-0.503,5.274-0.777c-0.062,0.566-0.184,1.691-0.245,2.257
	c2.865,0.577,5.716,1.173,8.58,1.783c-0.503,1.065-1.492,3.2-1.98,4.284c-37.844-4.742-76.007-6.067-114.124-6.448
	c-44.885,0-89.968,0.578-134.532,6.6c-0.961-1.968-1.921-3.933-2.713-5.944c1.813,0.092,3.643,0.151,5.457,0.166
	c0.091-0.562,0.259-1.69,0.35-2.271c2.79-0.866,5.609-1.705,8.536-2.023C141.764,493.667,143.974,494.565,146.229,493.88z"/>
<path fill="#31749B" d="M347.607,483.211c3.096-0.336,6.158-0.869,9.237-1.249c4.649,2.104,9.1,4.724,14.005,6.203
	c4.086,0.518,8.217,0.288,12.331,0.396l-0.884,0.946c-3.887,0.623-7.803,0.866-11.689,1.233c3.627,0.564,7.271,1.142,10.896,1.693
	c-0.685,1.75-1.354,3.503-2.011,5.271l-0.274-0.151C369.206,491.746,358.628,486.823,347.607,483.211z"/>
<path fill="#3888B5" d="M372.786,484.263c3.124-0.152,6.173,0.639,9.13,1.601c-2.454,0.41-4.906,0.792-7.361,1.174
	c-0.486-0.475-1.493-1.433-1.981-1.905L372.786,484.263z"/>
<path fill="#1B5575" d="M124.297,487.296c1.738-1.097,5.914-1.477,6.676,0.688C129.205,488.927,125.014,489.49,124.297,487.296z"/>
<path fill="#1C5676" d="M122.469,490.558c2.24-1.356,5.121-1.128,7.209,0.411c-2.225,0.977-4.847,1.465-7.133,0.396L122.469,490.558
	z"/>
<path fill="#2D6686" d="M370.607,490.741c3.887-0.367,7.803-0.61,11.689-1.233c-0.198,0.73-0.594,2.193-0.794,2.927
	C377.879,491.882,374.234,491.305,370.607,490.741z"/>
</svg>
