<?xml version="1.0" encoding="UTF-8" standalone="no"?>
<svg
   xmlns:dc="http://purl.org/dc/elements/1.1/"
   xmlns:cc="http://creativecommons.org/ns#"
   xmlns:rdf="http://www.w3.org/1999/02/22-rdf-syntax-ns#"
   xmlns:svg="http://www.w3.org/2000/svg"
   xmlns="http://www.w3.org/2000/svg"
   height="194.86"
   width="901.90997"
   id="svg3725"
   version="1.1"
   role="img"
   aria-label="New York"
   viewBox="0 0 901.90996 194.86"
   class="logo-svg">
  <metadata
     id="metadata3731">
    <rdf:RDF>
      <cc:Work
         rdf:about="">
        <dc:format>image/svg+xml</dc:format>
        <dc:type
           rdf:resource="http://purl.org/dc/dcmitype/StillImage" />
        <dc:title></dc:title>
      </cc:Work>
    </rdf:RDF>
  </metadata>
  <defs
     id="defs3729" />
  <path
     id="path3723"
     d="m 448.9,49.04 0.63,-2.12 h -29.09 l -0.65,2.09 c 7.58,0.54 9.84,4.56 9.84,7.89 a 14.08,14.08 0 0 1 -1.72,6.14 l -32.24,61.8 -4.86,-67 c -0.53,-6.94 3.24,-8.78 10.73,-8.85 l 0.65,-2.13 h -30.73 l -0.64,2.1 c 7.61,0.63 9.93,3.28 9.93,6.38 a 11.53,11.53 0 0 1 -1.49,5.21 l -31.44,64 -4.89,-66.51 c -0.38,-7.61 3.43,-8.73 10.47,-9 l 0.63,-2.12 h -31.38 l -0.66,2.12 c 8.85,0.51 11.56,3.07 12.19,11.21 l 6.22,76.7 h 3.81 l 37.84,-76.79 6.18,76.79 h 3.65 l 38.59,-73.66 c 5.15,-9.79 10.9,-13.82 18.43,-14.25 z m -194.64,0 c 4.9,0.35 8,1.36 9.25,3.2 1.25,1.84 1.25,4.56 0,8.92 l -18.3,60.88 c -2.13,6.88 -7.3,10.65 -15,11.13 l -0.8,2.25 h 76.43 l 13.25,-26.17 -1.58,-0.66 c -10.87,17.26 -26.82,24.45 -54.75,24.45 h -11.42 c 0.19,-0.63 12.8,-42.58 12.91,-42.93 h 12.74 c 5.12,0 8.54,1.14 10.45,3.5 2.19,2.69 2.47,7.3 1,14.29 h 1.95 l 10.6,-35.2 h -2 c -3.76,9.76 -11.55,15.34 -21.87,15.34 h -12.23 c 0.19,-0.63 11.66,-38.66 11.76,-39 h 11.9 c 15,0 24.41,6.58 27.75,19.14 l 1.59,-0.24 -2.84,-21 H 254.9 Z m 60.25,108.79 c -3.82,0 -6.29,1.68 -6.29,4.31 0,2.3 2.12,3.68 4.17,3.68 a 6.25,6.25 0 0 0 2.65,-0.7 5.63,5.63 0 0 1 2.24,-0.61 c 3.36,0 5.79,3.53 5.79,8.4 0,11.12 -10.47,19.18 -24.89,19.18 -29.66,0 -58.73,-24.6 -88.86,-75.21 12.35,-39.94 37.17,-106.71 64.86,-106.71 a 26.72,26.72 0 0 1 11,2.38 17.49,17.49 0 0 0 6.81,1.7 c 6,0 7.59,-3.74 7.59,-6 C 299.58,3.32 294.7,0 287.42,0 247.01,0 222.42,64.46 207.36,113.25 193.16,88.41 174.27,49.17 164.24,3.41 h -46.62 c -12,0 -32.25,2.58 -32.25,19.7 a 14,14 0 0 0 14,14 c 7.83,0 12,-5.17 12,-8.9 0,-2.33 -1.3,-4.83 -4.17,-4.83 -2.87,0 -4.21,2.43 -4.21,4.83 a 4.69,4.69 0 0 1 -4.82,5 c -5.71,0 -9.7,-4.26 -9.7,-10.36 0,-11 9.8,-16.57 29.13,-16.57 h 19.79 c 11.58,0 16.68,5.75 13.78,17.33 -19.81,69.8 -59.44,144.43 -111.26,144.43 -23.84,0 -36.32,-13.92 -36.32,-27.67 0,-10 6.76,-17.39 12.81,-17.39 4,0 5.48,2.66 6.9,5.23 1.34,2.41 2.72,4.9 6.16,4.9 a 4.89,4.89 0 0 0 5,-5 c 0,-5.54 -6.29,-9.72 -14.62,-9.72 -9.58,0 -19.84,8.83 -19.84,22 0,18 16.79,31.1 39.92,31.1 27.73,0 53.63,-19.48 77,-57.91 22.3,-36.71 34.48,-78.18 38,-91.28 20.31,72.63 81,172.54 142.84,172.54 16.59,0 28.17,-9.24 28.17,-22.45 -0.07,-8.22 -5.06,-14.62 -11.42,-14.62 z M 626.71,44.92 c -26.41,0 -53.31,29.54 -53.31,58.53 0,22.35 14.74,34.05 29.31,34.05 12.71,0 25.84,-6.52 36,-17.88 A 64.46,64.46 0 0 0 655.16,77.17 C 655.2,57.88 643.75,44.92 626.71,44.92 Z m -24.17,90 c -11.9,0 -19,-10.53 -19,-28.06 0,-25.36 21.1,-59.4 42.69,-59.4 15.31,0 18.52,13.69 18.52,25.12 -0.01,21.75 -14.5,62.36 -42.21,62.36 z m 19.3,-128.7 0.79,-2.77 h -45.74 l -0.78,2.76 c 12,0.62 15.4,5.83 15.4,10.37 q 0,4 -3.22,9.19 c 0,0 -59,92.5 -63.68,99.74 C 524.35,124.37 500.1,21.28 500.1,21.28 a 23.12,23.12 0 0 1 -0.65,-5 c 0,-7.15 5.5,-9.63 16.12,-10 l 0.78,-2.78 h -46.89 l -0.8,2.76 c 10,0.39 15.89,3.07 19,15.84 5.6,23 27.27,114.44 27.9,117.11 -22.68,33.16 -41.81,52.37 -72.38,52.37 -22.29,0 -39.1,-15.41 -39.1,-35.84 0,-20.43 16.3,-37 36.33,-37 12.45,0 19.17,6.35 19.17,12.32 a 7.07,7.07 0 0 1 -3.32,6.16 c -1.66,1.06 -3.21,2.4 -3.21,4.94 a 4.19,4.19 0 0 0 4.49,4.17 c 4.3,0 6.62,-5.17 6.62,-10 0,-12.54 -9.1,-20.34 -23.75,-20.34 -24.56,0 -39.77,21 -39.77,40.42 0,18.9 15.91,38.45 42.54,38.45 38.88,0 59.37,-30.81 81.06,-63.43 0,0 62.4,-97.12 69,-107 7.75,-11.39 17.62,-17.76 28.6,-18.21 z m 266.57,132.74 c -6.45,0 -9.88,4.41 -9.88,7.59 a 3.15,3.15 0 0 0 3,3.19 4,4 0 0 0 3.81,-2.41 6.44,6.44 0 0 1 5.65,-3.29 c 5.12,0 8.58,3.48 8.58,9.26 0,10.39 -10.88,18.85 -24.24,18.85 -33.66,0 -62.77,-29.75 -89,-90.93 L 817.2,57.66 c 10.13,-7.49 15.07,-8.29 19.11,-8.6 l 0.65,-2.13 h -29.87 l -0.63,2.11 c 5,0.28 7.92,2.14 7.92,4.68 0,2 -1.7,4.37 -5,7 l -42.62,32.11 9.4,-30.79 0.2,-0.57 c 2.63,-7.62 4.29,-11.91 15.27,-12.43 l 0.63,-2.12 h -33.83 l -0.66,2.12 c 4.91,0.22 7.89,1.24 9.15,3 1.26,1.76 1.21,4.88 -0.38,10.37 l -17.63,58.93 c -2.29,7.35 -7,11.74 -12.49,11.74 -5,0 -8.4,-3.06 -12.35,-11.29 L 708.86,90.73 c 13.73,-2.58 29.6,-11 29.6,-26.46 0,-10.83 -7.53,-17.94 -26,-17.88 l -15.74,0.28 c -7.73,0.2 -15.87,0.39 -21.85,0.21 l -0.67,2.16 c 8.88,0.57 12.22,2.79 8.92,13.4 l -17.8,58.94 c -2.31,7.42 -7.33,11.3 -15.12,11.75 l -0.83,2.28 h 35.62 l 0.63,-2.28 c -6.67,-0.31 -11.67,-1.37 -11.67,-7.26 a 16.67,16.67 0 0 1 0.8,-4.67 c 0,0 8.66,-28.86 8.76,-29.21 h 16.18 c 0.06,0.1 0.12,0.23 0.12,0.23 7.06,14.13 15.86,31.72 21,43.05 l 0.07,0.14 h 47.86 l 0.62,-2.29 c -6.6,-0.15 -11.81,-1.56 -11.81,-7.32 a 16.13,16.13 0 0 1 0.79,-4.6 c 0,0 7.08,-23.6 7.32,-24.42 l 12.33,-9.59 c 16.32,32.93 43.6,87.69 96.74,87.69 15.24,0 27.18,-9.5 27.18,-21.63 -0.03,-9.29 -6.92,-14.29 -13.5,-14.29 z M 696.09,89.65 h -11.9 l 12.42,-40.61 c 2,-0.18 8,-0.48 13,-0.48 15.85,0 19.18,7.94 19.18,14.61 0.03,12.06 -5.65,26.48 -32.7,26.48 z" />
</svg>
