<?xml version="1.0" encoding="UTF-8" standalone="no"?>
<svg xmlns:svg="http://www.w3.org/2000/svg" xmlns="http://www.w3.org/2000/svg"
  version="1.0" width="1040" height="630" viewBox="-100 -120 1040 630">
  <!-- horizontal: 10 per binary unit, x=0 at the start of the code for the "9" -->
  <defs />
  <rect x="-100" y="-120" width="1040" height="630" style="fill:#ffffff;stroke:none" />
<!--  Numbers:  5   9 0 1 2 3 4   1 2 3 4 5 7  Coding
         5 only the type
         = startcode 101
         9 left odd  0001011
         0 left even 0100111
         1 left even 0110011
         2 left odd  0010011
         3 left odd  0111101
         4 left even 0011101
         = center    01010 
         1 right     1100110
         2 right     1101100
         3 right     1000010
         4 right     1011100
         5 right     1001110
         7 right     1000100
         = end code  101
-->
  <g style="fill:#000000;stroke:none;"> <!-- "5" leftmost outside -->
    <path d="M -68.418,426.826 L -68.418,438.74 C -64.7071,437.568 -61.3379,436.982 -58.3105,436.982 C -52.1582,436.982 -47.0476,439.082 -42.9785,443.281 C -38.9096,447.481 -36.8751,452.9 -36.875,459.541 C -36.8751,466.377 -38.934,471.74 -43.0518,475.63 C -47.1696,479.52 -53.4766,481.465 -61.9727,481.465 C -69.4597,481.465 -75.3841,480.049 -79.7461,477.217 C -82.2852,475.589 -83.5547,473.717 -83.5547,471.602 C -83.5547,470.267 -83.0583,469.103 -82.0654,468.11 C -81.0726,467.118 -79.8926,466.621 -78.5254,466.621 C -77.3861,466.621 -76.1491,467.166 -74.8145,468.257 C -73.4798,469.347 -72.0801,470.104 -70.6152,470.527 C -68.5319,471.146 -65.8627,471.455 -62.6074,471.455 C -56.5528,471.455 -52.4187,470.487 -50.2051,468.55 C -47.9916,466.613 -46.8848,463.643 -46.8848,459.639 C -46.8848,455.7 -47.9509,452.607 -50.083,450.361 C -52.2152,448.115 -54.9577,446.992 -58.3105,446.992 C -61.9239,446.992 -66.0417,448.164 -70.6641,450.508 C -71.7057,451.061 -72.6172,451.338 -73.3984,451.338 C -74.8307,451.338 -76.027,450.817 -76.9873,449.775 C -77.9476,448.734 -78.4277,447.383 -78.4277,445.723 L -78.4277,416.816 L -47.8125,416.816 C -45.4037,416.816 -43.6866,417.28 -42.6611,418.208 C -41.6358,419.136 -41.1231,420.348 -41.123,421.846 C -41.1231,423.311 -41.6358,424.507 -42.6611,425.435 C -43.6866,426.362 -45.4037,426.826 -47.8125,426.826 L -68.418,426.826 z " />
    <g transform="translate(-30,0)">  <!-- Startcode: bin 101 -->
      <rect x="0"  y="-100" width="10" height="590" />
      <rect x="20" y="-100" width="10" height="590" />
    </g>
    <g> <!-- Code for "9 left odd" Binary code:  0001011 -->
      <rect x="30" y="-100" width="10" height="500" />
      <rect x="50" y="-100" width="20" height="500" />
      <path d="M 49.0918,453.73 C 46.5852,455.879 44.2903,457.401 42.207,458.296 C 40.1237,459.191 37.9264,459.639 35.6152,459.639 C 30.2441,459.639 25.5485,457.49 21.5283,453.193 C 17.5081,448.897 15.498,443.558 15.498,437.178 C 15.498,432.197 16.8815,427.673 19.6484,423.604 C 23.4245,418.005 28.7467,415.205 35.6152,415.205 C 40.5306,415.205 44.8274,416.678 48.5059,419.624 C 52.1842,422.57 54.886,426.818 56.6113,432.368 C 58.3365,437.918 59.1992,443.704 59.1992,449.727 C 59.1992,459.948 55.2441,468.151 47.334,474.336 C 41.2142,479.089 34.5084,481.465 27.2168,481.465 C 23.1803,481.465 20.0553,480.651 17.8418,479.023 C 16.3444,477.949 15.5957,476.533 15.5957,474.775 C 15.5957,473.343 16.0758,472.147 17.0361,471.187 C 17.9964,470.226 19.1764,469.746 20.5762,469.746 C 21.3574,469.746 22.2363,469.99 23.2129,470.479 C 24.4824,471.13 25.817,471.455 27.2168,471.455 C 32.2623,471.455 36.9173,469.738 41.1816,466.304 C 45.4459,462.869 48.0826,458.678 49.0918,453.73 L 49.0918,453.73 z M 47.6758,437.959 C 46.6015,433.337 45.0146,430.057 42.915,428.12 C 40.8154,426.183 38.4147,425.215 35.7129,425.215 C 32.8808,425.215 30.472,426.297 28.4863,428.462 C 26.5006,430.627 25.5078,433.499 25.5078,437.08 C 25.5078,440.824 26.5088,443.851 28.5107,446.162 C 30.5127,448.473 32.7995,449.629 35.3711,449.629 C 39.8958,449.629 43.9974,445.739 47.6758,437.959 L 47.6758,437.959 z " />
    </g>
    <g transform="translate(70,0)"> <!-- Code for "0 left even". Binary code:  0100111 -->
      <rect x="10" y="-100" width="10" height="500" />
      <rect x="40" y="-100" width="30" height="500" />
      <path d="M 56.8555,442.842 L 56.8555,453.828 C 56.8554,460.339 54.9755,466.572 51.2158,472.529 C 47.456,478.486 42.0768,481.465 35.0781,481.465 C 31.0416,481.465 27.6318,480.578 24.8486,478.804 C 22.0654,477.03 19.4287,473.758 16.9385,468.989 C 14.4482,464.22 13.2031,459.167 13.2031,453.828 L 13.2031,442.842 C 13.2031,436.364 15.0749,430.138 18.8184,424.165 C 22.5618,418.192 27.9329,415.205 34.9316,415.205 C 38.9355,415.205 42.3291,416.084 45.1123,417.842 C 47.8955,419.6 50.5485,422.863 53.0713,427.632 C 55.594,432.401 56.8554,437.471 56.8555,442.842 L 56.8555,442.842 z M 46.7969,442.842 C 46.7968,437.406 45.2832,432.653 42.2559,428.584 C 40.5306,426.338 38.1054,425.215 34.9805,425.215 C 31.9531,425.215 29.4791,426.452 27.5586,428.926 C 24.6614,432.669 23.2129,437.308 23.2129,442.842 L 23.2129,453.828 C 23.2129,459.297 24.7428,464.049 27.8027,468.086 C 29.4954,470.332 31.9205,471.455 35.0781,471.455 C 38.0729,471.455 40.5306,470.218 42.4512,467.744 C 45.3483,464.001 46.7968,459.362 46.7969,453.828 L 46.7969,442.842 z " />
    </g>
    <g transform="translate(140,0)"> <!-- Code for "1 left even". Binary code: 0110011 -->
      <rect x="10" y="-100" width="20" height="500" />
      <rect x="50" y="-100" width="20" height="500" />
      <path d="M 40.1074,415.205 L 40.1074,469.99 L 50.2148,469.99 C 52.6237,469.99 54.3408,470.454 55.3662,471.382 C 56.3916,472.31 56.9042,473.522 56.9043,475.02 C 56.9042,476.484 56.3916,477.681 55.3662,478.608 C 54.3408,479.536 52.6237,480 50.2148,480 L 19.9902,480 C 17.5814,480 15.8642,479.536 14.8389,478.608 C 13.8135,477.681 13.3008,476.468 13.3008,474.971 C 13.3008,473.506 13.8135,472.31 14.8389,471.382 C 15.8642,470.454 17.5814,469.99 19.9902,469.99 L 30.0977,469.99 L 30.0977,428.242 L 21.1621,430.586 C 19.7298,430.977 18.6556,431.172 17.9395,431.172 C 16.6699,431.172 15.5713,430.667 14.6436,429.658 C 13.7158,428.649 13.2519,427.412 13.252,425.947 C 13.2519,424.613 13.5937,423.563 14.2773,422.798 C 14.9609,422.033 16.3932,421.357 18.5742,420.771 L 40.1074,415.205 z " />
    </g>
    <g transform="translate(210,0)"> <!-- Code for "2 left odd". Binary code: 0010011   -->
      <rect x="20" y="-100" width="10" height="500" />
      <rect x="50" y="-100" width="20" height="500" />
      <path d="M 25.6543,469.99 L 47.5781,469.99 C 48.7825,469.014 49.9218,468.525 50.9961,468.525 C 52.526,468.525 53.7386,469.03 54.6338,470.039 C 55.5289,471.048 55.9765,472.773 55.9766,475.215 L 55.9766,480 L 10.3711,480 L 10.3711,469.404 C 28.4049,454.528 39.2936,444.958 43.0371,440.693 C 44.9251,438.512 45.8691,436.445 45.8691,434.492 C 45.8691,432.051 44.803,429.894 42.6709,428.022 C 40.5387,426.151 37.6985,425.215 34.1504,425.215 C 30.5696,425.215 27.5911,426.257 25.2148,428.34 C 23.9778,429.447 22.985,431.091 22.2363,433.271 C 21.7806,434.639 21.154,435.615 20.3564,436.201 C 19.5589,436.787 18.5742,437.08 17.4023,437.08 C 16.0351,437.08 14.8551,436.592 13.8623,435.615 C 12.8695,434.639 12.373,433.499 12.373,432.197 C 12.373,430.244 13.2764,427.803 15.083,424.873 C 16.8896,421.943 19.5264,419.6 22.9932,417.842 C 26.4599,416.084 30.2278,415.205 34.2969,415.205 C 40.6119,415.205 45.7877,417.118 49.8242,420.942 C 53.8606,424.767 55.8789,429.398 55.8789,434.834 C 55.8789,437.601 55.3011,440.164 54.1455,442.524 C 52.9899,444.884 50.2148,448.148 45.8203,452.314 C 42.3698,455.602 35.6478,461.494 25.6543,469.99 L 25.6543,469.99 z " />
    </g>
    <g transform="translate(280,0)"> <!-- Code for "3 left odd". Binary code: 0111101  -->
      <rect x="10" y="-100" width="40" height="500" />
      <rect x="60" y="-100" width="10" height="500" />
      <path d="M 49.2871,446.553 C 52.2493,448.571 54.4628,450.907 55.9277,453.56 C 57.3925,456.213 58.1249,459.183 58.125,462.471 C 58.1249,466.019 57.1565,469.299 55.2197,472.31 C 53.2828,475.321 50.4752,477.599 46.7969,479.146 C 43.1185,480.692 38.3007,481.465 32.3438,481.465 C 24.5963,481.465 18.7695,480.26 14.8633,477.852 C 12.6823,476.484 11.5918,474.857 11.5918,472.969 C 11.5918,471.536 12.0719,470.324 13.0322,469.331 C 13.9925,468.338 15.1562,467.842 16.5234,467.842 C 17.4674,467.842 18.444,468.167 19.4531,468.818 C 20.8854,469.795 22.2363,470.446 23.5059,470.771 C 25.459,471.227 28.1445,471.455 31.5625,471.455 C 37.3893,471.455 41.6048,470.698 44.209,469.185 C 46.8131,467.671 48.1152,465.531 48.1152,462.764 C 48.1152,460.713 47.3584,458.735 45.8447,456.831 C 44.331,454.927 42.3047,453.454 39.7656,452.412 C 38.3007,451.826 35.8268,451.419 32.3438,451.191 C 30.6836,451.094 29.4059,450.581 28.5107,449.653 C 27.6155,448.726 27.1679,447.578 27.168,446.211 C 27.1679,444.779 27.6562,443.574 28.6328,442.598 C 29.6094,441.621 30.8463,441.133 32.3438,441.133 C 35.664,441.133 37.4381,441.117 37.666,441.084 C 38.9681,440.954 40.2701,440.531 41.5723,439.814 C 42.8743,439.098 43.9241,438.114 44.7217,436.86 C 45.5192,435.607 45.9179,434.313 45.918,432.979 C 45.9179,430.863 44.9821,429.032 43.1104,427.485 C 41.2386,425.939 38.431,425.166 34.6875,425.166 C 29.8698,425.166 26.1914,426.566 23.6523,429.365 C 22.9036,430.179 22.3014,430.7 21.8457,430.928 C 21.1621,431.286 20.3971,431.465 19.5508,431.465 C 18.1836,431.465 17.0117,430.977 16.0352,430 C 15.0586,429.023 14.5703,427.819 14.5703,426.387 C 14.5703,424.141 16.0677,421.96 19.0625,419.844 C 23.4245,416.751 28.8769,415.205 35.4199,415.205 C 41.6048,415.205 46.569,416.963 50.3125,420.479 C 54.0559,423.994 55.9277,428.226 55.9277,433.174 C 55.9277,435.745 55.3743,438.146 54.2676,440.376 C 53.1608,442.606 51.5006,444.665 49.2871,446.553 L 49.2871,446.553 z " />
    </g>
    <g transform="translate(350,0)"> <!-- Code for "4 left even". Binary code: 0011101  -->
      <rect x="20" y="-100" width="30" height="500" />
      <rect x="60" y="-100" width="10" height="500" />
      <path d="M 49.6777,416.816 L 49.6777,455.977 C 51.7936,455.977 53.3561,456.44 54.3652,457.368 C 55.3743,458.296 55.8789,459.492 55.8789,460.957 C 55.8789,462.422 55.3662,463.626 54.3408,464.57 C 53.3154,465.514 51.761,465.986 49.6777,465.986 L 49.6777,469.99 C 51.7936,469.99 53.3561,470.462 54.3652,471.406 C 55.3743,472.35 55.8789,473.555 55.8789,475.02 C 55.8789,476.484 55.3662,477.681 54.3408,478.608 C 53.3154,479.536 51.5983,480 49.1895,480 L 35.7617,480 C 33.3528,480 31.6357,479.536 30.6104,478.608 C 29.5849,477.681 29.0722,476.468 29.0723,474.971 C 29.0722,473.506 29.5849,472.31 30.6104,471.382 C 31.6357,470.454 33.3528,469.99 35.7617,469.99 L 39.668,469.99 L 39.668,465.986 L 12.4707,465.986 L 12.4707,457.637 L 36.4453,416.816 L 49.6777,416.816 z M 39.668,455.977 L 39.668,431.367 L 25.166,455.977 L 39.668,455.977 z " />
    </g>
    <g transform="translate(420,0)"> <!-- Code for center bars. Binary code:  01010 -->
      <rect x="10" y="-100" width="10" height="590" />
      <rect x="30" y="-100" width="10" height="590" />
    </g>
    <g transform="translate(470,0)"> <!-- Code for "1 right". Binary code: 1100110  -->
      <rect x="0"  y="-100" width="20" height="500" />
      <rect x="40" y="-100" width="20" height="500" />
      <path d="M 40.1074,415.205 L 40.1074,469.99 L 50.2148,469.99 C 52.6237,469.99 54.3408,470.454 55.3662,471.382 C 56.3916,472.31 56.9042,473.522 56.9043,475.02 C 56.9042,476.484 56.3916,477.681 55.3662,478.608 C 54.3408,479.536 52.6237,480 50.2148,480 L 19.9902,480 C 17.5814,480 15.8642,479.536 14.8389,478.608 C 13.8135,477.681 13.3008,476.468 13.3008,474.971 C 13.3008,473.506 13.8135,472.31 14.8389,471.382 C 15.8642,470.454 17.5814,469.99 19.9902,469.99 L 30.0977,469.99 L 30.0977,428.242 L 21.1621,430.586 C 19.7298,430.977 18.6556,431.172 17.9395,431.172 C 16.6699,431.172 15.5713,430.667 14.6436,429.658 C 13.7158,428.649 13.2519,427.412 13.252,425.947 C 13.2519,424.613 13.5937,423.563 14.2773,422.798 C 14.9609,422.033 16.3932,421.357 18.5742,420.771 L 40.1074,415.205 z " />
    </g>
    <g transform="translate(540,0)"> <!-- Code for "2 right". Binary code: 1101100  -->
      <rect x="0"  y="-100" width="20" height="500" />
      <rect x="30" y="-100" width="20" height="500" />
      <path d="M 25.6543,469.99 L 47.5781,469.99 C 48.7825,469.014 49.9218,468.525 50.9961,468.525 C 52.526,468.525 53.7386,469.03 54.6338,470.039 C 55.5289,471.048 55.9765,472.773 55.9766,475.215 L 55.9766,480 L 10.3711,480 L 10.3711,469.404 C 28.4049,454.528 39.2936,444.958 43.0371,440.693 C 44.9251,438.512 45.8691,436.445 45.8691,434.492 C 45.8691,432.051 44.803,429.894 42.6709,428.022 C 40.5387,426.151 37.6985,425.215 34.1504,425.215 C 30.5696,425.215 27.5911,426.257 25.2148,428.34 C 23.9778,429.447 22.985,431.091 22.2363,433.271 C 21.7806,434.639 21.154,435.615 20.3564,436.201 C 19.5589,436.787 18.5742,437.08 17.4023,437.08 C 16.0351,437.08 14.8551,436.592 13.8623,435.615 C 12.8695,434.639 12.373,433.499 12.373,432.197 C 12.373,430.244 13.2764,427.803 15.083,424.873 C 16.8896,421.943 19.5264,419.6 22.9932,417.842 C 26.4599,416.084 30.2278,415.205 34.2969,415.205 C 40.6119,415.205 45.7877,417.118 49.8242,420.942 C 53.8606,424.767 55.8789,429.398 55.8789,434.834 C 55.8789,437.601 55.3011,440.164 54.1455,442.524 C 52.9899,444.884 50.2148,448.148 45.8203,452.314 C 42.3698,455.602 35.6478,461.494 25.6543,469.99 L 25.6543,469.99 z " />
    </g>
    <g transform="translate(610,0)"> <!-- Code for "3 right". Binary code: 1000010  -->
      <rect x="0"  y="-100" width="10" height="500" />
      <rect x="50" y="-100" width="10" height="500" />
      <path
         d="M 49.2871,446.553 C 52.2493,448.571 54.4628,450.907 55.9277,453.56 C 57.3925,456.213 58.1249,459.183 58.125,462.471 C 58.1249,466.019 57.1565,469.299 55.2197,472.31 C 53.2828,475.321 50.4752,477.599 46.7969,479.146 C 43.1185,480.692 38.3007,481.465 32.3438,481.465 C 24.5963,481.465 18.7695,480.26 14.8633,477.852 C 12.6823,476.484 11.5918,474.857 11.5918,472.969 C 11.5918,471.536 12.0719,470.324 13.0322,469.331 C 13.9925,468.338 15.1562,467.842 16.5234,467.842 C 17.4674,467.842 18.444,468.167 19.4531,468.818 C 20.8854,469.795 22.2363,470.446 23.5059,470.771 C 25.459,471.227 28.1445,471.455 31.5625,471.455 C 37.3893,471.455 41.6048,470.698 44.209,469.185 C 46.8131,467.671 48.1152,465.531 48.1152,462.764 C 48.1152,460.713 47.3584,458.735 45.8447,456.831 C 44.331,454.927 42.3047,453.454 39.7656,452.412 C 38.3007,451.826 35.8268,451.419 32.3438,451.191 C 30.6836,451.094 29.4059,450.581 28.5107,449.653 C 27.6155,448.726 27.1679,447.578 27.168,446.211 C 27.1679,444.779 27.6562,443.574 28.6328,442.598 C 29.6094,441.621 30.8463,441.133 32.3438,441.133 C 35.664,441.133 37.4381,441.117 37.666,441.084 C 38.9681,440.954 40.2701,440.531 41.5723,439.814 C 42.8743,439.098 43.9241,438.114 44.7217,436.86 C 45.5192,435.607 45.9179,434.313 45.918,432.979 C 45.9179,430.863 44.9821,429.032 43.1104,427.485 C 41.2386,425.939 38.431,425.166 34.6875,425.166 C 29.8698,425.166 26.1914,426.566 23.6523,429.365 C 22.9036,430.179 22.3014,430.7 21.8457,430.928 C 21.1621,431.286 20.3971,431.465 19.5508,431.465 C 18.1836,431.465 17.0117,430.977 16.0352,430 C 15.0586,429.023 14.5703,427.819 14.5703,426.387 C 14.5703,424.141 16.0677,421.96 19.0625,419.844 C 23.4245,416.751 28.8769,415.205 35.4199,415.205 C 41.6048,415.205 46.569,416.963 50.3125,420.479 C 54.0559,423.994 55.9277,428.226 55.9277,433.174 C 55.9277,435.745 55.3743,438.146 54.2676,440.376 C 53.1608,442.606 51.5006,444.665 49.2871,446.553 L 49.2871,446.553 z " />
    </g>
    <g transform="translate(680,0)"> <!-- Code for "4 right". Binary code:1011100   -->
      <rect x="0"  y="-100" width="10" height="500" />
      <rect x="20" y="-100" width="30" height="500" />
      <path d="M 49.6777,416.816 L 49.6777,455.977 C 51.7936,455.977 53.3561,456.44 54.3652,457.368 C 55.3743,458.296 55.8789,459.492 55.8789,460.957 C 55.8789,462.422 55.3662,463.626 54.3408,464.57 C 53.3154,465.514 51.761,465.986 49.6777,465.986 L 49.6777,469.99 C 51.7936,469.99 53.3561,470.462 54.3652,471.406 C 55.3743,472.35 55.8789,473.555 55.8789,475.02 C 55.8789,476.484 55.3662,477.681 54.3408,478.608 C 53.3154,479.536 51.5983,480 49.1895,480 L 35.7617,480 C 33.3528,480 31.6357,479.536 30.6104,478.608 C 29.5849,477.681 29.0722,476.468 29.0723,474.971 C 29.0722,473.506 29.5849,472.31 30.6104,471.382 C 31.6357,470.454 33.3528,469.99 35.7617,469.99 L 39.668,469.99 L 39.668,465.986 L 12.4707,465.986 L 12.4707,457.637 L 36.4453,416.816 L 49.6777,416.816 z M 39.668,455.977 L 39.668,431.367 L 25.166,455.977 L 39.668,455.977 z " />
    </g>
    <g transform="translate(750,0)"> <!-- Code for "5 right". Binary code: 1001110  -->
      <rect x="0"  y="-100" width="10" height="500" />
      <rect x="30" y="-100" width="30" height="500" />
      <path d="M 26.582,426.826 L 26.582,438.74 C 30.2929,437.568 33.6621,436.982 36.6895,436.982 C 42.8418,436.982 47.9524,439.082 52.0215,443.281 C 56.0904,447.481 58.1249,452.9 58.125,459.541 C 58.1249,466.377 56.066,471.74 51.9482,475.63 C 47.8304,479.52 41.5234,481.465 33.0273,481.465 C 25.5403,481.465 19.6159,480.049 15.2539,477.217 C 12.7148,475.589 11.4453,473.717 11.4453,471.602 C 11.4453,470.267 11.9417,469.103 12.9346,468.11 C 13.9274,467.118 15.1074,466.621 16.4746,466.621 C 17.6139,466.621 18.8509,467.166 20.1855,468.257 C 21.5202,469.347 22.9199,470.104 24.3848,470.527 C 26.4681,471.146 29.1373,471.455 32.3926,471.455 C 38.4472,471.455 42.5813,470.487 44.7949,468.55 C 47.0084,466.613 48.1152,463.643 48.1152,459.639 C 48.1152,455.7 47.0491,452.607 44.917,450.361 C 42.7848,448.115 40.0423,446.992 36.6895,446.992 C 33.0761,446.992 28.9583,448.164 24.3359,450.508 C 23.2943,451.061 22.3828,451.338 21.6016,451.338 C 20.1693,451.338 18.973,450.817 18.0127,449.775 C 17.0524,448.734 16.5723,447.383 16.5723,445.723 L 16.5723,416.816 L 47.1875,416.816 C 49.5963,416.816 51.3134,417.28 52.3389,418.208 C 53.3642,419.136 53.8769,420.348 53.877,421.846 C 53.8769,423.311 53.3642,424.507 52.3389,425.435 C 51.3134,426.362 49.5963,426.826 47.1875,426.826 L 26.582,426.826 z " />
    </g>
    <g transform="translate(820,0)"> <!-- Code for "7 right". Binary code: 1000100  -->
      <rect x="0"  y="-100" width="10" height="500" />
      <rect x="40" y="-100" width="10" height="500" />
      <path d="M 45.332,426.826 L 22.4316,426.826 C 22.3014,428.779 21.7969,430.187 20.918,431.05 C 20.039,431.912 18.8834,432.344 17.4512,432.344 C 15.9538,432.344 14.7412,431.839 13.8135,430.83 C 12.8857,429.821 12.4219,428.112 12.4219,425.703 L 12.4219,416.816 L 55.8789,416.816 L 55.8789,426.826 L 39.668,475.068 C 38.9843,477.087 38.2275,478.429 37.3975,479.097 C 36.5674,479.764 35.5664,480.098 34.3945,480.098 C 32.9948,480.098 31.7985,479.609 30.8057,478.633 C 29.8128,477.656 29.3164,476.533 29.3164,475.264 C 29.3164,474.548 29.5768,473.408 30.0977,471.846 L 45.332,426.826 z" />
    </g>
    <g transform="translate(890,0)"> <!-- Code for End bars. Binary code: 101 -->
      <rect x="0"  y="-100" width="10" height="590" />
      <rect x="20" y="-100" width="10" height="590" />
    </g>
  </g>
</svg>
