<?xml version="1.0" encoding="UTF-8"?>
<svg width="334px" height="79px" viewBox="0 0 334 79" version="1.1" xmlns="http://www.w3.org/2000/svg" xmlns:xlink="http://www.w3.org/1999/xlink">
    <!-- Generator: Sketch 55 (78076) - https://sketchapp.com -->
    <title>Logo</title>
    <desc>Created with Sketch.</desc>
    <defs>
        <linearGradient x1="31.1150339%" y1="15.3733514%" x2="78.2008675%" y2="85.4590797%" id="linearGradient-1">
            <stop stop-color="#A8A6A6" offset="0%"></stop>
            <stop stop-color="#E2DFDF" offset="100%"></stop>
        </linearGradient>
        <linearGradient x1="31.1150339%" y1="18.9005807%" x2="78.2008675%" y2="81.847055%" id="linearGradient-2">
            <stop stop-color="#666262" offset="0%"></stop>
            <stop stop-color="#E2DFDF" offset="100%"></stop>
        </linearGradient>
    </defs>
    <g id="Logo" stroke="none" stroke-width="1" fill="none" fill-rule="evenodd">
        <g transform="translate(0.000000, 2.000000)">
            <g id="sartén">
                <ellipse id="Oval" stroke="#808080" stroke-width="2" fill="url(#linearGradient-1)" cx="59.7609453" cy="35.9375" rx="35.096" ry="34.9375"></ellipse>
                <ellipse id="Oval" stroke="#808080" stroke-width="2" fill="url(#linearGradient-2)" cx="59.3769453" cy="35.9375" rx="25.496" ry="24"></ellipse>
                <path d="M27.6648122,52.2814926 C11.3104809,62.2575654 2.43084395,67.8834847 1.02590148,69.1592504 C-1.08151222,71.0728989 0.213725152,75.936833 3.48864252,74.2347956 C5.67192076,73.100104 15.0906108,67.7469474 31.7447125,58.1753258 L27.6648122,52.2814926 Z" id="Path-6" fill="#834DD0"></path>
                <ellipse id="Oval" stroke="#979797" fill="#D1D1D1" transform="translate(3.797692, 70.619728) rotate(-28.000000) translate(-3.797692, -70.619728) " cx="3.79769233" cy="70.619728" rx="1.42733284" ry="1.05672115"></ellipse>
                <path d="M10.3620455,64.9317489 L12.0566206,67.5102046" id="Path-7" stroke="#979797"></path>
                <path d="M14.4036874,62.21655 L16.321906,64.9317489" id="Path-8" stroke="#979797"></path>
                <path d="M19.6887513,58.9637569 L21.3672669,61.6998303" id="Path-9" stroke="#979797"></path>
            </g>
            <g id="paper" transform="translate(40.000000, 12.000000)">
                <path d="M3.05021664,1.93202808 C-0.087124572,21.3914426 -0.710712336,36.0963369 2.97924498,42.2849142 C7.09890891,44.0921106 16.6099158,45.9029536 24.8458596,46.3769818 C34.3500171,46.9240033 40.3833687,45.6538154 40.4983275,42.7625712 C39.4481672,39.8988986 38.6927781,36.8914888 38.2087793,33.743811 C36.8846,25.1320324 37.5457871,16.5483205 39.6497069,5.59458192 C39.888831,4.34961883 40.0304065,3.64381049 40.5,1.38058802 C40.5,0.779971692 39.4486581,0.45297201 37.0055271,0.505524289 C35.8630734,0.530098716 34.4603288,0.633241431 32.5157725,0.825131754 C31.3957816,0.935653322 27.0437255,1.40263141 26.7320676,1.43515223 C17.9701398,2.34944058 11.7585795,2.6416541 5.34153338,2.14734013 C4.56710378,2.08768474 3.80341156,2.0160383 3.05021664,1.93202808 Z" id="Rectangle" stroke="#808080" fill="#FFEC25"></path>
                <path d="M9.11111111,13.6908335 C10.5519974,14.8706732 12.1257521,14.8706732 13.8323752,13.6908335 C16.3923098,11.921074 18.9024435,16.4737526 21.1966337,13.6908335 C23.4908239,10.9079144 24.259181,11.3058338 27.3028959,13.6908335 C29.3320393,15.2808333 30.8607036,15.2808333 31.8888889,13.6908335" id="Path-2" stroke="#5A5A5A"></path>
                <path d="M9.11111111,25.2662354 C11.3052519,26.8269433 13.0813937,27.0513484 14.4395366,25.9394505 C16.476751,24.2716037 18.1100296,21.8230294 20.3418649,23.0473165 C22.5737001,24.2716037 25.2742424,27.1132798 26.7097036,25.4196174 C27.6666777,24.2905091 29.3930728,24.2393818 31.8888889,25.2662354" id="Path-4" stroke="#5A5A5A"></path>
                <path d="M9.11111111,37.4096054 C11.6515645,38.7124443 13.5621753,38.966584 14.8429435,38.1720245 C16.7640958,36.9801852 19.5831899,36.929163 20.4385252,38.0273075 C21.2938605,39.125452 22.7440322,40.1621496 26.741694,37.4096054 C29.4068018,35.574576 31.1225335,35.574576 31.8888889,37.4096054" id="Path-5" stroke="#5A5A5A"></path>
            </g>
        </g>
        <text id="Recipe-Keeper" fill="#07D0FB" font-family="Pacifico-Regular, Pacifico" font-size="35" font-weight="normal">
            <tspan x="109" y="54">Recipe Keeper </tspan>
        </text>
    </g>
</svg>