<svg height="448pt" viewBox="-51 0 448 448.98417" width="448pt" xmlns="http://www.w3.org/2000/svg"><path d="m203.640625 323.945312h-81.238281l24.988281-164.289062h31.261719zm0 0" fill="#0162a7"/><path d="m189.492188 230.929688-10.839844-71.273438h-31.261719l-7.28125 47.851562c14.433594 11.515626 31.335937 19.53125 49.382813 23.421876zm0 0" fill="#004584"/><path d="m178.652344 159.65625h-17.84375l24.988281 164.289062h17.84375zm0 0" fill="#004584"/><path d="m278.382812 319.871094c-11.265624.003906-22.308593 3.140625-31.894531 9.066406-11.078125-41.605469-50.097656-69.511719-93.046875-66.554688-42.953125 2.957032-77.777344 35.953126-83.046875 78.679688-19.214843-4.746094-39.445312 2.003906-51.957031 17.335938-12.511719 15.335937-15.066406 36.507812-6.558594 54.378906 8.507813 17.867187 26.550782 29.234375 46.34375 29.191406h220.160156c33.714844 0 61.046876-27.332031 61.046876-61.046875 0-33.71875-27.332032-61.050781-61.046876-61.050781zm0 0" fill="#26a3b9"/><path d="m237.539062 307.386719c-.75-1.289063-1.523437-2.558594-2.328124-3.804688-.402344-.625-.800782-1.253906-1.203126-1.867187-.703124-1.03125-1.4375-2.039063-2.183593-3.039063-.742188-1-2.484375-3.199219-3.28125-4.167969-.367188-.441406-.714844-.894531-1.089844-1.328124-19.984375-23.382813-50.667969-34.726563-81.058594-29.96875 9.570313 1.449218 18.84375 4.445312 27.449219 8.875 24.664062 13.332031 40.644531 38.507812 42.214844 66.503906.378906 4.8125 1.070312 9.601562 2.066406 14.328125.441406 2.039062 2.1875 3.539062 4.269531 3.664062 2.085938.128907 4-1.144531 4.6875-3.117187 3.410157-10.1875 10.277344-18.863282 19.40625-24.527344-1.894531-7.09375-4.667969-13.925781-8.253906-20.332031-.210937-.410157-.464844-.8125-.695313-1.21875zm0 0" fill="#168aa5"/><path d="m278.382812 319.871094c-4.5.003906-8.984374.511718-13.375 1.511718 30.363282 6.800782 50.746094 35.351563 47.320313 66.277344-3.421875 30.921875-29.5625 54.320313-60.675781 54.3125h26.730468c33.714844 0 61.046876-27.332031 61.046876-61.046875 0-33.71875-27.332032-61.050781-61.046876-61.050781zm0 0" fill="#168aa5"/><path d="m217.03125 114.113281-24.03125-24.03125 62.136719-52.527343 14.421875 14.421874zm0 0" fill="#d9ecf2"/><path d="m262.402344 44.820312-52.523438 62.140626-16.878906-16.878907 24.03125 24.03125 52.523438-62.136719zm0 0" fill="#bdd9e5"/><path d="m248.996094 42.75c2.054687 7.472656 7.894531 13.3125 15.371094 15.367188l5.199218-6.140626-14.402344-14.402343zm0 0" fill="#bdd9e5"/><path d="m292.425781 14.6875c8.894531 8.894531 8.894531 23.316406 0 32.210938-8.894531 8.894531-23.3125 8.894531-32.207031 0-8.894531-8.894532-8.894531-23.316407 0-32.210938s23.3125-8.894531 32.207031 0zm0 0" fill="#0162a7"/><path d="m292.421875 14.6875c-5.660156-5.632812-13.863281-7.875-21.601563-5.90625 10.164063 2.460938 17.324219 11.558594 17.324219 22.015625s-7.160156 19.554687-17.324219 22.015625c9.921876 2.511719 20.292969-1.921875 25.339844-10.824219 5.042969-8.902343 3.511719-20.078125-3.738281-27.296875zm0 0" fill="#004584"/><path d="m300.113281 177.183594c-46.996093 46.996094-123.1875 46.996094-170.183593 0-46.996094-46.996094-46.996094-123.1875 0-170.183594zm0 0" fill="#d9ecf2"/><path d="m129.929688 7c-5.777344 5.769531-10.953126 12.113281-15.453126 18.929688l151.261719 151.253906c-18.347656 18.398437-42.183593 30.332031-67.90625 34 37.550781 5.453125 75.46875-7.152344 102.28125-34zm0 0" fill="#bdd9e5"/><path d="m147.839844 24.90625c-37.042969 37.128906-37.042969 97.238281 0 134.367188 2.734375 2.734374 7.167968 2.734374 9.902344 0 2.734374-2.734376 2.734374-7.167969 0-9.902344-31.585938-31.65625-31.585938-82.90625 0-114.566406zm0 0" fill="#bdd9e5"/><path d="m147.839844 24.90625c-5.78125 5.828125-10.785156 12.382812-14.875 19.5l10.230468 10.230469c3.804688-7.316407 8.710938-14.003907 14.542969-19.832031zm0 0" fill="#d9ecf2"/><path d="m332.421875 380.921875c.035156-19.574219-10.527344-37.632813-27.605469-47.1875-17.082031-9.558594-37.996094-9.117187-54.660156 1.148437h-.027344l-.035156.03125c-19.300781 11.597657-19.519531 36.246094-19.519531 36.488282 0 3.867187-3.132813 7-7 7-3.867188 0-7-3.132813-7-7 0-1.25.261719-29.007813 21.699219-45.359375-12.148438-36.824219-48.214844-60.296875-86.804688-56.5-38.59375 3.800781-69.386719 33.855469-74.125 72.34375-.242188 1.988281-1.324219 3.773437-2.96875 4.910156s-3.699219 1.515625-5.640625 1.042969c-16.574219-4.070313-34.007813 1.765625-44.792969 14.992187-10.78125 13.226563-12.984375 31.480469-5.65625 46.894531 7.328125 15.410157 22.875 25.226563 39.941406 25.214844h23.511719c3.867188 0 7 3.132813 7 7 0 3.863282-3.132812 7-7 7h-23.515625c-31.960937-.265625-57.730468-26.25-57.730468-58.210937 0-31.960938 25.769531-57.945313 57.730468-58.210938 2.136719.003907 4.273438.128907 6.398438.375 6.574218-32.457031 29.265625-59.308593 60.167968-71.210937l10.675782-70.1875c-3.660156-2.929688-7.160156-6.058594-10.484375-9.371094-17.234375-17.191406-29.160157-38.976562-34.359375-62.761719-.824219-3.777343 1.570312-7.507812 5.347656-8.332031s7.507812 1.570312 8.332031 5.347656c8.617188 39.238282 37.351563 70.984375 75.535157 83.453125 38.1875 12.46875 80.121093 3.796875 110.230468-22.796875l-137.023437-137.027344c-26.992188 32.171876-24.953125 79.628907 4.699219 109.367188 2.734374 2.734375 2.738281 7.167969.003906 9.90625-2.734375 2.734375-7.167969 2.738281-9.90625.003906-35.101563-35.207031-37.148438-91.511718-4.699219-129.175781l-13.0625-13.066406c-18.960937 21.304687-29.105469 49.023437-28.367187 77.53125.082031 3.867187-2.980469 7.066406-6.84375 7.152343h-.15625c-3.804688 0-6.914063-3.039062-6.996094-6.84375-.890625-34.753906 12.589844-68.339843 37.265625-92.832031 1.3125-1.3125 3.09375-2.050781 4.949219-2.050781 1.859374 0 3.640624.738281 4.953124 2.050781l69.359376 69.363281 42.679687-36.078124c-.242187-1.503907-.367187-3.023438-.378906-4.542969-.003907-12.042969 7.253906-22.902344 18.378906-27.511719 11.128906-4.609375 23.9375-2.0625 32.453125 6.453125 2.730469 2.734375 2.730469 7.167969 0 9.902344-2.734375 2.734375-7.167969 2.734375-9.902344 0-5.09375-5.09375-12.992187-6.085938-19.191406-2.414063-6.195312 3.671875-9.117188 11.078125-7.097656 17.992188 2.023437 6.914062 8.46875 11.582031 15.671875 11.339844 7.199219-.242188 13.320312-5.332032 14.871093-12.367188.496094-2.480469 2.289063-4.503906 4.695313-5.285156 2.40625-.785156 5.050781-.207032 6.910156 1.507812 1.863281 1.714844 2.652344 4.300782 2.070313 6.761719-2.339844 10.625-10.285156 19.125-20.726563 22.183594-10.4375 3.054687-21.714843.175781-29.414062-7.507813-.933594-.949218-1.808594-1.957031-2.609375-3.023437l-38.480469 32.523437 11.601563 11.601563 26.628906-31.503907c2.496094-2.953124 6.914062-3.324218 9.863281-.828124 2.953125 2.496093 3.324219 6.914062.828125 9.867187l-27.390625 32.398437 69.359375 69.351563c1.3125 1.3125 2.050781 3.09375 2.050781 4.953125 0 1.855469-.738281 3.636719-2.050781 4.949219-41.707031 41.6875-106.574219 49.296875-156.800781 18.398437l-8.640625 56.789063c15.589844-3.394531 31.789062-2.785157 47.082031 1.769531l-3.578125-23.503906c-.394531-2.484375.566406-4.988282 2.527344-6.5625 1.957031-1.574219 4.609375-1.976563 6.949218-1.058594 2.339844.921875 4.003907 3.023438 4.363282 5.511719l4.773437 31.367187c22.707031 10.953125 40.253907 30.324219 48.914063 54 25.332031-11.320312 55-6.121094 74.972656 13.132813 19.972656 19.257812 26.253906 48.714843 15.867188 74.441406-10.386719 25.730469-35.359376 42.570313-63.101563 42.5625h-125.601563c-3.867187 0-7-3.132813-7-7s3.132813-7 7-7h125.601563c29.835937-.042969 54.007813-24.226563 54.03125-54.0625zm-224.574219 54.046875c-3.863281 0-7 3.132812-7 7s3.136719 7 7 7h14.625c3.867188 0 7-3.132812 7-7s-3.132812-7-7-7zm0 0" fill="#002d42"/></svg>