<svg height="461pt" viewBox="-102 0 461 461.784" width="461pt" xmlns="http://www.w3.org/2000/svg"><path d="m40.652344 7h175.609375c18.367187 0 33.257812 14.890625 33.257812 33.261719v381.261719c0 18.371093-14.890625 33.261718-33.257812 33.261718h-175.609375c-18.371094 0-33.261719-14.890625-33.261719-33.261718v-381.261719c0-18.371094 14.890625-33.261719 33.261719-33.261719zm0 0" fill="#d9ecf2"/><path d="m216.261719 7h-21.707031c18.371093 0 33.261718 14.890625 33.261718 33.261719v381.261719c0 18.371093-14.890625 33.261718-33.261718 33.261718h21.707031c18.367187 0 33.257812-14.890625 33.257812-33.261718v-381.265626c0-18.371093-14.890625-33.257812-33.257812-33.257812zm0 0" fill="#bdd9e5"/><path d="m157.65625 332.375v-212.953125c0-16.128906-13.074219-29.203125-29.199219-29.203125-16.128906 0-29.199219 13.074219-29.199219 29.203125v212.953125c-19.117187 12.855469-27.589843 36.691406-20.871093 58.722656 6.71875 22.035156 27.046875 37.089844 50.082031 37.089844s43.367188-15.054688 50.085938-37.089844c6.71875-22.03125-1.753907-45.867187-20.871094-58.722656zm0 0" fill="#fabe02"/><path d="m143.578125 350.246094v-128.628906c0-3.867188-3.132813-7-7-7-3.863281 0-7 3.132812-7 7v128.628906c-12.824219 3.507812-21.074219 15.960937-19.304687 29.136718 1.765624 13.179688 13.011718 23.011719 26.304687 23.011719 13.296875 0 24.542969-9.832031 26.308594-23.011719 1.769531-13.175781-6.480469-25.628906-19.308594-29.136718zm0 0" fill="#f59a1d"/><path d="m90.660156 375.820312c-.011718-17.4375 8.667969-33.730468 23.144532-43.453124v-212.945313c.007812-13.324219 9.03125-24.949219 21.929687-28.265625-8.742187-2.289062-18.050781-.382812-25.195313 5.152344-7.144531 5.535156-11.3125 14.074218-11.28125 23.113281v212.953125c-20.421874 13.511719-28.71875 39.398438-19.957031 62.261719 8.761719 22.867187 32.230469 36.582031 56.453125 32.988281-25.847656-3.609375-45.085937-25.707031-45.09375-51.804688zm0 0" fill="#f59a1d"/><path d="m128.457031 382.832031c-3.867187 0-7-3.132812-7-7v-154.214843c0-3.867188 3.132813-7 7-7 3.863281 0 7 3.132812 7 7v154.203124c.003907 1.859376-.734375 3.640626-2.046875 4.957032s-3.09375 2.054687-4.953125 2.054687zm0 0" fill="#d8283f"/><path d="m155 375.828125c0 14.660156-11.882812 26.542969-26.542969 26.542969-14.660156 0-26.546875-11.882813-26.546875-26.542969s11.886719-26.542969 26.546875-26.542969c14.660157 0 26.542969 11.882813 26.542969 26.542969zm0 0" fill="#ff414d"/><path d="m128.457031 349.285156c-1.722656 0-3.441406.167969-5.128906.503906 12.441406 2.449219 21.414063 13.359376 21.414063 26.039063s-8.972657 23.589844-21.414063 26.039063c9.914063 1.960937 20.078125-1.878907 26.222656-9.902344 6.144531-8.023438 7.199219-18.839844 2.722657-27.898438-4.480469-9.058594-13.710938-14.789062-23.816407-14.78125zm0 0" fill="#d8283f"/><g fill="#002d42"><path d="m68.371094 105.71875h-19.015625c-3.867188 0-7-3.132812-7-7 0-3.863281 3.132812-7 7-7h19.019531c3.867188 0 7 3.136719 7 7 0 3.867188-3.132812 7-7 7zm0 0"/><path d="m68.371094 136.445312h-19.015625c-3.867188 0-7-3.136718-7-7 0-3.867187 3.132812-7 7-7h19.019531c3.867188 0 7 3.132813 7 7 0 3.863282-3.132812 7-7 7zm0 0"/><path d="m68.371094 167.167969h-19.015625c-3.867188 0-7-3.132813-7-7 0-3.867188 3.132812-7 7-7h19.019531c3.867188 0 7 3.132812 7 7 0 3.867187-3.132812 7-7 7zm0 0"/><path d="m68.371094 197.886719h-19.015625c-3.867188 0-7-3.132813-7-7 0-3.863281 3.132812-7 7-7h19.019531c3.867188 0 7 3.136719 7 7 0 3.867187-3.132812 7-7 7zm0 0"/><path d="m68.371094 228.621094h-19.015625c-3.867188 0-7-3.136719-7-7 0-3.867188 3.132812-7 7-7h19.019531c3.867188 0 7 3.132812 7 7 0 3.863281-3.132812 7-7 7zm0 0"/><path d="m68.371094 259.335938h-19.015625c-3.867188 0-7-3.132813-7-7 0-3.867188 3.132812-7 7-7h19.019531c3.867188 0 7 3.132812 7 7 0 3.867187-3.132812 7-7 7zm0 0"/><path d="m68.371094 290.058594h-19.015625c-3.867188 0-7-3.132813-7-7 0-3.863282 3.132812-7 7-7h19.019531c3.867188 0 7 3.136718 7 7 0 3.867187-3.132812 7-7 7zm0 0"/><path d="m68.371094 320.789062h-19.015625c-3.867188 0-7-3.136718-7-7 0-3.867187 3.132812-7 7-7h19.019531c3.867188 0 7 3.132813 7 7 0 3.863282-3.132812 7-7 7zm0 0"/></g><path d="m217.960938 98.71875c0 9.574219-7.761719 17.332031-17.332032 17.332031-9.574218 0-17.332031-7.757812-17.332031-17.332031 0-9.570312 7.757813-17.332031 17.332031-17.332031 9.570313 0 17.332032 7.761719 17.332032 17.332031zm0 0" fill="#ff414d"/><path d="m200.628906 81.386719c-1.789062.023437-3.558594.328125-5.253906.898437 7.207031 2.226563 12.117188 8.890625 12.117188 16.429688 0 7.542968-4.910157 14.203125-12.117188 16.433594 1.695312.570312 3.464844.871093 5.253906.894531 9.46875-.144531 17.066406-7.859375 17.066406-17.328125s-7.597656-17.1875-17.066406-17.332032zm0 0" fill="#d8283f"/><path d="m88.355469 36.21875c.296875-8.226562 7.054687-14.746094 15.289062-14.746094s14.992188 6.519532 15.292969 14.746094c-.300781 8.230469-7.058594 14.75-15.292969 14.75s-14.992187-6.519531-15.289062-14.75zm23.296875 0c-.15625-4.394531-3.816406-7.847656-8.214844-7.746094-4.398438.105469-7.894531 3.722656-7.84375 8.121094s3.628906 7.941406 8.027344 7.941406c4.488281-.132812 8.054687-3.824218 8.035156-8.316406zm0 0" fill="#002d42"/><path d="m123.101562 49.683594c.445313-14.097656 12.050782-25.265625 26.15625-25.175782 7.328126.015626 14.332032 3.039063 19.367188 8.367188l-8.867188 7.878906c-2.527343-3.25-6.386718-5.179687-10.5-5.25-7.667968.257813-13.753906 6.546875-13.753906 14.21875s6.085938 13.964844 13.753906 14.222656c4.132813-.070312 8.015626-1.996093 10.570313-5.25l8.800781 7.800782c-5.007812 5.375-12.023437 8.433594-19.367187 8.441406-14.121094.054688-25.71875-11.140625-26.160157-25.253906zm0 0" fill="#002d42"/><path d="m.390625 389.21875c0-3.863281 3.136719-7 7-7 3.867187 0 7 3.136719 7 7v32.300781c.015625 14.496094 11.761719 26.242188 26.257813 26.261719h175.597656c14.496094-.019531 26.242187-11.765625 26.257812-26.261719v-320.042969c0-3.867187 3.132813-7 7-7 3.867188 0 7 3.132813 7 7v320.046876c-.023437 22.222656-18.03125 40.234374-40.257812 40.261718h-175.597656c-22.222657-.027344-40.230469-18.039062-40.257813-40.261718zm0-75.429688c0 3.863282 3.136719 7 7 7 3.867187 0 7-3.136718 7-7v-273.53125c.015625-14.496093 11.761719-26.242187 26.257813-26.257812h175.597656c14.496094.015625 26.242187 11.761719 26.257812 26.257812v30.964844c0 3.867188 3.132813 7 7 7 3.867188 0 7-3.132812 7-7v-30.964844c-.027344-22.21875-18.027344-40.226562-40.242187-40.257812h-175.601563c-22.226562.0195312-40.242187 18.03125-40.269531 40.257812zm0 41.867188c0 3.867188 3.136719 7 7 7 3.867187 0 7-3.132812 7-7v-19.519531c0-3.867188-3.132813-7-7-7-3.863281 0-7 3.132812-7 7zm128.066406 79.53125c25.414063.003906 48.015625-16.171875 56.203125-40.230469 8.191406-24.0625.152344-50.667969-19.988281-66.167969v-179.257812c0-3.867188-3.132813-7-7-7s-7 3.132812-7 7v182.84375c0 2.328125 1.15625 4.503906 3.089844 5.804688 16.5625 11.132812 23.902343 31.785156 18.082031 50.875-5.820312 19.089843-23.429688 32.132812-43.386719 32.132812s-37.570312-13.042969-43.390625-32.132812c-5.820312-19.089844 1.523438-39.742188 18.085938-50.875 1.929687-1.300782 3.089844-3.476563 3.085937-5.804688v-212.953125c.164063-12.152344 10.0625-21.917969 22.214844-21.917969s22.050781 9.765625 22.214844 21.917969c0 3.863281 3.132812 7 7 7 3.867187 0 7-3.136719 7-7-.207031-19.855469-16.359375-35.835937-36.214844-35.835937-19.851563 0-36.003906 15.980468-36.214844 35.835937v209.359375c-20.144531 15.5-28.1875 42.109375-19.996093 66.171875 8.1875 24.066406 30.792968 40.242187 56.214843 40.234375zm7-213.574219v121.40625c16.785157 3.582031 28.164063 19.257813 26.363281 36.328125-1.800781 17.070313-16.199218 30.03125-33.363281 30.03125-17.167969 0-31.5625-12.960937-33.363281-30.03125-1.800781-17.070312 9.574219-32.746094 26.363281-36.328125v-121.402343c0-3.867188 3.132813-7 7-7 3.863281 0 7 3.132812 7 7zm-7 134.671875c-10.792969 0-19.542969 8.75-19.542969 19.542969.003907 10.792969 8.75 19.542969 19.542969 19.542969s19.542969-8.746094 19.546875-19.539063c-.011718-10.789062-8.757812-19.535156-19.546875-19.546875zm-79.101562-250.566406h19.019531c3.867188 0 7-3.132812 7-7 0-3.863281-3.132812-7-7-7h-19.019531c-3.867188 0-7 3.136719-7 7 0 3.867188 3.132812 7 7 7zm0 30.726562h19.019531c3.867188 0 7-3.136718 7-7 0-3.867187-3.132812-7-7-7h-19.019531c-3.867188 0-7 3.132813-7 7 0 3.863282 3.132812 7 7 7zm0 30.722657h19.019531c3.867188 0 7-3.132813 7-7 0-3.867188-3.132812-7-7-7h-19.019531c-3.867188 0-7 3.132812-7 7 0 3.867187 3.132812 7 7 7zm0 30.722656h19.019531c3.867188 0 7-3.132813 7-7 0-3.863281-3.132812-7-7-7h-19.019531c-3.867188 0-7 3.136719-7 7 0 3.867187 3.132812 7 7 7zm0 30.730469h19.019531c3.867188 0 7-3.136719 7-7 0-3.867188-3.132812-7-7-7h-19.019531c-3.867188 0-7 3.132812-7 7 0 3.863281 3.132812 7 7 7zm0 30.722656h19.019531c3.867188 0 7-3.132812 7-7s-3.132812-7-7-7h-19.019531c-3.867188 0-7 3.132812-7 7s3.132812 7 7 7zm0 30.722656h19.019531c3.867188 0 7-3.132812 7-7 0-3.863281-3.132812-7-7-7h-19.019531c-3.867188 0-7 3.136719-7 7 0 3.867188 3.132812 7 7 7zm0 30.730469h19.019531c3.867188 0 7-3.136719 7-7 0-3.867187-3.132812-7-7-7h-19.019531c-3.867188 0-7 3.132813-7 7 0 3.863281 3.132812 7 7 7zm151.273437-197.75c-13.441406 0-24.332031-10.894531-24.332031-24.332031s10.894531-24.332032 24.332031-24.332032c13.441406.003907 24.332032 10.898438 24.332032 24.335938-.015626 13.433594-10.902344 24.316406-24.332032 24.328125zm0-14c5.707032 0 10.332032-4.625 10.332032-10.332031 0-5.707032-4.628907-10.332032-10.335938-10.332032-5.707031.003907-10.332031 4.628907-10.328125 10.335938.007813 5.703125 4.628906 10.324219 10.332031 10.328125zm-112.273437-72.828125c.296875-8.226562 7.054687-14.746094 15.289062-14.746094s14.992188 6.519532 15.292969 14.746094c-.300781 8.230469-7.058594 14.75-15.292969 14.75s-14.992187-6.519531-15.289062-14.75zm7.246093 0c.132813 4.402344 3.785157 7.878906 8.191407 7.789062 4.402343-.089843 7.914062-3.710937 7.867187-8.117187-.046875-4.402344-3.632812-7.949219-8.035156-7.945313-4.472656.140626-8.023438 3.800782-8.027344 8.273438zm53.65625-.714844c4.113282.070313 7.972657 2.003906 10.5 5.253906l8.867188-7.878906c-5.035156-5.328125-12.039062-8.355468-19.367188-8.371094-14.109374-.097656-25.722656 11.074219-26.167968 25.175782.441406 14.117187 12.042968 25.3125 26.167968 25.253906 7.34375-.007812 14.359376-3.066406 19.367188-8.441406l-8.800781-7.800782c-2.554688 3.25-6.433594 5.179688-10.566407 5.25-7.667968-.257812-13.753906-6.550781-13.753906-14.222656s6.085938-13.960937 13.753906-14.21875zm0 0" fill="#002d42"/></svg>