<svg height="444pt" viewBox="0 -112 444.56371 444" width="444pt" xmlns="http://www.w3.org/2000/svg"><path d="m393.960938 110.976562c3.328124-26.070312-9.507813-51.550781-32.441407-64.390624-22.929687-12.84375-51.363281-10.472657-71.851562 5.992187-22.6875-33.546875-62.929688-50.679687-102.835938-43.785156-39.902343 6.894531-72.0625 36.539062-82.175781 75.75-25.105469-12.292969-55.179688-7.925781-75.75 11-20.570312 18.921875-27.421875 48.53125-17.257812 74.570312 10.160156 26.035157 35.257812 43.171875 63.210937 43.160157h311.199219c26.898437.03125 49.28125-20.660157 51.359375-47.476563s-16.855469-50.707031-43.433594-54.816406zm0 0" fill="#d9ecf2"/><g fill="#bdd9e5"><path d="m393.960938 110.976562c2.453124-18.390624-3.179688-36.945312-15.445313-50.867187-12.265625-13.925781-29.957031-21.855469-48.511719-21.746094-6.921875.007813-13.792968 1.136719-20.351562 3.339844 29.328125 9.5625 47.652344 38.695313 43.570312 69.273437 26.582032 4.109376 45.511719 28 43.433594 54.816407-2.078125 26.816406-24.460938 47.507812-51.359375 47.476562h40.742187c26.898438.03125 49.28125-20.660156 51.359376-47.476562 2.074218-26.816407-16.855469-50.707031-43.4375-54.816407zm0 0"/><path d="m259.980469 64.476562c8.367187-3.886718 22.617187-9.464843 29.6875-11.902343-3.28125-4.695313-6.890625-9.152344-10.800781-13.335938-24.289063-25.65625-60.101563-36.953125-94.710938-29.882812 26.855469 5.433593 60.601562 20.597656 75.824219 55.121093zm0 0"/><path d="m78.851562 77.695312c2.894532 21.367188 12.507813 41.257813 27.445313 56.800782-4.492187-16.289063-5.058594-33.417969-1.640625-49.96875-8.0625-3.96875-16.835938-6.292969-25.804688-6.832032zm0 0"/></g><path d="m323.003906 38.363281c0-3.863281 3.132813-7 7-7 9.023438-.011719 17.964844 1.6875 26.355469 5.011719 3.59375 1.425781 5.351563 5.496094 3.925781 9.089844-1.421875 3.59375-5.492187 5.351562-9.085937 3.925781-6.746094-2.671875-13.941407-4.039063-21.199219-4.027344-3.867188 0-6.996094-3.132812-6.996094-7zm-248.144531 181.914063h311.199219c29.296875.023437 54.089844-21.644532 57.984375-50.679688 3.898437-29.039062-14.300781-56.476562-42.570313-64.175781.039063-.863281.058594-1.703125.058594-2.535156.058594-19.144531-7.617188-37.503907-21.285156-50.910157-2.75-2.714843-7.183594-2.6875-9.898438.0625-2.71875 2.753907-2.6875 7.183594.0625 9.902344 12.851563 12.519532 19.011719 30.382813 16.613282 48.164063-.472657 3.757812 2.128906 7.210937 5.871093 7.792969 22.984375 3.53125 39.359375 24.183593 37.5625 47.367187-1.796875 23.1875-21.164062 41.066406-44.417969 41.011719h-311.199218c-24.609375-.007813-46.792969-14.835938-56.207032-37.574219-9.410156-22.738281-4.203124-48.90625 13.203126-66.304687 2.734374-2.734376 2.734374-7.167969 0-9.902344-2.734376-2.734375-7.167969-2.734375-9.902344 0-21.414063 21.40625-27.824219 53.601562-16.238282 81.574218 11.585938 27.976563 38.886719 46.210938 69.164063 46.207032zm129.546875-206c31.855469.011718 61.628906 15.832031 79.46875 42.222656 1.097656 1.617188 2.820312 2.699219 4.75 2.992188 1.933594.289062 3.898438-.242188 5.421875-1.464844 4.519531-3.632813 9.566406-6.5625 14.960937-8.691406 3.539063-1.453126 5.257813-5.480469 3.855469-9.042969-1.402343-3.558594-5.40625-5.335938-8.988281-3.980469-4.417969 1.742188-8.652344 3.921875-12.640625 6.503906-24.832031-31.984375-65.226563-47.738281-105.15625-41.003906s-72.925781 34.863281-85.894531 73.21875c-16.671875-6.007812-34.929688-5.914062-51.535156.265625-3.621094 1.355469-5.460938 5.390625-4.105469 9.007813 1.355469 3.621093 5.390625 5.460937 9.011719 4.105468 13.988281-5.175781 29.386718-5.03125 43.277343.398438-2.539062 15.996094-1.574219 32.355468 2.835938 47.941406 1.222656 3.664062 5.191406 5.644531 8.855469 4.421875 3.667968-1.226563 5.648437-5.191406 4.421874-8.859375-4.046874-15.078125-4.550781-30.886719-1.472656-46.191406 10.980469-42.332032 49.203125-71.878906 92.933594-71.84375zm0 0" fill="#002d42"/></svg>