<svg height="482pt" viewBox="0 -32 482.16 482" width="482pt" xmlns="http://www.w3.org/2000/svg"><path d="m419.851562 177.972656c0 63.839844-51.75 115.589844-115.589843 115.589844-63.839844 0-115.59375-51.75-115.59375-115.589844s51.753906-115.59375 115.59375-115.59375c63.839843 0 115.589843 51.753906 115.589843 115.59375zm0 0" fill="#fabe02"/><path d="m304.273438 62.363281c-5.421876.007813-10.835938.390625-16.207032 1.152344 57.011719 8.066406 99.386719 56.863281 99.386719 114.441406 0 57.574219-42.375 106.371094-99.386719 114.4375 42.851563 6.140625 85.539063-12.175781 110.617188-47.460937 25.078125-35.28125 28.339844-81.621094 8.457031-120.070313s-59.582031-62.570312-102.867187-62.5zm0 0" fill="#f59a1d"/><path d="m350.746094 197.824219c-15.613282-.011719-30.765625 5.324219-42.925782 15.121093-26.09375-38.566406-73.699218-56.441406-118.722656-44.582031-.261718 3.171875-.429687 6.371094-.429687 9.601563.007812 53.792968 37.121093 100.472656 89.527343 112.605468 52.40625 12.132813 106.257813-13.488281 129.90625-61.804687-12.683593-19.320313-34.246093-30.949219-57.355468-30.941406zm0 0" fill="#f59a1d"/><g fill="#fabe02"><path d="m304.273438 42.171875c-3.867188 0-7-3.132813-7-7v-28.09375c0-3.863281 3.132812-7 7-7 3.863281 0 7 3.136719 7 7v28.085937c0 1.859376-.734376 3.640626-2.050782 4.953126-1.3125 1.316406-3.09375 2.054687-4.949218 2.054687zm0 0"/><path d="m232.863281 61.304688c-2.503906 0-4.816406-1.332032-6.066406-3.5l-14.042969-24.328126c-1.902344-3.34375-.75-7.597656 2.582032-9.523437 3.332031-1.921875 7.59375-.796875 9.539062 2.523437l14.046875 24.328126c1.246094 2.164062 1.246094 4.832031-.003906 6.996093-1.25 2.164063-3.554688 3.5-6.054688 3.503907zm0 0"/><path d="m180.585938 113.5625c-1.234376.007812-2.445313-.316406-3.515626-.929688l-24.328124-14.042968c-2.183594-1.242188-3.53125-3.558594-3.539063-6.070313-.003906-2.511719 1.335937-4.835937 3.515625-6.085937 2.175781-1.25 4.859375-1.238282 7.023438.03125l24.328124 14.042968c2.746094 1.582032 4.085938 4.816407 3.265626 7.878907-.820313 3.0625-3.597657 5.1875-6.769532 5.183593zm0 0"/><path d="m427.9375 113.5625c-3.171875.007812-5.949219-2.121094-6.773438-5.183594-.820312-3.0625.515626-6.292968 3.265626-7.878906l24.328124-14.042969c3.34375-1.902343 7.597657-.75 9.519532 2.585938 1.925781 3.332031.796875 7.589843-2.519532 9.535156l-24.328124 14.046875c-1.0625.613281-2.265626.9375-3.492188.9375zm0 0"/><path d="m375.65625 61.304688c-2.5-.003907-4.804688-1.339844-6.054688-3.503907-1.25-2.164062-1.25-4.832031 0-6.996093l14.042969-24.328126c1.242188-2.183593 3.558594-3.535156 6.070313-3.539062 2.511718-.007812 4.832031 1.332031 6.085937 3.511719 1.25 2.179687 1.238281 4.859375-.03125 7.027343l-14.046875 24.328126c-1.25 2.167968-3.5625 3.503906-6.066406 3.5zm0 0"/><path d="m304.273438 355.863281c-3.867188 0-7-3.132812-7-7v-28.097656c0-3.867187 3.132812-7 7-7 3.863281 0 7 3.132813 7 7v28.085937c0 1.859376-.734376 3.644532-2.046876 4.957032-1.3125 1.316406-3.097656 2.054687-4.953124 2.054687zm0 0"/><path d="m475.152344 184.972656h-28.082032c-3.863281 0-7-3.132812-7-7 0-3.867187 3.136719-7 7-7h28.089844c3.867188 0 7 3.132813 7 7 0 3.867188-3.132812 7-7 7zm0 0"/><path d="m161.472656 184.972656h-28.105468c-3.863282 0-7-3.132812-7-7 0-3.867187 3.136718-7 7-7h28.105468c3.867188 0 7 3.132813 7 7 0 3.867188-3.132812 7-7 7zm0 0"/><path d="m389.710938 332.972656c-2.503907.003906-4.820313-1.332031-6.070313-3.5l-14.042969-24.328125c-1.273437-2.167969-1.285156-4.847656-.03125-7.027343 1.25-2.179688 3.570313-3.519532 6.082032-3.511719 2.511718.003906 4.828124 1.355469 6.070312 3.539062l14.046875 24.328125c1.246094 2.164063 1.246094 4.832032-.003906 6.996094-1.246094 2.164062-3.554688 3.5-6.054688 3.503906zm0 0"/><path d="m452.246094 270.421875c-1.222656-.003906-2.429688-.328125-3.488282-.941406l-24.328124-14.042969c-2.183594-1.242188-3.535157-3.558594-3.542969-6.070312-.003907-2.511719 1.335937-4.835938 3.515625-6.085938 2.175781-1.25 4.859375-1.238281 7.027344.03125l24.328124 14.042969c2.746094 1.585937 4.085938 4.816406 3.261719 7.878906-.820312 3.0625-3.601562 5.191406-6.773437 5.1875zm0 0"/><path d="m156.273438 270.421875c-3.171876 0-5.949219-2.125-6.769532-5.1875-.820312-3.0625.519532-6.292969 3.265625-7.878906l24.300781-14.042969c2.167969-1.269531 4.851563-1.28125 7.027344-.03125 2.179688 1.25 3.519532 3.574219 3.515625 6.085938-.007812 2.511718-1.359375 4.828124-3.542969 6.070312l-24.328124 14.042969c-1.054688.613281-2.25.933593-3.46875.941406zm0 0"/><path d="m218.808594 332.972656c-2.5-.003906-4.804688-1.339844-6.054688-3.503906s-1.25-4.832031 0-6.996094l14.042969-24.328125c1.242187-2.183593 3.558594-3.535156 6.070313-3.539062 2.511718-.007813 4.832031 1.332031 6.082031 3.511719 1.253906 2.179687 1.242187 4.859374-.027344 7.027343l-14.046875 24.328125c-1.25 2.167969-3.5625 3.5-6.066406 3.5zm0 0"/></g><path d="m418.820312 301.5625c3.542969-27.746094-10.117187-54.867188-34.527343-68.535156-24.40625-13.664063-54.667969-11.144532-76.472657 6.375-24.148437-35.699219-66.980468-53.929688-109.449218-46.585938-42.472656 7.339844-76.695313 38.894532-87.460938 80.628906-26.714844-13.082031-58.71875-8.429687-80.609375 11.710938s-29.183593 51.648438-18.367187 79.355469c10.8125 27.710937 37.519531 45.949219 67.265625 45.941406h331.199219c28.671874.09375 52.5625-21.949219 54.773437-50.535156 2.210937-28.585938-18.007813-54.039063-46.351563-58.355469zm0 0" fill="#26a3b9"/><path d="m418.820312 301.5625c2.609376-19.574219-3.386718-39.320312-16.441406-54.136719-13.050781-14.820312-31.882812-23.257812-51.632812-23.140625-7 .011719-13.957032 1.101563-20.625 3.230469 31.6875 9.875 51.644531 41.148437 47.253906 74.046875 28.289062 4.378906 48.429688 29.804688 46.21875 58.34375-2.207031 28.535156-26.027344 50.554688-54.648438 50.527344h41.441407c28.625.027344 52.441406-21.992188 54.652343-50.527344 2.210938-28.539062-17.933593-53.964844-46.21875-58.34375zm0 0" fill="#168aa5"/><path d="m79.625 266.042969c5.597656 45 33.035156 60.582031 33.035156 60.582031-4.789062-17.34375-5.386718-35.578125-1.75-53.199219-9.734375-4.792969-20.433594-7.316406-31.285156-7.382812zm0 0" fill="#168aa5"/><path d="m417.671875 131.347656c2 4.859375 3.679687 9.839844 5.035156 14.917969.722657 2.441406.058594 5.082031-1.726562 6.894531-1.789063 1.8125-4.417969 2.511719-6.871094 1.828125-2.449219-.6875-4.335937-2.648437-4.925781-5.125-1.203125-4.488281-2.691406-8.898437-4.457032-13.199219-1.003906-2.324218-.679687-5.007812.855469-7.023437 1.53125-2.011719 4.035157-3.042969 6.539063-2.691406 2.507812.351562 4.628906 2.027343 5.550781 4.386719zm-113.398437-45.824218c-3.867188 0-7 3.132812-7 7 0 3.867187 3.132812 7 7 7 28.011718.066406 53.882812 15.007812 67.9375 39.242187 1.964843 3.289063 6.203124 4.390625 9.519531 2.46875 3.3125-1.917969 4.472656-6.140625 2.597656-9.480469-16.566406-28.550781-47.046875-46.15625-80.054687-46.230468zm-7-78.449219v28.089843c0 3.867188 3.132812 7 7 7 3.863281 0 7-3.132812 7-7v-28.085937c0-3.863281-3.136719-7-7-7-3.867188 0-7 3.136719-7 7zm-81.957032 16.835937c-3.351562 1.933594-4.5 6.21875-2.5625 9.566406l14.042969 24.328126c1.242187 2.183593 3.558594 3.535156 6.070313 3.539062 2.511718.007812 4.832031-1.335938 6.082031-3.511719 1.253906-2.179687 1.242187-4.859375-.027344-7.027343l-14.046875-24.328126c-1.929688-3.347656-6.210938-4.496093-9.558594-2.566406zm-34.730468 89.652344c3.167968.003906 5.945312-2.121094 6.765624-5.183594.820313-3.0625-.515624-6.296875-3.261718-7.878906l-24.328125-14.042969c-2.167969-1.269531-4.851563-1.285156-7.027344-.03125-2.179687 1.25-3.519531 3.574219-3.515625 6.085938.007812 2.511719 1.359375 4.828125 3.542969 6.066406l24.308593 14.054687c1.070313.613282 2.28125.9375 3.515626.929688zm277.734374-24.546875c-1.933593-3.347656-6.214843-4.496094-9.5625-2.5625l-24.328124 14.042969c-2.183594 1.242187-3.535157 3.558594-3.542969 6.070312-.003907 2.511719 1.335937 4.832032 3.515625 6.085938 2.175781 1.25 4.859375 1.238281 7.027344-.03125l24.328124-14.046875c3.339844-1.929688 4.488282-6.203125 2.5625-9.550781zm-86.160156-28.652344c1.609375.929688 3.519532 1.183594 5.3125.703125 1.796875-.480468 3.324219-1.65625 4.25-3.265625l14.046875-24.328125c1.269531-2.167968 1.28125-4.847656.03125-7.027344-1.253906-2.179687-3.574219-3.519531-6.085937-3.511718-2.511719.003906-4.828125 1.355468-6.070313 3.539062l-14.042969 24.328125c-1.9375 3.347657-.789062 7.628907 2.558594 9.5625zm102.992188 110.609375h-28.082032c-3.863281 0-7 3.132813-7 7 0 3.867188 3.136719 7 7 7h28.089844c3.867188 0 7-3.132812 7-7 0-3.867187-3.132812-7-7-7zm-341.785156 0c-3.863282 0-7 3.132813-7 7 0 3.867188 3.136718 7 7 7h28.105468c3.867188 0 7-3.132812 7-7 0-3.867187-3.132812-7-7-7zm322.402343 86.398438-24.328125-14.042969c-2.167968-1.269531-4.851562-1.28125-7.027344-.03125-2.179687 1.25-3.519531 3.574219-3.515624 6.085937.007812 2.511719 1.359374 4.828126 3.542968 6.070313l24.328125 14.042969c3.34375 1.902344 7.597657.746094 9.519531-2.585938 1.925782-3.332031.796876-7.59375-2.519531-9.539062zm-376.570312 160.078125h112.46875c3.867187 0 7-3.136719 7-7 0-3.867188-3.132813-7-7-7h-112.46875c-36.007813 0-65.199219-29.191407-65.199219-65.203125 0-36.007813 29.191406-65.199219 65.199219-65.199219 8.183593.019531 16.285156 1.601563 23.871093 4.664063-2.75 17.058593-1.746093 34.511718 2.949219 51.136718 1.226563 3.667969 5.191407 5.648438 8.859375 4.421875 3.667969-1.222656 5.644532-5.191406 4.421875-8.859375-4.328125-16.121094-4.867187-33.027344-1.566406-49.390625 10.136719-39.019531 42.1875-68.488281 81.917969-75.316406 39.734375-6.832031 79.785156 10.242187 102.367187 43.640625 1.097657 1.617188 2.820313 2.703125 4.753907 2.996094 1.933593.289062 3.898437-.242188 5.421874-1.464844 10.90625-8.824219 24.519532-13.617188 38.546876-13.574219 17.738281-.109375 34.652343 7.472657 46.375 20.785157 11.722656 13.3125 17.105468 31.046874 14.753906 48.628906-.464844 3.753906 2.136718 7.199218 5.871094 7.78125 7.617187 1.191406 14.835937 4.199218 21.046874 8.769531 3.113282 2.199219 7.414063 1.503906 9.675782-1.566406 2.261718-3.066407 1.652344-7.382813-1.371094-9.703125-6.238281-4.589844-13.273438-7.972656-20.753906-9.976563.050781-1.039062.074218-2.050781.074218-3.050781 0-18.226562-6.613281-35.832031-18.613281-49.546875 12.453125-19.5625 19.066407-42.269531 19.050781-65.457031 0-3.867188-3.132812-7-7-7-3.867187 0-7 3.132812-7 7 .023438 19.582031-5.285156 38.804687-15.355468 55.597656-25.453125-20.164062-60.960938-21.75-88.113282-3.9375-26.589843-34.6875-70.425781-51.472656-113.382812-43.425781-.210938-2.757813-.332031-5.511719-.332031-8.226563.019531-47.402344 30.777343-89.316406 75.992187-103.550781s94.4375 2.503906 121.609375 41.347656c2.214844 3.164063 6.582031 3.933594 9.75 1.714844 3.164063-2.214844 3.933594-6.582031 1.714844-9.75-30.667969-43.851563-86.238281-62.742187-137.285156-46.671875-51.042969 16.066406-85.765625 63.386719-85.785157 116.902344 0 3.824218.257813 7.703125.628907 11.597656-35.777344 11.136719-64.007813 38.804688-75.867188 74.34375-8.714843-3.230469-17.933593-4.882812-27.226562-4.875-43.738281 0-79.199219 35.460938-79.199219 79.199219 0 43.742187 35.460938 79.203125 79.199219 79.203125zm392.996093-61.808594c.011719-8.042969-1.554687-16.007813-4.617187-23.445313-.910156-2.371093-3.03125-4.0625-5.546875-4.417968-2.515625-.359375-5.027344.671875-6.5625 2.695312-1.535156 2.023438-1.855469 4.722656-.832031 7.046875 6.03125 14.746094 4.324219 31.527344-4.554688 44.757813-8.878906 13.230468-23.761719 21.167968-39.695312 21.171875h-148.1875c-3.863281 0-7 3.132812-7 7 0 3.863281 3.136719 7 7 7h148.1875c34.121093-.039063 61.773437-27.6875 61.808593-61.808594zm-256.1875 47.808594c-3.867187 0-7 3.132812-7 7 0 3.863281 3.132813 7 7 7h20.089844c3.863282 0 7-3.136719 7-7 0-3.867188-3.136718-7-7-7zm0 0" fill="#002d42"/></svg>