<svg height="458pt" viewBox="0 -2 458.88 458" width="458pt" xmlns="http://www.w3.org/2000/svg"><path d="m7 242.328125c0 129.425781 31.789062 169.011719 31.789062 169.011719s7.691407-48.984375 40.449219-71.953125c10.199219 56.566406 74.480469 108.042969 156.824219 108.042969 125.535156 0 179.914062-36.082032 179.914062-36.082032-33.914062-2.554687-65.003906-27.230468-71.957031-40.449218 43.296875-22 107.851563-80.761719 107.851563-167.722657 0-129.421875-35.894532-169.011719-35.894532-169.011719s-7.691406 48.984376-40.453124 71.957032c-23.410157-43.664063-87.480469-98.691406-176.753907-98.691406-103.074219 0-159.980469 26.710937-159.980469 26.710937s58.925782 16.183594 71.949219 40.464844c0 0-103.738281 49.046875-103.738281 167.722656zm0 0" fill="#d9ecf2"/><path d="m117.484375 129.53125c-61.050781 61.050781-64.726563 94.71875-64.726563 94.71875s26.734376-19.476562 53.023438-14.859375c-21.878906 31.488281-15.828125 86.089844 23.011719 124.929687 59.199219 59.199219 101.882812 67.847657 101.882812 67.847657-14.800781-17.199219-17.816406-43.507813-14.859375-53.023438 30.800782 10.046875 88.96875 12.78125 130-28.238281 61.046875-61.050781 62.800782-96.65625 62.800782-96.65625s-26.738282 19.476562-53.023438 14.859375c9.546875-31.632813 5.277344-87.804687-36.835938-129.917969-48.636718-48.617187-88.082031-62.863281-88.082031-62.863281s20.167969 35.429687 14.859375 53.023437c0 0-72.070312-25.796874-128.050781 30.179688zm0 0" fill="#bdd9e5"/><path d="m126.039062 137.027344c-56.398437 56.402344-59.78125 87.480468-59.78125 87.480468s24.691407-18 48.96875-13.722656c-20.203124 29.085938-14.613281 79.511719 21.257813 115.386719 54.6875 54.6875 94.09375 62.660156 94.09375 62.660156-13.65625-15.902343-16.453125-40.203125-13.722656-49.003906 28.445312 9.28125 82.171875 11.804687 120.054687-26.082031 56.402344-56.402344 58-89.273438 58-89.273438s-24.691406 18-48.96875 13.722656c8.796875-29.199218 4.875-81.09375-34-120-44.929687-44.871093-81.363281-58.027343-81.363281-58.027343s18.628906 32.722656 13.726563 48.972656c0 0-66.566407-23.828125-118.265626 27.886719zm0 0" fill="#26a3b9"/><path d="m315.300781 224.492188c0 46.789062-37.929687 84.722656-84.722656 84.722656-46.789063 0-84.71875-37.933594-84.71875-84.722656 0-46.789063 37.929687-84.71875 84.71875-84.71875 46.792969 0 84.722656 37.929687 84.722656 84.71875zm0 0" fill="#168aa5"/><path d="m296.488281 224.492188c0 36.402343-29.507812 65.910156-65.910156 65.910156-36.398437 0-65.90625-29.507813-65.90625-65.910156 0-36.398438 29.507813-65.90625 65.90625-65.90625 36.402344 0 65.910156 29.507812 65.910156 65.90625zm0 0" fill="#d9ecf2"/><path d="m354.28125 373.296875c16.410156 17.394531 38.457031 28.402344 62.222656 31.0625 2.972656.234375 5.476563 2.324219 6.230469 5.210937.753906 2.886719-.40625 5.933594-2.886719 7.589844-2.292968 1.523438-57.601562 37.25-183.78125 37.25-51.199218 0-98.976562-19.246094-131.082031-52.800781-1.773437-1.796875-2.441406-4.414063-1.746094-6.839844.691407-2.429687 2.640625-4.296875 5.097657-4.882812 2.457031-.589844 5.042968.191406 6.761718 2.042969 29.476563 30.800781 73.570313 48.46875 120.96875 48.46875 82.53125 0 133.714844-15.8125 158.363282-26.15625-28.226563-8.699219-50.523438-28.554688-56.597657-40.117188-.871093-1.660156-1.039062-3.597656-.472656-5.382812.570313-1.785157 1.828125-3.265626 3.496094-4.117188 38.636719-19.625 104.023437-75.726562 104.023437-161.480469 0-85.414062-16-130.90625-26.070312-151.097656-5.3125 17.339844-16.703125 43.953125-39.261719 59.769531-1.636719 1.148438-3.691406 1.542969-5.636719 1.082032-1.949218-.464844-3.605468-1.738282-4.550781-3.5-5.257813-9.609376-11.574219-18.597657-18.828125-26.800782-2.539062-2.914062-2.234375-7.339844.679688-9.878906 2.914062-2.539062 7.335937-2.238281 9.878906.679688 6.074218 6.921874 11.574218 14.328124 16.441406 22.148437 24.980469-22.464844 31.464844-62.082031 31.535156-62.507813.425782-2.660156 2.335938-4.84375 4.917969-5.609374 2.582031-.769532 5.375.011718 7.183594 2.007812 1.539062 1.699219 37.710937 43.089844 37.710937 173.714844-.007812 87.476562-62.695312 146.167968-104.597656 170.144531zm-268.152344-35.152344c-.425781-2.347656-2.019531-4.320312-4.226562-5.230469-2.207032-.90625-4.726563-.628906-6.683594.742188-21.957031 15.398438-33.332031 41.019531-38.824219 58.367188-8.96875-21.042969-22.398437-66.445313-22.398437-149.695313 0-112.664063 98.746094-160.917969 99.742187-161.398437 1.730469-.824219 3.050781-2.316407 3.648438-4.136719.597656-1.820313.425781-3.808594-.480469-5.496094-9.355469-17.445313-37.316406-30.367187-56.796875-37.558594 24.183594-7.722656 71.628906-19.296875 138.65625-19.296875 32.914063-.105468 65.351563 7.875 94.457031 23.242188 3.425782 1.800781 7.660156.484375 9.460938-2.941406 1.796875-3.421876.480468-7.65625-2.945313-9.457032-31.113281-16.429687-65.785156-24.960937-100.96875-24.84375-103.445312 0-160.578125 26.253906-162.957031 27.375-2.652344 1.246094-4.246094 4.015625-3.996094 6.933594.25 2.921875 2.292969 5.375 5.121094 6.152344 13.90625 3.816406 49.265625 16.160156 63.488281 31.382812-24.273437 14.261719-100.425781 67.199219-100.425781 170.042969 0 130.402344 31.972656 171.699219 33.332031 173.398437 1.734375 2.160157 4.578125 3.09375 7.257813 2.382813 2.675781-.714844 4.679687-2.9375 5.113281-5.671875.070313-.398438 6.265625-37.78125 29.375-60.476562 2.730469 8.929687 6.542969 17.488281 11.363281 25.488281 1.214844 2.273437 3.585938 3.695312 6.167969 3.695312 2.582031.003907 4.953125-1.417969 6.171875-3.691406s1.089844-5.035156-.339844-7.183594c-6.007812-9.878906-10.179687-20.761719-12.3125-32.125zm236.824219-298.746093c-3.175781-2.210938-7.539063-1.429688-9.746094 1.746093-2.210937 3.171875-1.429687 7.535157 1.746094 9.746094 6.421875 4.46875 12.578125 9.308594 18.433594 14.496094 2.894531 2.5625 7.320312 2.292969 9.882812-.605469 2.5625-2.894531 2.292969-7.316406-.601562-9.878906-6.269531-5.542969-12.851563-10.722656-19.714844-15.503906zm31.769531 192.464843c18.546875-.4375 35.863282-12.890625 36.0625-13.03125 2.175782-1.585937 5.074219-1.78125 7.445313-.5 2.371093 1.28125 3.796875 3.808594 3.664062 6.5-.070312 1.453125-2.398437 36.253907-60.035156 93.886719-37.519531 37.519531-89.003906 37.285156-118.945313 30.09375.40625 12.902344 4.953126 25.328125 12.972657 35.441406 1.953125 2.265625 2.246093 5.523438.734375 8.101563-1.511719 2.582031-4.5 3.914062-7.429688 3.316406-1.691406-.339844-42.117187-9.023437-97.660156-64.570313-32.359375-32.359374-43.414062-79.960937-28-113.820312-11.902344 1.628906-23.253906 6.035156-33.140625 12.867188-2.234375 1.632812-5.226563 1.789062-7.621094.40625-2.398437-1.382813-3.753906-4.050782-3.460937-6.804688.152344-1.367188 4.328125-34.207031 61.792968-91.667969 43.597657-43.601562 96.398438-36.839843 116.925782-31.972656-1.078125-11.023437-8.199219-27.113281-13.519532-36.457031-1.449218-2.546875-1.15625-5.726563.730469-7.972656 1.886719-2.242188 4.972657-3.070313 7.730469-2.078126 1.546875.5625 38.398438 14.207032 83.90625 59.695313 36 35.996094 44.65625 84.734375 37.847656 118.566406zm-10 13.25c-1.96875-.347656-3.699218-1.519531-4.746094-3.226562-1.050781-1.703125-1.320312-3.773438-.746093-5.691407 9.023437-29.871093 2.773437-78-32.257813-113.015624-18.25-18.636719-38.910156-34.746094-61.4375-47.898438 4.570313 11.425781 8.539063 25.703125 5.46875 35.882812-.554687 1.835938-1.839844 3.367188-3.550781 4.230469-1.714844.863281-3.707031.984375-5.511719.339844-2.546875-.902344-63.128906-21.601563-110.957031 26.234375-30.6875 30.6875-45.199219 53.601562-51.96875 67.570312 8.984375-4.015624 18.683594-6.191406 28.519531-6.402343 2.984375-.007813 5.960938.246093 8.902344.757812 2.351562.414063 4.328125 1.996094 5.246094 4.199219.917968 2.207031.652344 4.726562-.710938 6.6875-17.328125 24.945312-14.402344 71.578125 20.457032 106.445312 31.039062 31.039063 57.058593 46.617188 73.128906 54.167969-5.769532-14.3125-6.894532-29.5625-4.398438-37.601562.550782-1.796875 1.800782-3.300781 3.472656-4.164063 1.667969-.867187 3.617188-1.023437 5.402344-.441406 24.800782 8.09375 76.496094 12.066406 112.933594-24.375 31.746094-31.746094 45.523438-55.71875 51.476562-69.925781-12.027343 5.804687-25.484374 7.972656-38.726562 6.226562zm-101.78125-92.484375c-3.765625-.554687-7.285156 1.996094-7.925781 5.746094s1.832031 7.324219 5.5625 8.050781c26.183594 4.507813 46.109375 25.980469 48.652344 52.421875 2.542969 26.445313-12.929688 51.320313-37.773438 60.734375-24.84375 9.410157-52.914062 1.03125-68.53125-20.457031-15.621093-21.492188-14.921875-50.777344 1.699219-71.5 1.605469-1.945312 2.039062-4.605469 1.132812-6.960938-.902343-2.355468-3.003906-4.042968-5.5-4.414062-2.492187-.375-4.996093.625-6.550781 2.609375-20.566406 25.644531-21.429687 61.882813-2.101562 88.472656 19.328125 26.59375 54.058593 36.960938 84.800781 25.3125 30.738281-11.648437 49.882812-42.429687 46.734375-75.152343-3.144531-32.71875-27.804687-59.289063-60.199219-64.863282zm-44.558594 21.347656c1.199219 0 2.375-.308593 3.421876-.894531 5.191406-2.917969 10.796874-5.023437 16.625-6.246093 3.78125-.792969 6.207031-4.503907 5.414062-8.289063-.796875-3.785156-4.507812-6.207031-8.292969-5.414063-7.21875 1.515626-14.164062 4.125-20.597656 7.738282-2.777344 1.558594-4.152344 4.792968-3.347656 7.875.808593 3.082031 3.59375 5.230468 6.777343 5.226562zm0 0" fill="#002d42"/></svg>