<svg height="438pt" viewBox="0 -24 438 438" width="438pt" xmlns="http://www.w3.org/2000/svg"><path d="m217.351562 86.894531c-90.550781 0-163.960937 74.671875-163.960937 166.800781h327.921875c.003906-92.128906-73.40625-166.800781-163.960938-166.800781zm0 0" fill="#fabe02"/><path d="m219 85.621094c-5.359375 0-10.652344.273437-15.875.777344 84.210938 8.175781 148.457031 78.957031 148.464844 163.566406h31.753906c.003906-90.765625-73.578125-164.347656-164.34375-164.34375zm0 0" fill="#f59a1d"/><path d="m431 256.960938h-424c-3.867188 0-7-3.136719-7-7 0-3.867188 3.132812-7 7-7h424c3.867188 0 7 3.132812 7 7 0 3.863281-3.132812 7-7 7zm0 0" fill="#ff414d"/><path d="m256.050781 311.148438-37.050781-37.050782-37.050781 37.050782h23.746093v28.609374h26.609376v-28.609374zm0 0" fill="#d8283f"/><path d="m354.4375 346.761719h-13.9375c-3.867188 0-7-3.136719-7-7 0-3.867188 3.132812-7 7-7h13.9375c3.863281 0 7 3.132812 7 7 0 3.863281-3.136719 7-7 7zm0 0" fill="#d8283f"/><path d="m316.246094 346.761719h-232.683594c-3.863281 0-7-3.136719-7-7 0-3.867188 3.136719-7 7-7h232.683594c3.867187 0 7 3.132812 7 7 0 3.863281-3.132813 7-7 7zm0 0" fill="#d8283f"/><path d="m301.585938 389.695312h-114.339844c-3.863282 0-7-3.132812-7-7 0-3.867187 3.136718-7 7-7h114.339844c3.863281 0 7 3.132813 7 7 0 3.867188-3.136719 7-7 7zm0 0" fill="#93134a"/><path d="m158.761719 389.695312h-22.347657c-3.863281 0-7-3.132812-7-7 0-3.867187 3.136719-7 7-7h22.347657c3.863281 0 7 3.132813 7 7 0 3.867188-3.136719 7-7 7zm0 0" fill="#93134a"/><g fill="#ff414d"><path d="m405.109375 301.859375h-64.984375c-3.867188 0-7-3.132813-7-7s3.132812-7 7-7h64.984375c3.863281 0 7 3.132813 7 7s-3.136719 7-7 7zm0 0"/><path d="m314.847656 301.859375h-35.015625c-3.867187 0-7-3.132813-7-7s3.132813-7 7-7h35.015625c3.867188 0 7 3.132813 7 7s-3.132812 7-7 7zm0 0"/><path d="m161.167969 301.859375h-71.335938c-3.867187 0-7-3.132813-7-7s3.132813-7 7-7h71.335938c3.867187 0 7 3.132813 7 7s-3.132813 7-7 7zm0 0"/><path d="m63.351562 301.859375h-30.460937c-3.863281 0-7-3.132813-7-7s3.136719-7 7-7h30.460937c3.867188 0 7 3.132813 7 7s-3.132812 7-7 7zm0 0"/></g><path d="m350.5 140.117188c1.628906 1.914062 2.101562 4.554687 1.246094 6.917968-.859375 2.363282-2.917969 4.085938-5.394532 4.511719-2.480468.425781-4.996093-.507813-6.589843-2.449219-6.0625-7.25-12.753907-13.941406-20-20-2.894531-2.496094-3.25-6.851562-.800781-9.785156 2.445312-2.933594 6.792968-3.363281 9.765624-.964844 7.890626 6.59375 15.179688 13.878906 21.773438 21.769532zm2.449219 27.257812c14.046875 22.808594 22.015625 48.835938 23.148437 75.601562h-198.558594c-3.863281 0-7 3.132813-7 7 0 3.867188 3.136719 7 7 7h253.460938c3.867188 0 7-3.132812 7-7 0-3.867187-3.132812-7-7-7h-40.898438c-1.140624-29.359374-9.832031-57.929687-25.242187-82.945312-2.03125-3.289062-6.347656-4.308594-9.636719-2.273438-3.289062 2.03125-4.308594 6.34375-2.273437 9.632813zm-34.800781 25.34375c1.234374 2.203125 3.558593 3.566406 6.082031 3.574219 2.519531.011719 4.855469-1.339844 6.101562-3.53125 1.25-2.191407 1.222657-4.886719-.066406-7.054688-23.027344-39.671875-65.394531-64.128906-111.265625-64.226562-3.867188 0-7 3.132812-7 7 0 3.867187 3.132812 7 7 7 40.882812.082031 78.648438 21.878906 99.167969 57.238281zm-311.148438 64.242188h105.429688c3.863281 0 7-3.136719 7-7 0-3.867188-3.136719-7-7-7h-50.59375c2.496093-55.855469 34.445312-106.195313 83.925781-132.230469 49.480469-26.035157 109.0625-23.859375 156.511719 5.71875 3.277343 2.046875 7.59375 1.050781 9.644531-2.226563s1.050781-7.597656-2.226563-9.648437c-51.765625-32.269531-116.785156-34.589844-170.71875-6.082031-53.933594 28.503906-88.644531 83.53125-91.136718 144.484374h-40.835938c-3.867188 0-7 3.132813-7 7 0 3.867188 3.132812 7 7 7zm140.449219 0c3.863281 0 7-3.136719 7-7 0-3.867188-3.136719-7-7-7h-12.050781c-3.863282 0-7 3.132812-7 7 0 3.863281 3.136718 7 7 7zm214 82.800781c0-3.867188-3.136719-7-7-7h-13.949219c-3.867188 0-7 3.132812-7 7 0 3.863281 3.132812 7 7 7h13.9375c3.863281 0 7-3.136719 7-7zm-38.191407 0c0-3.867188-3.136718-7-7-7h-103.5625v-21.601563c0-3.867187-3.132812-7-7-7h-6.851562l20.15625-20.164062 20.15625 20.15625h-6.851562c-3.867188 0-7 3.132812-7 7v8.15625c0 3.867187 3.132812 7 7 7 3.867187 0 7-3.132813 7-7v-1.15625h16.75c2.832031 0 5.382812-1.707032 6.464843-4.324219s.484375-5.628906-1.519531-7.628906l-37.050781-37.054688c-2.777344-2.628906-7.125-2.628906-9.902344 0l-37.046875 37.054688c-2 2.003906-2.597656 5.011719-1.515625 7.628906 1.082031 2.613281 3.632813 4.320313 6.464844 4.320313h16.75v14.609374h-115.136719c-3.863281 0-7 3.132813-7 7 0 3.863282 3.136719 7 7 7h232.683594c3.867187 0 7-3.132812 7-6.996093zm-21.660156 49.933593c3.863282 0 7-3.132812 7-7 0-3.867187-3.136718-7-7-7h-114.351562c-3.863282 0-7 3.132813-7 7 0 3.867188 3.136718 7 7 7zm-142.828125 0c3.863281 0 7-3.132812 7-7 0-3.867187-3.136719-7-7-7h-22.355469c-3.863281 0-7 3.132813-7 7 0 3.867188 3.136719 7 7 7zm253.339844-94.847656c0-3.867187-3.136719-7-7-7h-64.984375c-3.867188 0-7 3.132813-7 7 0 3.867188 3.132812 7 7 7h64.984375c3.863281 0 7-3.132812 7-7zm-97.261719 7c3.867188 0 7-3.132812 7-7 0-3.867187-3.132812-7-7-7h-35.015625c-3.867187 0-7 3.132813-7 7 0 3.867188 3.132813 7 7 7zm-232-7c0 3.867188 3.132813 7 7 7h71.320313c3.867187 0 7-3.132812 7-7 0-3.867187-3.132813-7-7-7h-71.335938c-3.867187 0-7 3.132813-7 7zm-12.480468 0c0-3.867187-3.132813-7-7-7h-30.476563c-3.863281 0-7 3.132813-7 7 0 3.867188 3.136719 7 7 7h30.460937c3.867188 0 7-3.132812 7-7zm148.632812-240.910156c3.867188 0 7-3.136719 7-7v-39.9375c0-3.867188-3.132812-7-7-7s-7 3.132812-7 7v39.9375c0 3.863281 3.132812 7 7 7zm-107.574219 23.710938c1.238281 2.183593 3.554688 3.535156 6.066407 3.539062 2.511718.007812 4.835937-1.335938 6.085937-3.511719 1.253906-2.179687 1.242187-4.859375-.03125-7.027343l-19.960937-34.601563c-1.949219-3.320313-6.207032-4.445313-9.539063-2.519531-3.335937 1.921875-4.488281 6.175781-2.585937 9.519531zm-106.335937 56.894531 34.582031 19.96875c3.34375 1.902343 7.597656.746093 9.523437-2.585938 1.921876-3.332031.796876-7.589843-2.523437-9.539062l-34.582031-19.964844c-2.167969-1.273437-4.851563-1.285156-7.027344-.03125-2.179688 1.25-3.519531 3.570313-3.515625 6.082031.007813 2.511719 1.359375 4.828125 3.542969 6.070313zm389.738281 20.910156c1.226563 0 2.433594-.324219 3.496094-.941406l34.582031-19.96875c3.320312-1.945313 4.449219-6.207031 2.523438-9.539063-1.921876-3.332031-6.175782-4.484375-9.523438-2.582031l-34.582031 19.964844c-2.746094 1.585937-4.085938 4.816406-3.265625 7.878906.824218 3.0625 3.597656 5.191406 6.769531 5.1875zm-77.828125-75.253906c1.609375.929687 3.519531 1.183593 5.3125.703125 1.796875-.480469 3.324219-1.65625 4.25-3.265625l19.96875-34.585938c1.902344-3.34375.746094-7.597656-2.585938-9.519531-3.332031-1.925781-7.589843-.796875-9.539062 2.519531l-19.964844 34.585938c-1.9375 3.347656-.789062 7.628906 2.558594 9.5625zm0 0" fill="#002d42"/></svg>