<svg height="421pt" viewBox="0 0 421 421.75831" width="421pt" xmlns="http://www.w3.org/2000/svg"><path d="m414.863281 210.878906c0 112.601563-91.28125 203.882813-203.878906 203.882813-112.601563 0-203.878906-91.28125-203.878906-203.882813 0-112.597656 91.277343-203.878906 203.878906-203.878906 112.597656 0 203.878906 91.28125 203.878906 203.878906zm0 0" fill="#0162a7"/><g fill="#004584"><path d="m210.984375 7c-6.957031 0-13.914063.351562-20.835937 1.050781 103.984374 10.695313 183.039062 98.296875 183.039062 202.832031 0 104.53125-79.054688 192.132813-183.039062 202.828126 6.921874.703124 13.878906 1.050781 20.835937 1.050781 112.597656 0 203.878906-91.28125 203.878906-203.882813 0-112.597656-91.28125-203.878906-203.878906-203.878906zm0 0"/><path d="m67.785156 253.511719c1.855469.003906 3.636719-.734375 4.945313-2.050781l223.203125-223.199219c.589844-.601563 1.070312-1.304688 1.410156-2.074219-4.394531-2.058594-8.871094-3.957031-13.433594-5.699219l-221.078125 221.078125c-2 2.003906-2.59375 5.011719-1.511719 7.625 1.085938 2.613282 3.632813 4.320313 6.464844 4.320313zm0 0"/><path d="m350.132812 61.929688c-3.410156-3.1875-6.917968-6.253907-10.53125-9.203126l-286.765624 286.800782c2.949218 3.621094 6.03125 7.125 9.199218 10.527344.089844-.078126.183594-.132813.269532-.21875l287.597656-287.652344c.101562-.101563.15625-.175782.230468-.253906zm0 0"/><path d="m409.875 202.332031-207.4375 207.441407c-1.253906 1.253906-1.980469 2.945312-2.03125 4.71875 3.503906.179687 7.03125.269531 10.578125.273437 2.152344 0 4.285156-.097656 6.417969-.164063l197.300781-197.300781c.070313-2.136719.164063-4.269531.164063-6.421875 0-3.546875-.089844-7.070312-.269532-10.574218-1.777344.046874-3.464844.773437-4.722656 2.027343zm0 0"/><path d="m406.183594 269.773438c2.011718-6.6875 3.671875-13.46875 4.980468-20.324219-2.304687-.480469-4.691406.234375-6.355468 1.898437l-153.320313 153.359375c-1.664062 1.664063-2.378906 4.050781-1.902343 6.351563 6.855468-1.308594 13.644531-2.972656 20.332031-4.988282zm0 0"/><path d="m42.402344 325.546875c.398437-.261719.765625-.5625 1.101562-.898437l281.292969-281.253907c.328125-.328125.625-.691406.882813-1.078125-3.910157-2.667968-7.9375-5.167968-12.035157-7.5625l-278.800781 278.757813c2.390625 4.101562 4.894531 8.128906 7.558594 12.035156zm0 0"/><path d="m411.863281 176.183594c-.875-5.109375-1.910156-10.164063-3.160156-15.136719-1.265625.289063-2.425781.929687-3.347656 1.84375l-242.371094 242.363281c-.917969.917969-1.554687 2.078125-1.84375 3.347656 4.972656 1.246094 10.023437 2.28125 15.132813 3.160157zm0 0"/><path d="m84.984375 371.109375 286.226563-286.230469c-2.890626-3.671875-5.867188-7.269531-9-10.730468-.113282.101562-.238282.175781-.351563.289062l-287.3125 287.324219c-.105469.105469-.1875.234375-.285156.351562 3.457031 3.125 7.058593 6.105469 10.722656 8.996094zm0 0"/><path d="m402.691406 141.363281c-1.671875-4.605469-3.539062-9.109375-5.527344-13.554687-.8125.347656-1.554687.847656-2.179687 1.472656l-265.601563 265.597656c-.621093.628906-1.117187 1.367188-1.460937 2.175782 4.441406 2 8.949219 3.855468 13.554687 5.53125zm0 0"/><path d="m388.835938 111.222656c-2.328126-4.144531-4.792969-8.199218-7.394532-12.164062-.425781.269531-.816406.585937-1.171875.9375l-280.128906 280.164062c-.359375.363282-.675781.765625-.949219 1.199219 3.960938 2.601563 8.015625 5.066406 12.160156 7.394531zm0 0"/></g><path d="m143.730469 210.878906c.007812-86.265625 54.296875-163.195312 135.570312-192.113281-84.515625-30.03125-178.730469-1.296875-232.105469 70.78125-53.378906 72.082031-53.378906 170.582031 0 242.660156 53.375 72.082031 147.589844 100.8125 232.105469 70.785157-81.273437-28.917969-135.558593-105.847657-135.570312-192.113282zm0 0" fill="#d9ecf2"/><path d="m143.730469 210.878906c.007812-86.265625 54.296875-163.195312 135.570312-192.113281-21.933593-7.800781-45.039062-11.78125-68.316406-11.765625-3.878906 0-7.726563.132812-11.554687.347656 19.460937 1.054688 38.671874 4.898438 57.039062 11.421875-81.277344 28.914063-135.566406 105.84375-135.566406 192.113281 0 86.265626 54.289062 163.199219 135.566406 192.113282-18.367188 6.519531-37.578125 10.367187-57.039062 11.421875 3.828124.210937 7.675781.347656 11.554687.347656 23.277344.011719 46.382813-3.96875 68.316406-11.769531-81.273437-28.921875-135.5625-105.851563-135.570312-192.117188zm0 0" fill="#bdd9e5"/><path d="m139.726562 299.398438c7.574219-.003907 15.046876-1.746094 21.839844-5.09375-11.785156-26.230469-17.863281-54.667969-17.835937-83.425782 0-3.648437.132812-7.265625.320312-10.867187-1.425781-.125-2.863281-.21875-4.324219-.21875-27.257812.34375-49.171874 22.539062-49.171874 49.800781 0 27.257812 21.914062 49.453125 49.171874 49.796875zm0 0" fill="#bdd9e5"/><path d="m117.433594 62.757812c17.40625-6.039062 26.757812-24.917968 21.011718-42.425781-20.714843 7.886719-40 19.101563-57.101562 33.199219 9.09375 10.03125 23.296875 13.660156 36.089844 9.226562zm0 0" fill="#bdd9e5"/><path d="m15.28125 153.726562h51.835938c8.933593 0 16.179687-7.242187 16.179687-16.179687 0-8.933594-7.246094-16.179687-16.179687-16.179687h-39.332032c-5.085937 10.410156-9.269531 21.238281-12.503906 32.359374zm0 0" fill="#bdd9e5"/><path d="m162.882812 361.589844c0-8.9375-7.242187-16.183594-16.179687-16.183594h-88.851563c10.707032 12.179688 22.820313 23.039062 36.085938 32.363281h52.765625c8.9375 0 16.179687-7.246093 16.179687-16.179687zm0 0" fill="#bdd9e5"/><path d="m5.355469 257.851562c-2.386719-10.507812-3.96875-21.179687-4.726563-31.925781-.273437-3.859375 2.632813-7.207031 6.492188-7.476562 3.855468-.273438 7.203125 2.632812 7.476562 6.492187.699219 10.03125 2.164063 19.996094 4.386719 29.808594.617187 2.460938-.144531 5.0625-1.996094 6.800781-1.847656 1.738281-4.492187 2.339844-6.910156 1.574219-2.421875-.769531-4.234375-2.785156-4.742187-5.273438zm337.351562-76.304687-17.027343 17.035156c-1.820313 1.753907-2.550782 4.359375-1.910157 6.804688.640625 2.449219 2.550781 4.359375 5 5 2.445313.640625 5.046875-.085938 6.804688-1.90625l17.03125-17.03125c2.734375-2.734375 2.734375-7.167969 0-9.902344s-7.167969-2.734375-9.902344 0zm79.078125 26.132813c0 1.070312.078125 2.128906.078125 3.199218-.011719 15.585938-1.757812 31.121094-5.199219 46.320313-.058593.457031-.164062.910156-.3125 1.34375-16.367187 69.910156-67.0625 126.75-134.648437 150.980469-.183594.070312-.359375.132812-.546875.183593-63.742188 22.578125-134.453125 13.082031-189.980469-25.511719-.890625-.386718-1.691406-.957031-2.351562-1.675781-13.027344-9.265625-24.96875-19.972656-35.601563-31.914062-.457031-.402344-.859375-.859375-1.199218-1.363281-16.699219-19.039063-29.804688-40.957032-38.675782-64.683594-1.019531-2.371094-.648437-5.113282.964844-7.128906 1.613281-2.019532 4.207031-2.984376 6.746094-2.511719 2.539062.46875 4.613281 2.300781 5.394531 4.761719 8.015625 21.457031 19.746094 41.335937 34.652344 58.726562h85.597656c12.804687 0 23.179687 10.378906 23.179687 23.183594 0 12.800781-10.375 23.179687-23.179687 23.179687h-27.679687c42.742187 22.773438 92.410156 28.890625 139.402343 17.175781-7.976562-3.726562-15.710937-7.953124-23.15625-12.648437-.15625-.09375-.308593-.179687-.457031-.285156-8.910156-5.65625-17.382812-11.976563-25.34375-18.902344-.28125-.195313-.550781-.410156-.800781-.640625-.035157-.035156-.058594-.082031-.09375-.117188-7.664063-6.746093-14.832031-14.039062-21.445313-21.824218-.09375-.082032-.195312-.144532-.285156-.230469-.367188-.371094-.6875-.78125-.964844-1.226563-6.496094-7.789062-12.425781-16.03125-17.742187-24.671874-.542969-.601563-.972657-1.292969-1.277344-2.042969-5.425781-9.035157-10.171875-18.46875-14.195313-28.210938-.394531-.648437-.679687-1.359375-.84375-2.101562-4.25-10.621094-7.625-21.570313-10.097656-32.738281-.191406-.546876-.316406-1.117188-.371094-1.695313-2.738281-12.871094-4.257812-25.972656-4.542968-39.128906-.070313-.523438-.082032-1.050781-.03125-1.574219 0-1.011719-.0625-2-.0625-3.03125 0-1.316406.054687-2.621094.078125-3.9375-16.023438 1.085938-30.089844 11.058594-36.414063 25.820312-6.328125 14.761719-3.851562 31.824219 6.414063 44.179688 2.472656 2.972656 2.066406 7.382812-.90625 9.855469-2.972657 2.472656-7.386719 2.066406-9.859375-.90625-13.8125-16.625-16.984375-39.65625-8.171875-59.398438 8.808593-19.738281 28.066406-32.761719 49.667969-33.585937.820312-9.519532 2.292968-18.972656 4.402343-28.289063.050781-.433593.144531-.859375.277344-1.273437 14.707031-63.121094 57.539063-116.015625 116.226563-143.527344-36.964844-9.183594-75.796876-7.460938-111.800782 4.96875 2.542969 16.527344-5.292968 32.929688-19.75 41.335938-14.457031 8.40625-32.585937 7.105468-45.695312-3.28125-16.753906 14.691406-30.902344 32.117187-41.835938 51.535156h27.769532c12.800781 0 23.179687 10.378906 23.179687 23.179687 0 12.804688-10.378906 23.179688-23.179687 23.179688-3.867188 0-7-3.132813-7-7 0-3.863281 3.132812-7 7-7 5.070312 0 9.179687-4.109375 9.179687-9.179688 0-5.070312-4.109375-9.179687-9.179687-9.179687h-34.957032c-2.761718 5.992187-5.214844 12.121094-7.355468 18.359375h19.742187c3.867187 0 7 3.136719 7 7 0 3.867187-3.132813 7-7 7h-24c-3.386719 12.902343-5.453125 26.117187-6.171875 39.4375-.074219 2.539062-1.519531 4.839843-3.773438 6.007812-2.257812 1.167969-4.96875 1.023438-7.089843-.378906-2.117188-1.402344-3.308594-3.84375-3.113281-6.375 3.117187-58.78125 30.746093-113.558594 76.160156-151 .035156-.03125.054687-.066406.082031-.09375s.183594-.128906.277344-.203125c17.757812-14.644531 37.796875-26.28125 59.316406-34.445312h.027344c46.496093-17.628907 97.730469-18.238282 144.628906-1.714844.414063.097656.8125.230468 1.203125.398437 3.761719 1.351563 7.488281 2.800781 11.144531 4.34375.417969.144531.820313.332031 1.203125.554688 9.65625 4.183593 18.988282 9.085937 27.910156 14.667969.890626.339843 1.699219.859374 2.378907 1.527343 8.328125 5.355469 16.265625 11.285157 23.761719 17.75.757812.386719 1.410156.953125 1.898437 1.648438 7.417969 6.546875 14.367187 13.605469 20.800781 21.121093.699219.492188 1.265625 1.144532 1.652344 1.902344 6.5 7.777344 12.429688 16.011719 17.753906 24.636719.464844.546875.84375 1.164063 1.121094 1.824219 5.511719 9.15625 10.316406 18.714844 14.375 28.601562.253906.476563.457031.984375.59375 1.511719 4.34375 10.785156 7.777344 21.917969 10.269531 33.273437.121094.378907.210938.765626.265625 1.15625 2.769532 13.066407 4.292969 26.363282 4.546875 39.714844.03125.359375.039063.722656.015625 1.082032zm-288.691406-177.597657c-14.441406 6.214844-28.085938 14.136719-40.640625 23.597657 8.367187 5.113281 18.867187 5.226562 27.347656.300781 8.480469-4.921875 13.582031-14.097657 13.292969-23.898438zm13.597656 322.347657h-72.355468c6.914062 6.644531 14.300781 12.777343 22.101562 18.359374h50.269531c5.070313 0 9.179688-4.109374 9.179688-9.179687s-4.109375-9.179687-9.179688-9.179687zm260.625-127.734376-84.574218 84.585938c-2.730469 2.734375-7.164063 2.734375-9.898438 0s-2.734375-7.167969 0-9.902344l94.859375-94.875c-.226563-7.4375-.875-14.851562-1.9375-22.214844l-181.765625 181.757813c4.464844 3.613281 9.097656 7.035156 13.894531 10.265625l54.855469-54.851562c2.730469-2.734376 7.164062-2.734376 9.898438 0 2.734374 2.734374 2.734374 7.164062 0 9.898437l-52.53125 52.53125c5.175781 2.957031 10.511718 5.695313 16 8.207031l137.199218-137.25c2.015625-9.28125 3.359375-18.695312 4.011719-28.171875zm-193.894531 130.136719 189.164063-189.152343c-1.496094-6.34375-3.3125-12.605469-5.433594-18.769532l-25.378906 25.382813c-2.734376 2.734375-7.167969 2.734375-9.902344 0s-2.734375-7.167969 0-9.902344l29.753906-29.746094c-2.402344-5.550781-5.050781-10.964843-7.953125-16.25l-201.316406 201.335938c3.140625 4.855469 6.488281 9.558593 10.050781 14.117187l114.613281-114.613281c2.734375-2.730469 7.167969-2.730469 9.902344 0 2.730469 2.734375 2.730469 7.167969 0 9.902344l-115.496094 115.496093c3.808594 4.234376 7.808594 8.300782 11.996094 12.199219zm-38.46875-49.496093 201.269531-201.300782c-3.148437-4.851562-6.5-9.554687-10.054687-14.101562l-199.140625 199.140625c2.40625 5.546875 5.03125 10.976562 7.925781 16.261719zm-13.46875-30.511719 195.675781-195.675781c-3.824218-4.242188-7.84375-8.289063-12-12.179688l-111.132812 111.113281c-2.734375 2.730469-7.164063 2.730469-9.898438 0-2.734375-2.734375-2.734375-7.167969 0-9.902343l110.421875-110.441407c-4.460937-3.597656-9.070312-7.050781-13.84375-10.265625l-169.847656 169.835938c.246094 7.421875.914063 14.820312 2 22.167968l55.824219-55.832031c2.734375-2.734375 7.167968-2.734375 9.902344 0 2.730468 2.734375 2.730468 7.164063 0 9.898438l-62.5625 62.566406c1.503906 6.351563 3.359374 12.585937 5.460937 18.714844zm130.988281-243.101563-137.15625 137.15625c-2.042968 9.308594-3.40625 18.75-4.078125 28.253906l157.226563-157.199218c-5.191406-2.972656-10.519532-5.707032-15.992188-8.210938zm-128.6875 108.894532 113.671875-113.671876c-52.3125 20.03125-93.640625 61.359376-113.671875 113.671876zm231.09375 140.46875-113.636718 113.671874c52.257812-20.109374 93.546874-61.410156 113.636718-113.667968zm-255.152344 25.3125c3.867188 0 7-3.132813 7-7 0-3.863282-3.132812-7-7-7-5.863281.015624-11.667968-1.1875-17.046874-3.527344-3.546876-1.539063-7.667969.085937-9.210938 3.632812-1.539062 3.542969.085938 7.667969 3.632812 9.207032 7.136719 3.109374 14.839844 4.703124 22.625 4.6875zm0 0" fill="#002d42"/></svg>