<svg height="469pt" viewBox="0 -38 469.69607 469" width="469pt" xmlns="http://www.w3.org/2000/svg"><path d="m401.257812 197.203125c0 70.929687-57.5 128.429687-128.429687 128.429687s-128.429687-57.5-128.429687-128.429687 57.5-128.425781 128.429687-128.425781 128.429687 57.496094 128.429687 128.425781zm0 0" fill="#fabe02"/><path d="m214.796875 82.648438c-43.183594 21.863281-70.40625 66.152343-70.40625 114.554687s27.222656 92.695313 70.40625 114.558594c43.183594-21.863281 70.402344-66.15625 70.402344-114.558594s-27.21875-92.691406-70.402344-114.554687zm0 0" fill="#f59a1d"/><path d="m272.847656 68.777344c-5.339844.011718-10.671875.351562-15.972656 1.023437 64.226562 8.0625 112.40625 62.671875 112.40625 127.398438 0 64.730469-48.179688 119.339843-112.40625 127.402343 47.382812 5.875 94.109375-15.027343 121.316406-54.261718 27.207032-39.234375 30.394532-90.324219 8.28125-132.636719-22.113281-42.3125-65.878906-68.863281-113.625-68.925781zm0 0" fill="#f59a1d"/><g fill="#fabe02"><path d="m272.847656 45.546875c-3.867187 0-7-3.132813-7-7v-31.199219c0-3.867187 3.132813-7 7-7 3.867188 0 7 3.132813 7 7v31.199219c0 3.867187-3.132812 7-7 7zm0 0"/><path d="m193.507812 66.804688c-2.503906.003906-4.820312-1.332032-6.070312-3.5l-15.601562-27.027344c-1.902344-3.347656-.746094-7.597656 2.585937-9.523438 3.332031-1.921875 7.59375-.796875 9.539063 2.523438l15.597656 27.027344c1.25 2.164062 1.246094 4.828124 0 6.992187s-3.550782 3.5-6.050782 3.507813zm0 0"/><path d="m135.425781 124.875c-1.226562 0-2.433593-.324219-3.492187-.9375l-27.035156-15.601562c-2.183594-1.242188-3.53125-3.558594-3.539063-6.070313-.003906-2.511719 1.335937-4.832031 3.515625-6.085937 2.175781-1.25 4.859375-1.238282 7.023438.03125l27.035156 15.601562c2.746094 1.582031 4.085937 4.816406 3.261718 7.878906-.820312 3.0625-3.601562 5.191406-6.769531 5.183594zm0 0"/><path d="m410.234375 124.875c-3.167969.007812-5.949219-2.121094-6.769531-5.183594-.824219-3.0625.515625-6.296875 3.261718-7.878906l27.035157-15.601562c3.34375-1.902344 7.597656-.746094 9.519531 2.585937 1.925781 3.332031.796875 7.59375-2.519531 9.539063l-27.035157 15.601562c-1.058593.613281-2.265624.9375-3.492187.9375zm0 0"/><path d="m352.148438 66.804688c-2.5-.003907-4.804688-1.339844-6.054688-3.503907-1.25-2.164062-1.25-4.832031 0-6.996093l15.597656-27.027344c1.945313-3.320313 6.207032-4.445313 9.539063-2.523438 3.332031 1.925782 4.488281 6.175782 2.585937 9.523438l-15.601562 27.027344c-1.25 2.167968-3.5625 3.503906-6.066406 3.5zm0 0"/><path d="m272.847656 394.066406c-3.867187 0-7-3.132812-7-7v-31.199218c0-3.863282 3.132813-7 7-7 3.867188 0 7 3.136718 7 7v31.199218c0 3.867188-3.132812 7-7 7zm0 0"/><path d="m462.695312 204.203125h-31.199218c-3.867188 0-7-3.132813-7-7 0-3.863281 3.132812-7 7-7h31.199218c3.867188 0 7 3.136719 7 7 0 3.867187-3.132812 7-7 7zm0 0"/><path d="m114.171875 204.203125h-31.199219c-3.867187 0-7-3.132813-7-7 0-3.863281 3.132813-7 7-7h31.199219c3.867187 0 7 3.136719 7 7 0 3.867187-3.132813 7-7 7zm0 0"/><path d="m367.769531 368.632812c-2.507812.003907-4.820312-1.332031-6.074219-3.5l-15.597656-27.027343c-1.273437-2.167969-1.285156-4.851563-.03125-7.027344 1.25-2.179687 3.570313-3.519531 6.082032-3.515625 2.515624.007812 4.832031 1.359375 6.070312 3.542969l15.601562 27.027343c1.246094 2.164063 1.246094 4.828126-.003906 6.996094-1.246094 2.164063-3.554687 3.5-6.050781 3.503906zm0 0"/><path d="m437.25 299.140625c-1.226562 0-2.433594-.324219-3.492188-.941406l-27.035156-15.597657c-2.183594-1.242187-3.535156-3.558593-3.539062-6.070312s1.335937-4.835938 3.515625-6.085938c2.175781-1.25 4.859375-1.238281 7.023437.03125l27.035156 15.597657c2.746094 1.585937 4.085938 4.820312 3.261719 7.882812-.820312 3.0625-3.601562 5.1875-6.769531 5.183594zm0 0"/><path d="m108.40625 299.140625c-3.167969.003906-5.949219-2.121094-6.769531-5.183594-.824219-3.0625.515625-6.296875 3.261719-7.882812l27.035156-15.597657c2.164062-1.269531 4.847656-1.28125 7.023437-.03125 2.179688 1.25 3.519531 3.574219 3.515625 6.085938-.007812 2.511719-1.355468 4.828125-3.539062 6.070312l-27.035156 15.597657c-1.058594.617187-2.265626.941406-3.492188.941406zm0 0"/><path d="m177.886719 368.632812c-2.496094-.003906-4.804688-1.339843-6.054688-3.503906-1.246093-2.167968-1.246093-4.832031 0-6.996094l15.601563-27.027343c1.238281-2.183594 3.554687-3.535157 6.066406-3.542969 2.515625-.003906 4.835938 1.335938 6.085938 3.515625 1.253906 2.175781 1.242187 4.859375-.03125 7.027344l-15.597657 27.027343c-1.25 2.167969-3.566406 3.503907-6.070312 3.5zm0 0"/></g><path d="m263.855469 197.203125c0 70.929687-57.5 128.429687-128.425781 128.429687-70.929688 0-128.429688-57.5-128.429688-128.429687s57.5-128.425781 128.429688-128.425781c70.925781 0 128.425781 57.496094 128.425781 128.425781zm0 0" fill="#d9ecf2"/><path d="m135.429688 68.777344c-6.167969.003906-12.328126.449218-18.429688 1.335937 63.195312 9.09375 110.105469 63.242188 110.105469 127.089844 0 63.84375-46.910157 117.992187-110.105469 127.089844 47.597656 6.90625 95.066406-13.355469 122.996094-52.511719 27.933594-39.152344 31.644531-90.632812 9.621094-133.390625-22.023438-42.753906-66.09375-69.621094-114.1875-69.613281zm0 0" fill="#bdd9e5"/><path d="m166.070312 138.78125c0 9.714844-7.875 17.589844-17.589843 17.589844-9.714844 0-17.59375-7.875-17.59375-17.589844 0-9.71875 7.878906-17.59375 17.59375-17.59375 9.714843 0 17.589843 7.875 17.589843 17.59375zm0 0" fill="#bdd9e5"/><path d="m231.050781 111.496094c-9.75 6.867187-12.453125 20.144531-6.167969 30.28125 6.285157 10.132812 19.378907 13.613281 29.867188 7.929687-5.589844-14.03125-13.613281-26.964843-23.699219-38.210937zm0 0" fill="#d9ecf2"/><path d="m121.917969 221.59375c0 17.324219-14.046875 31.371094-31.375 31.371094-17.324219 0-31.371094-14.046875-31.371094-31.371094 0-17.328125 14.046875-31.375 31.371094-31.375 17.328125 0 31.375 14.046875 31.375 31.375zm0 0" fill="#bdd9e5"/><path d="m218.300781 239.320312c0 9.789063-7.9375 17.726563-17.730469 17.726563-9.789062 0-17.726562-7.9375-17.726562-17.726563 0-9.792968 7.9375-17.726562 17.726562-17.726562 9.792969 0 17.730469 7.933594 17.730469 17.726562zm0 0" fill="#bdd9e5"/><path d="m138.609375 281.945312h-99.636719c6.742188 7.675782 14.371094 14.523438 22.726563 20.398438h76.910156c5.632813 0 10.199219-4.566406 10.199219-10.199219 0-5.632812-4.566406-10.199219-10.199219-10.199219zm0 0" fill="#bdd9e5"/><path d="m12.152344 161.203125h32.652344c5.632812 0 10.199218-4.566406 10.199218-10.199219 0-5.632812-4.566406-10.199218-10.199218-10.199218h-24.777344c-3.203125 6.5625-5.839844 13.386718-7.875 20.398437zm0 0" fill="#bdd9e5"/><path d="m262.675781 180.027344h-34.570312c-5.632813 0-10.203125 4.566406-10.203125 10.199218 0 5.636719 4.570312 10.203126 10.203125 10.203126h35.667969c.027343-1.070313.078124-2.132813.078124-3.203126-.007812-5.75-.402343-11.496093-1.175781-17.199218zm0 0" fill="#bdd9e5"/><path d="m263.5625 188.957031c-.023438-.355469-.054688-.710937-.078125-1.066406-.199219-2.636719-.457031-5.265625-.800781-7.863281h-34.578125c-.753907.007812-1.5.09375-2.234375.265625.746094 5.605469 1.121094 11.253906 1.125 16.910156 0 1.035156-.046875 2.0625-.070313 3.089844.394531.0625.796875.101562 1.199219.117187h35.667969c.027343-1.066406.078125-2.128906.078125-3.199218-.015625-2.777344-.128906-5.527344-.308594-8.253907zm0 0" fill="#d9ecf2"/><path d="m399.429688 245.398438c-2.453126 6.445312-5.394532 12.695312-8.800782 18.691406-1.914062 3.363281-6.191406 4.539062-9.554687 2.625-3.363281-1.914063-4.539063-6.191406-2.625-9.554688 3.054687-5.375 5.699219-10.972656 7.902343-16.75.867188-2.367187 2.945313-4.085937 5.433594-4.496094 2.488282-.410156 5.003906.550782 6.589844 2.511719 1.582031 1.964844 1.988281 4.628907 1.058594 6.972657zm-126.582032-150.125c-3.867187 0-7 3.132812-7 7 0 3.863281 3.132813 7 7 7 31.398438.070312 60.394532 16.8125 76.152344 43.964843 1.960938 3.289063 6.203125 4.390625 9.519531 2.472657 3.3125-1.917969 4.472657-6.144532 2.597657-9.484376-18.265626-31.472656-51.878907-50.875-88.269532-50.953124zm0-49.726563c3.867188 0 7-3.132813 7-7v-31.199219c0-3.867187-3.132812-7-7-7-3.867187 0-7 3.132813-7 7v31.199219c0 3.867187 3.132813 7 7 7zm-85.410156 17.757813c1.238281 2.183593 3.554688 3.535156 6.070312 3.539062 2.511719.007812 4.832032-1.335938 6.082032-3.511719 1.253906-2.179687 1.242187-4.859375-.03125-7.027343l-15.597656-27.027344c-1.945313-3.320313-6.207032-4.445313-9.539063-2.523438-3.332031 1.925782-4.488281 6.175782-2.585937 9.523438zm222.796875 61.574218c1.226563 0 2.433594-.324218 3.492187-.9375l27.035157-15.601562c3.316406-1.945313 4.445312-6.207032 2.519531-9.539063-1.921875-3.332031-6.175781-4.488281-9.519531-2.585937l-27.035157 15.601562c-2.746093 1.582032-4.085937 4.816406-3.261718 7.878906.820312 3.0625 3.601562 5.191407 6.769531 5.183594zm-61.578125-59.011718c1.609375.929687 3.519531 1.183593 5.3125.703124 1.796875-.480468 3.324219-1.65625 4.25-3.265624l15.601562-27.027344c1.902344-3.347656.746094-7.597656-2.585937-9.523438-3.332031-1.921875-7.59375-.796875-9.539063 2.523438l-15.597656 27.027344c-1.9375 3.347656-.789062 7.628906 2.558594 9.5625zm-68.828125 321.199218v-31.199218c0-3.863282-3.132813-7-7-7s-7 3.136718-7 7v31.199218c0 3.867188 3.132813 7 7 7s7-3.132812 7-7zm144.65625-189.863281c0 3.867187 3.132813 7 7 7h31.199219c3.867187 0 7-3.132813 7-7 0-3.863281-3.132813-7-7-7h-31.199219c-3.867187 0-7 3.136719-7 7zm-75.828125 131.335937c-3.351562 1.933594-4.5 6.214844-2.5625 9.566407l15.597656 27.027343c1.945313 3.320313 6.207032 4.445313 9.539063 2.519532 3.332031-1.921875 4.488281-6.175782 2.585937-9.519532l-15.601562-27.027343c-1.933594-3.347657-6.210938-4.496094-9.558594-2.566407zm65.070312-58.070312c-2.164062-1.269531-4.847656-1.28125-7.023437-.03125-2.179687 1.25-3.519531 3.574219-3.515625 6.085938.007812 2.511718 1.355469 4.828124 3.539062 6.070312l27.035157 15.597656c3.34375 1.902344 7.597656.746094 9.519531-2.585937 1.925781-3.332031.796875-7.589844-2.519531-9.539063zm-235.839843 98.164062c2.507812.003907 4.820312-1.332031 6.074219-3.5l15.597656-27.027343c1.273437-2.167969 1.285156-4.851563.03125-7.027344-1.25-2.179687-3.570313-3.519531-6.082032-3.515625-2.515624.007812-4.832031 1.359375-6.070312 3.542969l-15.601562 27.027343c-1.246094 2.164063-1.246094 4.828126.003906 6.996094 1.246094 2.164063 3.554687 3.5 6.050781 3.503906zm-177.886719-171.429687c.0195312-12.640625 1.8125-25.21875 5.332031-37.363281.039063-.199219.042969-.398438.101563-.601563.167968-.578125.367187-1.148437.542968-1.730469.066407-.222656.140626-.449218.210938-.671874 2.027344-6.546876 4.550781-12.929688 7.546875-19.097657.125-.195312.257813-.382812.402344-.566406 9.957031-20.167969 24.769531-37.542969 43.113281-50.5625 3.152344-2.199219 7.488281-1.441406 9.710938 1.695313 2.222656 3.136718 1.5 7.480468-1.621094 9.726562-13.449219 9.539062-24.816406 21.714844-33.410156 35.789062h12.871093c9.5 0 17.199219 7.699219 17.199219 17.199219s-7.699219 17.199219-17.199219 17.199219h-27.269531c-9.257812 37.484375-.082031 77.136719 24.703125 106.742188h56.523437c3.863282 0 7 3.132812 7 7 0 3.863281-3.136718 7-7 7h-42.742187c.320313.273437.636719.554687.957031.828124 2.058594 1.746094 4.167969 3.4375 6.335938 5.046876.234375.175781.480468.335937.714844.507812h74.585937c1.765625 0 3.199219-1.433594 3.199219-3.199219 0-1.769531-1.433594-3.199219-3.199219-3.199219h-16.6875c-3.867187 0-7-3.136718-7-7 0-3.867187 3.132813-7 7-7h16.6875c9.496094 0 17.199219 7.699219 17.199219 17.199219s-7.703125 17.199219-17.199219 17.199219h-49.761719c35.800782 14.886719 76.558594 11.777344 109.683594-8.375s54.628906-54.917969 57.863281-93.558594h-28.289062c-9.5 0-17.203125-7.699218-17.203125-17.199218s7.703125-17.199219 17.203125-17.199219h26.34375c-.996094-4.867188-2.292969-9.664063-3.886719-14.371094-12.273438 2.828125-24.988281-2.464844-31.628906-13.167969s-5.738282-24.445312 2.246094-34.1875c-22.722657-22.761718-53.570313-35.539062-85.730469-35.519531-5.796875-.003906-11.585938.40625-17.324219 1.222656-3.828125.546875-7.375-2.113281-7.917969-5.941406-.546875-3.828125 2.113281-7.375 5.941407-7.917969 6.394531-.910156 12.84375-1.367187 19.300781-1.363281 24.164062-.023437 47.894531 6.464844 68.6875 18.777344 45.914062-26.992188 103.390625-24.574219 146.875 6.183593 43.484375 30.753907 64.914062 84.140626 54.757812 136.425782-.738281 3.796875-4.414062 6.273437-8.207031 5.539062-3.796875-.738281-6.273438-4.410156-5.539062-8.207031 6.910156-35.605469-2.441407-72.433594-25.496094-100.429687-23.058594-27.996094-57.410156-44.230469-93.679688-44.273438-19.375-.003906-38.46875 4.636719-55.679687 13.535156 6.742187 5.113282 12.992187 10.84375 18.671875 17.117188.140625.128906.292968.242187.421875.398437 6.984375 7.796875 13.039062 16.378907 18.042969 25.570313.1875.34375.367187.695312.550781 1.039062.761719 1.421875 1.496093 2.855469 2.207031 4.304688.328125.675781.648438 1.351562.964844 2.027344.535156 1.132812 1.050781 2.273437 1.546875 3.417968.394531.898438.777343 1.796875 1.148437 2.703125.171875.402344.363282.820313.527344 1.242188.046875.121093.0625.238281.101562.359375 22.378907 56.488281 4.316407 120.964844-44.15625 157.601562 50.773438 26.273438 113 13.511719 149.332032-30.625 2.460937-2.984375 6.875-3.40625 9.855468-.945312 2.984376 2.460937 3.40625 6.875.945313 9.855468-42.328125 51.433594-115.816406 64.367188-173.160156 30.46875-45.597657 26.976563-102.757813 24.785157-146.160157-5.597656-.109374-.070312-.230468-.09375-.335937-.164062-.679687-.480469-1.328125-1.003906-2-1.496094-.800781-.589844-1.601563-1.183594-2.398437-1.785156-1.15625-.882813-2.304688-1.777344-3.433594-2.699219-.65625-.539063-1.300782-1.09375-1.945313-1.644531-4.042969-3.433594-7.886719-7.101563-11.503906-10.980469-.503906-.539063-1.015625-1.074219-1.511719-1.621094-.398437-.429687-.800781-.835937-1.199218-1.269531-.105469-.121094-.160157-.269531-.253907-.402344-21.578125-24.621094-33.4609372-56.25-33.425781-88.988281zm245.199219-51.824219c-.0625-.136718-.125-.273437-.1875-.398437-.605469-1.269531-1.253907-2.507813-1.898438-3.75-1.058593-2.023438-2.15625-4-3.320312-5.96875-.203125-.34375-.402344-.703125-.609375-1.046875-.839844-1.375-1.71875-2.726563-2.609375-4.066406-.230469-.351563-.457031-.707032-.695313-1.054688-.925781-1.363281-1.878906-2.695312-2.859375-4l-.632812-.851562c-.5625-.742188-1.152344-1.464844-1.730469-2.203126-2.847656 4.792969-2.902344 10.75-.140625 15.59375 2.765625 4.84375 7.917969 7.832032 13.492187 7.820313.417969-.027344.808594-.046875 1.203126-.074219zm-17.09375 48.03125h28.652343c-.070312-2.132812-.191406-4.265625-.367187-6.398437h-28.285156c-1.769531 0-3.203125 1.433593-3.203125 3.199219 0 1.769531 1.433594 3.199218 3.203125 3.199218zm-203.578125-45.589844c-.933594 2.101563-1.808594 4.234376-2.625 6.398438h22.902344c1.765624 0 3.199218-1.429688 3.199218-3.199219 0-1.765625-1.433594-3.199219-3.199218-3.199219zm56.429687-59.949218c1.023438 0 2.039063-.226563 2.96875-.664063 4.007813-1.878906 8.117188-3.539062 12.308594-4.972656 2.421875-.765625 4.238281-2.777344 4.746094-5.265625.511719-2.484375-.363281-5.050781-2.285157-6.710938-1.921874-1.65625-4.59375-2.140624-6.976562-1.269531-4.675781 1.597657-9.265625 3.445313-13.742188 5.542969-2.972656 1.390625-4.578124 4.660156-3.867187 7.863281.714844 3.203125 3.5625 5.480469 6.84375 5.476563zm42.933594 50.910156c0-13.582031 11.011719-24.589844 24.589844-24.589844s24.585937 11.007813 24.585937 24.589844c0 13.578125-11.007812 24.585938-24.585937 24.585938-13.574219-.015626-24.570313-11.015626-24.589844-24.585938zm14 0c0 5.847656 4.742187 10.585938 10.589844 10.585938 5.847656 0 10.585937-4.738282 10.585937-10.585938s-4.738281-10.589844-10.585937-10.589844c-5.84375.007813-10.582031 4.742188-10.589844 10.589844zm-35.84375 46.191406c-3.6875-1.15625-7.617187.894532-8.773437 4.585938-1.15625 3.6875.898437 7.617187 4.585937 8.773437 3.746094 1.183594 7.152344 3.25 9.929687 6.023438 2.734376 2.734375 7.164063 2.734375 9.898438 0s2.734375-7.164063 0-9.898438c-4.375-4.375-9.738281-7.625-15.640625-9.484375zm12.882813 36.621094c-.003907 12.085938-8.871094 22.347656-20.832032 24.101562-11.957031 1.757813-23.398437-5.515624-26.882812-17.09375-3.480469-11.574218 2.050781-23.953124 12.996094-29.085937 3.5-1.648437 5.003906-5.816406 3.355468-9.316406-1.648437-3.5-5.820312-5.003907-9.316406-3.355469-17.234375 8.082031-25.941406 27.574219-20.460938 45.800781 5.484376 18.226563 23.5 29.679688 42.332032 26.914063 18.832031-2.769532 32.789062-18.921875 32.796875-37.953125 0-3.867188-3.136719-7-7-7-3.867188 0-7 3.132812-7 7zm85.644531 42.449219c-13.65625 0-24.726563-11.070313-24.726563-24.726563s11.070313-24.726562 24.726563-24.726562c13.660156 0 24.730469 11.070312 24.730469 24.726562-.015626 13.648438-11.078126 24.710938-24.730469 24.726563zm0-14c5.925781 0 10.726562-4.804688 10.726562-10.730469-.003906-5.921875-4.804687-10.726562-10.730469-10.722656-5.925781 0-10.726562 4.800781-10.726562 10.726562.007812 5.921875 4.808594 10.722656 10.730469 10.726563zm0 0" fill="#002d42"/></svg>