<svg height="461pt" viewBox="-102 0 461 461.78" width="461pt" xmlns="http://www.w3.org/2000/svg"><path d="m41.328125 6.125h175.609375c18.371094 0 33.261719 14.890625 33.261719 33.257812v381.265626c0 18.367187-14.890625 33.257812-33.261719 33.257812h-175.609375c-18.367187 0-33.257813-14.890625-33.257813-33.257812v-381.265626c0-18.367187 14.890626-33.257812 33.257813-33.257812zm0 0" fill="#d9ecf2"/><path d="m216.257812 7h-22.304687c18.371094 0 33.261719 14.890625 33.261719 33.261719v381.261719c0 18.371093-14.890625 33.261718-33.261719 33.261718h22.308594c18.371093 0 33.261719-14.890625 33.261719-33.261718v-381.265626c-.003907-18.371093-14.894532-33.261718-33.265626-33.257812zm0 0" fill="#bdd9e5"/><path d="m157.652344 332.375v-212.953125c0-16.128906-13.070313-29.203125-29.199219-29.203125-16.125 0-29.199219 13.074219-29.199219 29.203125v212.953125c-19.117187 12.855469-27.589844 36.691406-20.871094 58.722656 6.71875 22.035156 27.050782 37.089844 50.085938 37.089844s43.363281-15.054688 50.082031-37.089844c6.71875-22.03125-1.753906-45.867187-20.867187-58.722656zm0 0" fill="#fabe02"/><path d="m90.855469 375.820312c-.011719-17.4375 8.667969-33.730468 23.140625-43.453124v-212.945313c.011718-13.285156 8.980468-24.886719 21.832031-28.238281-8.75-2.320313-18.082031-.4375-25.25 5.097656-7.167969 5.53125-11.351563 14.085938-11.324219 23.140625v212.953125c-20.445312 13.519531-28.742187 39.4375-19.949218 62.316406 8.792968 22.882813 32.3125 36.570313 56.550781 32.917969-25.804688-3.648437-44.992188-25.730469-45-51.789063zm0 0" fill="#f59a1d"/><path d="m144.640625 350.246094v-128.628906c0-3.867188-3.132813-7-7-7-3.863281 0-7 3.132812-7 7v128.628906c-12.824219 3.507812-21.074219 15.960937-19.308594 29.136718 1.769531 13.179688 13.015625 23.011719 26.308594 23.011719 13.296875 0 24.539063-9.832031 26.308594-23.011719 1.769531-13.175781-6.484375-25.628906-19.308594-29.136718zm0 0" fill="#f59a1d"/><path d="m128.453125 382.832031c-3.863281 0-7-3.132812-7-7v-154.214843c0-3.867188 3.136719-7 7-7 3.867187 0 7 3.132812 7 7v154.203124c.003906 1.859376-.730469 3.640626-2.046875 4.957032-1.3125 1.316406-3.09375 2.054687-4.953125 2.054687zm0 0" fill="#d8283f"/><path d="m154.996094 375.828125c0 14.660156-11.882813 26.542969-26.542969 26.542969s-26.542969-11.882813-26.542969-26.542969 11.882813-26.542969 26.542969-26.542969 26.542969 11.882813 26.542969 26.542969zm0 0" fill="#ff414d"/><path d="m128.453125 349.285156c-1.511719.003906-3.019531.136719-4.511719.398438 12.726563 2.183594 22.03125 13.21875 22.03125 26.132812 0 12.914063-9.304687 23.953125-22.03125 26.136719 9.886719 1.726563 19.898438-2.269531 25.875-10.328125 5.980469-8.0625 6.898438-18.804688 2.378906-27.761719-4.519531-8.957031-13.707031-14.601562-23.742187-14.578125zm0 0" fill="#d8283f"/><g fill="#002d42"><path d="m68.371094 105.71875h-19.019532c-3.867187 0-7-3.132812-7-7 0-3.863281 3.132813-7 7-7h19.019532c3.863281 0 7 3.136719 7 7 0 3.867188-3.136719 7-7 7zm0 0"/><path d="m68.371094 136.445312h-19.019532c-3.867187 0-7-3.136718-7-7 0-3.867187 3.132813-7 7-7h19.019532c3.863281 0 7 3.132813 7 7 0 3.863282-3.136719 7-7 7zm0 0"/><path d="m68.371094 167.167969h-19.019532c-3.867187 0-7-3.132813-7-7 0-3.867188 3.132813-7 7-7h19.019532c3.863281 0 7 3.132812 7 7 0 3.867187-3.136719 7-7 7zm0 0"/><path d="m68.371094 197.886719h-19.019532c-3.867187 0-7-3.132813-7-7 0-3.863281 3.132813-7 7-7h19.019532c3.863281 0 7 3.136719 7 7 0 3.867187-3.136719 7-7 7zm0 0"/><path d="m68.371094 228.621094h-19.019532c-3.867187 0-7-3.136719-7-7 0-3.867188 3.132813-7 7-7h19.019532c3.863281 0 7 3.132812 7 7 0 3.863281-3.136719 7-7 7zm0 0"/><path d="m68.371094 259.335938h-19.019532c-3.867187 0-7-3.132813-7-7 0-3.867188 3.132813-7 7-7h19.019532c3.863281 0 7 3.132812 7 7 0 3.867187-3.136719 7-7 7zm0 0"/><path d="m68.371094 290.058594h-19.019532c-3.867187 0-7-3.132813-7-7 0-3.863282 3.132813-7 7-7h19.019532c3.863281 0 7 3.136718 7 7 0 3.867187-3.136719 7-7 7zm0 0"/><path d="m68.371094 320.789062h-19.019532c-3.867187 0-7-3.136718-7-7 0-3.867187 3.132813-7 7-7h19.019532c3.863281 0 7 3.132813 7 7 0 3.863282-3.136719 7-7 7zm0 0"/></g><path d="m217.957031 98.71875c0 9.574219-7.757812 17.332031-17.332031 17.332031-9.570312 0-17.332031-7.757812-17.332031-17.332031 0-9.570312 7.761719-17.332031 17.332031-17.332031 9.574219 0 17.332031 7.761719 17.332031 17.332031zm0 0" fill="#ff414d"/><path d="m200.625 81.386719c-1.367188.015625-2.726562.191406-4.050781.523437 7.777343 1.859375 13.261719 8.808594 13.261719 16.800782 0 7.996093-5.484376 14.945312-13.261719 16.800781 6.492187 1.574219 13.3125-.726563 17.523437-5.914063 4.210938-5.191406 5.058594-12.339844 2.179688-18.367187-2.878906-6.03125-8.96875-9.867188-15.652344-9.855469zm0 0" fill="#d8283f"/><path d="m90.402344 36.21875c.324218-8.207031 7.074218-14.695312 15.292968-14.695312 8.214844 0 14.964844 6.488281 15.289063 14.695312-.265625 8.253906-7.03125 14.804688-15.289063 14.804688-8.257812 0-15.027343-6.550782-15.292968-14.804688zm23.300781 0c-.160156-4.390625-3.820313-7.84375-8.214844-7.742188-4.394531.101563-7.890625 3.71875-7.84375 8.113282.042969 4.394531 3.613281 7.9375 8.007813 7.949218 4.5-.125 8.074218-3.820312 8.050781-8.320312zm0 0" fill="#002d42"/><path d="m139.121094 36.21875v8.726562h23.832031v10.851563h-23.832031v18.296875h-12.128906v-48.734375h38.371093v10.859375zm0 0" fill="#002d42"/><path d="m14.390625 154.699219v266.820312c.015625 14.496094 11.761719 26.242188 26.253906 26.261719h175.601563c14.496094-.019531 26.242187-11.765625 26.257812-26.261719v-381.261719c-.015625-14.496093-11.761718-26.242187-26.257812-26.257812h-175.601563c-14.492187.019531-26.238281 11.761719-26.253906 26.257812v75.789063c0 3.867187-3.132813 7-7 7s-7-3.132813-7-7v-75.789063c.027344-22.226562 18.035156-40.2343745 40.257813-40.257812h175.601562c22.226562.0195312 40.242188 18.03125 40.269531 40.257812v381.261719c-.027343 22.222657-18.035156 40.234375-40.257812 40.261719h-175.601563c-22.21875-.03125-40.226562-18.039062-40.253906-40.261719v-266.820312c0-3.863281 3.132812-7 7-7s7 3.136719 7 7zm54.707031 221.121093c-.007812 27.824219 19.3125 51.917969 46.472656 57.957032 27.15625 6.042968 54.871094-7.589844 66.65625-32.792969 11.789063-25.203125 4.488282-55.210937-17.554687-72.183594v-27.464843c0-3.867188-3.136719-7-7-7-3.867187 0-7 3.132812-7 7v31.042968c-.003906 2.328125 1.15625 4.503906 3.085937 5.804688 16.5625 11.132812 23.902344 31.785156 18.085938 50.875-5.820312 19.089844-23.433594 32.132812-43.390625 32.132812s-37.570313-13.042968-43.386719-32.132812c-5.820312-19.089844 1.519532-39.742188 18.082032-50.875 1.933593-1.300782 3.089843-3.476563 3.089843-5.804688v-212.957031c.164063-12.152344 10.058594-21.917969 22.214844-21.917969 12.152344 0 22.050781 9.765625 22.210937 21.917969v107.503906c0 3.863281 3.136719 7 7 7 3.867188 0 7-3.136719 7-7v-107.503906c-.207031-19.855469-16.359374-35.835937-36.210937-35.835937-19.855469 0-36.007813 15.980468-36.214844 35.835937v209.359375c-14.601562 11.234375-23.152343 28.617188-23.140625 47.039062zm88.554688-134c-3.863282 0-7 3.132813-7 7v19.699219c0 3.867188 3.136718 7 7 7 3.867187 0 7-3.132812 7-7v-19.707031c-.003906-3.863281-3.136719-6.992188-7-6.992188zm-22.199219-20.203124v121.402343c16.785156 3.582031 28.160156 19.257813 26.359375 36.324219-1.800781 17.070312-16.195312 30.027344-33.359375 30.027344s-31.558594-12.957032-33.359375-30.027344c-1.800781-17.066406 9.574219-32.742188 26.359375-36.324219v-121.402343c0-3.867188 3.136719-7 7-7 3.867187 0 7 3.132812 7 7zm-7 134.667968c-10.792969 0-19.539063 8.75-19.539063 19.542969s8.75 19.542969 19.542969 19.542969 19.542969-8.746094 19.546875-19.539063c-.011718-10.792969-8.757812-19.535156-19.550781-19.546875zm-79.101563-250.566406h19.019532c3.863281 0 7-3.132812 7-7 0-3.863281-3.136719-7-7-7h-19.019532c-3.867187 0-7 3.136719-7 7 0 3.867188 3.132813 7 7 7zm0 30.726562h19.019532c3.863281 0 7-3.136718 7-7 0-3.867187-3.136719-7-7-7h-19.019532c-3.867187 0-7 3.132813-7 7 0 3.863282 3.132813 7 7 7zm0 30.722657h19.019532c3.863281 0 7-3.132813 7-7 0-3.867188-3.136719-7-7-7h-19.019532c-3.867187 0-7 3.132812-7 7 0 3.867187 3.132813 7 7 7zm0 30.722656h19.019532c3.863281 0 7-3.132813 7-7 0-3.863281-3.136719-7-7-7h-19.019532c-3.867187 0-7 3.136719-7 7 0 3.867187 3.132813 7 7 7zm0 30.730469h19.019532c3.863281 0 7-3.136719 7-7 0-3.867188-3.136719-7-7-7h-19.019532c-3.867187 0-7 3.132812-7 7 0 3.863281 3.132813 7 7 7zm0 30.722656h19.019532c3.863281 0 7-3.132812 7-7s-3.136719-7-7-7h-19.019532c-3.867187 0-7 3.132812-7 7s3.132813 7 7 7zm0 30.722656h19.019532c3.863281 0 7-3.132812 7-7 0-3.863281-3.136719-7-7-7h-19.019532c-3.867187 0-7 3.136719-7 7 0 3.867188 3.132813 7 7 7zm0 30.730469h19.019532c3.863281 0 7-3.136719 7-7 0-3.867187-3.136719-7-7-7h-19.019532c-3.867187 0-7 3.132813-7 7 0 3.863281 3.132813 7 7 7zm151.273438-197.75c-13.4375 0-24.332031-10.894531-24.332031-24.332031s10.898437-24.332032 24.335937-24.332032c13.4375.003907 24.332032 10.898438 24.328125 24.335938-.015625 13.433594-10.898437 24.316406-24.332031 24.328125zm0-14c5.707031 0 10.332031-4.625 10.332031-10.332031 0-5.707032-4.628906-10.332032-10.332031-10.332032-5.707031.003907-10.332031 4.628907-10.332031 10.335938.011719 5.703125 4.632812 10.324219 10.332031 10.328125zm-110.222656-72.828125c.324218-8.207031 7.074218-14.695312 15.292968-14.695312 8.214844 0 14.964844 6.488281 15.289063 14.695312-.265625 8.253906-7.03125 14.804688-15.289063 14.804688-8.257812 0-15.027343-6.550782-15.292968-14.804688zm7.242187 0c.132813 4.40625 3.789063 7.882812 8.195313 7.792969 4.40625-.09375 7.917968-3.71875 7.867187-8.125s-3.644531-7.949219-8.054687-7.9375c-4.457032.15625-7.992188 3.8125-8 8.269531zm67.722657 0v-10.859375h-38.375v48.726563h12.128906v-18.296876h23.832031v-10.851562h-23.832031v-8.71875zm0 0" fill="#002d42"/></svg>