<svg height="463pt" viewBox="0 -33 463.43602 463" width="463pt" xmlns="http://www.w3.org/2000/svg"><path d="m52.480469 115.101562c-3.472657-27.214843 9.929687-53.816406 33.867187-67.222656 23.941406-13.40625 53.621094-10.929687 75.011719 6.25 23.683594-35.023437 65.695313-52.917968 107.359375-45.71875 41.664062 7.199219 75.238281 38.152344 85.792969 79.09375 26.207031-12.820312 57.589843-8.25 79.054687 11.503906 21.464844 19.753907 28.613282 50.652344 18.011719 77.828126-10.605469 27.175781-36.789063 45.066406-65.960937 45.066406h-324.871094c-28.113282.085937-51.535156-21.527344-53.707032-49.558594-2.171874-28.035156 17.644532-52.996094 45.4375-57.242188zm0 0" fill="#d9ecf2"/><path d="m314.578125 87.503906c9.675781-4.773437 20.316406-7.261718 31.105469-7.269531 2.273437 0 4.507812.132813 6.722656.339844-16.949219-51.164063-69.15625-81.878907-122.113281-71.839844 40.980469 7.710937 73.824219 38.398437 84.285156 78.769531zm0 0" fill="#bdd9e5"/><path d="m385.609375 80.234375c-6.753906 0-13.46875.980469-19.941406 2.910156 33.820312 9.898438 55.210937 43.167969 50.183593 78.046875-5.027343 34.878906-34.941406 60.753906-70.183593 60.699219h39.925781c39.117188 0 70.828125-31.710937 70.828125-70.828125s-31.710937-70.828125-70.828125-70.828125zm0 0" fill="#bdd9e5"/><path d="m352.785156 139.667969s21.199219-18.605469 26.496094-59.121094c-8.625.777344-17.03125 3.136719-24.800781 6.953125 3.570312 17.277344 2.992187 35.15625-1.695313 52.167969zm0 0" fill="#bdd9e5"/><path d="m363.378906 360.863281c0 11.246094-9.117187 20.363281-20.363281 20.363281s-20.363281-9.117187-20.363281-20.363281c0-11.246093 9.117187-20.363281 20.363281-20.363281s20.363281 9.117188 20.363281 20.363281zm-308.605468-55.816406c-11.25 0-20.367188 9.121094-20.367188 20.367187.003906 11.25 9.128906 20.367188 20.375 20.359376 11.25-.003907 20.363281-9.128907 20.355469-20.378907-.007813-11.242187-9.125-20.347656-20.363281-20.347656zm95.339843 29.777344c-14.378906 0-26.039062 11.65625-26.039062 26.035156s11.660156 26.035156 26.039062 26.035156c14.378907 0 26.035157-11.65625 26.035157-26.035156s-11.65625-26.035156-26.035157-26.035156zm197.78125-86.164063c-8.113281 0-14.695312 6.578125-14.695312 14.695313 0 8.117187 6.582031 14.695312 14.695312 14.695312 8.117188 0 14.699219-6.578125 14.699219-14.695312 0-8.117188-6.582031-14.695313-14.699219-14.695313zm0 0" fill="#d9ecf2"/><path d="m350.425781 263.355469c-.007812 5.75-3.375 10.96875-8.613281 13.34375 6.171875 2.847656 13.488281 1.089843 17.695312-4.246094 4.210938-5.335937 4.210938-12.863281 0-18.199219-4.207031-5.335937-11.523437-7.089844-17.695312-4.242187 5.238281 2.375 8.605469 7.589843 8.613281 13.34375zm0 0" fill="#bdd9e5"/><path d="m54.773438 305.046875c-2.070313.027344-4.121094.375-6.085938 1.027344 8.492188 2.609375 14.289062 10.453125 14.289062 19.335937 0 8.882813-5.796874 16.726563-14.289062 19.335938 1.964844.652344 4.015625 1 6.085938 1.027344 11.246093 0 20.363281-9.117188 20.363281-20.363282s-9.117188-20.363281-20.363281-20.363281zm0 0" fill="#bdd9e5"/><path d="m150.113281 334.824219c-2.050781.003906-4.09375.253906-6.085937.742187 11.710937 2.789063 19.972656 13.253906 19.972656 25.292969s-8.261719 22.5-19.972656 25.292969c9.761718 2.355468 20.007812-1.109375 26.332031-8.910156 6.324219-7.800782 7.597656-18.539063 3.269531-27.601563-4.324218-9.0625-13.476562-14.828125-23.515625-14.816406zm0 0" fill="#bdd9e5"/><path d="m343.015625 340.5c-2.070313.027344-4.121094.375-6.082031 1.027344 8.488281 2.609375 14.277344 10.453125 14.277344 19.332031 0 8.882813-5.789063 16.722656-14.277344 19.335937 1.960937.652344 4.011718 1 6.082031 1.027344 11.246094 0 20.363281-9.117187 20.363281-20.363281s-9.117187-20.363281-20.363281-20.363281zm0 0" fill="#bdd9e5"/><g fill="#26a3b9"><path d="m80.589844 285.050781c-2.691406-.003906-5.140625-1.542969-6.304688-3.96875-1.164062-2.421875-.839844-5.296875.839844-7.398437l21.410156-26.820313c1.542969-2.015625 4.050782-3.039062 6.5625-2.675781 2.507813.363281 4.625 2.054688 5.535156 4.421875.90625 2.367187.464844 5.042969-1.160156 6.988281l-21.414062 26.820313c-1.324219 1.667969-3.339844 2.636719-5.46875 2.632812zm0 0"/><path d="m119.871094 317.394531c-2.6875 0-5.140625-1.542969-6.304688-3.964843-1.167968-2.425782-.839844-5.300782.835938-7.402344l30.246094-37.890625c2.410156-3.019531 6.816406-3.515625 9.839843-1.101563 3.023438 2.410156 3.515625 6.816406 1.105469 9.839844l-30.246094 37.886719c-1.328125 1.667969-3.34375 2.636719-5.476562 2.632812zm0 0"/><path d="m184.972656 317.394531c-2.691406 0-5.140625-1.542969-6.308594-3.964843-1.164062-2.425782-.839843-5.300782.839844-7.402344l40.644532-50.917969c2.410156-3.019531 6.816406-3.515625 9.839843-1.101563 3.023438 2.410157 3.515625 6.816407 1.105469 9.839844l-40.640625 50.914063c-1.332031 1.667969-3.347656 2.636719-5.480469 2.632812zm0 0"/><path d="m221.835938 352.773438c-2.695313.003906-5.148438-1.539063-6.316407-3.96875-1.167969-2.425782-.835937-5.308594.847657-7.410157l75.46875-94.53125c2.414062-3.023437 6.816406-3.515625 9.839843-1.105469 3.023438 2.414063 3.515625 6.820313 1.105469 9.839844l-75.46875 94.546875c-1.328125 1.664063-3.34375 2.632813-5.476562 2.628907zm0 0"/><path d="m250.726562 398.136719c-2.6875 0-5.140624-1.539063-6.304687-3.964844-1.164063-2.421875-.839844-5.300781.839844-7.402344l71.917969-90.097656c2.464843-2.824219 6.710937-3.203125 9.640624-.867187 2.925782 2.335937 3.496094 6.5625 1.292969 9.589843l-71.921875 90.101563c-1.324218 1.664062-3.335937 2.636718-5.464844 2.640625zm0 0"/><path d="m380.285156 317.394531c-2.691406 0-5.140625-1.542969-6.308594-3.964843-1.164062-2.425782-.839843-5.300782.839844-7.402344l28.363282-35.535156c2.414062-3.023438 6.816406-3.519532 9.839843-1.105469 3.023438 2.414062 3.515625 6.816406 1.105469 9.839843l-28.363281 35.535157c-1.332031 1.667969-3.347657 2.636719-5.476563 2.632812zm0 0"/></g><path d="m463.4375 151.0625c-.050781 42.964844-34.867188 77.78125-77.828125 77.828125h-324.855469c-30.46875.019531-56.234375-22.546875-60.230468-52.75-3.996094-30.207031 15.011718-58.695313 44.4375-66.601563-.042969-.980468-.070313-1.933593-.070313-2.878906-.015625-27.28125 14.914063-52.375 38.898437-65.378906 23.980469-13 53.15625-11.816406 76.007813 3.085938 4.90625-6.339844 10.457031-12.152344 16.566406-17.339844 2.949219-2.503906 7.367188-2.144532 9.867188.804687 2.503906 2.945313 2.144531 7.363281-.800781 9.867188-6.984376 5.933593-13.128907 12.78125-18.273438 20.363281-1.097656 1.617188-2.820312 2.703125-4.753906 2.992188-1.933594.289062-3.898438-.242188-5.421875-1.464844-10.671875-8.636719-23.996094-13.328125-37.722657-13.289063-17.363281-.117187-33.925781 7.300781-45.402343 20.328125-11.476563 13.03125-16.742188 30.398438-14.429688 47.605469.46875 3.757813-2.132812 7.210937-5.878906 7.789063-24.132813 3.730468-41.320313 25.421874-39.433594 49.769531 1.886719 24.347656 22.214844 43.132812 46.632813 43.097656h324.859375c22.921875.179687 44.183593-11.945313 55.695312-31.765625 11.515625-19.824219 11.515625-44.296875 0-64.121094-11.511719-19.820312-32.773437-31.945312-55.695312-31.765625-7.976563.027344-15.875 1.574219-23.269531 4.554688 2.6875 16.722656 1.691406 33.824219-2.910157 50.121093-1.265625 3.617188-5.203125 5.542969-8.835937 4.324219-3.628906-1.21875-5.609375-5.128906-4.4375-8.777343 4.230468-15.777344 4.753906-32.324219 1.527344-48.339844-10.691407-41.28125-46.277344-71.316406-88.769532-74.925782-3.851562-.324218-6.710937-3.710937-6.386718-7.5625.320312-3.851562 3.707031-6.7148432 7.5625-6.390624 45.515624 3.871093 84.382812 34.417968 98.894531 77.738281 8.523437-3.148438 17.539062-4.757813 26.625-4.746094 42.964843.042969 77.785156 34.863281 77.832031 77.828125zm-258.738281-127.035156c1.03125 0 2.046875-.230469 2.976562-.667969 6.261719-2.945313 12.8125-5.234375 19.546875-6.824219 3.667969-.96875 5.894532-4.679687 5.03125-8.371094-.867187-3.6875-4.515625-6.019531-8.230468-5.253906-7.6875 1.8125-15.164063 4.421875-22.3125 7.785156-2.964844 1.394532-4.5625 4.664063-3.84375 7.859376.714843 3.199218 3.550781 5.472656 6.828124 5.472656zm138.316406 309.472656c15.113281 0 27.363281 12.25 27.363281 27.363281s-12.25 27.363281-27.363281 27.363281-27.363281-12.25-27.363281-27.363281c.015625-15.105469 12.257812-27.347656 27.363281-27.363281zm-13.363281 27.363281c0 7.378907 5.984375 13.363281 13.363281 13.363281 7.382813 0 13.363281-5.984374 13.363281-13.363281 0-7.382812-5.980468-13.363281-13.363281-13.363281-7.375.007812-13.355469 5.984375-13.363281 13.363281zm-274.878906-62.800781c15.117187 0 27.367187 12.257812 27.363281 27.375-.007813 15.117188-12.269531 27.363281-27.386719 27.351562-15.117188-.011718-27.359375-12.277343-27.34375-27.394531.027344-15.101562 12.269531-27.335937 27.371094-27.347656zm0 14c-7.386719 0-13.371094 5.988281-13.367188 13.375.007812 7.382812 6.003906 13.363281 13.386719 13.351562 7.386719-.011718 13.359375-6.007812 13.34375-13.394531-.019531-7.371093-5.992188-13.335937-13.359375-13.347656zm95.339843 29.761719c2.371094-.007813 4.726563.4375 6.933594 1.300781 2.34375.976562 5.03125.609375 7.027344-.960938 1.992187-1.566406 2.984375-4.09375 2.585937-6.601562-.398437-2.503906-2.121094-4.601562-4.503906-5.476562-13.496094-5.289063-28.863281-1.164063-37.898438 10.171874-9.035156 11.339844-9.625 27.238282-1.457031 39.214844 8.167969 11.976563 23.1875 17.230469 37.039063 12.957032 13.851562-4.273438 23.300781-17.074219 23.304687-31.570313 0-3.867187-3.132812-7-7-7-3.867187 0-7 3.132813-7 7-.003906 10.511719-8.527343 19.03125-19.039062 19.03125s-19.035157-8.523437-19.035157-19.039063c.003907-10.511718 8.523438-19.03125 19.039063-19.03125zm192.34375-73.03125c-2.734375-2.730469-7.167969-2.730469-9.902343 0-2.734376 2.734375-2.734376 7.167969 0 9.902343 8.472656 8.46875 22.207031 8.46875 30.675781-.003906 8.472656-8.46875 8.472656-22.203125 0-30.675781-8.46875-8.46875-22.203125-8.472656-30.675781 0-2.734376 2.734375-2.734376 7.164063 0 9.898437 2.734374 2.734376 7.167968 2.734376 9.902343 0 3.003907-3.003906 7.878907-3.003906 10.882813 0 3.003906 3.007813 3.003906 7.878907 0 10.882813-3.003906 3.007813-7.878906 3.007813-10.882813 0zm-236.089843-23.035157c-3.019532-2.414062-7.421876-1.921874-9.835938 1.101563l-21.410156 26.820313c-1.625 1.945312-2.070313 4.621093-1.160156 6.988281.90625 2.367187 3.023437 4.058593 5.535156 4.421875 2.507812.363281 5.019531-.660156 6.558594-2.675782l21.414062-26.820312c2.414062-3.019531 1.921875-7.421875-1.101562-9.835938zm48.117187 21.277344c-3.023437-2.410156-7.425781-1.914062-9.839844 1.101563l-30.246093 37.890625c-2.410157 3.019531-1.917969 7.425781 1.105468 9.839844 3.023438 2.410156 7.425782 1.917968 9.839844-1.105469l30.246094-37.886719c2.40625-3.023438 1.914062-7.421875-1.105469-9.835938zm75.503906-13.03125c-3.023437-2.410156-7.425781-1.917968-9.839843 1.101563l-40.644532 50.925781c-2.414062 3.019531-1.917968 7.425781 1.105469 9.839844 3.019531 2.410156 7.425781 1.917968 9.839844-1.105469l40.648437-50.917969c2.410156-3.023437 1.914063-7.429687-1.109375-9.839844zm71.6875-8.25c-3.023437-2.40625-7.425781-1.914062-9.839843 1.105469l-75.46875 94.535156c-2.410157 3.023438-1.917969 7.425781 1.105468 9.839844 3.019532 2.414063 7.425782 1.917969 9.839844-1.105469l75.472656-94.535156c2.410156-3.023438 1.914063-7.425781-1.109375-9.839844zm25.34375 49.808594c-3.023437-2.410156-7.425781-1.914062-9.839843 1.105469l-71.917969 90.097656c-2.414063 3.023437-1.917969 7.429687 1.101562 9.839844 3.023438 2.414062 7.429688 1.917969 9.839844-1.101563l71.910156-90.109375c2.40625-3.015625 1.917969-7.414062-1.09375-9.828125zm53.265625 21.832031c2.128906.003907 4.144532-.964843 5.476563-2.632812l28.363281-35.535157c2.410156-3.023437 1.917969-7.425781-1.105469-9.839843-3.023437-2.414063-7.425781-1.917969-9.839843 1.105469l-28.363282 35.535156c-1.679687 2.101562-2.003906 4.976562-.839844 7.402344 1.167969 2.421874 3.617188 3.964843 6.308594 3.964843zm0 0" fill="#002d42"/></svg>