<svg height="461pt" viewBox="-31 0 461 461.784" width="461pt" xmlns="http://www.w3.org/2000/svg"><path d="m233.898438 155.882812c41.429687 41.425782 41.429687 108.59375 0 150.023438-41.429688 41.429688-108.597657 41.429688-150.027344 0-41.425782-41.429688-41.425782-108.597656 0-150.023438 41.429687-41.429687 108.597656-41.429687 150.027344 0zm0 0" fill="#fabe02"/><path d="m66.203125 145.222656c-1.855469.003906-3.636719-.734375-4.945313-2.050781l-18.230468-18.226563c-2.734375-2.734374-2.734375-7.167968 0-9.902343s7.167968-2.734375 9.902344 0l18.234374 18.25c1.992188 2.003906 2.582032 5.007812 1.496094 7.617187-1.082031 2.609375-3.628906 4.3125-6.457031 4.3125zm-27.140625 53.5625c1-3.734375-1.214844-7.574218-4.949219-8.578125l-24.90625-6.671875c-3.734375-1-7.570312 1.214844-8.574219 4.949219-1 3.734375 1.21875 7.574219 4.953126 8.574219l24.898437 6.671875c1.792969.484375 3.707031.234375 5.316406-.691407 1.605469-.929687 2.78125-2.460937 3.261719-4.253906zm-29.855469 79.457032 24.90625-6.671876c3.734375-1 5.949219-4.835937 4.949219-8.574218-1-3.734375-4.839844-5.949219-8.574219-4.949219l-24.902343 6.671875c-3.734376 1.003906-5.953126 4.839844-4.953126 8.574219 1.003907 3.734375 4.839844 5.953125 8.574219 4.949219zm190.363281-172.125 6.671876-24.90625c1-3.734376-1.21875-7.570313-4.953126-8.574219-3.734374-1-7.570312 1.214843-8.574218 4.953125l-6.671875 24.902344c-1 3.734374 1.21875 7.574218 4.953125 8.574218s7.570312-1.214844 8.574218-4.949218zm-72.800781 4.945312c3.738281-.996094 5.957031-4.832031 4.960938-8.570312l-6.675781-24.902344c-1-3.738282-4.835938-5.953125-8.570313-4.953125-3.738281 1.003906-5.953125 4.839843-4.953125 8.574219l6.671875 24.90625c.480469 1.792968 1.652344 3.324218 3.261719 4.253906 1.609375.925781 3.523437 1.175781 5.316406.691406zm147.964844 235.675781c1.3125-1.308593 2.050781-3.089843 2.050781-4.949219 0-1.855468-.738281-3.636718-2.050781-4.949218l-18.230469-18.226563c-2.757812-2.535156-7.027344-2.445312-9.675781.199219-2.652344 2.648438-2.75 6.914062-.222656 9.679688l18.226562 18.226562c1.3125 1.316406 3.09375 2.054688 4.949219 2.054688 1.859375 0 3.640625-.738282 4.953125-2.054688zm-18.230469-203.566406 18.230469-18.226563c2.730469-2.734374 2.730469-7.167968 0-9.902343-2.734375-2.734375-7.167969-2.734375-9.902344 0l-18.226562 18.25c-2.734375 2.734375-2.734375 7.164062 0 9.898437s7.164062 2.734375 9.898437 0zm-203.5625 203.566406 18.222656-18.246093c2.734376-2.734376 2.734376-7.167969 0-9.898438-2.734374-2.734375-7.164062-2.734375-9.898437 0l-18.230469 18.226562c-2.730468 2.734376-2.730468 7.164063 0 9.898438 2.734375 2.734375 7.167969 2.734375 9.902344 0zm264.195313-73.445312c1-3.726563-1.207031-7.558594-4.933594-8.570313l-24.914063-6.671875c-3.734374-1-7.574218 1.214844-8.574218 4.953125-1 3.734375 1.214844 7.570313 4.949218 8.570313l24.90625 6.671875c1.792969.484375 3.703126.230468 5.308594-.699219 1.609375-.929687 2.78125-2.460937 3.257813-4.253906zm-29.847657-69.5625 24.914063-6.671875c3.734375-1 5.953125-4.839844 4.953125-8.574219-1.003906-3.734375-4.839844-5.949219-8.574219-4.949219l-24.921875 6.675782c-3.734375 1-5.949218 4.839843-4.949218 8.574218s4.839843 5.953125 8.574218 4.949219zm-162.234374 180.464843 6.675781-24.902343c1-3.734375-1.21875-7.574219-4.953125-8.574219s-7.570313 1.214844-8.574219 4.949219l-6.671875 24.902343c-1 3.734376 1.214844 7.574219 4.953125 8.574219 3.734375 1.003907 7.570313-1.214843 8.570313-4.949219zm76.238281 4.949219c3.734375-1 5.949219-4.84375 4.949219-8.578125l-6.671876-24.902344c-1.003906-3.734374-4.839843-5.949218-8.574218-4.949218s-5.953125 4.839844-4.953125 8.574218l6.671875 24.902344c.480468 1.796875 1.652344 3.324219 3.261718 4.253906 1.609376.929688 3.523438 1.179688 5.316407.695313zm0 0" fill="#fabe02"/><path d="m141.867188 126.203125v209.375c41.460937 6.753906 82.996093-11.59375 105.925781-46.785156 22.929687-35.195313 22.929687-80.605469 0-115.800781-22.929688-35.195313-64.464844-53.542969-105.925781-46.789063zm0 0" fill="#f59a1d"/><path d="m192.144531 7h167.609375c18.367188 0 33.257813 14.890625 33.257813 33.261719v381.261719c0 18.371093-14.890625 33.261718-33.257813 33.261718h-167.609375c-18.367187 0-33.261719-14.890625-33.261719-33.261718v-381.261719c0-18.371094 14.894532-33.261719 33.261719-33.261719zm0 0" fill="#d9ecf2"/><g fill="#bdd9e5"><path d="m226.203125 81.222656h-19c-3.863281 0-7-3.132812-7-7 0-3.863281 3.136719-7 7-7h19c3.867187 0 7 3.136719 7 7 0 3.867188-3.132813 7-7 7zm0 0"/><path d="m226.203125 111.949219h-19c-3.863281 0-7-3.136719-7-7 0-3.867188 3.136719-7 7-7h19c3.867187 0 7 3.132812 7 7 0 3.863281-3.132813 7-7 7zm0 0"/><path d="m226.203125 142.671875h-19c-3.863281 0-7-3.132813-7-7s3.136719-7 7-7h19c3.867187 0 7 3.132813 7 7s-3.132813 7-7 7zm0 0"/><path d="m226.203125 173.394531h-19c-3.863281 0-7-3.132812-7-7 0-3.863281 3.136719-7 7-7h19c3.867187 0 7 3.136719 7 7 0 3.867188-3.132813 7-7 7zm0 0"/><path d="m226.203125 204.121094h-19c-3.863281 0-7-3.136719-7-7 0-3.867188 3.136719-7 7-7h19c3.867187 0 7 3.132812 7 7 0 3.863281-3.132813 7-7 7zm0 0"/><path d="m226.203125 234.84375h-19c-3.863281 0-7-3.132812-7-7s3.136719-7 7-7h19c3.867187 0 7 3.132812 7 7s-3.132813 7-7 7zm0 0"/><path d="m226.203125 265.566406h-19c-3.863281 0-7-3.132812-7-7 0-3.863281 3.136719-7 7-7h19c3.867187 0 7 3.136719 7 7 0 3.867188-3.132813 7-7 7zm0 0"/><path d="m226.203125 296.292969h-19c-3.863281 0-7-3.136719-7-7 0-3.867188 3.136719-7 7-7h19c3.867187 0 7 3.132812 7 7 0 3.863281-3.132813 7-7 7zm0 0"/><path d="m359.753906 7h-22.625c18.367188 0 33.257813 14.890625 33.257813 33.261719v381.261719c0 18.371093-14.890625 33.261718-33.257813 33.261718h22.625c18.367188 0 33.257813-14.890625 33.257813-33.261718v-381.261719c0-18.371094-14.890625-33.261719-33.257813-33.261719zm0 0"/></g><path d="m305.164062 312.0625v-228.9375c0-16.136719-13.078124-29.214844-29.214843-29.214844-16.132813 0-29.210938 13.078125-29.210938 29.214844v228.9375c-19.117187 12.855469-27.589843 36.691406-20.871093 58.726562 6.71875 22.03125 27.046874 37.085938 50.082031 37.085938 23.035156 0 43.367187-15.054688 50.085937-37.085938 6.71875-22.035156-1.753906-45.871093-20.871094-58.726562zm0 0" fill="#fabe02"/><path d="m292.476562 329.9375v-244.605469c0-3.867187-3.132812-7-7-7-3.867187 0-7 3.132813-7 7v244.605469c-12.824218 3.503906-21.078124 15.957031-19.308593 29.132812 1.769531 13.179688 13.011719 23.015626 26.308593 23.015626 13.296876 0 24.539063-9.835938 26.308594-23.015626 1.769532-13.175781-6.484375-25.628906-19.308594-29.132812zm0 0" fill="#f59a1d"/><path d="m237.804688 355.515625c-.011719-17.4375 8.667968-33.730469 23.144531-43.453125v-228.9375c.007812-13.386719 9.117187-25.054688 22.101562-28.308594-8.726562-2.234375-18-.296875-25.105469 5.242188-7.105468 5.539062-11.25 14.054687-11.214843 23.066406v228.9375c-20.394531 13.496094-28.699219 39.332031-19.988281 62.179688 8.714843 22.851562 32.109374 36.601562 56.308593 33.09375-25.910156-3.539063-45.234375-25.667969-45.246093-51.820313zm0 0" fill="#f59a1d"/><path d="m275.953125 362.515625c-3.867187 0-7-3.132813-7-7v-270.183594c0-3.867187 3.132813-7 7-7s7 3.132813 7 7v270.183594c0 3.867187-3.132813 7-7 7zm0 0" fill="#d8283f"/><path d="m302.492188 355.515625c0 14.660156-11.882813 26.542969-26.542969 26.542969-14.660157 0-26.542969-11.882813-26.542969-26.542969s11.882812-26.542969 26.542969-26.542969c14.660156 0 26.542969 11.882813 26.542969 26.542969zm0 0" fill="#ff414d"/><path d="m275.949219 328.972656c-1.476563.011719-2.949219.144532-4.402344.398438 12.789063 2.128906 22.160156 13.191406 22.160156 26.152344 0 12.960937-9.371093 24.023437-22.160156 26.152343 9.871094 1.660157 19.835937-2.371093 25.769531-10.429687 5.933594-8.0625 6.828125-18.773438 2.3125-27.707032-4.515625-8.929687-13.671875-14.558593-23.679687-14.558593zm0 0" fill="#d8283f"/><path d="m215.863281 81.222656h-19.019531c-3.863281 0-7-3.132812-7-7 0-3.863281 3.136719-7 7-7h19.019531c3.867188 0 7 3.136719 7 7 0 3.867188-3.132812 7-7 7zm0 0" fill="#002d42"/><path d="m215.863281 111.949219h-19.019531c-3.863281 0-7-3.136719-7-7 0-3.867188 3.136719-7 7-7h19.019531c3.867188 0 7 3.132812 7 7 0 3.863281-3.132812 7-7 7zm0 0" fill="#002d42"/><path d="m215.863281 142.671875h-19.019531c-3.863281 0-7-3.132813-7-7s3.136719-7 7-7h19.019531c3.867188 0 7 3.132813 7 7s-3.132812 7-7 7zm0 0" fill="#002d42"/><path d="m215.863281 173.394531h-19.019531c-3.863281 0-7-3.132812-7-7 0-3.863281 3.136719-7 7-7h19.019531c3.867188 0 7 3.136719 7 7 0 3.867188-3.132812 7-7 7zm0 0" fill="#002d42"/><path d="m215.863281 204.121094h-19.019531c-3.863281 0-7-3.136719-7-7 0-3.867188 3.136719-7 7-7h19.019531c3.867188 0 7 3.132812 7 7 0 3.863281-3.132812 7-7 7zm0 0" fill="#002d42"/><path d="m215.863281 234.84375h-19.019531c-3.863281 0-7-3.132812-7-7s3.136719-7 7-7h19.019531c3.867188 0 7 3.132812 7 7s-3.132812 7-7 7zm0 0" fill="#002d42"/><path d="m215.863281 265.566406h-19.019531c-3.863281 0-7-3.132812-7-7 0-3.863281 3.136719-7 7-7h19.019531c3.867188 0 7 3.136719 7 7 0 3.867188-3.132812 7-7 7zm0 0" fill="#002d42"/><path d="m215.863281 296.292969h-19.019531c-3.863281 0-7-3.136719-7-7 0-3.867188 3.136719-7 7-7h19.019531c3.867188 0 7 3.132812 7 7 0 3.863281-3.132812 7-7 7zm0 0" fill="#002d42"/><path d="m365.453125 74.222656c0 9.574219-7.761719 17.332032-17.332031 17.332032-9.574219 0-17.332032-7.757813-17.332032-17.332032 0-9.570312 7.757813-17.332031 17.332032-17.332031 9.570312 0 17.332031 7.761719 17.332031 17.332031zm0 0" fill="#ff414d"/><path d="m348.121094 56.890625c-1.582032.023437-3.152344.265625-4.667969.71875 7.476563 2.058594 12.65625 8.855469 12.65625 16.613281 0 7.753906-5.179687 14.554688-12.65625 16.613282 1.515625.453124 3.085937.695312 4.667969.714843 9.46875-.144531 17.066406-7.859375 17.066406-17.328125s-7.597656-17.1875-17.066406-17.332031zm0 0" fill="#d8283f"/><path d="m43.039062 124.945312c-2.730468-2.734374-2.730468-7.167968 0-9.902343 2.734376-2.734375 7.167969-2.734375 9.902344 0l18.222656 18.25c2.734376 2.734375 2.734376 7.164062 0 9.898437-2.734374 2.734375-7.164062 2.734375-9.898437 0zm-8.925781 65.265626-24.90625-6.671876c-3.734375-1-7.570312 1.214844-8.574219 4.949219-1 3.734375 1.21875 7.574219 4.953126 8.574219l24.898437 6.667969c3.734375 1.003906 7.574219-1.214844 8.574219-4.949219s-1.214844-7.574219-4.949219-8.574219zm-3.628906 67.839843-24.902344 6.671875c-3.734375 1.003906-5.953125 4.839844-4.953125 8.574219 1.003906 3.734375 4.839844 5.953125 8.574219 4.949219l24.90625-6.671875c3.734375-1 5.949219-4.835938 4.949219-8.570313-1-3.738281-4.839844-5.953125-8.574219-4.953125zm86-185.410156c-3.734375 1-5.949219 4.839844-4.949219 8.574219l6.667969 24.902344c1.003906 3.734374 4.839844 5.949218 8.574219 4.949218s5.953125-4.839844 4.953125-8.574218l-6.675781-24.902344c-.476563-1.796875-1.652344-3.324219-3.261719-4.253906-1.605469-.929688-3.519531-1.179688-5.3125-.695313zm-73.445313 274.097656c1.3125 1.316407 3.09375 2.054688 4.953126 2.054688 1.855468 0 3.636718-.738281 4.949218-2.054688l18.222656-18.246093c2.734376-2.734376 2.734376-7.167969 0-9.898438-2.734374-2.734375-7.164062-2.734375-9.898437 0l-18.230469 18.226562c-1.316406 1.3125-2.058594 3.097657-2.058594 4.960938s.742188 3.644531 2.0625 4.957031zm75.257813 42.644531c3.167969-.003906 5.9375-2.136718 6.753906-5.199218l6.679688-24.890625c1-3.734375-1.21875-7.574219-4.953125-8.574219s-7.570313 1.214844-8.574219 4.949219l-6.671875 24.902343c-.554688 2.101563-.105469 4.34375 1.21875 6.066407 1.324219 1.722656 3.375 2.734375 5.546875 2.734375zm281.714844 32.140626v-381.261719c-.023438-22.226563-18.03125-40.2343752-40.253907-40.261719h-167.601562c-22.226562.0195312-40.242188 18.03125-40.269531 40.261719v77.78125c-13.246094.78125-26.246094 3.914062-38.398438 9.246093-2.386719.941407-4.066406 3.113282-4.378906 5.660157-.308594 2.546875.796875 5.058593 2.882813 6.546875 2.089843 1.492187 4.824218 1.71875 7.132812.597656 10.375-4.550781 21.457031-7.265625 32.757812-8.03125v197.628906c-39.488281-2.792968-73.523437-28.828125-86.554687-66.210937-13.03125-37.382813-2.554687-78.933594 26.644531-105.667969 2.761719-2.628906 2.910156-6.984375.335938-9.796875-2.574219-2.8125-6.925782-3.046875-9.789063-.527344-33.460937 30.632813-45.371093 78.304688-30.253906 121.078125 15.121094 42.773438 54.34375 72.367188 99.621094 75.167969v26.199219c0 3.863281 3.136719 7 7 7 3.867187 0 7-3.136719 7-7v-329.671875c.015625-14.496094 11.761719-26.242188 26.257812-26.261719h167.601563c14.492187.019531 26.238281 11.765625 26.253906 26.261719v381.261719c-.015625 14.496093-11.761719 26.242187-26.253906 26.261718h-167.601563c-14.496093-.019531-26.242187-11.765625-26.257812-26.261718v-24.398438c0-3.867188-3.132813-7-7-7-3.863281 0-7 3.132812-7 7v24.398438c.027343 22.222656 18.035156 40.234374 40.257812 40.261718h167.601563c22.226562-.019531 40.242187-18.03125 40.265625-40.261718zm-87.847657-338.398438c-.207031-19.851562-16.359374-35.835938-36.214843-35.835938-19.851563 0-36.003907 15.984376-36.210938 35.835938v225.367188c-20.132812 15.503906-28.164062 42.101562-19.976562 66.15625 8.1875 24.054687 30.777343 40.226562 56.1875 40.226562 25.410156 0 48.003906-16.171875 56.191406-40.226562 8.1875-24.054688.15625-50.652344-19.976563-66.15625v-80.648438c0-3.867188-3.132812-7-7-7-3.867187 0-7 3.132812-7 7v84.21875c0 2.328125 1.15625 4.503906 3.089844 5.804688 16.5625 11.132812 23.902344 31.785156 18.082032 50.875-5.816407 19.089843-23.429688 32.132812-43.386719 32.132812s-37.570313-13.042969-43.390625-32.132812c-5.816406-19.089844 1.523437-39.742188 18.085937-50.875 1.929688-1.300782 3.089844-3.476563 3.089844-5.804688v-228.9375c.160156-12.152344 10.058594-21.917969 22.210937-21.917969 12.15625 0 22.050782 9.765625 22.214844 21.917969v73.960938c0 3.863281 3.132813 7 7 7 3.867188 0 7-3.136719 7-7zm-7 95.652344c-3.867187 0-7 3.132812-7 7v17.496094c0 3.863281 3.132813 7 7 7 3.867188 0 7-3.136719 7-7v-17.496094c0-3.867188-3.132812-7-7-7zm-22.210937-93.445313v237.386719c16.789063 3.582031 28.164063 19.257812 26.363281 36.332031-1.800781 17.070313-16.199218 30.027344-33.363281 30.027344-17.167969 0-31.5625-12.957031-33.363281-30.027344-1.800782-17.074219 9.574218-32.75 26.363281-36.332031v-237.386719c0-3.867187 3.132813-7 7-7s7 3.132813 7 7zm-7 250.640625c-10.792969 0-19.542969 8.75-19.542969 19.542969s8.75 19.542969 19.542969 19.542969 19.542969-8.75 19.542969-19.542969c-.011719-10.789063-8.753906-19.53125-19.542969-19.542969zm-79.109375-254.75h19.019531c3.867188 0 7-3.132812 7-7 0-3.863281-3.132812-7-7-7h-19.019531c-3.863281 0-7 3.136719-7 7 0 3.867188 3.136719 7 7 7zm0 30.726563h19.019531c3.867188 0 7-3.136719 7-7 0-3.867188-3.132812-7-7-7h-19.019531c-3.863281 0-7 3.132812-7 7 0 3.863281 3.136719 7 7 7zm0 30.722656h19.019531c3.867188 0 7-3.132813 7-7s-3.132812-7-7-7h-19.019531c-3.863281 0-7 3.132813-7 7s3.136719 7 7 7zm0 30.722656h19.019531c3.867188 0 7-3.132812 7-7 0-3.863281-3.132812-7-7-7h-19.019531c-3.863281 0-7 3.136719-7 7 0 3.867188 3.136719 7 7 7zm0 30.726563h19.019531c3.867188 0 7-3.136719 7-7 0-3.867188-3.132812-7-7-7h-19.019531c-3.863281 0-7 3.132812-7 7 0 3.863281 3.136719 7 7 7zm0 30.722656h19.019531c3.867188 0 7-3.132812 7-7s-3.132812-7-7-7h-19.019531c-3.863281 0-7 3.132812-7 7s3.136719 7 7 7zm0 30.722656h19.019531c3.867188 0 7-3.132812 7-7 0-3.863281-3.132812-7-7-7h-19.019531c-3.863281 0-7 3.136719-7 7 0 3.867188 3.136719 7 7 7zm0 30.726563h19.019531c3.867188 0 7-3.136719 7-7 0-3.867188-3.132812-7-7-7h-19.019531c-3.863281 0-7 3.132812-7 7 0 3.863281 3.136719 7 7 7zm151.277344-197.738281c-13.4375.003906-24.335938-10.890626-24.335938-24.328126-.003906-13.4375 10.890625-24.332031 24.332032-24.335937 13.4375 0 24.332031 10.894531 24.332031 24.332031-.015625 13.433594-10.898438 24.316406-24.328125 24.332032zm0-14c5.707031.011718 10.339844-4.613282 10.347656-10.320313.003906-5.707031-4.617188-10.339844-10.328125-10.34375-5.707031 0-10.335937 4.625-10.335937 10.332031.003906 5.699219 4.617187 10.320313 10.316406 10.332032zm0 0" fill="#002d42"/></svg>