<svg height="467pt" viewBox="0 -14 467.06067 467" width="467pt" xmlns="http://www.w3.org/2000/svg"><path d="m34.085938 43.667969 59.84375 183.542969c2.03125 6.238281 7.867187 10.445312 14.429687 10.402343 6.5625-.046875 12.339844-4.332031 14.285156-10.597656l17.769531-57.117187c1.878907-6.042969 7.335938-10.265626 13.660157-10.574219 6.320312-.308594 12.160156 3.371093 14.617187 9.203125l65.320313 155.078125c2.359375 5.609375 7.863281 9.246093 13.949219 9.222656 6.085937-.027344 11.558593-3.710937 13.875-9.339844l56.910156-138.359375c2.339844-5.699218 7.917968-9.398437 14.078125-9.34375 6.160156.058594 11.667969 3.859375 13.902343 9.601563 2.207032 5.675781 7.613282 9.460937 13.699219 9.601562 6.085938.140625 11.65625-3.398437 14.121094-8.964843l63.089844-142.351563zm0 0" fill="#d9ecf2"/><g fill="#bdd9e5"><path d="m40.050781 61.988281h389.46875l8.117188-18.320312h-403.5625zm0 0"/><path d="m140.660156 167.25c-2.457031-5.835938-8.296875-9.511719-14.621094-9.207031-6.320312.308593-11.777343 4.535156-13.65625 10.578125l-17.769531 57.117187c-.183593.542969-.394531 1.078125-.636719 1.597657 2.074219 6.203124 7.910157 10.355468 14.449219 10.289062 6.535157-.070312 12.285157-4.347656 14.222657-10.59375l17.769531-57.113281c.1875-.566407.410156-1.121094.660156-1.660157zm0 0"/><path d="m318.691406 184.109375c-2.234375-5.742187-7.742187-9.546875-13.902344-9.601563-6.164062-.058593-11.738281 3.640626-14.078124 9.339844l-56.910157 138.359375c-.058593.144531-.140625.269531-.203125.402344l.402344.984375c2.359375 5.609375 7.863281 9.246094 13.949219 9.222656 6.085937-.027344 11.558593-3.710937 13.871093-9.339844l56.914063-138.359374c.0625-.15625.152344-.289063.21875-.441407-.066406-.1875-.183594-.359375-.261719-.566406zm0 0"/><path d="m409.039062 43.667969-62.527343 141.078125-.050781.089844c.085937.191406.1875.355468.265624.550781 2.210938 5.671875 7.613282 9.457031 13.699219 9.59375 6.082031.140625 11.652344-3.394531 14.121094-8.957031l63.089844-142.351563zm0 0"/><path d="m234.015625 258.984375c-2.820313.003906-5.363281-1.683594-6.457031-4.28125l-35.152344-83.453125c-1.5-3.566406.171875-7.671875 3.734375-9.171875s7.667969.171875 9.167969 3.734375l35.152344 83.457031c.910156 2.160157.679687 4.632813-.617188 6.585938s-3.484375 3.128906-5.828125 3.132812zm0 0"/><path d="m167.183594 43.667969 24.976562 76.578125c1.703125 5.222656 6.589844 8.746094 12.085938 8.707031 5.496094-.035156 10.335937-3.625 11.96875-8.871094 1.574218-5.066406 6.144531-8.605469 11.441406-8.863281 5.296875-.253906 10.1875 2.824219 12.246094 7.710938l14.082031 33.441406c2.277344 5.441406 7.5625 9.011718 13.460937 9.089844 5.894532.078124 11.273438-3.351563 13.691407-8.730469l49.398437-109.0625zm0 0"/></g><path d="m253.992188 80.355469c2.273437 5.441406 7.558593 9.011719 13.457031 9.089843 5.894531.078126 11.273437-3.351562 13.691406-8.730468l16.777344-37.046875h-60c.816406.980469 1.480469 2.070312 1.976562 3.246093zm0 0" fill="#d9ecf2"/><path d="m216.214844 48.058594c.5-1.609375 1.316406-3.105469 2.398437-4.398438h-27.9375l1.488281 4.554688c1.703126 5.222656 6.589844 8.746094 12.082032 8.707031 5.492187-.035156 10.332031-3.617187 11.96875-8.863281zm0 0" fill="#d9ecf2"/><path d="m204.886719 338.644531h-14.402344l11.949219-11.949219c2.734375-2.734374 2.734375-7.164062 0-9.898437s-7.164063-2.734375-9.898438 0l-21.855468 21.847656h-34.308594l15.277344-15.28125h22.976562c3.867188 0 7-3.132812 7-7 0-3.863281-3.132812-7-7-7h-8.972656l4.996094-4.996093c2.734374-2.734376 2.734374-7.164063 0-9.898438-2.730469-2.734375-7.164063-2.734375-9.898438 0l-4.996094 4.996094v-8.960938c0-3.867187-3.132812-7-7-7-3.867187 0-7 3.132813-7 7v22.972656l-15.28125 15.28125v-34.300781l21.847656-21.847656c2.734376-2.734375 2.734376-7.167969 0-9.902344-2.730468-2.734375-7.164062-2.734375-9.898437 0l-11.9375 11.9375v-14.398437c0-3.867188-3.132813-7-7-7-3.863281 0-7 3.132812-7 7v14.398437l-11.957031-11.9375c-2.734375-2.734375-7.167969-2.734375-9.902344 0s-2.734375 7.167969 0 9.902344l21.859375 21.847656v34.304688l-15.277344-15.28125v-22.976563c0-3.867187-3.136719-7-7-7-3.867187 0-7 3.132813-7 7v8.972656l-4.996093-4.996093c-2.734376-2.734375-7.167969-2.734375-9.902344 0-2.730469 2.734375-2.730469 7.167969 0 9.898437l4.976562 4.996094h-8.964844c-3.863281 0-7 3.136719-7 7 0 3.867188 3.136719 7 7 7h22.964844l15.28125 15.28125h-34.292968l-21.847657-21.847656c-2.734375-2.734375-7.164062-2.734375-9.898437 0s-2.734375 7.164062 0 9.898437l11.957031 11.9375h-14.398437c-3.867188 0-7 3.132813-7 7 0 3.867188 3.132812 7 7 7h14.398437l-11.945313 11.949219c-2.734374 2.730469-2.734374 7.164062 0 9.898438 2.734376 2.734374 7.164063 2.734374 9.898438 0l21.835938-21.847657h34.300781l-15.28125 15.28125h-22.972657c-3.863281 0-7 3.132813-7 7 0 3.863281 3.136719 7 7 7h8.964844l-4.992187 4.992188c-2.734375 2.730469-2.734375 7.164062 0 9.898437s7.167969 2.734375 9.902343 0l4.996094-4.996094v8.976563c0 3.867187 3.132813 7 7 7 3.863282 0 7-3.132813 7-7v-22.953125l15.277344-15.28125v34.304688l-21.847656 21.847656c-2.734375 2.734375-2.734375 7.167968 0 9.902344 2.734375 2.734374 7.167968 2.734374 9.902344 0l11.960937-11.972657v14.398438c0 3.867187 3.136719 7 7 7 3.867187 0 7-3.132813 7-7v-14.398438l11.949219 11.949219c2.734375 2.730469 7.167968 2.730469 9.902344 0 2.730468-2.734375 2.730468-7.167969 0-9.902344l-21.851563-21.835937v-34.304688l15.28125 15.28125v22.976563c0 3.867187 3.132813 7 7 7s7-3.132813 7-7v-8.964844l4.996094 4.996094c2.734375 2.734375 7.167969 2.734375 9.902343 0 2.730469-2.734375 2.730469-7.164063 0-9.898438l-4.992187-4.992187h8.96875c3.867187 0 7-3.136719 7-7 0-3.867188-3.132813-7-7-7h-22.980469l-15.28125-15.28125h34.300782l21.847656 21.847656c2.734375 2.734375 7.164062 2.734375 9.898437 0s2.734375-7.164063 0-9.898437l-11.941406-11.972657h14.402344c3.867187 0 7-3.132812 7-7 0-3.867187-3.132813-7-7-7zm0 0" fill="#26a3b9"/><path d="m458.769531 316.375c0-3.863281-3.132812-7-7-7h-8.882812l7.726562-7.730469c2.734375-2.734375 2.734375-7.167969 0-9.898437-2.734375-2.734375-7.164062-2.734375-9.898437 0l-17.628906 17.625h-24.75l17.921874-17.921875c2.734376-2.734375 2.734376-7.167969 0-9.902344-2.734374-2.730469-7.164062-2.730469-9.898437 0l-17.921875 17.925781v-24.746094l17.628906-17.625c2.734375-2.734374 2.734375-7.167968 0-9.902343s-7.167968-2.734375-9.898437 0l-7.730469 7.730469v-8.875c0-3.863282-3.132812-7-7-7s-7 3.136718-7 7v8.878906l-7.726562-7.730469c-2.734376-2.734375-7.167969-2.734375-9.902344 0-2.730469 2.734375-2.730469 7.167969 0 9.902344l17.628906 17.625v24.75l-17.910156-17.929688c-1.75-1.847656-4.367188-2.597656-6.832032-1.960937-2.464843.636718-4.390624 2.558594-5.027343 5.023437-.636719 2.464844.113281 5.078125 1.957031 6.832031l17.925781 17.921876h-24.75l-17.625-17.625c-2.734375-2.734376-7.167969-2.734376-9.902343 0-2.734376 2.730468-2.734376 7.164062 0 9.898437l7.730468 7.730469h-8.875c-3.863281 0-7 3.136718-7 7 0 3.867187 3.136719 7 7 7h8.875l-7.730468 7.730468c-2.734376 2.734376-2.734376 7.164063 0 9.898438 2.734374 2.734375 7.167968 2.734375 9.902343 0l17.625-17.625h24.75l-17.921875 17.921875c-2.734375 2.734375-2.734375 7.164063 0 9.898437 2.734375 2.734376 7.167969 2.734376 9.902344 0l17.921875-17.921874v24.746093l-17.625 17.628907c-2.734375 2.734374-2.734375 7.167968 0 9.898437 2.730469 2.734375 7.164063 2.734375 9.898437 0l7.726563-7.726563v8.875c0 3.867188 3.136719 7 7 7 3.867187 0 7-3.132812 7-7v-8.875l7.730469 7.726563c2.734375 2.734375 7.164062 2.734375 9.898437 0 2.734375-2.730469 2.734375-7.164063 0-9.898437l-17.628906-17.628907v-24.746093l17.921875 17.921874c2.734375 2.734376 7.164062 2.734376 9.898438 0 2.734374-2.734374 2.734374-7.164062 0-9.898437l-17.917969-17.921875h24.746093l17.628907 17.625c2.734375 2.734375 7.164062 2.734375 9.898437 0s2.734375-7.164062 0-9.898438l-7.742187-7.726562h8.871093c1.859376.003906 3.644532-.730469 4.957032-2.042969 1.316406-1.316406 2.054687-3.097656 2.054687-4.957031zm0 0" fill="#26a3b9"/><path d="m25.636719 7.03125h416.097656c10.117187 0 18.320313 8.203125 18.320313 18.320312 0 10.117188-8.203126 18.316407-18.320313 18.316407h-416.097656c-10.117188 0-18.320313-8.199219-18.320313-18.316407 0-10.117187 8.203125-18.320312 18.320313-18.320312zm0 0" fill="#26a3b9"/><path d="m441.734375 7.042969h-29.648437c6.609374-.097657 12.757812 3.375 16.089843 9.082031 3.335938 5.707031 3.335938 12.769531 0 18.476562-3.332031 5.707032-9.480469 9.175782-16.089843 9.078126h29.632812c10.011719-.148438 18.046875-8.304688 18.046875-18.316407s-8.035156-18.171875-18.046875-18.320312zm0 0" fill="#168aa5"/><path d="m25.636719.03125h51.621093c3.867188 0 7 3.136719 7 7 0 3.867188-3.132812 7-7 7h-51.621093c-4.09375-.074219-7.910157 2.0625-9.980469 5.597656-2.066406 3.535156-2.066406 7.910156 0 11.441406 2.070312 3.535157 5.886719 5.675782 9.980469 5.597657h416.097656c4.09375.078125 7.910156-2.0625 9.980469-5.597657 2.070312-3.53125 2.070312-7.90625 0-11.441406-2.070313-3.535156-5.886719-5.671875-9.980469-5.597656h-332.398437c-3.867188 0-7-3.132812-7-7 0-3.863281 3.132812-7 7-7h332.398437c13.894531-.0078125 25.195313 11.183594 25.324219 25.074219.128906 13.894531-10.964844 25.292969-24.855469 25.539062l-18.613281 42c-1.566406 3.535157-5.699219 5.128907-9.234375 3.5625-3.535157-1.566406-5.132813-5.699219-3.566407-9.234375l16.085938-36.289062h-19.316406l-26.617188 60.039062c-1.566406 3.535156-5.699218 5.132813-9.234375 3.566406-3.535156-1.566406-5.132812-5.703124-3.566406-9.238281l24.105469-54.398437h-57.199219l-47.527344 104.976562c-3.472656 7.847656-11.273437 12.886719-19.855469 12.820313h-.308593c-8.695313-.042969-16.511719-5.304688-19.816407-13.34375l-14.085937-33.445313c-.917969-2.175781-3.09375-3.546875-5.453125-3.433594-2.359375.117188-4.394531 1.691407-5.097656 3.945313-2.453125 8.21875-10.027344 13.835937-18.605469 13.792969h-.144531c-8.519532.097656-16.101563-5.402344-18.644532-13.535156l-8.039062-24.640626c-.808594-2.386718-.273438-5.023437 1.402344-6.90625 1.679687-1.882812 4.238281-2.71875 6.699218-2.1875 2.464844.53125 4.453126 2.34375 5.207032 4.75l8.035156 24.640626c.761719 2.324218 2.941406 3.890624 5.386719 3.875 2.449219-.015626 4.605469-1.613282 5.335937-3.949219 2.445313-7.871094 9.550782-13.375 17.785156-13.773438 8.230469-.402343 15.839844 4.386719 19.039063 11.980469l14.082031 33.445312c1.203125 2.867188 3.992188 4.746094 7.101563 4.789063 3.105469.042969 5.945312-1.761719 7.222656-4.597656l44.921875-99.1875h-142.855469l5.636719 17.292969c.8125 2.386718.277344 5.023437-1.402344 6.90625-1.675781 1.882812-4.234375 2.714843-6.699218 2.1875-2.460938-.53125-4.449219-2.34375-5.203126-4.75l-7.078124-21.636719h-118.398438l56.898438 174.375c.980468 3.417969 4.175781 5.722656 7.726562 5.574219 3.542969.058593 6.679688-2.269532 7.652344-5.671876l17.769531-57.117187c2.753906-8.851563 10.746094-15.035156 20.007813-15.484375 9.257812-.445312 17.808593 4.941406 21.402343 13.484375l65.316407 155.054687c1.25 3.023438 4.203124 4.984376 7.472656 4.960938 3.273437.027344 6.222656-1.960938 7.429687-5.003906l56.910157-138.359375c3.378906-8.289063 11.449218-13.695313 20.402343-13.671875h.210938c9.027343.050781 17.101562 5.617187 20.359375 14.035156 1.148437 3.066406 4.0625 5.105469 7.335937 5.136719 3.289063.183593 6.328125-1.746094 7.558594-4.800781l14.234375-32.101563c1.566406-3.535156 5.699219-5.132813 9.234375-3.566406 3.535156 1.566406 5.132813 5.703125 3.566406 9.238281l-14.234375 32.101562c-3.609375 8.148438-11.769531 13.324219-20.675781 13.121094-8.910156-.203125-16.824219-5.742187-20.0625-14.042968-1.160156-3.105469-4.132813-5.160157-7.445313-5.140626h-.0625c-3.292968-.054687-6.269531 1.9375-7.476562 5l-56.910156 138.359376c-3.316406 8.304687-11.378906 13.730468-20.316406 13.675781h-.101563c-8.90625.089843-16.964844-5.265625-20.332031-13.507813l-65.316406-155.066406c-1.3125-3.128906-4.441407-5.101562-7.828126-4.9375-3.386718.164062-6.308593 2.429688-7.316406 5.667969l-17.765625 57.117187c-2.757812 9.242188-11.28125 15.5625-20.925781 15.515625-9.664062.253907-18.308594-5.980469-21.121094-15.234375l-58.289062-178.710937h-3.359375c-9.121094.113281-17.597657-4.683594-22.191407-12.566407-4.59375-7.878906-4.59375-17.621093 0-25.503906 4.59375-7.878906 13.070313-12.6796872 22.191407-12.566406zm379.867187 133.414062 6.082032-13.722656c1.566406-3.53125-.027344-7.667968-3.5625-9.234375-3.535157-1.566406-7.671876.03125-9.238282 3.5625l-6.082031 13.722657c-1.566406 3.535156.027344 7.667968 3.5625 9.234374 3.535156 1.566407 7.671875-.027343 9.238281-3.5625zm-193.625 212.210938c.007813-3.867188-3.125-7.007812-6.992187-7.011719h-14.402344l11.949219-11.949219c2.734375-2.734374 2.734375-7.164062 0-9.898437s-7.164063-2.734375-9.898438 0l-21.855468 21.847656h-34.308594l15.277344-15.28125h22.976562c3.867188 0 7-3.132812 7-7 0-3.863281-3.132812-7-7-7h-8.972656l4.996094-4.996093c2.734374-2.734376 2.734374-7.164063 0-9.898438-2.730469-2.734375-7.164063-2.734375-9.898438 0l-4.996094 4.996094v-8.960938c0-3.867187-3.132812-7-7-7-3.867187 0-7 3.132813-7 7v22.972656l-15.28125 15.28125v-34.300781l21.847656-21.847656c2.734376-2.734375 2.734376-7.167969 0-9.902344-2.730468-2.734375-7.164062-2.734375-9.898437 0l-11.9375 11.9375v-14.398437c0-3.867188-3.132813-7-7-7-3.863281 0-7 3.132812-7 7v14.398437l-11.957031-11.9375c-2.734375-2.734375-7.167969-2.734375-9.902344 0s-2.734375 7.167969 0 9.902344l21.859375 21.847656v34.304688l-15.277344-15.28125v-22.976563c0-3.867187-3.136719-7-7-7-3.867187 0-7 3.132813-7 7v8.972656l-4.996093-4.996093c-2.734376-2.734375-7.167969-2.734375-9.902344 0-2.730469 2.734375-2.730469 7.167969 0 9.898437l4.976562 4.996094h-8.964844c-3.863281 0-7 3.136719-7 7 0 3.867188 3.136719 7 7 7h22.964844l15.28125 15.28125h-34.292968l-21.847657-21.847656c-2.734375-2.734375-7.164062-2.734375-9.898437 0s-2.734375 7.164062 0 9.898437l11.957031 11.9375h-14.398437c-3.867188 0-7 3.132813-7 7 0 3.867188 3.132812 7 7 7h14.398437l-11.945313 11.949219c-2.734374 2.730469-2.734374 7.164062 0 9.898438 2.734376 2.734374 7.164063 2.734374 9.898438 0l21.835938-21.847657h34.300781l-15.28125 15.28125h-22.972657c-3.863281 0-7 3.132813-7 7 0 3.863281 3.136719 7 7 7h8.964844l-4.992187 4.992188c-2.734375 2.730469-2.734375 7.164062 0 9.898437s7.167969 2.734375 9.902343 0l4.996094-4.996094v8.976563c0 3.867187 3.132813 7 7 7 3.863282 0 7-3.132813 7-7v-22.953125l15.277344-15.28125v34.304688l-21.847656 21.847656c-2.734375 2.734375-2.734375 7.167968 0 9.902344 2.734375 2.734374 7.167968 2.734374 9.902344 0l11.960937-11.972657v14.398438c0 3.867187 3.136719 7 7 7 3.867187 0 7-3.132813 7-7v-14.398438l11.949219 11.949219c2.734375 2.730469 7.167968 2.730469 9.902344 0 2.730468-2.734375 2.730468-7.167969 0-9.902344l-21.851563-21.835937v-34.304688l15.28125 15.28125v22.976563c0 3.867187 3.132813 7 7 7s7-3.132813 7-7v-8.964844l4.996094 4.996094c2.734375 2.734375 7.167969 2.734375 9.902343 0 2.730469-2.734375 2.730469-7.164063 0-9.898438l-4.992187-4.992187h8.96875c3.867187 0 7-3.136719 7-7 0-3.867188-3.132813-7-7-7h-22.980469l-15.28125-15.28125h34.300782l21.847656 21.847656c2.734375 2.734375 7.164062 2.734375 9.898437 0s2.734375-7.164063 0-9.898437l-11.941406-11.972657h14.402344c3.859375-.003906 6.984375-3.128906 6.992187-6.988281zm246.890625-29.28125c0-3.863281-3.132812-7-7-7h-8.882812l7.726562-7.730469c2.734375-2.734375 2.734375-7.167969 0-9.898437-2.734375-2.734375-7.164062-2.734375-9.898437 0l-17.628906 17.625h-24.75l17.921874-17.921875c2.734376-2.734375 2.734376-7.167969 0-9.902344-2.734374-2.730469-7.164062-2.730469-9.898437 0l-17.921875 17.925781v-24.746094l17.628906-17.625c2.734375-2.734374 2.734375-7.167968 0-9.902343s-7.167968-2.734375-9.898437 0l-7.730469 7.730469v-8.875c0-3.863282-3.132812-7-7-7s-7 3.136718-7 7v8.878906l-7.726562-7.730469c-2.734376-2.734375-7.167969-2.734375-9.902344 0-2.730469 2.734375-2.730469 7.167969 0 9.902344l17.628906 17.625v24.75l-17.910156-17.929688c-1.75-1.847656-4.367188-2.597656-6.832032-1.960937-2.464843.636718-4.390624 2.558594-5.027343 5.023437-.636719 2.464844.113281 5.078125 1.957031 6.832031l17.925781 17.921876h-24.75l-17.625-17.625c-2.734375-2.734376-7.167969-2.734376-9.902343 0-2.734376 2.730468-2.734376 7.164062 0 9.898437l7.730468 7.730469h-8.875c-3.863281 0-7 3.136718-7 7 0 3.867187 3.136719 7 7 7h8.875l-7.730468 7.730468c-2.734376 2.734376-2.734376 7.164063 0 9.898438 2.734374 2.734375 7.167968 2.734375 9.902343 0l17.625-17.625h24.75l-17.921875 17.921875c-2.734375 2.734375-2.734375 7.164063 0 9.898437 2.734375 2.734376 7.167969 2.734376 9.902344 0l17.921875-17.921874v24.746093l-17.625 17.628907c-2.734375 2.734374-2.734375 7.167968 0 9.898437 2.730469 2.734375 7.164063 2.734375 9.898437 0l7.726563-7.726563v8.875c0 3.867188 3.136719 7 7 7 3.867187 0 7-3.132812 7-7v-8.875l7.730469 7.726563c2.734375 2.734375 7.164062 2.734375 9.898437 0 2.734375-2.730469 2.734375-7.164063 0-9.898437l-17.628906-17.628907v-24.746093l17.921875 17.921874c2.734375 2.734376 7.164062 2.734376 9.898438 0 2.734374-2.734374 2.734374-7.164062 0-9.898437l-17.917969-17.921875h24.746093l17.628907 17.625c2.734375 2.734375 7.164062 2.734375 9.898437 0s2.734375-7.164062 0-9.898438l-7.742187-7.726562h8.871093c1.859376.003906 3.644532-.730469 4.957032-2.042969 1.316406-1.316406 2.054687-3.097656 2.054687-4.957031zm-262.628906-154.292969c-3.5625 1.5-5.234375 5.601563-3.734375 9.167969l35.152344 83.453125c1.5 3.566406 5.605468 5.234375 9.167968 3.734375 3.566407-1.5 5.238282-5.605469 3.734376-9.167969l-35.152344-83.460937c-.71875-1.710938-2.089844-3.066406-3.808594-3.765625s-3.648438-.6875-5.359375.039062zm0 0" fill="#002d42"/></svg>