<svg height="472pt" viewBox="0 -44 472.0026 472" width="472pt" xmlns="http://www.w3.org/2000/svg"><path d="m363.84375 186.34375-127.945312 102.683594h67.367187l-42.355469 88.570312 133.25-119.511718h-64.730468zm0 0" fill="#fabe02"/><path d="m306.488281 258.085938h22.941407l34.414062-71.742188-37.308594 29.941406zm0 0" fill="#f59a1d"/><path d="m371.214844 258.085938-93.070313 83.476562-17.234375 36.035156 133.25-119.511718zm0 0" fill="#f59a1d"/><path d="m418.625 117.347656c3.542969-27.746094-10.117188-54.863281-34.523438-68.53125-24.40625-13.667968-54.667968-11.148437-76.476562 6.375-24.140625-35.714844-66.976562-53.957031-109.453125-46.621094-42.480469 7.339844-76.710937 38.898438-87.472656 80.640626-26.714844-13.082032-58.71875-8.429688-80.609375 11.710937s-29.183594 51.644531-18.371094 79.355469c10.816406 27.710937 37.523438 45.949218 67.269531 45.941406h331.199219c28.621094.03125 52.441406-21.992188 54.652344-50.527344 2.207031-28.539062-17.933594-53.964844-46.222656-58.34375zm0 0" fill="#d9ecf2"/><g fill="#bdd9e5"><path d="m418.625 117.347656c2.898438-22.464844-5.496094-44.910156-22.421875-59.964844-16.929687-15.050781-40.203125-20.765624-62.175781-15.261718 33.96875 8.109375 56.292968 40.609375 51.675781 75.226562 28.285156 4.378906 48.429687 29.804688 46.21875 58.34375-2.210937 28.535156-26.027344 50.558594-54.652344 50.527344h32.921875c28.621094.03125 52.441406-21.992188 54.652344-50.527344 2.207031-28.539062-17.933594-53.964844-46.222656-58.34375zm0 0"/><path d="m106.472656 226.21875h69.632813l43.601562-90.871094zm0 0"/><path d="m83.597656 81.957031c5.9375 21.707031 15.714844 42.175781 28.867188 60.4375-4.785156-17.34375-5.386719-35.578125-1.746094-53.199219-8.476562-4.171874-17.691406-6.628906-27.121094-7.238281zm0 0"/></g><path d="m199.691406 135.347656-162.0625 130.0625h85.335938l-53.652344 112.1875 169.847656-151.378906h-83.058594zm0 0" fill="#fabe02"/><path d="m216.214844 226.21875-129.859375 115.738281-17.042969 35.640625 169.847656-151.378906zm0 0" fill="#f59a1d"/><path d="m133.160156 226.21875h22.941406l43.589844-90.871094-37.308594 29.941406zm0 0" fill="#f59a1d"/><path d="m284.296875 21.492188c3.152344 2.242187 3.890625 6.613281 1.648437 9.761718-2.242187 3.152344-6.613281 3.890625-9.761718 1.648438-4.203125-2.996094-8.621094-5.667969-13.226563-8-3.449219-1.742188-4.835937-5.953125-3.09375-9.40625 1.746094-3.453125 5.957031-4.835938 9.40625-3.09375 5.230469 2.648437 10.253907 5.6875 15.027344 9.089844zm141.832031 90.28125c.054688-1.039063.078125-2.042969.078125-3.039063-.046875-41.765625-33.886719-75.613281-75.652343-75.667969-14.707032-.054687-29.101563 4.238282-41.375 12.339844-1.652344-2.132812-3.386719-4.21875-5.199219-6.253906-1.644531-1.929688-4.207031-2.820313-6.695313-2.328125-2.488281.492187-4.511718 2.292969-5.296875 4.707031-.78125 2.410156-.199219 5.058594 1.527344 6.917969 2.996094 3.371093 5.765625 6.9375 8.300781 10.667969 1.09375 1.617187 2.820313 2.703124 4.75 2.992187 1.933594.289063 3.902344-.238281 5.425782-1.464844 10.902343-8.824219 24.515624-13.621093 38.542968-13.578125 17.738282-.117187 34.660156 7.460938 46.386719 20.773438 11.722656 13.316406 17.101563 31.058594 14.742187 48.640625-.46875 3.757812 2.132813 7.203125 5.871094 7.785156 24.664063 3.824219 42.222656 25.996094 40.296875 50.882813-1.929687 24.886718-22.699219 44.085937-47.65625 44.066406h-136.582031c-3.863281 0-7 3.132812-7 7 0 3.863281 3.136719 7 7 7h20.664062l-62.757812 50.351562c-2.324219 1.859375-3.21875 4.988282-2.226562 7.792969.992187 2.808594 3.648437 4.679687 6.625 4.671875h56.261718l-37.566406 78.550781c-1.4375 3.011719-.550781 6.621094 2.117188 8.621094 2.671874 2.003906 6.386718 1.839844 8.871093-.390625l133.25-119.511719c2.160157-1.933593 2.898438-5.003906 1.863281-7.710937-1.035156-2.710938-3.636718-4.5-6.535156-4.5h-53.601562l.664062-1.382813c1.671875-3.488281.203125-7.667969-3.285156-9.339843-3.484375-1.675782-7.667969-.203126-9.339844 3.28125l-5.5 11.410156c-1.042968 2.171875-.898437 4.730468.386719 6.769531 1.289063 2.039063 3.535156 3.273437 5.945313 3.265625h46.441406l-93.5 83.851562 27.199218-56.898437c1.027344-2.167969.875-4.710937-.40625-6.738281s-3.511718-3.261719-5.910156-3.261719h-47.445312l60.820312-48.800781h93.566406c31.015626.023437 57.238282-22.960938 61.28125-53.714844 4.039063-30.753906-15.355468-59.730469-45.324218-67.722656zm-180.429687 111.953124c-1.035157-2.714843-3.636719-4.507812-6.539063-4.507812h-71.933594l38.777344-80.84375c1.40625-2.945312.589844-6.472656-1.96875-8.5-2.558594-2.03125-6.175781-2.019531-8.722656.019531l-111.304688 89.320313h-5c-36.011718 0-65.199218-29.191406-65.199218-65.203125 0-36.007813 29.1875-65.199219 65.199218-65.199219 8.183594.023438 16.285157 1.613281 23.871094 4.679688-2.753906 17.058593-1.746094 34.507812 2.949219 51.132812 1.230469 3.664062 5.199219 5.636719 8.863281 4.40625 3.667969-1.230469 5.640625-5.199219 4.40625-8.867188-4.371094-16.109374-4.902344-33.023437-1.554687-49.378906 14.132812-54.148437 69.003906-87.027344 123.414062-73.953125 3.691407.746094 7.304688-1.5625 8.1875-5.21875.882813-3.660156-1.285156-7.359375-4.90625-8.378906-58.863281-14.148437-118.777343 19.042969-138 76.453125-8.710937-3.238281-17.933593-4.886719-27.226562-4.878906-41.460938.078125-75.835938 32.132812-78.808594 73.484375-2.972656 41.351562 26.464844 77.992187 67.484375 84l-34.4375 27.640625c-2.320312 1.863281-3.210938 4.984375-2.21875 7.789062.988281 2.808594 3.644531 4.679688 6.621094 4.671875h74.207031l-48.863281 102.183594c-1.441406 3.007813-.558594 6.613281 2.105468 8.617187 2.667969 2.003907 6.375 1.851563 8.863282-.371093l88.421875-78.796875c2.886719-2.574219 3.140625-7 .566406-9.886719-2.570313-2.886719-6.996094-3.140625-9.882813-.566406l-62.417968 55.628906 38.625-80.769531c1.03125-2.167969.875-4.710938-.40625-6.738282-1.28125-2.027343-3.507813-3.257812-5.910156-3.261718h-65.421876l122.527344-98.363282-30.277344 63.121094c-1.039062 2.167969-.894531 4.71875.390626 6.753906 1.28125 2.039063 3.515624 3.273438 5.921874 3.273438h64.679688l-20.226562 18.027344c-1.910157 1.652344-2.78125 4.203125-2.28125 6.679687.5 2.476563 2.292968 4.488281 4.695312 5.269531s5.039062.210938 6.898438-1.496093l33.949218-30.253907c2.167969-1.933593 2.917969-5.003906 1.882813-7.71875zm-62.746094 43.207032-14.460937 12.890625c-2.890626 2.574219-3.152344 7-.578126 9.890625 2.570313 2.890625 7 3.148437 9.890626.578125l14.460937-12.890625c2.820313-2.585938 3.039063-6.957032.496094-9.816406-2.546875-2.855469-6.914063-3.140626-9.808594-.636719zm0 0" fill="#002d42"/></svg>