<svg height="472pt" viewBox="0 -9 472.1008 472" width="472pt" xmlns="http://www.w3.org/2000/svg"><path d="m273.617188 138.914062c0 49.460938-40.097657 89.558594-89.558594 89.558594-49.464844 0-89.5625-40.097656-89.5625-89.558594 0-49.460937 40.097656-89.558593 89.5625-89.558593 49.460937 0 89.558594 40.097656 89.558594 89.558593zm0 0" fill="#fabe02"/><path d="m247.386719 75.585938c-20.164063-20.160157-48.738281-29.488282-76.914063-25.101563 48.835938 7.410156 82.421875 53.007813 75.011719 101.84375-5.875 38.734375-36.277344 69.136719-75.011719 75.011719 48.839844 7.558594 94.558594-25.902344 102.117188-74.742188 4.371094-28.222656-4.996094-56.835937-25.203125-77.011718zm0 0" fill="#f59a1d"/><path d="m247.386719 202.242188c11.917969-11.917969 20.207031-26.976563 23.90625-43.421876-33.425781-36.523437-90.128907-39.035156-126.652344-5.609374-13.355469 12.222656-22.699219 28.207031-26.796875 45.839843.964844 1.0625 1.855469 2.164063 2.886719 3.203125 34.976562 34.96875 91.683593 34.964844 126.65625-.011718zm0 0" fill="#f59a1d"/><g fill="#fabe02"><path d="m103.398438 65.253906c-1.859376 0-3.640626-.738281-4.949219-2.054687l-15.867188-15.867188c-2.734375-2.734375-2.734375-7.164062 0-9.898437s7.164063-2.734375 9.898438 0l15.847656 15.871094c2.734375 2.734374 2.730469 7.167968-.003906 9.898437-1.3125 1.3125-3.089844 2.046875-4.945313 2.050781zm0 0"/><path d="m73.875 116.394531c-.613281 0-1.222656-.082031-1.8125-.242187l-21.671875-5.808594c-3.738281-1-5.953125-4.839844-4.953125-8.574219 1.003906-3.734375 4.839844-5.949219 8.574219-4.949219l21.671875 5.808594c3.734375 1.003906 5.949218 4.84375 4.945312 8.578125-.824218 3.054688-3.589844 5.175781-6.753906 5.183594zm0 0"/><path d="m52.195312 181.246094c-3.863281-.007813-6.996093-3.144532-6.988281-7.011719.003907-3.160156 2.128907-5.929687 5.183594-6.75l21.671875-5.804687c3.734375-1 7.570312 1.21875 8.570312 4.953124 1 3.734376-1.21875 7.570313-4.953124 8.570313l-21.671876 5.792969c-.589843.164062-1.199218.246094-1.8125.25zm0 0"/><path d="m213.582031 35.734375c-.613281 0-1.226562-.082031-1.816406-.242187-3.734375-1-5.953125-4.835938-4.953125-8.570313v-.003906l5.808594-21.675781c1-3.734376 4.839844-5.953126 8.574218-4.953126 3.734376 1.003907 5.949219 4.839844 4.949219 8.574219l-5.816406 21.679688c-.820313 3.054687-3.585937 5.183593-6.746094 5.191406zm0 0"/><path d="m154.527344 35.734375c-3.167969-.007813-5.9375-2.140625-6.753906-5.203125l-5.808594-21.664062c-1-3.734376 1.214844-7.570313 4.949218-8.574219 3.734376-1 7.574219 1.21875 8.574219 4.953125l5.808594 21.675781c.996094 3.734375-1.222656 7.570313-4.957031 8.566406-.003906.003907-.007813.003907-.011719.003907-.585937.160156-1.191406.238281-1.800781.242187zm0 0"/><path d="m280.582031 242.4375c-1.859375 0-3.636719-.738281-4.949219-2.054688l-15.867187-15.867187c-2.734375-2.734375-2.734375-7.164063 0-9.898437 2.734375-2.734376 7.164063-2.734376 9.898437 0l15.863282 15.871093c2.734375 2.734375 2.734375 7.167969-.003906 9.898438-1.308594 1.3125-3.089844 2.050781-4.941407 2.050781zm0 0"/><path d="m264.730469 65.253906c-3.867188-.003906-7-3.140625-7-7.003906.003906-1.855469.738281-3.632812 2.050781-4.945312l15.867188-15.867188c2.855468-2.609375 7.28125-2.410156 9.890624.441406 2.449219 2.679688 2.445313 6.785156-.011718 9.457032l-15.867188 15.867187c-1.304687 1.3125-3.082031 2.046875-4.929687 2.050781zm0 0"/><path d="m87.527344 242.4375c-3.863282-.003906-6.996094-3.136719-6.996094-7.003906.003906-1.855469.738281-3.632813 2.050781-4.945313l15.867188-15.867187c2.851562-2.609375 7.28125-2.410156 9.890625.441406 2.445312 2.679688 2.441406 6.785156-.011719 9.457031l-15.867187 15.871094c-1.308594 1.308594-3.082032 2.042969-4.933594 2.046875zm0 0"/><path d="m315.929688 181.246094c-.613282 0-1.226563-.082032-1.816407-.242188l-21.675781-5.804687c-3.734375-1-5.953125-4.835938-4.953125-8.570313s4.839844-5.953125 8.574219-4.953125l21.675781 5.804688c3.730469 1.003906 5.945313 4.84375 4.941406 8.578125-.820312 3.054687-3.589843 5.179687-6.75 5.183594zm0 0"/><path d="m294.234375 116.394531c-3.867187-.007812-6.996094-3.144531-6.992187-7.011719.003906-3.160156 2.128906-5.929687 5.183593-6.75l21.675781-5.808593c3.734376-1 7.574219 1.214843 8.574219 4.949219 1 3.734374-1.214843 7.574218-4.949219 8.574218l-21.675781 5.804688c-.59375.160156-1.203125.242187-1.816406.242187zm0 0"/><path d="m148.730469 277.769531c-.613281 0-1.226563-.082031-1.816407-.242187-3.734374-.996094-5.953124-4.835938-4.953124-8.570313v-.003906l5.808593-21.675781c1-3.734375 4.839844-5.953125 8.574219-4.949219 3.734375 1 5.949219 4.839844 4.949219 8.574219l-5.804688 21.695312c-.828125 3.050782-3.597656 5.171875-6.757812 5.171875zm0 0"/><path d="m219.378906 277.769531c-3.167968-.007812-5.9375-2.136719-6.753906-5.199219l-5.808594-21.675781c-.832031-3.777343 1.550782-7.511719 5.328125-8.347656 3.542969-.78125 7.09375 1.273437 8.183594 4.734375l5.808594 21.675781c1 3.734375-1.214844 7.574219-4.945313 8.574219-.003906 0-.003906 0-.007812 0-.585938.160156-1.195313.238281-1.804688.238281zm0 0"/></g><path d="m323.703125 208.675781c-11.242187.003907-22.261719 3.132813-31.828125 9.046875-12.738281-47.886718-61.882812-76.375-109.765625-63.636718-35.386719 9.414062-61.503906 39.394531-65.976563 75.738281-27.398437-6.734375-55.070312 10.019531-61.804687 37.421875-6.730469 27.398437 10.023437 55.070312 37.421875 61.800781 4.003906.984375 8.113281 1.480469 12.234375 1.476563h219.71875c33.648437 0 60.925781-27.277344 60.925781-60.925782 0-33.648437-27.277344-60.925781-60.925781-60.925781zm0 0" fill="#26a3b9"/><path d="m61.472656 307.773438c9.390625 14.089843 25.160156 22.609374 42.09375 22.734374h175.703125c7.289063.003907 13.203125-5.902343 13.207031-13.191406.003907-7.289062-5.902343-13.203125-13.191406-13.207031-.003906 0-.011718 0-.015625 0h-208.683593c-3.398438-.003906-6.664063 1.308594-9.113282 3.664063zm0 0" fill="#168aa5"/><path d="m373.929688 304.09375h-35.839844c-7.28125-.019531-13.195313 5.867188-13.210938 13.148438-.015625 5.558593 3.460938 10.527343 8.691406 12.421874 16.375-2.667968 30.953126-11.902343 40.359376-25.570312zm0 0" fill="#168aa5"/><path d="m323.703125 208.675781c-3.878906.007813-7.75.390625-11.554687 1.144531 33.023437 6.433594 54.578124 38.417969 48.144531 71.441407-5.574219 28.617187-30.648438 49.273437-59.804688 49.265625h23.199219c33.648438 0 60.925781-27.277344 60.925781-60.925782 0-33.648437-27.277343-60.925781-60.925781-60.925781zm0 0" fill="#168aa5"/><path d="m288.664062 208.167969c-14.75-38.578125-54.148437-61.890625-95.0625-56.253907 23.210938 3.023438 44.320313 15.015626 58.800782 33.410157 9.953125 13.183593 14.8125 29.519531 13.675781 46-.285156 5.929687-.042969 11.875.726563 17.761719.140624 1.019531 1.082031 1.730468 2.101562 1.589843.773438-.105469 1.402344-.6875 1.566406-1.449219 2.535156-12.984374 10.277344-24.363281 21.421875-31.492187-.820312-3.074219-1.804687-6.101563-2.953125-9.070313-.082031-.167968-.175781-.335937-.277344-.496093zm0 0" fill="#168aa5"/><path d="m265.050781 330.507812h-208.691406c-7.289063.003907-13.203125-5.902343-13.207031-13.191406-.003906-7.289062 5.902344-13.203125 13.191406-13.207031h.015625 208.691406c7.289063.003906 13.195313 5.917969 13.191407 13.207031-.007813 7.285156-5.910157 13.1875-13.191407 13.191406zm114.066407-13.199218c0-7.289063-5.910157-13.199219-13.199219-13.199219h-42.070313c-7.289062.003906-13.195312 5.917969-13.191406 13.207031.003906 7.285156 5.910156 13.1875 13.191406 13.191406h42.0625c7.289063.011719 13.207032-5.890624 13.21875-13.179687 0-.007813 0-.019531 0-.027344zm68.699218 0c0-7.289063-5.910156-13.199219-13.199218-13.199219h-14.425782c-7.289062.003906-13.195312 5.917969-13.191406 13.207031.003906 7.285156 5.910156 13.1875 13.191406 13.191406h14.425782c7.289062 0 13.199218-5.914062 13.195312-13.203124v-.003907zm-89.730468 58.203125c0-7.289063-5.910157-13.199219-13.199219-13.199219h-196.867188c-7.289062-.003906-13.203125 5.902344-13.207031 13.191406-.003906 7.289063 5.902344 13.203125 13.191406 13.207032h.015625 196.855469c7.292969.007812 13.207031-5.898438 13.210938-13.191407 0 0 0-.003906 0-.007812zm-117.394532 58.21875c0-7.292969-5.910156-13.203125-13.199218-13.203125h-153.164063c-7.289063-.003906-13.203125 5.902344-13.207031 13.191406-.003906 7.292969 5.902344 13.207031 13.191406 13.210938h.015625 153.15625c7.289063.003906 13.203125-5.902344 13.207031-13.191407 0-.003906 0-.007812 0-.007812zm166.921875 0c0-7.292969-5.910156-13.203125-13.199219-13.203125h-99.066406c-7.289062-.003906-13.203125 5.902344-13.207031 13.191406-.003906 7.292969 5.902344 13.207031 13.191406 13.210938h.015625 99.054688c7.289062.003906 13.203125-5.898438 13.210937-13.1875 0-.003907 0-.007813 0-.011719zm57.480469-58.21875c0-7.289063-5.910156-13.199219-13.199219-13.199219h-51.527343c-7.289063-.003906-13.203126 5.902344-13.207032 13.191406-.003906 7.289063 5.902344 13.203125 13.191406 13.207032h.015626 51.511718c7.292969.007812 13.207032-5.898438 13.210938-13.191407 0 0 0-.003906 0-.007812zm-359.09375 0c0-7.289063-5.910156-13.199219-13.199219-13.199219h-72c-7.289062-.003906-13.203125 5.902344-13.207031 13.191406-.007812 7.289063 5.898438 13.203125 13.191406 13.207032h.015625 72c7.289063 0 13.195313-5.910157 13.195313-13.199219zm0 0" fill="#d9ecf2"/><path d="m327.304688 388.722656h17.570312c7.292969-.007812 13.199219-5.921875 13.195312-13.210937-.007812-7.28125-5.910156-13.1875-13.195312-13.191407h-17.570312c7.289062-.003906 13.203124 5.902344 13.207031 13.191407.007812 7.289062-5.898438 13.203125-13.191407 13.210937-.003906 0-.011718 0-.015624 0zm0 0" fill="#bdd9e5"/><path d="m430.242188 317.300781c-.015626 6.667969-5.011719 12.273438-11.636719 13.046875.519531.085938 1.042969.140625 1.570312.160156h14.425781c7.289063.003907 13.203126-5.902343 13.207032-13.191406.003906-7.289062-5.902344-13.203125-13.191406-13.207031-.003907 0-.011719 0-.015626 0h-14.425781c-.527343.019531-1.050781.074219-1.570312.160156 6.617187.773438 11.613281 6.367188 11.636719 13.03125zm0 0" fill="#bdd9e5"/><path d="m75.21875 388.722656h17.570312c7.289063-.007812 13.195313-5.921875 13.191407-13.210937-.003907-7.28125-5.90625-13.1875-13.191407-13.191407h-17.570312c7.289062.003907 13.195312 5.917969 13.191406 13.207032-.007812 7.285156-5.910156 13.1875-13.191406 13.195312zm0 0" fill="#bdd9e5"/><path d="m361.527344 317.300781c0 7.289063-5.910156 13.199219-13.199219 13.199219h17.574219c7.289062-.003906 13.195312-5.917969 13.191406-13.207031-.007812-7.285157-5.910156-13.1875-13.191406-13.191407h-17.574219c7.289063 0 13.199219 5.910157 13.199219 13.199219zm0 0" fill="#bdd9e5"/><path d="m451.878906 362.304688h-17.550781c7.289063.003906 13.195313 5.917968 13.191406 13.207031-.003906 7.285156-5.90625 13.1875-13.191406 13.191406h17.574219c7.289062.007813 13.203125-5.898437 13.207031-13.191406.003906-7.289063-5.902344-13.203125-13.191406-13.207031-.007813 0-.011719 0-.015625 0zm0 0" fill="#bdd9e5"/><path d="m260.683594 317.300781c0 7.289063-5.910156 13.199219-13.199219 13.199219h17.566406c7.289063-.003906 13.195313-5.917969 13.191407-13.207031-.007813-7.285157-5.910157-13.1875-13.191407-13.191407h-17.574219c7.289063-.003906 13.203126 5.902344 13.207032 13.191407zm0 0" fill="#bdd9e5"/><path d="m394.40625 420.519531h-17.574219c7.289063.003907 13.195313 5.917969 13.191407 13.210938-.003907 7.28125-5.90625 13.1875-13.191407 13.191406h17.574219c7.289062.003906 13.203125-5.902344 13.207031-13.191406.003907-7.292969-5.902343-13.207031-13.191406-13.210938-.003906 0-.011719 0-.015625 0zm0 0" fill="#bdd9e5"/><path d="m227.484375 420.519531h-17.554687c7.289062.003907 13.195312 5.917969 13.191406 13.210938-.003906 7.28125-5.910156 13.1875-13.191406 13.191406h17.570312c7.289062.003906 13.203125-5.902344 13.210938-13.191406.003906-7.292969-5.902344-13.207031-13.191407-13.210938-.007812 0-.011719 0-.019531 0zm0 0" fill="#bdd9e5"/><path d="m92.480469 37.4375 15.847656 15.867188c2.734375 2.734374 2.734375 7.167968 0 9.898437-2.734375 2.734375-7.164063 2.734375-9.898437 0l-15.867188-15.867187c-2.734375-2.734376-2.734375-7.164063 0-9.898438 2.730469-2.734375 7.164062-2.734375 9.898438 0zm-16.800781 65.199219-21.671876-5.808594c-3.734374-1-7.570312 1.214844-8.574218 4.949219-1 3.734375 1.214844 7.574218 4.953125 8.574218l21.671875 5.808594c3.734375 1 7.570312-1.214844 8.570312-4.949218 1.003906-3.734376-1.214844-7.574219-4.949218-8.574219zm-30.242188 73.421875c.816406 3.058594 3.585938 5.191406 6.753906 5.199218.613282 0 1.226563-.082031 1.816406-.242187l21.671876-5.804687c3.734374-.996094 5.953124-4.835938 4.953124-8.570313s-4.835937-5.953125-8.570312-4.953125l-21.671875 5.804688c-3.730469 1-5.949219 4.832031-4.953125 8.566406zm167.1875-170.8125-5.808594 21.671875c-1 3.734375 1.214844 7.570312 4.949219 8.574219h.003906c.589844.160156 1.203125.242187 1.816407.242187 3.160156-.011719 5.921874-2.136719 6.742187-5.191406l5.808594-21.675781c1-3.734376-1.214844-7.570313-4.949219-8.574219-3.734375-1-7.574219 1.21875-8.574219 4.953125zm-65.710938-4.953125c-3.734374 1-5.953124 4.835937-4.953124 8.570312v.003907l5.808593 21.675781c.816407 3.0625 3.585938 5.195312 6.753907 5.203125.613281 0 1.226562-.082032 1.816406-.242188 3.734375-1 5.953125-4.835937 4.953125-8.570312v-.003906l-5.804688-21.683594c-1-3.734375-4.835937-5.953125-8.570312-4.953125zm128.71875 37.144531-15.867187 15.867188c-2.734375 2.734374-2.734375 7.167968 0 9.898437 2.734375 2.734375 7.164063 2.734375 9.898437 0l15.863282-15.867187c2.734375-2.734376 2.734375-7.164063 0-9.898438-2.730469-2.734375-7.164063-2.734375-9.898438 0zm42.09375 130.042969-21.675781-5.804688c-3.738281-1-7.574219 1.21875-8.574219 4.953125s1.21875 7.570313 4.953126 8.570313l21.671874 5.796875c3.734376 1 7.570313-1.21875 8.570313-4.953125s-1.214844-7.570313-4.949219-8.570313zm4.949219-65.710938c-.992187-3.730469-4.820312-5.949219-8.550781-4.957031-.007812.003906-.015625.007812-.023438.007812l-21.675781 5.808594c-3.734375 1-5.953125 4.839844-4.949219 8.574219 1 3.734375 4.835938 5.949219 8.574219 4.949219l21.675781-5.808594c3.734376-1 5.949219-4.839844 4.945313-8.574219zm-144.652343 46.175781c-4.195313 1.226563-8.304688 2.738282-12.296876 4.523438-3.535156 1.578125-5.121093 5.722656-3.542968 9.257812 1.578125 3.535157 5.722656 5.121094 9.257812 3.542969 3.414063-1.527343 6.925782-2.816406 10.511719-3.867187 3.6875-1.160156 5.742187-5.085938 4.585937-8.773438-1.125-3.589844-4.882812-5.648437-8.511718-4.664062zm213.554687 118.878907c-.199219-4.929688-.933594-9.820313-2.1875-14.589844-.953125-3.75-4.761719-6.015625-8.507813-5.0625-3.75.949219-6.015624 4.757813-5.0625 8.503906.011719.042969.019532.085938.03125.128907 1 3.792968 1.582032 7.683593 1.738282 11.601562.148437 3.75 3.234375 6.714844 6.988281 6.71875h.285156c3.863281-.15625 6.871094-3.414062 6.714844-7.277344 0-.007812 0-.015625 0-.023437zm-3.628906 24.800781c-1.609375 4.613281-3.710938 9.039062-6.269531 13.199219 2.851562 3.535156 4.417968 7.933593 4.4375 12.476562-.011719 11.15625-9.054688 20.195313-20.207032 20.207031h-42.066406c-11.15625-.3125-19.945312-9.613281-19.628906-20.769531.300781-10.714843 8.914062-19.328125 19.628906-19.628906h42.066406c1.296875.007813 2.585938.140625 3.859375.398437 2.023438-3.296874 3.6875-6.804687 4.960938-10.460937 1.261719-3.652344 5.246093-5.59375 8.902343-4.332031 3.65625 1.265625 5.59375 5.25 4.332032 8.90625zm-15.832031 25.683594c-.003907-3.425782-2.78125-6.203125-6.207032-6.207032h-42.066406c-3.421875.171876-6.058594 3.089844-5.882812 6.515626.160156 3.179687 2.703124 5.722656 5.882812 5.882812h42.066406c3.421875-.003906 6.199219-2.777344 6.207032-6.199219zm-110.109376-57.175782c0 3.855469 3.121094 6.980469 6.976563 6.988282h.023437c3.851563-.007813 6.976563-3.113282 7-6.964844 0-.246094.402344-24.960938 19.476563-36.429688l.027344-.023437h.03125c23.589843-14.558594 54.378906-8.804687 71.113281 13.292969 2.394531 3.035156 6.796875 3.558594 9.832031 1.164062 2.960938-2.335937 3.542969-6.597656 1.308594-9.640625-19.0625-25.15625-52.96875-33.820312-81.761719-20.890625-4.734375-12.921875-12.183594-24.679687-21.851562-34.480468 7.214844-19.003907 8.289062-39.789063 3.074218-59.4375-1-3.734376-4.839843-5.949219-8.574218-4.949219s-5.953125 4.839843-4.949219 8.574219c4.003906 15.082031 3.6875 30.988281-.921875 45.898437-16.652344-12.417969-36.867188-19.132813-57.640625-19.144531-3.863281 0-7 3.132812-7 7 0 3.863281 3.136719 7 7 7 35.664063.03125 67.292969 22.910156 78.488281 56.765625-21.382812 16.328125-21.652344 44.027343-21.652344 45.277343zm-225.855468 57.167969c.015625 11.15625 9.054687 20.195313 20.207031 20.207031h208.691406c11.152344.316407 20.453125-8.472656 20.765625-19.628906.316406-11.15625-8.472656-20.457031-19.628906-20.769531-.378906-.011719-.757812-.011719-1.136719 0h-120.496093c-3.867188 0-7 3.132813-7 7s3.132812 7 7 7h120.496093c3.421875-.175781 6.339844 2.460937 6.511719 5.882813.175781 3.425781-2.460938 6.34375-5.882812 6.515624-.210938.011719-.421876.011719-.628907 0h-208.691406c-3.421875.175782-6.339844-2.460937-6.511719-5.882812-.175781-3.425781 2.457032-6.34375 5.882813-6.515625.210937-.011719.421875-.011719.628906 0h66.714844c3.863281 0 7-3.132813 7-7s-3.136719-7-7-7h-59.417969c-9.847656-22.179687.148438-48.144531 22.328125-57.992187 8.949219-3.972657 18.972656-4.84375 28.472656-2.472657 3.757813.914063 7.546875-1.390625 8.460938-5.148437.066406-.265625.113281-.53125.148437-.804688 2.425782-19.734375 11.890625-37.933594 26.652344-51.253906 2.871094-2.59375 3.097656-7.023438.503906-9.894531-2.59375-2.871094-7.023437-3.097657-9.894531-.507813-7.511719 6.800782-13.914063 14.734375-18.96875 23.515625-29.707031-34.566406-25.765625-86.671875 8.800781-116.378906 32.789063-28.179687 81.769532-26.277344 112.273438 4.359375 4.945312 4.945312 9.246094 10.5 12.800781 16.527344 1.960937 3.332031 6.25 4.441406 9.582031 2.480468 3.332032-1.957031 4.445313-6.25 2.484375-9.582031-27.039062-45.96875-86.226562-61.316406-132.195312-34.277343-29.496094 17.351562-47.605469 49.015624-47.609375 83.234374-.0625 25.164063 9.769531 49.34375 27.371094 67.324219-1.929688 5.015625-3.433594 10.183594-4.503907 15.449219-.105469 0-.210937 0-.320312 0 1.179687-3.667969-.84375-7.597656-4.515625-8.777344-2.5-.796875-5.234375-.128906-7.082032 1.730469l-8.402343 8.398437c-31.105469 7.644532-50.125 39.058594-42.484375 70.164063.441406 1.789063.964844 3.554687 1.570312 5.289063-7.796875 2.984374-12.953125 10.460937-12.976562 18.808593zm418.664062 0c-.011718 11.15625-9.050781 20.195313-20.207031 20.207031h-14.425781c-11.15625-.3125-19.945313-9.613281-19.628906-20.769531.300781-10.714843 8.914062-19.328125 19.628906-19.628906h14.425781c11.148437.011719 20.183594 9.042969 20.207031 20.191406zm-14 0c-.003906-3.425781-2.78125-6.203125-6.207031-6.207031h-14.425781c-3.421875.171875-6.058594 3.089844-5.882813 6.515625.160157 3.179687 2.703125 5.722656 5.882813 5.882813h14.425781c3.421875-.003907 6.195313-2.769532 6.207031-6.191407zm-224.863281 64.425781c-3.867187 0-7 3.132813-7 7 0 3.863282 3.132813 7 7 7h13.644531c3.863282 0 7-3.136718 7-7 0-3.867187-3.136718-7-7-7zm-67.933594 14h43.050781c3.863282 0 7-3.136718 7-7 0-3.867187-3.136718-7-7-7h-43.050781c-3.421875-.175781-6.058593-3.09375-5.882812-6.515624.160156-3.183594 2.703125-5.722657 5.882812-5.886719h196.855469c3.425781.175781 6.0625 3.089843 5.886719 6.515625-.160157 3.179687-2.703125 5.722656-5.886719 5.886718h-85.574219c-3.867187 0-7 3.132813-7 7 0 3.863282 3.132813 7 7 7h85.574219c11.15625-.316406 19.945312-9.613281 19.632812-20.769531-.300781-10.714843-8.917968-19.332031-19.632812-19.632812h-196.855469c-11.15625.316406-19.945312 9.613281-19.628906 20.769531.300781 10.714844 8.914063 19.328125 19.628906 19.632812zm-73.691406 17.792969h153.15625c11.15625-.3125 20.457031 8.476563 20.769531 19.632813s-8.476562 20.453125-19.632812 20.769531c-.378906.007813-.757813.007813-1.136719 0h-153.15625c-11.15625.3125-20.453125-8.476563-20.769531-19.632813-.3125-11.15625 8.476562-20.453124 19.632812-20.769531.378906-.007812.757813-.007812 1.136719 0zm153.164063 14h-153.164063c-3.421875-.171875-6.339844 2.460938-6.515625 5.886719-.171875 3.421875 2.460938 6.339844 5.886719 6.515625.210937.007813.417969.007813.628906 0h153.15625c3.425781.171875 6.339844-2.460937 6.515625-5.886719.175781-3.421875-2.460938-6.339844-5.886719-6.515625-.207031-.007812-.417969-.007812-.628906 0zm166.921874-14h-33.285156c-3.867187 0-7 3.136719-7 7 0 3.867188 3.132813 7 7 7h33.285156c3.421876-.171875 6.339844 2.460938 6.515626 5.886719.171874 3.421875-2.460938 6.339844-5.886719 6.515625-.210938.007813-.421875.007813-.628907 0h-99.066406c-3.421875.171875-6.339844-2.460937-6.515625-5.886719-.171875-3.421875 2.460938-6.339844 5.886719-6.515625.210938-.007812.421875-.007812.628906 0h42.703125c3.863281 0 7-3.132812 7-7 0-3.863281-3.136719-7-7-7h-42.703125c-11.15625-.3125-20.453125 8.476563-20.765625 19.632813-.316406 11.15625 8.472657 20.453125 19.628907 20.769531.378906.007813.757812.007813 1.136718 0h99.054688c11.15625.3125 20.453125-8.476563 20.765625-19.632813.316406-11.15625-8.472657-20.453124-19.628907-20.769531-.378906-.007812-.757812-.007812-1.136718 0zm77.6875-38c-.015624 11.15625-9.054687 20.195313-20.207031 20.210938h-51.527343c-11.15625-.316407-19.945313-9.613281-19.628907-20.769531.300781-10.714844 8.914063-19.332032 19.628907-19.632813h51.511718c11.148438.015625 20.1875 9.042969 20.210938 20.1875zm-14 0c-.003906-3.425781-2.78125-6.207031-6.207031-6.210937h-51.527343c-3.421876.175781-6.058594 3.089844-5.882813 6.515625.160156 3.179687 2.703125 5.722656 5.882813 5.882812h51.511718c3.421875-.003906 6.195313-2.769531 6.210938-6.191406zm-437.324218-20.214843h72c11.15625-.3125 20.453125 8.476562 20.769531 19.632812.3125 11.15625-8.476563 20.453125-19.632813 20.765625-.378906.011719-.757812.011719-1.136718 0h-72c-11.15625.316406-20.457032-8.472656-20.7695315-19.628906-.3125005-11.15625 8.4765625-20.457031 19.6328125-20.769531.378906-.011719.757813-.011719 1.136719 0zm72 14h-72c-3.425782-.175782-6.339844 2.460937-6.515625 5.886718-.175781 3.421875 2.460937 6.339844 5.886719 6.511719.207031.011719.417968.011719.628906 0h72c3.421875.175781 6.339844-2.460937 6.515625-5.882813.171875-3.425781-2.460938-6.339843-5.886719-6.515624-.210938-.011719-.417969-.011719-.628906 0zm0 0" fill="#002d42"/></svg>