<svg height="421pt" viewBox="0 0 421 421.79472" width="421pt" xmlns="http://www.w3.org/2000/svg"><path d="m415.148438 210.910156c0 112.597656-91.277344 203.878906-203.878907 203.878906-112.597656 0-203.878906-91.28125-203.878906-203.878906 0-112.601562 91.28125-203.882812 203.878906-203.882812 112.601563 0 203.878907 91.28125 203.878907 203.882812zm0 0" fill="#d9ecf2"/><path d="m176.355469 10.066406v401.6875c11.527343 2.007813 23.210937 3.023438 34.914062 3.039063v-407.769531c-11.703125.015624-23.386719 1.03125-34.914062 3.042968zm0 0" fill="#bdd9e5"/><path d="m218.472656 303.660156c0 15.421875-12.5 27.925782-27.921875 27.925782s-27.925781-12.503907-27.925781-27.925782 12.503906-27.921875 27.925781-27.921875 27.921875 12.5 27.921875 27.921875zm0 0" fill="#bdd9e5"/><path d="m211.269531 284.984375c-8.867187-9.894531-23.496093-12.132813-34.914062-5.339844v48.03125c11.417969 6.796875 26.046875 4.558594 34.914062-5.339843zm0 0" fill="#d9ecf2"/><path d="m59.464844 346.972656c15.414062-10.921875 19.667968-31.949218 9.714844-48.003906-9.949219-16.054688-30.675782-21.597656-47.3125-12.65625 8.867187 22.273438 21.597656 42.808594 37.597656 60.660156zm0 0" fill="#bdd9e5"/><path d="m332.332031 172.191406c0 27.507813-22.300781 49.804688-49.804687 49.804688-27.507813 0-49.804688-22.296875-49.804688-49.804688 0-27.503906 22.296875-49.800781 49.804688-49.800781 27.503906 0 49.804687 22.296875 49.804687 49.800781zm0 0" fill="#bdd9e5"/><path d="m135.996094 144.050781c0 15.542969-12.601563 28.140625-28.144532 28.140625-15.542968 0-28.144531-12.597656-28.144531-28.140625 0-15.546875 12.601563-28.144531 28.144531-28.144531 15.542969 0 28.144532 12.597656 28.144532 28.144531zm0 0" fill="#bdd9e5"/><path d="m206.222656 76.382812h158.179688c-10.707032-12.179687-22.820313-23.039062-36.085938-32.363281h-122.09375c-8.9375 0-16.179687 7.246094-16.179687 16.179688 0 8.9375 7.242187 16.183593 16.179687 16.183593zm0 0" fill="#d9ecf2"/><path d="m406.972656 268.0625h-51.835937c-8.933594 0-16.179688 7.242188-16.179688 16.179688 0 8.933593 7.246094 16.179687 16.179688 16.179687h39.332031c5.085938-10.410156 9.269531-21.238281 12.503906-32.359375zm0 0" fill="#bdd9e5"/><path d="m9.269531 238.171875h54.871094c8.9375 0 16.179687-7.242187 16.179687-16.179687 0-8.933594-7.242187-16.179688-16.179687-16.179688h-56.621094c-.042969 1.699219-.128906 3.382812-.128906 5.09375.019531 9.121094.648437 18.230469 1.878906 27.265625zm0 0" fill="#bdd9e5"/><path d="m415.152344 210.910156c0-112.601562-91.28125-203.886718-203.882813-203.886718v407.765624c112.601563.003907 203.882813-91.277343 203.882813-203.878906zm0 0" fill="#0162a7"/><g fill="#004584"><path d="m211.269531 7.023438v3.234374c97.160157 17.414063 167.882813 101.941407 167.882813 200.648438s-70.722656 183.234375-167.882813 200.652344v3.230468c112.601563 0 203.882813-91.28125 203.882813-203.882812s-91.28125-203.882812-203.882813-203.882812zm0 0"/><path d="m410.917969 169.425781c-1.03125-5-2.300781-9.917969-3.691407-14.777343-1.167968.308593-2.234374.917968-3.097656 1.769531l-192.859375 192.859375v16.898437c1.855469.003907 3.636719-.734375 4.949219-2.050781zm0 0"/><path d="m211.269531 43.972656v16.882813c1.855469.003906 3.636719-.734375 4.949219-2.050781l42.398438-42.398438c.921874-.925781 1.5625-2.089844 1.847656-3.359375-4.976563-1.238281-10.027344-2.28125-15.152344-3.132813zm0 0"/><path d="m403.671875 278.402344c2.265625-6.472656 4.203125-13.054688 5.800781-19.726563-2.578125-.992187-5.5-.375-7.453125 1.578125l-142.507812 142.550782c-1.726563 1.734374-2.421875 4.242187-1.824219 6.617187 7.152344-1.664063 14.210938-3.710937 21.144531-6.140625zm0 0"/><path d="m409.855469 201.550781-198.585938 198.585938v14.652343c1.769531 0 3.519531-.089843 5.277344-.132812l198.472656-198.472656c.042969-1.757813.128907-3.503906.128907-5.273438 0-3.832031-.125-7.632812-.335938-11.410156-1.859375-.003906-3.644531.730469-4.957031 2.050781zm0 0"/><path d="m390.71875 118.910156-179.449219 179.457032v16.902343c1.855469 0 3.636719-.738281 4.949219-2.050781l182.523438-182.527344c-1.902344-4.441406-4-8.796875-6.195313-13.054687-.675781.324219-1.292969.753906-1.828125 1.273437zm0 0"/><path d="m211.269531 94.832031v16.90625c1.851563 0 3.628907-.738281 4.9375-2.050781l81.015625-80.957031c.589844-.597657 1.0625-1.296875 1.402344-2.066407-4.375-2.078124-8.855469-3.976562-13.398438-5.742187zm0 0"/><path d="m211.269531 145.738281v16.886719c1.859375.003906 3.636719-.738281 4.949219-2.050781l114.308594-114.34375c.121094-.125.214844-.273438.328125-.402344-3.832031-2.777344-7.757813-5.425781-11.78125-7.941406zm0 0"/><path d="m211.269531 196.601562v16.898438c1.855469.003906 3.636719-.734375 4.949219-2.050781l141.894531-141.894531c-3.234375-3.367188-6.554687-6.648438-10-9.78125zm0 0"/><path d="m371.816406 86.910156-160.546875 160.59375v16.898438c1.859375 0 3.636719-.738282 4.949219-2.054688l164.613281-164.636718c-2.613281-3.910157-5.386719-7.699219-8.253906-11.40625-.265625.183593-.519531.386718-.761719.605468zm0 0"/></g><path d="m142.996094 144.050781c0-19.410156-15.738282-35.144531-35.144532-35.144531-19.410156 0-35.144531 15.734375-35.144531 35.144531 0 19.40625 15.734375 35.140625 35.144531 35.140625 19.394532-.027344 35.113282-15.746094 35.144532-35.140625zm-35.144532 21.140625c-11.679687 0-21.144531-9.464844-21.144531-21.140625 0-11.679687 9.464844-21.144531 21.144531-21.144531 11.675782 0 21.144532 9.464844 21.144532 21.144531-.015625 11.671875-9.472656 21.128907-21.144532 21.140625zm242.269532 55.132813c1.316406 1.3125 2.054687 3.09375 2.054687 4.949219 0 1.859374-.738281 3.640624-2.054687 4.953124l-14.089844 14.085938c-2.734375 2.734375-7.167969 2.734375-9.902344 0s-2.734375-7.164062 0-9.898438l14.089844-14.089843c1.3125-1.3125 3.09375-2.054688 4.953125-2.054688 1.855469 0 3.636719.742188 4.949219 2.054688zm65.644531-60.914063c-3.273437-12.96875-7.78125-25.59375-13.46875-37.699218-.164063-.523438-.390625-1.023438-.675781-1.492188-5.285156-11.011719-11.515625-21.542969-18.621094-31.476562-.328125-.675782-.761719-1.296876-1.285156-1.832032l-.046875-.042968c-6.882813-9.429688-14.53125-18.277344-22.867188-26.449219-.195312-.285157-.417969-.550781-.65625-.800781-.351562-.351563-.738281-.664063-1.160156-.933594-7.882813-7.554688-16.339844-14.488282-25.289063-20.742188-1.039062-2.023437-3.035156-3.378906-5.300781-3.601562-9.683593-6.335938-19.871093-11.867188-30.460937-16.53125-.472656-.289063-.980469-.515625-1.511719-.683594-12.515625-5.390625-25.53125-9.542969-38.855469-12.398438-.261718-.078124-.53125-.144531-.800781-.191406-61.3125-12.929687-125.203125 2.089844-174.335937 40.980469-49.132813 38.894531-78.414063 97.628906-79.902344 160.273437-.042969 1.695313-.128906 3.382813-.128906 5.09375-.210938 72.902344 37.429687 140.691407 99.429687 179.054688 3.277344 2.046875 7.597656 1.046875 9.644531-2.234375s1.046875-7.597656-2.234375-9.644531c-13.796875-8.609375-26.488281-18.875-37.789062-30.570313 13.816406-13.996093 16.25-35.632812 5.894531-52.351562-10.351562-16.71875-30.808594-24.175781-49.492188-18.046875-3.695312-10.394532-6.503906-21.085938-8.402343-31.953125h46.691406c12.804687 0 23.179687-10.378907 23.179687-23.179688s-10.375-23.179687-23.179687-23.179687c-3.863281 0-7 3.132812-7 7 0 3.867187 3.136719 7 7 7 5.070313 0 9.179687 4.109375 9.179687 9.179687 0 5.070313-4.109374 9.179688-9.179687 9.179688h-48.632813c-.617187-6.0625-1-12.179688-1.0625-18.359375h19.765626c3.867187 0 7-3.132813 7-7 0-3.867188-3.132813-7-7-7h-19.417969c6.367187-101.0625 88.28125-180.859375 189.476562-184.574219v22.917969c-12.003906 1-21.234375 11.035156-21.234375 23.078125 0 12.046875 9.230469 22.082031 21.234375 23.082031v21.355469.203125 53.601562c-.027343 3.867188 3.082031 7.023438 6.945313 7.054688 3.867187.027344 7.027344-3.082032 7.054687-6.945313l24.96875-24.980469c2.734375-2.734374 2.734375-7.167968 0-9.902343s-7.167969-2.734375-9.898437 0l-15.070313 15.066406v-31.105469l75.492188-75.441406c6.929687 3.222656 13.664062 6.84375 20.171875 10.84375l-58.160156 58.1875c-1.820313 1.753906-2.550782 4.359375-1.910157 6.804688.640625 2.449218 2.550781 4.359374 5 5 2.445313.640624 5.050781-.085938 6.808594-1.90625l60.171875-60.207032c5.984375 4.308594 11.726562 8.953125 17.199219 13.902344l-46.128907 46.144531c-2.734374 2.734375-2.734374 7.167969 0 9.898438 2.734376 2.734375 7.167969 2.734375 9.898438 0l46.3125-46.320313c5.085938 5.308594 9.871094 10.894532 14.335938 16.730469l-149.191407 149.242187v-31.109374l65.339844-65.339844c2.734375-2.734375 2.734375-7.167969 0-9.902344s-7.164063-2.734375-9.898437 0l-55.976563 55.980469c-1.273437-3.089844-4.554687-4.847657-7.832031-4.195313s-5.636719 3.53125-5.632813 6.871094v126.589844c-7 6.101562-17.191406 6.855468-25.011719 1.847656-7.824218-5.007812-11.402343-14.578125-8.789062-23.492188 2.613281-8.914062 10.792969-15.035156 20.082031-15.023437 3.867188 0 7-3.136719 7-7 0-3.867187-3.132812-7-7-7-14.199219-.042969-27.007812 8.515625-32.40625 21.648437-5.394531 13.132813-2.304687 28.222657 7.820313 38.179688 10.125 9.953125 25.265625 12.785156 38.304687 7.167969v71.886719c-24.210937-.792969-48.0625-6.082032-70.335937-15.601563-3.558594-1.519531-7.675782.136719-9.199219 3.695313-1.519531 3.558593.136719 7.679687 3.695313 9.199218 43.378906 18.476563 91.691406 21.898438 137.242187 9.726563.488281-.082031.972656-.214844 1.433594-.398438 110.285156-30.238281 176.335937-142.898437 148.859375-253.902343-.042969-.3125-.109375-.621094-.199219-.925782zm-376.894531 129.589844c11.402344-.023438 21.742187 6.710938 26.328125 17.152344 4.589843 10.4375 2.558593 22.605468-5.167969 30.992187-11.871094-14.207031-21.652344-30.03125-29.058594-47 2.566406-.746093 5.226563-1.128906 7.898438-1.144531zm179.398437-274.851562c7.007813.253906 13.996094.882812 20.9375 1.882812l-20.9375 20.941406zm-21.226562 46.050781c.011719-4.308594 3.015625-8.035157 7.226562-8.957031v17.917968c-4.210937-.921875-7.214843-4.648437-7.226562-8.960937zm21.226562 27.640625v-31.070313l37.625-37.625c8.105469 1.898438 16.078125 4.316407 23.875 7.234375zm183.535157 172.621094-140.878907 140.929687c-12.132812 3.160156-24.539062 5.152344-37.050781 5.941406l183.835938-183.835937c-.785157 12.480468-2.761719 24.859375-5.90625 36.960937zm-183.535157 101.601562 96.851563-96.839844c2.738281-2.734375 2.742187-7.171875.007812-9.90625-2.734375-2.738281-7.167968-2.742187-9.90625-.007812l-86.953125 86.96875v-31.113282l175.101563-175.097656c3.105468 7.574219 5.734375 15.339844 7.867187 23.246094l-38.734375 38.738281c-2.734375 2.730469-2.734375 7.164063 0 9.898438 2.730469 2.734375 7.164063 2.734375 9.898438 0l32.5-32.5c1.691406 9.246093 2.714844 18.605469 3.066406 28l-189.699219 189.6875zm157.464844-259.28125c4.171875 6.351562 7.96875 12.9375 11.378906 19.726562l-168.84375 168.859376v-31.0625zm-84.351563 287.941406 99.671876-99.707031c-19.871094 44.335937-55.34375 79.820313-99.671876 99.707031zm0 0" fill="#002d42"/></svg>