<svg height="465pt" viewBox="0 -17 465.92418 465" width="465pt" xmlns="http://www.w3.org/2000/svg"><path d="m415.976562 208.996094c0 107.261718-86.953124 194.214844-194.214843 194.214844-107.265625 0-194.21875-86.953126-194.21875-194.214844 0-107.265625 86.953125-194.21875 194.21875-194.21875 107.261719 0 194.214843 86.953125 194.214843 194.21875zm0 0" fill="#d9ecf2"/><g fill="#bdd9e5"><path d="m221.773438 14.777344c-7.746094.015625-15.480469.492187-23.167969 1.425781 97.617187 11.683594 171.097656 94.484375 171.097656 192.800781 0 98.3125-73.480469 181.113282-171.097656 192.796875 71.621093 8.574219 142.089843-23.257812 183.007812-82.664062 40.917969-59.402344 45.539063-136.589844 12-200.453125-33.539062-63.859375-99.707031-103.871094-171.839843-103.90625zm0 0"/><path d="m228.625 297.351562c0 14.691407-11.910156 26.597657-26.601562 26.597657-14.691407 0-26.597657-11.90625-26.597657-26.597657 0-14.691406 11.90625-26.601562 26.597657-26.601562 14.691406 0 26.601562 11.910156 26.601562 26.601562zm0 0"/><path d="m77.152344 338.609375c14.757812-10.378906 18.855468-30.46875 9.347656-45.800781-9.507812-15.332032-29.324219-20.589844-45.183594-11.984375 8.453125 21.21875 20.585938 40.78125 35.835938 57.785156zm0 0"/><path d="m337.085938 172.113281c0 26.203125-21.242188 47.445313-47.445313 47.445313s-47.445313-21.242188-47.445313-47.445313 21.242188-47.441406 47.445313-47.441406 47.445313 21.238281 47.445313 47.441406zm0 0"/><path d="m150.050781 145.304688c0 14.808593-12 26.808593-26.804687 26.808593-14.808594 0-26.808594-12-26.808594-26.808593 0-14.804688 12-26.804688 26.808594-26.804688 14.804687 0 26.804687 12 26.804687 26.804688zm0 0"/><path d="m201.539062 65.429688c0-8.511719 6.902344-15.410157 15.414063-15.410157h116.308594c12.636719 8.878907 24.171875 19.226563 34.371093 30.828125h-150.679687c-8.515625 0-15.414063-6.902344-15.414063-15.417968zm206.648438 198h-49.375c-8.511719 0-15.414062 6.902343-15.414062 15.414062s6.902343 15.410156 15.414062 15.410156h37.472656c4.835938-9.914062 8.8125-20.222656 11.886719-30.816406zm0 0"/></g><path d="m361.886719 263.4375c-2.871094 9.8125-6.523438 19.378906-10.914063 28.609375 2.363282 1.433594 5.074219 2.195313 7.839844 2.207031h37.472656c.976563-2 1.890625-4 2.800782-6.042968.265624-.597657.546874-1.199219.796874-1.789063.90625-2.082031 1.765626-4.191406 2.597657-6.316406.1875-.480469.398437-.957031.566406-1.4375.875-2.285157 1.710937-4.59375 2.503906-6.917969l.257813-.757812c.835937-2.496094 1.628906-5.011719 2.375-7.550782zm0 0" fill="#d9ecf2"/><path d="m286.898438 50.019531c12.648437 8.875 24.195312 19.222657 34.402343 30.824219h46.332031c-7.640624-8.691406-16.039062-16.683594-25.09375-23.886719-3.015624-2.398437-6.101562-4.707031-9.261718-6.925781h-46.378906zm0 0" fill="#d9ecf2"/><path d="m29.324219 234.96875h52.285156c8.511719 0 15.410156-6.898438 15.410156-15.410156 0-8.511719-6.898437-15.410156-15.410156-15.410156h-53.941406c-.039063 1.597656-.125 3.222656-.125 4.851562.015625 8.6875.613281 17.363281 1.78125 25.96875zm0 0" fill="#bdd9e5"/><path d="m418.234375 65.386719-24.226563 9.066406 7.539063-24.746094-16.109375-20.238281 25.863281-.476562 14.265625-21.578126 8.449219 24.449219 24.933594 6.902344-20.644531 15.59375 1.140624 25.839844zm0 0" fill="#fabe02"/><path d="m425.566406 7.414062-1.539062 30.414063 12.089844 6.375-15.140626 9.605469 18.46875 26.390625-1.140624-25.839844 20.644531-15.59375-24.933594-6.902344zm0 0" fill="#f59a1d"/><path d="m49.0625 407.585938-15.472656 17.894531-4.789063-23.171875-21.804687-9.1875 20.554687-11.714844 2.003907-23.570312 17.492187 15.925781 23.042969-5.378907-9.746094 21.558594 12.238281 20.25zm0 0" fill="#fabe02"/><path d="m29.554688 357.835938 10.234374 26.363281 13.769532-1.871094-6.597656 14.136719 25.621093 13.726562-12.238281-20.25 9.746094-21.558594-23.042969 5.378907zm0 0" fill="#f59a1d"/><path d="m372.550781 98.015625c2.292969 3.113281 6.675781 3.777344 9.789063 1.484375 3.113281-2.292969 3.777344-6.675781 1.484375-9.789062-3.414063-4.632813-7.074219-9.175782-10.878907-13.5-1.015624-1.148438-2.382812-1.925782-3.890624-2.214844h-.046876c-.421874-.082032-.847656-.125-1.277343-.128906h-150.757813c-4.644531 0-8.414062-3.765626-8.414062-8.414063 0-4.644531 3.769531-8.410156 8.414062-8.410156h114.113282c2.542968 1.839843 5.066406 3.722656 7.539062 5.703125 3.027344 2.417968 7.4375 1.921875 9.851562-1.105469 2.417969-3.027344 1.921876-7.4375-1.105468-9.855469-35.578125-28.640625-79.925782-44.175781-125.597656-44-66.589844-.042968-128.886719 32.878906-166.363282 87.921875-37.472656 55.046875-45.269531 125.074219-20.816406 187.011719.125.4375.292969.859375.5 1.265625 8.632812 21.394531 20.871094 41.144531 36.191406 58.398437.054688.085938.089844.179688.152344.269532.347656.488281.757812.933594 1.222656 1.316406 44.640625 49.40625 110.851563 73.5 176.804688 64.339844 65.953125-9.15625 123.089844-50.378906 152.582031-110.078125.316406-.464844.570313-.964844.765625-1.488281 4.90625-10.117188 8.953125-20.628907 12.089844-31.425782.050781-.179687.117187-.347656.148437-.527344 15.136719-52.277343 8.425781-108.457031-18.59375-155.703124-1.921875-3.355469-6.199219-4.515626-9.554687-2.59375-3.355469 1.921874-4.515625 6.199218-2.59375 9.554687 24.3125 42.570313 30.976562 92.972656 18.5625 140.398437h-44.058594c-12.378906 0-22.414062 10.035157-22.414062 22.414063s10.035156 22.410156 22.414062 22.410156h25.761719c-29.042969 51.382813-80.644531 86.03125-139.195313 93.464844-58.554687 7.429687-117.175781-13.222656-158.132812-55.71875 12.988281-13.488281 15.164062-34.074219 5.28125-49.980469-9.886719-15.90625-29.308594-23.066406-47.15625-17.386718-3.429688-9.660157-6.058594-19.585938-7.851563-29.679688h44.089844c9.394531.015625 17.804687-5.835938 21.050781-14.65625 3.25-8.816406.648438-18.722656-6.511718-24.808594-2.945313-2.46875-7.328126-2.101562-9.820313.824219-2.492187 2.921875-2.164063 7.308594.734375 9.828125 2.6875 2.28125 3.660156 5.996094 2.445312 9.300781-1.21875 3.308594-4.371093 5.503907-7.894531 5.496094h-46.113281c-.558594-5.539063-.839844-11.15625-.902344-16.828125h31.867188c3.867187 0 7-3.132812 7-7 0-3.863281-3.132813-7-7-7h-31.492188c6.363282-98.523438 88.066406-175.222656 186.800782-175.347656 30.207031-.09375 59.976562 7.199218 86.722656 21.242187h-91.523438c-12.378906 0-22.414062 10.035157-22.414062 22.410157 0 12.378906 10.035156 22.414062 22.414062 22.414062h147.46875c2.8125 3.304688 5.546875 6.695312 8.109375 10.171875zm-13.738281 189.230469c-4.644531 0-8.414062-3.765625-8.414062-8.410156 0-4.648438 3.769531-8.414063 8.414062-8.414063h39.761719c-2 5.742187-4.269531 11.351563-6.800781 16.824219zm-301.269531-3.542969c10.628906-.015625 20.277343 6.199219 24.660156 15.882813 4.382813 9.679687 2.6875 21.03125-4.339844 29.007812-11.082031-13.316406-20.265625-28.105469-27.289062-43.941406 2.273437-.613282 4.617187-.925782 6.96875-.933594zm144.480469-19.972656c-18.554688 0-33.597657 15.042969-33.597657 33.601562 0 18.554688 15.042969 33.597657 33.597657 33.597657 18.558593 0 33.601562-15.042969 33.601562-33.597657-.03125-18.542969-15.058594-33.5625-33.601562-33.585937zm0 53.199219c-10.824219 0-19.597657-8.773438-19.597657-19.597657 0-10.828125 8.773438-19.601562 19.597657-19.601562 10.824218 0 19.601562 8.773437 19.601562 19.601562-.003906 10.824219-8.773438 19.605469-19.601562 19.617188zm121.898437-123.359376c10.605469-16.949218 7.214844-39.109374-7.96875-52.113281-15.1875-13.007812-37.605469-12.949219-52.722656.136719-15.117188 13.085938-18.386719 35.261719-7.691407 52.15625 10.695313 16.894531 32.136719 23.421875 50.433594 15.355469 2.300782-1.097657 5.015625-.859375 7.089844.625s3.175781 3.980469 2.878906 6.511719c-.300781 2.53125-1.953125 4.703124-4.3125 5.664062-24.65625 10.875-53.554687 2.070312-67.964844-20.699219-14.40625-22.769531-9.984374-52.65625 10.398438-70.277343 20.382812-17.625 50.59375-17.683594 71.042969-.136719 20.453125 17.542969 24.988281 47.410156 10.667969 70.238281-2.054688 3.273438-6.375 4.265625-9.652344 2.210938-3.273438-2.054688-4.261719-6.375-2.207032-9.652344zm-234.484375-48.265624c0 18.671874 15.136719 33.808593 33.808594 33.808593 18.667968 0 33.804687-15.136719 33.804687-33.808593 0-18.667969-15.136719-33.804688-33.804687-33.804688-18.664063.019531-33.789063 15.144531-33.808594 33.804688zm53.597656 0c0 10.941406-8.867187 19.808593-19.808594 19.808593-10.9375 0-19.804687-8.867187-19.804687-19.808593 0-10.9375 8.867187-19.804688 19.804687-19.804688 10.945313 0 19.816407 8.863281 19.828126 19.804688zm322.765625-107.847657c.5 2.617188-.53125 5.292969-2.65625 6.898438l-17.703125 13.371093.972656 22.167969c.113282 2.660157-1.289062 5.15625-3.625 6.4375-2.332031 1.285157-5.191406 1.128907-7.375-.394531l-18.167968-12.691406-20.800782 7.78125c-2.496093.933594-5.304687.371094-7.246093-1.453125-1.941407-1.824219-2.679688-4.589844-1.902344-7.140625l6.460937-21.226563-13.820312-17.359375c-1.660156-2.085937-1.992188-4.929687-.855469-7.339844 1.136719-2.410156 3.539063-3.96875 6.203125-4.015624l25.867188-.480469h.132812c3.863282-.035157 7.027344 3.070312 7.0625 6.9375.03125 3.867187-3.074218 7.027343-6.9375 7.0625l-11.6875.214843 7.277344 9.144532c1.429688 1.804687 1.878906 4.199218 1.199219 6.398437l-3.402344 11.175781 10.976563-4.097656c2.152343-.816406 4.570312-.515625 6.457031.800782l9.582031 6.691406-.511719-11.675782c-.101562-2.300781.933594-4.507812 2.773438-5.894531l9.320312-7.042969-11.257812-3.117187c-2.21875-.613281-3.996094-2.28125-4.75-4.457031l-8.445313-24.453125c-1.230468-3.644531.710938-7.597657 4.347656-8.851563 3.632813-1.257812 7.601563.652344 8.882813 4.277344l7.25 20.976562 21.382813 5.921876c2.570312.707031 4.515624 2.8125 5.015624 5.429687zm-465.7890622 356.082031c-.1562498-2.660156 1.2070312-5.179687 3.5234372-6.5l17.355469-9.890624 1.683594-19.902344c.328125-3.851563 3.722656-6.707032 7.574219-6.375 3.851562.332031 6.707031 3.722656 6.375 7.574218l-2 23.578126c-.195313 2.296874-1.507813 4.351562-3.511719 5.492187l-8.230469 4.691406 8.730469 3.679688c2.125.894531 3.671875 2.777343 4.136719 5.035156l1.914062 9.277344 6.203125-7.164063c1.503906-1.746094 3.773437-2.636718 6.0625-2.378906l9.417969 1.042969-4.902344-8.109375c-1.195312-1.96875-1.34375-4.398438-.398438-6.5l3.902344-8.636719-9.230468 2.15625c-2.453126.617187-5.046876-.136719-6.789063-1.972656-1.738281-1.835938-2.351563-4.46875-1.605469-6.882813.75-2.417968 2.742188-4.242187 5.214844-4.773437l23.039062-5.382813c2.59375-.605468 5.308594.316406 6.996094 2.375 1.691406 2.058594 2.070313 4.898438.972656 7.324219l-8.230468 18.207031 10.332031 17.097656c1.378906 2.28125 1.339844 5.144532-.09375 7.390626-1.433594 2.242187-4.015625 3.476562-6.664063 3.1875l-19.859374-2.199219-13.050782 15.066406c-1.742187 2.015625-4.476562 2.863281-7.054687 2.191406s-4.550781-2.746093-5.09375-5.355469l-4.039063-19.5625-18.398437-7.761718c-2.457031-1.03125-4.113281-3.363282-4.2812502-6.019532zm0 0" fill="#002d42"/></svg>