<svg height="471pt" viewBox="0 -28 471.29021 471" width="471pt" xmlns="http://www.w3.org/2000/svg"><path d="m464.5625 152.734375c0 74.597656-60.472656 135.074219-135.074219 135.074219-74.601562 0-135.078125-60.476563-135.078125-135.074219 0-74.601563 60.476563-135.078125 135.078125-135.078125 74.601563 0 135.074219 60.476562 135.074219 135.078125zm0 0" fill="#d9ecf2"/><path d="m364.761719 262.660156c-6.804688.011719-13.558594 1.132813-20 3.320313.226562-2.851563.375-5.722657.375-8.632813.011719-36.253906-18.3125-70.058594-48.695313-89.839844-30.382812-19.78125-68.710937-22.859374-101.863281-8.179687 2.28125 46.683594 28.53125 88.871094 69.40625 111.535156 40.875 22.664063 90.566406 22.585938 131.367187-.210937-9.339843-5.246094-19.878906-8-30.589843-7.992188zm0 0" fill="#bdd9e5"/><path d="m329.488281 17.65625c-6.714843.003906-13.421875.5-20.0625 1.492188 66.101563 9.941406 114.992188 66.734374 114.992188 133.582031 0 66.847656-48.890625 123.640625-114.992188 133.582031 50.109375 7.542969 100.226563-13.597656 129.796875-54.75 29.570313-41.152344 33.621094-95.394531 10.492188-140.480469-23.132813-45.089843-69.550782-73.4375-120.226563-73.425781zm0 0" fill="#bdd9e5"/><path d="m334.261719 214.179688c0 10.21875-8.285157 18.5-18.5 18.5-10.21875 0-18.5-8.28125-18.5-18.5 0-10.214844 8.28125-18.5 18.5-18.5 10.214843 0 18.5 8.285156 18.5 18.5zm0 0" fill="#d9ecf2"/><g fill="#bdd9e5"><path d="m228.914062 242.875c10.230469-7.230469 13.054688-21.175781 6.453126-31.820312-6.601563-10.648438-20.351563-14.3125-31.375-8.367188 5.878906 14.757812 14.316406 28.363281 24.921874 40.1875zm0 0"/><path d="m409.691406 127.085938c0 18.222656-14.773437 32.996093-32.996094 32.996093-18.222656 0-32.996093-14.773437-32.996093-32.996093 0-18.222657 14.773437-32.996094 32.996093-32.996094 18.222657 0 32.996094 14.773437 32.996094 32.996094zm0 0"/><path d="m279.617188 108.4375c0 10.296875-8.347657 18.644531-18.644532 18.644531s-18.644531-8.347656-18.644531-18.644531 8.347656-18.644531 18.644531-18.644531 18.644532 8.347656 18.644532 18.644531zm0 0"/><path d="m326.144531 63.605469h104.800781c-7.09375-8.066407-15.117187-15.265625-23.90625-21.441407h-80.894531c-5.921875 0-10.71875 4.800782-10.71875 10.722657 0 5.917969 4.796875 10.71875 10.71875 10.71875zm0 0"/></g><path d="m430.9375 63.605469c-5.316406-6.042969-11.15625-11.601563-17.453125-16.613281-2.097656-1.667969-4.246094-3.273438-6.445313-4.820313h-40.144531c8.800781 6.175781 16.832031 13.371094 23.933594 21.441406h40.109375zm0 0" fill="#d9ecf2"/><path d="m459.144531 190.597656h-34.339843c-5.921876 0-10.71875 4.796875-10.71875 10.71875s4.796874 10.71875 10.71875 10.71875h26.058593c3.367188-6.894531 6.140625-14.066406 8.28125-21.4375zm0 0" fill="#bdd9e5"/><path d="m424.804688 190.597656c-2.335938.007813-4.601563.78125-6.453126 2.207032-1.160156 3.734374-2.476562 7.398437-3.949218 11 1.148437 4.820312 5.449218 8.222656 10.402344 8.226562h26.058593c1.632813-3.335938 3.125-6.746094 4.472657-10.238281l.179687-.457031c1.351563-3.515626 2.558594-7.09375 3.632813-10.738282zm0 0" fill="#d9ecf2"/><path d="m195.652344 170.78125h36.363281c5.921875 0 10.71875-4.800781 10.71875-10.71875 0-5.921875-4.796875-10.722656-10.71875-10.722656h-37.519531c-.027344 1.125-.085938 2.246094-.085938 3.378906.015625 6.039062.429688 12.074219 1.242188 18.0625zm0 0" fill="#bdd9e5"/><path d="m242.730469 160.078125c0-4.308594-2.582031-8.199219-6.550781-9.875-14.320313.214844-28.449219 3.308594-41.546876 9.097656.03125.601563.023438 1.199219.0625 1.808594.039063.609375.082032 1.109375.121094 1.664063.207032 2.6875.464844 5.359374.800782 8h36.363281c5.921875.015624 10.738281-4.773438 10.75-10.695313zm0 0" fill="#d9ecf2"/><path d="m344.820312 282.597656c-6.804687.011719-13.558593 1.132813-20 3.320313.226563-2.851563.375-5.726563.375-8.632813.007813-52.972656-38.679687-98.007812-91.046874-105.988281-52.367188-7.980469-102.714844 23.484375-118.488282 74.050781-31.296875-9.992187-65.542968-.660156-87.441406 23.828125-21.898438 24.492188-27.363281 59.5625-13.945312 89.550781 13.414062 29.988282 43.203124 49.292969 76.054687 49.289063h254.492187c22.523438.179687 43.414063-11.730469 54.726563-31.207031 11.316406-19.476563 11.316406-43.527344 0-63.003906-11.3125-19.476563-32.203125-31.386719-54.726563-31.207032zm0 0" fill="#26a3b9"/><path d="m298.394531 277.371094v.566406c-.019531 3.03125 1.289063 5.917969 3.585938 7.894531 2.292969 1.980469 5.339843 2.851563 8.335937 2.386719l14.488282-2.300781.203124-2.933594c.109376-1.894531.171876-3.777344.171876-5.699219.175781-30.773437-12.960938-60.121094-36.027344-80.492187-23.066406-20.371094-53.8125-29.78125-84.328125-25.804688 53.484375 6.855469 93.554687 52.375 93.570312 106.296875zm0 0" fill="#168aa5"/><path d="m344.820312 282.597656c-4.464843.015625-8.917968.515625-13.277343 1.496094 31.253906 6.882812 52.308593 36.203125 48.839843 68.019531-3.464843 31.816407-30.339843 55.910157-62.34375 55.902344h26.800782c34.4375-.273437 62.210937-28.269531 62.210937-62.707031 0-34.441406-27.773437-62.4375-62.210937-62.710938zm0 0" fill="#168aa5"/><path d="m69.707031 176.640625-26.925781 14.160156 5.144531-29.988281-21.789062-21.234375 30.105469-4.378906 13.464843-27.28125 13.46875 27.28125 30.109375 4.378906-21.789062 21.234375 5.144531 29.988281zm0 0" fill="#fabe02"/><path d="m113.285156 139.578125-30.109375-4.378906-13.46875-27.28125.570313 27.28125 17.878906 10.914062-18.449219 19.019531 26.933594 25.667969-5.144531-29.988281zm0 0" fill="#f59a1d"/><path d="m144.6875 63.597656-22.125 11.632813 4.226562-24.636719-17.898437-17.445312 24.734375-3.589844 11.0625-22.414063 11.058594 22.414063 24.734375 3.589844-17.894531 17.445312 4.222656 24.636719zm0 0" fill="#fabe02"/><path d="m180.480469 33.148438-24.734375-3.589844-11.058594-22.414063.464844 22.414063 14.6875 8.960937-15.152344 15.621094 22.121094 21.089844-4.222656-24.636719zm0 0" fill="#f59a1d"/><path d="m461.570312 123.488281c3.816407-.636719 7.421876 1.941407 8.058594 5.757813.792969 4.78125 1.339844 9.601562 1.648438 14.4375.117187 1.855468-.507813 3.679687-1.734375 5.070312-1.226563 1.394532-2.957031 2.242188-4.8125 2.359375-.152344 0-.296875 0-.445313 0-3.691406-.003906-6.746094-2.875-6.976562-6.558593-.277344-4.367188-.777344-8.714844-1.492188-13.03125-.625-3.804688 1.949219-7.398438 5.753906-8.035157zm-84.875-36.398437c22.09375 0 40 17.90625 40 40 0 22.089844-17.90625 40-40 40-22.089843 0-40-17.910156-40-40 .023438-22.082032 17.917969-39.980469 40-40zm0 14c-14.359374 0-26 11.640625-26 26s11.640626 26 26 26c14.359376 0 26-11.640625 26-26-.011718-14.355469-11.644531-25.988282-26-26zm-115.714843-18.308594c14.164062 0 25.644531 11.480469 25.644531 25.644531 0 14.160157-11.480469 25.644531-25.644531 25.644531-14.164063 0-25.644531-11.484374-25.644531-25.644531.015624-14.15625 11.488281-25.628906 25.644531-25.644531zm0 14c-6.429688 0-11.644531 5.210938-11.644531 11.644531 0 6.429688 5.214843 11.644531 11.644531 11.644531 6.429687 0 11.644531-5.214843 11.644531-11.644531-.007812-6.429687-5.21875-11.636719-11.644531-11.644531zm-113.832031 90.945312c-3.0625 2.421876-6 5-8.800782 7.722657-1.824218 1.738281-2.574218 4.320312-1.964844 6.765625.609376 2.441406 2.488282 4.371094 4.914063 5.046875s5.027344-.003907 6.816406-1.78125c2.457031-2.394531 5.035157-4.664063 7.722657-6.800781 3.03125-2.398438 3.539062-6.804688 1.136718-9.832032-2.398437-3.03125-6.804687-3.539062-9.832031-1.140625zm-147.148438 136.980469c-.0078125-27.621093 12.632812-53.726562 34.304688-70.855469 21.671874-17.128906 49.992187-23.394531 76.867187-17.007812 3.003906-7.917969 6.882813-15.480469 11.558594-22.542969 2.136719-3.222656 6.480469-4.105469 9.707031-1.96875 3.222656 2.136719 4.101562 6.480469 1.964844 9.703125-5.203125 7.855469-9.273438 16.402344-12.078125 25.398438-.554688 1.777344-1.796875 3.257812-3.449219 4.117187s-3.578125 1.027344-5.351562.464844c-28.664063-9.152344-60.035157-.605469-80.09375 21.828125-20.058594 22.433594-25.0625 54.558594-12.773438 82.027344s39.574219 45.148437 69.667969 45.144531h254.496093c30.765626 0 55.710938-24.941406 55.710938-55.707031 0-30.769532-24.945312-55.710938-55.710938-55.710938-4.511718.003906-9.007812.5625-13.382812 1.664063-1.058594 14.316406-4.175781 28.402343-9.257812 41.828125-1.625 3.371094-5.621094 4.867187-9.0625 3.394531-3.441407-1.476563-5.113282-5.398437-3.792969-8.902344 7.199219-16.875 8.472656-41.75 8.484375-42 0-.050781 0-.089843.019531-.136719.019531-.046874 0-.070312 0-.101562.238281-2.960938.355469-5.597656.355469-8.066406-.066406-55.304688-44.886719-100.121094-100.191406-100.179688-15.695313-.050781-31.175782 3.628906-45.171876 10.734375-2.234374 1.148438-4.910156 1.011719-7.015624-.359375-2.105469-1.367187-3.316407-3.761718-3.171876-6.265625.144532-2.507812 1.621094-4.746093 3.867188-5.867187 6.925781-3.492188 14.1875-6.269532 21.679688-8.277344-4.171876-39.988281 8.835937-79.867188 35.792968-109.699219 26.953125-29.832031 65.308594-46.8125 105.515625-46.703125 58.570313-.238281 111.214844 35.683594 132.347657 90.308594 1.410156 3.601562-.367188 7.660156-3.96875 9.070312-3.601563 1.40625-7.664063-.371093-9.070313-3.96875-5.042969-12.867187-12.117187-24.839843-20.957031-35.460937h-41.066406c-3.867188 0-7-3.132813-7-7s3.132812-7 7-7h27.480468c-2.984375-2.632813-6.074218-5.109375-9.273437-7.429687h-78.835938c-2.054687 0-3.71875 1.667968-3.71875 3.722656 0 2.054687 1.664063 3.71875 3.71875 3.71875h37.128907c3.863281 0 7 3.132812 7 7 0 3.867187-3.136719 7-7 7h-37.128907c-9.785156 0-17.71875-7.933594-17.71875-17.71875 0-9.789063 7.933594-17.722656 17.71875-17.722656h54.28125c-37.910156-16.371094-81.386719-13.476563-116.789062 7.777343-35.402344 21.253907-58.394531 58.265625-61.765625 99.425781h30.144531c5.976563-.011718 11.554687 3 14.824219 8.003907 3.269531 5.007812 3.789062 11.324219 1.375 16.792969 30.765625 8.519531 56.585937 29.480468 71.25 57.835937 5.316406-1.800781 8.546875-7.191406 7.632812-12.730469-.914062-5.539062-5.703125-9.605468-11.316406-9.605468-3.867188 0-7-3.132813-7-7 0-3.863282 3.132812-7 7-7 12.25-.027344 22.789062 8.667968 25.089844 20.703124 2.300781 12.035157-4.289063 24.003907-15.6875 28.5 4.585937 12.457032 6.957031 25.621094 6.996094 38.898438 4.167968-.789062 8.398437-1.191406 12.640624-1.199219 4.933594.011719 9.847657.546875 14.667969 1.597657 33.25-7.933594 61.925781-28.882813 79.601563-58.144532h-14.273438c-9.785156 0-17.71875-7.933594-17.71875-17.71875s7.933594-17.71875 17.71875-17.71875h28.964844c1.515625-6.082031 2.585938-12.265625 3.199219-18.5.21875-2.507812 1.761719-4.703125 4.046875-5.753906s4.957031-.792969 7.003906.671875c2.042969 1.464844 3.144531 3.910156 2.882812 6.414063-.863281 8.734374-2.535156 17.375-4.988281 25.804687-.027343.105469-.027343.214844-.058593.324219-.363282 1.25-.773438 2.492187-1.171876 3.734375-.671874 2.101562-1.390624 4.179687-2.15625 6.234375-.464843 1.25-.949218 2.488281-1.449218 3.71875-.984375 2.421875-2.027344 4.804687-3.136719 7.15625-.269531.566406-.515625 1.152344-.800781 1.714844-.035156.066406-.09375.121093-.128906.1875-15.777344 32.257812-43.234376 57.304687-76.800782 70.066406 27.078125 15.945312 40.121094 48.046875 31.84375 78.359375-8.28125 30.3125-35.832031 51.324219-67.253906 51.289062h-254.503906c-49.855469-.050781-90.261719-40.453125-90.308594-90.3125zm449.027344-126.074219c.132812-.347656.277344-.6875.402344-1.035156h-24.628907c-2.054687 0-3.722656 1.664063-3.722656 3.71875 0 2.054688 1.667969 3.71875 3.722656 3.71875h21.597657c.949218-2.097656 1.804687-4.253906 2.628906-6.402344zm-231.035156-35.535156c4.402343.011719 8.804687.28125 13.175781.800782.28125-.046876.5625-.074219.84375-.085938 2.007812-.066406 3.597656-1.710938 3.597656-3.71875s-1.589844-3.652344-3.597656-3.71875h-30.496094c.074219 2.625.230469 5.253906.46875 7.886719 5.300781-.757813 10.652344-1.148438 16.007813-1.164063zm-177.601563.160156-4.519531 26.359376c-.449219 2.625.628906 5.28125 2.785156 6.847656s5.011719 1.773437 7.371094.53125l23.671875-12.441406 23.679687 12.441406c2.359375 1.242187 5.21875 1.035156 7.371094-.53125 2.15625-1.566406 3.238281-4.222656 2.785156-6.847656l-4.519531-26.359376 19.164063-18.667968c1.90625-1.863282 2.589843-4.644532 1.765624-7.175782-.820312-2.53125-3.011718-4.378906-5.644531-4.765624l-30.121093-4.375c-3.808594-.519532-7.324219 2.128906-7.875 5.933593-.550782 3.808594 2.074218 7.34375 5.875 7.921875l16.078124 2.332032-11.632812 11.335937c-1.644531 1.609375-2.394531 3.925781-2 6.195313l2.746094 16-14.390625-7.546876c-2.039063-1.074218-4.476563-1.074218-6.515625 0l-14.375 7.554688 2.746094-16c.390624-2.269531-.355469-4.585938-2-6.195312l-11.65625-11.339844 16.078124-2.332032c2.277344-.332031 4.246094-1.765624 5.265626-3.832031l13.464843-27.285156c1.710938-3.464844.285157-7.664063-3.179687-9.375-3.46875-1.710937-7.664063-.285156-9.375 3.179687l-11.835938 24-26.46875 3.84375c-2.636718.386719-4.824218 2.234376-5.648437 4.765626-.820313 2.535156-.136719 5.3125 1.765625 7.175781zm63.601563-125.09375c-1.90625-1.859374-2.589844-4.640624-1.765626-7.171874.820313-2.535157 3.011719-4.382813 5.644532-4.765626l21.09375-3.066406 9.425781-19.109375c1.179687-2.390625 3.613281-3.90625 6.28125-3.90625 2.664063 0 5.097656 1.515625 6.277344 3.90625l9.429687 19.109375 21.089844 3.066406c2.636719.382813 4.828125 2.226563 5.652344 4.761719.820312 2.535157.136718 5.316407-1.773438 7.175781l-15.257812 14.875 3.597656 21.003907c.449219 2.628906-.628906 5.28125-2.785156 6.847656-2.152344 1.566406-5.011719 1.773437-7.371094.535156l-18.863281-9.917969-18.84375 9.914063c-2.359375 1.238281-5.214844 1.03125-7.371094-.535156-2.15625-1.566407-3.234375-4.21875-2.785156-6.847657l3.601562-21.003906zm19.929687-.125 7.757813 7.542969c1.644531 1.609375 2.390624 3.925781 2 6.195313l-1.828126 10.652344 9.570313-5.027344c2.039063-1.074219 4.476563-1.074219 6.515625 0l9.566406 5.027344-1.824218-10.652344c-.394532-2.269532.355468-4.585938 2-6.195313l7.742187-7.546875-10.699219-1.554687c-2.277344-.332031-4.246094-1.765625-5.265625-3.832031l-4.800781-9.691407-4.800781 9.691407c-1.019531 2.066406-2.988281 3.5-5.265625 3.832031zm0 0" fill="#002d42"/></svg>