<svg height="477pt" viewBox="0 -61 477.19362 477" width="477pt" xmlns="http://www.w3.org/2000/svg"><path d="m230.328125 7.097656c-50.351563-.0625-98.652344 19.945313-134.207031 55.601563l22.339844 22.371093h.035156l44.714844 44.710938c27.148437-27.144531 67.980468-35.265625 103.449218-20.566406 35.472656 14.695312 58.59375 49.3125 58.589844 87.707031v79.511719h94.882812v-79.511719h.035157c0-104.84375-84.996094-189.832031-189.839844-189.824219zm0 0" fill="#b41d6c"/><path d="m217.066406 101.980469c-21.9375-.023438-43.203125 7.578125-60.152344 21.503906l6.296876 6.296875c16.175781-16.183594 37.660156-25.964844 60.488281-27.539062-2.195313-.15625-4.402344-.261719-6.632813-.261719zm0 0" fill="#93134a"/><path d="m230.328125 7.097656c-2.222656 0-4.425781.09375-6.632813.167969 102.183594 3.546875 183.195313 87.40625 183.210938 189.65625h-.035156v79.511719h13.261718v-79.511719h.035157c0-104.84375-84.996094-189.832031-189.839844-189.824219zm0 0" fill="#93134a"/><path d="m230.328125 38.726562c-41.957031-.050781-82.207031 16.628907-111.832031 46.34375l44.714844 44.710938c27.148437-27.144531 67.980468-35.265625 103.449218-20.566406 35.472656 14.695312 58.59375 49.3125 58.589844 87.707031v79.511719h63.253906v-79.511719c.019532-87.367187-70.804687-158.203125-158.175781-158.195313zm0 0" fill="#ff414d"/><path d="m230.328125 38.726562c-2 0-3.972656.074219-5.953125.152344 84.976562 3.1875 152.21875 73.003906 152.210938 158.042969v79.511719h11.910156v-79.511719c.019531-87.367187-70.800782-158.199219-158.167969-158.195313zm0 0" fill="#d8283f"/><path d="m218.417969 101.980469c-22.269531-.015625-43.832031 7.824219-60.886719 22.140625l5.679688 5.679687c16.335937-16.351562 38.089843-26.167969 61.164062-27.597656-1.972656-.136719-3.957031-.222656-5.957031-.222656zm0 0" fill="#d8283f"/><path d="m230.328125 70.355469c-33.570313-.046875-65.777344 13.285156-89.496094 37.050781l22.375 22.371094c27.148438-27.148438 67.984375-35.269532 103.453125-20.570313 35.472656 14.699219 58.597656 49.316407 58.589844 87.714844v79.511719h31.628906v-79.511719c.007813-69.898437-56.652344-126.566406-126.550781-126.566406zm0 0" fill="#fabe02"/><path d="m220.058594 101.980469c-22.667969-.015625-44.585938 8.101562-61.769532 22.882812l4.917969 4.914063c16.539063-16.558594 38.625-26.410156 62-27.65625-1.714843-.085938-3.421875-.140625-5.148437-.140625zm0 0" fill="#f59a1d"/><path d="m230.328125 70.355469c-1.722656 0-3.429687.058593-5.136719.125 67.835938 2.75 121.417969 58.546875 121.414063 126.441406v79.511719h10.273437v-79.511719c.007813-69.898437-56.652344-126.566406-126.550781-126.566406zm0 0" fill="#f59a1d"/><path d="m40.808594 84.15625c6.242187.003906 12.363281 1.742188 17.671875 5.027344 6.128906-23.074219 27.757812-38.554688 51.574219-36.917969 23.816406 1.640625 43.121093 19.941406 46.027343 43.636719 10.636719-2.609375 21.824219 1.140625 28.746094 9.628906 6.917969 8.492188 8.332031 20.207031 3.628906 30.097656-4.699219 9.894532-14.675781 16.195313-25.628906 16.191406h-122c-18.683594 0-33.832031-15.144531-33.832031-33.832031 0-18.683593 15.148437-33.832031 33.832031-33.832031zm0 0" fill="#d9ecf2"/><path d="m162.816406 95.0625c-2.273437.007812-4.539062.289062-6.746094.839844-1.6875-13.988282-9.234374-26.597656-20.761718-34.699219-11.527344-8.097656-25.953125-10.921875-39.683594-7.765625 20.492188 4.628906 35.882812 21.613281 38.46875 42.464844 10.636719-2.609375 21.824219 1.140625 28.746094 9.628906 6.917968 8.492188 8.332031 20.207031 3.628906 30.097656-4.699219 9.894532-14.675781 16.195313-25.628906 16.191406h21.976562c15.261719-.570312 27.335938-13.109374 27.335938-28.378906 0-15.269531-12.074219-27.808594-27.335938-28.378906zm0 0" fill="#bdd9e5"/><path d="m66.753906 72.203125c-3.820312 5.078125-6.625 10.84375-8.269531 16.984375 12.699219 7.632812 12.699219 23.550781 12.699219 23.550781s4.488281-23.097656-4.429688-40.535156zm0 0" fill="#bdd9e5"/><path d="m294.796875 268.628906c7.28125 0 14.417969 2.03125 20.613281 5.859375 7.15625-26.894531 32.378906-44.941406 60.144532-43.027343 27.765624 1.914062 50.273437 23.246093 53.675781 50.867187 12.414062-3.070313 25.488281 1.289063 33.574219 11.199219 8.085937 9.910156 9.738281 23.589844 4.242187 35.140625-5.5 11.546875-17.160156 18.890625-29.949219 18.863281h-142.300781c-21.636719-.21875-39.0625-17.820312-39.0625-39.460938 0-21.636718 17.425781-39.238281 39.0625-39.457031zm0 0" fill="#d9ecf2"/><path d="m437.09375 281.347656c-2.652344.007813-5.292969.335938-7.867188.976563-1.972656-16.328125-10.792968-31.046875-24.257812-40.492188-13.464844-9.441406-30.308594-12.71875-46.332031-9.011719 23.871093 5.421876 41.785156 25.21875 44.800781 49.507813 12.414062-3.070313 25.488281 1.289063 33.574219 11.199219 8.089843 9.910156 9.738281 23.589844 4.242187 35.140625-5.496094 11.546875-17.160156 18.890625-29.949218 18.863281h25.804687c18.28125 0 33.101563-14.820312 33.101563-33.101562s-14.820313-33.101563-33.101563-33.101563zm0 0" fill="#bdd9e5"/><path d="m327.691406 251.417969c-5.800781 6.65625-10 14.546875-12.28125 23.070312 14.800782 8.90625 14.800782 27.46875 14.800782 27.46875 3.820312-16.757812 2.945312-34.246093-2.519532-50.539062zm0 0" fill="#bdd9e5"/><path d="m203.898438 219.699219c-4.730469 0-9.367188 1.320312-13.394532 3.804687-4.648437-17.472656-21.035156-29.195312-39.074218-27.957031-18.039063 1.242187-32.667969 15.105469-34.875 33.050781-8.058594-1.972656-16.535157.871094-21.777344 7.304688-5.238282 6.429687-6.308594 15.304687-2.75 22.800781 3.5625 7.492187 11.117187 12.269531 19.414062 12.269531h92.457032c14.160156 0 25.636718-11.476562 25.636718-25.636718 0-14.160157-11.476562-25.636719-25.636718-25.636719zm0 0" fill="#d9ecf2"/><path d="m189.308594 219.859375c-.050782-.136719-.113282-.265625-.167969-.402344-.050781-.136719-.109375-.367187-.183594-.539062-.023437-.058594-.070312-.082031-.101562-.136719-6.621094-16.238281-23.625-25.714844-40.917969-22.800781 9.4375 1.847656 17.847656 7.136719 23.601562 14.839843 4.855469 6.625 7.667969 14.523438 8.089844 22.726563.199219 2.632813.621094 5.242187 1.261719 7.804687.152344-7.152343 3.734375-13.789062 9.621094-17.847656-.34375-1.230468-.75-2.445312-1.222657-3.632812zm0 0" fill="#bdd9e5"/><path d="m203.898438 219.699219c-2.058594.015625-4.105469.285156-6.097657.796875 12.558594 3.140625 20.804688 15.148437 19.222657 27.996094-1.582032 12.84375-12.5 22.496093-25.441407 22.488281h12.316407c14.160156 0 25.636718-11.476563 25.636718-25.636719s-11.476562-25.636719-25.636718-25.636719zm0 0" fill="#bdd9e5"/><path d="m184.339844 12.574219c-.792969-3.785157 1.632812-7.496094 5.417968-8.289063 100.5-21.054687 200.332032 38.566406 229.445313 137.035156.769531 2.421876.171875 5.066407-1.566406 6.917969-1.738281 1.851563-4.339844 2.617188-6.804688 2-2.460937-.613281-4.398437-2.515625-5.058593-4.96875-27.054688-91.464843-119.785157-146.839843-213.140626-127.28125-3.785156.796875-7.5-1.628906-8.292968-5.414062zm235.84375 191.328125c3.867187 0 7-3.132813 7-7 0-8.730469-.570313-17.449219-1.714844-26.101563-.507812-3.832031-4.027344-6.527343-7.859375-6.019531s-6.527344 4.027344-6.019531 7.859375c1.042968 7.882813 1.578125 15.820313 1.601562 23.769531v.492188c.007813 3.859375 3.132813 6.988281 6.992188 7zm-278.75-45.082032c3.867187 0 7-3.132812 7-7 0-3.863281-3.132813-7-7-7h-11.769532c-3.863281 0-7 3.136719-7 7 0 3.867188 3.136719 7 7 7zm335.761718 155.625c-.027343 22.136719-17.964843 40.078126-40.101562 40.101563h-142.296875c-19.589844-.003906-37.074219-12.296875-43.707031-30.730469-6.632813-18.433594-.992188-39.050781 14.109375-51.535156 2.980469-2.464844 7.394531-2.042969 9.859375.9375 2.464844 2.984375 2.046875 7.398438-.9375 9.863281-10.550782 8.722657-14.496094 23.125-9.863282 36.007813 4.632813 12.878906 16.851563 21.46875 30.539063 21.472656h142.300781c10.109375.054688 19.339844-5.734375 23.695313-14.859375 4.351562-9.125 3.046875-19.941406-3.351563-27.765625-6.402344-7.824219-16.746094-11.25-26.550781-8.792969-1.945313.472657-3.996094.09375-5.640625-1.042969-1.644531-1.136718-2.726562-2.921874-2.96875-4.90625-.9375-7.738281-3.648438-15.152343-7.914062-21.671874l-.070313-.105469c-10.589844-16.144531-29.378906-24.941407-48.5625-22.738281-19.183594 2.207031-35.484375 15.039062-42.136719 33.167968 8.402344 7.804688 13.3125 18.660156 13.628906 30.121094 0 3.867188-3.136718 7-7 7-3.867187 0-7-3.132812-7-7 0-.109375-.289062-14.773438-11.417968-21.46875l-.035156-.027344h-.023438c-5.09375-3.144531-10.960938-4.8125-16.949219-4.824218-3.867187 0-7-3.132813-7-7 0-3.863282 3.132813-7 7-7 5.65625.003906 11.257813 1.046874 16.535157 3.074218 1.828124-4.457031 4.148437-8.695312 6.917968-12.636718v-55.164063c.023438-23.324219-9.234375-45.703125-25.726562-62.195313-16.492188-16.492187-38.867188-25.75-62.195313-25.726562-11.339843-.015625-22.570312 2.179688-33.070312 6.464844 2.480469 10.511718.007812 21.578125-6.707031 30.035156-6.714844 8.457031-16.933594 13.375-27.734376 13.339844-3.863281 0-7-3.132813-7-7 0-3.863282 3.136719-7 7-7 8.28125.042968 15.839844-4.699219 19.402344-12.171875 3.566406-7.472657 2.496094-16.332031-2.742187-22.738281-5.242188-6.410157-13.710938-9.21875-21.742188-7.207032-1.945312.472656-3.996093.09375-5.644531-1.042968-1.644531-1.136719-2.726562-2.925782-2.96875-4.910157-2.394531-19.496093-17.757812-34.859375-37.253906-37.257812-19.496094-2.398438-38.121094 8.785156-45.171875 27.117187 7.085937 6.878906 11.207031 16.25 11.484375 26.121094 0 3.867188-3.132813 7-7 7-3.863282 0-7-3.132812-7-7 0-.082031-.257813-12.113281-9.300782-17.546875l-.035156-.023437h-.027344c-9.679687-5.910157-22.03125-5.085938-30.839843 2.058593-8.8125 7.144531-12.167969 19.058594-8.386719 29.753907 3.78125 10.691406 13.886719 17.84375 25.226562 17.863281h68.652344c3.867188 0 7 3.132812 7 7 0 3.863281-3.132812 7-7 7h-68.664062c-16.25-.011719-30.945313-9.652344-37.425782-24.554688-6.476562-14.90625-3.5-32.230469 7.578126-44.117187 11.078124-11.886719 28.152343-16.074219 43.472656-10.660156 8.753906-20.257813 28.4375-33.617188 50.492187-34.28125.03125-.023438.050781-.054688.082031-.085938 17.503907-14.492188 37.390626-25.835938 58.777344-33.515625 3.640625-1.308594 7.648438.582031 8.957032 4.222656 1.308593 3.636719-.582032 7.648438-4.21875 8.953125-15.738282 5.664063-30.613282 13.46875-44.214844 23.203125 6.371094 2.078125 12.320312 5.269531 17.578125 9.421875 50.863281-32.289062 115.277343-34.3125 168.066406-5.277344 52.789063 29.03125 85.578125 84.511719 85.550781 144.757813v32.046875c6.390625 2.535156 12.339844 6.0625 17.628906 10.453125v-15.921875c0-3.863281 3.132813-7 7-7 3.867188 0 7 3.136719 7 7v32.089844c3.570313 5.816406 6.199219 12.160156 7.78125 18.800781 11.003907-.617187 21.777344 3.328125 29.777344 10.910156 8.003906 7.578125 12.523438 18.121094 12.503906 29.144531zm-105.628906-90.121093c3.328125.011719 6.652344.28125 9.9375.800781v-28.203125c.046875-54.613281-29.386718-104.996094-76.984375-131.773437-47.59375-26.777344-105.9375-25.777344-152.589843 2.613281 3.578124 4.707031 6.394531 9.949219 8.347656 15.53125 55.328125-34.191407 127.246094-23.5 170.230468 25.3125 2.542969 2.902343 2.257813 7.3125-.632812 9.863281-2.894531 2.550781-7.304688 2.28125-9.867188-.601562-36.125-41.042969-95.507812-52.308594-144.152343-27.34375 6.246093 2.496093 11.65625 6.71875 15.597656 12.175781 12.324219-5.121094 25.542969-7.746094 38.886719-7.730469 27.042968-.019531 52.984375 10.714844 72.101562 29.839844 19.117188 19.128906 29.839844 45.070312 29.808594 72.113281v40.667969c5.351562-4.054688 11.296875-7.257813 17.628906-9.496094v-31.171875c.011719-20.914063-5.464844-41.464844-15.886718-59.601563-1.835938-3.339843-.660157-7.53125 2.640624-9.4375 3.300782-1.902343 7.519532-.8125 9.488282 2.449219 11.644531 20.261719 17.769531 43.222657 17.757812 66.589844v27.925781c2.546875-.328125 5.117188-.5 7.6875-.523437zm-217.550781-35.863281c17.3125.007812 33.070313 9.988281 40.472656 25.636718 12.261719-3.695312 25.546875.121094 33.980469 9.761719 8.429688 9.636719 10.441406 23.3125 5.148438 34.972656-5.292969 11.660157-16.914063 19.144531-29.71875 19.140625h-92.457032c-15.742187.128906-28.609375-12.535156-28.734375-28.277344-.125-15.742187 12.535157-28.609374 28.277344-28.734374 5.488281-19.21875 23.046875-32.476563 43.03125-32.5zm-33.484375 45.898437c-1.648438 1.136719-3.703125 1.515625-5.648438 1.039063-1.128906-.285157-2.285156-.433594-3.445312-.4375-8.011719 0-14.507812 6.496093-14.507812 14.507812s6.496093 14.503906 14.507812 14.503906h92.460938c7.902343.023438 14.964843-4.941406 17.613281-12.390625 2.648437-7.449219.308593-15.757812-5.835938-20.730469-6.144531-4.972656-14.757812-5.527343-21.492187-1.386718h-.023438l-.035156.027344c-3.800781 2.769531-6.101562 7.144531-6.230469 11.84375 0 3.867187-3.136719 7-7 7-3.867187 0-7-3.132813-7-7 .226563-7.53125 3.203125-14.722657 8.367188-20.214844-5.445313-12.785156-18.800781-20.320313-32.5625-18.375-13.761719 1.949218-24.5 12.890625-26.1875 26.6875-.242188 1.992187-1.328125 3.785156-2.980469 4.925781zm0 0" fill="#002d42"/></svg>