<svg height="461pt" viewBox="0 -45 461.72 461" width="461pt" xmlns="http://www.w3.org/2000/svg"><path d="m95.0625 338.664062c-.175781 14.40625-11.90625 25.992188-26.316406 25.992188s-26.140625-11.585938-26.316406-25.992188c0-14.539062 26.316406-52.5625 26.316406-52.5625s26.316406 38.027344 26.316406 52.5625zm0 0" fill="#26a3b9"/><path d="m183.925781 252.179688c.113281 9.476562-4.875 18.289062-13.066406 23.0625-8.191406 4.773437-18.316406 4.773437-26.507813 0-8.191406-4.773438-13.179687-13.585938-13.0625-23.0625 0-14.539063 26.320313-52.5625 26.320313-52.5625s26.316406 38.035156 26.316406 52.5625zm0 0" fill="#26a3b9"/><path d="m257.179688 338.664062c-.175782 14.40625-11.90625 25.992188-26.316407 25.992188-14.410156 0-26.140625-11.585938-26.320312-25.992188 0-14.539062 26.320312-52.5625 26.320312-52.5625s26.316407 38.027344 26.316407 52.5625zm0 0" fill="#26a3b9"/><path d="m346.058594 252.179688c-.175782 14.40625-11.90625 25.992187-26.316406 25.992187-14.410157 0-26.140626-11.585937-26.316407-25.992187 0-14.539063 26.316407-52.5625 26.316407-52.5625s26.316406 38.035156 26.316406 52.5625zm0 0" fill="#26a3b9"/><path d="m132.972656 244.125h49.265625c-5.746093-17.175781-24.628906-44.5-24.628906-44.5s-18.890625 27.328125-24.636719 44.5zm0 0" fill="#168aa5"/><path d="m344.355469 244.125c-5.746094-17.175781-24.632813-44.5-24.632813-44.5s-18.886718 27.324219-24.628906 44.5zm0 0" fill="#168aa5"/><path d="m419.296875 338.664062c-.179687 14.40625-11.910156 25.992188-26.320313 25.992188-14.40625 0-26.140624-11.585938-26.316406-25.992188 0-14.539062 26.320313-52.5625 26.320313-52.5625s26.316406 38.027344 26.316406 52.5625zm0 0" fill="#26a3b9"/><g fill="#168aa5"><path d="m68.742188 286.101562s-2.566407 3.710938-6.101563 9.261719c7.773437 12.207031 20.21875 33.308594 20.21875 43.300781-.003906 12.175782-8.367187 22.757813-20.214844 25.578126 7.832031 1.902343 16.105469.09375 22.4375-4.898438 6.328125-4.992188 10.007813-12.621094 9.980469-20.679688 0-14.535156-26.320312-52.5625-26.320312-52.5625zm0 0"/><path d="m157.609375 199.628906s-2.570313 3.714844-6.105469 9.261719c7.757813 12.207031 20.214844 33.289063 20.214844 43.289063.003906 12.183593-8.359375 22.777343-20.214844 25.597656 7.835938 1.902344 16.113282.09375 22.445313-4.902344 6.328125-5 10.007812-12.632812 9.976562-20.695312 0-14.523438-26.316406-52.550782-26.316406-52.550782zm0 0"/><path d="m230.859375 286.101562s-2.566406 3.710938-6.101563 9.261719c7.773438 12.207031 20.214844 33.308594 20.214844 43.300781-.007812 12.175782-8.371094 22.757813-20.214844 25.578126 7.832032 1.902343 16.105469.09375 22.433594-4.898438 6.332032-4.992188 10.011719-12.621094 9.984375-20.679688.003907-14.535156-26.316406-52.5625-26.316406-52.5625zm0 0"/><path d="m319.71875 199.628906s-2.566406 3.714844-6.101562 9.261719c7.777343 12.207031 20.21875 33.289063 20.21875 43.289063.003906 12.183593-8.363282 22.777343-20.214844 25.597656 7.839844 1.910156 16.121094.105468 22.457031-4.894532s10.015625-12.636718 9.980469-20.703124c0-14.523438-26.339844-52.550782-26.339844-52.550782zm0 0"/><path d="m392.976562 286.101562s-2.570312 3.710938-6.105468 9.261719c7.777344 12.207031 20.21875 33.308594 20.21875 43.300781-.007813 12.179688-8.378906 22.761719-20.230469 25.578126 7.835937 1.902343 16.109375.09375 22.4375-4.898438s10.011719-12.621094 9.984375-20.679688c.015625-14.535156-26.304688-52.5625-26.304688-52.5625zm0 0"/></g><path d="m374.730469 68.78125c-11.972657.011719-23.792969 2.726562-34.570313 7.941406-17.378906-43.164062-59.898437-70.851562-106.402344-69.289062-46.503906 1.5625-87.066406 32.039062-101.511718 76.273437-27.289063.0625-52.230469 15.453125-64.527344 39.820313-19.625-2.929688-39.238281 5.367187-50.804688 21.488281-11.5625 16.125-13.136718 37.363281-4.070312 55.011719 9.066406 17.652344 27.246094 28.742187 47.089844 28.734375h314.796875c43.636719-.753907 78.617187-36.34375 78.617187-79.988281 0-43.640626-34.980468-79.230469-78.617187-79.988282zm0 0" fill="#d9ecf2"/><path d="m313.144531 87.675781c7.96875-5.816406 17.246094-9.578125 27.015625-10.949219-1.332031-3.347656-2.496094-5.71875-3.460937-7.695312-21.125-43.085938-67.714844-67.539062-115.175781-60.453125 39.40625 5.785156 78.917968 38.945313 91.621093 79.097656zm0 0" fill="#bdd9e5"/><path d="m374.730469 68.78125c-5.34375.007812-10.675781.5625-15.910157 1.652344 40.140626 8.347656 67.472657 45.695312 63.292969 86.480468-4.179687 40.789063-38.519531 71.8125-79.519531 71.84375h32.136719c43.636719-.753906 78.617187-36.34375 78.617187-79.988281 0-43.640625-34.980468-79.230469-78.617187-79.988281zm0 0" fill="#bdd9e5"/><path d="m110.515625 87.113281c2.550781 18.59375 12.605469 35.335938 27.824219 46.320313 0 0-15.941406-19.683594-6.085938-49.726563-7.378906.019531-14.710937 1.167969-21.738281 3.40625zm0 0" fill="#bdd9e5"/><path d="m59.9375 122.890625c-3.1875.011719-6.367188.3125-9.5.894531 1.4375 11.101563 6.007812 21.5625 13.171875 30.160156 0 0-2.519531-17.371093 4.113281-30.398437-2.574218-.410156-5.179687-.628906-7.785156-.65625zm0 0" fill="#bdd9e5"/><path d="m62.988281 282.117188c-4.605469 6.652343-27.5625 40.628906-27.5625 56.550781-.132812 11.988281 6.1875 23.125 16.550781 29.15625 10.363282 6.035156 23.167969 6.035156 33.53125 0 10.363282-6.03125 16.683594-17.167969 16.550782-29.15625 0-15.917969-22.957032-49.898438-27.5625-56.550781-1.375-1.785157-3.5-2.828126-5.753906-2.828126-2.253907 0-4.378907 1.042969-5.753907 2.828126zm5.753907 75.863281c-10.664063-.007813-19.308594-8.652344-19.316407-19.316407 0-7.023437 10-25.277343 19.316407-39.90625 9.335937 14.621094 19.316406 32.875 19.316406 39.90625-.007813 10.664063-8.652344 19.304688-19.316406 19.316407zm128.800781-19.316407c0-15.917968 22.960937-49.898437 27.566406-56.550781 1.304687-1.886719 3.457031-3.015625 5.753906-3.015625s4.449219 1.128906 5.757813 3.015625c.195312.285157 4.890625 7.085938 10.375 16.113281 1.304687 2.136719 1.367187 4.808594.164062 7.007813s-3.488281 3.585937-5.992187 3.636719c-2.503907.054687-4.84375-1.234375-6.140625-3.382813-1.472656-2.421875-2.890625-4.695312-4.175782-6.707031-9.332031 14.621094-19.304687 32.859375-19.304687 39.875-.097656 6.96875 3.5625 13.453125 9.578125 16.964844 6.019531 3.511718 13.464844 3.511718 19.480469 0 6.019531-3.511719 9.679687-9.996094 9.578125-16.964844-.519532-4.4375-1.886719-8.738281-4.027344-12.660156-1.601562-3.519532-.046875-7.671875 3.472656-9.273438 3.519532-1.597656 7.671875-.042968 9.269532 3.476563 2.992187 5.730469 4.789062 12.011719 5.285156 18.457031.132812 11.992188-6.191406 23.128906-16.550782 29.160156-10.363281 6.035156-23.167968 6.035156-33.53125 0-10.363281-6.03125-16.683593-17.167968-16.554687-29.160156zm201.199219-56.550781c-1.375-1.785156-3.5-2.832031-5.753907-2.832031-2.253906 0-4.382812 1.046875-5.757812 2.832031-4.601563 6.652344-27.5625 40.628907-27.5625 56.550781-.132813 11.988282 6.191406 23.125 16.554687 29.15625 10.359375 6.035157 23.164063 6.035157 33.527344 0 10.363281-6.03125 16.683594-17.167968 16.554688-29.15625-.011719-15.917968-22.96875-49.898437-27.574219-56.546874zm-5.753907 75.863281c-10.664062-.007812-19.308593-8.652343-19.320312-19.320312 0-7.019531 10-25.273438 19.320312-39.902344 9.335938 14.621094 19.316407 32.875 19.316407 39.902344-.007813 10.671875-8.660157 19.320312-19.328126 19.324219zm-229.328125-322.664062c-2.390625-3.039062-1.863281-7.441406 1.175782-9.832031 2.832031-2.226563 5.816406-4.355469 8.863281-6.328125 3.238281-1.976563 7.464843-1.011719 9.527343 2.175781s1.207032 7.433594-1.925781 9.578125c-2.6875 1.738281-5.320312 3.601562-7.816406 5.601562-3.039063 2.386719-7.441406 1.859376-9.832031-1.175781zm211.070313 26.464844c-10.585938-.007813-21.078125 1.941406-30.953125 5.757812-26.242188-55.144531-90.273438-81.085937-147.496094-59.757812-3.621094 1.355468-5.457031 5.390625-4.101562 9.011718 1.355468 3.621094 5.386718 5.457032 9.007812 4.101563 52.703125-19.632813 111.449219 6.289063 132.472656 58.453125.722656 1.792969 2.15625 3.207031 3.960938 3.90625 1.804687.699219 3.820312.621094 5.5625-.214844 9.832031-4.773437 20.617187-7.253906 31.546875-7.257812 40.3125 0 72.988281 32.679687 72.988281 72.988281 0 40.3125-32.675781 72.988281-72.988281 72.988281h-272.316407c-3.863281 0-7 3.132813-7 7 0 3.867188 3.136719 7 7 7h26.277344c-2.523437 5.136719-4.019531 10.71875-4.398437 16.433594.199219 18.257812 15.058593 32.953125 33.316406 32.953125 18.261719 0 33.117187-14.695313 33.320313-32.953125-.382813-5.714844-1.875-11.296875-4.402344-16.433594h104.28125c-2.523438 5.136719-4.019532 10.71875-4.402344 16.433594.203125 18.257812 15.058594 32.953125 33.320312 32.953125 18.257813 0 33.117188-14.695313 33.316407-32.953125 0-3.867188-3.132813-7-7-7-3.863281 0-7 3.132812-7 7-.152344 10.558594-8.753907 19.039062-19.316407 19.039062s-19.167968-8.480468-19.320312-19.039062c0-1.488281.652344-5.953125 5.847656-16.433594h68.476563c48.042969 0 86.988281-38.945312 86.988281-86.988281s-38.945312-86.988281-86.988281-86.988281zm-197.804688 190.402344c-.152343 10.558593-8.757812 19.039062-19.320312 19.039062s-19.164063-8.480469-19.316407-19.039062c0-1.488282.652344-5.957032 5.84375-16.433594h26.953126c5.191406 10.492187 5.839843 14.957031 5.839843 16.433594zm-176.925781-76.355469c.0546875-25.152344 15.753906-47.613281 39.359375-56.304688 2.363281-.921875 5.042969-.492187 6.996094 1.121094 1.957031 1.617187 2.886719 4.164063 2.429687 6.65625-.453125 2.496094-2.222656 4.550781-4.625 5.371094-20.957031 7.632812-33.402344 29.214843-29.511718 51.175781 3.886718 21.960938 22.984374 37.957031 45.289062 37.933594h16.597656c3.867188 0 7 3.136718 7 7 0 3.867187-3.132812 7-7 7h-16.597656c-33.09375-.035156-59.9101562-26.859375-59.9375-59.953125zm73.960938-49.125c-5.511719 10.847656-3.445313 26.101562-3.425782 26.253906.519532 3.8125-2.128906 7.328125-5.933594 7.875-3.808593.550781-7.34375-2.074219-7.921874-5.875-.117188-.800781-2.75-19.726563 4.800781-34.582031 12.628906-25.152344 37.65625-41.707032 65.742187-43.496094 4.578125-12.261719 11.175782-23.667969 19.523438-33.746094 2.464844-2.980468 6.878906-3.402344 9.859375-.941406 2.984375 2.460938 3.40625 6.875.941406 9.859375-8.285156 10-14.609375 21.480469-18.636719 33.832031-8.566406 26.117188 4.746094 42.972656 4.878906 43.140625 2.285157 3.011719 1.765626 7.296875-1.175781 9.671875-2.9375 2.378906-7.238281 1.992188-9.707031-.875-9.503906-13.492187-13.027344-30.304687-9.746094-46.480468-21.203125 2.992187-39.589844 16.195312-49.199218 35.332031zm300.765624-22.800781c-3.863281 0-7-3.132813-7-7 0-3.867188 3.136719-7 7-7 32.511719.039062 58.855469 26.382812 58.894532 58.890624 0 3.867188-3.136719 7-7 7-3.867188 0-7-3.132812-7-7-.019532-24.785156-20.101563-44.878906-44.890625-44.910156zm0 0" fill="#002d42"/></svg>