<svg height="465pt" viewBox="0 -40 465.688 465" width="465pt" xmlns="http://www.w3.org/2000/svg"><path d="m264.671875 195.390625c0 17.582031-14.253906 31.835937-31.832031 31.835937-17.582032 0-31.835938-14.253906-31.835938-31.835937.003906-17.578125 31.835938-63.574219 31.835938-63.574219s31.832031 45.996094 31.832031 63.574219zm-206.15625-63.574219s-31.832031 46-31.832031 63.574219c0 17.582031 14.253906 31.835937 31.835937 31.835937 17.578125 0 31.832031-14.253906 31.832031-31.835937-.003906-17.578125-31.835937-63.574219-31.835937-63.574219zm348.648437 0s-31.832031 46-31.832031 63.574219c0 17.582031 14.253907 31.835937 31.832031 31.835937 17.582032 0 31.835938-14.253906 31.835938-31.835937-.003906-17.578125-31.835938-63.574219-31.835938-63.574219zm-267.285156-124.464844s-31.839844 45.992188-31.839844 63.574219 14.253907 31.832031 31.835938 31.832031 31.832031-14.25 31.832031-31.832031c.007813-17.582031-31.828125-63.574219-31.828125-63.574219zm185.921875 0s-31.832031 46-31.832031 63.578126c0 17.582031 14.25 31.832031 31.832031 31.832031s31.835938-14.25 31.835938-31.832031c.003906-17.585938-31.835938-63.578126-31.835938-63.578126zm0 0" fill="#26a3b9"/><g fill="#168aa5"><path d="m222.992188 146.9375c9.351562 15.023438 22 37.378906 22 48.453125-.003907 13.789063-8.886719 26.007813-22 30.265625 9.691406 3.164062 20.3125 1.492188 28.5625-4.5 8.246093-5.988281 13.125-15.570312 13.117187-25.765625 0-17.578125-31.832031-63.574219-31.832031-63.574219s-4.359375 6.300782-9.847656 15.121094zm0 0"/><path d="m48.671875 146.9375c9.351563 15.023438 22 37.375 22 48.453125-.003906 13.789063-8.886719 26.007813-22 30.265625 9.691406 3.164062 20.3125 1.492188 28.5625-4.5 8.246094-5.988281 13.125-15.570312 13.117187-25.765625 0-17.597656-31.832031-63.574219-31.832031-63.574219s-4.359375 6.300782-9.847656 15.121094zm0 0"/><path d="m130.039062 22.46875c9.351563 15.023438 22 37.378906 22 48.457031-.003906 13.785157-8.886718 26.003907-22 30.261719 9.691407 3.164062 20.3125 1.492188 28.5625-4.496094 8.25-5.992187 13.128907-15.574218 13.117188-25.765625 0-17.601562-31.832031-63.578125-31.832031-63.578125s-4.363281 6.300782-9.847657 15.121094zm0 0"/><path d="m325.800781 7.351562s-4.359375 6.300782-9.847656 15.121094c9.351563 15.023438 22 37.378906 22 48.457032-.007813 13.785156-8.886719 26.003906-22 30.261718 9.691406 3.167969 20.316406 1.496094 28.566406-4.496094 8.253907-5.988281 13.132813-15.574218 13.121094-25.769531 0-17.582031-31.839844-63.574219-31.839844-63.574219zm0 0"/><path d="m407.164062 131.816406s-4.359374 6.300782-9.847656 15.121094c9.351563 15.023438 22 37.375 22 48.453125-.003906 13.789063-8.886718 26.007813-22 30.265625 9.691406 3.164062 20.3125 1.492188 28.558594-4.5 8.25-5.988281 13.128906-15.570312 13.121094-25.765625 0-17.578125-31.832032-63.574219-31.832032-63.574219zm0 0"/></g><path d="m167.421875 351.878906h183.878906c7.199219 0 13.039063 5.839844 13.039063 13.042969 0 7.199219-5.839844 13.039063-13.039063 13.039063h-183.878906c-7.203125 0-13.042969-5.839844-13.042969-13.039063 0-7.203125 5.839844-13.042969 13.042969-13.042969zm160.992187-52.726562c0 7.203125 5.839844 13.039062 13.042969 13.039062h51.335938c7.199219 0 13.039062-5.835937 13.039062-13.039062s-5.839843-13.039063-13.039062-13.039063h-51.339844c-7.203125 0-13.039063 5.839844-13.039063 13.039063zm-264.675781 0c0 7.203125 5.839844 13.039062 13.042969 13.039062h210.664062c7.199219 0 13.039063-5.835937 13.039063-13.039062s-5.839844-13.039063-13.039063-13.039063h-210.667968c-7.203125 0-13.042969 5.835938-13.042969 13.039063zm-56.746093 65.769531c0 7.199219 5.839843 13.039063 13.039062 13.039063h92.601562c7.199219 0 13.039063-5.839844 13.039063-13.039063 0-7.203125-5.839844-13.042969-13.039063-13.042969h-92.59375c-7.203124-.003906-13.046874 5.835938-13.046874 13.042969zm385.796874 0c0 7.199219 5.835938 13.039063 13.039063 13.039063h39.8125c7.199219 0 13.039063-5.839844 13.039063-13.039063 0-7.203125-5.839844-13.042969-13.039063-13.042969h-39.820313c-7.199218.007813-13.03125 5.84375-13.03125 13.042969zm0 0" fill="#d9ecf2"/><path d="m386.136719 299.15625c0 7.203125-5.839844 13.039062-13.039063 13.039062h19.691406c7.199219 0 13.039063-5.835937 13.039063-13.039062s-5.839844-13.039062-13.039063-13.039062h-19.691406c7.199219 0 13.039063 5.835937 13.039063 13.039062zm0 0" fill="#bdd9e5"/><path d="m280.792969 299.15625c0 7.203125-5.839844 13.039062-13.039063 13.039062h19.691406c7.199219 0 13.039063-5.835937 13.039063-13.039062s-5.839844-13.039062-13.039063-13.039062h-19.691406c7.199219 0 13.039063 5.835937 13.039063 13.039062zm0 0" fill="#bdd9e5"/><path d="m445.640625 351.878906h-19.691406c7.199219 0 13.039062 5.839844 13.039062 13.042969 0 7.199219-5.839843 13.039063-13.039062 13.039063h19.691406c7.199219 0 13.039063-5.839844 13.039063-13.039063 0-7.203125-5.839844-13.042969-13.039063-13.042969zm0 0" fill="#bdd9e5"/><path d="m351.300781 351.878906h-19.695312c7.199219 0 13.039062 5.839844 13.039062 13.042969 0 7.199219-5.839843 13.039063-13.039062 13.039063h19.691406c7.199219 0 13.039063-5.839844 13.039063-13.039063 0-7.203125-5.839844-13.042969-13.039063-13.042969zm0 0" fill="#bdd9e5"/><path d="m112.632812 351.878906h-19.691406c7.199219 0 13.039063 5.839844 13.039063 13.042969 0 7.199219-5.839844 13.039063-13.039063 13.039063h19.691406c7.199219 0 13.039063-5.839844 13.039063-13.039063 0-7.203125-5.839844-13.042969-13.039063-13.042969zm0 0" fill="#bdd9e5"/><path d="m257.671875 195.390625c0-9.507813-13.511719-33.480469-24.832031-50.96875-11.320313 17.488281-24.832032 41.460937-24.832032 50.96875 0 3.867187-3.132812 7-7 7-3.867187 0-7-3.132813-7-7 0-18.796875 27.554688-59.578125 33.082032-67.558594 1.375-1.785156 3.5-2.828125 5.753906-2.828125s4.378906 1.042969 5.757812 2.828125c5.523438 8 33.078126 48.75 33.078126 67.558594.011718 15.351563-9.019532 29.265625-23.039063 35.503906-14.023437 6.242188-30.402344 3.640625-41.800781-6.636719-1.875-1.671874-2.710938-4.214843-2.191406-6.671874.519531-2.457032 2.3125-4.445313 4.703124-5.214844 2.386719-.773438 5.003907-.203125 6.859376 1.484375 7.289062 6.5625 17.757812 8.21875 26.714843 4.226562 8.960938-3.988281 14.730469-12.878906 14.730469-22.6875zm-238 0c0-18.796875 27.550781-59.578125 33.074219-67.558594 1.378906-1.785156 3.503906-2.828125 5.757812-2.828125s4.378906 1.042969 5.757813 2.828125c5.523437 8 33.078125 48.75 33.078125 67.558594 0 21.449219-17.386719 38.835937-38.832032 38.835937-21.449218 0-38.835937-17.386718-38.835937-38.835937zm14 0c0 13.71875 11.117187 24.835937 24.835937 24.835937 13.714844 0 24.832032-11.117187 24.832032-24.835937 0-9.507813-13.511719-33.480469-24.832032-50.96875-11.3125 17.488281-24.824218 41.460937-24.824218 50.96875zm412.3125 0c0-18.796875-27.550781-59.578125-33.078125-67.558594-1.304688-1.890625-3.457031-3.015625-5.753906-3.015625s-4.449219 1.125-5.757813 3.015625c-.285156.402344-7.199219 10.402344-14.652343 23-1.96875 3.328125-.867188 7.621094 2.460937 9.589844 3.324219 1.96875 7.621094.871094 9.589844-2.457031 3.007812-5.082032 5.960937-9.769532 8.378906-13.519532 11.316406 17.488282 24.800781 41.441407 24.800781 50.941407 0 13.71875-11.121094 24.835937-24.835937 24.835937-13.714844 0-24.832031-11.117187-24.832031-24.835937.457031-4.679688 1.78125-9.238281 3.90625-13.433594 1.519531-3.554687-.132813-7.667969-3.6875-9.1875-3.554688-1.519531-7.667969.132813-9.1875 3.6875-2.882813 5.925781-4.59375 12.359375-5.03125 18.933594 0 21.449219 17.386718 38.835937 38.832031 38.835937 21.449219 0 38.835937-17.386718 38.835937-38.835937zm-300.414063-166.335937c1.273438 2.199218 3.636719 3.535156 6.179688 3.492187 2.539062-.042969 4.855469-1.457031 6.054688-3.695313 1.195312-2.242187 1.085937-4.957031-.289063-7.089843-6.34375-10.402344-11.660156-18.078125-11.878906-18.402344-1.308594-1.886719-3.460938-3.015625-5.757813-3.015625s-4.449218 1.128906-5.753906 3.015625c-5.523438 8-33.082031 48.746094-33.082031 67.5625 0 21.445313 17.386719 38.832031 38.835937 38.832031 21.445313 0 38.832032-17.386718 38.832032-38.832031 0-6.476563-3.046876-15.660156-9.320313-28.078125-1.117187-2.25-3.355469-3.726562-5.859375-3.871094-2.507812-.148437-4.902344 1.0625-6.273438 3.167969-1.371093 2.101563-1.507812 4.78125-.363281 7.015625 6.800781 13.460938 7.816407 19.417969 7.816407 21.761719 0 13.714843-11.117188 24.832031-24.832032 24.832031s-24.835937-11.117188-24.835937-24.832031c0-9.503907 13.5-33.460938 24.800781-50.945313 1.714844 2.636719 3.671875 5.730469 5.726562 9.082032zm180.230469 80.703124c-21.4375-.027343-38.808593-17.398437-38.832031-38.832031 0-18.800781 27.554688-59.582031 33.078125-67.5625 1.308594-1.886719 3.460937-3.015625 5.757813-3.015625 2.296874 0 4.449218 1.128906 5.753906 3.015625 5.527344 8 33.082031 48.746094 33.082031 67.5625-.023437 21.4375-17.402344 38.8125-38.839844 38.832031zm0-14c13.707031-.015624 24.816407-11.125 24.832031-24.832031 0-9.507812-13.511718-33.488281-24.832031-50.976562-11.320312 17.507812-24.835937 41.46875-24.835937 50.976562.015625 13.707031 11.125 24.816407 24.835937 24.832031zm-43.015625 263.125h22.121094c3.867188 0 7-3.132812 7-7 0-3.863281-3.132812-7-7-7h-22.121094c-3.867187 0-7 3.136719-7 7 0 3.867188 3.132813 7 7 7zm68.511719-14h-16.425781c-3.863282 0-7 3.136719-7 7 0 3.867188 3.136718 7 7 7h16.425781c3.335937 0 6.039063 2.707032 6.039063 6.042969 0 3.335938-2.703126 6.039063-6.039063 6.039063h-183.875c-3.335937 0-6.042969-2.703125-6.042969-6.039063 0-3.335937 2.707032-6.042969 6.042969-6.042969h91.9375c3.867187 0 7-3.132812 7-7 0-3.863281-3.132813-7-7-7h-91.9375c-11.070313 0-20.042969 8.972657-20.042969 20.042969 0 11.066407 8.972656 20.039063 20.042969 20.039063h183.878906c11.066407 0 20.039063-8.972656 20.039063-20.039063 0-11.070312-8.972656-20.042969-20.039063-20.042969zm-29.882813-45.730468c.011719-11.0625 8.980469-20.027344 20.042969-20.039063h51.332031c11.066407 0 20.039063 8.972657 20.039063 20.042969 0 11.066406-8.972656 20.039062-20.039063 20.039062h-51.335937c-11.0625-.015624-20.027344-8.980468-20.039063-20.042968zm14 0c.003907 3.335937 2.707032 6.039062 6.042969 6.042968h51.332031c3.335938 0 6.039063-2.703124 6.039063-6.039062 0-3.339844-2.703125-6.042969-6.039063-6.042969h-51.335937c-3.332031.003907-6.03125 2.707031-6.039063 6.039063zm-47.96875 6.042968h-157.355468c-3.867188 0-7 3.136719-7 7 0 3.867188 3.132812 7 7 7h157.359375c11.066406 0 20.039062-8.972656 20.039062-20.039062 0-11.070312-8.972656-20.042969-20.039062-20.042969h-210.671875c-11.070313 0-20.042969 8.972657-20.042969 20.042969 0 11.066406 8.972656 20.039062 20.042969 20.039062h28.332031c3.863281 0 7-3.132812 7-7 0-3.863281-3.136719-7-7-7h-28.332031c-3.339844 0-6.042969-2.703124-6.042969-6.039062 0-3.339844 2.703125-6.042969 6.042969-6.042969h210.667968c3.335938 0 6.039063 2.703125 6.039063 6.042969 0 3.335938-2.703125 6.039062-6.039063 6.039062zm-154.773437 59.726563c-.011719 11.0625-8.976563 20.027344-20.039063 20.039063h-92.59375c-11.066406 0-20.039062-8.972657-20.039062-20.039063 0-11.070313 8.972656-20.042969 20.039062-20.042969h92.59375c11.0625.011719 20.027344 8.976563 20.039063 20.042969zm-14 0c-.003906-3.335937-2.707031-6.035156-6.039063-6.042969h-92.59375c-3.335937 0-6.039062 2.707032-6.039062 6.042969s2.703125 6.039063 6.039062 6.039063h92.59375c3.332032-.003907 6.035157-2.707032 6.039063-6.039063zm347.015625 0c-.011719 11.0625-8.976562 20.027344-20.039062 20.039063h-39.824219c-11.066407 0-20.039063-8.972657-20.039063-20.039063 0-11.070313 8.972656-20.042969 20.039063-20.042969h39.816406c11.066406.007813 20.035156 8.976563 20.046875 20.042969zm-14 0c-.003906-3.335937-2.707031-6.035156-6.039062-6.042969h-39.824219c-3.335938 0-6.039063 2.707032-6.039063 6.042969s2.703125 6.039063 6.039063 6.039063h39.816406c3.335937 0 6.042969-2.703126 6.046875-6.039063zm0 0" fill="#002d42"/></svg>