<svg height="493pt" viewBox="0 -75 493.696 493" width="493pt" xmlns="http://www.w3.org/2000/svg"><path d="m208 7.347656c-1.035156 0-2.070312 0-3.105469.035156-1.035156-.035156-2.070312-.035156-3.101562-.035156-107.585938 0-194.800781 87.214844-194.800781 194.800782h97.382812c.003906-53.800782 43.613281-97.417969 97.414062-97.433594 1.035157 0 2.070313 0 3.101563.070312 1.039063-.070312 2.074219-.070312 3.105469-.070312 53.796875.011718 97.40625 43.621094 97.414062 97.421875h97.378906c-.007812-107.578125-87.214843-194.78125-194.789062-194.789063zm0 0" fill="#b41d6c"/><path d="m195.351562 104.714844c-1.035156 0-2.070312 0-3.105468.070312-1.035156-.070312-2.070313-.070312-3.101563-.070312-53.796875.015625-97.402343 43.625-97.414062 97.421875h12.648437c.019532-52.535157 41.6875-95.59375 94.191406-97.332031-1.070312-.03125-2.121093-.089844-3.21875-.089844zm0 0" fill="#93134a"/><path d="m208 7.347656c-1.035156 0-2.070312 0-3.105469.035156-1.035156-.035156-2.070312-.035156-3.101562-.035156s-2.144531.0625-3.199219.082032c106.285156 1.75 191.53125 88.40625 191.546875 194.707031h12.648437c-.007812-107.578125-87.214843-194.78125-194.789062-194.789063zm0 0" fill="#93134a"/><path d="m322.769531 87.367188c-30.40625-30.488282-71.710937-47.597657-114.769531-47.546876-1.035156 0-2.070312 0-3.105469.035157-1.035156-.035157-2.070312-.035157-3.101562-.035157-89.640625.011719-162.304688 72.675782-162.320313 162.316407h64.902344c.011719-53.796875 43.617188-97.40625 97.414062-97.421875 1.035157 0 2.070313 0 3.101563.070312 1.039063-.070312 2.074219-.070312 3.105469-.070312 53.796875.011718 97.40625 43.621094 97.414062 97.421875h64.90625c.066406-43.0625-17.046875-84.371094-47.546875-114.769531zm0 0" fill="#ff414d"/><path d="m195.351562 104.714844c-1.035156 0-2.070312 0-3.105468.070312-1.035156-.070312-2.070313-.070312-3.101563-.070312-53.796875.015625-97.402343 43.625-97.414062 97.421875h12.648437c.019532-52.535157 41.6875-95.59375 94.191406-97.332031-1.070312-.03125-2.121093-.089844-3.21875-.089844zm0 0" fill="#d8283f"/><path d="m322.769531 87.367188c-30.40625-30.488282-71.710937-47.601563-114.769531-47.550782-1.035156 0-2.070312 0-3.105469.035156-1.035156-.035156-2.070312-.035156-3.101562-.035156s-2.144531.058594-3.199219.078125c88.359375 1.730469 159.085938 73.863281 159.078125 162.242188h12.648437c.066407-43.0625-17.050781-84.371094-47.550781-114.769531zm0 0" fill="#d8283f"/><path d="m208 72.289062c-1.035156 0-2.070312 0-3.105469.035157-1.035156-.035157-2.070312-.035157-3.101562-.035157-71.71875-.011718-129.859375 58.128907-129.851563 129.847657h32.433594c.011719-53.796875 43.617188-97.40625 97.414062-97.421875 1.035157 0 2.070313 0 3.101563.070312 1.039063-.070312 2.074219-.070312 3.105469-.070312 53.796875.011718 97.40625 43.621094 97.414062 97.421875h32.4375c.007813-71.714844-58.132812-129.855469-129.847656-129.847657zm0 0" fill="#fabe02"/><path d="m208 72.289062c-1.035156 0-2.070312 0-3.105469.035157-1.035156-.035157-2.070312-.035157-3.101562-.035157s-2.144531.054688-3.199219.078126c70.421875 1.738281 126.605469 59.324218 126.605469 129.769531h12.648437c.007813-71.714844-58.132812-129.855469-129.847656-129.847657zm0 0" fill="#f59a1d"/><path d="m195.351562 104.714844c-1.035156 0-2.070312 0-3.105468.070312-1.035156-.070312-2.070313-.070312-3.101563-.070312-53.796875.015625-97.402343 43.625-97.414062 97.421875h12.648437c.019532-52.535157 41.6875-95.59375 94.191406-97.332031-1.070312-.03125-2.121093-.089844-3.21875-.089844zm0 0" fill="#f59a1d"/><path d="m158.730469 221.371094c-2.824219-22.097656 8.058593-43.699219 27.496093-54.582032 19.4375-10.886718 43.539063-8.875 60.90625 5.078126 19.230469-28.421876 53.332032-42.941407 87.152344-37.097657 33.816406 5.84375 61.070313 30.964844 69.648438 64.195313 21.273437-10.417969 46.761718-6.714844 64.195312 9.324218 17.429688 16.039063 23.238282 41.128907 14.625 63.199219-8.613281 22.066407-29.882812 36.589844-53.570312 36.578125h-263.734375c-22.816407.058594-41.816407-17.484375-43.578125-40.230468-1.761719-22.746094 14.308594-43.003907 36.859375-46.464844zm0 0" fill="#d9ecf2"/><g fill="#bdd9e5"><path d="m171.210938 308.070312h42.074218c-4.589844-14.460937-21.039062-38.246093-21.039062-38.246093s-16.441406 23.785156-21.035156 38.246093zm0 0"/><path d="m429.191406 193.0625c-4.671875.011719-9.324218.601562-13.851562 1.753906 28.199218 6.988282 46.75 33.925782 43.21875 62.765625-3.527344 28.835938-28.023438 50.507813-57.078125 50.488281h27.710937c31.757813 0 57.503906-25.742187 57.503906-57.503906 0-31.757812-25.746093-57.503906-57.503906-57.503906zm0 0"/><path d="m376.222656 198.96875c7.855469-3.875 16.496094-5.894531 25.253906-5.902344.230469 0 .457032.035156.6875.039063-13.464843-40.578125-54.410156-65.367188-96.605468-58.480469 34.238281 5.519531 61.96875 30.769531 70.664062 64.34375zm0 0"/><path d="m402.542969 241.316406c13.074219-12.546875 20.589843-29.796875 20.882812-47.914062-6.773437.6875-13.371093 2.570312-19.484375 5.5625 2.890625 14.027344 2.414063 28.542968-1.398437 42.351562zm0 0"/><path d="m350.285156 308.070312c-4.589844-14.460937-21.039062-38.246093-21.039062-38.246093s-16.441406 23.785156-21.035156 38.246093zm0 0"/></g><path d="m200.589844 314.242188c0 12.285156-9.960938 22.242187-22.242188 22.242187-12.285156 0-22.242187-9.957031-22.242187-22.242187 0-12.28125 22.238281-44.398438 22.238281-44.398438s22.246094 32.117188 22.246094 44.398438zm0 0" fill="#26a3b9"/><path d="m337.589844 314.242188c0 12.285156-9.960938 22.242187-22.242188 22.242187-12.285156 0-22.242187-9.957031-22.242187-22.242187 0-12.28125 22.238281-44.398438 22.238281-44.398438s22.246094 32.117188 22.246094 44.398438zm0 0" fill="#26a3b9"/><path d="m178.347656 269.824219s-2.832031 4.105469-6.460937 9.898437c6.5625 10.492188 15.761719 26.59375 15.761719 34.519532-.003907 9.796874-6.410157 18.4375-15.78125 21.28125 6.742187 2.050781 14.050781.785156 19.710937-3.410157 5.660156-4.195312 8.996094-10.824219 8.992187-17.871093.019532-12.28125-22.222656-44.417969-22.222656-44.417969zm0 0" fill="#168aa5"/><path d="m315.347656 269.824219s-2.832031 4.105469-6.460937 9.898437c6.570312 10.492188 15.78125 26.605469 15.78125 34.519532 0 9.796874-6.410157 18.4375-15.78125 21.28125 6.742187 2.050781 14.054687.785156 19.710937-3.410157 5.660156-4.195312 8.996094-10.824219 8.996094-17.871093-.003906-12.28125-22.246094-44.417969-22.246094-44.417969zm0 0" fill="#168aa5"/><path d="m128.566406 57.070312c-1.59375-3.519531-.027344-7.667968 3.492188-9.261718 5.5-2.488282 11.125-4.679688 16.855468-6.566406 3.675782-1.207032 7.628907.792968 8.839844 4.464843 1.207032 3.671875-.792968 7.628907-4.464844 8.835938-5.257812 1.722656-10.414062 3.726562-15.457031 6-1.691406.769531-3.617187.832031-5.355469.175781-1.738281-.652344-3.144531-1.972656-3.910156-3.667969zm22.710938 158.800782c0-.449219 0-.898438 0-1.34375-.039063-18.734375 8.472656-36.460938 23.113281-48.144532 3.023437-2.320312 7.34375-1.796874 9.726563 1.175782 2.382812 2.96875 1.953124 7.300781-.96875 9.746094-13.042969 10.304687-19.675782 26.726562-17.453126 43.199218.472657 3.757813-2.128906 7.210938-5.871093 7.792969-16.601563 2.558594-29.328125 16.097656-30.847657 32.828125-1.523437 16.726562 8.546876 32.34375 24.414063 37.855469 5.464844-11.5625 11.886719-22.644531 19.203125-33.136719 1.375-1.785156 3.5-2.832031 5.753906-2.832031s4.382813 1.046875 5.757813 2.832031c7.78125 11.097656 14.515625 22.890625 20.113281 35.230469h32.335938c3.867187 0 7 3.136719 7 7 0 3.867187-3.132813 7-7 7h-29.007813c-.363281 16.042969-13.589844 28.789062-29.632813 28.558593-16.039062-.226562-28.898437-13.34375-28.804687-29.390624.015625-.632813.066406-1.265626.152344-1.894532-20.957031-7.039062-34.910157-26.875-34.453125-48.976562.457031-22.101563 15.222656-41.34375 36.453125-47.507813zm11.832031 98.402344c0 8.417968 6.824219 15.242187 15.242187 15.242187 8.417969 0 15.242188-6.824219 15.242188-15.242187 0-5.054688-7.15625-18.886719-15.242188-31.710938-8.085937 12.800781-15.242187 26.632812-15.242187 31.679688zm34.796875-145.324219c.652344 0 1.296875-.09375 1.921875-.269531 4.257813-1.210938 8.667969-1.824219 13.097656-1.820313 3.863281 0 7-3.132813 7-7s-3.136719-7-7-7c-5.726562-.003906-11.425781.789063-16.933593 2.351563-3.363282.953124-5.511719 4.242187-5.027344 7.703124.480468 3.464844 3.445312 6.039063 6.941406 6.035157zm231.269531 17.144531c-6.742187.003906-13.4375 1.085938-19.839843 3.199219-6.777344-106.226563-94.894532-188.921875-201.335938-188.945313h-6.210938c-111.398437.117188-201.671874 90.390625-201.789062 201.789063.0273438 3.863281 3.171875 6.980469 7.035156 6.980469h11.308594c3.867188 0 7-3.136719 7-7 0-3.867188-3.132812-7-7-7h-4.214844c3.863282-100.878907 86.710938-180.691407 187.660156-180.800782h6.210938c87.160156.035156 162.847656 60.015625 182.800781 144.859375-7.390625-8.546875-16.253906-15.695312-26.171875-21.109375-.085937-.46875-.222656-.929687-.402344-1.375-.878906-2.09375-1.796874-4.167968-2.75-6.214844-27.898437-59.554687-87.710937-97.613281-153.476562-97.65625h-6.210938c-8.910156 0-17.800781.695313-26.601562 2.078126-3.671875.746093-6.109375 4.25-5.523438 7.953124.582032 3.703126 3.980469 6.289063 7.703126 5.863282 8.070312-1.269532 16.230468-1.90625 24.402343-1.90625h6.210938c57.871093.050781 110.9375 32.207031 137.761719 83.488281-7.722657-2.246094-15.703126-3.492187-23.746094-3.707031-.148438-.34375-.328125-.667969-.527344-.980469-25.4375-37.726563-67.96875-60.335937-113.46875-60.320313h-6.210938c-72.816406.082032-132.847656 57.109376-136.667968 129.828126h-18.496094c1.632812-38.753907 17.824219-75.464844 45.34375-102.800782 8.363281-8.355468 17.648438-15.738281 27.679688-22 3.277343-2.046875 4.277343-6.367187 2.230468-9.644531-2.046875-3.28125-6.367187-4.28125-9.648437-2.230469-10.917969 6.828125-21.03125 14.871094-30.136719 23.972656-31.871094 31.675782-49.734375 74.789063-49.601562 119.722657 0 3.867187 3.132812 7 7 7h64.882812c3.867188 0 7-3.132813 7-7 .0625-49.902344 40.5-90.339844 90.402344-90.402344h6.210937c8.105469-.011719 16.179688 1.066406 24 3.203125 3.722657 1.015625 7.566407-1.179688 8.589844-4.902344s-1.160156-7.570312-4.882813-8.597656c-9.019531-2.472656-18.332031-3.722656-27.6875-3.71875h-6.21875c-54.917968.0625-100.425781 42.609375-104.179687 97.398438h-18.46875c3.792969-64.980469 57.558594-115.753907 122.648437-115.828126h6.210938c38.277344-.011718 74.367188 17.828126 97.601562 48.246094-6.746093 1-13.363281 2.726563-19.734374 5.15625-7.570313-8.527344-16.488282-15.757812-26.398438-21.402344-3.359375-1.875-7.597656-.691406-9.5 2.652344-1.898438 3.34375-.746094 7.59375 2.582031 9.519532 7.371094 4.207031 14.109375 9.429687 20.019531 15.515624-10.394531 5.949219-19.566406 13.820313-27.023437 23.199219-2.492187-1.558593-5.09375-2.9375-7.78125-4.128906-3.511719-1.445313-7.535156.167969-9.074219 3.640625-1.535156 3.472656-.019531 7.539062 3.414063 9.160156 3.808593 1.6875 7.382812 3.859375 10.628906 6.46875 1.523437 1.222656 3.492187 1.753906 5.421875 1.460938 1.933594-.289063 3.65625-1.375 4.75-2.988282 17.664062-26.132812 48.996094-39.496093 80.082031-34.160156 31.085938 5.335938 56.167969 28.378906 64.109375 58.902344 2.566406 12.769531 2.15625 25.960938-1.203125 38.542969-.832031 2.382812-.320312 5.027343 1.34375 6.925781 1.660157 1.898438 4.214844 2.753906 6.683594 2.242188 2.472656-.511719 4.476563-2.3125 5.246094-4.714844 3.699219-13.09375 4.570312-26.828125 2.550781-40.289063 5.582031-2.105469 11.492188-3.1875 17.457031-3.199219 27.894531 0 50.503907 22.613282 50.503907 50.503907 0 27.894531-22.609376 50.503906-50.503907 50.503906h-87.929687c-.363282-.882813-.6875-1.722656-1.113282-2.675781-1-2.324219-3.179687-3.925782-5.695312-4.191406-2.515625-.265626-4.980469.847656-6.445312 2.914062-1.460938 2.0625-1.699219 4.753906-.617188 7.042969 1.699219 3.128906 2.792969 6.546875 3.230469 10.078125 0 8.417968-6.824219 15.242187-15.242188 15.242187s-15.242187-6.824219-15.242187-15.242187c0-5.039063 7.144531-18.855469 15.222656-31.679688.519531.828125 1.0625 1.695313 1.621094 2.601563 1.285156 2.179687 3.652344 3.5 6.183594 3.441406 2.535156-.054687 4.839843-1.476563 6.027343-3.714844 1.1875-2.234375 1.074219-4.941406-.296875-7.070312-4.199218-6.800781-7.621094-11.769531-7.761718-11.980469-1.375-1.785156-3.503907-2.832031-5.757813-2.832031s-4.378906 1.046875-5.753906 2.832031c-7.785157 11.09375-14.519531 22.890625-20.117188 35.230469h-31.363281c-3.867188 0-7 3.136719-7 7 0 3.867187 3.132812 7 7 7h28.023438c0 16.128906 13.074218 29.199219 29.199218 29.199219 16.128906 0 29.199219-13.070313 29.199219-29.199219h84.644531c35.625 0 64.503906-28.878907 64.503906-64.503907s-28.878906-64.503906-64.503906-64.503906zm0 0" fill="#002d42"/></svg>