<svg height="477pt" viewBox="-40 0 477 477.02443" width="477pt" xmlns="http://www.w3.org/2000/svg"><path d="m231.476562 68.324219c31.292969 31.292969 31.292969 82.027343 0 113.320312-31.292968 31.289063-82.027343 31.289063-113.320312 0-31.289062-31.292969-31.289062-82.027343 0-113.320312 31.292969-31.292969 82.027344-31.292969 113.320312 0zm0 0" fill="#fabe02"/><path d="m254.679688 130.285156c-21.914063-21.078125-51.992188-31.457031-82.242188-28.375-30.25 3.082032-57.617188 19.308594-74.832031 44.375 10.34375 37.703125 46.410156 62.417969 85.304687 58.457032 38.898438-3.960938 69.242188-35.441407 71.769532-74.457032zm0 0" fill="#f59a1d"/><path d="m231.480469 68.324219c-18.304688-18.304688-44.339844-26.617188-69.867188-22.304688 38.636719 6.394531 66.972657 39.804688 66.972657 78.96875 0 39.160157-28.335938 72.570313-66.972657 78.964844 34.359375 5.78125 68.511719-11.320313 84.46875-42.296875 15.957031-30.972656 10.054688-68.710938-14.601562-93.332031zm0 0" fill="#f59a1d"/><g fill="#fabe02"><path d="m102.648438 59.816406c-1.855469.003906-3.636719-.734375-4.949219-2.050781l-14.195313-14.195313c-2.734375-2.734374-2.734375-7.167968 0-9.902343s7.167969-2.734375 9.898438 0l14.199218 14.195312c2 2.003907 2.597657 5.011719 1.515626 7.628907-1.082032 2.613281-3.636719 4.320312-6.464844 4.320312zm0 0"/><path d="m76.238281 105.574219c-.609375 0-1.222656-.082031-1.8125-.242188l-19.394531-5.199219c-3.734375-1-5.949219-4.839843-4.949219-8.574218s4.839844-5.949219 8.574219-4.949219l19.390625 5.199219c3.390625.910156 5.582031 4.191406 5.125 7.671875s-3.421875 6.082031-6.933594 6.089843zm0 0"/><path d="m56.839844 163.597656c-3.507813-.003906-6.472656-2.609375-6.929688-6.089844-.457031-3.480468 1.730469-6.761718 5.121094-7.671874l19.394531-5.199219c3.734375-1 7.570313 1.214843 8.574219 4.949219 1 3.734374-1.21875 7.574218-4.953125 8.574218l-19.390625 5.199219c-.59375.160156-1.203125.238281-1.816406.238281zm0 0"/><path d="m201.234375 33.40625c-2.171875 0-4.222656-1.011719-5.546875-2.734375-1.324219-1.726563-1.773438-3.964844-1.214844-6.066406l5.199219-19.394531c1-3.734376 4.839844-5.949219 8.574219-4.949219s5.949218 4.839843 4.949218 8.574219l-5.199218 19.394531c-.828125 3.050781-3.597656 5.171875-6.761719 5.175781zm0 0"/><path d="m148.398438 33.40625c-3.167969-.007812-5.9375-2.140625-6.753907-5.203125l-5.199219-19.390625c-1-3.734375 1.214844-7.574219 4.949219-8.574219s7.574219 1.214844 8.574219 4.949219l5.199219 19.394531c.558593 2.097657.109375 4.339844-1.214844 6.0625-1.324219 1.726563-3.375 2.734375-5.550781 2.734375zm0 0"/><path d="m261.179688 218.347656c-1.855469.003906-3.636719-.734375-4.949219-2.050781l-14.199219-14.179687c-2.734375-2.734376-2.734375-7.167969 0-9.902344 2.734375-2.730469 7.167969-2.730469 9.902344 0l14.199218 14.199218c2 2 2.597657 5.011719 1.515626 7.625-1.082032 2.613282-3.632813 4.320313-6.464844 4.320313zm0 0"/><path d="m246.980469 59.816406c-2.832031 0-5.382813-1.707031-6.464844-4.320312-1.082031-2.617188-.484375-5.625 1.515625-7.628906l14.199219-14.195313c2.734375-2.734375 7.167969-2.734375 9.902343 0 2.734376 2.734375 2.734376 7.167969 0 9.902344l-14.199218 14.195312c-1.3125 1.3125-3.097656 2.050781-4.953125 2.046875zm0 0"/><path d="m88.453125 218.347656c-2.832031 0-5.382813-1.707031-6.464844-4.320312-1.082031-2.617188-.484375-5.625 1.515625-7.625l14.195313-14.199219c2.738281-2.730469 7.171875-2.726563 9.90625.007813 2.730469 2.738281 2.726562 7.171874-.007813 9.90625l-14.199218 14.195312c-1.3125 1.308594-3.089844 2.042969-4.945313 2.035156zm0 0"/><path d="m292.792969 163.597656c-.613281 0-1.226563-.082031-1.816407-.242187l-19.390624-5.199219c-3.734376-1-5.953126-4.839844-4.953126-8.574219 1.003907-3.734375 4.839844-5.949219 8.574219-4.949219l19.394531 5.199219c3.386719.910157 5.578126 4.191407 5.121094 7.671875-.457031 3.480469-3.421875 6.085938-6.929687 6.089844zm0 0"/><path d="m273.394531 105.574219c-3.507812-.007813-6.472656-2.609375-6.929687-6.089844-.457032-3.480469 1.734375-6.761719 5.125-7.671875l19.390625-5.199219c3.734375-1 7.574219 1.214844 8.574219 4.949219s-1.214844 7.574219-4.949219 8.574219l-19.394531 5.199219c-.589844.160156-1.203126.238281-1.816407.238281zm0 0"/><path d="m143.207031 249.957031c-.613281 0-1.222656-.082031-1.816406-.242187-3.734375-1-5.949219-4.839844-4.945313-8.574219l5.199219-19.390625c1-3.734375 4.839844-5.953125 8.574219-4.953125 3.734375 1.003906 5.949219 4.839844 4.949219 8.574219l-5.199219 19.394531c-.820312 3.058594-3.59375 5.1875-6.761719 5.191406zm0 0"/><path d="m206.425781 249.957031c-3.171875-.007812-5.941406-2.140625-6.757812-5.199219l-5.199219-19.394531c-1-3.734375 1.214844-7.570312 4.949219-8.574219 3.734375-1 7.574219 1.21875 8.574219 4.953126l5.199218 19.390624c.558594 2.101563.109375 4.34375-1.214844 6.066407-1.324218 1.722656-3.375 2.734375-5.546874 2.734375zm0 0"/></g><path d="m319.949219 191.535156c-12.992188.003906-25.726563 3.621094-36.777344 10.453125-12.773437-47.980469-57.773437-80.164062-107.308594-76.75-49.53125 3.417969-89.6875 41.472657-95.757812 90.75-22.136719-5.421875-45.414063 2.378907-59.808594 20.046875-14.394531 17.664063-17.335937 42.039063-7.554687 62.621094s30.539062 33.695312 53.324218 33.691406h253.882813c38.878906 0 70.398437-31.519531 70.398437-70.398437 0-38.882813-31.519531-70.402344-70.398437-70.402344zm0 0" fill="#d9ecf2"/><path d="m280.28125 192.917969c-.261719-.714844-.589844-1.394531-.863281-2.101563-.589844-1.484375-1.167969-2.976562-1.820313-4.425781-.6875-1.539063-1.457031-3.039063-2.21875-4.539063-.359375-.707031-.695312-1.425781-1.070312-2.128906-1.035156-1.929687-2.152344-3.808594-3.304688-5.667968-.144531-.230469-.269531-.472657-.398437-.707032-18.945313-30.109375-52.027344-48.378906-87.601563-48.375-4.4375.007813-8.871094.292969-13.273437.863282 23.769531 2.921874 45.78125 14 62.289062 31.34375 15.511719 16.996093 23.234375 39.6875 21.3125 62.617187-.238281 3.863281-.238281 7.738281 0 11.601563.089844 1.675781 1.359375 3.054687 3.027344 3.273437s3.253906-.78125 3.773437-2.378906c3.734376-12.582031 11.941407-23.363281 23.074219-30.316407-.820312-3.09375-1.832031-6.101562-2.925781-9.0625zm0 0" fill="#bdd9e5"/><path d="m319.949219 191.535156c-4.355469.011719-8.699219.429688-12.972657 1.253906 35.71875 6.714844 60.449219 39.523438 57.070313 75.707032-3.378906 36.1875-33.75 63.851562-70.09375 63.839844h26c38.878906 0 70.398437-31.519532 70.398437-70.398438 0-38.882812-31.519531-70.402344-70.398437-70.402344zm0 0" fill="#bdd9e5"/><path d="m254.945312 300.125c0 7.226562-5.859374 13.082031-13.085937 13.082031s-13.082031-5.855469-13.082031-13.082031 5.855468-13.085938 13.082031-13.085938 13.085937 5.859376 13.085937 13.085938zm0 0" fill="#bdd9e5"/><path d="m175.820312 325.316406h-11.800781l8.476563-8.472656c2.734375-2.734375 2.734375-7.164062 0-9.898438-2.734375-2.734374-7.167969-2.734374-9.898438 0l-18.375 18.371094h-15.253906v-15.234375l18.371094-18.367187c2.734375-2.730469 2.734375-7.164063 0-9.898438s-7.164063-2.734375-9.898438 0l-8.472656 8.476563v-11.800781c0-3.867188-3.132812-7-7-7s-7 3.132812-7 7v11.800781l-8.476562-8.476563c-2.746094-2.652344-7.113282-2.613281-9.8125.085938-2.699219 2.703125-2.738282 7.066406-.082032 9.8125l18.375 18.378906v15.222656h-15.261718l-18.375-18.359375c-2.734376-2.734375-7.164063-2.734375-9.898438 0s-2.734375 7.164063 0 9.898438l8.480469 8.460937h-11.800781c-3.867188 0-7 3.132813-7 7 0 3.867188 3.132812 7 7 7h11.800781l-8.476563 8.476563c-2.742187 2.730469-2.746094 7.167969-.015625 9.910156 2.734375 2.738281 7.171875 2.746094 9.910157.011719l18.375-18.398438h15.257812v15.257813l-18.375 18.375c-2.734375 2.734375-2.734375 7.164062 0 9.898437 2.730469 2.734375 7.164062 2.734375 9.898438 0l8.476562-8.476562v11.800781c0 3.867187 3.132812 7 7 7s7-3.132813 7-7v-11.800781l8.472656 8.476562c2.734375 2.734375 7.164063 2.734375 9.898438 0s2.734375-7.164062 0-9.898437l-18.371094-18.375v-15.257813h15.25l18.378906 18.398438c2.730469 2.734375 7.164063 2.734375 9.898438 0 2.734375-2.730469 2.734375-7.164063 0-9.898438l-8.476563-8.5h11.800781c3.867188 0 7-3.132812 7-7 0-3.867187-3.132812-7-7-7zm0 0" fill="#26a3b9"/><path d="m121.285156 278.480469v11.800781l7.683594-7.683594v-4.117187c0-2.574219-1.410156-4.941407-3.675781-6.160157-2.265625-1.222656-5.015625-1.101562-7.164063.316407 1.96875 1.289062 3.15625 3.488281 3.15625 5.84375zm0 0" fill="#168aa5"/><path d="m73.652344 306.957031 18.375 18.359375h7.683594l-18.375-18.359375c-2.347657-2.351562-6.023438-2.730469-8.800782-.90625.402344.265625.777344.566407 1.117188.90625zm0 0" fill="#168aa5"/><path d="m98.808594 281.804688 8.476562 8.476562v-7.679688l-.800781-.800781c-2.347656-2.351562-6.023437-2.730469-8.800781-.902343.40625.261718.78125.566406 1.125.90625zm0 0" fill="#168aa5"/><path d="m164.8125 306.960938c1.3125 1.3125 2.050781 3.09375 2.050781 4.949218 0 1.855469-.738281 3.636719-2.050781 4.949219l-8.476562 8.457031h7.683593l8.476563-8.472656c2.550781-2.535156 2.761718-6.59375.488281-9.382812-2.269531-2.789063-6.289063-3.402344-9.289063-1.417969.402344.269531.777344.574219 1.117188.917969zm0 0" fill="#168aa5"/><path d="m139.65625 281.804688c1.3125 1.3125 2.050781 3.09375 2.050781 4.949218 0 1.859375-.738281 3.636719-2.050781 4.949219l-18.371094 18.378906v15.234375h7.683594v-15.234375l18.371094-18.367187c2.550781-2.535156 2.761718-6.59375.488281-9.382813-2.269531-2.789062-6.289063-3.402343-9.289063-1.414062.402344.257812.777344.554687 1.117188.886719zm0 0" fill="#168aa5"/><path d="m128.96875 354.59375v-15.277344h-7.683594v15.261719l18.371094 18.375c1.488281 1.488281 2.226562 3.570313 2.011719 5.664063-.214844 2.09375-1.359375 3.980468-3.121094 5.136718 3 1.984375 7.019531 1.371094 9.289063-1.417968 2.273437-2.789063 2.0625-6.847657-.488282-9.382813zm0 0" fill="#168aa5"/><path d="m175.820312 325.316406h-7.683593c3.867187 0 7 3.132813 7 7 0 3.867188-3.132813 7-7 7h7.683593c3.867188 0 7-3.132812 7-7 0-3.867187-3.132812-7-7-7zm0 0" fill="#168aa5"/><path d="m164.019531 339.316406h-7.683593l8.476562 8.476563c1.488281 1.488281 2.226562 3.570312 2.011719 5.664062-.214844 2.09375-1.363281 3.980469-3.121094 5.136719 3 1.984375 7.019531 1.371094 9.289063-1.417969 2.273437-2.789062 2.0625-6.847656-.488282-9.382812zm0 0" fill="#168aa5"/><path d="m107.285156 374.386719-8.476562 8.476562c-.339844.339844-.710938.640625-1.109375.90625 2.777343 1.824219 6.453125 1.445313 8.800781-.90625l.800781-.796875zm0 0" fill="#168aa5"/><path d="m121.285156 374.386719v11.800781c0 2.355469-1.1875 4.554688-3.160156 5.84375 2.148438 1.417969 4.898438 1.539062 7.164062.316406 2.265626-1.21875 3.675782-3.585937 3.675782-6.160156v-4.109375zm0 0" fill="#168aa5"/><path d="m92.027344 339.316406-18.375 18.398438c-.335938.339844-.710938.644531-1.109375.90625 2.777343 1.824218 6.453125 1.445312 8.800781-.90625l18.367188-18.398438zm0 0" fill="#168aa5"/><path d="m245.824219 300.125c0 7.226562-5.859375 13.082031-13.085938 13.082031-7.222656 0-13.082031-5.855469-13.082031-13.082031s5.859375-13.085938 13.082031-13.085938c7.226563 0 13.085938 5.859376 13.085938 13.085938zm0 0" fill="#26a3b9"/><path d="m232.738281 287.039062c-1.160156.015626-2.3125.191407-3.429687.511719 5.6875 1.527344 9.644531 6.683594 9.644531 12.574219s-3.957031 11.046875-9.644531 12.570312c4.902344 1.339844 10.136718-.292968 13.414062-4.175781 3.28125-3.882812 4.007813-9.316406 1.863282-13.925781-2.140626-4.609375-6.761719-7.558594-11.847657-7.558594zm0 0" fill="#168aa5"/><path d="m369.847656 377.914062c0 9.664063-7.835937 17.503907-17.503906 17.503907s-17.503906-7.839844-17.503906-17.503907c0-9.667968 7.835937-17.503906 17.503906-17.503906s17.503906 7.835938 17.503906 17.503906zm-308.511718 41.089844c-7.976563 0-14.445313 6.46875-14.445313 14.445313 0 7.976562 6.46875 14.441406 14.445313 14.441406 7.976562 0 14.445312-6.464844 14.445312-14.441406 0-7.976563-6.46875-14.445313-14.445312-14.445313zm0 0" fill="#d9ecf2"/><path d="m61.335938 419.003906c-1.652344.015625-3.292969.316406-4.84375.894532 5.75 2.019531 9.597656 7.453124 9.597656 13.546874 0 6.097657-3.847656 11.527344-9.597656 13.550782 5.394531 1.875 11.382812.390625 15.273437-3.789063 3.890625-4.179687 4.941406-10.265625 2.683594-15.507812-2.257813-5.246094-7.402344-8.65625-13.113281-8.703125zm0 0" fill="#bdd9e5"/><path d="m352.34375 360.410156c-1.640625.023438-3.273438.277344-4.84375.761719 7.492188 2.117187 12.664062 8.957031 12.664062 16.742187 0 7.785157-5.171874 14.621094-12.664062 16.738282 1.570312.484375 3.203125.742187 4.84375.765625 9.667969 0 17.503906-7.839844 17.503906-17.503907 0-9.667968-7.835937-17.503906-17.503906-17.503906zm0 0" fill="#bdd9e5"/><path d="m299.984375 404.117188h-14.503906l10.398437-10.402344c2.734375-2.730469 2.734375-7.164063 0-9.898438s-7.164062-2.734375-9.898437 0l-20.296875 20.300782h-5.867188c-2.035156-5.433594-6.324218-9.71875-11.757812-11.757813v-5.867187l20.296875-20.296876c2.734375-2.734374 2.734375-7.164062 0-9.898437s-7.164063-2.734375-9.898438 0l-10.402343 10.398437v-14.523437c0-3.867187-3.132813-7-7-7-3.863282 0-7 3.132813-7 7v14.503906l-10.398438-10.398437c-2.734375-2.734375-7.167969-2.734375-9.898438 0-2.734374 2.734375-2.734374 7.164062 0 9.898437l20.292969 20.296875v5.867188c-5.429687 2.039062-9.71875 6.324218-11.753906 11.757812h-5.859375l-20.296875-20.300781c-2.734375-2.734375-7.167969-2.734375-9.902344 0-2.730469 2.734375-2.730469 7.164063 0 9.898437l10.402344 10.402344h-14.503906c-3.867188 0-7 3.132813-7 7 0 3.863282 3.132812 7 7 7h14.5l-10.402344 10.398438c-2.730469 2.734375-2.730469 7.167968 0 9.902344 2.734375 2.730468 7.167969 2.730468 9.902344 0l20.296875-20.296876h5.867187c2.035157 5.433594 6.324219 9.71875 11.753907 11.753907v5.859375l-20.292969 20.300781c-2.734375 2.734375-2.734375 7.167969 0 9.902344 2.730469 2.730469 7.164062 2.730469 9.898437 0l10.398438-10.402344v14.503906c0 3.867188 3.136718 7 7 7 3.867187 0 7-3.132812 7-7v-14.503906l10.402344 10.402344c2.734374 2.730469 7.164062 2.730469 9.898437 0 2.734375-2.734375 2.734375-7.167969 0-9.902344l-20.300781-20.300781v-5.863282c5.433594-2.035156 9.722656-6.320312 11.757812-11.753906h5.867188l20.296875 20.292969c2.761719 2.515625 7.011719 2.417969 9.65625-.21875s2.75-6.886719.242187-9.65625l-10.398437-10.398437h14.503906c3.867187 0 7-3.132813 7-7 0-3.867188-3.132813-7-7-7zm-58.925781 13.082031c-3.359375 0-6.082032-2.722657-6.082032-6.082031 0-3.359376 2.722657-6.085938 6.082032-6.085938 3.363281 0 6.085937 2.726562 6.085937 6.085938-.011719 3.351562-2.730469 6.0625-6.085937 6.066406zm0 0" fill="#26a3b9"/><path d="m215.878906 356.277344 10.402344 10.398437v-7.757812l-2.632812-2.632813c-2.359376-2.359375-6.058594-2.726562-8.832032-.871094.382813.25.738282.539063 1.0625.863282zm0 0" fill="#168aa5"/><path d="m188.371094 383.796875 20.308594 20.320313h5.867187c.167969-.449219.4375-.832032.636719-1.265626l-19.035156-19.039062c-2.359376-2.359375-6.058594-2.726562-8.832032-.871094.378906.25.730469.535156 1.054688.855469zm0 0" fill="#168aa5"/><path d="m288.117188 383.796875c1.3125 1.3125 2.050781 3.09375 2.050781 4.949219 0 1.859375-.738281 3.636718-2.050781 4.949218l-10.402344 10.402344h7.765625l10.398437-10.402344c2.5625-2.539062 2.773438-6.613281.484375-9.402343-2.285156-2.789063-6.320312-3.382813-9.316406-1.367188.386719.253907.742187.546875 1.070313.871094zm0 0" fill="#168aa5"/><path d="m240.28125 352.171875v14.503906l7.777344-7.757812v-6.746094c.003906-2.582031-1.417969-4.957031-3.695313-6.175781-2.277343-1.21875-5.039062-1.082032-7.1875.351562 1.945313 1.300782 3.109375 3.488282 3.105469 5.824219zm0 0" fill="#168aa5"/><path d="m260.59375 356.277344c1.3125 1.3125 2.050781 3.09375 2.050781 4.949218 0 1.855469-.738281 3.636719-2.050781 4.949219l-20.3125 20.296875v5.867188c5.433594 2.039062 9.71875 6.324218 11.753906 11.757812h5.886719l1.261719-1.265625c-2.171875-4.832031-6.171875-8.609375-11.125-10.496093v-5.867188l20.296875-20.296875c2.5625-2.539063 2.773437-6.613281.484375-9.402344-2.285156-2.792969-6.320313-3.382812-9.316406-1.367187.382812.253906.742187.546875 1.070312.875zm0 0" fill="#168aa5"/><path d="m234.972656 411.101562c.007813-1.800781.8125-3.503906 2.203125-4.648437-1.082031-.925781-2.460937-1.433594-3.882812-1.441406-3.363281 0-6.085938 2.726562-6.085938 6.085937 0 3.363282 2.722657 6.085938 6.085938 6.085938 1.421875-.003906 2.800781-.515625 3.882812-1.4375-1.386719-1.144532-2.195312-2.847656-2.203125-4.644532zm0 0" fill="#168aa5"/><path d="m214.535156 418.117188h-5.855468l-20.296876 20.296874c-.324218.324219-.683593.617188-1.066406.871094 2.773438 1.855469 6.472656 1.488282 8.832032-.871094l19.035156-19.039062c-.207032-.457031-.480469-.832031-.648438-1.257812zm0 0" fill="#168aa5"/><path d="m285.480469 418.117188h-7.765625l10.402344 10.398437c1.484374 1.484375 2.226562 3.550781 2.019531 5.640625-.207031 2.085938-1.339844 3.972656-3.089844 5.132812 2.996094 1.988282 7.011719 1.386719 9.289063-1.390624 2.28125-2.78125 2.082031-6.835938-.457032-9.382813zm0 0" fill="#168aa5"/><path d="m226.28125 455.515625-10.402344 10.402344c-.324218.324219-.683594.617187-1.066406.871093 2.773438 1.851563 6.472656 1.488282 8.832031-.871093l2.632813-2.636719zm0 0" fill="#168aa5"/><path d="m299.984375 404.117188h-7.765625c3.867188 0 7 3.132812 7 7 0 3.867187-3.132812 7-7 7h7.765625c3.867187 0 7-3.132813 7-7 0-3.867188-3.132813-7-7-7zm0 0" fill="#168aa5"/><path d="m240.28125 455.515625v14.503906c0 2.339844-1.167969 4.527344-3.117188 5.824219 2.148438 1.4375 4.910157 1.570312 7.1875.351562 2.277344-1.21875 3.699219-3.589843 3.695313-6.175781v-6.734375zm0 0" fill="#168aa5"/><path d="m248.058594 435.714844v-5.863282c4.953125-1.886718 8.953125-5.660156 11.125-10.496093l-1.261719-1.261719h-5.871094c-2.035156 5.429688-6.320312 9.71875-11.753906 11.753906v5.867188l20.296875 20.300781c1.484375 1.484375 2.222656 3.550781 2.015625 5.640625-.207031 2.085938-1.339844 3.972656-3.085937 5.132812 2.996093 1.988282 7.007812 1.386719 9.289062-1.390624 2.277344-2.78125 2.082031-6.835938-.457031-9.382813zm0 0" fill="#168aa5"/><path d="m137.304688 53.800781c2.097656 3.246094 1.164062 7.582031-2.085938 9.675781-4.371094 2.832032-8.429688 6.113282-12.113281 9.796876-2.734375 2.734374-7.167969 2.734374-9.902344 0-2.734375-2.734376-2.734375-7.167969 0-9.902344 4.382813-4.382813 9.21875-8.289063 14.425781-11.65625 3.246094-2.097656 7.578125-1.164063 9.675782 2.085937zm-39.601563 3.964844c2.734375 2.734375 7.167969 2.734375 9.902344 0s2.734375-7.167969 0-9.902344l-14.195313-14.195312c-2.734375-2.734375-7.167968-2.734375-9.902344 0-2.734374 2.734375-2.734374 7.167969 0 9.902343zm-19.652344 34.042969-19.390625-5.199219c-3.734375-1-7.574218 1.214844-8.574218 4.949219s1.214843 7.574218 4.949218 8.574218l19.394532 5.199219c3.734374 1 7.570312-1.214843 8.574218-4.949219 1-3.734374-1.21875-7.574218-4.953125-8.574218zm-3.625 52.828125-19.394531 5.199219c-3.734375 1-5.949219 4.839843-4.949219 8.574218s4.839844 5.949219 8.574219 4.949219l19.390625-5.199219c3.734375-1 5.953125-4.839844 4.953125-8.574218-1.003906-3.734376-4.839844-5.949219-8.574219-4.949219zm125.238281-139.4375-5.199218 19.394531c-1 3.734375 1.214844 7.570312 4.949218 8.574219 3.734376 1 7.574219-1.21875 8.574219-4.953125l5.199219-19.390625c1-3.734375-1.214844-7.574219-4.949219-8.574219s-7.574219 1.214844-8.574219 4.949219zm-51.265624 28.207031c2.175781 0 4.226562-1.011719 5.550781-2.734375 1.324219-1.726563 1.773437-3.964844 1.214843-6.066406l-5.199218-19.394531c-1-3.734376-4.839844-5.949219-8.574219-4.949219s-5.949219 4.839843-4.949219 8.574219l5.199219 19.394531c.824219 3.050781 3.597656 5.171875 6.757813 5.175781zm117.734374.265625c-1.3125-1.3125-3.09375-2.050781-4.949218-2.050781-1.859375 0-3.640625.738281-4.953125 2.050781l-14.199219 14.195313c-2.734375 2.734374-2.734375 7.167968 0 9.902343s7.167969 2.734375 9.902344 0l14.199218-14.195312c1.3125-1.3125 2.050782-3.09375 2.050782-4.953125-.003906-1.855469-.742188-3.636719-2.054688-4.949219zm28.472657 116.160156-19.394531-5.199219c-3.734376-1-7.570313 1.214844-8.574219 4.949219-1 3.734375 1.21875 7.574219 4.953125 8.574219l19.390625 5.199219c3.734375 1 7.574219-1.214844 8.574219-4.949219s-1.214844-7.574219-4.949219-8.574219zm4.945312-58.265625c-.476562-1.796875-1.648437-3.328125-3.257812-4.257812-1.609375-.925782-3.523438-1.175782-5.316407-.691406l-19.390624 5.199218c-3.734376 1-5.953126 4.839844-4.953126 8.574219 1.003907 3.734375 4.839844 5.949219 8.574219 4.949219l19.394531-5.199219c3.734376-1 5.953126-4.839844 4.949219-8.574219zm20.402344 92.96875c-11.269531.007813-22.398437 2.488282-32.601563 7.265625-5.894531-16.667969-15.710937-31.675781-28.625-43.753906 8.363282-30.25-.210937-62.65625-22.433593-84.816406-22.226563-22.160157-54.660157-30.636719-84.882813-22.191407-2.507812.585938-4.488281 2.496094-5.164062 4.976563-.679688 2.480469.058594 5.132813 1.917968 6.90625 1.863282 1.777344 4.546876 2.386719 6.992188 1.59375 24.289062-6.789063 50.367188-.574219 68.980469 16.445313 18.613281 17.019531 27.136719 42.433593 22.542969 67.234374-43.464844-30.664062-102.609376-26.007812-140.738282 11.082032-6.160156-17.585938-5.445312-36.847656 2-53.929688 1.070313-2.296875.816406-4.992187-.664062-7.050781-1.480469-2.054687-3.957032-3.152344-6.472656-2.863281-2.519532.285156-4.6875 1.914062-5.664063 4.25-9.960937 22.769531-9.828125 48.691406.363281 71.355468-10.660156 13.6875-17.925781 29.707032-21.199218 46.742188-2.730469-.363281-5.484376-.542969-8.242188-.546875-36.476562 0-66.0507812 29.570313-66.0507812 66.050781 0 36.480469 29.5742192 66.050782 66.0507812 66.050782h13.851562l-8.476562 8.476562c-2.734375 2.734375-2.738281 7.167969-.003906 9.902344s7.167968 2.734375 9.902344 0l18.375-18.398438h15.257812v15.257813l-18.375 18.375c-2.734375 2.734375-2.734375 7.164062 0 9.898437 2.730469 2.734375 7.164062 2.734375 9.898438 0l8.476562-8.476562v11.800781c0 3.867187 3.132812 7 7 7s7-3.132813 7-7v-11.800781l8.472656 8.476562c2.734375 2.734375 7.164063 2.734375 9.898438 0s2.734375-7.164062 0-9.898437l-18.371094-18.375v-15.257813h15.25l18.378906 18.398438c2.730469 2.734375 7.164063 2.734375 9.898438 0 2.734375-2.730469 2.734375-7.164063 0-9.898438l-8.476563-8.5h11.800781c3.867188 0 7-3.132812 7-7 0-3.867187-3.132812-7-7-7h-11.800781l8.476563-8.472656c2.734375-2.734375 2.734375-7.164062 0-9.898438-2.734375-2.734374-7.167969-2.734374-9.898438 0l-18.375 18.371094h-15.253906v-15.234375l18.371094-18.367187c2.734375-2.730469 2.734375-7.164063 0-9.898438s-7.164063-2.734375-9.898438 0l-8.472656 8.476563v-11.800781c0-3.867188-3.132812-7-7-7s-7 3.132812-7 7v11.800781l-8.476562-8.476563c-2.746094-2.652344-7.113282-2.613281-9.8125.085938-2.699219 2.703125-2.738282 7.066406-.082032 9.8125l18.375 18.378906v15.222656h-15.261718l-18.375-18.359375c-2.734376-2.734375-7.164063-2.734375-9.898438 0s-2.734375 7.164063 0 9.898438l8.480469 8.460937h-13.851563c-20.136718.070313-38.511718-11.484375-47.171875-29.667968-8.664062-18.179688-6.058593-39.730469 6.6875-55.324219 12.746094-15.59375 33.34375-22.4375 52.886719-17.566407 1.941406.472657 3.996094.09375 5.640625-1.042968 1.640625-1.140625 2.722656-2.925782 2.960937-4.910156 4.34375-35.394532 27.835938-65.515626 61.109376-78.34375 33.273437-12.828126 70.90625-6.273438 97.882812 17.042968.074219.066406.148438.125.226562.1875 13.359376 11.570313 23.277344 26.59375 28.667969 43.425782-24.871093 18.476562-25.199219 50.445312-25.199219 51.875 0 3.855468 3.121094 6.984374 6.976563 6.988281 3.855469-.003907 6.980469-3.117188 7-6.96875 0-.292969.433594-29.4375 23.035156-43.023438l.027344-.019531h.03125c22.882813-14.070312 52.152344-12.183594 73.039063 4.707031 20.886718 16.894531 28.855468 45.121094 19.878906 70.441407-8.972656 25.320312-32.933594 42.230468-59.796875 42.199218h-117.601563c-3.867187 0-7 3.132813-7 7 0 3.867188 3.132813 7 7 7h117.601563c42.746093 0 77.398437-34.652344 77.398437-77.398437 0-42.75-34.652344-77.402344-77.398437-77.402344zm-137.816406 219.582032h14.503906l-10.402344-10.402344c-2.730469-2.730469-2.730469-7.164063 0-9.898438 2.734375-2.734375 7.167969-2.734375 9.902344 0l20.296875 20.300782h5.867188c2.035156-5.433594 6.324218-9.71875 11.753906-11.757813v-5.867187l-20.292969-20.296876c-2.734375-2.734374-2.734375-7.164062 0-9.898437 2.730469-2.734375 7.164063-2.734375 9.898437 0l10.398438 10.398437v-14.523437c0-3.867187 3.136719-7 7-7 3.867188 0 7 3.132813 7 7v14.503906l10.402344-10.398437c2.734375-2.734375 7.164062-2.734375 9.898437 0s2.734375 7.164062 0 9.898437l-20.296875 20.296875v5.867188c5.433594 2.039062 9.722656 6.324218 11.757813 11.757812h5.867187l20.296875-20.300781c2.734375-2.734375 7.167969-2.734375 9.898438 0 2.734375 2.734375 2.734375 7.164063 0 9.898437l-10.398438 10.402344h14.503907c3.867187 0 7 3.132813 7 7 0 3.863282-3.132813 7-7 7h-14.511719l10.398437 10.398438c2.734375 2.734375 2.734375 7.167968 0 9.902344-2.734375 2.730468-7.164062 2.730468-9.898437 0l-20.296875-20.28125h-5.867188c-2.035156 5.433593-6.324218 9.71875-11.757812 11.753906v5.84375l20.296875 20.300781c2.734375 2.734375 2.734375 7.167969 0 9.902344-2.734375 2.730469-7.164063 2.730469-9.898438 0l-10.402343-10.402344v14.503906c0 3.867188-3.132813 7-7 7-3.863282 0-7-3.132812-7-7v-14.503906l-10.398438 10.402344c-2.734375 2.730469-7.167969 2.730469-9.898438 0-2.734374-2.734375-2.734374-7.167969 0-9.902344l20.292969-20.300781v-5.863282c-5.429687-2.035156-9.71875-6.320312-11.753906-11.753906h-5.863281l-20.296875 20.292969c-2.765625 2.496094-7 2.390625-9.636719-.238281-2.632812-2.632813-2.75-6.867188-.261719-9.636719l10.402344-10.398437h-14.503906c-3.867188 0-7-3.132813-7-7 0-3.867188 3.132812-7 7-7zm52.835937 7c0 3.359374 2.722656 6.082031 6.082032 6.082031 3.363281 0 6.085937-2.722657 6.085937-6.082031 0-3.359376-2.722656-6.085938-6.085937-6.085938-3.351563.003906-6.070313 2.71875-6.082032 6.070312zm-2.238281-90.886719c-11.085937-.003907-20.074219-8.992188-20.078125-20.078125-.003906-11.089844 8.980469-20.082032 20.066406-20.089844 11.089844-.011719 20.085938 8.964844 20.101563 20.054688-.007813 11.089843-8.992188 20.078124-20.085938 20.09375zm0-14c3.359375 0 6.082031-2.71875 6.085937-6.078125.003907-3.355469-2.710937-6.082032-6.066406-6.089844-3.355468-.011719-6.085937 2.699219-6.101562 6.054688-.003906 3.363281 2.722656 6.09375 6.085937 6.09375zm119.601563 82.207031c-5.800782-.011719-10.496094-4.71875-10.496094-10.519531 0-3.867188-3.132813-7-7-7-3.867188 0-7 3.132812-7 7 0 13.53125 10.972656 24.503906 24.503906 24.503906 13.535156 0 24.503906-10.972656 24.503906-24.503906 0-13.535157-10.96875-24.503907-24.503906-24.503907-3.867188 0-7 3.132813-7 7 0 3.863282 3.132812 7 7 7 5.800781 0 10.503906 4.703126 10.503906 10.503907s-4.703125 10.503906-10.503906 10.503906zm-291 66.449219c-11.84375.003906-21.445313-9.597657-21.449219-21.441407 0-11.84375 9.601562-21.445312 21.445312-21.445312 11.847657 0 21.445313 9.605469 21.445313 21.449219-.015625 11.832031-9.605469 21.425781-21.441406 21.4375zm0-14c4.113281 0 7.445312-3.332031 7.445312-7.445313 0-4.109375-3.335938-7.441406-7.449219-7.441406-4.109375.003906-7.441406 3.335938-7.441406 7.449219.007813 4.105469 3.335937 7.433593 7.445313 7.4375zm0 0" fill="#002d42"/></svg>