<svg height="480pt" viewBox="0 0 480 480.64887" width="480pt" xmlns="http://www.w3.org/2000/svg"><path d="m473.726562 240.347656c0-7.761718-6.289062-14.050781-14.046874-14.050781h-20.476563l30.398437-30.398437c5.488282-5.488282 5.488282-14.382813 0-19.867188-5.484374-5.488281-14.378906-5.488281-19.867187 0l-50.265625 50.265625h-29.648438l30.398438-30.398437c5.484375-5.488282 5.484375-14.382813 0-19.867188-5.488281-5.488281-14.382812-5.488281-19.867188 0l-50.28125 50.277344h-27.558593c-1.476563-2.910156-3.402344-5.566406-5.710938-7.875l-7.171875-7.171875 73.257813-73.261719h71.109375c7.757812 0 14.046875-6.292969 14.046875-14.050781 0-7.761719-6.289063-14.050781-14.046875-14.050781h-43.007813l14.476563-14.480469c5.488281-5.484375 5.488281-14.382813 0-19.867188-5.484375-5.488281-14.378906-5.488281-19.867188 0l-14.480468 14.480469v-43.007812c0-7.761719-6.289063-14.050782-14.046876-14.050782-7.761718 0-14.050781 6.289063-14.050781 14.050782v71.105468l-73.25 73.25-7.175781-7.175781c-2.308594-2.308594-4.964844-4.234375-7.875-5.707031v-27.5625l50.28125-50.28125c5.484375-5.484375 5.484375-14.378906 0-19.867188-5.488281-5.484375-14.382812-5.484375-19.871094 0l-30.398437 30.402344v-29.640625l50.28125-50.28125c5.484375-5.484375 5.484375-14.382813 0-19.867187-5.488281-5.488282-14.382813-5.488282-19.867188 0l-30.402343 30.398437v-20.453125c0-7.761719-6.289063-14.050781-14.050782-14.050781-7.757812 0-14.046875 6.289062-14.046875 14.050781v20.472656l-30.402343-30.398437c-5.484376-5.484375-14.382813-5.484375-19.867188 0-5.488281 5.488281-5.488281 14.382812 0 19.867187l50.246094 50.261719v29.644531l-30.398438-30.402344c-5.488281-5.484374-14.382812-5.484374-19.867187 0-5.488281 5.488282-5.488281 14.382813 0 19.867188l50.277343 50.28125v27.5625c-2.90625 1.472656-5.566406 3.398438-7.875 5.707031l-7.175781 7.175781-73.257812-73.253906v-71.105468c0-7.761719-6.292969-14.050782-14.050781-14.050782-7.761719 0-14.050782 6.289063-14.050782 14.050782v43.011718l-14.480468-14.480468c-5.484376-5.488282-14.382813-5.488282-19.871094-.003907-5.484375 5.488281-5.488282 14.382813 0 19.871094l14.480468 14.480469h-43.003906c-7.761718 0-14.050781 6.289062-14.050781 14.050781 0 7.757813 6.289063 14.050781 14.050781 14.050781h71.105469l73.25 73.242188-7.171875 7.171875c-2.304688 2.308593-4.234375 4.964843-5.707031 7.875h-27.5625l-50.277344-50.277344c-5.488281-5.488281-14.382813-5.488281-19.871094 0-5.484375 5.484375-5.484375 14.378906 0 19.867187l30.402344 30.398438h-29.644531l-50.28125-50.277344c-5.484375-5.488281-14.378906-5.488281-19.867188 0-5.488281 5.484375-5.488281 14.378906 0 19.867188l30.398438 30.398437h-20.453125c-7.761719 0-14.050781 6.292969-14.050781 14.050781 0 7.757813 6.289062 14.050782 14.050781 14.050782h20.476562l-30.402343 30.398437c-5.484376 5.488281-5.484376 14.382813 0 19.867188 5.488281 5.488281 14.382812 5.488281 19.867187 0l50.261719-50.242188h29.644531l-30.402344 30.398438c-5.484375 5.488281-5.484375 14.382812 0 19.871093 5.488281 5.484376 14.382813 5.484376 19.871094 0l50.277344-50.28125h27.5625c1.472656 2.910157 3.398437 5.566407 5.703125 7.875l7.175781 7.175782-73.25 73.261718h-71.105469c-7.761718 0-14.050781 6.289063-14.050781 14.050782 0 7.757812 6.289063 14.046875 14.050781 14.046875h43.007813l-14.480469 14.480469c-5.488281 5.488281-5.488281 14.382812 0 19.867187 5.484375 5.488281 14.382812 5.488281 19.867188 0l14.480468-14.476563v43.007813c0 7.757813 6.289063 14.046875 14.050782 14.046875 7.757812 0 14.050781-6.289062 14.050781-14.046875v-71.109375l73.246093-73.25 7.171876 7.175781c2.308593 2.308594 4.964843 4.234375 7.875 5.710938v27.558593l-50.277344 50.28125c-5.488282 5.484376-5.488282 14.378907 0 19.867188 5.484375 5.484375 14.378906 5.484375 19.867187 0l30.398438-30.398438v29.636719l-50.277344 50.28125c-5.488281 5.488281-5.488281 14.382813 0 19.867188 5.484375 5.488281 14.378906 5.488281 19.867187 0l30.398438-30.398438v20.476563c0 7.757812 6.292969 14.050781 14.050781 14.050781 7.757813 0 14.050781-6.292969 14.050781-14.050781v-20.476563l30.398438 30.398438c5.488281 5.488281 14.382812 5.488281 19.867188 0 5.488281-5.484375 5.488281-14.378907 0-19.867188l-50.242188-50.28125v-29.636719l30.398438 30.398438c5.488281 5.484375 14.382812 5.484375 19.871093 0 5.484375-5.488281 5.484375-14.382812 0-19.867188l-50.28125-50.28125v-27.558593c2.910157-1.476563 5.566407-3.402344 7.875-5.710938l7.171875-7.175781 73.265625 73.25v71.109375c0 7.757813 6.289063 14.046875 14.050781 14.046875 7.757813 0 14.046876-6.289062 14.046876-14.046875v-43.007813l14.480468 14.476563c5.488282 5.488281 14.382813 5.488281 19.867188 0 5.488281-5.484375 5.488281-14.378906 0-19.867187l-14.476563-14.480469h43.007813c7.757812 0 14.046875-6.289063 14.046875-14.046875 0-7.761719-6.289063-14.050782-14.046875-14.050782h-71.109375l-73.25-73.25 7.179687-7.175781c2.304688-2.308593 4.226563-4.964843 5.703125-7.875h27.558594l50.28125 50.28125c5.484375 5.484375 14.378906 5.484375 19.867187 0 5.488282-5.488281 5.488282-14.382812 0-19.871093l-30.398437-30.398438h29.640625l50.28125 50.28125c5.488281 5.484375 14.382812 5.484375 19.867188 0 5.488281-5.488281 5.488281-14.382812 0-19.871094l-30.398438-30.398437h20.476562c7.761719-.007813 14.042969-6.308594 14.03125-14.070313zm-223.769531 23.78125c-5.128906 5.132813-13.449219 5.132813-18.578125 0l-14.496094-14.496094c-5.132812-5.128906-5.132812-13.449218 0-18.578124l14.496094-14.496094c5.128906-5.132813 13.449219-5.132813 18.578125 0l14.496094 14.496094c5.132813 5.128906 5.132813 13.449218 0 18.578124zm0 0" fill="#26a3b9"/><g fill="#168aa5"><path d="m289.636719 269.445312 7.179687-7.175781c2.304688-2.308593 4.230469-4.964843 5.707032-7.875h-15.707032c-1.476562 2.910157-3.402344 5.566407-5.707031 7.875l-7.175781 7.175781 73.25 73.25h15.703125zm0 0"/><path d="m369.820312 254.394531h-15.707031l30.402344 30.398438c2.976563 2.960937 4.46875 7.101562 4.066406 11.277343-.402343 4.179688-2.660156 7.957032-6.152343 10.292969 5.996093 4.039063 14.082031 2.867188 18.683593-2.710937 4.601563-5.578125 4.214844-13.742188-.894531-18.859375zm0 0"/><path d="m432.339844 123.945312c0 7.757813-6.289063 14.050782-14.050782 14.050782h15.707032c7.757812 0 14.046875-6.292969 14.046875-14.050782 0-7.761718-6.289063-14.050781-14.046875-14.050781h-15.726563c3.730469-.003906 7.308594 1.472657 9.949219 4.109375 2.636719 2.636719 4.121094 6.210938 4.121094 9.941406zm0 0"/><path d="m355.410156 47.023438v43.011718l14.480469-14.480468c.390625-.355469.796875-.691407 1.222656-1v-27.53125c0-5.195313-2.867187-9.964844-7.449219-12.402344-4.585937-2.4375-10.140624-2.152344-14.449218.75 3.875 2.609375 6.199218 6.976562 6.195312 11.652344zm0 0"/><path d="m289.296875 11.40625c5.488281 5.484375 5.488281 14.382812 0 19.867188l-50.28125 50.273437v29.644531l15.703125-15.707031v-13.9375l50.28125-50.28125c5.078125-5.121094 5.453125-13.261719.859375-18.824219-4.589844-5.566406-12.648437-6.75-18.644531-2.734375.746094.5 1.445312 1.066407 2.082031 1.699219zm0 0"/><path d="m180.507812 11.40625 30.398438 30.398438v-15.691407l-14.695312-14.707031c-4.757813-4.753906-12.214844-5.464844-17.789063-1.699219.746094.5 1.445313 1.066407 2.085937 1.699219zm0 0"/><path d="m389.761719 75.546875c5.484375 5.488281 5.484375 14.378906 0 19.867187l-14.480469 14.480469h15.707031l14.476563-14.480469c5.121094-5.117187 5.515625-13.285156.910156-18.867187-4.605469-5.585937-12.699219-6.753906-18.695312-2.703125.746093.5 1.445312 1.070312 2.082031 1.703125zm0 0"/><path d="m239.015625 21.34375v20.472656l15.703125-15.703125v-4.769531c0-5.195312-2.863281-9.96875-7.449219-12.40625-4.585937-2.441406-10.144531-2.152344-14.449219.753906 3.875 2.609375 6.199219 6.976563 6.195313 11.652344zm0 0"/><path d="m453.90625 176.015625c5.484375 5.484375 5.484375 14.378906 0 19.867187l-30.398438 30.398438h15.703126l30.398437-30.398438c5.121094-5.117187 5.515625-13.285156.910156-18.871093-4.605469-5.582031-12.699219-6.753907-18.695312-2.703125.746093.5 1.445312 1.070312 2.082031 1.707031zm0 0"/><path d="m196.210938 399.90625 14.707031-14.707031v-15.703125l-30.398438 30.398437c-.640625.632813-1.335937 1.199219-2.085937 1.699219 5.566406 3.761719 13.019531 3.054688 17.777344-1.6875zm0 0"/><path d="m273.933594 211.246094 7.171875 7.171875c2.308593 2.308593 4.234375 4.964843 5.710937 7.875h15.703125c-1.476562-2.910157-3.402343-5.566407-5.707031-7.875l-7.175781-7.171875 73.25-73.246094h-15.703125zm0 0"/><path d="m443.96875 254.394531h15.707031c7.757813 0 14.050781-6.289062 14.050781-14.050781 0-7.757812-6.292968-14.050781-14.050781-14.050781h-15.707031c7.761719 0 14.050781 6.292969 14.050781 14.050781 0 7.761719-6.289062 14.050781-14.050781 14.050781zm0 0"/><path d="m231.382812 264.128906-14.496093-14.496094c-5.132813-5.128906-5.132813-13.449218 0-18.578124l14.496093-14.496094c.449219-.425782.929688-.820313 1.4375-1.175782-5.210937-3.933593-12.519531-3.429687-17.140624 1.175782l-14.496094 14.496094c-5.132813 5.128906-5.132813 13.449218 0 18.578124l14.496094 14.496094c4.621093 4.609375 11.929687 5.109375 17.140624 1.175782-.507812-.355469-.988281-.75-1.4375-1.175782zm0 0"/><path d="m382.441406 174.3125c3.492188 2.335938 5.75 6.113281 6.15625 10.292969.402344 4.179687-1.089844 8.320312-4.070312 11.28125l-30.402344 30.398437h15.707031l30.398438-30.398437c5.121093-5.117188 5.511719-13.285157.910156-18.871094-4.605469-5.582031-12.699219-6.753906-18.699219-2.703125zm0 0"/><path d="m178.421875 79.085938c.75.5 1.445313 1.066406 2.085937 1.699218l30.398438 30.402344v-15.691406l-14.695312-14.710938c-4.757813-4.753906-12.21875-5.464844-17.789063-1.699218zm0 0"/><path d="m239.015625 178.5c2.910156 1.472656 5.566406 3.398438 7.875 5.707031l7.175781 7.175781 7.804688-7.804687c-2.128906-2.023437-4.535156-3.734375-7.144532-5.082031v-27.5625l50.28125-50.28125c5.109376-5.117188 5.496094-13.277344.894532-18.855469-4.601563-5.578125-12.6875-6.753906-18.683594-2.710937 3.488281 2.335937 5.746094 6.113281 6.152344 10.289062.402344 4.179688-1.089844 8.320312-4.070313 11.277344l-50.277343 50.28125zm0 0"/><path d="m254.71875 399.144531v-13.9375l-15.703125-15.703125v29.636719l50.277344 50.28125c2.980469 2.960937 4.476562 7.101563 4.070312 11.28125-.402343 4.179687-2.660156 7.957031-6.152343 10.292969 5.996093 4.050781 14.089843 2.878906 18.695312-2.703125 4.605469-5.585938 4.210938-13.753907-.90625-18.871094zm0 0"/><path d="m210.917969 438.875-30.398438 30.398438c-.640625.632812-1.335937 1.203124-2.085937 1.699218 5.574218 3.765625 13.03125 3.054688 17.789062-1.699218l14.707032-14.707032zm0 0"/><path d="m239.015625 438.875v20.476562c.003906 4.671876-2.320313 9.039063-6.195313 11.652344 4.304688 2.898438 9.863282 3.1875 14.445313.746094 4.585937-2.4375 7.453125-7.207031 7.453125-12.398438v-4.773437zm0 0"/><path d="m369.890625 405.144531-14.480469-14.476562v43.007812c.003906 4.671875-2.320312 9.039063-6.195312 11.652344 4.308594 2.898437 9.863281 3.1875 14.449218.746094 4.582032-2.4375 7.449219-7.207031 7.449219-12.398438v-27.53125c-.425781-.308593-.835937-.640625-1.222656-1zm0 0"/><path d="m254.71875 329.757812v-27.558593c2.613281-1.347657 5.019531-3.0625 7.152344-5.085938l-7.796875-7.796875-7.171875 7.179688c-2.308594 2.304687-4.964844 4.230468-7.875 5.707031v27.558594l50.277344 50.28125c2.980468 2.957031 4.472656 7.097656 4.070312 11.277343-.40625 4.179688-2.664062 7.957032-6.152344 10.289063 5.996094 4.042969 14.082032 2.871094 18.683594-2.710937 4.601562-5.578126 4.214844-13.738282-.894531-18.855469zm0 0"/><path d="m390.988281 370.792969h-15.707031l14.480469 14.480469c2.980469 2.960937 4.472656 7.101562 4.070312 11.28125-.402343 4.179687-2.664062 7.957031-6.152343 10.292968 5.996093 4.050782 14.089843 2.878906 18.695312-2.703125 4.605469-5.585937 4.210938-13.753906-.910156-18.871093zm0 0"/><path d="m439.199219 254.394531h-15.703125l30.398437 30.398438c2.976563 2.960937 4.472657 7.101562 4.066407 11.277343-.402344 4.179688-2.660157 7.957032-6.148438 10.292969 5.996094 4.039063 14.082031 2.867188 18.679688-2.710937 4.601562-5.578125 4.214843-13.742188-.894532-18.859375zm0 0"/><path d="m433.996094 342.695312h-15.726563c7.761719 0 14.050781 6.289063 14.050781 14.050782 0 7.757812-6.289062 14.046875-14.050781 14.046875h15.707031c7.757813 0 14.046876-6.289063 14.046876-14.046875 0-7.761719-6.289063-14.050782-14.046876-14.050782zm0 0"/><path d="m122.617188 47.023438v71.105468l73.253906 73.25 7.175781-7.175781c.230469-.234375.496094-.402344.730469-.625l-65.453125-65.449219v-71.105468c-.003907-5.195313-2.867188-9.964844-7.453125-12.402344-4.585938-2.4375-10.140625-2.152344-14.449219.75 3.878906 2.609375 6.199219 6.976562 6.195313 11.652344zm0 0"/><path d="m100.980469 304.679688 50.277343-50.28125h-15.699218l-50.28125 50.28125c-.636719.628906-1.335938 1.199218-2.082032 1.699218 5.570313 3.761719 13.027344 3.050782 17.785157-1.699218zm0 0"/><path d="m151.257812 226.296875-50.277343-50.277344c-4.757813-4.753906-12.21875-5.464843-17.789063-1.703125.746094.5 1.445313 1.070313 2.082032 1.703125l50.28125 50.277344zm0 0"/><path d="m15.894531 176.015625 50.28125 50.277344h15.695313l-50.28125-50.277344c-4.757813-4.753906-12.214844-5.464844-17.789063-1.703125.753907.5 1.453125 1.070312 2.09375 1.703125zm0 0"/><path d="m94.523438 390.664062-14.480469 14.476563c-.640625.632813-1.335938 1.203125-2.085938 1.703125 5.082031 3.410156 11.789063 3.125 16.5625-.703125zm0 0"/><path d="m31.597656 304.679688 50.273438-50.285157h-15.691406l-50.285157 50.285157c-.640625.628906-1.335937 1.199218-2.082031 1.699218 5.570312 3.765625 13.027344 3.054688 17.785156-1.699218zm0 0"/><path d="m203.042969 296.488281-7.171875-7.175781-73.253906 73.25v71.109375c.003906 4.671875-2.316407 9.039063-6.195313 11.648437 4.308594 2.902344 9.863281 3.191407 14.449219.75 4.585937-2.4375 7.449218-7.207031 7.453125-12.398437v-71.109375l65.449219-65.449219c-.234376-.222656-.503907-.390625-.730469-.625zm0 0"/><path d="m80.042969 75.546875 14.480469 14.480469v-15.480469c-4.777344-3.828125-11.484376-4.113281-16.566407-.699219.75.496094 1.445313 1.066406 2.085938 1.699219zm0 0"/></g><path d="m261.722656 84.453125v9.84375l18.460938-18.457031c5.308594-5.363282 13.078125-7.472656 20.371094-5.53125 7.289062 1.941406 12.984374 7.636718 14.925781 14.925781 1.9375 7.292969-.171875 15.0625-5.535157 20.371094l-48.222656 48.230469v24.664062c0 3.863281-3.132812 7-7 7-3.867187 0-7-3.136719-7-7v-27.566406c0-1.855469.738282-3.636719 2.050782-4.949219l50.277343-50.277344c1.324219-1.320312 2.066407-3.113281 2.066407-4.984375 0-1.867187-.742188-3.660156-2.066407-4.980468-2.785156-2.671876-7.183593-2.671876-9.96875 0l-30.398437 30.398437c-2.003906 2.003906-5.011719 2.601563-7.628906 1.515625-2.613282-1.082031-4.320313-3.632812-4.320313-6.460938v-29.648437c0-1.855469.738281-3.636719 2.050781-4.949219l50.265625-50.25c1.324219-1.320312 2.066407-3.113281 2.066407-4.984375 0-1.867187-.742188-3.660156-2.066407-4.980469-2.785156-2.671874-7.183593-2.671874-9.96875 0l-30.398437 30.398438c-2.003906 2-5.011719 2.601562-7.628906 1.515625-2.613282-1.082031-4.320313-3.632813-4.320313-6.460937v-20.492188c.0625-2.558594-1.269531-4.953125-3.476563-6.25-2.207031-1.296875-4.941406-1.296875-7.148437 0s-3.535156 3.691406-3.476563 6.25v20.472656c0 2.832032-1.707031 5.382813-4.320312 6.464844s-5.625.484375-7.625-1.515625l-30.429688-30.417969c-2.785156-2.671875-7.179687-2.671875-9.964843 0-1.324219 1.320313-2.066407 3.113282-2.066407 4.984375 0 1.867188.742188 3.660157 2.066407 4.980469l50.277343 50.28125c1.3125 1.3125 2.050782 3.09375 2.050782 4.949219v29.640625c.007812 2.832031-1.695313 5.390625-4.3125 6.480468-2.617188 1.085938-5.632813.488282-7.636719-1.519531l-30.402344-30.398437c-2.785156-2.667969-7.179687-2.667969-9.964843 0-1.320313 1.320312-2.066407 3.113281-2.066407 4.980468 0 1.871094.746094 3.664063 2.066407 4.984376l50.265624 50.273437c1.3125 1.3125 2.050782 3.09375 2.050782 4.949219v27.566406c.003906 2.632812-1.476563 5.046875-3.828125 6.238281-2.25 1.136719-4.304688 2.621094-6.09375 4.398438l-7.179688 7.210937c-1.3125 1.3125-3.09375 2.050782-4.949219 2.050782-1.859374 0-3.640624-.738282-4.953124-2.050782l-73.242188-73.265625c-1.3125-1.3125-2.050781-3.089843-2.050781-4.949219v-71.109374c0-3.894532-3.15625-7.050782-7.050781-7.050782-3.890626 0-7.046876 3.15625-7.046876 7.050782v43.011718c0 2.828125-1.707031 5.378906-4.320312 6.460938-2.617188 1.085937-5.625.488281-7.628906-1.515625l-14.480469-14.476563c-2.785156-2.671875-7.175781-2.671875-9.960937 0-1.324219 1.316406-2.070313 3.109375-2.070313 4.980469s.746094 3.660156 2.070313 4.980469l14.480468 14.484375c2 2.003906 2.597656 5.011719 1.515625 7.628906-1.085937 2.613281-3.636719 4.320313-6.464843 4.320313h-43.019532c-3.894531 0-7.050781 3.15625-7.050781 7.046874 0 3.894532 3.15625 7.050782 7.050781 7.050782h71.105469c1.859375 0 3.636719.738281 4.949219 2.050781l25.601562 25.621094c2.734375 2.730469 2.734375 7.164062 0 9.898437s-7.167968 2.734375-9.902344 0l-23.566406-23.570312h-68.1875c-11.625 0-21.050781-9.425782-21.050781-21.050782s9.425781-21.046874 21.050781-21.046874h26.121094l-2.53125-2.53125c-5.359375-5.308594-7.46875-13.082032-5.527344-20.371094 1.941406-7.292969 7.636719-12.984375 14.925782-14.925782 7.292968-1.941406 15.0625.171876 20.371093 5.53125l2.527344 2.53125v-26.109374c0-11.625 9.421875-21.050782 21.046875-21.050782s21.050781 9.425782 21.050781 21.050782v68.210937l66.238281 66.242187 2.226563-2.226562c1.78125-1.777344 3.730469-3.371094 5.824219-4.761719v-20.652343l-48.226563-48.234376c-5.429687-5.292968-7.589843-13.097656-5.660156-20.429687 1.933594-7.335937 7.660156-13.0625 14.992187-14.992187 7.332032-1.933594 15.136719.230468 20.433594 5.660156l18.457032 18.457031v-9.84375l-48.222657-48.226563c-5.429687-5.292968-7.589843-13.097656-5.660156-20.433593 1.933594-7.332031 7.660156-13.058594 14.992187-14.988281 7.332032-1.933594 15.136719.226562 20.433594 5.65625l18.457032 18.460937v-3.578125c-.101563-7.589844 3.886718-14.648438 10.441406-18.476562 6.554687-3.824219 14.664062-3.824219 21.21875 0 6.558594 3.828124 10.546875 10.886718 10.441406 18.476562v3.578125l18.460938-18.460937c5.292968-5.429688 13.097656-7.589844 20.429687-5.65625 7.332031 1.929687 13.0625 7.65625 14.992187 14.988281 1.933594 7.335937-.230468 15.140625-5.660156 20.433593zm-107.359375 89.460937c-2.734375 2.734376-2.734375 7.167969 0 9.902344l5.441407 5.441406c2.75 2.664063 7.125 2.628907 9.832031-.078124 2.703125-2.707032 2.734375-7.082032.070312-9.828126l-5.4375-5.441406c-2.738281-2.734375-7.171875-2.730468-9.90625.003906zm90.644531 85.269532c-2.425781 2.320312-6.25 2.320312-8.671874 0-1.761719-1.816406-4.359376-2.542969-6.804688-1.902344s-4.355469 2.550781-5 4.996094c-.644531 2.441406.082031 5.042968 1.894531 6.804687 3.777344 3.78125 8.898438 5.902344 14.242188 5.902344 5.339843 0 10.464843-2.121094 14.238281-5.902344l14.496094-14.496093c7.851562-7.867188 7.851562-20.609376 0-28.476563l-14.492188-14.496094c-3.773437-3.777343-8.898437-5.902343-14.238281-5.902343-5.34375 0-10.464844 2.125-14.242187 5.902343l-14.496094 14.492188c-7.851563 7.867187-7.851563 20.609375 0 28.476562 2.734375 2.734375 7.167968 2.734375 9.902344 0 2.734374-2.734375 2.734374-7.167969 0-9.898437-2.398438-2.398438-2.398438-6.285156 0-8.679688l14.5-14.496094c2.425781-2.324218 6.25-2.324218 8.675781 0l14.496093 14.496094c2.394532 2.394532 2.394532 6.28125 0 8.679688zm-171.539062 118.605468-2.53125 2.53125c-5.429688 5.296876-7.589844 13.101563-5.65625 20.433594 1.929688 7.332032 7.65625 13.058594 14.988281 14.992188 7.335938 1.929687 15.140625-.230469 20.433594-5.660156l2.53125-2.53125v26.113281c0 11.621093 9.421875 21.046875 21.046875 21.046875s21.050781-9.425782 21.050781-21.046875v-68.210938l66.238281-66.242187 2.226563 2.226562c1.78125 1.777344 3.730469 3.371094 5.824219 4.761719v20.65625l-48.226563 48.226563c-5.363281 5.308593-7.472656 13.078124-5.53125 20.371093 1.9375 7.289063 7.632813 12.984375 14.925781 14.925781 7.289063 1.941407 15.0625-.167968 20.371094-5.527343l18.457032-18.460938v9.84375l-48.222657 48.226563c-8.152343 8.230468-8.117187 21.503906.070313 29.695312 8.191406 8.191406 21.460937 8.222656 29.695312.074219l18.457032-18.460937v3.578124c.160156 11.511719 9.539062 20.761719 21.050781 20.761719 11.515625 0 20.890625-9.25 21.050781-20.761719v-3.578124l18.460938 18.464843c5.289062 5.464844 13.109374 7.652344 20.464843 5.722657 7.355469-1.929688 13.097657-7.675782 15.027344-15.03125 1.925781-7.355469-.265625-15.175782-5.730469-20.464844l-48.21875-48.226563v-9.84375l18.460938 18.460938c5.292968 5.429687 13.097656 7.589843 20.429687 5.65625 7.332031-1.929688 13.0625-7.65625 14.992188-14.988281 1.933593-7.335938-.230469-15.140626-5.660157-20.433594l-48.222656-48.230469v-20.65625c2.09375-1.390625 4.046875-2.984375 5.824219-4.761719l2.226563-2.226562 66.246093 66.242187v17.621094c0 3.867187 3.132813 7 7 7 3.863281 0 7-3.132813 7-7v-20.519531c0-1.855469-.738281-3.636719-2.054687-4.949219l-73.242188-73.261719c-1.3125-1.316406-3.09375-2.054687-4.949218-2.054687-1.859376 0-3.636719.738281-4.949219 2.054687l-7.175781 7.199219c-1.789063 1.777344-3.847657 3.261719-6.097657 4.398437-2.347656 1.195313-3.828125 3.605469-3.828125 6.242188v27.5625c0 1.855469.738282 3.636719 2.050782 4.949219l50.277343 50.28125c1.324219 1.320312 2.066407 3.113281 2.066407 4.984375 0 1.867187-.742188 3.660156-2.066407 4.980468-2.785156 2.671876-7.179687 2.671876-9.964843 0l-30.398438-30.398437c-2.003906-2-5.011719-2.597656-7.628906-1.515625-2.613282 1.082031-4.320313 3.632812-4.320313 6.464844v29.636718c0 1.859376.738281 3.636719 2.050781 4.949219l50.261719 50.265625c2.761719 2.75 2.769531 7.222656.015625 9.984375-2.753906 2.757813-7.222656 2.765625-9.984375.015625l-30.398437-30.402344c-2.003906-2-5.011719-2.597656-7.628906-1.515624-2.613282 1.082031-4.320313 3.632812-4.320313 6.464843v20.476563c-.089844 3.828125-3.21875 6.882812-7.050781 6.882812-3.828125 0-6.957032-3.054687-7.050782-6.882812v-20.476563c0-2.832031-1.707031-5.382812-4.320312-6.464843-2.613281-1.082032-5.625-.484376-7.625 1.515624l-30.402344 30.402344c-2.75 2.75-7.214844 2.75-9.964844 0-2.753906-2.753906-2.753906-7.21875 0-9.96875l50.273438-50.28125c1.3125-1.3125 2.050781-3.089844 2.054688-4.949218v-29.636719c.015624-2.847657-1.691407-5.417969-4.320313-6.507813s-5.65625-.480468-7.65625 1.542969l-30.402344 30.398437c-2.785156 2.671876-7.179687 2.671876-9.96875 0-1.320312-1.320312-2.0625-3.113281-2.0625-4.980468 0-1.871094.742188-3.660156 2.0625-4.984375l50.269531-50.273438c1.3125-1.3125 2.050782-3.09375 2.050782-4.949219v-27.5625c.003906-2.636718-1.476563-5.046874-3.828125-6.242187-2.25-1.136719-4.304688-2.621094-6.09375-4.398437l-7.179688-7.207032c-1.3125-1.316406-3.09375-2.054687-4.949219-2.054687-1.859374 0-3.640624.738281-4.953124 2.054687l-73.242188 73.261719c-1.3125 1.3125-2.050781 3.09375-2.050781 4.949219v71.109375c0 3.890625-3.15625 7.046875-7.050781 7.046875-3.890626 0-7.046876-3.15625-7.046876-7.046875v-43.011719c0-2.828125-1.707031-5.378906-4.320312-6.460938-2.617188-1.082031-5.625-.484374-7.628906 1.515626l-14.484375 14.480468c-2.785157 2.667969-7.175781 2.667969-9.960938 0-1.324219-1.320312-2.066406-3.113281-2.066406-4.984375 0-1.867187.742187-3.660156 2.066406-4.980469l14.480469-14.480468c2-2 2.597656-5.011719 1.515625-7.625-1.085937-2.617188-3.636719-4.320313-6.464844-4.324219h-43.015625c-3.894531 0-7.050781-3.152344-7.050781-7.046875 0-3.890625 3.15625-7.046875 7.050781-7.046875h71.105469c1.859375 0 3.636719-.738281 4.949219-2.054687l73.269531-73.25c1.3125-1.3125 2.050781-3.09375 2.050781-4.949219 0-1.859375-.738281-3.640625-2.050781-4.949219l-7.203125-7.179688c-1.777344-1.785156-3.261719-3.84375-4.398438-6.09375-1.191406-2.351562-3.605468-3.828124-6.238281-3.828124h-27.574219c-1.855468 0-3.636718.738281-4.945312 2.050781l-50.28125 50.28125c-1.765625 1.855469-4.398438 2.605469-6.878906 1.960937-2.476563-.640625-4.414063-2.578125-5.054688-5.054687-.644531-2.480469.109375-5.113281 1.964844-6.878907l30.398438-30.398437c2.003906-2.003906 2.601562-5.011719 1.515624-7.628906-1.082031-2.613281-3.632812-4.320313-6.460937-4.320313h-29.644531c-1.855469 0-3.636719.738282-4.949219 2.050782l-50.25 50.265624c-2.753906 2.761719-7.222656 2.769532-9.984375.015626-2.761719-2.753907-2.769531-7.222657-.015625-9.984376l30.398437-30.398437c2-2.003906 2.597657-5.011719 1.515626-7.628906-1.082032-2.613281-3.632813-4.320313-6.464844-4.320313h-20.453125c-2.558594.0625-4.949219-1.269531-6.25-3.476562-1.296875-2.207032-1.296875-4.941406 0-7.148438 1.300781-2.207031 3.691406-3.535156 6.25-3.476562h20.476562c2.828125 0 5.378907-1.707032 6.460938-4.320313s.484375-5.625-1.515625-7.625l-30.417969-30.429687c-2.753906-2.761719-2.75-7.230469.011719-9.984375 2.761718-2.753907 7.234375-2.75 9.988281.011719l50.277344 50.28125c1.3125 1.3125 3.09375 2.050781 4.949219 2.050781h29.640624c2.828126-.007813 5.371094-1.714844 6.449219-4.328125 1.078125-2.613282.480469-5.617188-1.519531-7.617188l-30.398438-30.402344c-2.640624-2.769531-2.585937-7.140624.121094-9.847656 2.703125-2.707031 7.074219-2.761718 9.847656-.125l50.28125 50.28125c1.308594 1.3125 3.089844 2.050782 4.945313 2.050782h27.5625c2.632813.003906 5.042969-1.472657 6.238281-3.820313 1.136719-2.25 2.621094-4.3125 4.398438-6.101563l7.207031-7.1875c1.3125-1.3125 2.050781-3.09375 2.050781-4.949218 0-1.859375-.738281-3.640625-2.050781-4.953125l-10.898437-10.867188c-2.730469-2.734375-7.164063-2.734375-9.898438-.003906-2.734375 2.734375-2.738281 7.164063-.003906 9.898437l5.921875 5.921876-2.226563 2.226562c-1.777344 1.777344-3.371094 3.730469-4.761718 5.824219h-20.644532l-48.234375-48.226563c-5.308593-5.359375-13.078125-7.46875-20.371093-5.53125-7.289063 1.941406-12.984376 7.636719-14.925782 14.929688-1.9375 7.289062.171875 15.0625 5.535156 20.371094l18.457032 18.457031h-9.84375l-48.226563-48.230469c-8.257812-7.992188-21.402343-7.878906-29.527343.246094-8.121094 8.128906-8.230469 21.269531-.238282 29.527344l18.460938 18.457031h-3.578125c-7.589844-.101563-14.648438 3.886719-18.472657 10.441406-3.828124 6.554687-3.828124 14.664063 0 21.21875 3.824219 6.554687 10.882813 10.546875 18.472657 10.441406h3.578125l-18.464844 18.464844c-8.21875 8.21875-8.21875 21.546875 0 29.765625 8.222656 8.222656 21.550781 8.222656 29.769531 0l48.226563-48.226562h9.84375l-18.457032 18.460937c-8.152343 8.230469-8.121093 21.5.070313 29.691406 8.191406 8.191407 21.460937 8.226563 29.691406.074219l48.234375-48.226562h20.65625c1.386719 2.09375 2.980469 4.046874 4.757813 5.824218l2.226562 2.226563-66.242187 66.246093h-68.210938c-11.625 0-21.050781 9.421876-21.050781 21.046876s9.425781 21.046874 21.050781 21.046874zm382.636719-116.398437h3.582031c11.511719-.160156 20.761719-9.535156 20.761719-21.050781 0-11.511719-9.25-20.890625-20.761719-21.050782h-3.582031l18.460937-18.457031c8.152344-8.234375 8.117188-21.503906-.070312-29.695312-8.191406-8.191407-21.460938-8.222657-29.695313-.074219l-48.238281 48.230469h-9.84375l18.460938-18.457031c8.148437-8.234376 8.117187-21.503907-.074219-29.695313-8.1875-8.191406-21.457031-8.222656-29.691407-.074219l-48.230468 48.226563h-20.65625c-1.390625-2.09375-2.984375-4.046875-4.761719-5.824219l-2.226563-2.226562 66.242188-66.242188h68.214844c11.621094 0 21.046875-9.425781 21.046875-21.050781s-9.425781-21.046875-21.046875-21.046875h-26.125l2.53125-2.527344c5.363281-5.308594 7.472656-13.082031 5.53125-20.371094-1.9375-7.292968-7.632813-12.984375-14.921875-14.925781-7.292969-1.941406-15.0625.167969-20.375 5.527344l-2.53125 2.53125v-26.113281c0-11.625-9.421875-21.050782-21.046875-21.050782s-21.046875 9.425782-21.046875 21.050782v68.210937l-71.199219 71.199219c-2.738281 2.738281-2.738281 7.175781 0 9.914062 2.734375 2.734375 7.171875 2.734375 9.910156 0l73.242188-73.265625c1.316406-1.3125 2.054687-3.089843 2.054687-4.949219v-71.109374c0-3.894532 3.15625-7.050782 7.046875-7.050782 3.894532 0 7.046875 3.15625 7.046875 7.050782v43.011718c.003907 2.828125 1.707031 5.378906 4.324219 6.460938 2.613281 1.085937 5.625.488281 7.625-1.515625l14.484375-14.476563c2.785156-2.671875 7.179687-2.671875 9.964844 0 1.320312 1.320313 2.066406 3.109375 2.066406 4.980469 0 1.867187-.746094 3.660156-2.066406 4.980469l-14.480469 14.480468c-2 2.003907-2.597656 5.011719-1.515625 7.628907 1.082031 2.613281 3.632813 4.320312 6.464844 4.320312h43.011719c3.890624 0 7.046874 3.15625 7.046874 7.046875 0 3.894532-3.15625 7.046875-7.046874 7.046875h-71.105469c-1.855469.003907-3.636719.742188-4.949219 2.054688l-73.265625 73.25c-1.316406 1.3125-2.054687 3.09375-2.054687 4.953125 0 1.855468.738281 3.636718 2.054687 4.949218l7.199219 7.175782c1.777344 1.789062 3.261718 3.851562 4.398437 6.101562 1.199219 2.347656 3.609375 3.820313 6.242188 3.820313h27.558593c1.855469 0 3.636719-.738281 4.949219-2.050781l50.277344-50.28125c1.769531-1.851563 4.398437-2.605469 6.878906-1.960938 2.480469.640625 4.414063 2.578125 5.058594 5.058594.640625 2.476562-.113281 5.109375-1.96875 6.875l-30.398437 30.402344c-2 2-2.597657 5.007812-1.515626 7.625 1.082032 2.613281 3.632813 4.320312 6.464844 4.320312h29.636719c1.859375 0 3.636719-.738281 4.949219-2.050781l50.269531-50.265625c2.75-2.761719 7.222656-2.765625 9.984375-.015625 2.761719 2.753906 2.765625 7.222656.015625 9.984375l-30.402344 30.402344c-2 2-2.597656 5.007812-1.515625 7.625 1.082032 2.613281 3.632813 4.320312 6.464844 4.320312h20.476562c3.828126.09375 6.882813 3.222656 6.882813 7.050781s-3.054687 6.957031-6.882813 7.050781h-20.476562c-2.832031 0-5.382812 1.707032-6.464844 4.320313-1.082031 2.617187-.484375 5.625 1.515625 7.628906l30.402344 30.398438c2.636719 2.769531 2.585937 7.140625-.121094 9.847656s-7.074219 2.761719-9.847656.125l-50.28125-50.28125c-1.3125-1.3125-3.089844-2.050781-4.945313-2.050781h-29.640624c-2.847657-.015625-5.417969 1.691406-6.507813 4.320312-1.089844 2.625-.480469 5.652344 1.542969 7.65625l30.398437 30.398438c2.640625 2.773437 2.585938 7.140625-.117187 9.847656-2.707032 2.707031-7.078125 2.761719-9.851563.125l-50.269531-50.273438c-1.3125-1.3125-3.09375-2.050781-4.949219-2.050781h-27.5625c-2.636719 0-5.046875 1.476563-6.242187 3.828125-1.136719 2.25-2.621094 4.308594-4.398438 6.09375l-7.207031 7.183594c-1.316406 1.308594-2.054687 3.089844-2.054687 4.949219 0 1.855469.738281 3.636719 2.054687 4.949219l73.261719 73.242187c1.3125 1.316406 3.09375 2.050781 4.949218 2.054687h71.109376c3.890624 0 7.046874 3.15625 7.046874 7.046876 0 3.890624-3.15625 7.046874-7.046874 7.046874h-43.007813c-2.832031.003907-5.382813 1.707032-6.464844 4.324219-1.082031 2.613281-.484375 5.621094 1.515625 7.625l14.480469 14.480469c1.324219 1.320312 2.066406 3.113281 2.066406 4.984375 0 1.867187-.742187 3.664063-2.066406 4.984375-2.785156 2.667969-7.179687 2.667969-9.964844 0l-14.480469-14.480469c-2-2-5.011718-2.597656-7.625-1.515625-2.617187 1.082032-4.320312 3.632813-4.324218 6.460938v43.015625c0 3.890625-3.152344 7.046875-7.046875 7.046875-3.890625 0-7.046875-3.15625-7.046875-7.046875v-27.011719c0-3.863281-3.132813-7-7-7-3.867188 0-7 3.136719-7 7v27.011719c0 11.621093 9.421875 21.046875 21.046875 21.046875s21.046875-9.425782 21.046875-21.046875v-26.121094l2.53125 2.53125c5.304687 5.363281 13.078125 7.472656 20.367187 5.53125 7.292969-1.9375 12.988281-7.632813 14.929688-14.925781 1.941406-7.289063-.167969-15.0625-5.53125-20.371094l-2.53125-2.53125h26.113281c11.625 0 21.046875-9.421875 21.046875-21.046875s-9.421875-21.046875-21.046875-21.046875h-68.21875l-66.242188-66.242188 2.226563-2.226562c1.777344-1.777344 3.371094-3.730469 4.761719-5.824219h20.65625l48.230468 48.230469c5.308594 5.363281 13.082032 7.472656 20.371094 5.53125 7.292969-1.941406 12.984375-7.636719 14.925782-14.925781 1.941406-7.292969-.171876-15.0625-5.53125-20.371094l-18.460938-18.460937h9.84375l48.226562 48.230468c8.261719 7.992188 21.402344 7.882813 29.527344-.246094 8.125-8.125 8.230469-21.265624.238282-29.523437zm0 0" fill="#002d42"/></svg>