<svg height="469pt" viewBox="0 -8 469.01665 469" width="469pt" xmlns="http://www.w3.org/2000/svg"><path d="m53.0625 116.625c-3.519531-27.554688 10.046875-54.484375 34.285156-68.054688 24.234375-13.574218 54.285156-11.070312 75.941406 6.328126 23.976563-35.453126 66.507813-53.5625 108.683594-46.277344 42.175782 7.289062 76.164063 38.621094 86.851563 80.066406 26.53125-12.992188 58.3125-8.378906 80.054687 11.625 21.738282 20 28.980469 51.289062 18.238282 78.808594-10.742188 27.515625-37.265626 45.628906-66.804688 45.613281h-328.878906c-28.414063.015625-52.050782-21.847656-54.242188-50.175781-2.195312-28.332032 17.792969-53.570313 45.871094-57.933594zm0 0" fill="#d9ecf2"/><path d="m385.847656 217.734375h-7.878906l6.96875-6.96875c2.734375-2.734375 2.734375-7.164063 0-9.898437-2.734375-2.734376-7.167969-2.734376-9.902344 0l-16.863281 16.867187h-23.027344l16.769531-16.761719c2.730469-2.730468 2.730469-7.164062 0-9.898437-2.734374-2.734375-7.167968-2.734375-9.902343 0l-16.765625 16.769531v-23.035156l16.867187-16.867188c2.734375-2.734375 2.734375-7.164062 0-9.898437s-7.167969-2.734375-9.902343 0l-6.964844 6.972656v-7.886719c0-3.863281-3.136719-7-7-7-3.867188 0-7 3.136719-7 7v7.886719l-6.96875-6.96875c-2.734375-2.734375-7.167969-2.734375-9.902344 0-2.730469 2.734375-2.730469 7.164063 0 9.898437l16.871094 16.867188v23.03125l-16.769532-16.769531c-2.734374-2.734375-7.167968-2.734375-9.898437 0-2.734375 2.734375-2.734375 7.167969 0 9.898437l16.765625 16.769532h-23.023438l-16.867187-16.867188c-2.734375-2.734375-7.167969-2.734375-9.902344 0-2.730469 2.734375-2.730469 7.164062 0 9.898438l6.960938 6.960937h-7.878907c-3.867187 0-7 3.132813-7 7h146.679688c.851562 0 1.679688-.101563 2.523438-.128906-.066407-3.8125-3.171876-6.871094-6.988282-6.871094zm0 0" fill="#bdd9e5"/><path d="m390.3125 81.328125c-6.484375.003906-12.933594.902344-19.171875 2.667969 34.550781 9.574218 56.710937 43.210937 51.871094 78.738281-4.835938 35.527344-35.183594 62.011719-71.039063 62h38.339844c39.601562 0 71.703125-32.101563 71.703125-71.703125s-32.101563-71.703125-71.703125-71.703125zm0 0" fill="#bdd9e5"/><path d="m320.480469 88.683594c9.792969-4.832032 20.566406-7.351563 31.488281-7.359375 1.601562 0 3.136719.132812 4.699219.234375-17-51.34375-69.167969-82.375-122.398438-72.800782 41.875 7.527344 75.539063 38.738282 86.210938 79.925782zm0 0" fill="#bdd9e5"/><path d="m357.085938 141.496094s21.707031-11.082032 22.503906-59.324219c-7.214844 1.101563-14.214844 3.296875-20.765625 6.511719 3.609375 17.492187 3.011719 35.59375-1.738281 52.8125zm0 0" fill="#bdd9e5"/><path d="m133.046875 296.175781h26c3.867187 0 7-3.136719 7-7 0-3.867187-3.132813-7-7-7h-12l8.347656-8.34375c2.730469-2.734375 2.730469-7.167969 0-9.902343-2.734375-2.734376-7.167969-2.734376-9.902343 0l-8.339844 8.363281v-12c0-3.863281-3.132813-7-7-7-3.867188 0-7 3.136719-7 7v26l-10.800782 10.800781-10.800781-10.800781v-26c0-3.863281-3.132812-7-7-7-3.863281 0-7 3.136719-7 7v12l-8.316406-8.34375c-2.734375-2.734375-7.167969-2.734375-9.902344 0s-2.734375 7.167969 0 9.902343l8.347657 8.324219h-12c-3.863282 0-7 3.132813-7 7 0 3.863281 3.136718 7 7 7h26l10.800781 10.796875-10.800781 10.800782h-26c-3.863282 0-7 3.136718-7 7 0 3.867187 3.136718 7 7 7h12l-8.34375 8.34375c-2.734376 2.734374-2.734376 7.167968 0 9.902343 2.734374 2.734375 7.167968 2.734375 9.902343 0l8.34375-8.34375v12c0 3.863281 3.132813 7 7 7 3.863281 0 7-3.136719 7-7v-26l10.796875-10.800781 10.800782 10.800781v26c0 3.863281 3.136718 7 7 7 3.867187 0 7-3.136719 7-7v-12l8.34375 8.34375c2.734374 2.734375 7.167968 2.734375 9.902343 0s2.734375-7.167969 0-9.902343l-8.378906-8.34375h12c3.867187 0 7-3.132813 7-7 0-3.863282-3.132813-7-7-7h-26l-10.796875-10.800782zm0 0" fill="#26a3b9"/><path d="m147.773438 263.949219c1.3125 1.3125 2.050781 3.09375 2.050781 4.953125 0 1.855468-.738281 3.636718-2.050781 4.949218l-8.34375 8.324219h7.617187l8.347656-8.34375c2.5-2.539062 2.695313-6.554687.449219-9.320312-2.246094-2.769531-6.210938-3.40625-9.210938-1.480469.410157.265625.792969.574219 1.140626.917969zm0 0" fill="#168aa5"/><path d="m93.957031 260.304688v26l10.800781 10.800781 3.8125-3.8125-6.992187-7v-26c0-2.5625-1.402344-4.921875-3.65625-6.144531-2.253906-1.222657-4.996094-1.113282-7.144531.285156 1.988281 1.292968 3.183594 3.503906 3.179687 5.871094zm0 0" fill="#168aa5"/><path d="m129.527344 260.304688v12l7.621094-7.617188v-4.382812c0-2.5625-1.402344-4.921876-3.65625-6.144532-2.253907-1.222656-4.996094-1.113281-7.144532.285156 1.984375 1.289063 3.183594 3.496094 3.179688 5.859376zm0 0" fill="#168aa5"/><path d="m158.417969 289.195312c0 3.863282-3.136719 7-7 7h7.617187c3.867188 0 7-3.136718 7-7 0-3.867187-3.132812-7-7-7h-7.617187c3.863281 0 7 3.132813 7 7zm0 0" fill="#168aa5"/><path d="m125.429688 296.195312-10.789063 10.78125 10.789063 10.785157h7.617187l-10.78125-10.785157 10.78125-10.78125zm0 0" fill="#168aa5"/><path d="m129.527344 341.664062v12c0 2.367188-1.207032 4.574219-3.199219 5.859376 2.148437 1.398437 4.890625 1.507812 7.144531.285156s3.65625-3.582032 3.65625-6.144532v-4.382812zm0 0" fill="#168aa5"/><path d="m147.046875 331.773438h-7.617187l8.34375 8.34375c1.488281 1.492187 2.226562 3.578124 2.003906 5.671874-.222656 2.097657-1.375 3.980469-3.144532 5.128907 3 1.925781 6.964844 1.289062 9.210938-1.480469s2.050781-6.78125-.449219-9.320312zm0 0" fill="#168aa5"/><path d="m71.613281 263.949219 8.34375 8.34375v-7.617188l-.722656-.726562c-2.339844-2.335938-5.992187-2.71875-8.761719-.917969.410156.265625.792969.574219 1.140625.917969zm0 0" fill="#168aa5"/><path d="m159.035156 317.773438h-7.617187c3.863281 0 7 3.136718 7 7 0 3.867187-3.136719 7-7 7h7.617187c3.867188 0 7-3.132813 7-7 0-3.863282-3.132812-7-7-7zm0 0" fill="#168aa5"/><path d="m79.957031 341.664062-8.34375 8.34375c-.347656.34375-.730469.652344-1.140625.917969 2.769532 1.804688 6.425782 1.421875 8.761719-.917969l.722656-.726562zm0 0" fill="#168aa5"/><path d="m104.746094 316.878906-10.800782 10.800782v26c-.003906 2.367187-1.207031 4.574218-3.199218 5.859374 2.148437 1.398438 4.890625 1.507813 7.144531.285157 2.253906-1.222657 3.65625-3.582031 3.652344-6.144531v-26l6.976562-6.976563zm0 0" fill="#168aa5"/><path d="m385.851562 224.734375c0-3.867187-3.132812-7-7-7h-7.882812l6.96875-6.96875c2.734375-2.734375 2.734375-7.164063 0-9.898437-2.734375-2.734376-7.167969-2.734376-9.902344 0l-16.863281 16.867187h-23.027344l16.769531-16.761719c2.730469-2.730468 2.730469-7.164062 0-9.898437-2.734374-2.734375-7.167968-2.734375-9.902343 0l-16.765625 16.769531v-23.035156l16.867187-16.867188c2.734375-2.734375 2.734375-7.164062 0-9.898437s-7.167969-2.734375-9.902343 0l-6.960938 6.972656v-7.886719c0-3.863281-3.136719-7-7-7-3.867188 0-7 3.136719-7 7v7.886719l-6.96875-6.96875c-2.734375-2.734375-7.167969-2.734375-9.902344 0-2.730468 2.734375-2.730468 7.164063 0 9.898437l16.871094 16.867188v23.03125l-16.769531-16.769531c-2.734375-2.734375-7.164063-2.734375-9.898438 0s-2.734375 7.167969 0 9.898437l16.765625 16.769532h-23.035156l-16.867188-16.867188c-2.734374-2.734375-7.167968-2.734375-9.902343 0-2.730469 2.734375-2.730469 7.164062 0 9.898438l6.96875 6.96875h-7.878907c-3.867187 0-7 3.132812-7 7 0 3.867187 3.132813 7 7 7h7.878907l-6.96875 6.96875c-2.730469 2.734374-2.730469 7.164062 0 9.898437 2.734375 2.734375 7.167969 2.734375 9.902343 0l16.867188-16.875h23.027344l-16.765625 16.769531c-2.734375 2.730469-2.734375 7.164063 0 9.898438 2.730469 2.734375 7.164062 2.734375 9.898437 0l16.769532-16.769532v23.03125l-16.871094 16.867188c-2.730469 2.734375-2.730469 7.164062 0 9.898438 2.734375 2.734374 7.167968 2.734374 9.902344 0l6.96875-6.96875v7.882812c0 3.863281 3.132812 7 7 7 3.863281 0 7-3.136719 7-7v-7.882812l6.964843 6.96875c2.734375 2.734374 7.167969 2.734374 9.902344 0 2.734375-2.734376 2.734375-7.164063 0-9.898438l-16.867187-16.867188v-23.03125l16.765624 16.769532c2.734376 2.734375 7.164063 2.738281 9.902344.003906 2.734375-2.734375 2.734375-7.164062.003906-9.898438l-16.769531-16.773437h23.027344l16.867187 16.867187c2.734376 2.734376 7.167969 2.734376 9.902344 0 2.734375-2.734374 2.734375-7.164062 0-9.898437l-6.972656-6.96875h7.882812c3.867188 0 7-3.132813 7-7zm0 0" fill="#26a3b9"/><g fill="#168aa5"><path d="m280.695312 191.066406 16.769532 16.769532v-6.800782l-10-10c-2.210938-2.203125-5.617188-2.667968-8.339844-1.140625.578125.3125 1.105469.707031 1.570312 1.171875zm0 0"/><path d="m287.476562 258.402344 10-10v-6.800782l-16.769531 16.769532c-.460937.449218-.988281.835937-1.558593 1.140625 2.71875 1.554687 6.140624 1.085937 8.339843-1.140625zm0 0"/><path d="m290.511719 158.046875 6.96875 6.96875v-6.800781l-.1875-.1875c-2.210938-2.203125-5.617188-2.667969-8.339844-1.140625.570313.3125 1.097656.703125 1.558594 1.160156zm0 0"/><path d="m247.671875 200.871094 16.867187 16.867187h6.800782l-16.867188-16.867187c-2.210937-2.203125-5.617187-2.667969-8.339844-1.140625.5625.308593 1.082032.691406 1.539063 1.140625zm0 0"/><path d="m371.15625 200.871094c1.3125 1.3125 2.050781 3.09375 2.050781 4.949218 0 1.855469-.738281 3.636719-2.050781 4.949219l-6.96875 6.964844h6.800781l6.96875-6.96875c2.484375-2.457031 2.765625-6.378906.660157-9.167969-2.109376-2.789062-5.957032-3.589844-9-1.871094.5625.308594 1.082031.691407 1.539062 1.144532zm0 0"/><path d="m328.332031 158.046875c1.316407 1.3125 2.054688 3.09375 2.054688 4.949219 0 1.855468-.738281 3.636718-2.054688 4.949218l-16.867187 16.867188v23.03125l6.800781-6.800781v-16.234375l16.867187-16.867188c2.484376-2.457031 2.765626-6.378906.660157-9.167968-2.109375-2.789063-5.957031-3.589844-9-1.871094.5625.308594 1.082031.691406 1.539062 1.144531zm0 0"/><path d="m338.132812 191.066406c1.3125 1.3125 2.050782 3.09375 2.050782 4.949219 0 1.859375-.738282 3.636719-2.050782 4.949219l-16.769531 16.769531h6.800781l16.75-16.761719c2.484376-2.457031 2.765626-6.375.65625-9.167968-2.105468-2.789063-5.953124-3.589844-8.996093-1.871094.570312.304687 1.09375.683594 1.558593 1.132812zm0 0"/><path d="m311.464844 157.128906v7.886719l6.800781-6.800781v-1.105469c0-3.863281-3.136719-7-7-7-1.191406.007813-2.359375.324219-3.394531.914063 2.222656 1.230468 3.597656 3.570312 3.59375 6.105468zm0 0"/><path d="m370.96875 231.734375h-6.800781l6.96875 6.96875c1.3125 1.3125 2.050781 3.09375 2.050781 4.949219 0 1.855468-.738281 3.636718-2.050781 4.949218-.464844.453126-.988281.835938-1.558594 1.140626 3.042969 1.71875 6.890625.917968 8.996094-1.871094 2.109375-2.789063 1.828125-6.710938-.65625-9.167969zm0 0"/><path d="m328.144531 231.734375h-6.800781l16.769531 16.769531c1.3125 1.3125 2.050781 3.089844 2.050781 4.949219 0 1.855469-.738281 3.636719-2.050781 4.949219-.464843.449218-.988281.835937-1.5625 1.140625 3.046875 1.71875 6.894531.917969 9-1.871094 2.109375-2.792969 1.828125-6.710937-.65625-9.167969zm0 0"/><path d="m264.539062 231.734375-16.867187 16.867187c-.464844.453126-.988281.835938-1.558594 1.140626 2.714844 1.554687 6.140625 1.085937 8.339844-1.140626l16.859375-16.867187zm0 0"/><path d="m378.851562 217.734375h-6.800781c3.867188 0 7 3.132813 7 7s-3.132812 7-7 7h6.800781c3.867188 0 7-3.132813 7-7s-3.132812-7-7-7zm0 0"/><path d="m297.464844 284.457031-6.953125 6.96875c-.464844.453125-.988281.835938-1.558594 1.140625 2.722656 1.527344 6.128906 1.0625 8.339844-1.140625l.1875-.1875zm0 0"/><path d="m311.464844 284.457031v7.882813c-.003906 2.53125-1.382813 4.863281-3.601563 6.085937 1.035157.589844 2.203125.90625 3.394531.914063 3.863282 0 7-3.136719 7-7v-1.101563zm0 0"/><path d="m318.25 264.664062v-16.25l-6.800781-6.800781v23.027344l16.867187 16.871094c1.3125 1.3125 2.050782 3.089843 2.050782 4.949219 0 1.855468-.738282 3.636718-2.050782 4.949218-.464844.453125-.988281.835938-1.558594 1.140625 3.042969 1.71875 6.890626.917969 8.996094-1.871093 2.109375-2.789063 1.828125-6.710938-.65625-9.167969zm0 0"/></g><path d="m314.015625 380.972656h-14.5l10.402344-10.398437c2.734375-2.734375 2.734375-7.164063 0-9.898438s-7.167969-2.734375-9.902344 0l-20.304687 20.296875h-5.859376c-2.035156-5.421875-6.316406-9.703125-11.738281-11.738281v-5.859375l20.296875-20.296875c2.734375-2.730469 2.738282-7.164063.003906-9.902344-2.730468-2.734375-7.164062-2.738281-9.902343-.003906l-10.398438 10.398437v-14.503906c0-3.867187-3.132812-7-7-7-3.867187 0-7 3.132813-7 7v14.5l-10.402343-10.398437c-2.730469-2.734375-7.164063-2.734375-9.898438 0-2.734375 2.730469-2.734375 7.164062 0 9.898437l20.300781 20.308594v5.867188c-5.433593 2.035156-9.71875 6.324218-11.757812 11.757812h-5.886719l-20.296875-20.304688c-2.757813-2.535156-7.027344-2.445312-9.675781.203126-2.652344 2.644531-2.75 6.910156-.222656 9.675781l10.398437 10.398437h-14.5c-3.863281 0-7 3.136719-7 7 0 3.867188 3.136719 7 7 7h14.5l-10.398437 10.402344c-2.734376 2.734375-2.734376 7.164062 0 9.898438 2.734374 2.734374 7.164062 2.734374 9.898437 0l20.296875-20.300782h5.867188c2.039062 5.433594 6.324218 9.722656 11.757812 11.757813v5.867187l-20.296875 20.296875c-2.734375 2.734375-2.734375 7.167969 0 9.898438 2.734375 2.734375 7.164063 2.734375 9.898437 0l10.402344-10.398438v14.503907c0 3.867187 3.132813 7 7 7 3.863282 0 7-3.132813 7-7v-14.503907l10.398438 10.398438c2.734375 2.734375 7.167968 2.734375 9.902344 0 2.730468-2.730469 2.730468-7.164063 0-9.898438l-20.285157-20.28125v-5.867187c5.429688-2.042969 9.710938-6.335938 11.738281-11.773438h5.859376l20.296874 20.296875c2.734376 2.734375 7.167969 2.734375 9.902344 0 2.730469-2.734375 2.730469-7.164062 0-9.898437l-10.402344-10.402344h14.5c3.867188 0 7-3.132812 7-7 0-3.863281-3.132812-7-7-7zm-58.917969 13.085938c-3.359375 0-6.085937-2.722656-6.085937-6.085938 0-3.359375 2.726562-6.082031 6.085937-6.082031s6.082032 2.722656 6.082032 6.082031c.003906 3.367188-2.71875 6.097656-6.082032 6.101563zm0 0" fill="#26a3b9"/><path d="m231.664062 333.171875 10.402344 10.398437v-6.035156l-4.355468-4.363281c-2.097657-2.09375-5.292969-2.628906-7.960938-1.335937.707031.332031 1.355469.785156 1.914062 1.335937zm0 0" fill="#168aa5"/><path d="m256.0625 329.066406v14.5l6.050781-6.03125v-8.46875c.011719-2.402344-1.21875-4.640625-3.253906-5.921875s-4.585937-1.417969-6.746094-.371093c2.414063 1.164062 3.949219 3.613281 3.949219 6.292968zm0 0" fill="#168aa5"/><path d="m204.140625 360.695312 20.296875 20.296876h5.867188c0-.042969.039062-.074219.054687-.109376l-20.1875-20.1875c-2.101563-2.09375-5.292969-2.628906-7.964844-1.335937.71875.332031 1.371094.78125 1.933594 1.335937zm0 0" fill="#168aa5"/><path d="m303.878906 360.695312c1.316406 1.3125 2.054688 3.09375 2.054688 4.949219s-.738282 3.636719-2.054688 4.949219l-10.398437 10.402344h6.03125l10.402343-10.402344c2.386719-2.410156 2.695313-6.1875.730469-8.957031-1.964843-2.765625-5.632812-3.71875-8.695312-2.261719.714843.328125 1.367187.773438 1.929687 1.320312zm0 0" fill="#168aa5"/><path d="m249.007812 387.992188c.007813-2.175782 1.179688-4.179688 3.070313-5.253907-.914063-.539062-1.957031-.824219-3.015625-.832031-3.363281 0-6.085938 2.726562-6.085938 6.085938 0 3.363281 2.722657 6.085937 6.085938 6.085937 1.058594-.003906 2.101562-.292969 3.015625-.832031-1.890625-1.074219-3.0625-3.082032-3.070313-5.253906zm0 0" fill="#168aa5"/><path d="m276.355469 333.171875c1.316406 1.3125 2.054687 3.089844 2.054687 4.949219 0 1.855468-.738281 3.636718-2.054687 4.949218l-20.292969 20.304688v5.867188c5.429688 2.035156 9.71875 6.324218 11.753906 11.757812h5.867188l.109375-.109375c-2.042969-5.378906-6.296875-9.625-11.679688-11.65625v-5.859375l20.296875-20.296875c2.410156-2.40625 2.734375-6.203125.761719-8.984375-1.96875-2.777344-5.65625-3.730469-8.726563-2.25.707032.332031 1.351563.78125 1.910157 1.328125zm0 0" fill="#168aa5"/><path d="m299.515625 394.972656h-6.03125l10.398437 10.402344c1.625 1.59375 2.367188 3.882812 1.980469 6.125s-1.847656 4.152344-3.910156 5.109375c3.070313 1.480469 6.757813.527344 8.730469-2.253906 1.96875-2.777344 1.644531-6.574219-.765625-8.980469zm0 0" fill="#168aa5"/><path d="m314.015625 380.972656h-6.03125c3.867187 0 7 3.136719 7 7 0 3.867188-3.132813 7-7 7h6.03125c3.867187 0 7-3.132812 7-7 0-3.863281-3.132813-7-7-7zm0 0" fill="#168aa5"/><path d="m262.113281 412.613281v-5.867187c5.390625-2.023438 9.648438-6.265625 11.699219-11.648438l-.128906-.125h-5.867188c-2.035156 5.433594-6.324218 9.722656-11.753906 11.757813v5.867187l20.292969 20.296875c1.625 1.59375 2.367187 3.882813 1.980469 6.125-.386719 2.242188-1.847657 4.152344-3.910157 5.109375 3.070313 1.480469 6.757813.527344 8.726563-2.25 1.972656-2.78125 1.648437-6.578125-.765625-8.984375zm0 0" fill="#168aa5"/><path d="m242.0625 432.410156-10.402344 10.398438c-.5625.554687-1.214844 1.003906-1.929687 1.335937 2.667969 1.292969 5.859375.757813 7.960937-1.335937l4.367188-4.363282zm0 0" fill="#168aa5"/><path d="m256.0625 432.410156v14.503906c-.007812 2.695313-1.566406 5.140626-4 6.292969 2.160156 1.050781 4.710938.910157 6.746094-.371093 2.03125-1.28125 3.261718-3.519532 3.253906-5.921876v-8.472656zm0 0" fill="#168aa5"/><path d="m230.304688 394.972656h-5.867188l-20.296875 20.296875c-.5625.554688-1.214844 1.003907-1.933594 1.335938 2.667969 1.316406 5.875.78125 7.964844-1.335938l20.1875-20.1875c-.015625-.019531-.039063-.050781-.054687-.109375zm0 0" fill="#168aa5"/><path d="m222.339844 277.019531c0 7.226563-5.855469 13.082031-13.082032 13.082031-7.226562 0-13.085937-5.855468-13.085937-13.082031 0-7.226562 5.859375-13.085937 13.085937-13.085937 7.226563 0 13.082032 5.859375 13.082032 13.085937zm150.648437 54.753907c-9.664062.011718-17.488281 7.851562-17.484375 17.511718.003906 9.664063 7.839844 17.496094 17.5 17.496094 9.664063.003906 17.5-7.824219 17.507813-17.488281.003906-4.648438-1.839844-9.105469-5.128907-12.394531-3.285156-3.285157-7.746093-5.128907-12.394531-5.125zm-236.988281 64.125c-7.976562 0-14.441406 6.464843-14.441406 14.445312 0 7.976562 6.464844 14.441406 14.441406 14.441406s14.445312-6.464844 14.445312-14.441406c0-7.980469-6.46875-14.445312-14.445312-14.445312zm0 0" fill="#d9ecf2"/><path d="m209.257812 263.933594c-1.84375.003906-3.664062.402344-5.339843 1.164062 4.707031 2.097656 7.746093 6.769532 7.746093 11.921875 0 5.15625-3.039062 9.828125-7.746093 11.921875 4.867187 2.183594 10.574219 1.1875 14.417969-2.511718 3.84375-3.699219 5.050781-9.363282 3.054687-14.3125-1.996094-4.949219-6.796875-8.1875-12.132813-8.183594zm0 0" fill="#bdd9e5"/><path d="m136 395.894531c-1.828125.007813-3.640625.363281-5.339844 1.046875 5.507813 2.167969 9.128906 7.484375 9.128906 13.402344s-3.621093 11.230469-9.128906 13.398438c5.402344 2.15625 11.570313.859374 15.644532-3.289063 4.074218-4.148437 5.261718-10.339844 3.011718-15.699219-2.25-5.363281-7.5-8.851562-13.316406-8.847656zm0 0" fill="#bdd9e5"/><path d="m372.988281 331.773438c-1.816406.027343-3.617187.335937-5.339843.921874 7.238281 2.28125 12.160156 8.996094 12.160156 16.585938s-4.921875 14.300781-12.160156 16.585938c1.722656.585937 3.523437.894531 5.339843.917968 9.667969 0 17.503907-7.835937 17.503907-17.503906 0-9.664062-7.835938-17.503906-17.503907-17.503906zm0 0" fill="#bdd9e5"/><path d="m469.015625 153.03125c-.050781 43.445312-35.257813 78.648438-78.703125 78.703125h-19.34375l6.96875 6.96875c2.734375 2.734375 2.734375 7.164063 0 9.898437-2.734375 2.734376-7.167969 2.734376-9.902344 0l-16.863281-16.867187h-23.027344l16.769531 16.773437c2.730469 2.734376 2.730469 7.164063 0 9.898438-2.734374 2.734375-7.167968 2.734375-9.902343 0l-16.765625-16.769531v23.03125l16.867187 16.867187c2.734375 2.734375 2.734375 7.164063 0 9.898438s-7.167969 2.734375-9.902343 0l-6.964844-6.96875v7.882812c0 3.863282-3.136719 7-7 7-3.867188 0-7-3.136718-7-7v-7.882812l-6.96875 6.96875c-2.734375 2.734375-7.167969 2.734375-9.902344 0-2.730469-2.734375-2.730469-7.164063 0-9.898438l16.871094-16.867187v-23.035157l-16.769532 16.769532c-2.734374 2.734375-7.167968 2.734375-9.898437 0-2.734375-2.734375-2.734375-7.167969 0-9.898438l16.765625-16.769531h-23.03125l-16.867188 16.867187c-2.734374 2.734376-7.167968 2.734376-9.902343 0-2.730469-2.734374-2.730469-7.164062 0-9.898437l6.96875-6.96875h-7.878907c-3.867187 0-7-3.132813-7-7s3.132813-7 7-7h7.878907l-6.96875-6.96875c-2.730469-2.734375-2.730469-7.164063 0-9.898437 2.734375-2.734376 7.167969-2.734376 9.902343 0l16.867188 16.867187h23.027344l-16.757813-16.761719c-2.734375-2.730468-2.734375-7.164062 0-9.898437s7.164063-2.734375 9.898438 0l16.769531 16.769531v-23.035156l-16.871094-16.867188c-2.730468-2.734375-2.730468-7.164062 0-9.898437 2.734375-2.734375 7.167969-2.734375 9.902344 0l6.96875 6.96875v-7.882813c0-3.863281 3.132812-7 7-7 3.863281 0 7 3.136719 7 7v7.886719l6.964844-6.96875c2.734375-2.734375 7.167968-2.734375 9.902344 0 2.734374 2.734375 2.734374 7.164063 0 9.898437l-16.867188 16.867188v23.03125l16.765625-16.769531c2.75-2.652344 7.113281-2.613281 9.8125.085937 2.699219 2.703125 2.738281 7.066406.085937 9.8125l-16.769531 16.761719h23.027344l16.867187-16.867187c2.734376-2.734376 7.167969-2.734376 9.902344 0 2.734375 2.734374 2.734375 7.164062 0 9.898437l-6.972656 6.96875h19.34375c35.734375 0 64.707031-28.96875 64.707031-64.707031 0-35.734375-28.972656-64.703125-64.707031-64.703125-8.109375.027343-16.140625 1.605469-23.65625 4.648437 2.726562 16.929688 1.722656 34.25-2.945312 50.75-1.265626 3.613282-5.199219 5.542969-8.832032 4.324219-3.628906-1.21875-5.609375-5.128906-4.4375-8.777344 4.289063-15.988281 4.820313-32.75 1.546875-48.980469-10.050781-38.738281-41.859375-67.996093-81.300781-74.78125-39.441406-6.78125-79.199219 10.167969-101.613281 43.324219-1.097657 1.617188-2.820313 2.699219-4.753907 2.992188-1.929687.289062-3.898437-.242188-5.417968-1.464844-15.160156-12.175781-35.203125-16.417969-53.992188-11.425781-18.789062 4.988281-34.089844 18.613281-41.210937 36.703125-.890625 2.363281-2.984375 4.058593-5.480469 4.445312-2.496094.382813-5.003906-.605469-6.566406-2.585937-1.558594-1.984375-1.933594-4.65625-.976563-6.988282 8.28125-21.027343 25.582031-37.207031 47.113281-44.070312s45.003907-3.675781 63.921876 8.679688c26.128906-33.890626 68.820312-50.617188 111.019531-43.492188 42.195312 7.125 77.027343 36.9375 90.582031 77.53125 8.644531-3.207031 17.789062-4.839844 27.007812-4.828125 43.441407.054687 78.644532 35.261719 78.695313 78.703125zm-407.582031 78.703125h115.648437c3.863281 0 7-3.132813 7-7s-3.136719-7-7-7h-115.648437c-24.761719.019531-45.359375-19.03125-47.273438-43.714844-1.914062-24.6875 15.503906-46.679687 39.972656-50.476562 3.742188-.582031 6.34375-4.035157 5.871094-7.792969-.339844-2.542969-.523437-5.109375-.539062-7.675781 0-3.867188-3.132813-7-7-7-3.867188 0-7 3.132812-7 7 0 .980469.023437 1.964843.070312 2.980469-29.773437 7.957031-49.035156 36.757812-45.007812 67.316406 4.023437 30.554687 30.085937 53.390625 60.90625 53.363281zm160.90625 0c3.867187 0 7-3.132813 7-7s-3.132813-7-7-7h-17.121094c-3.863281 0-7 3.132813-7 7s3.136719 7 7 7zm-89.292969 64.441406h26c3.867187 0 7-3.136719 7-7 0-3.867187-3.132813-7-7-7h-12l8.347656-8.34375c2.730469-2.734375 2.730469-7.167969 0-9.902343-2.734375-2.734376-7.167969-2.734376-9.902343 0l-8.339844 8.363281v-12c0-3.863281-3.132813-7-7-7-3.867188 0-7 3.136719-7 7v26l-10.800782 10.800781-10.800781-10.800781v-26c0-3.863281-3.132812-7-7-7-3.863281 0-7 3.136719-7 7v12l-8.316406-8.34375c-2.734375-2.734375-7.167969-2.734375-9.902344 0s-2.734375 7.167969 0 9.902343l8.347657 8.324219h-12c-3.863282 0-7 3.132813-7 7 0 3.863281 3.136718 7 7 7h26l10.800781 10.796875-10.800781 10.800782h-26c-3.863282 0-7 3.136718-7 7 0 3.867187 3.136718 7 7 7h12l-8.34375 8.34375c-2.734376 2.734374-2.734376 7.167968 0 9.902343 2.734374 2.734375 7.167968 2.734375 9.902343 0l8.34375-8.34375v12c0 3.863281 3.132813 7 7 7 3.863281 0 7-3.136719 7-7v-26l10.796875-10.800781 10.800782 10.800781v26c0 3.863281 3.136718 7 7 7 3.867187 0 7-3.136719 7-7v-12l8.34375 8.34375c2.734374 2.734375 7.167968 2.734375 9.902343 0s2.734375-7.167969 0-9.902343l-8.378906-8.34375h12c3.867187 0 7-3.132813 7-7 0-3.863282-3.132813-7-7-7h-26l-10.796875-10.800782zm56.125 91.792969c0-3.863281 3.136719-7 7-7h14.5l-10.398437-10.398438c-2.734376-2.734374-2.734376-7.167968 0-9.898437 2.734374-2.734375 7.164062-2.734375 9.898437 0l20.296875 20.292969h5.867188c2.046874-5.425782 6.339843-9.703125 11.777343-11.730469v-5.859375l-20.296875-20.296875c-2.734375-2.730469-2.738281-7.164063-.003906-9.902344 2.730469-2.734375 7.164062-2.738281 9.898438-.003906l10.402343 10.398437v-14.503906c0-3.867187 3.132813-7 7-7 3.867188 0 7 3.132813 7 7v14.5l10.398438-10.398437c2.734375-2.734375 7.167969-2.734375 9.902343 0 2.730469 2.730469 2.730469 7.164062 0 9.898437l-20.300781 20.308594v5.867188c5.433594 2.035156 9.71875 6.324218 11.753907 11.757812h5.84375l20.296874-20.296875c2.757813-2.535156 7.023438-2.449219 9.679688.195313 2.652344 2.644531 2.753906 6.910156.230469 9.675781l-10.402344 10.398437h14.5c3.867187 0 7 3.136719 7 7 0 3.867188-3.132813 7-7 7h-14.5l10.402344 10.402344c2.734375 2.734375 2.734375 7.164062 0 9.898438-2.734375 2.734374-7.167969 2.734374-9.902344 0l-20.304687-20.300782h-5.859376c-2.035156 5.433594-6.320312 9.722656-11.753906 11.757813v5.867187l20.296875 20.296875c2.730469 2.734375 2.730469 7.167969 0 9.898438-2.734375 2.734375-7.167969 2.734375-9.902343 0l-10.398438-10.398438v14.503907c0 3.867187-3.136719 7-7 7-3.867188 0-7-3.132813-7-7v-14.503907l-10.402344 10.398438c-2.734375 2.734375-7.164062 2.734375-9.898437 0-2.734375-2.730469-2.734375-7.164063 0-9.898438l20.320312-20.28125v-5.867187c-5.445312-2.035156-9.738281-6.328125-11.777343-11.773438h-5.867188l-20.296875 20.296875c-2.746094 2.652344-7.109375 2.617188-9.8125-.082031-2.699219-2.699219-2.738281-7.066406-.085937-9.8125l10.398437-10.402344h-14.5c-3.859375 0-6.992187-3.121094-7-6.980468zm59.835937 0c0 3.363281 2.726563 6.085938 6.085938 6.085938s6.082031-2.722657 6.082031-6.085938c0-3.359375-2.722656-6.082031-6.082031-6.082031-3.367188.003906-6.089844 2.738281-6.085938 6.105469zm-39.75-131.039062c11.089844 0 20.082032 8.992187 20.082032 20.085937 0 11.089844-8.992188 20.082031-20.082032 20.082031-11.09375 0-20.085937-8.992187-20.085937-20.082031.015625-11.085937 9-20.070313 20.085937-20.085937zm-6.085937 20.085937c0 3.359375 2.726563 6.082031 6.085937 6.082031 3.359376 0 6.082032-2.722656 6.082032-6.082031s-2.722656-6.085937-6.082032-6.085937c-3.359374.003906-6.082031 2.730468-6.085937 6.089843zm169.820313 82.796875c-5.796876-.003906-10.496094-4.703125-10.503907-10.503906 0-3.863282-3.132812-7-7-7-3.867187 0-7 3.136718-7 7 0 13.535156 10.972657 24.503906 24.503907 24.503906 13.535156 0 24.503906-10.96875 24.503906-24.503906 0-13.53125-10.96875-24.503906-24.503906-24.503906-3.867188 0-7 3.136718-7 7 0 3.867187 3.132812 7 7 7 5.800781 0 10.503906 4.703124 10.503906 10.503906 0 5.804687-4.703125 10.503906-10.503906 10.503906zm-215.546876 50.527344c0 11.84375-9.597656 21.445312-21.441406 21.445312-11.84375.003906-21.445312-9.597656-21.445312-21.441406-.003906-11.84375 9.597656-21.445312 21.441406-21.445312 11.835938.011718 21.429688 9.605468 21.445312 21.441406zm-14 0c0-4.113282-3.332031-7.445313-7.445312-7.445313-4.109375 0-7.441406 3.332031-7.441406 7.445313 0 4.109375 3.332031 7.441406 7.441406 7.441406 4.109375-.003906 7.441406-3.332031 7.445312-7.441406zm0 0" fill="#002d42"/></svg>