<svg height="444pt" viewBox="0 -3 444.31093 444" width="444pt" xmlns="http://www.w3.org/2000/svg"><path d="m50.578125 110.78125c-3.34375-26.066406 9.484375-51.550781 32.414063-64.390625 22.929687-12.839844 51.359374-10.457031 71.835937 6.019531 22.671875-33.527344 62.890625-50.652344 102.769531-43.761718 39.882813 6.890624 72.023438 36.519531 82.132813 75.707031 25.089843-12.285157 55.144531-7.921875 75.703125 10.992187 20.558594 18.914063 27.40625 48.503906 17.25 74.527344-10.160156 26.023438-35.242188 43.148438-63.175782 43.132812h-310.996093c-26.863281.011719-49.210938-20.65625-51.289063-47.441406s16.8125-50.652344 43.355469-54.785156zm0 0" fill="#26a3b9"/><path d="m212.539062 209.144531c.082032-8.863281-4.859374-17.007812-12.753906-21.03125-7.894531-4.023437-17.390625-3.230469-24.511718 2.042969-7.117188 5.277344-10.640626 14.125-9.09375 22.851562h46c.226562-1.273437.347656-2.566406.359374-3.863281zm0 0" fill="#168aa5"/><path d="m310.488281 84.355469c8.472657-4.167969 17.722657-6.511719 27.160157-6.878907-15.695313-47.300781-63.097657-76.5-112.402344-69.230468 41.175781 5.832031 74.800781 35.855468 85.242187 76.109375zm0 0" fill="#168aa5"/><path d="m369.507812 77.394531c-4.910156.007813-9.804687.554688-14.59375 1.632813 33.828126 7.425781 56.617188 39.152344 52.855469 73.578125-3.761719 34.429687-32.871093 60.480469-67.503906 60.421875h29.242187c37.15625-.402344 67.066407-30.640625 67.066407-67.800782 0-37.15625-29.910157-67.394531-67.066407-67.796874zm0 0" fill="#168aa5"/><path d="m338.085938 134.296875c12.761718-16.753906 21.703124-36.09375 26.199218-56.667969-8.535156.667969-16.867187 2.953125-24.554687 6.730469 3.414062 16.542969 2.847656 33.65625-1.644531 49.9375zm0 0" fill="#168aa5"/><path d="m88.886719 259.996094c.003906 10.765625-8.722657 19.496094-19.488281 19.5-10.765626.003906-19.5-8.71875-19.503907-19.488282-.003906-10.765624 8.71875-19.496093 19.484375-19.503906 10.769532-.007812 19.503906 8.722656 19.507813 19.492188zm23.105469 132.613281c-10.769532 0-19.496094 8.726563-19.496094 19.496094 0 10.765625 8.726562 19.496093 19.496094 19.496093 10.765624 0 19.496093-8.730468 19.496093-19.496093 0-10.769531-8.730469-19.496094-19.496093-19.496094zm161.960937-34.9375c-10.765625 0-19.496094 8.730469-19.496094 19.496094 0 10.769531 8.730469 19.496093 19.496094 19.496093 10.769531 0 19.496094-8.726562 19.496094-19.496093 0-10.765625-8.726563-19.496094-19.496094-19.496094zm27.824219-122.597656c-13.761719 0-24.921875 11.15625-24.921875 24.921875s11.160156 24.925781 24.921875 24.925781c13.765625 0 24.925781-11.160156 24.925781-24.925781s-11.160156-24.921875-24.925781-24.921875zm-128.226563-49.300781c-12.902343 0-23.359375 10.457031-23.359375 23.359374 0 12.902344 10.457032 23.359376 23.359375 23.359376 12.902344 0 23.359375-10.457032 23.359375-23.359376 0-12.902343-10.457031-23.359374-23.359375-23.359374zm1.5625 127.726562c-7.769531 0-14.066406 6.300781-14.066406 14.070312 0 7.769532 6.296875 14.066407 14.066406 14.066407s14.070313-6.296875 14.070313-14.066407c-.007813-7.765624-6.308594-14.054687-14.074219-14.054687zm205.277344-4.460938c-7.769531 0-14.066406 6.300782-14.066406 14.070313s6.296875 14.066406 14.066406 14.066406 14.066406-6.296875 14.066406-14.066406c-.007812-7.765625-6.304687-14.054687-14.066406-14.054687zm0 0" fill="#d9ecf2"/><g fill="#bdd9e5"><path d="m175.109375 313.515625c-2.671875.003906-5.289063.777344-7.539063 2.226563 4.066407 2.5625 6.53125 7.03125 6.53125 11.839843 0 4.808594-2.464843 9.277344-6.53125 11.84375 5.050782 3.214844 11.578126 2.878907 16.273438-.835937 4.691406-3.710938 6.519531-9.992188 4.550781-15.644532-1.96875-5.652343-7.296875-9.4375-13.285156-9.433593zm0 0"/><path d="m88.886719 259.996094c0-6.527344-3.265625-12.621094-8.699219-16.234375s-12.316406-4.269531-18.335938-1.746094c7.242188 3.039063 11.953126 10.125 11.953126 17.980469 0 7.851562-4.710938 14.9375-11.953126 17.976562 6.019532 2.523438 12.902344 1.867188 18.335938-1.746094 5.433594-3.613281 8.699219-9.707031 8.699219-16.234374zm0 0"/><path d="m111.992188 392.609375c-2.589844-.003906-5.152344.511719-7.542969 1.515625 7.242187 3.039062 11.957031 10.125 11.957031 17.976562 0 7.855469-4.714844 14.941407-11.957031 17.980469 7.285156 3.054688 15.691406 1.417969 21.292969-4.148437 5.601562-5.566406 7.289062-13.964844 4.277343-21.265625s-10.132812-12.0625-18.027343-12.058594zm0 0"/><path d="m173.550781 185.773438c-2.566406.003906-5.113281.429687-7.539062 1.265624 9.453125 3.222657 15.8125 12.101563 15.8125 22.089844 0 9.988282-6.359375 18.871094-15.8125 22.089844 8.769531 3 18.480469.527344 24.75-6.296875s7.910156-16.710937 4.183593-25.195313c-3.730468-8.484374-12.125-13.960937-21.394531-13.953124zm0 0"/><path d="m273.953125 357.671875c-2.585937 0-5.152344.511719-7.539063 1.515625 7.242188 3.039062 11.953126 10.125 11.953126 17.980469 0 7.851562-4.710938 14.9375-11.953126 17.976562 7.28125 3.058594 15.691407 1.417969 21.292969-4.148437 5.601563-5.566406 7.289063-13.964844 4.277344-21.265625s-10.132813-12.0625-18.03125-12.058594zm0 0"/><path d="m380.390625 309.054688c-2.675781.007812-5.292969.777343-7.539063 2.226562 4.066407 2.5625 6.53125 7.035156 6.53125 11.839844 0 4.808594-2.464843 9.277344-6.53125 11.84375 5.046876 3.214844 11.578126 2.878906 16.273438-.832032 4.691406-3.714843 6.519531-9.996093 4.550781-15.644531-1.96875-5.652343-7.300781-9.441406-13.285156-9.4375zm0 0"/><path d="m301.777344 235.074219c-2.558594-.003907-5.101563.390625-7.539063 1.167969 10.351563 3.285156 17.382813 12.894531 17.382813 23.757812 0 10.859375-7.03125 20.46875-17.382813 23.757812 9.363281 2.964844 19.59375.15625 26.128907-7.171874 6.535156-7.328126 8.160156-17.8125 4.148437-26.773438-4.015625-8.964844-12.917969-14.734375-22.738281-14.738281zm0 0"/></g><path d="m92.804688 41.554688c1.675781 3.484374.21875 7.667968-3.261719 9.351562-2.703125 1.308594-5.300781 2.828125-7.765625 4.546875-3.175782 2.207031-7.539063 1.425781-9.75-1.75-2.207032-3.175781-1.425782-7.542969 1.75-9.75 3.074218-2.136719 6.3125-4.027344 9.679687-5.65625 3.484375-1.675781 7.660157-.214844 9.347657 3.257813zm351.507812 103.648437c-.050781-41.289063-33.511719-74.746094-74.800781-74.796875-8.644531-.007812-17.226563 1.507812-25.34375 4.476562-12.945313-38.335937-45.914063-66.460937-85.8125-73.195312-39.902344-6.734375-80.273438 9.007812-105.085938 40.972656-11.523437-7.507812-24.996093-11.484375-38.75-11.4375-3.867187 0-7 3.136719-7 7 0 3.867188 3.132813 7 7 7 13.074219-.039062 25.765625 4.433594 35.929688 12.65625 1.527343 1.222656 3.492187 1.753906 5.421875 1.460938 1.933594-.289063 3.65625-1.375 4.75-2.992188 21.105468-31.21875 58.539062-47.183594 95.679687-40.808594 37.140625 6.371094 67.105469 33.90625 76.59375 70.375 3.089844 15.292969 2.59375 31.09375-1.445312 46.167969-1.167969 3.644531.808593 7.554688 4.441406 8.773438 3.628906 1.21875 7.566406-.707031 8.832031-4.324219 4.410156-15.59375 5.375-31.960938 2.828125-47.96875 6.992188-2.75 14.441407-4.160156 21.957031-4.152344 33.578126 0 60.800782 27.21875 60.800782 60.796875 0 33.582031-27.222656 60.800781-60.800782 60.800781h-110.167968c-3.867188 0-7 3.132813-7 7 0 3.867188 3.132812 7 7 7h110.167968c41.292969-.046874 74.753907-33.511718 74.804688-74.804687zm-203.332031 67.804687c0-3.867187-3.136719-7-7-7h-15.859375c-3.863282 0-7 3.132813-7 7 0 3.867188 3.136718 7 7 7h15.859375c3.863281 0 7-3.132812 7-7zm-171.601563 34.496094c6.898438.007813 12.488282 5.59375 12.496094 12.492188 0 3.867187 3.132812 7 7 7s7-3.132813 7-7c0-14.632813-11.863281-26.496094-26.496094-26.496094-14.632812 0-26.496094 11.863281-26.496094 26.496094 0 14.632812 11.863282 26.496094 26.496094 26.496094 3.867188 0 7-3.132813 7-7 0-3.867188-3.132812-7-7-7-4.515625.082031-8.726562-2.28125-11.007812-6.179688-2.28125-3.902344-2.28125-8.726562 0-12.625 2.28125-3.902344 6.492187-6.265625 11.007812-6.183594zm16.105469 164.597656c0-14.636718 11.863281-26.496093 26.496094-26.496093 14.632812 0 26.496093 11.863281 26.496093 26.496093-.003906 14.636719-11.867187 26.496094-26.5 26.496094-14.621093-.027344-26.460937-11.875-26.476562-26.492187zm14 0c-.003906 6.902344 5.589844 12.5 12.492187 12.5 6.902344 0 12.5-5.597656 12.5-12.5-.003906-6.902343-5.597656-12.496093-12.5-12.492187-6.890624.015625-12.472656 5.605469-12.476562 12.496094zm174.453125-22.441406c-6.898438-.007812-12.488281-5.597656-12.496094-12.496094 0-3.867187-3.132812-7-7-7-3.863281 0-7 3.132813-7 7 .011719 11.515626 7.460938 21.703126 18.429688 25.199219 10.972656 3.5 22.945312-.496093 29.617187-9.878906s6.515625-22.003906-.390625-31.21875c-6.90625-9.210937-18.976562-12.90625-29.855468-9.132813-2.375.808594-4.140626 2.828126-4.617188 5.292969-.480469 2.464844.398438 4.996094 2.300781 6.636719 1.898438 1.636719 4.535157 2.132812 6.902344 1.296875 4.6875-1.628906 9.898437-.328125 13.269531 3.316406 3.375 3.644531 4.269532 8.941407 2.28125 13.488281-1.988281 4.550782-6.480468 7.492188-11.445312 7.496094zm27.839844-97.734375c-17.628906 0-31.921875-14.292969-31.921875-31.925781 0-17.628906 14.292969-31.921875 31.921875-31.921875 17.632812 0 31.925781 14.292969 31.925781 31.921875-.019531 17.625-14.300781 31.90625-31.925781 31.925781zm0-14c9.902344 0 17.925781-8.027343 17.925781-17.925781s-8.023437-17.921875-17.925781-17.921875c-9.898438 0-17.921875 8.023437-17.921875 17.921875.011719 9.894531 8.03125 17.910156 17.921875 17.925781zm-156.542969-57.917969h-86.722656c-29.292969.042969-54.09375-21.613281-57.992188-50.644531-3.898437-29.035156 14.304688-56.46875 42.570313-64.15625-.035156-.855469-.054688-1.695312-.054688-2.527343-.046875-15.652344 5.09375-30.882813 14.617188-43.308594 2.34375-3.074219 6.738281-3.664063 9.8125-1.320313 3.070312 2.347657 3.664062 6.738281 1.316406 9.8125-7.65625 9.992188-11.789062 22.242188-11.746094 34.832031.015625 2.410157.183594 4.8125.503906 7.199219.464844 3.757813-2.136718 7.207031-5.875 7.785157-23.046874 3.441406-39.511718 24.113281-37.710937 47.347656 1.800781 23.230468 21.257813 41.117187 44.558594 40.964844h84.84375c1.550781-15.359376 14.351562-27.125 29.785156-27.375 15.433594-.253907 28.613281 11.085937 30.667969 26.382812 2.054687 15.300781-7.667969 29.714844-22.621094 33.542969-14.953125 3.824219-30.40625-4.144531-35.953125-18.550781zm11.957031-10.863281c0 9.035157 7.324219 16.359375 16.359375 16.359375 9.035157 0 16.359375-7.324218 16.359375-16.359375 0-9.035156-7.324218-16.359375-16.359375-16.359375-9.03125.011719-16.347656 7.328125-16.359375 16.359375zm-3.144531 118.4375c.003906-11.636719 9.4375-21.066406 21.070313-21.066406 11.636718.003906 21.066406 9.433594 21.066406 21.070313 0 11.636718-9.433594 21.066406-21.070313 21.066406-11.628906-.011719-21.054687-9.4375-21.066406-21.066406zm14 0c0 3.902344 3.164063 7.066407 7.066406 7.066407 3.90625 0 7.070313-3.164063 7.070313-7.066407 0-3.90625-3.164063-7.070312-7.070313-7.070312-3.902343.003906-7.0625 3.167969-7.066406 7.074219zm212.34375-25.53125c11.636719 0 21.066406 9.433594 21.066406 21.066407.003907 11.636718-9.429687 21.070312-21.0625 21.070312-11.636719.003906-21.070312-9.429688-21.070312-21.0625.015625-11.628906 9.4375-21.054688 21.066406-21.070312zm0 14c-3.902344.003907-7.0625 3.167969-7.0625 7.070313s3.164063 7.066406 7.066406 7.066406c3.902344 0 7.066407-3.160156 7.070313-7.0625-.007813-3.902344-3.171875-7.066406-7.074219-7.070312zm0 0" fill="#002d42"/></svg>