<svg height="438pt" viewBox="0 -14 438.83277 438" width="438pt" xmlns="http://www.w3.org/2000/svg"><g fill="#f59a1d"><path d="m194.023438 145.972656c-2.839844.003906-5.398438-1.703125-6.480469-4.324218-1.085938-2.621094-.480469-5.640626 1.53125-7.640626l131.546875-131.539062c2.734375-2.734375 7.167968-2.734375 9.902344 0 2.734374 2.734375 2.734374 7.164062 0 9.898438l-131.550782 131.558593c-1.308594 1.3125-3.09375 2.050781-4.949218 2.046875zm0 0"/><path d="m131.113281 208.882812c-2.828125 0-5.378906-1.707031-6.460937-4.320312-1.085938-2.613281-.488282-5.625 1.515625-7.625l34.832031-34.832031c2.734375-2.734375 7.164062-2.730469 9.898438.003906 2.734374 2.734375 2.730468 7.167969-.003907 9.898437l-34.832031 34.824219c-1.308594 1.316407-3.089844 2.054688-4.949219 2.050781zm0 0"/><path d="m68.828125 140.246094c-2.832031-.003906-5.382813-1.707032-6.464844-4.324219-1.082031-2.613281-.484375-5.625 1.515625-7.625l101.21875-101.226563c2.734375-2.730468 7.167969-2.730468 9.902344 0 2.730469 2.734376 2.730469 7.167969 0 9.902344l-101.226562 101.21875c-1.308594 1.316406-3.089844 2.054688-4.945313 2.054688zm0 0"/><path d="m245.320312 239.304688c-2.832031 0-5.382812-1.707032-6.464843-4.320313-1.082031-2.617187-.484375-5.625 1.515625-7.628906l176.492187-176.492188c2.734375-2.734375 7.164063-2.734375 9.898438 0s2.734375 7.167969 0 9.902344l-176.496094 176.492187c-1.308594 1.3125-3.089844 2.050782-4.945313 2.046876zm0 0"/><path d="m205.21875 211.125c-2.832031-.003906-5.382812-1.707031-6.464844-4.324219-1.082031-2.613281-.484375-5.621093 1.515625-7.625l88.246094-88.242187c2.734375-2.734375 7.164063-2.734375 9.898437 0 2.734376 2.730468 2.734376 7.164062 0 9.898437l-88.242187 88.242188c-1.3125 1.316406-3.097656 2.054687-4.953125 2.050781zm0 0"/><path d="m109.082031 165.980469c-2.828125 0-5.378906-1.707031-6.464843-4.320313-1.082032-2.617187-.484376-5.625 1.515624-7.628906l31.632813-31.625c2.734375-2.730469 7.167969-2.730469 9.902344 0 2.730469 2.734375 2.730469 7.167969 0 9.902344l-31.632813 31.632812c-1.3125 1.3125-3.097656 2.046875-4.953125 2.039063zm0 0"/><path d="m160.570312 114.492188c-2.828124 0-5.382812-1.707032-6.464843-4.320313-1.082031-2.617187-.484375-5.625 1.515625-7.628906l14.929687-14.933594c2.734375-2.734375 7.164063-2.734375 9.898438 0s2.734375 7.164063 0 9.898437l-14.925781 14.929688c-1.3125 1.316406-3.09375 2.058594-4.953126 2.054688zm0 0"/><path d="m196.621094 78.457031c-2.828125-.003906-5.378906-1.707031-6.460938-4.324219-1.085937-2.613281-.484375-5.621093 1.515625-7.625l43.238281-43.253906c2.734376-2.734375 7.167969-2.734375 9.898438 0 2.734375 2.730469 2.734375 7.164063 0 9.898438l-43.253906 43.253906c-1.308594 1.3125-3.085938 2.050781-4.9375 2.050781zm0 0"/><path d="m289.421875 261.082031c-2.828125-.003906-5.378906-1.707031-6.464844-4.324219-1.082031-2.613281-.484375-5.625 1.515625-7.625l30.382813-30.402343c2.734375-2.730469 7.164062-2.730469 9.898437 0 2.734375 2.734375 2.734375 7.167969 0 9.902343l-30.378906 30.398438c-1.3125 1.316406-3.09375 2.054688-4.953125 2.050781zm0 0"/><path d="m344.964844 205.550781c-2.828125 0-5.378906-1.703125-6.460938-4.316406-1.082031-2.613281-.488281-5.625 1.511719-7.625l54.496094-54.492187c2.734375-2.734376 7.164062-2.734376 9.898437 0 2.734375 2.734374 2.734375 7.164062 0 9.898437l-54.496094 54.484375c-1.308593 1.316406-3.089843 2.054688-4.949218 2.050781zm0 0"/><path d="m317.175781 99.171875c-2.839843.007813-5.402343-1.699219-6.484375-4.324219-1.085937-2.621094-.480468-5.636718 1.53125-7.640625l36.359375-36.359375c2.734375-2.734375 7.167969-2.734375 9.898438 0 2.734375 2.734375 2.734375 7.167969 0 9.902344l-36.359375 36.359375c-1.308594 1.320313-3.089844 2.0625-4.945313 2.0625zm0 0"/><path d="m260.59375 361.539062c-2.828125 0-5.378906-1.707031-6.464844-4.320312-1.082031-2.613281-.484375-5.625 1.515625-7.625l107.132813-107.132812c2.734375-2.734376 7.167968-2.734376 9.902344 0 2.734374 2.734374 2.734374 7.164062 0 9.898437l-107.136719 107.128906c-1.3125 1.316407-3.089844 2.054688-4.949219 2.050781zm0 0"/><path d="m389.28125 301.207031c-2.828125 0-5.378906-1.707031-6.460938-4.320312-1.085937-2.613281-.488281-5.625 1.515626-7.625l42.546874-42.550781c2.734376-2.734376 7.164063-2.734376 9.898438 0 2.734375 2.734374 2.734375 7.167968 0 9.902343l-42.558594 42.550781c-1.308594 1.3125-3.085937 2.046876-4.941406 2.042969zm0 0"/><path d="m391.421875 230.695312c-2.828125 0-5.378906-1.707031-6.464844-4.320312-1.082031-2.617188-.484375-5.625 1.515625-7.625l38.085938-38.085938c2.734375-2.734374 7.164062-2.734374 9.898437 0 2.734375 2.734376 2.734375 7.167969 0 9.898438l-38.082031 38.085938c-1.3125 1.316406-3.09375 2.050781-4.953125 2.046874zm0 0"/></g><path d="m353.535156 387.695312-29.101562 15.300782 5.558594-32.40625-23.546876-22.949219 32.535157-4.726563 14.554687-29.484374 14.550782 29.484374 32.539062 4.726563-23.546875 22.949219 5.558594 32.40625zm0 0" fill="#fabe02"/><path d="m353.535156 313.429688 2.554688 39.457031 18.269531 3.046875-14.367187 17.230468 22.644531 29.832032-5.558594-32.40625 23.546875-22.949219-32.539062-4.726563zm0 0" fill="#f59a1d"/><path d="m165.945312 370.019531-62.722656 32.976563 11.980469-69.84375-50.746094-49.460938 70.128907-10.191406 31.359374-63.542969 31.359376 63.542969 70.128906 10.191406-50.742188 49.460938 11.976563 69.84375zm0 0" fill="#fabe02"/><path d="m228.667969 402.996094-53.164063-67.09375 33.902344-29.425782-39.359375-12.261718-4.101563-84.257813 31.359376 63.542969 70.128906 10.191406-50.742188 49.460938zm0 0" fill="#f59a1d"/><path d="m54.105469 222.332031-29.101563 15.300781 5.558594-32.40625-23.546875-22.949218 32.539063-4.730469 14.550781-29.484375 14.554687 29.484375 32.535156 4.730469-23.542968 22.949218 5.554687 32.40625zm0 0" fill="#fabe02"/><path d="m54.105469 148.0625 3.96875 39.640625 17.398437 2.953125-14.007812 14.550781 21.742187 32.425781-5.554687-32.40625 23.542968-22.949218-32.535156-4.730469zm0 0" fill="#f59a1d"/><path d="m235.566406 401.8125c.453125 2.625-.621094 5.28125-2.773437 6.851562-2.152344 1.570313-5.011719 1.78125-7.371094.542969l-59.464844-31.257812-59.476562 31.257812c-2.355469 1.242188-5.214844 1.035157-7.371094-.53125-2.152344-1.566406-3.234375-4.222656-2.78125-6.847656l11.355469-66.21875-48.113282-46.90625c-1.90625-1.859375-2.589843-4.640625-1.765624-7.171875.820312-2.53125 3.011718-4.378906 5.644531-4.761719l66.484375-9.664062 29.738281-60.25c1.175781-2.390625 3.613281-3.902344 6.277344-3.902344 2.664062 0 5.097656 1.511719 6.277343 3.902344l13.664063 27.6875c1.710937 3.46875.285156 7.667969-3.179687 9.378906-3.46875 1.710937-7.664063.285156-9.375-3.183594l-7.390626-14.964843-25.085937 50.828124c-1.019531 2.0625-2.988281 3.496094-5.269531 3.828126l-56.085938 8.152343 40.585938 39.5625c1.644531 1.609375 2.394531 3.925781 2 6.195313l-9.597656 55.863281 50.167968-26.375c2.039063-1.070313 4.472656-1.070313 6.515625 0l50.167969 26.375-9.601562-55.863281c-.394532-2.269532.355468-4.585938 2-6.195313l40.589843-39.5625-29.480469-4.285156c-3.746093-.636719-6.300781-4.144531-5.757812-7.902344.542969-3.757812 3.984375-6.398437 7.757812-5.949219l43.589844 6.324219c2.636719.382813 4.824219 2.230469 5.648438 4.761719.824218 2.53125.136718 5.3125-1.765625 7.171875l-48.101563 46.90625zm-52.058594-140.464844 7.515626 15.253906c1.019531 2.066407 2.992187 3.496094 5.269531 3.832032l3.242187.464844c.335938.046874.671875.074218 1.011719.074218 3.589844 0 6.597656-2.71875 6.964844-6.289062.363281-3.574219-2.035157-6.84375-5.554688-7.566406l-5.902343-11.960938c-1.710938-3.46875-5.910157-4.890625-9.375-3.179688-3.46875 1.710938-4.890626 5.910157-3.179688 9.375zm-103.558593-17.519531-25.84375-13.601563-25.847657 13.601563c-2.359374 1.238281-5.214843 1.03125-7.371093-.535156-2.15625-1.566407-3.234375-4.21875-2.785157-6.84375l4.921876-28.777344-20.914063-20.398437c-1.90625-1.863282-2.589844-4.640626-1.765625-7.175782.824219-2.53125 3.011719-4.378906 5.648438-4.761718l28.898437-4.199219 12.917969-26.183594c1.179687-2.390625 3.613281-3.90625 6.28125-3.90625 2.664062 0 5.097656 1.515625 6.277344 3.90625l12.917968 26.183594 28.902344 4.199219c2.632812.382812 4.824219 2.230468 5.644531 4.761718.824219 2.535156.140625 5.3125-1.765625 7.175782l-20.914062 20.398437 4.933594 28.777344c.449218 2.625-.628907 5.277343-2.785157 6.84375-2.152343 1.566406-5.011719 1.773437-7.371093.535156zm-6.039063-18.992187-3.160156-18.421876c-.394531-2.269531.355469-4.585937 2-6.199218l13.390625-13.054688-18.503906-2.6875c-2.277344-.332031-4.246094-1.761718-5.265625-3.828125l-8.273438-16.765625-8.273437 16.765625c-1.019531 2.066407-2.992188 3.496094-5.269531 3.828125l-18.503907 2.6875 13.386719 13.054688c1.644531 1.613281 2.394531 3.929687 2 6.199218l-3.160156 18.421876 16.554687-8.699219c2.039063-1.070313 4.472657-1.070313 6.515625 0zm327.722656 115.875-28.898437-4.199219-12.910156-26.183594c-1.179688-2.390625-3.613281-3.902344-6.28125-3.902344-2.664063 0-5.097657 1.511719-6.277344 3.902344l-12.917969 26.183594-28.925781 4.199219c-3.742187.636718-6.296875 4.144531-5.753906 7.902343.542969 3.757813 3.984375 6.398438 7.753906 5.949219l32.539063-4.726562c2.292968-.320313 4.277343-1.753907 5.300781-3.828126l8.273437-16.761718 8.289063 16.761718c1.015625 2.066407 2.988281 3.496094 5.265625 3.828126l18.503906 2.6875-13.390625 13.058593c-1.644531 1.609375-2.394531 3.925781-2 6.195313l3.160156 18.421875-16.550781-8.699219c-2.039062-1.070312-4.472656-1.070312-6.515625 0l-16.546875 8.699219 3.15625-18.421875c.578125-3.773438-1.972656-7.316406-5.734375-7.960938-3.761719-.644531-7.347656 1.84375-8.0625 5.589844l-5.554687 32.402344c-.453126 2.625.617187 5.277344 2.769531 6.847656 2.152343 1.570312 5.003906 1.785156 7.367187.550781l25.84375-13.597656 25.84375 13.597656c2.359375 1.242188 5.214844 1.035157 7.371094-.53125 2.15625-1.566406 3.234375-4.222656 2.785156-6.847656l-4.9375-28.777344 20.917969-20.398437c1.90625-1.859375 2.589844-4.640625 1.765625-7.171875-.824219-2.535157-3.011719-4.378907-5.648438-4.765625zm-212.558593-196.796876c1.3125 1.3125 3.09375 2.050782 4.949219 2.050782 1.859374 0 3.640624-.738282 4.949218-2.050782l131.554688-131.546874c2.734375-2.734376 2.730468-7.167969-.003906-9.902344-2.734376-2.734375-7.167969-2.730469-9.902344.003906l-131.546875 131.539062c-1.320313 1.3125-2.058594 3.097657-2.058594 4.957032 0 1.863281.738281 3.644531 2.058594 4.960937zm-57.960938 64.957032c1.859375.003906 3.640625-.734375 4.949219-2.050782l34.832031-34.8125c2.734375-2.734374 2.734375-7.164062 0-9.898437s-7.167969-2.734375-9.898437 0l-34.832032 34.832031c-2.003906 2-2.601562 5.011719-1.515624 7.625 1.082031 2.613282 3.632812 4.320313 6.460937 4.320313zm-67.238281-70.679688c1.3125 1.316406 3.09375 2.054688 4.949219 2.054688s3.636719-.738282 4.949219-2.054688l101.226562-101.222656c2.730469-2.734375 2.730469-7.167969 0-9.902344-2.734375-2.730468-7.167969-2.730468-9.902344 0l-101.222656 101.226563c-1.316406 1.3125-2.054688 3.09375-2.054688 4.949219 0 1.855468.738282 3.636718 2.054688 4.949218zm176.492188 99.066406c1.3125 1.3125 3.09375 2.050782 4.949218 2.050782 1.855469 0 3.636719-.738282 4.949219-2.050782l176.492187-176.492187c2.734376-2.734375 2.734376-7.167969 0-9.902344-2.734374-2.734375-7.164062-2.734375-9.898437 0l-176.492187 176.492188c-1.316407 1.3125-2.054688 3.09375-2.054688 4.949219 0 1.859374.738281 3.640624 2.054688 4.953124zm58.046874-116.429687c2.734376-2.734375 2.734376-7.167969 0-9.898437-2.734374-2.734376-7.164062-2.734376-9.898437 0l-88.246094 88.246093c-2.734375 2.734375-2.734375 7.167969 0 9.898438 2.734375 2.734375 7.167969 2.734375 9.902344 0zm-152.746093 1.578125c-1.3125-1.3125-3.09375-2.050781-4.953125-2.050781-1.855469 0-3.636719.738281-4.949219 2.050781l-31.632813 31.632812c-2.730468 2.734376-2.730468 7.167969 0 9.902344 2.734376 2.734375 7.167969 2.734375 9.902344 0l31.632813-31.632812c1.3125-1.3125 2.050781-3.09375 2.050781-4.949219 0-1.859375-.738281-3.640625-2.050781-4.953125zm34.796875-34.796875c-1.3125-1.316406-3.089844-2.054687-4.949219-2.054687-1.855469 0-3.636719.738281-4.949219 2.054687l-14.945312 14.933594c-2.734375 2.734375-2.734375 7.167969 0 9.902343 2.734375 2.734376 7.167968 2.734376 9.902344 0l14.925781-14.929687c1.316406-1.3125 2.058593-3.09375 2.058593-4.953125s-.742187-3.640625-2.058593-4.953125zm21.109375-11.203125 43.238281-43.257812c2.734375-2.734376 2.734375-7.167969 0-9.898438-2.730469-2.734375-7.164062-2.734375-9.898438 0l-43.25 43.253906c-2.738281 2.734375-2.738281 7.164063-.003906 9.898438 2.730469 2.738281 7.164063 2.738281 9.898438.003906zm113.296875 142.34375-30.378906 30.398438c-2.734376 2.734374-2.734376 7.164062 0 9.898437 2.730468 2.734375 7.164062 2.734375 9.898437 0l30.378906-30.398437c2.734375-2.734376 2.734375-7.167969 0-9.898438-2.734375-2.734375-7.164062-2.734375-9.898437 0zm89.539062-79.636719c-1.3125-1.316406-3.09375-2.054687-4.949218-2.054687-1.859376 0-3.636719.738281-4.949219 2.054687l-54.496094 54.496094c-2.734375 2.734375-2.734375 7.164063 0 9.898437 2.734375 2.734376 7.164063 2.734376 9.898437 0l54.496094-54.5c2.734375-2.730468 2.734375-7.164062 0-9.894531zm-55.824218-88.25-36.363282 36.34375c-2.734375 2.734375-2.734375 7.167969 0 9.902344s7.164063 2.734375 9.898438 0l36.359375-36.359375c2.734375-2.734375 2.734375-7.167969 0-9.902344-2.730469-2.734375-7.164063-2.734375-9.898438 0zm24.089843 191.601563c-1.3125-1.316406-3.09375-2.054688-4.953125-2.054688-1.855468 0-3.636718.738282-4.949218 2.054688l-107.128907 107.144531c-2.730469 2.734375-2.730469 7.164063 0 9.898437 2.734375 2.734376 7.167969 2.734376 9.902344 0l107.132813-107.132812c1.316406-1.3125 2.058593-3.097656 2.058593-4.957031-.003906-1.863281-.746093-3.644531-2.0625-4.957031zm54.203125 4.257812-42.542968 42.546875c-2.734376 2.734375-2.734376 7.164063 0 9.898438 2.730468 2.734375 7.164062 2.734375 9.898437 0l42.546875-42.546875c2.734375-2.734375 2.734375-7.167969 0-9.902344-2.734375-2.730469-7.164062-2.730469-9.898438 0zm-35.457031-16.027344c1.855469.003907 3.636719-.734374 4.949219-2.050781l38.082031-38.085937c2.734375-2.730469 2.734375-7.164063 0-9.898438s-7.164063-2.734375-9.898437 0l-38.085938 38.085938c-2.003906 2-2.601562 5.011718-1.519531 7.628906 1.085937 2.617188 3.640625 4.324219 6.472656 4.320312zm0 0" fill="#002d42"/></svg>