<svg height="472pt" viewBox="0 -16 472.18825 472" width="472pt" xmlns="http://www.w3.org/2000/svg"><path d="m303.535156 7.09375c24.542969.015625 45.867188 16.859375 51.570313 40.726562 12.726562-5.644531 27.609375-3.003906 37.621093 6.675782 10.007813 9.683594 13.144532 24.46875 7.925782 37.378906s-17.746094 21.363281-31.671875 21.371094h-65.445313c-29.308594 0-53.070312-23.761719-53.070312-53.070313 0-29.3125 23.761718-53.074219 53.070312-53.074219zm0 0" fill="#d9ecf2"/><path d="m368.980469 44.847656c-2.820313.011719-5.628907.375-8.355469 1.085938 16.707031 4.238281 27.640625 20.25 25.507812 37.351562-2.136718 17.105469-16.675781 29.9375-33.910156 29.9375h16.769532c18.882812 0 34.1875-15.308594 34.1875-34.1875 0-18.882812-15.304688-34.1875-34.1875-34.1875zm0 0" fill="#bdd9e5"/><path d="m350.753906 72.148438c-15.617187-.011719-30.769531 5.324218-42.929687 15.121093-13.335938-19.664062-32.683594-34.480469-55.144531-42.230469-4.800782 16.058594-1.722657 33.4375 8.292968 46.875 10.019532 13.4375 25.800782 21.347657 42.558594 21.332032h65.449219c13.421875-.011719 25.59375-7.875 31.117187-20.109375-12.90625-13.417969-30.726562-21-49.34375-20.988281zm0 0" fill="#bdd9e5"/><path d="m355.105469 70.367188c7.382812-6.742188 12.410156-15.671876 14.351562-25.480469-.160156 0-.316406-.023438-.476562-.023438-4.78125 0-9.511719 1.007813-13.875 2.957031 1.714843 7.417969 1.714843 15.128907 0 22.546876zm0 0" fill="#bdd9e5"/><path d="m418.824219 170.527344c3.542969-27.75-10.117188-54.867188-34.527344-68.535156-24.40625-13.667969-54.664063-11.144532-76.472656 6.375-24.144531-35.714844-66.980469-53.957032-109.457031-46.617188-42.480469 7.339844-76.710938 38.898438-87.472657 80.640625-26.714843-13.078125-58.71875-8.429687-80.609375 11.710937-21.890625 20.140626-29.183594 51.648438-18.367187 79.359376 10.8125 27.710937 37.519531 45.949218 67.265625 45.9375h331.199218c28.625.03125 52.441407-21.988282 54.652344-50.527344 2.210938-28.539063-17.933594-53.964844-46.21875-58.339844zm0 0" fill="#26a3b9"/><path d="m214.386719 209.644531-55.625 69.75h76.398437l55.632813-69.75zm0 0" fill="#168aa5"/><path d="m418.824219 170.527344c2.867187-21.992188-5.097657-44.011719-21.378907-59.074219-16.277343-15.0625-38.84375-21.300781-60.550781-16.738281 35.109375 7.167968 58.675781 40.292968 53.9375 75.8125 28.285157 4.375 48.429688 29.800781 46.21875 58.339844-2.210937 28.539062-26.027343 50.558593-54.652343 50.527343h28c28.625.03125 52.441406-21.988281 54.652343-50.527343 2.210938-28.539063-17.933593-53.964844-46.21875-58.339844zm0 0" fill="#168aa5"/><path d="m87.671875 135.480469c2.132813 22.078125 10.835937 43.011719 24.988281 60.089843-4.789062-17.34375-5.386718-35.578124-1.75-53.199218-7.300781-3.589844-15.160156-5.917969-23.238281-6.890625zm0 0" fill="#168aa5"/><path d="m354.621094 311.910156h-50.070313l-48.972656 61.414063h42.9375l-48.21875 60.472656 115.695313-76.167969h-47.828126zm0 0" fill="#fabe02"/><path d="m265.390625 209.625h-76.398437l-74.726563 93.71875h65.519531l-73.585937 92.277344 176.542969-116.226563h-72.976563zm0 0" fill="#fabe02"/><g fill="#f59a1d"><path d="m347.960938 357.628906-77.742188 51.179688-19.921875 24.988281 115.695313-76.167969zm0 0"/><path d="m318.164062 357.628906 36.457032-45.71875h-18.03125l-36.457032 45.71875zm0 0"/><path d="m209.765625 279.394531 55.625-69.769531h-25.453125l-55.628906 69.769531zm0 0"/><path d="m257.289062 279.394531-122.957031 80.953125-28.132812 35.273438 176.542969-116.226563zm0 0"/></g><path d="m323.320312 10.410156c1.898438-3.363281 6.160157-4.558594 9.53125-2.671875 4.878907 2.742188 9.351563 6.152344 13.289063 10.128907 2.71875 2.746093 2.695313 7.179687-.050781 9.898437-2.75 2.71875-7.183594 2.695313-9.902344-.050781-3.019531-3.050782-6.453125-5.667969-10.195312-7.769532-3.371094-1.894531-4.570313-6.164062-2.671876-9.535156zm-244.117187 276h39.625l-10.035156 12.582032c-1.675781 2.105468-2 4.980468-.835938 7.402343 1.167969 2.421875 3.617188 3.964844 6.308594 3.964844h50.980469l-64.519532 80.886719c-2.140624 2.691406-2.011718 6.542968.308594 9.082031 2.320313 2.539063 6.144532 3.015625 9.015625 1.125l174.800781-115.074219h50.992188c3.867188 0 7-3.136718 7-7 0-3.867187-3.132812-7-7-7h-111.546875l19.03125-23.867187c2.410156-3.023438 1.914063-7.429688-1.109375-9.839844s-7.429688-1.914063-9.839844 1.109375l-28.089844 35.234375c-1.675781 2.101563-2 4.976563-.835937 7.398437 1.167969 2.421876 3.617187 3.964844 6.308594 3.964844h49.597656l-120.242187 79.195313 46.140624-57.867188c1.675782-2.101562 2-4.980469.832032-7.402343-1.167969-2.421876-3.617188-3.960938-6.304688-3.960938h-50.984375l63.558594-79.71875h58.496094l-3.703125 4.648438c-1.609375 1.953124-2.039063 4.617187-1.128906 6.976562.910156 2.355469 3.023437 4.039062 5.523437 4.402344 2.503906.363281 5.003906-.648438 6.550781-2.648438l12.761719-16c1.675781-2.105468 2-4.980468.835937-7.402344-1.167968-2.421874-3.617187-3.964843-6.308593-3.964843h-76.398438c-2.128906 0-4.144531.972656-5.472656 2.636719l-53.527344 67.121093h-50.800781c-36.007812 0-65.199219-29.191406-65.199219-65.199219 0-36.011718 29.191407-65.203124 65.199219-65.203124 8.183594.027343 16.289062 1.617187 23.875 4.6875-2.753906 17.054687-1.746094 34.503906 2.949219 51.128906 1.226562 3.667968 5.191406 5.648437 8.859375 4.421875 3.667968-1.222657 5.644531-5.1875 4.421875-8.855469-4.332031-16.125-4.867188-33.039062-1.5625-49.40625 4.335937-16.617188 12.765625-31.882812 24.523437-44.398438 2.648438-2.816406 2.515625-7.25-.304687-9.902343-2.816407-2.652344-7.25-2.515625-9.902344.300781-11.527344 12.28125-20.265625 26.90625-25.613281 42.878906-8.714844-3.238281-17.9375-4.890625-27.234375-4.882812-43.738281 0-79.199219 35.460937-79.199219 79.203125 0 43.738281 35.460938 79.199219 79.199219 79.199219zm88.683594-222.390625c-6.839844 3.1875-13.359375 7.035157-19.457031 11.488281-3.066407 2.296876-3.714844 6.628907-1.457032 9.726563 2.257813 3.09375 6.585938 3.796875 9.707032 1.578125 5.363281-3.914062 11.097656-7.296875 17.117187-10.101562 3.503906-1.632813 5.023437-5.796876 3.390625-9.304688-1.632812-3.503906-5.796875-5.019531-9.304688-3.386719zm258.457031 100.933594c.050781-1.035156.078125-2.039063.078125-3.039063-.015625-21.710937-9.382813-42.367187-25.710937-56.679687 11.25-13.613281 12.558593-32.882813 3.261718-47.894531-9.300781-15.007813-27.140625-22.414063-44.335937-18.402344-1.695313-3.28125-5.644531-4.683594-9.027344-3.203125s-5.035156 5.332031-3.773437 8.804687c2.738281 7.558594 3.308593 15.730469 1.652343 23.597657-1.25 3.660156.707031 7.640625 4.367188 8.886719 3.65625 1.25 7.636719-.707032 8.882812-4.367188 1.71875-6.53125 2.09375-13.347656 1.101563-20.03125 2.015625-.480469 4.078125-.726562 6.148437-.730469 10.683594-.03125 20.390625 6.210938 24.792969 15.941407 4.402344 9.734374 2.683594 21.148437-4.394531 29.148437-24.769531-14.851563-55.851563-14.21875-80 1.628906-13.386719-17.347656-31.386719-30.578125-51.9375-38.175781 0-.082031.023437-.160156.023437-.242188.011719-25.441406 20.621094-46.066406 46.058594-46.101562 3.867188 0 7-3.132812 7-7s-3.132812-7-7-7c-31.617188.054688-57.785156 24.597656-59.867188 56.144531-15.917968-3.71875-32.4375-4.066406-48.496093-1.015625-2.484375.4375-4.546875 2.179688-5.386719 4.558594-.84375 2.378906-.339844 5.027344 1.316406 6.929688 1.660156 1.90625 4.214844 2.769531 6.6875 2.261718 40.28125-7.664062 81.261719 9.363282 104.246094 43.320313 1.097656 1.617187 2.820312 2.703125 4.753906 2.992187 1.933594.289063 3.898438-.242187 5.421875-1.464844 10.90625-8.824218 24.519531-13.621093 38.550781-13.578124 34.039063.039062 61.628907 27.625 61.667969 61.667968-.019531 2.589844-.199219 5.175782-.546875 7.738282-.472656 3.761718 2.132813 7.214843 5.878906 7.792968 24.675782 3.8125 42.25 25.992188 40.320313 50.890625-1.929687 24.894531-22.714844 44.101563-47.6875 44.0625h-18.21875c-3.867187 0-7 3.132813-7 7 0 3.867188 3.132813 7 7 7h18.21875c31.015625.015625 57.230469-22.96875 61.269531-53.71875 4.042969-30.75-15.347656-59.726562-45.3125-67.722656zm-57.601562 121.441406c3.867187 0 7-3.132812 7-7 0-3.867187-3.132813-7-7-7h-10.15625c-3.867188 0-7 3.132813-7 7 0 3.867188 3.132812 7 7 7zm3.96875 69.222657c-.886719-2.960938-3.613282-4.992188-6.707032-4.992188h-33.308594l5.976563-7.492188c2.410156-3.019531 1.917969-7.425781-1.105469-9.835937-3.023437-2.410156-7.425781-1.917969-9.839844 1.105469l-15.039062 18.84375c-1.675781 2.101562-2 4.980468-.832031 7.402344 1.164062 2.421874 3.617187 3.960937 6.304687 3.960937h24.464844l-59.417969 39.117187 20.777344-26.058593c1.675781-2.105469 2-4.980469.832031-7.402344-1.164062-2.421875-3.617187-3.964844-6.304687-3.964844h-28.414063l37.800782-47.414062h32.667968c-1.125 3.222656.234375 6.789062 3.226563 8.441406 2.988281 1.648437 6.734375.902344 8.859375-1.769531l7.445312-9.285156c1.675782-2.101563 2-4.976563.832032-7.398438-1.167969-2.425781-3.617188-3.964844-6.304688-3.964844h-50.078125c-2.128906 0-4.144531.96875-5.472656 2.636719l-48.976563 61.414063c-1.679687 2.101562-2 4.980468-.835937 7.402343 1.167969 2.421875 3.617187 3.960938 6.304687 3.960938h28.402344l-39.160156 49.113281c-2.140625 2.691406-2.007813 6.539062.308594 9.074219 2.320312 2.539062 6.136718 3.019531 9.011718 1.132812l115.710938-76.171875c2.582031-1.699218 3.746094-4.890625 2.855468-7.855468zm0 0" fill="#002d42"/></svg>