<svg height="461pt" viewBox="-102 0 461 461.78" width="461pt" xmlns="http://www.w3.org/2000/svg"><path d="m40.636719 7h175.609375c18.367187 0 33.261718 14.890625 33.261718 33.261719v381.261719c0 18.371093-14.894531 33.261718-33.261718 33.261718h-175.609375c-18.367188 0-33.257813-14.890625-33.257813-33.261718v-381.261719c0-18.371094 14.890625-33.261719 33.257813-33.261719zm0 0" fill="#d9ecf2"/><g fill="#bdd9e5"><path d="m79.765625 105.71875h-19.019531c-3.867188 0-7-3.132812-7-7 0-3.863281 3.132812-7 7-7h19.019531c3.867187 0 7 3.136719 7 7 0 3.867188-3.132813 7-7 7zm0 0"/><path d="m79.765625 136.445312h-19.019531c-3.867188 0-7-3.136718-7-7 0-3.867187 3.132812-7 7-7h19.019531c3.867187 0 7 3.132813 7 7 0 3.863282-3.132813 7-7 7zm0 0"/><path d="m79.765625 167.167969h-19.019531c-3.867188 0-7-3.132813-7-7 0-3.867188 3.132812-7 7-7h19.019531c3.867187 0 7 3.132812 7 7 0 3.867187-3.132813 7-7 7zm0 0"/><path d="m79.765625 197.890625h-19.019531c-3.867188 0-7-3.132813-7-7 0-3.863281 3.132812-7 7-7h19.019531c3.867187 0 7 3.136719 7 7 0 3.867187-3.132813 7-7 7zm0 0"/><path d="m79.765625 228.621094h-19.019531c-3.867188 0-7-3.136719-7-7 0-3.867188 3.132812-7 7-7h19.019531c3.867187 0 7 3.132812 7 7 0 3.863281-3.132813 7-7 7zm0 0"/><path d="m79.765625 259.335938h-19.019531c-3.867188 0-7-3.132813-7-7 0-3.867188 3.132812-7 7-7h19.019531c3.867187 0 7 3.132812 7 7 0 3.867187-3.132813 7-7 7zm0 0"/><path d="m79.765625 290.0625h-19.019531c-3.867188 0-7-3.132812-7-7 0-3.863281 3.132812-7 7-7h19.019531c3.867187 0 7 3.136719 7 7 0 3.867188-3.132813 7-7 7zm0 0"/><path d="m79.765625 320.785156h-19.019531c-3.867188 0-7-3.136718-7-7 0-3.867187 3.132812-7 7-7h19.019531c3.867187 0 7 3.132813 7 7 0 3.863282-3.132813 7-7 7zm0 0"/><path d="m216.246094 7h-26.542969c18.367187 0 33.257813 14.890625 33.257813 33.261719v381.265625c0 18.371094-14.890626 33.261718-33.257813 33.261718h26.542969c18.367187 0 33.261718-14.890624 33.261718-33.261718v-381.269532c-.003906-18.371093-14.894531-33.257812-33.261718-33.257812zm0 0"/></g><path d="m157.640625 332.375v-228.953125c0-16.128906-13.070313-29.203125-29.199219-29.203125-16.125 0-29.199218 13.074219-29.199218 29.203125v228.953125c-19.117188 12.855469-27.589844 36.691406-20.871094 58.722656 6.71875 22.035156 27.050781 37.089844 50.085937 37.089844 23.035157 0 43.363281-15.054688 50.082031-37.089844 6.71875-22.03125-1.753906-45.867187-20.867187-58.722656zm0 0" fill="#fabe02"/><path d="m144.238281 350.246094v-244.597656c0-3.867188-3.132812-7-7-7-3.867187 0-7 3.132812-7 7v244.597656c-12.824219 3.507812-21.078125 15.960937-19.308593 29.136718 1.769531 13.179688 13.011718 23.011719 26.308593 23.011719 13.292969 0 24.539063-9.832031 26.308594-23.011719 1.769531-13.175781-6.484375-25.628906-19.308594-29.136718zm0 0" fill="#f59a1d"/><path d="m89.753906 375.820312c-.011718-17.4375 8.667969-33.730468 23.144532-43.453124v-228.945313c.007812-13.496094 9.257812-25.226563 22.378906-28.378906-8.699219-2.128907-17.894532-.132813-24.933594 5.40625-7.035156 5.542969-11.128906 14.015625-11.101562 22.972656v228.953125c-20.339844 13.472656-28.648438 39.226562-20.015626 62.046875 8.628907 22.816406 31.898438 36.628906 56.0625 33.269531-26.046874-3.410156-45.527343-25.601562-45.535156-51.871094zm0 0" fill="#f59a1d"/><path d="m128.441406 382.832031c-3.867187 0-7-3.132812-7-7v-270.183593c0-3.867188 3.132813-7 7-7 3.867188 0 7 3.132812 7 7v270.171874c.003906 1.859376-.730468 3.640626-2.046875 4.957032-1.3125 1.316406-3.09375 2.054687-4.953125 2.054687zm0 0" fill="#d8283f"/><path d="m154.984375 375.832031c0 14.660157-11.882813 26.542969-26.542969 26.542969s-26.542968-11.882812-26.542968-26.542969c0-14.660156 11.882812-26.542969 26.542968-26.542969s26.542969 11.882813 26.542969 26.542969zm0 0" fill="#ff414d"/><path d="m128.441406 349.285156c-1.515625.003906-3.03125.136719-4.523437.398438 12.722656 2.191406 22.019531 13.222656 22.019531 26.132812s-9.296875 23.941406-22.019531 26.132813c9.886719 1.734375 19.90625-2.257813 25.890625-10.316407 5.984375-8.058593 6.90625-18.804687 2.386718-27.769531-4.523437-8.960937-13.714843-14.605469-23.753906-14.578125zm0 0" fill="#d8283f"/><path d="m68.359375 105.71875h-19.015625c-3.867188 0-7-3.132812-7-7 0-3.863281 3.132812-7 7-7h19.019531c3.863281 0 7 3.136719 7 7 0 3.867188-3.136719 7-7 7zm0 0" fill="#002d42"/><path d="m68.359375 136.445312h-19.015625c-3.867188 0-7-3.136718-7-7 0-3.867187 3.132812-7 7-7h19.019531c3.863281 0 7 3.132813 7 7 0 3.863282-3.136719 7-7 7zm0 0" fill="#002d42"/><path d="m68.359375 167.167969h-19.015625c-3.867188 0-7-3.132813-7-7 0-3.867188 3.132812-7 7-7h19.019531c3.863281 0 7 3.132812 7 7 0 3.867187-3.136719 7-7 7zm0 0" fill="#002d42"/><path d="m68.359375 197.890625h-19.015625c-3.867188 0-7-3.132813-7-7 0-3.863281 3.132812-7 7-7h19.019531c3.863281 0 7 3.136719 7 7 0 3.867187-3.136719 7-7 7zm0 0" fill="#002d42"/><path d="m68.359375 228.621094h-19.015625c-3.867188 0-7-3.136719-7-7 0-3.867188 3.132812-7 7-7h19.019531c3.863281 0 7 3.132812 7 7 0 3.863281-3.136719 7-7 7zm0 0" fill="#002d42"/><path d="m68.359375 259.335938h-19.015625c-3.867188 0-7-3.132813-7-7 0-3.867188 3.132812-7 7-7h19.019531c3.863281 0 7 3.132812 7 7 0 3.867187-3.136719 7-7 7zm0 0" fill="#002d42"/><path d="m68.359375 290.0625h-19.015625c-3.867188 0-7-3.132812-7-7 0-3.863281 3.132812-7 7-7h19.019531c3.863281 0 7 3.136719 7 7 0 3.867188-3.136719 7-7 7zm0 0" fill="#002d42"/><path d="m68.359375 320.785156h-19.015625c-3.867188 0-7-3.136718-7-7 0-3.867187 3.132812-7 7-7h19.019531c3.863281 0 7 3.132813 7 7 0 3.863282-3.136719 7-7 7zm0 0" fill="#002d42"/><path d="m217.945312 98.71875c0 9.574219-7.757812 17.332031-17.332031 17.332031-9.570312 0-17.332031-7.757812-17.332031-17.332031 0-9.570312 7.761719-17.332031 17.332031-17.332031 9.574219 0 17.332031 7.761719 17.332031 17.332031zm0 0" fill="#ff414d"/><path d="m200.613281 81.386719c-1.859375.023437-3.699219.347656-5.457031.960937 7.105469 2.292969 11.917969 8.90625 11.917969 16.367188 0 7.464844-4.8125 14.074218-11.917969 16.371094 1.757812.613281 3.597656.9375 5.457031.957031 6.253907.097656 12.074219-3.1875 15.230469-8.585938 3.152344-5.402343 3.152344-12.082031 0-17.484375-3.15625-5.402344-8.976562-8.683594-15.230469-8.589844zm0 0" fill="#d8283f"/><path d="m90.257812 52.316406 12.800782-9.570312c3.875-2.917969 4.984375-4.832032 4.984375-6.945313-.066407-1.132812-.59375-2.191406-1.460938-2.925781-.867187-.730469-1.996093-1.074219-3.125-.949219-3.253906.15625-6.273437 1.742188-8.253906 4.332031l-5.394531-5.335937c3.285156-4.324219 8.417968-6.84375 13.847656-6.800781 7.753906 0 13.203125 4.730468 13.203125 11.332031 0 4.582031-1.917969 8.15625-7.957031 12.28125l-5.4375 3.878906h13.75v7.703125h-26.957032zm0 0" fill="#002d42"/><path d="m120.328125 54.175781 4.933594-5.6875c2.367187 2.402344 5.59375 3.761719 8.964843 3.777344 3.472657 0 5.386719-1.460937 5.386719-3.476563 0-2.167968-1.664062-3.273437-6.042969-3.273437l-4.082031.050781v-7.25h4.082031c3.472657.050782 5.335938-1.109375 5.335938-3.121094 0-2.117187-2.0625-3.375-5.199219-3.375-3.007812.109376-5.84375 1.4375-7.855469 3.675782l-4.820312-5.234375c3.339844-4.039063 8.359375-6.308594 13.597656-6.144531 8.15625 0 13.042969 4.027343 13.042969 9.46875-.019531 3.804687-2.679687 7.089843-6.402344 7.902343 4.027344.59375 7.050781 3.988281 7.171875 8.054688 0 6.09375-5.390625 10.425781-13.746094 10.425781-5.398437.226562-10.632812-1.882812-14.367187-5.792969zm0 0" fill="#002d42"/><path d="m151.011719 34.941406c.253906-4.464844 3.953125-7.957031 8.425781-7.957031s8.167969 3.492187 8.425781 7.957031c-.257812 4.464844-3.953125 7.953125-8.425781 7.953125s-8.171875-3.488281-8.425781-7.953125zm12.148437 0c-.046875-2.046875-1.738281-3.671875-3.785156-3.640625s-3.683594 1.707031-3.667969 3.757813c.015625 2.046875 1.679688 3.695312 3.726563 3.699218 2.078125-.042968 3.738281-1.742187 3.726562-3.816406zm0 0" fill="#002d42"/><path d="m256.507812 88.378906c0 3.867188-3.136718 7-7 7-3.867187 0-7-3.132812-7-7v-48.121094c-.015624-14.496093-11.761718-26.246093-26.257812-26.261718h-175.601562c-14.492188.015625-26.238282 11.765625-26.253907 26.261718v381.261719c.015625 14.492188 11.761719 26.238281 26.253907 26.257813h175.601562c14.492188-.019532 26.238281-11.765625 26.257812-26.257813v-261.351562c0-3.867188 3.132813-7 7-7 3.863282 0 7 3.132812 7 7v261.355469c-.027343 22.222656-18.039062 40.230468-40.261718 40.257812h-175.601563c-22.21875-.027344-40.226562-18.035156-40.253906-40.257812v-381.265626c.027344-22.21875 18.027344-40.226562 40.246094-40.257812h175.601562c22.226563.0195312 40.242188 18.03125 40.269531 40.257812zm-7 20.261719c-3.867187 0-7 3.132813-7 7v19.105469c0 3.867187 3.132813 7 7 7 3.863282 0 7-3.132813 7-7v-19.105469c0-3.867187-3.136718-7-7-7zm-121.066406 326.546875c25.417969.011719 48.023438-16.167969 56.214844-40.230469 8.1875-24.0625.148438-50.667969-20-66.167969v-225.367187c-.207031-19.855469-16.359375-35.835937-36.210938-35.835937-19.855468 0-36.007812 15.980468-36.214843 35.835937v164.589844c0 3.867187 3.132812 7 7 7 3.867187 0 7-3.132813 7-7v-164.589844c.164062-12.152344 10.058593-21.917969 22.214843-21.917969 12.152344 0 22.050782 9.765625 22.210938 21.917969v228.953125c0 2.328125 1.160156 4.503906 3.089844 5.804688 16.5625 11.132812 23.902344 31.785156 18.085937 50.875-5.820312 19.089843-23.433593 32.132812-43.390625 32.132812-19.957031 0-37.570312-13.042969-43.386718-32.132812-5.820313-19.089844 1.519531-39.742188 18.082031-50.875 1.933593-1.300782 3.089843-3.476563 3.089843-5.804688v-36.15625c0-3.863281-3.132812-7-7-7-3.867187 0-7 3.136719-7 7v32.566406c-20.148437 15.496094-28.191406 42.105469-20.003906 66.171875 8.191406 24.066407 30.796875 40.242188 56.21875 40.230469zm0-302.566406c3.867188 0 7-3.136719 7-7v-20c0-3.867188-3.132812-7-7-7-3.867187 0-7 3.132812-7 7v20c0 3.863281 3.132813 7 7 7zm-7 26c0-3.867188 3.132813-7 7-7 3.867188 0 7 3.132812 7 7v184.398437c16.789063 3.582031 28.164063 19.257813 26.363282 36.328125-1.800782 17.070313-16.195313 30.03125-33.363282 30.03125-17.164062 0-31.5625-12.960937-33.363281-30.03125-1.800781-17.070312 9.574219-32.746094 26.363281-36.328125zm7 197.664062c-10.792968 0-19.539062 8.753906-19.539062 19.546875s8.75 19.539063 19.546875 19.539063c10.792969 0 19.539062-8.75 19.539062-19.542969-.011719-10.789063-8.757812-19.53125-19.546875-19.542969zm-79.097656-250.566406h19.019531c3.863281 0 7-3.132812 7-7 0-3.863281-3.136719-7-7-7h-19.019531c-3.867188 0-7 3.136719-7 7 0 3.867188 3.132812 7 7 7zm0 30.726562h19.019531c3.863281 0 7-3.136718 7-7 0-3.867187-3.136719-7-7-7h-19.019531c-3.867188 0-7 3.132813-7 7 0 3.863282 3.132812 7 7 7zm0 30.722657h19.019531c3.863281 0 7-3.132813 7-7 0-3.867188-3.136719-7-7-7h-19.019531c-3.867188 0-7 3.132812-7 7 0 3.867187 3.132812 7 7 7zm0 30.722656h19.019531c3.863281 0 7-3.132813 7-7 0-3.863281-3.136719-7-7-7h-19.019531c-3.867188 0-7 3.136719-7 7 0 3.867187 3.132812 7 7 7zm0 30.726563h19.019531c3.863281 0 7-3.136719 7-7 0-3.867188-3.136719-7-7-7h-19.019531c-3.867188 0-7 3.132812-7 7 0 3.863281 3.132812 7 7 7zm0 30.722656h19.019531c3.863281 0 7-3.132813 7-7 0-3.867188-3.136719-7-7-7h-19.019531c-3.867188 0-7 3.132812-7 7 0 3.867187 3.132812 7 7 7zm0 30.722656h19.019531c3.863281 0 7-3.132812 7-7 0-3.863281-3.136719-7-7-7h-19.019531c-3.867188 0-7 3.136719-7 7 0 3.867188 3.132812 7 7 7zm0 30.726562h19.019531c3.863281 0 7-3.136718 7-7 0-3.867187-3.136719-7-7-7h-19.019531c-3.867188 0-7 3.132813-7 7 0 3.863282 3.132812 7 7 7zm151.269531-197.738281c-13.4375 0-24.332031-10.894531-24.332031-24.332031s10.894531-24.332031 24.332031-24.332031 24.332031 10.894531 24.332031 24.332031c-.015624 13.433594-10.898437 24.316406-24.332031 24.332031zm0-14c5.707031 0 10.332031-4.625 10.332031-10.332031 0-5.703125-4.625-10.332031-10.332031-10.332031s-10.332031 4.628906-10.332031 10.332031c.007812 5.703125 4.628906 10.328125 10.332031 10.332031zm-83.769531-73.601562c0-6.597657-5.441406-11.332031-13.203125-11.332031-5.429687-.042969-10.5625 2.476562-13.847656 6.796874l5.394531 5.339844c1.980469-2.589844 5-4.175781 8.253906-4.332031 1.128906-.125 2.257813.21875 3.125.949219.867188.734375 1.394532 1.792968 1.460938 2.925781 0 2.113281-1.109375 4.027344-4.984375 6.945313l-12.800781 9.570312v7h26.941406v-7.703125h-13.730469l5.4375-3.878906c6.042969-4.125 7.953125-7.703125 7.953125-12.28125zm17.378906 16.796875c-3.371094-.011719-6.601562-1.371094-8.964844-3.773438l-4.933593 5.6875c3.730469 3.90625 8.960937 6.015625 14.355469 5.792969 8.355468 0 13.746093-4.332031 13.746093-10.425781-.121093-4.0625-3.132812-7.453125-7.152343-8.054688 3.722656-.8125 6.382812-4.097656 6.402343-7.90625 0-5.4375-4.886719-9.464844-13.042969-9.464844-5.238281-.164062-10.257812 2.105469-13.597656 6.140626l4.835938 5.238281c2.011718-2.234375 4.847656-3.554688 7.851562-3.660157 3.121094 0 5.199219 1.257813 5.199219 3.375 0 2-1.863281 3.171876-5.335937 3.121094h-4.078126v7.25l4.078126-.050781c4.378906 0 6.042968 1.109375 6.042968 3.273437-.015625 2.015626-1.929687 3.476563-5.402344 3.476563zm25.199219-9.371094c-4.5.070312-8.238281-3.457031-8.425781-7.953125.257812-4.46875 3.957031-7.957031 8.429687-7.957031 4.472657 0 8.167969 3.488281 8.425781 7.957031-.175781 4.5-3.914062 8.039063-8.417968 7.972656zm0-4.140625c1.542969.03125 2.953125-.875 3.5625-2.292969.613281-1.417968.308594-3.066406-.769531-4.167968-1.082032-1.105469-2.71875-1.445313-4.152344-.867188-1.429688.582031-2.367188 1.96875-2.371094 3.515625-.007812 2.082031 1.660156 3.789063 3.742188 3.835937zm0 0" fill="#002d42"/></svg>