<svg height="371pt" viewBox="-7 0 371 371.69733" width="371pt" xmlns="http://www.w3.org/2000/svg"><path d="m207.917969 7.015625h-109.402344l-91.171875 191.183594h85.332031l-79.621093 166.488281 195.816406-205.679688h-83.058594zm0 0" fill="#fabe02"/><path d="m125.8125 159.007812 82.105469-151.992187h-25.28125l-82.101563 151.992187zm0 0" fill="#f59a1d"/><path d="m183.585938 159.007812-145.011719 152.324219-25.519531 53.355469 195.816406-205.679688zm0 0" fill="#f59a1d"/><path d="m351.292969 116.789062h-70.15625l-61.335938 122.59375h54.722657l-51.058594 106.765626 125.570312-131.894532h-53.261718zm0 0" fill="#fabe02"/><path d="m295.773438 214.253906 55.519531-97.464844h-25.277344l-55.519531 97.464844zm0 0" fill="#f59a1d"/><path d="m248.988281 292.789062-25.523437 53.359376 125.570312-131.894532h-25.28125zm0 0" fill="#f59a1d"/><path d="m213.9375 163.851562-195.820312 205.664063c-2.371094 2.5-6.210938 2.902344-9.046876.945313-2.839843-1.957032-3.832031-5.6875-2.339843-8.792969l74.839843-156.46875h-74.226562c-2.402344 0-4.632812-1.230469-5.914062-3.257813-1.28125-2.03125-1.43359425-4.574218-.402344-6.742187l91.171875-191.199219c1.15625-2.441406 3.613281-4 6.316406-4h109.402344c2.464843 0 4.75 1.296875 6.015625 3.414062 1.261718 2.117188 1.316406 4.746094.144531 6.914063l-10.679687 19.765625c-1.886719 3.292969-6.054688 4.484375-9.394532 2.683594-3.34375-1.800782-4.640625-5.9375-2.925781-9.324219l5.101563-9.4375h-93.261719l-84.496094 177.199219h74.257813c2.398437.007812 4.625 1.238281 5.90625 3.265625 1.28125 2.027343 1.433593 4.566406.410156 6.734375l-60.59375 126.695312 154.140625-161.902344h-66.730469c-2.464844 0-4.75-1.296874-6.011719-3.414062s-1.320312-4.746094-.144531-6.914062l36.957031-68.417969c1.839844-3.402344 6.085938-4.671875 9.488281-2.832031 3.402344 1.835937 4.671876 6.085937 2.832032 9.484374l-31.378906 58.09375h71.316406c2.804687-.003906 5.34375 1.664063 6.449218 4.246094 1.105469 2.582032.5625 5.570313-1.382812 7.597656zm-24.917969-121.839843c-3.402343-1.832031-7.644531-.566407-9.484375 2.832031l-7.140625 13.207031c-1.839843 3.402344-.570312 7.652344 2.832031 9.488281 3.402344 1.839844 7.648438.570313 9.488282-2.832031l7.140625-13.222656c1.835937-3.402344.566406-7.652344-2.835938-9.488281zm162.273438 67.789062h-20c-3.863281 0-7 3.132813-7 7 0 3.863281 3.136719 7 7 7h7.972656l-49.570313 86.988281c-1.234374 2.164063-1.222656 4.824219.03125 6.980469 1.253907 2.15625 3.558594 3.484375 6.050782 3.484375h36.929687l-83.894531 88.117188 32.03125-66.964844c1.023438-2.164062.871094-4.707031-.410156-6.734375s-3.507813-3.257813-5.90625-3.265625h-43.398438l54.332032-108.597656h20.453124c3.867188 0 7-3.132813 7-7 0-3.867188-3.132812-7-7-7h-24.777343c-2.648438 0-5.074219 1.496094-6.257813 3.867187l-61.335937 122.578125c-1.082031 2.167969-.96875 4.746094.308593 6.808594 1.273438 2.0625 3.527344 3.320312 5.949219 3.320312h43.601563l-46.25 96.746094c-1.492188 3.105469-.5 6.835938 2.335937 8.792969 2.839844 1.953125 6.675781 1.554687 9.050781-.945313l125.578126-131.890624c1.933593-2.03125 2.46875-5.015626 1.367187-7.589844-1.105469-2.574219-3.636719-4.242188-6.4375-4.238282h-41.199219l49.53125-87.003906c1.234375-2.167968 1.222656-4.828125-.03125-6.984375s-3.558594-3.480469-6.054687-3.480469zm0 0" fill="#002d42"/></svg>