<svg height="458pt" viewBox="-10 0 458 458.00624" width="458pt" xmlns="http://www.w3.org/2000/svg"><path d="m35.675781 54.847656c-14.550781 147.511719 44.375 159.769532 112.4375 198.933594 54.996094 31.632812 118.757813 98.675781 56.902344 197.234375 130.988281-19.703125 204.585937-129.554687 174.429687-209.640625-30.957031-82.183594 34.730469-106.550781 42.355469-186.527344zm0 0" fill="#26a3b9"/><path d="m282.769531 230.914062c-7.984375 1.089844-15.1875 5.355469-19.980469 11.832032-4.792968 6.476562-6.761718 14.617187-5.464843 22.570312l-12.121094 12.097656c-2.734375 2.734376-2.734375 7.167969 0 9.902344s7.167969 2.734375 9.898437 0l12.101563-12.113281c7.953125 1.296875 16.089844-.671875 22.570313-5.464844 6.476562-4.792969 10.742187-12 11.828124-19.980469l2.960938-21.792968zm0 0" fill="#168aa5"/><path d="m421.804688 54.847656h-31.269532c-7.628906 79.980469-73.332031 104.34375-42.355468 186.527344 27.269531 72.402344-30.292969 169.117188-138.371094 201.570312-1.515625 2.667969-3.089844 5.351563-4.800782 8.066407 130.996094-19.699219 204.59375-129.550781 174.4375-209.636719-30.957031-82.183594 34.730469-106.546875 42.359376-186.527344zm0 0" fill="#168aa5"/><path d="m421.804688 54.847656c0-26.417968-86.4375-47.832031-193.066407-47.832031-106.625 0-193.0625 21.414063-193.0625 47.832031 0 26.417969 86.4375 47.832032 193.0625 47.832032 106.628907 0 193.066407-21.414063 193.066407-47.832032zm0 0" fill="#d9ecf2"/><path d="m228.738281 7.015625c-6.398437 0-12.730469.078125-18.996093.230469 97.707031 2.367187 174.070312 22.773437 174.070312 47.601562s-76.363281 45.230469-174.070312 47.601563c6.25.152343 12.582031.226562 18.996093.230469 106.628907 0 193.066407-21.414063 193.066407-47.832032 0-26.414062-86.441407-47.832031-193.066407-47.832031zm0 0" fill="#bdd9e5"/><path d="m402.238281 75.835938c-.710937-1.574219-1.988281-2.828126-3.574219-3.511719-35.804687-15.328125-99.328124-24.480469-169.929687-24.480469-70.597656 0-134.121094 9.171875-169.929687 24.484375-1.589844.683594-2.863282 1.9375-3.578126 3.511719 5.175782 2.558594 10.511719 4.777344 15.976563 6.640625 34.914063-12.800781 94.132813-20.632813 157.53125-20.632813 63.402344 0 122.621094 7.832032 157.535156 20.632813 5.464844-1.863281 10.796875-4.082031 15.96875-6.644531zm0 0" fill="#bdd9e5"/><g fill="#168aa5"><path d="m228.734375 194.445312c-83.851563 0-147.269531-11.09375-182.726563-24.304687 2.683594 6.230469 5.953126 12.195313 9.761719 17.8125 44.605469 13.457031 109.898438 20.492187 172.964844 20.492187 58.65625 0 107.503906-5.417968 142.765625-15.082031.398438-5.269531 1.246094-10.5 2.535156-15.628906-31.230468 9.601563-79.070312 16.710937-145.300781 16.710937zm0 0"/><path d="m284.367188 405.574219c-19.125-.894531-38.027344-4.449219-56.171876-10.558594-.886718 4.621094-2.015624 9.1875-3.382812 13.6875 18.96875 6.089844 38.636719 9.730469 58.527344 10.832031 3.496094.257813 6.871094.453125 10.179687.609375 7.097657-4.179687 13.957031-8.75 20.542969-13.691406-8.890625.207031-18.726562-.074219-29.695312-.878906zm0 0"/><path d="m385.203125 264.34375c-27.199219 13.386719-67.144531 27.144531-114.671875 36.851562-19.699219 4.046876-39.59375 7.097657-59.601562 9.144532 2.816406 4.273437 5.367187 8.714844 7.648437 13.296875 17.601563-1.976563 36-4.902344 54.742187-8.726563 38.820313-7.472656 76.664063-19.34375 112.796876-35.375.042968-5.078125-.261719-10.152344-.914063-15.191406zm0 0"/><path d="m239.070312 159.414062c-3.171874 0-5.121093-.03125-5.566406-.042968-3.867187-.074219-6.9375-3.265625-6.863281-7.132813.011719-1.859375.777344-3.640625 2.121094-4.929687 1.339843-1.292969 3.148437-1.988282 5.007812-1.933594.707031 0 72.277344 1.199219 123.273438-13.699219 3.679687-.996093 7.480469 1.136719 8.550781 4.792969 1.066406 3.660156-.988281 7.503906-4.625 8.644531-45.207031 13.203125-103.6875 14.300781-121.898438 14.300781zm0 0"/><path d="m196.363281 157.664062c-.261719 0-.519531-.015624-.78125-.042968-18.320312-2.03125-30.558593-4.171875-31.070312-4.261719-3.777344-.699219-6.289063-4.3125-5.621094-8.09375.664063-3.785156 4.253906-6.324219 8.042969-5.695313.121094.023438 12.355468 2.15625 30.191406 4.136719 3.683594.417969 6.40625 3.636719 6.203125 7.339844s-3.257813 6.605469-6.96875 6.617187zm0 0"/><path d="m254.601562 353.257812c-3.765624.007813-6.863281-2.964843-7.011718-6.726562-.148438-3.765625 2.710937-6.972656 6.464844-7.253906 56.0625-4.449219 81.25-18.105469 81.496093-18.242188 3.371094-1.890625 7.640625-.691406 9.53125 2.679688 1.894531 3.375.691407 7.640625-2.679687 9.53125-1.097656.621094-27.664063 15.261718-87.238282 20-.1875.007812-.359374.011718-.5625.011718zm0 0"/></g><path d="m251.070312 265.90625-1.429687-7.679688c-1.5-8.039062.363281-16.34375 5.15625-22.976562 4.792969-6.628906 12.09375-11.003906 20.199219-12.105469l21.792968-2.960937-2.960937 21.792968c-1.101563 8.105469-5.476563 15.40625-12.109375 20.199219-6.628906 4.789063-14.933594 6.652344-22.976562 5.15625zm0 0" fill="#d9ecf2"/><path d="m242.402344 281.597656c-2.828125-.003906-5.378906-1.707031-6.464844-4.324218-1.082031-2.613282-.484375-5.625 1.519531-7.625l23.976563-23.980469c2.734375-2.734375 7.167968-2.734375 9.902344 0 2.734374 2.734375 2.734374 7.167969 0 9.898437l-23.980469 23.980469c-1.3125 1.316406-3.09375 2.054687-4.953125 2.050781zm0 0" fill="#bdd9e5"/><path d="m152.269531 391.230469-6.960937 3.539062c-7.292969 3.699219-15.785156 4.25-23.496094 1.523438-7.707031-2.726563-13.964844-8.496094-17.304688-15.960938l-8.984374-20.074219 21.742187-3.308593c8.089844-1.230469 16.324219.910156 22.792969 5.917969 6.464844 5.011718 10.597656 12.449218 11.429687 20.589843zm0 0" fill="#26a3b9"/><path d="m163.050781 404.121094c-1.167969 0-2.320312-.292969-3.347656-.855469l-29.769531-16.25c-3.363282-1.863281-4.59375-6.097656-2.75-9.476563 1.84375-3.378906 6.070312-4.632812 9.460937-2.8125l29.761719 16.246094c2.8125 1.53125 4.230469 4.777344 3.4375 7.878906-.792969 3.105469-3.59375 5.273438-6.796875 5.269532zm0 0" fill="#168aa5"/><path d="m77.554688 248.460938-3.375 7.042968c-3.535157 7.375-9.941407 12.980469-17.722657 15.507813-7.78125 2.523437-16.253906 1.75-23.449219-2.144531l-19.339843-10.46875 15.246093-15.851563c5.671876-5.894531 13.511719-9.207031 21.691407-9.164063 8.183593.039063 15.988281 3.433594 21.597656 9.390626zm0 0" fill="#26a3b9"/><path d="m239.070312 150.332031c-3.171874 0-5.121093-.03125-5.566406-.042969-3.867187-.074218-6.9375-3.269531-6.863281-7.132812.011719-1.863281.777344-3.640625 2.121094-4.933594 1.339843-1.292968 3.148437-1.988281 5.007812-1.929687.707031 0 72.277344 1.199219 123.273438-13.699219 3.679687-1 7.480469 1.132812 8.550781 4.792969 1.066406 3.660156-.988281 7.5-4.625 8.640625-45.207031 13.203125-103.6875 14.304687-121.898438 14.304687zm0 0" fill="#d9ecf2"/><path d="m196.363281 148.574219c-.261719 0-.519531-.011719-.78125-.042969-18.320312-2.03125-30.558593-4.171875-31.070312-4.257812-3.777344-.699219-6.289063-4.3125-5.621094-8.097657.664063-3.78125 4.253906-6.324219 8.042969-5.691406.121094.019531 12.355468 2.15625 30.191406 4.136719 3.683594.414062 6.40625 3.632812 6.203125 7.335937-.203125 3.707031-3.257813 6.609375-6.96875 6.617188zm0 0" fill="#d9ecf2"/><path d="m228.734375 199.359375c-110.875 0-228.73046875-21.703125-228.73046875-61.945313 0-3.863281 3.13281275-7 6.99999975-7 3.863282 0 7 3.136719 7 7 0 20 81.683594 47.929688 214.714844 47.929688 131.519531 0 190.675781-28.027344 190.675781-47.929688 0-3.863281 3.132813-7 7-7 3.867188 0 7 3.136719 7 7 .019531 37.636719-80.320312 61.945313-204.660156 61.945313zm0 0" fill="#0162a7"/><path d="m168.492188 317.578125c-6.171876 0-12.097657-.164063-17.773438-.492187-37.800781-2.214844-58.589844-11.300782-61.804688-27.015626-.71875-3.761718 1.722657-7.402343 5.476563-8.171874 3.753906-.765626 7.425781 1.628906 8.242187 5.375 1.238282 6.058593 14.796876 13.839843 48.90625 15.835937 32.671876 1.914063 74.9375-2 118.988282-10.996094 82.019531-16.761719 141.554687-45.570312 151.730468-63.742187 1.890626-3.371094 1.28125-5.039063 1.082032-5.597656-4.523438-12.460938-26.765625-11.4375-26.992188-11.417969-3.832031.199219-7.109375-2.726563-7.347656-6.554688s2.648438-7.136719 6.476562-7.417969c1.339844-.078124 32.886719-1.785156 41.019532 20.609376 1.945312 5.746093 1.203125 12.0625-2.023438 17.199218-14.035156 25.082032-80.296875 54.117188-161.148437 70.625-34.476563 7.335938-69.589844 11.277344-104.832031 11.761719zm0 0" fill="#d9ecf2"/><path d="m308.335938 411.445312c-7.734376 0-16.066407-.332031-24.996094-.996093-30.476563-2.246094-82.496094-9.9375-88.484375-36.28125-.578125-2.449219.203125-5.015625 2.042969-6.730469 1.839843-1.710938 4.460937-2.304688 6.859374-1.554688 2.398438.75 4.210938 2.730469 4.75 5.183594 2.28125 10.042969 26.625 21.796875 75.855469 25.421875 53.875 3.953125 81.742188-4.046875 93.199219-26.800781 1.738281-3.453125 5.945312-4.84375 9.402344-3.109375 3.453125 1.738281 4.84375 5.949219 3.105468 9.402344-12.269531 24.375-37.265624 35.464843-81.734374 35.464843zm0 0" fill="#0162a7"/><path d="m254.601562 344.171875c-3.765624.011719-6.863281-2.960937-7.011718-6.726563-.148438-3.761718 2.710937-6.96875 6.464844-7.253906 56.0625-4.449218 81.25-18.101562 81.496093-18.238281 3.367188-1.851563 7.597657-.644531 9.476563 2.707031 1.882812 3.351563.710937 7.589844-2.625 9.5-1.097656.621094-27.664063 15.261719-87.238282 20-.1875.003906-.359374.011719-.5625.011719zm0 0" fill="#0162a7"/><path d="m144.628906 259.84375c-2.242187-1.207031-3.652344-3.539062-3.679687-6.085938-.03125-2.546874 1.328125-4.90625 3.542969-6.164062 2.214843-1.257812 4.9375-1.210938 7.109374.117188 3.90625 2.25 7.765626 4.621093 11.476563 7.054687 3.234375 2.117187 4.140625 6.457031 2.019531 9.691406-2.117187 3.234375-6.457031 4.136719-9.691406 2.019531-3.480469-2.289062-7.109375-4.519531-10.777344-6.632812zm247.875 7.53125c1.316406 13.691406.410156 27.503906-2.683594 40.90625-.722656 3.175781-3.542968 5.433594-6.800781 5.445312-.527343.003907-1.046875-.058593-1.558593-.175781-3.773438-.855469-6.132813-4.609375-5.269532-8.378906 2.386719-10.308594 3.339844-20.898437 2.839844-31.46875-34.046875 14.289063-69.46875 25.050781-105.707031 32.113281-17.738281 3.625-35.199219 6.398438-51.9375 8.375 13.109375 22.480469 18.367187 48.683594 14.945312 74.480469 8.1875 2.324219 16.519531 4.09375 24.945313 5.289063 3.828125.574218 6.464844 4.140624 5.890625 7.964843-.570313 3.828125-4.136719 6.464844-7.964844 5.890625-8.589844-1.226562-17.09375-2.980468-25.46875-5.253906-3.359375 13.542969-8.429687 26.601562-15.082031 38.863281 26.824218-5.671875 52.46875-15.929687 75.804687-30.320312-3.601562-.164063-7.300781-.375-11.132812-.65625-3.804688-.347657-6.625-3.679688-6.34375-7.484375.28125-3.808594 3.558593-6.691406 7.371093-6.476563 11.003907.800781 20.867188 1.085938 29.78125.871094 24.652344-18.769531 43.90625-43.722656 55.8125-72.328125 1.425782-3.59375 5.496094-5.351562 9.089844-3.925781 3.59375 1.421875 5.351563 5.492187 3.929688 9.085937-9.914063 24.496094-24.96875 46.582032-44.148438 64.765625 19.734375-3.792969 32.042969-12 38.714844-25.269531 1.738281-3.453125 5.945312-4.84375 9.398438-3.109375 3.457031 1.738281 4.847656 5.949219 3.109374 9.402344-11.148437 22.15625-32.867187 33.304687-70.148437 35.148437-33.453125 24.851563-72.59375 40.9375-113.855469 46.800782-2.707031.40625-5.398437-.800782-6.898437-3.089844-1.5-2.285156-1.527344-5.238282-.074219-7.554688 9.824219-15.109375 17.046875-31.757812 21.363281-49.257812-14.75-6.078125-23.359375-14.046875-25.597656-23.867188-.578125-2.449218.203125-5.015625 2.042969-6.730468 1.839844-1.710938 4.457031-2.304688 6.859375-1.554688 2.398437.75 4.210937 2.730469 4.75 5.183594.882812 3.890625 5.289062 8.429687 14.320312 12.65625 2.460938-23.886719-3.421875-47.890625-16.652343-67.929688-13.238282 1.171875-25.894532 1.78125-37.6875 1.78125-6.171876 0-12.097657-.164062-17.773438-.496094-37.800781-2.210937-58.59375-11.296874-61.804688-27.011718-.71875-3.761719 1.722657-7.402344 5.476563-8.171875 3.753906-.765625 7.425781 1.628906 8.238281 5.375 1.242188 6.058593 14.800782 13.839843 48.910156 15.835937 14.988282.753906 30.011719.550782 44.976563-.601562-6.082031-7.304688-12.769531-14.074219-20-20.238282-2.867187-2.535156-3.167969-6.902343-.675781-9.804687 2.492187-2.90625 6.855468-3.269531 9.792968-.816406 10.214844 8.710937 19.375 18.582031 27.300782 29.410156 18.402344-1.917969 37.796875-4.878906 57.601562-8.929687 36.660156-7.117188 72.4375-18.207032 106.699219-33.070313-1.007813-5.175781-2.445313-10.257813-4.292969-15.199219-7.570312-18.3125-10.210937-38.289062-7.660156-57.941406-34.6875 8.640625-81.230469 13.453125-136.5 13.453125-61.65625 0-125.429688-6.71875-169.929688-19.597656 15.949219 26.171875 41.027344 39.738281 70.25 55.503906l4.800782 2.589844c3.402344 1.84375 4.664062 6.089843 2.824218 9.492187-1.839843 3.402344-6.089843 4.664063-9.492187 2.824219l-4.800781-2.582031c-34-18.355469-65.277344-35.230469-82.355469-74.089844-24.707031-9.527344-40.04296875-21.59375-40.04296875-36.085938 0-3.863281 3.13281275-7 6.99999975-7 3.863282 0 7 3.136719 7 7 0 5.785157 6.863282 12.230469 19.785156 18.46875-7.101562-24.988281-9.453124-57.5625-5.097656-101.738281 0-.085937.035156-.160156.046875-.242187 1.738281-35.386719 101.433594-53.902344 200-53.902344 99.421875 0 200.066407 18.832031 200.066407 54.832031-.007813 1.265625-.144532 2.527344-.402344 3.769531-3.742188 32.4375-16.800782 56.332032-28.304688 77.410157-5.289062 9.257812-10.0625 18.804687-14.285156 28.597656 22.726562-8.664063 33.597656-18.671875 33.597656-27.203125 0-3.863281 3.136719-7 7-7 3.867188 0 7 3.136719 7 7 0 18.328125-19.113281 33.488281-53.054687 44.226562-3.628907 16.230469-2.996094 34.332032 5.640625 57.253907 1.675781 4.523437 3.050781 9.15625 4.113281 13.859375 16.988281-8.84375 28.230469-17.40625 32.140625-24.398438 1.890625-3.371094 1.28125-5.039062 1.082031-5.601562-4.523437-12.457032-26.765625-11.433594-26.992187-11.414063-3.832032.199219-7.109375-2.726562-7.347656-6.554687-.238282-3.828125 2.648437-7.136719 6.476562-7.417969 1.339844-.078125 32.886719-1.789063 41.019531 20.609375 1.945313 5.746094 1.203125 12.0625-2.023437 17.199219-5.832032 10.476562-20.746094 21.59375-41.964844 32.207031zm-349.828125-212.527344c0 5.148438 6.5 10.914063 18.691407 16.449219 17.921874-6.800781 36.5-11.71875 55.4375-14.679687 2.472656-.457032 5.003906.449218 6.625 2.375 1.621093 1.929687 2.082031 4.578124 1.207031 6.9375-.875 2.363281-2.949219 4.070312-5.433594 4.476562-12.480469 2.105469-24.828125 4.929688-36.984375 8.460938 32.0625 9.464843 82.398438 16.824218 146.507812 16.824218 64.109376 0 114.402344-7.355468 146.476563-16.800781-35.601563-10.632813-89.3125-17.015625-146.476563-17.015625-10.800781 0-21.597656.226562-32.089843.664062-3.867188.164063-7.132813-2.839843-7.292969-6.707031-.160156-3.867187 2.839844-7.128906 6.707031-7.292969 10.699219-.445312 21.695313-.675781 32.675781-.675781 68.988282 0 131.148438 8.757813 167.359376 23.457031 10.902343-4.949218 17.257812-10.078124 18.480468-14.800781 0-.046875.023438-.089843.03125-.140625.125-.5.191406-1.011718.199219-1.527344.007813-17.035156-70.792969-40.835937-186.0625-40.835937-115.265625 0-186.058594 23.800781-186.058594 40.832031zm326.234375 115.308594c4.925782-14.207031 11.253906-27.886719 18.890625-40.839844 9.296875-15.699218 16.75-32.421875 22.203125-49.832031-33.695312 19.894531-107.789062 30.195313-181.261718 30.195313-78.527344 0-157.773438-11.757813-187.632813-34.441407-2.246094 38.75 1.351563 66.46875 9.363281 87.40625 36.183594 12.5 97.808594 22.714844 178.269532 22.714844 62.707031 0 108.929687-6.378906 140.167968-15.203125zm-222.105468-103.800781c.265624 0 .53125-.015625.796874-.046875 8-.929688 16.308594-1.730469 24.753907-2.371094 3.855469-.296875 6.742187-3.660156 6.445312-7.515625-.292969-3.855469-3.660156-6.742187-7.511719-6.445313-8.628906.660157-17.144531 1.476563-25.304687 2.421876-3.679687.433593-6.382813 3.65625-6.171875 7.355468.210938 3.695313 3.265625 6.589844 6.96875 6.597656zm188.796874-17.242188c9.886719 1.683594 19.808594 3.574219 29.5 5.617188.480469.101562.964844.152343 1.453126.152343 3.589843.003907 6.597656-2.707031 6.96875-6.277343.367187-3.570313-2.019532-6.839844-5.53125-7.574219-9.867188-2.082031-19.976563-4-30.035157-5.722656-3.789062-.597656-7.351562 1.957031-7.996093 5.738281-.644532 3.777344 1.871093 7.371094 5.640624 8.0625zm21.414063 73.476563c-50.996094 14.890625-122.574219 13.707031-123.273437 13.699218-1.859376-.058593-3.667969.636719-5.011719 1.929688-1.339844 1.292969-2.105469 3.070312-2.121094 4.933594-.070313 3.863281 3 7.058594 6.867187 7.132812.445313 0 2.398438.042969 5.566407.042969 18.210937 0 76.691406-1.101563 121.902343-14.304687 3.640626-1.140626 5.695313-4.980469 4.625-8.640626-1.066406-3.660156-4.867187-5.792968-8.546874-4.792968zm-159.886719 12.027344c-17.835937-2-30.070312-4.117188-30.191406-4.136719-3.789062-.632813-7.378906 1.910156-8.042969 5.691406-.667969 3.785156 1.84375 7.398437 5.621094 8.097656.511719.085938 12.75 2.230469 31.070313 4.257813 3.84375.425781 7.304687-2.34375 7.730468-6.183594.425782-3.84375-2.34375-7.304688-6.183594-7.730469zm138.421875 177.335937c-.246093.136719-25.433593 13.789063-81.496093 18.238281-3.753907.285156-6.613282 3.492188-6.464844 7.253906.148437 3.765626 3.246094 6.738282 7.011718 6.726563.1875 0 .375 0 .566407-.019531 59.578125-4.726563 86.140625-19.367188 87.238281-20 3.335938-1.910156 4.507812-6.148438 2.625-9.5-1.878906-3.351563-6.109375-4.558594-9.476562-2.707032zm-98.117187-42.308594 6.082031-6.082031-.757813-4.050781c-1.847656-9.925781.453126-20.171875 6.367188-28.355469 5.917969-8.183594 14.925781-13.582031 24.929688-14.941406l21.792968-2.957032c2.164063-.296874 4.34375.441407 5.886719 1.984376 1.546875 1.546874 2.28125 3.722656 1.988281 5.890624l-2.960937 21.792969c-2.480469 18.238281-18.023438 31.863281-36.429688 31.933594-2.304687 0-4.605469-.214844-6.867187-.640625l-4.054688-.753906-6.078125 6.078125c-2.734375 2.734375-7.167969 2.734375-9.902343 0-2.730469-2.734375-2.730469-7.164063 0-9.898438zm18.800781-18.800781 5.199219-5.199219c2.734375-2.734375 7.167968-2.734375 9.902344 0 2.734374 2.734375 2.734374 7.164063 0 9.898438l-5.199219 5.199219c10.691406-.875 19.335937-9.074219 20.769531-19.710938l1.722656-12.675781-12.679687 1.71875c-10.628907 1.441406-18.832031 10.082031-19.710938 20.773437zm-87.03125 149.628906c-.886719 1.632813-2.386719 2.84375-4.167969 3.371094-1.785156.523438-3.703125.320312-5.332031-.570312l-7.546875-4.117188-3.675781 1.867188c-9.003907 4.574218-19.488281 5.253906-29.003907 1.886718-9.519531-3.367187-17.242187-10.488281-21.367187-19.707031l-8.980469-20.074219c-.894531-1.996094-.804687-4.292968.242188-6.214844 1.046875-1.917968 2.929687-3.238281 5.09375-3.566406l21.742187-3.308594c9.980469-1.515624 20.148438 1.125 28.132813 7.308594 7.980468 6.183594 13.078125 15.367188 14.101562 25.414063l.402344 4.097656 7.546875 4.121094c3.398437 1.84375 4.65625 6.09375 2.8125 9.492187zm-32.828125-9.941406-6.4375-3.511719c-3.363281-1.863281-4.59375-6.097656-2.75-9.476562 1.84375-3.378907 6.070312-4.632813 9.460938-2.8125l6.433593 3.511719c-3.859375-10.007813-14.160156-15.984376-24.765625-14.367188l-12.652344 1.925781 5.226563 11.675781c4.375 9.792969 14.976563 15.226563 25.484375 13.054688zm-82.074219-126.175781c-5.957031 1.960937-12.457031 1.367187-17.957031-1.644531-2.207031-1.273438-4.929688-1.25-7.113281.0625-2.179688 1.3125-3.480469 3.707031-3.386719 6.25.09375 2.546874 1.558594 4.839843 3.832031 5.992187 5.367188 2.929687 11.382813 4.46875 17.496094 4.476563 3.886719-.003907 7.746094-.621094 11.441406-1.828126 9.625-3.082031 17.546875-10.011718 21.878907-19.144531l3.375-7.042969c1.253906-2.605468.777343-5.714843-1.199219-7.824218l-5.367188-5.675782c-6.925781-7.351562-16.558593-11.539062-26.65625-11.59375-10.097656-.050781-19.773437 4.035157-26.773437 11.3125l-15.246094 15.851563c-2.683594 2.785156-2.597656 7.21875.1875 9.898437 2.785156 2.679688 7.21875 2.597657 9.898438-.1875l15.25-15.84375c4.296874-4.574218 10.328124-7.121093 16.605468-7.015624 6.273438.011718 12.257813 2.617187 16.539063 7.203124l2.066406 2.191407-1.300781 2.710937c-2.691406 5.65625-7.605469 9.945313-13.570313 11.851563zm0 0" fill="#002d42"/></svg>