<svg height="463pt" viewBox="-22 0 463 463.15265" width="463pt" xmlns="http://www.w3.org/2000/svg"><path d="m332.058594 19.972656c-4.441406.015625-8.742188 1.550782-12.195313 4.347656-1.140625-9.867187-9.496093-17.308593-19.429687-17.308593-9.929688 0-18.285156 7.441406-19.429688 17.308593-7.667968-6.109374-18.675781-5.609374-25.761718 1.167969-7.085938 6.777344-8.070313 17.75-2.304688 25.683594-7.414062 3.730469-11.289062 12.0625-9.363281 20.132813 1.925781 8.070312 9.148437 13.757812 17.445312 13.734374 9.910157 0 62.800781-25.730468 71.03125-25.730468 10.863281 0 19.667969-8.804688 19.667969-19.667969s-8.804688-19.667969-19.667969-19.667969zm0 0" fill="#fabe02"/><path d="m332.058594 19.972656c-2.050782.011719-4.089844.359375-6.035156 1.023438 9.273437 2.890625 15.03125 12.136718 13.535156 21.730468-1.496094 9.597657-9.792969 16.652344-19.507813 16.582032-7.179687 0-48.238281 19.527344-65.246093 24.554687 1.988281.761719 4.09375 1.160157 6.222656 1.175781 9.910156 0 62.800781-25.730468 71.03125-25.730468 10.863281 0 19.667968-8.804688 19.667968-19.667969s-8.804687-19.667969-19.667968-19.667969zm0 0" fill="#f59a1d"/><path d="m307.855469 24.304688c3.132812-2.5 6.960937-3.980469 10.960937-4.234376-1.632812-4.839843-5.125-8.828124-9.699218-11.089843-4.578126-2.257813-9.867188-2.605469-14.699219-.964844 7.265625 2.351563 12.511719 8.707031 13.4375 16.289063zm0 0" fill="#f59a1d"/><path d="m198.914062 288.75h30.046876v167.398438h-30.046876zm0 0" fill="#0162a7"/><path d="m216.15625 288.75h12.800781v167.398438h-12.800781zm0 0" fill="#004584"/><path d="m228.960938 288.75h-30.046876v14.421875c5.105469.679687 10.25 1.027344 15.402344 1.035156 4.894532-.007812 9.785156-.324219 14.644532-.9375zm0 0" fill="#004584"/><path d="m412.394531 350.582031-44.433593-36.925781v21.902344h-273.402344l-18.792969-21.902344h-63.382813l31.695313 36.925781-31.695313 36.921875h63.382813l18.792969-21.898437h273.402344v21.898437zm0 0" fill="#0162a7"/><g fill="#004584"><path d="m94.558594 335.558594-18.792969-21.902344h-16.875l18.796875 21.902344zm0 0"/><path d="m58.890625 387.503906h16.875l18.792969-21.898437h-16.871094zm0 0"/><path d="m367.960938 313.65625v14.023438l27.558593 22.902343-27.558593 22.898438v14.023437l44.433593-36.921875zm0 0"/><path d="m198.914062 386.703125c9.617188 3.988281 20.425782 3.988281 30.046876 0v-72.246094c-9.621094-3.988281-20.429688-3.988281-30.046876 0zm0 0"/><path d="m250.054688 335.574219h-72.242188c-3.988281 9.617187-3.988281 20.425781 0 30.046875h72.242188c3.988281-9.621094 3.988281-20.429688 0-30.046875zm0 0"/></g><path d="m301.734375 43.820312c-16.769531 0-30.363281 13.59375-30.363281 30.363282v75.679687h-174.835938v24.871094c0 65.046875 52.730469 117.785156 117.78125 117.789063 65.054688 0 117.792969-52.734376 117.792969-117.789063v-100.546875c0-16.773438-13.597656-30.371094-30.375-30.367188zm0 0" fill="#ff414d"/><path d="m301.734375 43.820312c-3.019531 0-6.023437.449219-8.914063 1.335938 12.746094 3.917969 21.445313 15.691406 21.449219 29.027344v100.550781c-.007812 61.582031-47.460937 112.765625-108.871093 117.421875 2.949218.21875 5.914062.371094 8.917968.371094 65.054688 0 117.792969-52.738282 117.792969-117.792969v-100.546875c0-16.773438-13.597656-30.371094-30.375-30.367188zm0 0" fill="#d8283f"/><path d="m122.609375 149.867188h150.601563v15.898437c0 41.585937-33.710938 75.300781-75.296876 75.300781-41.589843 0-75.304687-33.714844-75.304687-75.300781zm0 0" fill="#f59a1d"/><path d="m173.628906 149.867188h99.597656v10.503906c.007813 27.511718-22.296874 49.808594-49.804687 49.800781-27.503906 0-49.796875-22.296875-49.792969-49.800781zm0 0" fill="#fabe02"/><path d="m332.109375 81.535156h26.425781c7.070313 0 12.800782 5.730469 12.800782 12.800782 0 7.070312-5.730469 12.800781-12.800782 12.800781h-26.425781zm0 0" fill="#fabe02"/><path d="m309.378906 91.253906c-3.863281 0-7-3.136718-7-7v-9.824218c0-3.867188 3.136719-7 7-7 3.867188 0 7 3.132812 7 7v9.824218c0 3.863282-3.132812 7-7 7zm0 0" fill="#002d42"/><path d="m7.078125 29.34375h52.214844c20.566406-.003906 37.242187 16.664062 37.242187 37.234375v83.289063h-53.320312c-19.957032 0-36.136719-16.179688-36.136719-36.136719v-84.402344zm0 0" fill="#ff414d"/><path d="m59.292969 29.34375h-18.800781c20.5625 0 37.230468 16.671875 37.230468 37.234375v83.289063h18.800782v-83.289063c0-20.5625-16.667969-37.234375-37.230469-37.234375zm0 0" fill="#d8283f"/><path d="m96.535156 92.207031c0-20.5625-16.667968-37.230469-37.230468-37.230469h-52.226563v32.027344h52.214844c20.566406-.007812 37.242187 16.664063 37.242187 37.234375zm0 0" fill="#fabe02"/><path d="m77.015625 59.460938c.460937 2.34375.691406 4.730468.695313 7.121093v25.332031c11.621093 6.613282 18.800781 18.953126 18.800781 32.328126v-32.035157c.007812-13.664062-7.476563-26.238281-19.496094-32.746093zm0 0" fill="#f59a1d"/><path d="m233.6875 370.328125v.003906c-10.910156 10.910157-28.597656 10.910157-39.507812 0l-.003907-.003906c-10.910156-10.90625-10.910156-28.597656 0-39.503906l.003907-.003907c10.910156-10.910156 28.597656-10.910156 39.507812 0v.003907c10.910156 10.90625 10.910156 28.597656 0 39.503906zm0 0" fill="#ff414d"/><path d="m233.6875 330.824219c-6.632812-6.632813-16.15625-9.488281-25.34375-7.597657 5.367188 1.082032 10.296875 3.722657 14.167969 7.597657 10.910156 10.910156 10.910156 28.597656 0 39.507812-3.871094 3.875-8.800781 6.519531-14.167969 7.601563 9.1875 1.886718 18.710938-.96875 25.34375-7.601563 10.910156-10.910156 10.910156-28.597656 0-39.507812zm0 0" fill="#d8283f"/><path d="m332.40625 215.171875c-2.542969 7.417969-5.78125 14.578125-9.675781 21.386719-1.207031 2.234375-3.53125 3.636718-6.070313 3.667968-2.539062.03125-4.898437-1.316406-6.160156-3.519531s-1.230469-4.917969.082031-7.09375c3.449219-6.039062 6.320313-12.390625 8.578125-18.96875 1.308594-3.574219 5.234375-5.445312 8.835938-4.214843 3.601562 1.230468 5.5625 5.113281 4.410156 8.742187zm-23.023438-147.757813c-3.863281 0-7 3.132813-7 7v9.839844c0 3.863282 3.136719 7 7 7 3.867188 0 7-3.136718 7-7v-9.824218c0-3.867188-3.136718-7.003907-7.003906-7zm-302.304687-45.070312h52.214844c24.417969.027344 44.203125 19.816406 44.230469 44.234375v76.285156h160.855468v-68.679687c-.027344-16.207032 10.40625-30.582032 25.828125-35.574219 15.417969-4.992187 32.300781.539063 41.773438 13.691406h.101562c6.996094 0 12.667969-5.671875 12.667969-12.667969 0-6.996093-5.671875-12.667968-12.667969-12.667968-2.855469.019531-5.621093 1.015625-7.832031 2.820312-1.984375 1.582032-4.671875 1.964844-7.019531 1.003906-2.347657-.964843-3.988281-3.121093-4.292969-5.640624-.722656-6.347657-6.09375-11.144532-12.480469-11.144532-6.390625 0-11.761719 4.796875-12.480469 11.144532-.308593 2.519531-1.949218 4.671874-4.296874 5.632812-2.347657.960938-5.03125.578125-7.015626-1.003906-4.925781-3.976563-12.039062-3.679688-16.609374.699218-4.574219 4.375-5.1875 11.46875-1.429688 16.5625 1.203125 1.660157 1.621094 3.761719 1.144531 5.753907-.480469 1.992187-1.808593 3.675781-3.632812 4.605469-3.679688 1.828124-6.015625 5.578124-6.027344 9.6875 0 3.863281-3.136719 7-7 7-3.867187 0-7-3.136719-7-7-.011719-6.835938 2.8125-13.367188 7.796875-18.042969-1.15625-3.003907-1.746094-6.199219-1.746094-9.417969.019532-14.722656 11.945313-26.652344 26.667969-26.667969 2.757813-.003906 5.496094.429688 8.117187 1.289063 4.570313-8.757813 13.628907-14.246094 23.507813-14.246094 9.875 0 18.933594 5.488281 23.507813 14.246094 2.621093-.859375 5.359374-1.292969 8.117187-1.289063 13.550781 0 24.949219 10.167969 26.484375 23.636719 1.535156 13.464844-7.28125 25.941406-20.484375 28.992188.679687 2.816406 1.027344 5.703124 1.039063 8.601562v.351562h19.417968c7.167969-.140624 13.855469 3.597657 17.484375 9.785157 3.625 6.183593 3.625 13.847656 0 20.03125-3.628906 6.1875-10.316406 9.929687-17.484375 9.785156h-19.425781v60.59375c0 5.734375-.390625 11.464844-1.167969 17.148437-.527344 3.832032-4.058594 6.511719-7.890625 5.984376-3.832031-.527344-6.507812-4.058594-5.984375-7.890626.695313-5.054687 1.042969-10.148437 1.042969-15.246093v-17.867188h-44.898437v8.902344c0 33.378906-20.164063 63.449219-51.039063 76.128906-30.878906 12.679688-66.355469 5.453125-89.816406-18.292969-1.804688-1.769531-2.515625-4.375-1.859375-6.816406s2.578125-4.339844 5.027344-4.964844c2.449218-.625 5.046874.117188 6.792968 1.945313 13.253906 13.441406 31.492188 20.785156 50.363282 20.273437 18.871093-.511718 36.6875-8.828124 49.195312-22.964843-17.585938 8.890625-38.535156 8.007812-55.3125-2.335938-16.777344-10.339843-26.976562-28.65625-26.933594-48.367187v-3.511719h-37.019531v8.902344c-.039063 10.621093 2.429687 21.101562 7.199219 30.589843 1.144531 2.238282 1 4.917969-.375 7.023438-1.375 2.101562-3.773438 3.304688-6.285156 3.152344-2.507813-.152344-4.742188-1.640625-5.851563-3.894532-5.761719-11.4375-8.742187-24.070312-8.703125-36.875v-8.894531h-12.070312v17.871094c.007812 46.511719 29.070312 88.070313 72.753906 104.042969 43.6875 15.972656 92.699218 2.957031 122.707031-32.585938 2.496094-2.953125 6.914063-3.324218 9.867187-.828125 2.953126 2.496094 3.324219 6.914063.828126 9.871094-18.839844 22.339844-44.933594 37.347656-73.71875 42.398437v25.84375c1.867187 1.519532 3.578124 3.226563 5.09375 5.097657h119.910156v-14.917969c0-2.714844 1.566406-5.1875 4.027344-6.339844 2.457031-1.152344 5.359374-.78125 7.449218.957032l44.429688 36.917968c1.601562 1.332032 2.523437 3.304688 2.523437 5.382813 0 2.082031-.921875 4.050781-2.523437 5.382812l-44.429688 36.917969c-2.089844 1.738281-4.992187 2.109375-7.449218.957031-2.460938-1.152343-4.027344-3.625-4.027344-6.339843v-14.886719h-48.347656c-3.867188 0-7-3.136719-7-7 0-3.867188 3.132812-7 7-7h55.34375c3.867187 0 7 3.132812 7 7v6.980469l26.480468-22-26.480468-22v6.988281c0 3.863281-3.132813 7-7 7h-120.039063c.035156.144531.042969.296875.078125.445312.214844.972657.398438 1.949219.511719 2.933594.035156.277344.089843.550781.121093.828125.277344 2.539062.277344 5.101562 0 7.640625-.027343.269531-.082031.542969-.117187.796875-.132813.988281-.300781 1.96875-.511719 2.941406-.03125.148438-.042968.300782-.074218.449219h32.875c3.867187 0 7 3.132813 7 7s-3.132813 7-7 7h-39.75c-1.515626 1.867187-3.226563 3.578125-5.09375 5.09375v78.449219c0 3.867187-3.132813 7-7 7h-30.050782c-3.867187 0-7-3.132813-7-7v-78.453125c-1.871094-1.515625-3.578125-3.226563-5.097656-5.09375h-89.035156l-16.699219 19.457031c-1.332031 1.546875-3.273437 2.4375-5.3125 2.4375h-63.382813c-2.734374 0-5.21875-1.589844-6.359374-4.078125-1.144532-2.484375-.734376-5.40625 1.050781-7.480469l27.777343-32.363281-27.777343-32.367187c-1.785157-2.074219-2.195313-4.996094-1.050781-7.480469 1.140624-2.484375 3.625-4.078125 6.359374-4.078125h63.382813c2.039063 0 3.980469.890625 5.3125 2.441406l16.699219 19.453125h89.035156c1.519531-1.867187 3.226562-3.574219 5.097656-5.09375v-11.765625c0-3.863281 3.132813-7 7-7 3.863282 0 7 3.136719 7 7v4.910156c.132813-.03125.269532-.039062.398438-.074218 1-.21875 2-.398438 3.019531-.527344.257813-.035156.511719-.082032.769531-.113282 2.542969-.277343 5.109375-.277343 7.65625 0 .261719.03125.527344.082032.796875.117188 1.003907.132812 2 .304688 2.988281.523438.140626.035156.28125.042968.402344.074218v-17.320312c-2.535156.15625-5.085937.25-7.644531.25-68.894531-.070313-124.726563-55.902344-124.800781-124.796875v-17.867188h-46.28125c-23.808594-.03125-43.101563-19.324219-43.136719-43.132812v-84.402344c.0078125-3.859375 3.136719-6.984375 7-6.984375zm215.082031 347.453125c4.960938-2.074219 8.910156-6.019531 10.984375-10.980469.160157-.371094.28125-.75.398438-1.128906.289062-.785156.527343-1.585938.71875-2.398438.085937-.402343.183593-.777343.246093-1.167968.191407-1.089844.296876-2.191406.316407-3.296875 0-.148438 0-.292969 0-.4375-.019531-1.105469-.125-2.214844-.316407-3.304688-.0625-.402343-.160156-.773437-.246093-1.15625-.191407-.828125-.433594-1.644531-.722657-2.441406-.128906-.371094-.25-.742187-.398437-1.109375-2.074219-4.964844-6.023437-8.910156-10.988281-10.988281-.355469-.148438-.726563-.265625-1.09375-.398438-.808594-.296875-1.640625-.542969-2.480469-.734375-.367187-.085937-.734375-.171875-1.101563-.238281-1.15625-.207031-2.332031-.320313-3.507812-.335937h-.078125c-1.179687.015624-2.359375.125-3.523437.335937-.363282.066406-.71875.148437-1.078126.234375-.851562.195312-1.691406.441406-2.511718.742188-.355469.128906-.71875.246093-1.070313.402343-4.960937 2.070313-8.910156 6.015625-10.988281 10.976563-.15625.363281-.269531.738281-.398438 1.105468-.289062.800782-.53125 1.617188-.722656 2.445313-.089844.398437-.179687.765625-.25 1.15625-.191406 1.089844-.296875 2.195313-.316406 3.304687v.4375c.019531 1.105469.125 2.207032.316406 3.296876.070313.398437.160156.800781.25 1.167968.1875.820313.425782 1.628906.714844 2.417969.136719.378906.253906.757813.398438 1.125 2.074218 4.960937 6.019531 8.90625 10.980468 10.980469.367188.15625.75.277344 1.121094.398437.796875.289063 1.605469.53125 2.433594.722657.398437.085937.761718.179687 1.144531.242187 1.109375.195313 2.230469.304687 3.359375.320313h.34375c1.125-.015626 2.25-.125 3.363281-.324219.398438-.0625.753907-.15625 1.136719-.238281.832031-.191407 1.652344-.4375 2.457031-.730469.378907-.132813.75-.25 1.109375-.402344zm-42.289062-11.640625c-.214844-.976562-.398438-1.957031-.511719-2.941406-.035156-.269532-.085937-.542969-.113281-.796875-.277344-2.539063-.277344-5.101563 0-7.640625.03125-.277344.082031-.550782.117187-.828125.132813-.984375.296875-1.960938.511719-2.933594.035156-.148437.046875-.300781.082031-.445313h-85.398437c-2.039063 0-3.980469-.890624-5.308594-2.441406l-16.714844-19.472656h-44.917968l21.769531 25.363281c2.25 2.625 2.25 6.496094 0 9.117188l-21.769531 25.363281h44.917968l16.699219-19.457031c1.332031-1.546875 3.273437-2.4375 5.3125-2.4375h85.402344c-.03125-.148438-.042969-.300781-.078125-.449219zm41.65625 26.484375c-.976563.214844-1.953125.398437-2.941406.515625-.28125.035156-.558594.089844-.835938.121094-2.53125.300781-5.089844.300781-7.621094 0-.285156-.03125-.570312-.085938-.851562-.125-.984375-.132813-1.960938-.300782-2.933594-.511719-.144531-.03125-.289062-.039063-.429688-.074219v64.582032h16.046876v-64.582032c-.144532.03125-.292969.042969-.4375.074219zm117.601562-296.105469v11.601563h19.40625c2.125.078125 4.121094-1.007813 5.207032-2.835938 1.085937-1.828125 1.085937-4.101562 0-5.929687-1.085938-1.824219-3.082032-2.914063-5.207032-2.835938zm-60.75 54.328125h46.730469v-68.679687c0-12.902344-10.460937-23.363282-23.363281-23.363282-12.90625 0-23.367188 10.460938-23.367188 23.363282zm-97.75 14v3.507813c0 23.640625 19.160156 42.800781 42.800782 42.800781 23.636718 0 42.796874-19.160156 42.796874-42.800781v-3.511719zm-137.417968-14h46.3125v-18.625c-.019532-16.691406-13.542969-30.214843-30.230469-30.234375-3.867188 0-7-3.132812-7-7 0-3.867187 3.132812-7 7-7 11.238281.003906 22.054687 4.304688 30.222656 12.023438-.109375-16.617188-13.605469-30.035156-30.222656-30.054688h-45.199219v18.027344h23.199219c3.867187 0 7 3.132812 7 7s-3.132813 7-7 7h-23.199219v19.726562c.015625 16.078126 13.042969 29.113282 29.121094 29.136719zm-29.136719-106.519531v11.628906h45.199219c10.792968.003906 21.210937 3.972656 29.265624 11.15625-3.40625-13.390625-15.449218-22.773437-29.265624-22.800781zm0 0" fill="#002d42"/></svg>