<svg height="458pt" viewBox="0 -9 458.40802 458" width="458pt" xmlns="http://www.w3.org/2000/svg"><path d="m7 7.222656h444.40625v319.734375h-444.40625zm0 0" fill="#d9ecf2"/><g fill="#bdd9e5"><path d="m407.347656 7.222656h44.058594v319.734375h-44.058594zm0 0"/><path d="m265.824219 7.222656h-75.5l261.082031 261.085938v-75.5zm0 0"/><path d="m157.679688 7.222656h-26.046876l319.726563 319.730469h.046875v-26zm0 0"/><path d="m7 104.308594 222.644531 222.644531h52.097657l-274.742188-274.742187zm0 0"/><path d="m244.960938 81.933594c3.734374 1 7.570312-1.214844 8.574218-4.949219l3.601563-13.484375c1-3.734375-1.214844-7.574219-4.949219-8.574219s-7.574219 1.214844-8.574219 4.949219l-3.601562 13.484375c-1 3.734375 1.214843 7.570313 4.949219 8.574219zm0 0"/><path d="m278.585938 100.539062c1.855468.003907 3.636718-.734374 4.945312-2.050781l9.871094-9.882812c2.734375-2.734375 2.734375-7.167969 0-9.902344-2.730469-2.734375-7.164063-2.734375-9.898438 0l-9.867187 9.902344c-2 2-2.597657 5.011719-1.515625 7.625 1.082031 2.613281 3.632812 4.320312 6.464844 4.320312zm0 0"/><path d="m290.191406 127.164062c1.003906 3.734376 4.84375 5.949219 8.578125 4.949219l13.484375-3.601562c3.734375-1 5.949219-4.839844 4.949219-8.574219s-4.839844-5.949219-8.574219-4.949219l-13.484375 3.601563c-3.738281.996094-5.953125 4.839844-4.953125 8.574218zm0 0"/><path d="m312.246094 158.9375-13.480469-3.601562c-3.734375-1-7.574219 1.214843-8.574219 4.949218-1.003906 3.734375 1.214844 7.574219 4.949219 8.574219l13.484375 3.601563c3.734375 1 7.574219-1.214844 8.574219-4.949219s-1.214844-7.574219-4.953125-8.574219zm0 0"/><path d="m173.277344 98.488281c2.757812 2.554688 7.042968 2.476563 9.703125-.179687 2.660156-2.65625 2.746093-6.941406.195312-9.703125l-9.871093-9.875c-1.730469-1.925781-4.378907-2.738281-6.894532-2.117188-2.511718.625-4.472656 2.582031-5.105468 5.09375-.628907 2.507813.179687 5.164063 2.097656 6.898438zm0 0"/><path d="m166.621094 160.273438c-1.003906-3.738282-4.84375-5.953126-8.578125-4.949219l-13.484375 3.601562c-3.734375 1-5.949219 4.835938-4.949219 8.570313 1 3.738281 4.839844 5.953125 8.574219 4.953125l13.484375-3.601563c3.738281-1 5.953125-4.839844 4.953125-8.574218zm0 0"/><path d="m144.558594 128.5 13.484375 3.601562c3.734375 1 7.574219-1.21875 8.574219-4.953124 1-3.734376-1.214844-7.570313-4.949219-8.574219l-13.484375-3.597657c-3.734375-1-7.574219 1.214844-8.574219 4.949219s1.214844 7.574219 4.949219 8.574219zm0 0"/><path d="m203.277344 76.984375c1 3.734375 4.839844 5.949219 8.574218 4.949219 3.734376-1 5.949219-4.839844 4.949219-8.574219l-3.597656-13.484375c-1-3.734375-4.839844-5.949219-8.574219-4.949219s-5.949218 4.839844-4.949218 8.574219zm0 0"/><path d="m305.773438 182.367188c-6.230469.003906-12.335938 1.738281-17.632813 5.011718-.335937-1.265625-.730469-2.515625-1.164063-3.738281-.171874-.492187-.378906-.964844-.570312-1.449219-.273438-.710937-.546875-1.421875-.855469-2.121094-.277343-.628906-.589843-1.242187-.894531-1.859374-.253906-.507813-.496094-1.023438-.765625-1.519532-.398437-.707031-.796875-1.394531-1.199219-2.082031-.222656-.375-.445312-.746094-.675781-1.109375-.484375-.761719-.996094-1.496094-1.515625-2.226562-.183594-.257813-.367188-.515626-.558594-.773438-.589844-.800781-1.203125-1.570312-1.839844-2.316406l-.402343-.480469c-.699219-.800781-1.421875-1.585937-2.171875-2.359375l-.230469-.230469c-.488281-.492187-.964844-.996093-1.476563-1.46875 1.847657-4.222656 3.097657-8.683593 3.710938-13.253906 3.089844-22.625-9.675781-44.433594-30.914062-52.820313-21.238282-8.386718-45.457032-1.183593-58.660157 17.449219-13.203125 18.628907-11.976562 43.867188 2.976563 61.128907.777344.898437 1.546875 1.804687 2.398437 2.660156.441407.4375.914063.800781 1.367188 1.238281-1.992188 4.464844-3.308594 9.195313-3.910157 14.046875-1.839843-.441406-3.714843-.699219-5.601562-.769531-.207031-2.71875-1.984375-5.066407-4.542969-6.003907-2.558593-.941406-5.429687-.300781-7.347656 1.636719l-9.894531 9.863281c-1.503906 1.515626-2.230469 3.636719-1.96875 5.753907-6.457032 8.570312-7.507813 20.050781-2.714844 29.648437s14.601562 15.65625 25.328125 15.644532h121.722656c18.640625 0 33.75-15.109376 33.75-33.75 0-18.640626-15.109375-33.753907-33.75-33.753907zm0 0"/></g><path d="m7 280.011719h444.40625v46.941406h-444.40625zm0 0" fill="#0162a7"/><path d="m407.347656 280.011719h44.058594v46.941406h-44.058594zm0 0" fill="#004584"/><path d="m249.742188 108.632812c19.378906 19.378907 19.378906 50.792969 0 70.167969-19.375 19.378907-50.789063 19.378907-70.164063 0-19.378906-19.375-19.378906-50.789062 0-70.167969 19.375-19.375 50.789063-19.375 70.164063 0zm0 0" fill="#fabe02"/><path d="m249.742188 178.800781c7.671874-7.667969 12.601562-17.648437 14.03125-28.402343-12.773438-14.675782-32.941407-20.535157-51.589844-14.988282-18.648438 5.546875-32.335938 21.476563-35.011719 40.746094.78125.898438 1.546875 1.804688 2.398437 2.660156 19.378907 19.382813 50.804688 19.375 70.171876-.015625zm0 0" fill="#f59a1d"/><path d="m164.480469 100.539062c-1.855469.003907-3.636719-.734374-4.949219-2.050781l-9.871094-9.882812c-2.734375-2.734375-2.734375-7.167969 0-9.902344s7.167969-2.734375 9.898438 0l9.875 9.902344c2 2 2.597656 5.011719 1.515625 7.625-1.085938 2.613281-3.636719 4.320312-6.464844 4.320312zm-11.601563 26.625c.992188-3.730468-1.222656-7.558593-4.949218-8.558593l-13.484376-3.601563c-3.734374-1-7.574218 1.214844-8.574218 4.949219s1.214844 7.574219 4.949218 8.574219l13.484376 3.601562c3.734374 1 7.570312-1.214844 8.574218-4.949218zm-18.433594 45.296876 13.484376-3.601563c3.734374-1 5.949218-4.839844 4.949218-8.574219s-4.839844-5.949218-8.574218-4.949218l-13.484376 3.601562c-3.734374 1-5.949218 4.839844-4.949218 8.574219s4.839844 5.949219 8.574218 4.949219zm105.34375-95.476563 3.597657-13.484375c1.003906-3.734375-1.214844-7.574219-4.949219-8.574219s-7.574219 1.214844-8.574219 4.949219l-3.597656 13.484375c-1.003906 3.734375 1.214844 7.574219 4.949219 8.574219s7.574218-1.214844 8.574218-4.949219zm-41.679687 4.949219c3.734375-1.003906 5.949219-4.84375 4.945313-8.578125l-3.597657-13.484375c-1-3.734375-4.839843-5.949219-8.574219-4.949219-3.734374 1-5.953124 4.839844-4.949218 8.574219l3.597656 13.484375c1.003906 3.734375 4.84375 5.949219 8.578125 4.949219zm81.554687 126.796875c1.3125-1.3125 2.050782-3.089844 2.050782-4.949219 0-1.855469-.738282-3.636719-2.050782-4.949219l-9.871093-9.871093c-2.734375-2.734376-7.167969-2.734376-9.902344 0-2.730469 2.734374-2.730469 7.164062 0 9.898437l9.875 9.871094c1.3125 1.316406 3.089844 2.054687 4.949219 2.054687 1.855468 0 3.636718-.738281 4.949218-2.054687zm-9.875-110.242188 9.871094-9.882812c2.734375-2.734375 2.734375-7.167969 0-9.902344s-7.167968-2.734375-9.898437 0l-9.871094 9.902344c-2.730469 2.730469-2.730469 7.164062 0 9.898437 2.734375 2.734375 7.167969 2.734375 9.902344 0zm-110.230468 110.230469 9.875-9.871094c2.730468-2.734375 2.730468-7.164062 0-9.898437-2.734375-2.734375-7.167969-2.734375-9.902344 0l-9.871094 9.871093c-2.734375 2.734376-2.734375 7.164063 0 9.898438s7.167969 2.734375 9.898438 0zm143.898437-41.199219c1-3.734375-1.214843-7.574219-4.949219-8.574219l-13.484374-3.601562c-3.734376-1-7.574219 1.214844-8.574219 4.949219s1.214843 7.574219 4.949219 8.574219l13.484374 3.601562c3.734376 1 7.574219-1.214844 8.578126-4.949219zm-18.433593-35.398437 13.484374-3.601563c3.734376-1 5.949219-4.839843 4.949219-8.574219-1-3.734374-4.839843-5.949218-8.574219-4.949218l-13.484374 3.601562c-3.734376 1-5.949219 4.835938-4.949219 8.574219 1 3.734375 4.839843 5.949219 8.574219 4.949219zm-85.578126 95.4375 3.597657-13.484375c1-3.734375-1.214844-7.570313-4.949219-8.570313-3.734375-1.003906-7.574219 1.214844-8.574219 4.949219l-3.597656 13.484375c-1.003906 3.734375 1.214844 7.570312 4.949219 8.574219 3.734375 1 7.570312-1.21875 8.574218-4.953125zm39.011719 4.949218c3.734375-1 5.949219-4.839843 4.945313-8.574218l-3.597656-13.484375c-1-3.734375-4.839844-5.953125-8.574219-4.953125-3.734375 1.003906-5.953125 4.839844-4.949219 8.574218l3.597656 13.484376c1.003906 3.734374 4.84375 5.949218 8.578125 4.949218zm0 0" fill="#fabe02"/><path d="m292.027344 182.367188c-6.226563.003906-12.328125 1.738281-17.625 5.007812-6.125-23-27.695313-38.429688-51.441406-36.796875-23.75 1.636719-43.003907 19.878906-45.917969 43.5-10.609375-2.597656-21.769531 1.144531-28.667969 9.613281-6.902344 8.46875-8.3125 20.152344-3.625 30.019532 4.6875 9.867187 14.636719 16.15625 25.5625 16.15625h121.71875c18.640625 0 33.753906-15.109376 33.753906-33.75 0-18.640626-15.113281-33.753907-33.753906-33.753907zm0 0" fill="#26a3b9"/><path d="m259.015625 162.742188c-6.175781 19.382812 2.707031 48.128906 2.707031 48.128906s0-15.878906 12.667969-23.496094c-2.558594-9.558594-7.910156-18.132812-15.375-24.632812zm0 0" fill="#168aa5"/><path d="m289.953125 404.753906h-121.496094l27.132813-77.800781h67.230468zm0 0" fill="#26a3b9"/><path d="m262.820312 326.953125h-22.34375l27.132813 77.800781h22.34375zm0 0" fill="#168aa5"/><path d="m122.566406 404.753906h213.273438v27.632813h-213.273438zm0 0" fill="#0162a7"/><path d="m308.203125 404.753906h27.636719v27.632813h-27.636719zm0 0" fill="#004584"/><path d="m60.589844 45.628906c0 6.9375-5.625 12.5625-12.566406 12.5625-6.9375 0-12.5625-5.625-12.5625-12.5625 0-6.941406 5.625-12.566406 12.5625-12.566406 6.941406 0 12.566406 5.625 12.566406 12.566406zm0 0" fill="#ff414d"/><path d="m110.855469 45.628906c0 6.9375-5.625 12.5625-12.5625 12.5625-6.941407 0-12.566407-5.625-12.566407-12.5625 0-6.941406 5.625-12.566406 12.566407-12.566406 6.9375 0 12.5625 5.625 12.5625 12.566406zm0 0" fill="#fabe02"/><path d="m422.949219 52.628906h-31.203125c-3.863282 0-7-3.136718-7-7 0-3.867187 3.136718-7 7-7h31.203125c3.863281 0 7 3.132813 7 7 0 3.863282-3.136719 7-7 7zm7 15.800782c0-3.867188-3.136719-7-7-7h-31.203125c-3.863282 0-7 3.132812-7 7 0 3.863281 3.136718 7 7 7h31.203125c3.863281 0 7-3.136719 7-7zm0 0" fill="#002d42"/><path d="m263.519531 310.484375h-68.636719c-3.863281 0-7-3.132813-7-7s3.136719-7 7-7h68.636719c3.867188 0 7 3.132813 7 7s-3.132812 7-7 7zm0 0" fill="#004584"/><path d="m268.058594 14.203125c-3.863282 0-7-3.132813-7-7 0-3.863281 3.136718-7 7-7h21.898437c3.863281 0 7 3.136719 7 7 0 3.867187-3.136719 7-7 7zm4.617187 319.734375 22.25 63.792969h40.917969c3.867188 0 7 3.136719 7 7v27.636719c0 3.867187-3.132812 7-7 7h-213.277344c-3.863281 0-7-3.132813-7-7v-27.636719c0-3.863281 3.136719-7 7-7h40.917969l8.039063-23.050781c.726562-2.484376 2.761718-4.363282 5.296874-4.890626 2.53125-.527343 5.148438.386719 6.804688 2.375 1.65625 1.988282 2.078125 4.726563 1.097656 7.125l-6.425781 18.4375h101.800781l-22.25-63.773437h-57.289062l-8.261719 23.699219c-.726563 2.484375-2.761719 4.363281-5.296875 4.890625-2.53125.527343-5.148438-.386719-6.804688-2.375s-2.078124-4.726563-1.097656-7.125l6.65625-19.085938h-178.753906c-3.867188 0-7-3.136719-7-7v-319.738281c-.00390625-1.859375.730469-3.644531 2.042969-4.957031 1.316406-1.316407 3.097656-2.058594 4.957031-2.058594h229.636719c3.867187 0 7 3.136719 7 7 0 3.867187-3.132813 7-7 7h-222.632813v258.800781h430.398438v-258.800781h-123.964844c-3.867188 0-7-3.132813-7-7 0-3.863281 3.132812-7 7-7h130.96875c3.867188 0 7 3.136719 7 7v319.75c0 3.863281-3.132812 7-7 7zm56.164063 77.792969h-199.273438v13.671875h199.273438zm-66.035156-91.777344h181.597656v-32.949219h-430.398438v32.941406h248.800782zm-103.273438-221.464844c1.742188 1.882813 4.375 2.667969 6.863281 2.035157 2.484375-.628907 4.429688-2.570313 5.0625-5.054688.632813-2.488281-.144531-5.121094-2.023437-6.863281l-9.875-9.875c-2.761719-2.496094-6.996094-2.390625-9.632813.238281s-2.753906 6.863281-.265625 9.636719zm-33.664062 21.4375c-1.003907 3.730469 1.207031 7.566407 4.9375 8.574219l13.484374 3.601562c3.734376 1 7.570313-1.21875 8.574219-4.953124 1-3.734376-1.214843-7.570313-4.953125-8.574219l-13.480468-3.597657c-3.730469-.996093-7.5625 1.21875-8.5625 4.949219zm0 47.597657c1.003906 3.734374 4.84375 5.949218 8.578124 4.949218l13.484376-3.601562c3.734374-1 5.949218-4.839844 4.949218-8.574219s-4.839844-5.949219-8.574218-4.949219l-13.484376 3.601563c-3.730468 1-5.945312 4.832031-4.953124 8.5625zm107.164062-85.351563c3.167969-.007813 5.9375-2.136719 6.757812-5.199219l3.597657-13.484375c1.003906-3.734375-1.214844-7.574219-4.949219-8.574219s-7.574219 1.214844-8.574219 4.949219l-3.597656 13.484375c-.5625 2.101563-.113281 4.34375 1.214844 6.066406 1.324219 1.722657 3.375 2.734376 5.546875 2.734376zm-36.742188 0c2.171876 0 4.222657-1.011719 5.546876-2.734375 1.328124-1.722656 1.773437-3.964844 1.214843-6.066406l-3.597656-13.484375c-1-3.734375-4.839844-5.949219-8.574219-4.949219s-5.953125 4.839844-4.949218 8.574219l3.597656 13.484375c.828125 3.054687 3.597656 5.175781 6.761718 5.175781zm63.597657 16.316406c1.3125 1.3125 3.09375 2.050781 4.953125 2.050781 1.855468 0 3.636718-.738281 4.949218-2.050781l9.871094-9.882812c2.734375-2.734375 2.734375-7.167969 0-9.902344s-7.167968-2.734375-9.898437 0l-9.871094 9.902344c-2.722656 2.730469-2.722656 7.152343 0 9.882812zm34.988281 73.972657c3.734375 1 7.574219-1.214844 8.574219-4.949219s-1.214844-7.574219-4.949219-8.574219l-13.484375-3.601562c-3.734375-1-7.574219 1.214843-8.574219 4.949218s1.214844 7.574219 4.949219 8.574219zm0-57.484376-13.484375 3.597657c-3.734375 1.003906-5.949219 4.839843-4.949219 8.574219 1 3.734374 4.839844 5.953124 8.574219 4.953124l13.484375-3.601562c3.734375-1 5.949219-4.839844 4.949219-8.574219s-4.839844-5.949219-8.574219-4.949219zm-2.855469 127.894532h-77.402343c-3.867188 0-7 3.136718-7 7 0 3.867187 3.132812 7 7 7h77.40625c16.234374.019531 30.933593-9.601563 37.410156-24.488282 6.480468-14.886718 3.503906-32.195312-7.570313-44.066406-11.078125-11.867187-28.140625-16.03125-43.4375-10.597656-8.164062-18.949219-25.980469-31.96875-46.519531-33.984375-20.535156-2.015625-40.542969 7.292969-52.234375 24.296875-10.320313-14.851562-10.136719-34.605469.460937-49.261719 10.59375-14.660156 29.292969-21.03125 46.632813-15.886719 17.339844 5.140626 29.546875 20.671876 30.4375 38.738282.183594 3.863281 3.46875 6.851562 7.332031 6.667968 3.867188-.183593 6.851563-3.46875 6.667969-7.332031-1.171875-24.925781-18.53125-46.140625-42.730469-52.230469-24.199218-6.085937-49.527344 4.394532-62.355468 25.796876-12.828126 21.402343-10.125 48.683593 6.65625 67.152343-.519532 1.5-.972657 3.03125-1.367188 4.589844-12.761719-.429687-24.757812 6.066406-31.378906 16.984375-6.621094 10.921875-6.828125 24.5625-.546875 35.679688 6.285156 11.117187 18.078125 17.976562 30.847656 17.9375h16.074219c3.867187 0 7-3.132813 7-7 0-3.863282-3.132813-7-7-7h-16.097656c-8.210938-.011719-15.683594-4.746094-19.207032-12.164063-3.519531-7.421875-2.464844-16.203125 2.71875-22.574219 5.179688-6.371094 13.5625-9.195312 21.542969-7.261718 1.945313.480468 4 .101562 5.648437-1.035157 1.648438-1.136719 2.730469-2.925781 2.972657-4.910156 2.390625-19.441406 17.707031-34.761719 37.148437-37.15625 19.4375-2.394531 38.015625 8.75 45.050782 27.03125-7.070313 6.863281-11.179688 16.214844-11.460938 26.0625 0 3.867187 3.136719 7 7 7 3.867188 0 7-3.132813 7-7 0-.121094.253906-12.066406 9.277344-17.492187l.035156-.027344h.027344c9.660156-5.917969 21.996094-5.109375 30.800781 2.019531 8.800781 7.128906 12.152344 19.03125 8.371094 29.707031-3.785157 10.675782-13.882813 17.808594-25.210938 17.804688zm-244-216.800782c10.804688 0 19.5625 8.761719 19.566407 19.5625 0 10.804688-8.757813 19.566407-19.5625 19.566407-10.804688.003906-19.566407-8.753907-19.566407-19.558594.011719-10.804687 8.761719-19.5625 19.566407-19.582031zm0 14c-3.070312.011719-5.550781 2.511719-5.542969 5.582032.007813 3.070312 2.503907 5.554687 5.574219 5.546875 3.074219-.007813 5.558594-2.5 5.554688-5.570313-.003907-3.078125-2.503907-5.574218-5.582031-5.570312zm50.269531 0c3.070313.007813 5.5625 2.496094 5.5625 5.570313 0 3.867187 3.132813 7 7 7 3.867188 0 7-3.132813 7-7 0-10.804687-8.757812-19.566406-19.5625-19.566406-10.804687 0-19.566406 8.761719-19.566406 19.566406s8.761719 19.5625 19.566406 19.5625c3.863282 0 7-3.132813 7-7 0-3.863281-3.136718-7-7-7-3.074218 0-5.566406-2.488281-5.566406-5.5625s2.492188-5.566406 5.566406-5.566406zm293.453126 12.570313h31.203124c3.863282 0 7-3.132813 7-7s-3.136718-7-7-7h-31.203124c-3.863282 0-7 3.132813-7 7s3.136718 7 7 7zm0 22.800781h31.203124c3.863282 0 7-3.136718 7-7 0-3.867187-3.136718-7-7-7h-31.203124c-3.863282 0-7 3.132813-7 7 0 3.863282 3.136718 7 7 7zm-121.222657 228.042969c0-3.867187-3.132812-7-7-7h-68.636719c-3.863281 0-7 3.132813-7 7s3.136719 7 7 7h68.636719c3.867188 0 7-3.132813 7-7zm0 0" fill="#002d42"/></svg>