<svg height="466pt" viewBox="-29 0 466 466.98057" width="466pt" xmlns="http://www.w3.org/2000/svg"><path d="m237.878906 83.496094c41.429688 41.429687 41.429688 108.597656 0 150.027344-41.425781 41.425781-108.59375 41.425781-150.023437 0-41.429688-41.429688-41.429688-108.597657 0-150.027344 41.429687-41.429688 108.597656-41.429688 150.023437 0zm0 0" fill="#fabe02"/><path d="m237.878906 233.519531c16.082032-16.03125 26.5625-36.824219 29.894532-59.285156-27.1875-31.140625-69.976563-43.664063-109.664063-32.09375-39.683594 11.566406-69.046875 45.117187-75.246094 85.988281 1.597657 1.835938 3.246094 3.644532 4.992188 5.390625 41.425781 41.429688 108.59375 41.429688 150.023437 0zm0 0" fill="#f59a1d"/><path d="m237.878906 83.496094c-23.210937-23.242188-55.894531-34.394532-88.472656-30.191406 52.945312 6.765624 92.609375 51.824218 92.609375 105.199218s-39.664063 98.433594-92.609375 105.199219c45.003906 5.765625 88.691406-17.730469 108.6875-58.460937 19.996094-40.726563 11.871094-89.664063-20.214844-121.746094zm0 0" fill="#f59a1d"/><path d="m70.199219 72.839844c-1.859375.003906-3.636719-.734375-4.949219-2.050782l-18.226562-18.226562c-2.734376-2.734375-2.734376-7.167969 0-9.902344 2.734374-2.734375 7.164062-2.734375 9.898437 0l18.226563 18.226563c2.003906 2.003906 2.601562 5.011719 1.519531 7.628906-1.085938 2.613281-3.636719 4.320313-6.464844 4.320313zm-27.15625 53.566406c1-3.734375-1.214844-7.578125-4.949219-8.578125l-24.921875-6.671875c-3.742187-.992188-7.578125 1.230469-8.570313 4.96875-.996093 3.742188 1.230469 7.578125 4.96875 8.570312l24.902344 6.671876c1.796875.484374 3.707032.234374 5.316406-.691407 1.609376-.929687 2.78125-2.460937 3.261719-4.253906zm-29.871094 79.457031 24.902344-6.671875c3.734375-1 5.949219-4.839844 4.949219-8.574218-1-3.734376-4.839844-5.949219-8.574219-4.949219l-24.878907 6.671875c-3.734374 1-5.949218 4.839844-4.949218 8.574218 1 3.734376 4.839844 5.953126 8.574218 4.949219zm190.359375-172.128906 6.671875-24.902344c1-3.734375-1.214844-7.574219-4.949219-8.574219s-7.574218 1.214844-8.574218 4.949219l-6.671876 24.902344c-1.003906 3.734375 1.214844 7.574219 4.949219 8.574219s7.574219-1.214844 8.574219-4.949219zm-72.761719 4.960937c3.734375-1 5.953125-4.839843 4.949219-8.574218l-6.679688-24.914063c-1-3.734375-4.839843-5.949219-8.574218-4.949219s-5.953125 4.839844-4.949219 8.574219l6.671875 24.902344c.472656 1.796875 1.648438 3.332031 3.257812 4.265625 1.613282.929688 3.527344 1.183594 5.324219.695312zm147.945313 235.664063c2.734375-2.734375 2.734375-7.164063 0-9.898437l-18.226563-18.230469c-2.734375-2.734375-7.167969-2.734375-9.902343 0-2.734376 2.730469-2.734376 7.164062 0 9.898437l18.226562 18.230469c2.734375 2.734375 7.167969 2.734375 9.902344 0zm-18.226563-203.570313 18.226563-18.226562c2.734375-2.734375 2.734375-7.167969 0-9.902344s-7.167969-2.734375-9.902344 0l-18.226562 18.226563c-2.734376 2.734375-2.734376 7.167969 0 9.902343 2.734374 2.734376 7.167968 2.734376 9.902343 0zm60.628907 130.125c1.003906-3.734374-1.210938-7.574218-4.945313-8.578124l-24.90625-6.671876c-3.734375-1-7.574219 1.214844-8.574219 4.949219s1.214844 7.574219 4.949219 8.574219l24.90625 6.671875c1.792969.484375 3.707031.234375 5.3125-.695313 1.609375-.925781 2.785156-2.457031 3.261719-4.25zm-29.851563-69.5625 24.90625-6.65625c3.734375-1 5.949219-4.839843 4.949219-8.574218s-4.839844-5.949219-8.574219-4.949219l-24.90625 6.671875c-3.734375 1-5.949219 4.839844-4.949219 8.574219s4.839844 5.953125 8.574219 4.949219zm-162.226563 180.460938 6.671876-24.898438c1-3.734374-1.214844-7.574218-4.949219-8.574218-3.734375-1.003906-7.574219 1.214844-8.574219 4.949218l-6.671875 24.898438c-1.003906 3.734375 1.214844 7.574219 4.949219 8.574219s7.574218-1.214844 8.574218-4.949219zm76.234376 4.949219c3.734374-1.003907 5.953124-4.84375 4.949218-8.578125l-6.671875-24.898438c-1-3.734375-4.839843-5.953125-8.574219-4.949218-3.734374 1-5.949218 4.839843-4.949218 8.574218l6.671875 24.898438c.476562 1.792968 1.652343 3.324218 3.261719 4.253906 1.609374.929688 3.519531 1.175781 5.3125.695312zm0 0" fill="#fabe02"/><path d="m328.28125 226.734375c-13.316406 0-26.371094 3.710937-37.699219 10.714844-13.09375-49.183594-59.222656-82.175781-109.996093-78.679688-50.777344 3.5-91.945313 42.503907-98.171876 93.019531-22.691406-5.570312-46.5625 2.421876-61.324218 20.535157-14.765625 18.109375-17.78125 43.101562-7.753906 64.207031 10.03125 21.101562 31.3125 34.546875 54.679687 34.539062h260.265625c39.859375 0 72.167969-32.3125 72.167969-72.167968 0-39.859375-32.308594-72.167969-72.167969-72.167969zm0 0" fill="#26a3b9"/><path d="m328.28125 226.734375c-5.328125.003906-10.640625.601563-15.839844 1.789063 35.886719 8.046874 59.976563 41.800781 55.921875 78.351562-4.058593 36.554688-34.960937 64.207031-71.738281 64.191406h31.65625c39.859375 0 72.167969-32.3125 72.167969-72.167968 0-39.859376-32.308594-72.167969-72.167969-72.167969zm0 0" fill="#168aa5"/><path d="m287.085938 226.863281c-17.800782-46.726562-65.800782-74.691406-115.230469-67.132812 40.398437 5.964843 73.511719 36.910156 85.699219 75.117187-7.089844 17.480469-4.855469 37.363282 5.941406 52.832032 0 0 0-33.949219 27.085937-50.234376-.910156-3.425781-1.996093-6.796874-3.257812-10.109374-.0625-.167969-.152344-.3125-.238281-.472657zm0 0" fill="#168aa5"/><path d="m150.722656 437.734375c0 12.28125-9.957031 22.238281-22.242187 22.238281-12.285157 0-22.242188-9.957031-22.242188-22.238281 0-12.285156 22.238281-44.402344 22.238281-44.402344s22.246094 32.117188 22.246094 44.402344zm0 0" fill="#26a3b9"/><path d="m287.722656 437.734375c0 12.28125-9.957031 22.238281-22.242187 22.238281-12.285157 0-22.242188-9.957031-22.242188-22.238281 0-12.285156 22.238281-44.402344 22.238281-44.402344s22.246094 32.117188 22.246094 44.402344zm0 0" fill="#26a3b9"/><path d="m128.480469 393.3125s-2.972657 4.304688-6.738281 10.339844c6.546874 10.5 15.503906 26.28125 15.503906 34.082031 0 9.6875-6.269532 18.261719-15.503906 21.199219 6.761718 2.148437 14.144531.945312 19.871093-3.246094 5.726563-4.1875 9.109375-10.859375 9.109375-17.953125 0-12.285156-22.242187-44.421875-22.242187-44.421875zm0 0" fill="#168aa5"/><path d="m265.480469 393.3125s-2.972657 4.304688-6.738281 10.339844c6.546874 10.5 15.503906 26.28125 15.503906 34.082031 0 9.6875-6.269532 18.261719-15.503906 21.199219 6.761718 2.148437 14.144531.945312 19.871093-3.246094 5.726563-4.1875 9.109375-10.859375 9.109375-17.953125 0-12.285156-22.242187-44.421875-22.242187-44.421875zm0 0" fill="#168aa5"/><path d="m222.136719 79.097656c-3.089844-2.320312-3.71875-6.707031-1.398438-9.800781 2.320313-3.09375 6.707031-3.71875 9.800781-1.398437 4.347657 3.257812 8.457032 6.820312 12.300782 10.664062 2.734375 2.730469 2.734375 7.164062 0 9.898438-2.734375 2.738281-7.167969 2.738281-9.902344.003906-3.371094-3.375-6.980469-6.507813-10.800781-9.367188zm-151.9375-6.257812c2.828125 0 5.378906-1.707032 6.464843-4.320313 1.082032-2.617187.484376-5.625-1.519531-7.628906l-18.226562-18.226563c-2.734375-2.734374-7.164063-2.734374-9.898438 0-2.734375 2.734376-2.734375 7.167969 0 9.902344l18.226563 18.226563c1.3125 1.316406 3.09375 2.050781 4.953125 2.046875zm-60.628907 51.855468 24.902344 6.671876c3.734375 1.003906 7.574219-1.214844 8.574219-4.949219 1.003906-3.734375-1.214844-7.574219-4.949219-8.574219l-24.925781-6.6875c-3.742187-.992188-7.578125 1.230469-8.570313 4.96875-.996093 3.742188 1.230469 7.578125 4.96875 8.570312zm-4.957031 76.21875c.996094 3.726563 4.828125 5.945313 8.558594 4.949219l24.902344-6.671875c3.734375-1 5.949219-4.839844 4.949219-8.574218-1-3.734376-4.839844-5.949219-8.574219-4.949219l-24.878907 6.671875c-3.734374 1-5.957031 4.835937-4.957031 8.574218zm192.175781-162c3.167969-.007812 5.941407-2.140624 6.757813-5.203124l6.671875-24.898438c1-3.734375-1.214844-7.574219-4.949219-8.574219s-7.574219 1.214844-8.574219 4.949219l-6.671874 24.902344c-.558594 2.097656-.109376 4.339844 1.214843 6.0625s3.375 2.734375 5.546875 2.734375zm-67.847656 0c2.175782-.003906 4.222656-1.015624 5.546875-2.738281 1.324219-1.722656 1.777344-3.960937 1.21875-6.0625l-6.667969-24.90625c-1-3.734375-4.839843-5.949219-8.574218-4.949219s-5.953125 4.839844-4.949219 8.574219l6.671875 24.902344c.820312 3.054687 3.589844 5.179687 6.753906 5.1875zm131.546875 31.867188 18.226563-18.230469c2.734375-2.730469 2.734375-7.164062 0-9.898437s-7.167969-2.734375-9.902344 0l-18.226562 18.226562c-2.734376 2.734375-2.734376 7.167969 0 9.902344 2.734374 2.734375 7.167968 2.734375 9.902343 0zm27.152344 128.398438 24.90625 6.671874c3.734375 1 7.574219-1.214843 8.574219-4.949218s-1.214844-7.574219-4.949219-8.574219l-24.90625-6.671875c-3.734375-1-7.574219 1.214844-8.574219 4.949219s1.214844 7.574219 4.949219 8.574219zm1.808594-67.597657c.613281-.003906 1.226562-.082031 1.816406-.242187l24.90625-6.644532c3.734375-1 5.949219-4.839843 4.949219-8.574218s-4.839844-5.949219-8.574219-4.949219l-24.90625 6.671875c-3.394531.90625-5.59375 4.191406-5.136719 7.675781.457032 3.488281 3.429688 6.09375 6.945313 6.089844zm38.832031 88.136719c-11.589844.007812-23.035156 2.574219-33.519531 7.515625-5.007813-14.242187-12.820313-27.328125-22.984375-38.488281 8.898437-31.648438 3.5-65.601563-14.769532-92.929688-2.148437-3.214844-6.492187-4.085937-9.710937-1.941406-3.214844 2.148438-4.082031 6.492188-1.9375 9.710938 14.542969 21.71875 19.84375 48.332031 14.738281 73.964843-27.292968-22.625-63.609375-31.15625-98.121094-23.050781-34.511718 8.101562-63.234374 31.90625-77.605468 64.316406-27.394532-35.625-27.367188-85.230468.0625-120.828125 27.429687-35.597656 75.390625-48.265625 116.820312-30.855469 3.566406 1.496094 7.667969-.183593 9.164063-3.75 1.496093-3.5625-.183594-7.667968-3.746094-9.164062-48.804687-20.496094-105.296875-4.390625-135.953125 38.757812-30.660156 43.148438-27.28125 101.792969 8.132812 141.136719-1.554687 5.511719-2.683593 11.136719-3.386718 16.824219-.46875 3.835938 2.265625 7.328125 6.105468 7.796875 3.835938.46875 7.328126-2.261719 7.796876-6.101563 4.652343-37.953124 30.703124-69.855468 66.964843-82 36.257813-12.140624 76.269531-2.359374 102.839844 25.140626.089844.085937.175781.1875.273437.265624 10.496094 10.917969 18.339844 24.101563 22.925782 38.535157-25.523438 18.878906-25.871094 51.636719-25.871094 53.105469 0 3.867187 3.132812 7 7 7 3.863281 0 7-3.132813 7-7 0-.300782.265625-30.152344 23.695312-44.234376l.035157-.027343h.023437c23.523438-14.433594 53.589844-12.472657 75.042969 4.890625 21.453125 17.363281 29.632813 46.363281 20.417969 72.375-9.214844 26.015625-33.824219 43.398437-61.425782 43.390625h-260.261718c-19.613282 0-37.65625-10.722657-47.03125-27.949219s-8.582032-38.199219 2.066406-54.667969c1.941406-3.238281.96875-7.429687-2.199219-9.480469-3.171875-2.046874-7.394531-1.21875-9.550781 1.878907-13.429688 20.777343-14.429688 47.230469-2.605469 68.960937 11.824219 21.730469 34.582031 35.261719 59.320313 35.265625h260.253906c28.417969.199219 54.765625-14.84375 69.03125-39.421875s14.265625-54.914062 0-79.492187-40.613281-39.621094-69.03125-39.417969zm-299.597656 44.246094c2.140625 3.21875 6.488281 4.09375 9.707031 1.953125 5.367187-3.585938 11.34375-6.164063 17.636719-7.601563 2.460937-.535156 4.445312-2.347656 5.195312-4.753906.75-2.402344.152344-5.027344-1.566406-6.867188-1.71875-1.839843-4.296875-2.613281-6.746094-2.027343-7.945312 1.820312-15.496094 5.074219-22.277344 9.601562-3.210937 2.144531-4.074218 6.488281-1.929687 9.703125zm103.761718 123.601562c-3.179687-2.203125-7.539062-1.410156-9.738281 1.769532-3.921875 5.667968-23.488281 34.632812-23.488281 48.402343.1875 16.015625 13.222656 28.898438 29.242188 28.898438 16.015624 0 29.054687-12.882813 29.242187-28.898438-.699219-7.234375-2.984375-14.226562-6.691406-20.476562-1.117188-2.253907-3.355469-3.734375-5.863281-3.878907-2.507813-.148437-4.902344 1.058594-6.273438 3.164063s-1.511719 4.78125-.363281 7.019531c4.796875 9.546875 5.199219 13.257813 5.199219 14.171875-.136719 8.320313-6.917969 14.996094-15.242188 14.996094s-15.109375-6.675781-15.242188-14.996094c0-6.230469 10.898438-25.835937 21-40.4375 2.199219-3.175781 1.414063-7.535156-1.761718-9.738281zm133.015626 79.414063c-16.140626-.015625-29.226563-13.097657-29.242188-29.238281 0-13.773438 19.566406-42.738282 23.488281-48.402344 1.375-1.785156 3.5-2.832032 5.753907-2.832032 2.253906 0 4.378906 1.046876 5.753906 2.832032 3.917968 5.667968 23.488281 34.632812 23.488281 48.402344-.023437 16.128906-13.089844 29.203124-29.222656 29.230468zm0-14c8.417968-.007813 15.238281-6.824219 15.246093-15.238281 0-5.054688-7.15625-18.886719-15.246093-31.710938-8.082032 12.832031-15.242188 26.664062-15.242188 31.710938.011719 8.417968 6.84375 15.234374 15.261719 15.230468zm0 0" fill="#002d42"/></svg>