<svg height="472pt" viewBox="-97 0 472 472.516" width="472pt" xmlns="http://www.w3.org/2000/svg"><path d="m7.257812 6.996094h264.144532v458.519531h-264.144532zm0 0" fill="#0162a7"/><path d="m240.0625 6.996094h31.339844v458.519531h-31.339844zm0 0" fill="#004584"/><path d="m7.257812 55.128906h264.144532v322.605469h-264.144532zm0 0" fill="#d9ecf2"/><g fill="#bdd9e5"><path d="m84.574219 162.4375c2.640625 2.824219 7.070312 2.972656 9.894531.335938 2.824219-2.640626 2.972656-7.070313.335938-9.894532-.105469-.113281-.21875-.222656-.332032-.332031l-9.347656-9.359375c-2.734375-2.734375-7.164062-2.734375-9.898438 0-2.734374 2.734375-2.734374 7.167969 0 9.902344zm0 0"/><path d="m57.546875 190.949219 12.765625 3.417969c3.734375 1 7.574219-1.214844 8.574219-4.949219 1.003906-3.734375-1.214844-7.574219-4.949219-8.574219l-12.765625-3.417969c-3.738281-1.003906-7.574219 1.214844-8.574219 4.949219-1.003906 3.734375 1.214844 7.574219 4.949219 8.574219zm0 0"/><path d="m78.890625 220.59375c-.996094-3.734375-4.828125-5.949219-8.558594-4.953125-.007812 0-.011719 0-.019531.003906l-12.765625 3.417969c-3.734375 1.003906-5.953125 4.839844-4.949219 8.574219 1 3.734375 4.835938 5.953125 8.574219 4.953125l12.765625-3.421875c3.734375-1 5.953125-4.835938 4.953125-8.570313 0-.003906 0-.003906 0-.003906zm0 0"/><path d="m152.628906 146.851562c3.734375 1 7.574219-1.214843 8.578125-4.949218l3.417969-12.765625c1-3.734375-1.214844-7.574219-4.949219-8.574219s-7.574219 1.214844-8.574219 4.949219l-3.417968 12.769531c-1 3.730469 1.214844 7.570312 4.945312 8.570312zm0 0"/><path d="m112.890625 141.902344c1 3.734375 4.839844 5.953125 8.574219 4.953125 3.734375-1.003907 5.949218-4.839844 4.949218-8.574219l-3.421874-12.769531c-1-3.734375-4.835938-5.949219-8.570313-4.949219-3.738281 1-5.953125 4.839844-4.953125 8.574219zm0 0"/><path d="m184.570312 164.488281c1.855469 0 3.636719-.738281 4.949219-2.050781l9.347657-9.347656c2.78125-2.6875 2.859374-7.117188.175781-9.898438-2.6875-2.78125-7.117188-2.863281-9.898438-.175781-.058593.054687-.117187.113281-.175781.171875l-9.347656 9.359375c-2.730469 2.734375-2.730469 7.167969.003906 9.902344 1.3125 1.308593 3.089844 2.046875 4.945312 2.046875zm0 0"/><path d="m216.53125 219.0625-12.769531-3.417969c-3.734375-1-7.574219 1.214844-8.574219 4.949219s1.214844 7.574219 4.949219 8.574219l12.769531 3.421875c3.734375 1 7.574219-1.21875 8.574219-4.953125s-1.214844-7.570313-4.949219-8.574219zm0 0"/><path d="m195.207031 189.429688c1.003907 3.730468 4.839844 5.945312 8.574219 4.945312l12.75-3.425781c3.734375-1 5.949219-4.839844 4.949219-8.574219s-4.839844-5.953125-8.574219-4.949219l-12.769531 3.417969c-3.730469 1.007812-5.9375 4.851562-4.929688 8.582031zm0 0"/><path d="m210.316406 241.613281c-5.898437 0-11.679687 1.640625-16.699218 4.742188-.34375-1.296875-.742188-2.5625-1.199219-3.8125-.054688-.160157-.128907-.308594-.1875-.464844-.402344-1.097656-.847657-2.1875-1.335938-3.246094l-.078125-.152343c-2.597656-5.589844-6.265625-10.617188-10.796875-14.800782.28125-.644531.5625-1.285156.796875-1.9375.050782-.128906.089844-.257812.136719-.402344 1.296875-3.453124 2.183594-7.046874 2.636719-10.707031 3.234375-25.734375-15-49.214843-40.734375-52.453125-25.734375-3.234375-49.214844 15.003906-52.453125 40.734375-1.65625 13.183594 2.347656 26.453125 11.023437 36.519531.324219.375.671875.734376 1 1.105469.457031.496094.871094 1.023438 1.355469 1.5.402344.402344.867188.777344 1.296875 1.171875-1.886719 4.226563-3.136719 8.710938-3.703125 13.300782-1.625-.382813-3.277344-.617188-4.941406-.699219-.265625-3.839844-3.59375-6.734375-7.433594-6.46875-1.6875.117187-3.273438.84375-4.464844 2.046875l-9.308594 9.359375c-1.613281 1.613281-2.335937 3.910156-1.9375 6.15625-8.644531 12.011719-5.917968 28.757812 6.097657 37.40625 4.558593 3.28125 10.035156 5.046875 15.652343 5.046875h115.277344c17.65625 0 31.96875-14.308594 31.96875-31.964844 0-17.652344-14.3125-31.964844-31.96875-31.964844zm0 0"/><path d="m240.0625 55.128906h31.339844v322.605469h-31.339844zm0 0"/><path d="m50.554688 55.128906h-43.296876v26.941406l264.144532 264.144532v-70.238282zm0 0"/><path d="m189.472656 377.734375h39.988282l-222.203126-222.203125v39.988281zm0 0"/></g><path d="m172.546875 205.011719c0 25.949219-21.039063 46.984375-46.988281 46.984375-25.953125 0-46.988282-21.035156-46.988282-46.984375 0-25.953125 21.035157-46.988281 46.988282-46.988281 25.949218 0 46.988281 21.035156 46.988281 46.988281zm0 0" fill="#fabe02"/><path d="m158.78125 238.234375c7.386719-7.382813 12.085938-17.023437 13.347656-27.390625-17.003906-19.625-46.695312-21.746094-66.320312-4.742188-8.730469 7.566407-14.371094 18.082032-15.84375 29.542969.761718.882813 1.519531 1.765625 2.355468 2.609375 18.355469 18.347656 48.105469 18.34375 66.453126-.007812.003906-.003906.003906-.007813.007812-.011719zm0 0" fill="#f59a1d"/><path d="m78.035156 164.488281c-1.859375 0-3.636718-.738281-4.949218-2.050781l-9.355469-9.347656c-2.734375-2.734375-2.734375-7.167969 0-9.902344s7.164062-2.734375 9.898437 0l9.351563 9.359375c2.734375 2.734375 2.734375 7.167969 0 9.902344-1.3125 1.308593-3.09375 2.046875-4.945313 2.046875zm0 0" fill="#fabe02"/><path d="m60.640625 194.617188c-.613281 0-1.222656-.082032-1.816406-.242188l-12.765625-3.425781c-3.734375-1-5.953125-4.839844-4.949219-8.574219 1-3.734375 4.839844-5.953125 8.574219-4.949219l12.765625 3.417969c3.734375 1.003906 5.945312 4.84375 4.945312 8.578125-.824219 3.054687-3.589843 5.179687-6.753906 5.183594zm0 0" fill="#fabe02"/><path d="m47.867188 232.828125c-3.867188-.003906-6.996094-3.144531-6.992188-7.007813.003906-3.164062 2.128906-5.929687 5.183594-6.753906l12.765625-3.417968c3.738281-1 7.574219 1.214843 8.574219 4.949218 1.003906 3.734375-1.214844 7.574219-4.949219 8.574219l-12.765625 3.421875c-.59375.15625-1.203125.234375-1.816406.234375zm0 0" fill="#fabe02"/><path d="m142.953125 147.09375c-3.863281-.003906-7-3.136719-7-7.003906 0-.605469.082031-1.210938.238281-1.796875l3.417969-12.769531c1-3.734376 4.839844-5.949219 8.574219-4.949219s5.949218 4.839843 4.949218 8.574219l-3.402343 12.753906c-.824219 3.066406-3.601563 5.195312-6.777344 5.191406zm0 0" fill="#fabe02"/><path d="m108.15625 147.09375c-3.167969-.007812-5.9375-2.140625-6.753906-5.203125l-3.421875-12.765625c-1-3.734375 1.21875-7.574219 4.953125-8.574219s7.570312 1.214844 8.574218 4.949219l3.417969 12.769531c.996094 3.734375-1.226562 7.570313-4.964843 8.5625-.585938.15625-1.191407.234375-1.800782.234375zm0 0" fill="#fabe02"/><path d="m182.429688 268.878906c-1.855469.003906-3.636719-.734375-4.949219-2.050781l-9.351563-9.34375c-2.734375-2.734375-2.734375-7.167969 0-9.898437 2.734375-2.734376 7.167969-2.734376 9.902344 0l9.347656 9.363281c2.730469 2.734375 2.730469 7.164062-.003906 9.898437-1.3125 1.3125-3.089844 2.046875-4.945312 2.046875zm0 0" fill="#fabe02"/><path d="m173.078125 164.488281c-3.867187-.007812-6.996094-3.144531-6.988281-7.011719.003906-1.847656.734375-3.621093 2.039062-4.929687l9.347656-9.347656c2.734376-2.734375 7.167969-2.734375 9.902344 0s2.734375 7.167969 0 9.902343l-9.347656 9.347657c-1.316406 1.308593-3.097656 2.042969-4.953125 2.039062zm0 0" fill="#fabe02"/><path d="m68.6875 268.878906c-3.867188-.003906-6.996094-3.144531-6.988281-7.011718 0-1.84375.730469-3.609376 2.03125-4.917969l9.347656-9.347657c2.734375-2.734374 7.167969-2.734374 9.898437 0 2.734376 2.730469 2.734376 7.164063 0 9.898438l-9.347656 9.347656c-1.3125 1.308594-3.089844 2.039063-4.941406 2.03125zm0 0" fill="#fabe02"/><path d="m203.25 232.828125c-.613281 0-1.222656-.082031-1.816406-.238281l-12.769532-3.421875c-3.734374-1-5.949218-4.839844-4.949218-8.574219s4.839844-5.949219 8.574218-4.949219l12.769532 3.417969c3.734375 1.003906 5.945312 4.84375 4.941406 8.578125-.820312 3.054687-3.585938 5.179687-6.75 5.183594zm0 0" fill="#fabe02"/><path d="m190.472656 194.617188c-3.863281-.007813-6.996094-3.144532-6.988281-7.011719.003906-3.160157 2.128906-5.929688 5.179687-6.75l12.769532-3.417969c3.734375-1.003906 7.574218 1.214844 8.574218 4.949219s-1.214843 7.574219-4.949218 8.574219l-12.769532 3.417968c-.589843.160156-1.203124.238282-1.816406.238282zm0 0" fill="#fabe02"/><path d="m104.746094 289.695312c-3.867188 0-7-3.132812-7-7 0-.605468.078125-1.210937.234375-1.800781l3.421875-12.765625c1-3.738281 4.839844-5.953125 8.574218-4.953125 3.734376.996094 5.953126 4.835938 4.953126 8.570313l-3.417969 12.769531c-.828125 3.058594-3.597657 5.179687-6.765625 5.179687zm0 0" fill="#fabe02"/><path d="m146.371094 289.695312c-3.171875-.003906-5.941406-2.136718-6.757813-5.199218l-3.421875-12.75c-1.003906-3.734375 1.214844-7.570313 4.949219-8.570313 3.734375-1.003906 7.574219 1.214844 8.574219 4.949219l3.417968 12.765625c.996094 3.738281-1.226562 7.570313-4.964843 8.566406-.585938.15625-1.191407.234375-1.796875.234375zm0 0" fill="#fabe02"/><path d="m198.824219 241.613281c-5.894531 0-11.675781 1.644531-16.695313 4.746094-6.683594-25.121094-32.46875-40.070313-57.59375-33.382813-18.5625 4.9375-32.265625 20.664063-34.613281 39.730469-14.378906-3.515625-28.882813 5.285157-32.402344 19.664063-3.515625 14.375 5.285157 28.882812 19.664063 32.402344 2.082031.507812 4.222656.765624 6.367187.765624h115.273438c17.65625 0 31.96875-14.3125 31.96875-31.964843 0-17.65625-14.3125-31.964844-31.96875-31.964844zm0 0" fill="#26a3b9"/><path d="m170.128906 268.609375s0-15.039063 12-22.253906c-1.375-5.152344-3.621094-10.035157-6.640625-14.429688-6.191406 11.167969-8.09375 24.210938-5.359375 36.683594zm0 0" fill="#168aa5"/><path d="m116.085938 407.289062h46.488281c7.980469 0 14.453125 6.46875 14.453125 14.449219s-6.472656 14.449219-14.453125 14.449219h-46.488281c-7.980469 0-14.453126-6.46875-14.453126-14.449219s6.472657-14.449219 14.453126-14.449219zm0 0" fill="#004584"/><path d="m132.6875 37.65625h-21.390625c-3.863281 0-7-3.132812-7-7s3.136719-7 7-7h21.394531c3.863282 0 7 3.132812 7 7s-3.136718 7-7 7zm0 0" fill="#004584"/><path d="m167.363281 37.65625h-10.699219c-3.863281 0-7-3.132812-7-7s3.136719-7 7-7h10.699219c3.863281 0 7 3.132812 7 7s-3.136719 7-7 7zm0 0" fill="#004584"/><path d="m278.402344 7v141.148438c0 3.867187-3.132813 7-7 7-3.867188 0-7-3.132813-7-7v-86h-250.144532v308.585937h50.328126c3.867187 0 7 3.136719 7 7 0 3.867187-3.132813 7-7 7h-50.328126v73.78125h250.144532v-73.78125h-138.859375c-3.867188 0-7-3.132813-7-7 0-3.863281 3.132812-7 7-7h138.859375v-148.332031c0-3.863282 3.132812-7 7-7 3.867187 0 7 3.136718 7 7v243.113281c0 3.867187-3.132813 7-7 7h-264.144532c-3.867187 0-7-3.132813-7-7v-458.515625c0-3.867188 3.132813-7 7-7h264.144532c3.867187 0 7 3.132812 7 7zm-14 41.128906v-34.128906h-250.144532v34.128906zm7 122.902344c-3.867188 0-7 3.132812-7 7v17.957031c0 3.867188 3.132812 7 7 7 3.867187 0 7-3.132812 7-7v-17.960937c0-3.867188-3.132813-7-7-7zm-162.769532 206.714844c0-3.863282-3.132812-7-7-7h-14.113281c-3.867187 0-7 3.136718-7 7 0 3.867187 3.132813 7 7 7h14.109375c3.867188.003906 7.003906-3.128906 7.003906-6.992188 0-.003906 0-.003906 0-.007812zm-35.550781-215.308594c2.640625 2.824219 7.070313 2.972656 9.894531.335938 2.824219-2.640626 2.972657-7.070313.335938-9.894532-.105469-.113281-.21875-.222656-.332031-.332031l-9.347657-9.359375c-2.734374-2.734375-7.164062-2.734375-9.902343 0-2.734375 2.730469-2.734375 7.164062 0 9.902344zm-31.976562 19.941406c-.996094 3.734375 1.21875 7.570313 4.953125 8.570313l12.765625 3.417969c3.738281 1 7.574219-1.214844 8.574219-4.949219 1.003906-3.734375-1.214844-7.574219-4.949219-8.574219l-12.765625-3.417969c-3.730469-1.007812-7.566406 1.203125-8.570313 4.929688-.003906.007812-.003906.015625-.007812.023437zm0 45.257813c1.003906 3.734375 4.84375 5.949219 8.578125 4.949219l12.765625-3.421876c3.734375-1 5.953125-4.839843 4.949219-8.574218-1-3.734375-4.839844-5.949219-8.574219-4.949219l-12.765625 3.417969c-3.734375 1-5.953125 4.835937-4.957032 8.570312.003907.003906.003907.007813.003907.011719zm101.847656-80.542969c3.171875-.007812 5.941406-2.140625 6.757813-5.203125l3.417968-12.765625c1-3.734375-1.214844-7.574219-4.949218-8.574219-3.734376-1-7.574219 1.214844-8.574219 4.949219l-3.417969 12.769531c-.996094 3.734375 1.226562 7.570313 4.964844 8.5625.585937.15625 1.191406.234375 1.796875.234375zm-34.800781 0c3.867187-.003906 7-3.136719 7-7.003906 0-.605469-.078125-1.210938-.234375-1.796875l-3.421875-12.769531c-1-3.734376-4.835938-5.949219-8.570313-4.949219-3.738281 1-5.953125 4.839843-4.953125 8.574219l3.421875 12.765624c.824219 3.058594 3.597657 5.179688 6.761719 5.179688zm69.324218-3.90625-9.347656 9.359375c-2.734375 2.734375-2.734375 7.167969 0 9.902344s7.167969 2.734375 9.902344 0l9.347656-9.347657c2.734375-2.734374 2.734375-7.167968 0-9.902343s-7.167968-2.734375-9.902344 0zm27.582032 75.875-12.769532-3.417969c-3.734374-1-7.574218 1.214844-8.574218 4.949219s1.214844 7.574219 4.949218 8.574219l12.769532 3.421875c3.734375 1 7.574218-1.21875 8.574218-4.953125s-1.214843-7.570313-4.949218-8.574219zm4.949218-36.683594c-.996093-3.730468-4.828124-5.949218-8.558593-4.953125-.007813.003907-.011719.003907-.019531.007813l-12.769532 3.417968c-3.734375 1-5.949218 4.839844-4.949218 8.574219s4.839843 5.949219 8.574218 4.949219l12.769532-3.417969c3.734374-1 5.953124-4.835937 4.953124-8.570312 0-.003907 0-.003907 0-.007813zm-11.183593 130.167969h-115.273438c-18.675781.085937-33.886719-14.984375-33.972656-33.660156s14.984375-33.882813 33.660156-33.96875c.347657-.003907.695313 0 1.042969.011719.335938-1.3125.734375-2.605469 1.164062-3.882813-19.925781-22.152344-18.117187-56.265625 4.035157-76.191406 22.152343-19.925781 56.265625-18.121094 76.191406 4.035156 13.023437 14.480469 17.234375 34.855469 11.015625 53.308594 3.925781 4.304687 7.125 9.222656 9.472656 14.554687 20.347656-6.996094 42.511719 3.828125 49.507813 24.171875 6.992187 20.347657-3.832031 42.511719-24.175781 49.507813-4.078126 1.398437-8.355469 2.113281-12.667969 2.113281zm-115.273438-14h115.273438c13.792969.039063 25-11.109375 25.035156-24.898437.039063-13.789063-11.109375-25-24.898437-25.035157-4.648438-.011719-9.210938 1.273438-13.167969 3.710938h-.023438l-.03125.023437c-8.355469 5.023438-8.605469 16.1875-8.609375 16.300782-.042968 3.835937-3.160156 6.929687-7 6.941406h-.046875c-3.84375-.015625-6.949219-3.136719-6.953125-6.976563.261719-9.347656 4.125-18.230469 10.777344-24.800781-6.027344-15.320312-20.808594-25.398438-37.273438-25.417969-3.863281 0-7-3.132812-7-7 0-3.863281 3.136719-7 7-7 9.960938.011719 19.726563 2.78125 28.210938 8 4.09375-21.695312-10.175781-42.605469-31.875-46.699219-21.695312-4.09375-42.605469 10.171876-46.699219 31.871094-1.957031 10.363282.261719 21.082032 6.171875 29.816406 3-4.273437 6.601563-8.089843 10.691406-11.339843 2.996094-2.445313 7.40625-2 9.851563.996093 2.445313 2.992188 2 7.402344-.992187 9.847657-.058594.046875-.113282.089843-.171876.132812-4.980468 3.929688-8.957031 8.984375-11.597656 14.753907-.097656.234374-.203125.464843-.324218.691406-1.535157 3.53125-2.554688 7.269531-3.019532 11.09375-.472656 3.839844-3.964844 6.570312-7.804687 6.101562-.273438-.035156-.539063-.082031-.804688-.148437-10.621093-2.609375-21.347656 3.886719-23.957031 14.507812-2.609375 10.621094 3.886719 21.347657 14.507812 23.957031 1.546876.378907 3.136719.570313 4.730469.570313zm79.027344 130.640625h-46.496094c-3.867187 0-7 3.132812-7 7s3.132813 7 7 7h46.496094c11.847656 0 21.449219-9.601562 21.449219-21.449219 0-11.847656-9.601563-21.449219-21.449219-21.449219h-46.496094c-11.839843.011719-21.4375 9.605469-21.453125 21.445313 0 3.867187 3.136719 7 7 7 3.867188 0 7-3.132813 7-7 .003906-4.113281 3.339844-7.445313 7.453125-7.445313h46.496094c4.113281 0 7.449219 3.335938 7.449219 7.449219s-3.335938 7.449219-7.449219 7.449219zm-29.890625-405.53125h-21.390625c-3.863281 0-7 3.132812-7 7s3.136719 7 7 7h21.394531c3.863282 0 7-3.132812 7-7s-3.136718-7-7-7zm34.675781 0h-10.699219c-3.863281 0-7 3.132812-7 7s3.136719 7 7 7h10.699219c3.863281 0 7-3.132812 7-7s-3.136719-7-7-7zm0 0" fill="#002d42"/></svg>