<svg height="464pt" viewBox="0 -47 464.728 464" width="464pt" xmlns="http://www.w3.org/2000/svg"><path d="m247.777344 208.191406h-194.660156c-6.804688 0-12.320313-5.515625-12.320313-12.320312 0-6.804688 5.515625-12.320313 12.320313-12.320313h194.660156c6.804687 0 12.320312 5.515625 12.320312 12.320313 0 6.804687-5.515625 12.320312-12.320312 12.320312zm0 0" fill="#26a3b9"/><path d="m341.855469 208.191406h-39.230469c-6.804688 0-12.320312-5.515625-12.320312-12.320312 0-6.804688 5.515624-12.320313 12.320312-12.320313h39.230469c6.804687 0 12.320312 5.515625 12.320312 12.320313 0 6.804687-5.515625 12.320312-12.320312 12.320312zm0 0" fill="#168aa5"/><path d="m405.941406 208.191406h-13.457031c-6.804687 0-12.320313-5.515625-12.320313-12.320312 0-6.804688 5.515626-12.320313 12.320313-12.320313h13.457031c6.804688 0 12.320313 5.515625 12.320313 12.320313 0 6.804687-5.515625 12.320312-12.320313 12.320312zm0 0" fill="#26a3b9"/><path d="m268.644531 316.792969h-130.628906c-6.804687 0-12.320313-5.515625-12.320313-12.320313 0-6.804687 5.515626-12.320312 12.320313-12.320312h130.628906c6.804688 0 12.320313 5.515625 12.320313 12.320312 0 6.804688-5.515625 12.320313-12.320313 12.320313zm0 0" fill="#d9ecf2"/><path d="m86.496094 316.792969h-67.175782c-6.804687 0-12.320312-5.515625-12.320312-12.320313 0-6.804687 5.515625-12.320312 12.320312-12.320312h67.175782c6.804687 0 12.320312 5.515625 12.320312 12.320312 0 6.804688-5.515625 12.320313-12.320312 12.320313zm0 0" fill="#d9ecf2"/><path d="m334.21875 155.867188h-314.898438c-6.804687 0-12.320312-5.515626-12.320312-12.320313s5.515625-12.320313 12.320312-12.320313h314.898438c27.394531 0 49.601562-22.207031 49.601562-49.597656 0-27.394531-22.207031-49.601562-49.601562-49.601562-27.390625 0-49.597656 22.207031-49.597656 49.601562 0 6.804688-5.515625 12.320313-12.320313 12.320313-6.804687 0-12.320312-5.515625-12.320312-12.320313-.007813-41.011718 33.234375-74.261718 74.246093-74.265625 41.011719 0 74.257813 33.246094 74.257813 74.257813-.003906 41.011718-33.253906 74.253906-74.265625 74.246094zm0 0" fill="#26a3b9"/><path d="m393.753906 363.824219c-35.320312-.039063-63.9375-28.660157-63.976562-63.976563 0-6.804687 5.515625-12.320312 12.320312-12.320312 6.800782 0 12.316406 5.515625 12.316406 12.320312 0 21.722656 17.609376 39.332032 39.332032 39.332032s39.332031-17.605469 39.332031-39.328126c.003906-21.722656-17.605469-39.332031-39.324219-39.335937h-258.554687c-6.804688 0-12.320313-5.515625-12.320313-12.320313 0-6.804687 5.515625-12.320312 12.320313-12.320312h258.554687c35.132813.277344 63.46875 28.839844 63.46875 63.976562 0 35.132813-28.335937 63.695313-63.46875 63.972657zm0 0" fill="#26a3b9"/><path d="m247.777344 183.550781h-14.34375c6.800781 0 12.320312 5.515625 12.320312 12.320313 0 6.804687-5.519531 12.320312-12.320312 12.320312h14.34375c6.804687 0 12.320312-5.515625 12.320312-12.320312 0-6.804688-5.515625-12.320313-12.320312-12.320313zm0 0" fill="#168aa5"/><path d="m405.941406 183.550781h-13.457031c-.152344 0-.292969.042969-.445313.046875 6.609376.238282 11.839844 5.664063 11.839844 12.273438 0 6.613281-5.230468 12.039062-11.839844 12.277344.152344 0 .292969.042968.445313.042968h13.457031c6.804688 0 12.320313-5.515625 12.320313-12.320312 0-6.804688-5.515625-12.320313-12.320313-12.320313zm0 0" fill="#168aa5"/><path d="m268.644531 292.152344h-14.34375c6.804688 0 12.320313 5.515625 12.320313 12.320312 0 6.804688-5.515625 12.320313-12.320313 12.320313h14.34375c6.804688 0 12.320313-5.515625 12.320313-12.320313 0-6.804687-5.515625-12.320312-12.320313-12.320312zm0 0" fill="#bdd9e5"/><path d="m86.496094 292.152344h-14.34375c6.804687 0 12.320312 5.515625 12.320312 12.320312 0 6.804688-5.515625 12.320313-12.320312 12.320313h14.34375c6.804687 0 12.320312-5.515625 12.320312-12.320313 0-6.804687-5.515625-12.320312-12.320312-12.320312zm0 0" fill="#bdd9e5"/><g fill="#168aa5"><path d="m270.265625 81.617188c0 3.96875-1.917969 7.695312-5.148437 10 3.746093 2.714843 8.699218 3.09375 12.8125.980468 4.117187-2.109375 6.699218-6.355468 6.679687-10.980468.042969-24.605469 18.097656-45.464844 42.4375-49.039063-14.273437-2.214844-28.800781 1.949219-39.734375 11.390625-10.933594 9.4375-17.171875 23.203125-17.066406 37.648438zm0 0"/><path d="m334.21875 7.359375c-2.417969 0-4.796875.136719-7.171875.363281 39.4375 3.8125 68.933594 37.917969 67.019531 77.492188-1.914062 39.574218-34.570312 70.671875-74.191406 70.652344h14.34375c41.011719 0 74.253906-33.242188 74.253906-74.253907 0-41.007812-33.242187-74.253906-74.253906-74.253906zm0 0"/><path d="m354.414062 299.847656c.023438-4.625-2.558593-8.871094-6.675781-10.980468-4.113281-2.113282-9.066406-1.734376-12.8125.980468 3.230469 2.304688 5.148438 6.03125 5.144531 10-.039062 11.699219 5.148438 22.808594 14.148438 30.285156 8.996094 7.476563 20.867188 10.542969 32.359375 8.363282-18.621094-3.46875-32.132813-19.707032-32.164063-38.648438zm0 0"/><path d="m393.753906 235.871094h-14.347656c33.941406-.015625 61.984375 26.484375 63.890625 60.371094 1.90625 33.886718-22.988281 63.359374-56.71875 67.148437 23.570313 2.675781 46.683594-7.910156 60.050781-27.503906 13.371094-19.59375 14.796875-44.980469 3.710938-65.949219-11.085938-20.96875-32.867188-34.082031-56.585938-34.066406zm0 0"/></g><path d="m267.097656 195.871094c-.015625-10.664063-8.65625-19.304688-19.320312-19.320313h-194.660156c-10.671876 0-19.320313 8.652344-19.320313 19.320313 0 10.671875 8.648437 19.320312 19.320313 19.320312h194.660156c10.664062-.011718 19.304687-8.65625 19.320312-19.320312zm-219.300781 0c.003906-2.933594 2.382813-5.316406 5.320313-5.320313h194.660156c2.9375 0 5.320312 2.382813 5.320312 5.320313s-2.382812 5.320312-5.320312 5.320312h-194.660156c-2.9375-.003906-5.316407-2.382812-5.320313-5.320312zm294.058594 19.320312c10.671875 0 19.320312-8.648437 19.320312-19.320312 0-10.667969-8.648437-19.320313-19.320312-19.320313h-39.230469c-10.671875 0-19.320312 8.652344-19.320312 19.320313 0 10.671875 8.648437 19.320312 19.320312 19.320312zm-44.550781-19.320312c.003906-2.933594 2.382812-5.316406 5.320312-5.320313h39.230469c2.9375 0 5.320312 2.382813 5.320312 5.320313s-2.382812 5.320312-5.320312 5.320312h-39.230469c-2.9375-.003906-5.316406-2.382812-5.320312-5.320312zm95.179687-19.320313c-10.671875 0-19.320313 8.652344-19.320313 19.320313 0 10.671875 8.648438 19.320312 19.320313 19.320312h13.457031c10.667969 0 19.320313-8.648437 19.320313-19.320312 0-10.667969-8.652344-19.320313-19.320313-19.320313zm18.777344 19.320313c-.007813 2.9375-2.386719 5.316406-5.320313 5.320312h-13.457031c-2.9375 0-5.320313-2.382812-5.320313-5.320312s2.382813-5.320313 5.320313-5.320313h13.457031c2.933594.003907 5.3125 2.386719 5.320313 5.320313zm-123.296875 108.601562c-.015625-10.664062-8.65625-19.308594-19.320313-19.320312h-130.628906c-10.667969 0-19.320313 8.648437-19.320313 19.320312 0 10.667969 8.652344 19.320313 19.320313 19.320313h130.628906c10.664063-.015625 19.304688-8.65625 19.320313-19.320313zm-155.269532 0c.003907-2.9375 2.386719-5.320312 5.324219-5.320312h130.625c2.9375 0 5.320313 2.382812 5.320313 5.320312s-2.382813 5.320313-5.320313 5.320313h-130.628906c-2.9375-.003907-5.316406-2.382813-5.320313-5.320313zm-132.69140575 0c.01171875-10.664062 8.65624975-19.308594 19.32031275-19.320312h31.398437c3.867188 0 7 3.132812 7 7 0 3.867187-3.132812 7-7 7h-31.398437c-2.9375 0-5.320313 2.382812-5.320313 5.320312s2.382813 5.320313 5.320313 5.320313h67.171875c2.9375 0 5.320312-2.382813 5.320312-5.320313s-2.382812-5.320312-5.320312-5.320312h-13.878906c-3.867188 0-7-3.132813-7-7 0-3.867188 3.132812-7 7-7h13.878906c10.671875 0 19.320312 8.648437 19.320312 19.320312 0 10.667969-8.648437 19.320313-19.320312 19.320313h-67.175782c-10.664062-.015625-19.3085932-8.65625-19.320312-19.320313zm0-160.925781c.01171875-10.664063 8.65624975-19.304687 19.32031275-19.320313h138.710937c3.867188 0 7 3.136719 7 7 0 3.867188-3.132812 7-7 7h-138.714844c-2.9375 0-5.320312 2.382813-5.320312 5.320313s2.382812 5.320313 5.320312 5.320313h314.898438c37.144531 0 67.253906-30.109376 67.253906-67.25 0-37.144532-30.109375-67.253907-67.253906-67.253907-37.140625 0-67.25 30.109375-67.25 67.253907 0 2.9375 2.382812 5.320312 5.320312 5.320312s5.320313-2.382812 5.320313-5.320312c0-31.265626 25.34375-56.613282 56.609375-56.613282s56.613281 25.347656 56.613281 56.613282c0 31.265624-25.347656 56.609374-56.613281 56.609374h-110.054688c-3.867187 0-7-3.132812-7-7 0-3.863281 3.132813-7 7-7h110.054688c23.535156 0 42.613281-19.078124 42.613281-42.609374 0-23.535157-19.078125-42.613282-42.613281-42.613282-23.53125 0-42.609375 19.078125-42.609375 42.613282 0 10.667968-8.652344 19.320312-19.320313 19.320312-10.671874 0-19.320312-8.652344-19.320312-19.320312 0-44.875 36.378906-81.253907 81.25-81.253907 44.875 0 81.253906 36.378907 81.253906 81.253907s-36.378906 81.25-81.253906 81.25h-314.898438c-10.664062-.011719-19.3085932-8.65625-19.320312-19.320313zm199.42968775-12.320313c0 3.867188-3.136719 7-7 7h-11.382813c-3.863281 0-7-3.132812-7-7 0-3.863281 3.136719-7 7-7h11.378907c3.863281 0 7 3.136719 7 7zm194.324218 239.601563c-39.191406-.035156-70.953124-31.792969-70.992187-70.984375 0-10.667969 8.648437-19.320312 19.320313-19.320312 10.667968 0 19.316406 8.652343 19.316406 19.320312 0 17.855469 14.476562 32.332031 32.332031 32.332031 17.859375 0 32.332031-14.476562 32.332031-32.332031s-14.472656-32.332031-32.332031-32.332031h-119.242187c-3.867188 0-7-3.132813-7-7 0-3.867188 3.132812-7 7-7h119.261718c25.585938 0 46.332032 20.742187 46.332032 46.332031s-20.746094 46.332031-46.332032 46.332031c-25.589844 0-46.332031-20.742187-46.332031-46.332031 0-2.9375-2.382813-5.320312-5.320313-5.320312-2.941406 0-5.320312 2.382812-5.320312 5.320312-.003906 27.109375 19.101562 50.46875 45.671875 55.84375 26.574219 5.375 53.253906-8.714844 63.789063-33.695312 1.507812-3.558594 5.617187-5.222657 9.179687-3.714844 3.558594 1.507812 5.222656 5.613281 3.714844 9.175781-11.082031 26.296875-36.847657 43.386719-65.382813 43.371094zm63.972657-63.976563c-3.863281 0-7-3.132812-7-7-.03125-31.453124-25.523438-56.945312-56.976563-56.980468h-258.554687c-2.9375 0-5.320313 2.382812-5.320313 5.320312s2.382813 5.320313 5.320313 5.320313h111.519531c3.867188 0 7 3.132812 7 7 0 3.867187-3.132812 7-7 7h-111.519531c-10.667969 0-19.320313-8.648438-19.320313-19.320313 0-10.667968 8.652344-19.320312 19.320313-19.320312h258.554687c39.175782.046875 70.929688 31.792968 70.972656 70.972656 0 3.867188-3.132812 7-7 7zm0 0" fill="#002d42"/></svg>