<svg height="472pt" viewBox="0 -54 472.324 472" width="472pt" xmlns="http://www.w3.org/2000/svg"><path d="m85.726562 122.550781c9.621094.007813 19.117188 2.148438 27.804688 6.269531.667969-61.964843 47.335938-113.757812 108.898438-120.847656 61.5625-7.09375 118.789062 32.730469 133.527343 92.921875 29.605469-12.230469 63.664063-5.421875 86.292969 17.246094 22.628906 22.671875 29.375 56.742187 17.089844 86.324219-12.285156 29.585937-41.179688 48.855468-73.210938 48.828125h-300.402344c-36.109374 0-65.378906-29.273438-65.378906-65.382813s29.269532-65.378906 65.378906-65.378906zm0 0" fill="#d9ecf2"/><g fill="#bdd9e5"><path d="m203.363281 139.632812c0 6.804688 5.515625 12.320313 12.320313 12.320313 6.804687 0 12.320312-5.515625 12.320312-12.320313 0-21.71875 17.605469-39.324218 39.324219-39.332031 21.71875-.003906 39.328125 17.59375 39.339844 39.3125s-17.585938 39.335938-39.304688 39.351563h-94.332031c-6.804688 0-12.320312 5.515625-12.320312 12.320312 0 6.804688 5.515624 12.320313 12.320312 12.320313h94.332031c35.332031-.011719 63.960938-28.664063 63.953125-63.992188-.011718-35.332031-28.65625-63.964843-63.988281-63.960937-35.328125.007812-63.964844 28.652344-63.964844 63.980468zm0 0"/><path d="m113.695312 241.316406c0-6.804687-5.515624-12.320312-12.320312-12.320312h-65.707031c-.246094 0-.480469.0625-.722657.074218 12.394532 15.347657 31.070313 24.257813 50.796876 24.238282h18.378906c5.597656-1.273438 9.570312-6.25 9.574218-11.992188zm0 0"/><path d="m403.058594 201.632812h-43.597656c-6.804688 0-12.320313 5.515626-12.320313 12.320313s5.515625 12.320313 12.320313 12.320313h43.597656c6.804687 0 12.320312-5.515626 12.320312-12.320313s-5.515625-12.320313-12.320312-12.320313zm0 0"/><path d="m293.296875 228.683594h-142.1875c-6.804687 0-12.320313 5.515625-12.320313 12.316406 0 6.804688 5.515626 12.320312 12.320313 12.320312h192.539063c-12.085938-15.535156-30.667969-24.628906-50.351563-24.636718zm0 0"/><path d="m79.570312 203.605469h43.601563c6.804687 0 12.320313-5.515625 12.320313-12.320313 0-6.804687-5.515626-12.320312-12.320313-12.320312h-43.601563c-6.800781 0-12.316406 5.515625-12.316406 12.320312 0 6.804688 5.515625 12.320313 12.316406 12.320313zm0 0"/><path d="m321.554688 100.894531c9.566406-3.960937 19.820312-6 30.171874-6 .890626 0 1.75.101563 2.628907.132813-17.304688-58.347656-74.738281-95.214844-134.992188-86.660156 49.757813 7.09375 90.207031 43.71875 102.191407 92.527343zm0 0"/><path d="m386.128906 94.910156c-5.769531.015625-11.519531.667969-17.144531 1.941406 39.40625 8.789063 65.886719 45.828126 61.460937 85.960938-4.425781 40.132812-38.34375 70.507812-78.722656 70.496094h34.402344c43.738281 0 79.199219-35.457032 79.199219-79.199219s-35.460938-79.199219-79.199219-79.199219zm0 0"/><path d="m343.789062 169.796875s39.777344-20.511719 46.90625-74.65625c-1.519531-.085937-3.027343-.230469-4.566406-.230469-10.355468 0-20.605468 2.039063-30.171875 6 11.007813 47.222656-12.167969 68.886719-12.167969 68.886719zm0 0"/></g><path d="m85.027344 253.636719h-65.707032c-6.804687 0-12.320312-5.515625-12.320312-12.320313 0-6.804687 5.515625-12.320312 12.320312-12.320312h65.707032c6.804687 0 12.320312 5.515625 12.320312 12.320312 0 6.804688-5.515625 12.320313-12.320312 12.320313zm0 0" fill="#26a3b9"/><path d="m106.832031 203.605469h-43.601562c-6.800781 0-12.320313-5.515625-12.320313-12.320313 0-6.804687 5.519532-12.320312 12.320313-12.320312h43.601562c6.804688 0 12.320313 5.515625 12.320313 12.320312 0 6.804688-5.515625 12.320313-12.320313 12.320313zm0 0" fill="#26a3b9"/><path d="m386.710938 226.28125h-43.597657c-6.804687 0-12.320312-5.515625-12.320312-12.320312 0-6.804688 5.515625-12.320313 12.320312-12.320313h43.597657c6.804687 0 12.320312 5.515625 12.320312 12.320313 0 6.804687-5.515625 12.320312-12.320312 12.320312zm0 0" fill="#26a3b9"/><path d="m276.964844 356.613281c-35.328125-.027343-63.960938-28.648437-64-63.976562 0-6.804688 5.515625-12.320313 12.320312-12.320313 6.804688 0 12.320313 5.515625 12.320313 12.320313 0 21.71875 17.601562 39.328125 39.320312 39.332031 21.71875.007812 39.332031-17.59375 39.34375-39.3125.007813-21.71875-17.585937-39.335938-39.304687-39.351562h-142.199219c-6.804687 0-12.320313-5.515626-12.320313-12.320313s5.515626-12.320313 12.320313-12.320313h142.199219c35.132812.28125 63.46875 28.839844 63.46875 63.976563 0 35.132813-28.335938 63.695313-63.46875 63.972656zm0 0" fill="#26a3b9"/><path d="m251 75.65625c-35.316406.042969-63.9375 28.660156-63.976562 63.976562 0 6.804688 5.515624 12.320313 12.320312 12.320313s12.320312-5.515625 12.320312-12.320313c0-21.722656 17.609376-39.332031 39.332032-39.332031 21.71875 0 39.332031 17.609375 39.332031 39.332031 0 21.71875-17.605469 39.332032-39.328125 39.332032h-94.3125c-6.804688 0-12.320312 5.515625-12.320312 12.320312 0 6.804688 5.515624 12.320313 12.320312 12.320313h94.3125c35.132812-.277344 63.46875-28.839844 63.46875-63.972657 0-35.136718-28.335938-63.695312-63.46875-63.976562zm0 0" fill="#26a3b9"/><path d="m85.027344 228.996094h-13.359375c6.804687 0 12.320312 5.515625 12.320312 12.320312 0 6.804688-5.515625 12.320313-12.320312 12.320313h13.359375c6.804687 0 12.320312-5.515625 12.320312-12.320313 0-6.804687-5.515625-12.320312-12.320312-12.320312zm0 0" fill="#168aa5"/><path d="m106.832031 178.964844h-13.359375c6.804688 0 12.320313 5.515625 12.320313 12.320312 0 6.804688-5.515625 12.320313-12.320313 12.320313h13.359375c6.804688 0 12.320313-5.515625 12.320313-12.320313 0-6.804687-5.515625-12.320312-12.320313-12.320312zm0 0" fill="#168aa5"/><path d="m386.710938 201.632812h-13.347657c6.804688 0 12.320313 5.515626 12.320313 12.320313s-5.515625 12.320313-12.320313 12.320313h13.359375c6.804688 0 12.320313-5.515626 12.320313-12.320313s-5.515625-12.320313-12.320313-12.320313zm0 0" fill="#168aa5"/><path d="m237.617188 292.636719c.007812-4.511719-2.457032-8.671875-6.421876-10.828125-3.96875-2.152344-8.796874-1.960938-12.578124.5 3.511718 2.261718 5.636718 6.152344 5.640624 10.328125-.0625 11.617187 5.039063 22.660156 13.925782 30.140625 8.886718 7.480468 20.636718 10.625 32.074218 8.585937-18.84375-3.269531-32.609374-19.601562-32.640624-38.726562zm0 0" fill="#168aa5"/><path d="m276.964844 228.683594h-13.359375c34.050781-.03125 62.15625 26.621094 63.9375 60.625 1.78125 34.007812-23.390625 63.445312-57.257813 66.972656 23.511719 2.449219 46.460938-8.269531 59.671875-27.875 13.210938-19.601562 14.535157-44.894531 3.445313-65.773438-11.09375-20.875-32.796875-33.929687-56.4375-33.949218zm0 0" fill="#168aa5"/><path d="m198.304688 139.632812c-.003907 4.179688-2.128907 8.066407-5.640626 10.328126 3.78125 2.464843 8.613282 2.65625 12.578126.5 3.964843-2.15625 6.433593-6.3125 6.421874-10.828126.03125-19.125 13.808594-35.460937 32.65625-38.722656-11.433593-2.042968-23.1875 1.101563-32.074218 8.585938-8.886719 7.480468-13.988282 18.523437-13.925782 30.136718zm0 0" fill="#168aa5"/><path d="m251 75.65625c-2.230469.003906-4.460938.121094-6.679688.355469 33.867188 3.523437 59.039063 32.964843 57.257813 66.96875-1.777344 34.007812-29.886719 60.660156-63.9375 60.628906h13.359375c35.132812-.277344 63.46875-28.839844 63.46875-63.972656 0-35.136719-28.335938-63.695313-63.46875-63.976563zm0 0" fill="#168aa5"/><path d="m339.410156 62.472656c-3.101562 2.304688-7.488281 1.660156-9.792968-1.441406-3.890626-5.234375-8.207032-10.132812-12.910157-14.644531-2.789062-2.679688-2.878906-7.109375-.203125-9.902344 2.675782-2.789063 7.109375-2.878906 9.898438-.203125 5.265625 5.054688 10.101562 10.542969 14.453125 16.402344 2.304687 3.101562 1.660156 7.484375-1.445313 9.789062zm46.71875 25.433594c-8.625-.007812-17.203125 1.289062-25.441406 3.84375-1.523438-4.933594-3.34375-9.769531-5.445312-14.484375-1.570313-3.535156-5.714844-5.125-9.25-3.550781-3.53125 1.574218-5.121094 5.714844-3.546876 9.25 2.816407 6.320312 5.0625 12.878906 6.707032 19.601562 9.792968 42.210938-9.386719 61.363282-10.148438 62.117188-2.824218 2.636718-2.972656 7.066406-.332031 9.890625 2.636719 2.824219 7.066406 2.976562 9.890625.335937 1.023438-.957031 23.84375-23.105468 15.410156-69.457031 27.113282-8.753906 56.84375-.738281 75.878906 20.460937 19.039063 21.199219 23.820313 51.617188 12.210938 77.636719-11.613281 26.019531-37.445312 42.773438-65.9375 42.761719h-55.523438c-13.4375-15.632812-33.023437-24.632812-53.636718-24.648438h-35.066406c-3.863282 0-7 3.136719-7 7 0 3.867188 3.136718 7 7 7h35.066406c17.355468.007813 33.757812 7.945313 44.539062 21.550782l.035156.046875c15.527344 19.558593 16.5 46.953125 2.394532 67.566406-14.101563 20.609375-39.988282 29.625-63.84375 22.238281-23.855469-7.386718-40.113282-29.457031-40.101563-54.429687 0-2.9375 2.382813-5.320313 5.320313-5.320313s5.320312 2.382813 5.320312 5.320313c0 25.589843 20.742188 46.332031 46.328125 46.332031 25.589844 0 46.332031-20.742188 46.335938-46.328125 0-25.589844-20.742188-46.332031-46.328125-46.335937h-142.203125c-2.941407 0-5.320313-2.378907-5.320313-5.320313 0-2.9375 2.378906-5.320313 5.320313-5.320313h40.625c3.867187 0 7-3.132812 7-7 0-3.863281-3.132813-7-7-7h-40.625c-10.671875 0-19.320313 8.652344-19.320313 19.320313 0 10.671875 8.648438 19.320313 19.320313 19.320313h142.203125c17.855468.003906 32.328125 14.480468 32.328125 32.335937-.003907 17.855469-14.476563 32.328125-32.335938 32.328125-17.855469 0-32.328125-14.476562-32.328125-32.332031 0-10.667969-8.652344-19.320313-19.320312-19.320313-10.671875 0-19.320313 8.652344-19.320313 19.320313-.0625 29.441406 18.054688 55.863281 45.535157 66.414062 27.484374 10.550781 58.625 3.042969 78.28125-18.875 19.652343-21.917969 23.738281-53.691406 10.265624-79.867187h46.054688c47.605469 0 86.199219-38.59375 86.199219-86.199219s-38.59375-86.199219-86.199219-86.199219zm-386.128906 153.410156c.0117188-10.664062 8.65625-19.304687 19.320312-19.320312h2.625c-12.035156-22.414063-11.398437-49.503906 1.679688-71.324219 13.074219-21.824219 36.664062-35.164063 62.101562-35.121094 7.222657-.007812 14.402344 1.085938 21.296876 3.238281 3.996093-45.515624 31.597656-85.589843 72.695312-105.558593 41.09375-19.964844 89.65625-16.890625 127.910156 8.097656 3.230469 2.121094 4.132813 6.460937 2.011719 9.695313-2.121094 3.234374-6.460937 4.136718-9.691406 2.015624-35.464844-23.160156-80.734375-25.148437-118.089844-5.1875-37.359375 19.960938-60.867187 58.695313-61.328125 101.050782-.023438 2.386718-1.261719 4.597656-3.289062 5.863281-2.023438 1.265625-4.554688 1.410156-6.710938.386719-7.746094-3.683594-16.21875-5.597656-24.800781-5.597656-32.242188.027343-58.371094 26.15625-58.398438 58.398437-.027343 12.242187 3.84375 24.175781 11.054688 34.070313h46.640625c10.671875 0 19.320312 8.648437 19.320312 19.316406 0 10.671875-8.648437 19.320312-19.320312 19.320312h-65.707032c-10.675781-.011718-19.320312-8.667968-19.320312-19.34375zm14 0c.003906 2.9375 2.382812 5.316406 5.320312 5.320313h65.707032c2.9375 0 5.320312-2.378907 5.320312-5.320313 0-2.9375-2.382812-5.320312-5.320312-5.320312h-65.707032c-2.9375.007812-5.316406 2.386718-5.320312 5.320312zm112.164062-50.03125c-.011718 10.664063-8.65625 19.308594-19.320312 19.320313h-43.601562c-10.667969 0-19.316407-8.648438-19.316407-19.320313 0-10.667968 8.648438-19.320312 19.316407-19.320312h43.601562c10.664062.015625 19.308594 8.65625 19.320312 19.320312zm-14 0c-.003906-2.9375-2.382812-5.316406-5.320312-5.320312h-43.601562c-2.9375 0-5.316407 2.382812-5.316407 5.320312s2.378907 5.320313 5.316407 5.320313h43.601562c2.9375-.003907 5.316406-2.382813 5.320312-5.320313zm230.953126 17.34375h21.796874c3.867188 0 7-3.132812 7-7 0-3.863281-3.132812-7-7-7h-21.796874c-10.671876 0-19.320313 8.652344-19.320313 19.320313 0 10.671875 8.648437 19.320312 19.320313 19.320312h43.597656c10.671875 0 19.320312-8.648437 19.320312-19.320312 0-10.667969-8.648437-19.320313-19.320312-19.320313-3.863282 0-7 3.136719-7 7 0 3.867188 3.136718 7 7 7 2.9375 0 5.320312 2.382813 5.320312 5.320313s-2.382812 5.320312-5.320312 5.320312h-43.597656c-2.9375 0-5.320313-2.382812-5.320313-5.320312s2.382813-5.320313 5.320313-5.320313zm-143.4375 13.035156c-3.867188 0-7 3.136719-7 7 0 3.867188 3.132812 7 7 7h19.664062c3.867188 0 7-3.132812 7-7 0-3.863281-3.132812-7-7-7zm122.292968-82.03125c.015625-29.164062-17.824218-55.367187-44.960937-66.046874-27.140625-10.683594-58.050781-3.667969-77.917969 17.683593-2.636719 2.828125-2.484375 7.257813.34375 9.894531 2.828125 2.636719 7.257812 2.480469 9.894531-.347656 17.746094-19.050781 46.148438-23.648437 68.996094-11.164062 22.847656 12.480468 34.324219 38.867187 27.878906 64.089844-6.445312 25.226562-29.171875 42.871093-55.207031 42.863281h-94.316406c-2.9375 0-5.320313-2.382813-5.320313-5.320313s2.382813-5.320312 5.320313-5.320312h94.316406c25.589844 0 46.328125-20.746094 46.328125-46.332032 0-25.589843-20.746094-46.332031-46.332031-46.332031-25.589844 0-46.332032 20.746094-46.332032 46.332031 0 2.9375-2.382812 5.320313-5.320312 5.320313s-5.320312-2.382813-5.320312-5.320313c-.007813-6.542968 1.121093-13.039062 3.328124-19.199218 1.304688-3.640625-.589843-7.652344-4.230468-8.957032-3.644532-1.304687-7.652344.589844-8.957032 4.234376-2.753906 7.675781-4.15625 15.769531-4.148437 23.921874 0 10.671876 8.648437 19.320313 19.320313 19.320313 10.671874 0 19.320312-8.648437 19.320312-19.320313 0-17.855468 14.472656-32.332031 32.332031-32.332031 17.855469 0 32.332031 14.472657 32.332031 32.332031 0 17.855469-14.472656 32.332032-32.328124 32.332032h-94.308594c-10.667969 0-19.320313 8.652344-19.320313 19.320312 0 10.671875 8.652344 19.320313 19.320313 19.320313h94.316406c39.179688-.042969 70.929688-31.792969 70.972656-70.972657zm0 0" fill="#002d42"/></svg>